<?xml version="1.0" encoding="UTF-8" standalone="no"?>
<svg xmlns="http://www.w3.org/2000/svg" width="4558" height="2057"><path id="A" unicode="A" d="m 439,1657 h 101 q 39,-59 79,-115 40,-56 81.5,-100 41.5,-44 84,-71 42.5,-27 86.5,-27 21,0 38.5,-4 17.5,-4 29.5,-9 14,-6 26,-14 l 5,10 q -7,6 -14,15 -13,17 -31,49 -7,13 -18,40.5 -11,27.5 -24,63.5 -13,36 -27,78 -14,42 -27,84 h 39 l -9,18 h -35 q -11,35 -20,68 -9,33 -15.5,61 -6.5,28 -10.5,49.5 -4,21.5 -4,34.5 0,11 4.5,14.5 4.5,3.5 10.5,3.5 7,0 15,-5 8,-5 16,-11 9,-7 18,-16 l 8,8 q -16,18 -33,31 -14,12 -30.5,21.5 -16.5,9.5 -31.5,9.5 -27,0 -49.5,-16 -22.5,-16 -22.5,-46 0,-35 14,-88 14,-53 37,-119 H 610 q -38,69 -79,137.5 -41,68.5 -90,123 -49,54.5 -106.5,88 Q 277,2057 207,2057 158,2057 119.5,2041 81,2025 54.5,1998 28,1971 14,1936.5 0,1902 0,1864 0,1816 16.5,1779.5 33,1743 59,1718 q 26,-25 57,-37.5 31,-12.5 61,-12.5 22,0 41.5,5.5 19.5,5.5 34.5,14.5 15,9 23.5,20.5 8.5,11.5 8.5,23.5 0,11 -7.5,21.5 -7.5,10.5 -24.5,10.5 -17,0 -25,-11.5 -8,-11.5 -8,-30.5 0,-15 -10.5,-24 -10.5,-9 -35.5,-9 -24,0 -48.5,10 -24.5,10 -44,29 -19.5,19 -32,46 -12.5,27 -12.5,60 0,60 41,94.5 41,34.5 116,34.5 47,0 91,-23 44,-23 86,-62.5 42,-39.5 81.5,-91.5 39.5,-52 78.5,-111 H 430 Z m 436,-297 q -33,0 -65.5,24.5 Q 777,1409 745,1450 713,1491 681.5,1544.5 650,1598 618,1657 h 117 q 17,-49 38,-101.5 21,-52.5 42,-107.5 10,-25 23.5,-48.5 Q 852,1376 875,1360 Z"></path></svg>
