<?xml version="1.0" encoding="UTF-8" standalone="no"?>
<svg xmlns="http://www.w3.org/2000/svg" width="4558" height="2057"><path id="approxequal" unicode="&#x2248;" d="m 347,1896 q 37,0 54.5,-9 17.5,-9 31.5,-22 2,-1 3.5,-2.5 1.5,-1.5 4.5,-1.5 5,0 5,6 0,5 -4,12 -7,9 -16,20 -9,11 -22,21 -13,10 -30.5,16.5 -17.5,6.5 -41.5,6.5 -26,0 -59,-10.5 Q 240,1922 207.5,1909 175,1896 146,1885.5 117,1875 99,1875 q -34,0 -52,11.5 -18,11.5 -32,25.5 -6,6 -9,6 -6,0 -6,-7 0,-3 3,-8 8,-11 18,-23.5 10,-12.5 23.5,-23 13.5,-10.5 31,-17 17.5,-6.5 38.5,-6.5 30,0 58.5,10 28.5,10 57,21.5 28.5,11.5 57.5,21.5 29,10 60,10 z m 0,114 q 37,0 54.5,-9 17.5,-9 31.5,-22 2,-1 3.5,-2.5 1.5,-1.5 4.5,-1.5 5,0 5,6 0,5 -4,12 -7,9 -16,20 -9,11 -22,21 -13,10 -30.5,16.5 -17.5,6.5 -41.5,6.5 -26,0 -59,-10.5 Q 240,2036 207.5,2023 175,2010 146,1999.5 117,1989 99,1989 q -34,0 -52,11.5 -18,11.5 -32,25.5 -6,6 -9,6 -6,0 -6,-7 0,-3 3,-8 8,-11 18,-23.5 10,-12.5 23.5,-23 13.5,-10.5 31,-17 17.5,-6.5 38.5,-6.5 30,0 58.5,10 28.5,10 57,21.5 28.5,11.5 57.5,21.5 29,10 60,10 z"></path></svg>
