<?xml version="1.0" encoding="UTF-8" standalone="no"?>
<svg xmlns="http://www.w3.org/2000/svg" width="4558" height="2057"><path id="asciitilde" unicode="~" d="m 345,2014 q 38,0 55.5,-7 17.5,-7 30.5,-21 6,-6 9,-6 6,0 6,6 0,6 -4,11 -6,9 -16,19.5 -10,10.5 -22.5,19.5 -12.5,9 -29,15 -16.5,6 -35.5,6 -27,0 -61,-10 -34,-10 -68,-21.5 -34,-11.5 -64,-21.5 -30,-10 -48,-10 -34,0 -52,12 -18,12 -30,25 -6,6 -10,6 -2,0 -4,-2 -2,-2 -2,-5 0,-4 3,-9 7,-9 17.5,-21 10.5,-12 24,-22 13.5,-10 31,-17 17.5,-7 38.5,-7 30,0 58.5,9.5 28.5,9.5 57,20.5 28.5,11 57,20.5 28.5,9.5 58.5,9.5 z"></path></svg>
