<?xml version="1.0" encoding="UTF-8" standalone="no"?>
<svg xmlns="http://www.w3.org/2000/svg" width="4558" height="2057"><path id="at" unicode="@" d="m 233,2013 q -22,17 -50.5,30.5 Q 154,2057 113,2057 95,2057 75,2051.5 55,2046 38.5,2034.5 22,2023 11,2005 0,1987 0,1962 0,1918 27.5,1877 55,1836 100,1805 145,1774 201.5,1755.5 258,1737 317,1737 q 27,0 51,5 24,5 42,15.5 18,10.5 28.5,27.5 10.5,17 10.5,41 0,33 -16,66.5 -16,33.5 -40,60 -24,26.5 -51.5,43 Q 314,2012 291,2012 268,2012 257.5,2000.5 247,1989 247,1975 q 0,-11 4,-24 -5,9 -15,20 -10,11 -22,21 -12,10 -26,16.5 -14,6.5 -27,6.5 -35,0 -52.5,-19.5 Q 91,1976 91,1949 q 0,-31 14,-58 14,-27 35.5,-47 21.5,-20 46,-31.5 24.5,-11.5 45.5,-11.5 23,0 37,11 14,11 16,28 5,-13 15.5,-21 10.5,-8 32.5,-12 11,-1 19,-3.5 8,-2.5 13,-5.5 6,-4 11,-7 l 6,10 q -7,4 -13,9 -5,5 -11.5,12 -6.5,7 -11.5,16 -5,10 -11,27.5 -6,17.5 -11.5,36 -5.5,18.5 -9.5,36 -4,17.5 -4,28.5 0,17 12,17 13,0 27,-12 14,-12 25.5,-33 11.5,-21 19,-49.5 7.5,-28.5 7.5,-60.5 0,-35 -22,-57 -22,-22 -72,-22 -45,0 -89.5,17 -44.5,17 -80.5,47 -36,30 -58.5,70.5 Q 56,1924 56,1971 q 0,38 21,54 21,16 55,16 29,0 52.5,-11 23.5,-11 41.5,-25 z m -44,-26 q 8,0 17.5,-6 9.5,-6 18.5,-15.5 9,-9.5 17,-21.5 8,-12 14,-24 3,-6 6,-15 3,-9 5.5,-18 2.5,-9 4,-17.5 1.5,-8.5 1.5,-13.5 0,-15 -6.5,-27 -6.5,-12 -25.5,-12 -15,0 -28.5,12 -13.5,12 -23.5,30.5 -10,18.5 -16,40.5 -6,22 -6,41 0,24 4.5,35 4.5,11 17.5,11 z"></path></svg>
