<?xml version="1.0" encoding="UTF-8" standalone="no"?>
<svg xmlns="http://www.w3.org/2000/svg" width="4558" height="2057"><path id="B" unicode="B" d="m 515,1408 q -21,-7 -42,-9.5 -21,-2.5 -48,-2.5 -64,0 -127,22 -63,22 -113.5,59.5 -50.5,37.5 -81.5,88.5 -31,51 -31,109 0,52 22.5,84 22.5,32 75.5,32 39,0 63,-23 24,-23 24,-51 0,-9 -3,-14.5 -3,-5.5 -7,-10 -4,-4.5 -7,-10 -3,-5.5 -3,-13.5 0,-13 8,-22.5 8,-9.5 22,-9.5 35,0 35,41 0,26 -11,50 -11,24 -30,42 -19,18 -44,29 -25,11 -53,11 -33,0 -62.5,-8.5 -29.5,-8.5 -52,-26 Q 27,1758 13.5,1731.5 0,1705 0,1669 0,1625 18.5,1586.5 37,1548 69,1516 q 32,-32 74,-57.5 42,-25.5 89,-43 47,-17.5 96.5,-26.5 49.5,-9 95.5,-9 32,0 60,2.5 28,2.5 55,7.5 21,-13 43,-19.5 22,-6.5 42,-6.5 22,0 41,6 19,6 19,13 0,8 -7,14 -7,6 -12,6 -4,0 -7,-3.5 -3,-3.5 -7,-8 -4,-4.5 -10.5,-8 -6.5,-3.5 -16.5,-3.5 -14,0 -23,5 -9,5 -21,15 66,19 104.5,55.5 38.5,36.5 38.5,86.5 0,43 -17,72.5 -17,29.5 -37,47.5 -20,18 -38,26.5 -18,8.5 -19,8.5 2,1 17.5,8 15.5,7 33.5,22 18,15 33,39.5 15,24.5 15,58.5 0,46 -19,81 -19,35 -48,59 -29,24 -64,36 -35,12 -68,12 -31,0 -54,-8 -23,-8 -38,-20.5 -15,-12.5 -22.5,-28 -7.5,-15.5 -7.5,-30.5 0,-14 5.5,-24.5 5.5,-10.5 12,-17.5 6.5,-7 13,-10.5 6.5,-3.5 9.5,-3.5 6,0 6,5 0,5 -5.5,19 -5.5,14 -5.5,36 0,22 18,42.5 18,20.5 51,20.5 53,0 83.5,-51.5 Q 608,1890 608,1802 q 0,-24 -5.5,-41.5 Q 597,1743 591,1732 q -7,-13 -16,-21 -8,3 -16,5 -17,5 -33,5 -11,0 -23,-5 -12,-5 -12,-17 0,-11 10,-17.5 10,-6.5 28,-6.5 12,0 28,4.5 16,4.5 21,7.5 12,-14 23,-34 8,-17 15.5,-43.5 7.5,-26.5 7.5,-64.5 0,-39 -14,-69.5 -14,-30.5 -54,-50.5 -40,44 -64.5,109 -24.5,65 -44,137 -19.5,72 -39.5,142.5 -20,70.5 -52,123.5 -38,63 -93.5,91.5 Q 207,2057 155,2057 q -30,0 -50.5,-6.5 -20.5,-6.5 -33,-16 Q 59,2025 54,2015 q -5,-10 -5,-16 0,-8 4,-13 4,-5 12,-5 8,0 11.5,5 3.5,5 3.5,10 0,4 2.5,10.5 2.5,6.5 8.5,12.5 6,6 16.5,10 10.5,4 25.5,4 42,0 69,-30.5 27,-30.5 56,-92.5 16,-34 32.5,-77 16.5,-43 35,-90.5 18.5,-47.5 38.5,-96 20,-48.5 43.5,-93 23.5,-44.5 50,-82.5 26.5,-38 57.5,-63 z"></path></svg>
