<?xml version="1.0" encoding="UTF-8" standalone="no"?>
<svg xmlns="http://www.w3.org/2000/svg" width="4558" height="2057"><path id="braceright" unicode="}" d="m 267,1780 q 0,6 -10,6 -21,0 -35.5,7.5 -14.5,7.5 -24.5,28.5 -6,14 -9.5,34 -3.5,20 -7,43.5 -3.5,23.5 -9,47 -5.5,23.5 -15.5,43.5 -11,20 -29,33 -18,13 -39,20.5 -21,7.5 -42.5,10.5 -21.5,3 -37.5,3 -2,0 -5,-0.5 -3,-0.5 -3,-3.5 0,-4 11,-6 25,-5 40.5,-18 15.5,-13 33.5,-41 20,-32 37,-73.5 17,-41.5 43,-86.5 17,-29 39.5,-39.5 22.5,-10.5 38.5,-10.5 -5,-2 -13,-5.5 -8,-3.5 -16,-10 -8,-6.5 -14,-15.5 -6,-9 -7,-22 -3,-39 -3,-81 v -32 q 0,-32 -9.5,-58.5 Q 171,1527 133,1513 q -6,-2 -6,-5 0,-4 8,-4 16,0 36,4 20,4 37.5,13 17.5,9 29.5,24 12,15 12,38 0,23 -4,40.5 -4,17.5 -8.5,33.5 -4.5,16 -8.5,33 -4,17 -4,38 0,18 9.5,29 9.5,11 26.5,17 6,3 6,6 z"></path></svg>
