<?xml version="1.0" encoding="UTF-8" standalone="no"?>
<svg xmlns="http://www.w3.org/2000/svg" width="4558" height="2057"><path id="C" unicode="C" d="m 468,1877 q -16,24 -42,55.5 -26,31.5 -60.5,59 -34.5,27.5 -76,46.5 -41.5,19 -88.5,19 -41,0 -77,-11 Q 88,2035 60,2012 32,1989 16,1952.5 0,1916 0,1866 q 0,-71 21,-135 21,-64 55.5,-118 34.5,-54 79,-97 44.5,-43 92,-73.5 47.5,-30.5 94,-46.5 46.5,-16 84.5,-16 51,0 80.5,23 29.5,23 29.5,70 0,37 -14.5,62 -14.5,25 -37.5,25 -12,0 -22,-8.5 -10,-8.5 -10,-22.5 0,-15 7.5,-24 7.5,-9 16.5,-16 9,-7 16.5,-16 7.5,-9 7.5,-24 0,-22 -17,-34 -17,-12 -47,-12 -48,0 -102,36 -54,36 -100.5,99 -46.5,63 -77,147 -30.5,84 -30.5,180 0,78 31.5,113 31.5,35 86.5,35 34,0 66.5,-15 32.5,-15 60.5,-37 28,-22 50,-47 22,-25 37,-45 z"></path></svg>
