<?xml version="1.0" encoding="UTF-8" standalone="no"?>
<svg xmlns="http://www.w3.org/2000/svg" width="4558" height="2057"><path id="ccaron" unicode="&#x10D;" d="m 177,1812 q 29,0 49.5,14.5 20.5,14.5 20.5,35.5 0,17 -10.5,30 -10.5,13 -27.5,13 -14,0 -24,-7.5 -10,-7.5 -10,-18.5 0,-14 9,-22 9,-8 9,-18 0,-12 -10,-12 -20,0 -37,12 -17,12 -30,31 -13,19 -20,44 -7,25 -7,50 0,34 13.5,48.5 13.5,14.5 33.5,14.5 13,0 25.5,-5.5 12.5,-5.5 22.5,-13.5 11,-9 22,-20 l 7,8 q -15,18 -33,31 -16,11 -36.5,20.5 Q 123,2057 98,2057 81,2057 63.5,2053.5 46,2050 32,2041 q -14,-9 -23,-24 -9,-15 -9,-38 0,-39 17,-70 17,-31 43.5,-52.5 26.5,-21.5 57.5,-33 31,-11.5 59,-11.5 z m 7,-20 q -9,0 -22,-13 -13,-13 -24,-30 -11,-17 -19,-33.5 -8,-16.5 -8,-23.5 0,-9 10,-9 4,0 11.5,9.5 7.5,9.5 17.5,21 10,11.5 21,21 11,9.5 22,9.5 15,0 31,-9.5 16,-9.5 30.5,-21.5 14.5,-12 24.5,-21.5 10,-9.5 13,-9.5 10,0 10,9 0,5 -14.5,21.5 -14.5,16.5 -34,34 -19.5,17.5 -39.5,31.5 -20,14 -30,14 z"></path></svg>
