<?xml version="1.0" encoding="UTF-8" standalone="no"?>
<svg xmlns="http://www.w3.org/2000/svg" width="4558" height="2057"><path id="Ccedilla" unicode="&#xC7;" d="m 220,1950 q 0,7 5.5,8 5.5,1 9.5,1 11,0 23.5,-3 12.5,-3 18.5,-3 10,0 14,6 4,6 4,12 0,20 -13.5,36 -13.5,16 -34,27 -20.5,11 -44,17 -23.5,6 -42.5,6 -5,0 -15,-1 -10,-1 -20,-4 -10,-3 -17.5,-7 -7.5,-4 -7.5,-10 0,-8 6.5,-16 6.5,-8 13.5,-8 5,0 8,3.5 3,3.5 8.5,7.5 5.5,4 14,7.5 8.5,3.5 25.5,3.5 12,0 25.5,-3.5 13.5,-3.5 25,-9.5 11.5,-6 19.5,-14.5 8,-8.5 8,-18.5 0,-9 -10,-9 -16,0 -29.5,4.5 -13.5,4.5 -32.5,4.5 -5,0 -8.5,-4.5 -3.5,-4.5 -3.5,-9.5 l 8,-36 q -37,-3 -69.5,-15 Q 77,1910 52.5,1886.5 28,1863 14,1828.5 0,1794 0,1747 q 0,-71 21,-135 21,-64 55.5,-118 34.5,-54 79,-97 44.5,-43 92,-73.5 47.5,-30.5 94,-46.5 46.5,-16 84.5,-16 51,0 80.5,23 29.5,23 29.5,70 0,37 -14.5,62 -14.5,25 -37.5,25 -12,0 -22,-8.5 -10,-8.5 -10,-22.5 0,-15 7.5,-24 7.5,-9 16.5,-16 9,-7 16.5,-16 7.5,-9 7.5,-24 0,-22 -17,-34 -17,-12 -47,-12 -48,0 -102,36 -54,36 -100.5,99 -46.5,63 -77,147 -30.5,84 -30.5,180 0,78 31.5,113 31.5,35 86.5,35 34,0 66.5,-15 32.5,-15 60.5,-37 28,-22 50,-47 22,-25 37,-45 l 10,8 q -15,23 -39,52 -24,29 -55.5,55.5 -31.5,26.5 -69.5,46.5 -38,20 -81,24 -3,8 -3,14 z"></path></svg>
