<?xml version="1.0" encoding="UTF-8" standalone="no"?>
<svg xmlns="http://www.w3.org/2000/svg" width="4558" height="2057"><path id="cedilla" unicode="&#xB8;" d="m 119,1950 q 0,7 5.5,8 5.5,1 9.5,1 11,0 23.5,-3 12.5,-3 18.5,-3 10,0 14,6 4,6 4,12 0,20 -13.5,36 -13.5,16 -34,27 -20.5,11 -44,17 -23.5,6 -42.5,6 -5,0 -15,-1 -10,-1 -20,-4 -10,-3 -17.5,-7 -7.5,-4 -7.5,-10 0,-8 6.5,-16 6.5,-8 13.5,-8 5,0 8,3.5 3,3.5 8.5,7.5 5.5,4 14,7.5 8.5,3.5 25.5,3.5 12,0 25.5,-3.5 13.5,-3.5 25,-9.5 11.5,-6 19.5,-14.5 8,-8.5 8,-18.5 0,-9 -10,-9 -16,0 -29.5,4.5 -13.5,4.5 -32.5,4.5 -5,0 -8.5,-4.5 Q 70,1978 70,1973 l 10,-42 h 45 q -2,4 -3,8 -3,6 -3,11 z"></path></svg>
