<?xml version="1.0" encoding="UTF-8" standalone="no"?>
<svg xmlns="http://www.w3.org/2000/svg" width="4558" height="2057"><path id="cent" unicode="&#xA2;" d="m 198,1779 q 16,0 30,11 14,11 14,27 0,14 -8,26.5 -8,12.5 -21,12.5 -8,0 -11.5,-4.5 -3.5,-4.5 -3.5,-9.5 0,-8 7,-16 7,-8 7,-15 0,-7 -5,-9.5 -5,-2.5 -13,-4.5 l -56,195 q 14,0 30,-11 16,-11 27,-22 6,-5 9,-6 3,-1 5,-1 7,0 7,7 0,5 -2,9 -2,4 -10,12 -12,13 -30,24.5 -18,11.5 -43,16.5 l -9,28 q -2,4 -9,6 -7,2 -15,2 -8,0 -14,-1.5 -6,-1.5 -6,-6.5 l 9,-27 q -35,-1 -61,-23 -26,-22 -26,-59 0,-27 10.5,-53 10.5,-26 31,-48 20.5,-22 49,-37 28.5,-15 64.5,-21 l 9,-30 q 1,-5 7.5,-8 6.5,-3 13.5,-3 7,0 14.5,2 7.5,2 7.5,7 z m -51,30 q -13,7 -25.5,22.5 -12.5,15.5 -23,35 -10.5,19.5 -17,40.5 -6.5,21 -6.5,39 0,10 4.5,23.5 Q 84,1983 95,1986 Z"></path></svg>
