<?xml version="1.0" encoding="UTF-8" standalone="no"?>
<svg xmlns="http://www.w3.org/2000/svg" width="4558" height="2057"><path id="colon" unicode=":" d="m 0,2031 q 0,-9 3.5,-19.5 Q 7,2001 14,1992 q 7,-9 16,-15 9,-6 20,-6 11,0 16.5,7.5 5.5,7.5 5.5,18.5 0,10 -3.5,20.5 -3.5,10.5 -10,19.5 -6.5,9 -16,14.5 Q 33,2057 22,2057 11,2057 5.5,2049.5 0,2042 0,2031 Z m 39,-131 q 0,-8 4,-18 4,-10 10.5,-19 6.5,-9 16,-15 9.5,-6 20.5,-6 11,0 16.5,7 5.5,7 5.5,18 0,9 -3.5,19.5 -3.5,10.5 -10,19.5 -6.5,9 -15.5,15 -9,6 -20,6 -11,0 -17.5,-8 -6.5,-8 -6.5,-19 z"></path></svg>
