<?xml version="1.0" encoding="UTF-8" standalone="no"?>
<svg xmlns="http://www.w3.org/2000/svg" width="4558" height="2057"><path id="copyright" unicode="&#xA9;" d="m 191,1955 q 8,0 12,6 4,6 4,14 0,8 -6.5,13 -6.5,5 -15.5,8 -9,3 -19.5,4.5 -10.5,1.5 -18.5,1.5 -38,0 -65,-21.5 -27,-21.5 -27,-66.5 0,-40 27.5,-64 27.5,-24 69.5,-24 17,0 33.5,6.5 16.5,6.5 16.5,14.5 0,27 -14,27 -5,0 -13,-5.5 -8,-5.5 -22,-5.5 -26,0 -40,13.5 -14,13.5 -14,37.5 0,24 13.5,37.5 13.5,13.5 37.5,13.5 19,0 26,-5 7,-5 15,-5 z M 0,1913 q 0,-30 11.5,-56 11.5,-26 31,-46 19.5,-20 46,-31.5 26.5,-11.5 55.5,-11.5 30,0 56,11.5 26,11.5 46,31.5 20,20 31.5,46 11.5,26 11.5,56 0,29 -11.5,55.5 -11.5,26.5 -31.5,46 -20,19.5 -46,31 -26,11.5 -56,11.5 -29,0 -55.5,-11.5 Q 62,2034 42.5,2014.5 23,1995 11.5,1968.5 0,1942 0,1913 Z m 40,0 q 0,21 8,40 8,19 22.5,33 14.5,14 33.5,22 19,8 40,8 22,0 40.5,-8 18.5,-8 32.5,-22 14,-14 22,-33 8,-19 8,-40 0,-21 -8,-40 -8,-19 -22,-33 -14,-14 -32.5,-22 -18.5,-8 -40.5,-8 -21,0 -40,8 -19,8 -33.5,22 -14.5,14 -22.5,32.5 -8,18.5 -8,40.5 z"></path></svg>
