<?xml version="1.0" encoding="UTF-8" standalone="no"?>
<svg xmlns="http://www.w3.org/2000/svg" width="4558" height="2057"><path id="D" unicode="D" d="m 424,2040 q -56,0 -90,-4 -34,-4 -69,-14 -28,19 -67.5,27 -39.5,8 -76.5,8 -43,0 -71.5,-15.5 Q 21,2026 21,1997 21,1978 38.5,1967.5 56,1957 77,1957 q 25,0 49.5,4.5 24.5,4.5 50.5,12.5 51,-46 92.5,-132.5 Q 311,1755 346,1647 q 26,-81 54,-135.5 28,-54.5 57,-86.5 -12,-2 -21.5,-2.5 -9.5,-0.5 -23.5,-0.5 -62,0 -123,21 -61,21 -110,58 -49,37 -79,86 -30,49 -30,105 0,50 20,81.5 20,31.5 75,31.5 19,0 34.5,-6.5 15.5,-6.5 26.5,-16.5 11,-10 16.5,-23 5.5,-13 5.5,-26 0,-9 -3,-14 -3,-5 -6.5,-9.5 -3.5,-4.5 -6.5,-9.5 -3,-5 -3,-13 0,-11 8,-21 8,-10 23,-10 15,0 24,11 9,11 9,28 0,27 -11,50.5 -11,23.5 -29.5,40.5 -18.5,17 -43,27 -24.5,10 -51.5,10 -32,0 -60.5,-8.5 -28.5,-8.5 -50,-25 Q 26,1773 13,1747.5 0,1722 0,1687 q 0,-64 39,-115.5 39,-51.5 99.5,-88.5 60.5,-37 133,-57 72.5,-20 139.5,-20 17,0 30.5,1 13.5,1 29.5,3 20,-17 42,-25 22,-8 44,-8 23,0 40.5,5 17.5,5 17.5,13 0,8 -6.5,14 -6.5,6 -12.5,6 -5,0 -8,-3.5 -3,-3.5 -7,-8 -4,-4.5 -9.5,-8.5 -5.5,-4 -14.5,-4 -25,0 -44,25 55,10 100.5,33 45.5,23 78,57.5 32.5,34.5 50.5,81.5 18,47 18,105 0,76 -29.5,140 -29.5,64 -77.5,110 -48,46 -108,71.5 -60,25.5 -121,25.5 z m 225,-375 q 0,-42 -6.5,-80 -6.5,-38 -23,-68 -16.5,-30 -44.5,-51.5 -28,-21.5 -71,-32.5 -19,35 -31,93.5 -12,58.5 -33,136.5 -15,56 -30,107.5 -15,51.5 -33,96 -18,44.5 -41,80.5 -23,36 -54,61 31,8 55.5,10 24.5,2 50.5,2 60,0 108.5,-27 48.5,-27 82,-74.5 Q 612,1871 630.5,1806 649,1741 649,1665 Z M 51,1995 q 0,8 9.5,11.5 9.5,3.5 24.5,3.5 23,0 40,-4.5 17,-4.5 35,-16.5 -22,-6 -38,-9 -16,-3 -33,-3 -21,0 -29.5,5 -8.5,5 -8.5,13 z"></path></svg>
