<?xml version="1.0" encoding="UTF-8" standalone="no"?>
<svg xmlns="http://www.w3.org/2000/svg" width="4558" height="2057"><path id="dagger" unicode="&#x2020;" d="m 170,2048 q 0,9 -7,9 -7,0 -7,-9 0,-85 -3,-139.5 -3,-54.5 -8,-87 -5,-32.5 -10.5,-48 Q 129,1758 123,1751 q -7,-9 -7,-11 0,-3 3,-5.5 3,-2.5 7,-6.5 5,-5 9.5,-10 4.5,-5 7.5,-14 3,-9 4.5,-24.5 1.5,-15.5 1.5,-41.5 -21,0 -35,1 -14,1 -23.5,4 -9.5,3 -16,7.5 -6.5,4.5 -12.5,10.5 -6,6 -8,6 -2,0 -4.5,-2.5 L 45,1660 q -8,-8 -16.5,-14 -8.5,-6 -21.5,-13 -7,-2 -7,-6 0,-2 2.5,-4 2.5,-2 4.5,-4 13,-7 21,-14 8,-7 17,-16 2,-2 4,-4.5 2,-2.5 4,-2.5 2,0 4.5,2.5 l 4.5,4.5 q 6,6 12.5,10 6.5,4 16.5,6.5 10,2.5 24,4 14,1.5 34,1.5 0,-55 -9.5,-79.5 Q 130,1507 121,1500 q -5,-5 -5,-7 0,-3 5,-8 7,-7 16,-17 9,-10 17,-21 4,-7 9,-7 4,0 8,7 7,11 16,20.5 9,9.5 17,16.5 l 4,4 q 0,0 2,4 2,4 -6,8 -8,4 -17.5,31 -9.5,27 -11.5,80 41,0 58,-4.5 17,-4.5 29,-17.5 5,-5 9,-5 2,0 4.5,2 2.5,2 3.5,3 8,9 17.5,16.5 9.5,7.5 20.5,12.5 7,2 7,7 0,3 -6,7 -25,14 -39,28 l -4.5,4.5 q 0,0 -4.5,2.5 -4.5,2.5 -4,-1.5 0.5,-4 -4,-3.5 -7,-7 -13.5,-11.5 -6.5,-4.5 -16,-7.5 -9.5,-3 -23,-4 -13.5,-1 -33.5,-1 0,28 2,43.5 2,15.5 5.5,24.5 3.5,9 8.5,13.5 5,4.5 11,10.5 7,7 7,10 0,2 -2.5,5 -2.5,3 -4.5,7 -5,7 -10.5,22 -5.5,15 -10.5,47.5 -5,32.5 -8.5,87 Q 170,1963 170,2048 Z"></path></svg>
