<?xml version="1.0" encoding="UTF-8" standalone="no"?>
<svg xmlns="http://www.w3.org/2000/svg" width="4558" height="2057"><path id="daggerdbl" unicode="&#x2021;" d="m 167,1647 q -23,0 -39,1.5 -16,1.5 -27,4.5 -11,3 -19,8 -8,5 -15,12 l -3.5,3.5 q 0,0 -4.5,1.5 -2,0 -8,-6 -18,-18 -44,-31 -7,-3 -7,-7 0,-4 7,-8 14,-7 24,-15.5 10,-8.5 20,-18.5 6,-6 8,-6 3,0 4.5,2 1.5,2 3.5,4 13,14 34,19.5 21,5.5 66,5.5 0,-61 -11,-89 -11,-28 -21,-35 -6,-4 -6,-8 0,-3 6,-9 8,-8 19,-19.5 11,-11.5 19,-22.5 6,-8 9,-8 3,0 4,1.5 1,1.5 4,6.5 8,12 18.5,23.5 10.5,11.5 19.5,18.5 6,5 6,7 0,3 -6,9 -3,3 -9,11.5 -6,8.5 -11.5,23.5 -5.5,15 -9.5,37.5 -4,22.5 -4,52.5 46,0 66,-5.5 20,-5.5 34,-19.5 5,-5 7,-5 3,0 4.5,2 1.5,2 3.5,4 9,9 21.5,18.5 12.5,9.5 22.5,13.5 8,3 8,8 0,5 -7,8 -27,14 -44,31 l -4,4 q 0,0 -5,2 -2,0 -4,-1.5 -2,-1.5 -3,-2.5 -8,-7 -15.5,-12 -7.5,-5 -18.5,-8.5 -11,-3.5 -26.5,-5 Q 218,1647 196,1647 v 188 q 24,0 39.5,-1.5 15.5,-1.5 26.5,-5 11,-3.5 18.5,-8.5 7.5,-5 14.5,-12 2,-2 3.5,-4 1.5,-2 4.5,-2 2,0 4,2.5 2,2.5 4,4.5 9,9 20,17 11,8 25,15 6,3 6,7 0,4 -6,6 -14,8 -24.5,16.5 -10.5,8.5 -20.5,19.5 -1,2 -3,4 -2,2 -4,2 -3,0 -5,-2 l -4,-4 q -7,-6 -15,-11 -8,-5 -19,-8.5 -11,-3.5 -27,-5 -16,-1.5 -38,-1.5 0,62 10.5,90 10.5,28 21.5,36 3,2 4.5,3.5 1.5,1.5 1.5,4.5 0,3 -3.5,5.5 -3.5,2.5 -5.5,4.5 -16,12 -34,41 -6,8 -10,8 -4,0 -8,-7 -8,-14 -18.5,-25 -10.5,-11 -19.5,-19 -2,-1 -4,-3 -2,-2 -2,-4 0,-3 6,-9 4,-4 9.5,-13 5.5,-9 11,-23.5 5.5,-14.5 9,-36.5 3.5,-22 3.5,-53 -23,0 -38.5,1.5 -15.5,1.5 -27,4.5 -11.5,3 -19,8 -7.5,5 -14.5,12 -5,5 -8,5 -3,0 -4.5,-1.5 L 53,1890 Q 43,1880 32,1870.5 21,1861 8,1856 q -6,-2 -6,-7 0,-4 5,-6 14,-7 26,-16.5 12,-9.5 20,-17.5 2,-2 4,-4.5 2,-2.5 5,-2.5 2,0 3.5,2 1.5,2 3.5,4 15,14 34,20.5 19,6.5 64,6.5 z"></path></svg>
