<?xml version="1.0" encoding="UTF-8" standalone="no"?>
<svg xmlns="http://www.w3.org/2000/svg" width="4558" height="2057"><path id="eight" unicode="8" d="m 0,1954 q 0,-27 11,-50.5 11,-23.5 30,-44 Q 60,1839 85.5,1822 111,1805 139,1791 125,1781 111.5,1770 98,1759 87,1746 76,1733 69,1718.5 62,1704 62,1687 q 0,-32 19,-59 19,-27 48,-46.5 29,-19.5 64,-30 35,-10.5 67,-10.5 21,0 41.5,4 20.5,4 37,13 16.5,9 27,23.5 10.5,14.5 10.5,34.5 0,26 -12,48.5 -12,22.5 -32,42 -20,19.5 -45,35 -25,15.5 -52,27.5 15,9 33.5,21.5 18.5,12.5 34.5,28 16,15.5 26.5,33.5 10.5,18 10.5,39 0,34 -18.5,64.5 -18.5,30.5 -47.5,53 -29,22.5 -65,35.5 -36,13 -71,13 -27,0 -51.5,-7 -24.5,-7 -44,-20 Q 23,2017 11.5,1997.5 0,1978 0,1954 Z m 155,-149 q -47,26 -67.5,64.5 Q 67,1908 67,1957 q 0,38 18.5,61.5 18.5,23.5 56.5,23.5 46,0 70,-36 24,-36 24,-89 0,-42 -22.5,-65 -22.5,-23 -58.5,-47 z m 101,-249 q -21,0 -38.5,9 -17.5,9 -29.5,24 -12,15 -19,35.5 -7,20.5 -7,43.5 0,33 15.5,52 15.5,19 43.5,38 39,-20 66.5,-54 27.5,-34 27.5,-86 0,-28 -15,-45 -15,-17 -44,-17 z"></path></svg>
