<?xml version="1.0" encoding="UTF-8" standalone="no"?>
<svg xmlns="http://www.w3.org/2000/svg" width="4558" height="2057"><path id="ellipsis" unicode="&#x2026;" d="m 0,2022 q 0,-16 10.5,-34 10.5,-18 29.5,-18 14,0 21.5,11.5 7.5,11.5 7.5,25.5 0,22 -13,36 -13,14 -27,14 -14,0 -21.5,-11 Q 0,2035 0,2022 Z m 117,0 q 0,-16 10.5,-34 10.5,-18 29.5,-18 14,0 21.5,11.5 7.5,11.5 7.5,25.5 0,22 -13,36 -13,14 -27,14 -14,0 -21.5,-11 -7.5,-11 -7.5,-24 z m 117,0 q 0,-16 10.5,-34 10.5,-18 29.5,-18 14,0 21.5,11.5 7.5,11.5 7.5,25.5 0,22 -13,36 -13,14 -27,14 -14,0 -21.5,-11 -7.5,-11 -7.5,-24 z"></path></svg>
