<?xml version="1.0" encoding="UTF-8" standalone="no"?>
<svg xmlns="http://www.w3.org/2000/svg" width="4558" height="2057"><path id="eogonek" unicode="&#x119;" d="m 0,1834 q 0,-36 17,-66.5 17,-30.5 42,-53 25,-22.5 54.5,-35 29.5,-12.5 53.5,-12.5 30,0 50,12 20,12 20,33 0,20 -10,36 -10,16 -25.5,27 -15.5,11 -34.5,17.5 -19,6.5 -38,6.5 -8,0 -14,-2 -6,-2 -6,-7 0,-5 5,-5 14,0 27,-8 13,-8 22.5,-20.5 9.5,-12.5 15,-28.5 5.5,-16 5.5,-32 0,-13 -11,-13 -14,0 -29,13 -15,13 -27,33.5 -12,20.5 -20,45 -8,24.5 -8,47.5 0,34 13.5,47 13.5,13 31.5,13 14,0 27,-6 13,-6 23,-14 11,-9 22,-20 l 8,8 q -13,16 -30,29 -14,11 -33,21 -19,10 -42,12 -4,4 -12,12.5 -8,8.5 -15.5,18 -7.5,9.5 -13.5,18.5 -6,9 -6,14 0,9 5,15.5 5,6.5 12.5,10 7.5,3.5 15,5.5 7.5,2 13.5,2 8,0 8,7 0,5 -3,12 -3,7 -8,13.5 -5,6.5 -12,11.5 -7,5 -14,5 -8,0 -20,-5.5 Q 47,2046 36,2037 25,2028 17.5,2015 10,2002 10,1987 10,1976 16.5,1965.5 23,1955 33.5,1945 44,1935 56,1926.5 68,1918 79,1911 48,1907 24,1888.5 0,1870 0,1834 Z"></path></svg>
