<?xml version="1.0" encoding="UTF-8" standalone="no"?>
<svg xmlns="http://www.w3.org/2000/svg" width="4558" height="2057"><path id="eth" unicode="&#xF0;" d="m 267,1897 q 0,34 -14,63 -14,29 -36.5,50.5 -22.5,21.5 -50.5,34 -28,12.5 -57,12.5 -46,0 -77.5,-21.5 Q 0,2014 0,1969 0,1937 12.5,1908 25,1879 46,1856.5 67,1834 95.5,1821 124,1808 156,1808 h 8.5 q 0,0 7.5,1 -11,-8 -22.5,-16.5 Q 138,1784 127,1771 l -24,9 v -16 l 15,-6 q -9,-12 -9,-25 0,-15 11.5,-28 11.5,-13 26,-22.5 14.5,-9.5 27.5,-15 13,-5.5 15,-5.5 8,0 8,6 0,4 -3.5,6.5 -3.5,2.5 -8.5,7.5 -5,5 -12.5,14 -7.5,9 -7.5,24 0,9 3,18 l 32,-12 v 16 l -27,10 q 10,29 26,44.5 16,15.5 31,28 15,12.5 26,28.5 11,16 11,44 z m -111,-73 q -18,0 -32,13.5 -14,13.5 -24,36.5 -10,23 -15.5,53 -5.5,30 -5.5,63 0,23 8,36 8,13 23,13 16,0 30,-15 14,-15 25,-39.5 11,-24.5 17.5,-55 6.5,-30.5 6.5,-61.5 0,-44 -33,-44 z"></path></svg>
