<?xml version="1.0" encoding="UTF-8" standalone="no"?>
<svg xmlns="http://www.w3.org/2000/svg" width="4558" height="2057"><path id="Euro" unicode="&#x20AC;" d="m 104,1778 q -4,13 -6,22 -2,9 -5,32 h 161 q 9,0 9,8 0,10 -7,17 -7,7 -13,7 H 91 q -1,7 -1,12 v 11 q 0,32 8,59 8,27 23,47 15,20 35.5,31 20.5,11 45.5,11 33,0 59.5,-15.5 26.5,-15.5 51.5,-36.5 8,-7 11,-7 5,0 5,6 0,3 -8,11 -26,26 -58,45 -32,19 -79,19 -38,0 -71,-12 Q 80,2033 54.5,2010 29,1987 14.5,1953 0,1919 0,1875 q 0,-85 30,-144 30,-59 72,-96 42,-37 88,-53.5 46,-16.5 79,-16.5 38,0 61.5,17.5 23.5,17.5 23.5,45.5 0,7 -1.5,15.5 -1.5,8.5 -5.5,16 -4,7.5 -11,12.5 -7,5 -17,5 -17,0 -17,-17 0,-13 9,-21.5 9,-8.5 9,-19.5 0,-17 -12,-29 -12,-12 -39,-12 -46,0 -90.5,42.5 Q 134,1663 110,1746 h 157 q 3,0 6.5,2 3.5,2 3.5,7 0,8 -7.5,15.5 -7.5,7.5 -13.5,7.5 z"></path></svg>
