<?xml version="1.0" encoding="UTF-8" standalone="no"?>
<svg xmlns="http://www.w3.org/2000/svg" width="4558" height="2057"><path id="exclam" unicode="!" d="m 3,1928 q 6,-10 11.5,-26.5 5.5,-16.5 9.5,-30.5 8,-29 18,-70.5 10,-41.5 19.5,-83.5 9.5,-42 18,-78 8.5,-36 12.5,-54 5,-22 17.5,-38 12.5,-16 32.5,-23 8,-3 14.5,-4.5 6.5,-1.5 14,-3.5 7.5,-2 17,-5.5 9.5,-3.5 24.5,-9.5 l 5,9 q -3,4 -7,9 -7,8 -19,31 -9,17 -16.5,38 -7.5,21 -17.5,57 -5,19 -15.5,54.5 -10.5,35.5 -20.5,75.5 -10,40 -17.5,78 -7.5,38 -7.5,63 -15,1 -31,4 -14,2 -29,5.5 -15,3.5 -29,8.5 z m -3,102 q 0,-9 4,-19 4,-10 10.5,-18.5 6.5,-8.5 16,-14.5 9.5,-6 20.5,-6 11,0 18.5,7.5 7.5,7.5 7.5,18.5 0,20 -13.5,39.5 Q 50,2057 28,2057 17,2057 8.5,2049 0,2041 0,2030 Z"></path></svg>
