<?xml version="1.0" encoding="UTF-8" standalone="no"?>
<svg xmlns="http://www.w3.org/2000/svg" width="4558" height="2057"><path id="five" unicode="5" d="m 293,1556 q 21,0 33,-3.5 12,-3.5 18,-7 6,-3.5 8.5,-7 2.5,-3.5 5.5,-3.5 6,0 6,5 0,5 -5,20.5 -5,15.5 -15.5,32.5 -10.5,17 -28,30 -17.5,13 -41.5,13 h -18 -27 q 0,0 -43,-0.5 -43,-0.5 -66,-0.5 l -38,125 q 12,-8 29,-14 14,-5 33.5,-10 19.5,-5 44.5,-5 22,0 47,7.5 25,7.5 46,23.5 21,16 34.5,40.5 13.5,24.5 13.5,58.5 0,42 -18,78 -18,36 -46,62 -28,26 -62.5,41 -34.5,15 -67.5,15 -58,0 -97,-25 Q 0,2007 0,1959 0,1938 10.5,1923.5 21,1909 39,1909 q 14,0 22,9 8,9 8,21 0,9 -3.5,15.5 -3.5,6.5 -8,11.5 -4.5,5 -8,10.5 -3.5,5.5 -3.5,12.5 0,20 16.5,33.5 16.5,13.5 47.5,13.5 33,0 56,-17 23,-17 37,-43.5 14,-26.5 20,-59 6,-32.5 6,-63.5 0,-46 -17,-72.5 -17,-26.5 -46,-26.5 -20,0 -35,4 -15,4 -25.5,9 -10.5,5 -17,9 -6.5,4 -10.5,4 -7,0 -13,-4.5 -6,-4.5 -6,-12.5 0,-3 7,-28.5 7,-25.5 16,-54.5 11,-34 24,-77 2,-7 4.5,-15.5 2.5,-8.5 6,-15.5 3.5,-7 9.5,-11.5 6,-4.5 16,-4.5 z"></path></svg>
