<?xml version="1.0" encoding="UTF-8" standalone="no"?>
<svg xmlns="http://www.w3.org/2000/svg" width="4558" height="2057"><path id="florin" unicode="&#x192;" d="m 158,1914 q 0,38 -11.5,65 -11.5,27 -29,44 -17.5,17 -37.5,25.5 -20,8.5 -37,8.5 -18,0 -30.5,-9 Q 0,2039 0,2027 q 0,-11 6.5,-18 6.5,-7 17.5,-7 9,0 13,4 4,4 7,9.5 3,5.5 6.5,9.5 3.5,4 10.5,4 9,0 20.5,-13.5 Q 93,2002 93,1973 V 1615 H 69 l -6,-2 q -5,-2 -5,-8 0,-6 5,-8 l 6,-2 h 24 v -117 q 0,-54 28,-90 28,-36 81,-36 36,0 60,17 24,17 24,35 0,16 -8,31 -7,11 -20.5,23 -13.5,12 -24.5,12 -10,0 -10,-9 0,-6 4.5,-20.5 4.5,-14.5 4.5,-27.5 0,-16 -8,-29 -8,-13 -23,-13 -23,0 -33,27.5 -10,27.5 -10,77.5 v 119 h 68 l 4,2 q 5,3 5,8 0,6 -5,8 l -4,2 h -68 z"></path></svg>
