<?xml version="1.0" encoding="UTF-8" standalone="no"?>
<svg xmlns="http://www.w3.org/2000/svg" width="4558" height="2057"><path id="four" unicode="4" d="m 329,1863 q -11,44 -19,81 -8,32 -13.5,61 -5.5,29 -5.5,38 0,6 -2,10 -2,4 -12,4 -7,0 -19,-3 -12,-3 -23.5,-7.5 -11.5,-4.5 -20,-10 -8.5,-5.5 -8.5,-10.5 0,-14 7,-42 2,-12 6.5,-29 4.5,-17 9.5,-34 5,-19 10,-40 -27,-1 -49.5,-5.5 -22.5,-4.5 -43,-9.5 -20.5,-5 -40,-9 -19.5,-4 -41.5,-4 -18,0 -25.5,5 -7.5,5 -11.5,5 -3,0 -7.5,-4 -4.5,-4 -9,-9.5 -4.5,-5.5 -8,-11 Q 0,1833 0,1830 q 0,-8 17.5,-22 17.5,-14 43.5,-36 50,-42 77,-96.5 27,-54.5 27,-113.5 0,-14 14,-14 6,0 14.5,5 8.5,5 17,12 8.5,7 14,14.5 5.5,7.5 5.5,13.5 0,22 -14.5,46 -14.5,24 -36.5,48.5 -22,24.5 -49,48.5 -27,24 -52,46 29,0 51,4 22,4 41.5,9 19.5,5 39,9 19.5,4 44.5,4 13,-56 23,-96 l 17,-68 11.5,-46 q 0,0 7.5,-29 3,-12 6,-16 3,-4 15,-4 7,0 17,4 10,4 19,9 9,5 15.5,10.5 6.5,5.5 6.5,9.5 0,4 -1,8.5 -1,4.5 -3,11.5 -8,30 -16,65.5 -8,35.5 -15,67.5 l -16,74 q 10,-5 14,-8 7,-5 10.5,-8.5 3.5,-3.5 7.5,-3.5 5,0 5,5 0,8 -9,23 -7,11 -18,24.5 -11,13.5 -22,21.5 z"></path></svg>
