<?xml version="1.0" encoding="UTF-8" standalone="no"?>
<svg xmlns="http://www.w3.org/2000/svg" width="4558" height="2057"><path id="fraction" unicode="&#x2044;" d="m 324,1442.4975 q -4,11 -17,41 -13,30 -32,72.5 -19,42.5 -42,94 -23,51.5 -46.5,104 -23.5,52.5 -46,102.5 l -40.5,90 q 0,0 -30,66.5 -30,66.5 -14,32.5 -3,8 -11,8 H 21 q -7,0 -14,-0.5 -7,-0.5 -7,-4.5 0,-2 3,-7 2,-5 19.5,-43 17.5,-38 42.5,-95 25,-57 55.5,-125.5 30.5,-68.5 60,-134.5 29.5,-66 54,-122 l 38.5,-88 q 5,-7 12,-7 h 23 q 5,0 13,0.5 8,0.5 8,2.5 0,3 -1.5,6.5 -1.5,3.5 -3.5,6.5 z"></path></svg>
