<?xml version="1.0" encoding="UTF-8" standalone="no"?>
<svg xmlns="http://www.w3.org/2000/svg" width="4558" height="2057"><path id="G" unicode="G" d="m 462,1081 q 51,0 80,23 29,23 29,70 0,15 -3,30 -3,15 -9,27.5 -6,12.5 -15.5,20.5 -9.5,8 -22.5,8 -12,0 -21.5,-8 -9.5,-8 -9.5,-22 0,-15 7.5,-23.5 7.5,-8.5 17,-15.5 9.5,-7 17,-15 7.5,-8 7.5,-23 0,-21 -16.5,-36.5 Q 506,1101 473,1101 q -39,0 -78.5,18 -39.5,18 -76,49.5 -36.5,31.5 -68.5,72.5 -32,41 -55.5,87.5 -23.5,46.5 -37,95 -13.5,48.5 -13.5,94.5 0,116 86,116 23,0 50,-14.5 27,-14.5 53,-37 26,-22.5 49,-49 23,-26.5 39,-50.5 17,-26 37.5,-43 20.5,-17 41.5,-28 12,-6 19.5,-11 7.5,-5 12,-9 4.5,-4 7.5,-6.5 3,-2.5 7,-2.5 8,0 8,7 0,5 -6,13 -6,8 -14.5,21.5 -8.5,13.5 -18.5,34.5 -10,21 -18,52 -8,29 -16.5,65.5 -8.5,36.5 -17.5,77 -9,40.5 -18.5,84 -9.5,43.5 -19.5,85.5 -12,54 -36.5,97.5 -24.5,43.5 -57.5,73.5 -33,30 -73,46.5 -40,16.5 -84,16.5 -45,0 -78,-13.5 Q 63,2030 41.5,2008 20,1986 10,1958 0,1930 0,1901 q 0,-37 13,-68.5 13,-31.5 35.5,-54 22.5,-22.5 52,-35.5 29.5,-13 61.5,-13 29,0 50,12.5 21,12.5 21,27.5 0,14 -7.5,21 -7.5,7 -18.5,7 -11,0 -18,-6 -7,-6 -14.5,-13.5 -7.5,-7.5 -17.5,-14 -10,-6.5 -27,-6.5 -17,0 -35.5,9 -18.5,9 -34,24.5 -15.5,15.5 -25.5,38 -10,22.5 -10,49.5 0,28 9.5,49 9.5,21 26,34.5 16.5,13.5 38.5,20 22,6.5 46,6.5 66,0 114,-48 48,-48 77,-132 28,-81 44.5,-153.5 Q 397,1583 412,1531 q -15,19 -38,43.5 -23,24.5 -52,46 -29,21.5 -63,36.5 -34,15 -71,15 -32,0 -62.5,-9.5 Q 95,1653 72,1633 49,1613 35,1582.5 21,1552 21,1510 q 0,-52 20,-104 20,-52 53.5,-99.5 33.5,-47.5 77.5,-89 44,-41.5 93,-71.5 49,-30 100,-47.5 51,-17.5 97,-17.5 z"></path></svg>
