<?xml version="1.0" encoding="UTF-8" standalone="no"?>
<svg xmlns="http://www.w3.org/2000/svg" width="4558" height="2057"><path id="g" unicode="g" d="m 334,1634 q -14,23 -21,43.5 -7,20.5 -13,45.5 -9,35 -17.5,87.5 Q 274,1863 263,1917 251,1980 210,2018.5 169,2057 103,2057 60,2057 30,2034.5 0,2012 0,1973 q 0,-23 15,-40 15,-17 34,-17 15,0 23,8.5 8,8.5 8,21.5 0,11 -4.5,18.5 -4.5,7.5 -10.5,14 -6,6.5 -10.5,14 -4.5,7.5 -4.5,16.5 0,15 11.5,24.5 11.5,9.5 25.5,9.5 22,0 41,-23 19,-23 35.5,-61.5 16.5,-38.5 30,-87.5 13.5,-49 24.5,-101 -7,10 -18,21.5 -11,11.5 -24.5,21 -13.5,9.5 -28.5,16 -15,6.5 -29,6.5 -37,0 -59.5,-20 -22.5,-20 -22.5,-54 0,-36 16.5,-67 16.5,-31 41,-54.5 24.5,-23.5 53.5,-37 29,-13.5 54,-13.5 29,0 44,13 15,13 17,33 5,-15 18,-25 13,-10 39,-14 12,-2 21,-4.5 9,-2.5 15,-5.5 7,-4 12,-7 l 6,12 q -6,5 -12,11 -5,5 -12.5,13 -7.5,8 -14.5,19 z m -183,172 q 17,0 39,-22 22,-22 36,-51 3,-7 7,-19 4,-12 7,-24.5 3,-12.5 5,-23.5 2,-11 2,-17 0,-18 -8,-30 -8,-12 -28,-12 -18,0 -34,14.5 -16,14.5 -27.5,37 -11.5,22.5 -18,50 -6.5,27.5 -6.5,53.5 0,20 6,32 6,12 20,12 z"></path></svg>
