<?xml version="1.0" encoding="UTF-8" standalone="no"?>
<svg xmlns="http://www.w3.org/2000/svg" width="4558" height="2057"><path id="germandbls" unicode="&#xDF;" d="m 7,2044 q 28,0 42,-26.5 14,-26.5 29,-73.5 12,-39 22.5,-85.5 10.5,-46.5 23,-92 12.5,-45.5 29,-86 16.5,-40.5 40.5,-67.5 17,-20 42,-31 25,-11 54,-11 40,0 67.5,20.5 27.5,20.5 27.5,55.5 0,24 -11.5,44 -11.5,20 -28,36.5 -16.5,16.5 -35,29 -18.5,12.5 -33.5,20.5 -7,4 -7,7 0,2 6,8 10,9 26.5,23 16.5,14 32,32.5 15.5,18.5 27,41.5 11.5,23 11.5,50 0,23 -11,44 -11,21 -29.5,37.5 -18.5,16.5 -42.5,26.5 -24,10 -50,10 -12,0 -26,-2.5 -14,-2.5 -26,-7.5 -12,-5 -19.5,-12.5 -7.5,-7.5 -7.5,-17.5 0,-11 7.5,-20.5 7.5,-9.5 17.5,-16 10,-6.5 19.5,-10.5 9.5,-4 12.5,-4 5,0 5,4 0,8 -8,19.5 -8,11.5 -8,29.5 0,12 8.5,19.5 8.5,7.5 22.5,7.5 29,0 41.5,-25 12.5,-25 12.5,-63 0,-33 -7.5,-55 -7.5,-22 -18,-38.5 -10.5,-16.5 -22.5,-28 -12,-11.5 -21,-23.5 -8,-10 -8,-14 0,-5 4,-9 4,-4 9,-8 42,-29 65,-68 23,-39 23,-93 0,-17 -7,-27 -7,-10 -20,-10 -35,0 -56,39 -16,29 -23.5,73 -7.5,44 -13,93 -5.5,49 -13.5,97.5 -8,48.5 -25,87.5 -8,19 -23,34.5 -15,15.5 -33,26 -18,10.5 -37.5,16.5 -19.5,6 -36.5,6 -11,0 -19,-1 -8,-1 -8,-6 0,-6 7,-6 z"></path></svg>
