<?xml version="1.0" encoding="UTF-8" standalone="no"?>
<svg xmlns="http://www.w3.org/2000/svg" width="4558" height="2057"><path id="greaterequal" unicode="&#x2265;" d="m 10,2057 q -5,0 -7.5,-4.5 Q 0,2048 0,2043 0,2032 6.5,2020 13,2008 21,2008 h 319 q 15,0 15,15 0,13 -9,23.5 -9,10.5 -16,10.5 z m 296,-297 q 6,5 10,11.5 4,6.5 4,13.5 0,16 -14,28 L 63,1988 q -3,3 -8,3 -5,0 -8.5,-4.5 Q 43,1982 40,1975 q -3,-7 -4.5,-14 -1.5,-7 -1.5,-12 0,-5 4,-8.5 4,-3.5 6,-5.5 L 251,1789 46,1633 q -7,-2 -7,-8 0,-4 1.5,-12 1.5,-8 4.5,-15.5 3,-7.5 7,-13 4,-5.5 8,-5.5 h 2 q 1,0 1.5,0.5 0.5,0.5 1.5,0.5 z"></path></svg>
