<?xml version="1.0" encoding="UTF-8" standalone="no"?>
<svg xmlns="http://www.w3.org/2000/svg" width="4558" height="2057"><path id="guilsinglright" unicode="&#x203A;" d="m 42,1720 q 14,14 30.5,29.5 16.5,15.5 33,30.5 16.5,15 30.5,29 l 23,23 q 14,15 20.5,26.5 6.5,11.5 6.5,24.5 0,27 -30,57 -49,47 -80,75 -31,28 -39,36 -6,6 -12,6 -3,0 -7.5,-3 -4.5,-3 -8,-7.5 -3.5,-4.5 -6.5,-9 -3,-4.5 -3,-7.5 0,-5 4,-9 4,-4 15,-13.5 11,-9.5 26,-23 15,-13.5 32,-29.5 17,-16 34,-33 9,-9 16,-18 7,-9 7,-21 0,-13 -8,-23 -8,-10 -18,-20 -8,-7 -21,-19.5 Q 74,1808 59,1794.5 44,1781 30.5,1768 17,1755 8,1746 l -4.5,-4.5 q 0,0 -2.5,-3.5 0,-3 3,-8 3,-5 7.5,-9.5 4.5,-4.5 8.5,-8 4,-3.5 7,-3.5 3,0 8,4.5 5,4.5 7,6.5 z"></path></svg>
