<?xml version="1.0" encoding="UTF-8" standalone="no"?>
<svg xmlns="http://www.w3.org/2000/svg" width="4558" height="2057"><path id="guilsinglleft" unicode="&#x2039;" d="m 144,1720 q 2,-2 7,-6.5 5,-4.5 8,-4.5 3,0 7,3.5 4,3.5 8.5,8 4.5,4.5 7.5,9.5 3,5 3,8 0,1 -2.5,3.5 l -4.5,4.5 q -9,9 -22.5,22 -13.5,13 -28.5,26.5 -15,13.5 -28.5,26 Q 85,1833 78,1840 q -10,10 -18,20 -8,10 -8,23 0,12 7,21 7,9 16,18 17,17 34,33 17,16 32,29.5 15,13.5 26,23 11,9.5 15,13.5 4,4 4,9 0,3 -3,7.5 -3,4.5 -6.5,9 -3.5,4.5 -8,7.5 -4.5,3 -7.5,3 -6,0 -12,-6 -8,-8 -39,-36 Q 79,1987 30,1940 0,1910 0,1883 0,1870 6.5,1858.5 13,1847 27,1832 l 23,-23 q 0,0 30.5,-29 30.5,-29 33,-30.5 2.5,-1.5 30.5,-29.5 z"></path></svg>
