<?xml version="1.0" encoding="UTF-8" standalone="no"?>
<svg xmlns="http://www.w3.org/2000/svg" width="4558" height="2057"><path id="H" unicode="H" d="m 182,2057 q -30,0 -50.5,-7 -20.5,-7 -33,-16 -12.5,-9 -17.5,-19 -5,-10 -5,-16 0,-18 16,-18 8,0 11.5,4.5 3.5,4.5 3.5,10.5 0,4 2.5,10.5 2.5,6.5 8.5,12.5 6,6 16.5,10.5 10.5,4.5 25.5,4.5 34,0 60.5,-25.5 26.5,-25.5 50,-69 23.5,-43.5 44.5,-102 21,-58.5 43,-123.5 h -60 q -12,42 -49.5,69 -37.5,27 -84.5,27 -31,0 -60.5,-8.5 Q 74,1793 51,1775.5 28,1758 14,1731.5 0,1705 0,1669 q 0,-50 18.5,-91 18.5,-41 50.5,-74 32,-33 74,-57.5 42,-24.5 89,-41 47,-16.5 95.5,-24.5 48.5,-8 94.5,-8 27,0 46,1 19,1 33.5,2.5 14.5,1.5 26,2.5 11.5,1 22.5,1 18,0 36.5,-3 18.5,-3 34.5,-11 l 5,9 q -9,8 -18,17 -8,8 -16,17.5 -8,9.5 -13,19.5 -7,12 -16,27.5 -9,15.5 -21.5,43.5 -12.5,28 -28.5,74.5 -16,46.5 -37,121.5 h 194 q 20,-60 40,-115.5 20,-55.5 37,-95.5 4,-11 11.5,-26.5 7.5,-15.5 17.5,-30 10,-14.5 23,-25.5 13,-11 28,-13 17,-2 30.5,-6.5 13.5,-4.5 24.5,-9.5 12,-5 22,-10 l 5,9 q -6,6 -12,15 -6,8 -13.5,20 -7.5,12 -16.5,29 -8,13 -18.5,39.5 Q 838,1503 825,1538 812,1573 798.5,1613.5 785,1654 772,1696 h 33 l -9,18 h -29 q -11,36 -20,69.5 -9,33.5 -16.5,62.5 -7.5,29 -11.5,52 -4,23 -4,37 0,11 3,14 3,3 7,3 7,0 15.5,-4.5 8.5,-4.5 16.5,-10.5 9,-7 17,-16 l 8,9 q -15,18 -32,31 -14,11 -31,20.5 -17,9.5 -32,9.5 -35,0 -54,-16 -19,-16 -19,-46 0,-36 14.5,-93.5 Q 643,1778 665,1714 H 472 q -44,171 -113,257 -69,86 -177,86 z m 120,-379 v 9 q 0,0 -1,9 h 62 q 26,-71 47.5,-119 21.5,-48 40.5,-80.5 19,-32.5 37.5,-54.5 18.5,-22 38.5,-40 -14,-2 -28,-5 -12,-2 -27,-3.5 -15,-1.5 -29,-1.5 -69,0 -135.5,17.5 -66.5,17.5 -119,53 -52.5,35.5 -84.5,88.5 -32,53 -32,124 0,52 21,84 21,32 77,32 19,0 35,-6.5 16,-6.5 27,-17 11,-10.5 17.5,-23.5 6.5,-13 6.5,-27 -7,-4 -12,-9 -11,-11 -11,-27 0,-14 10.5,-27 10.5,-13 25.5,-13 14,0 23.5,10 9.5,10 9.5,27 z"></path></svg>
