<?xml version="1.0" encoding="UTF-8" standalone="no"?>
<svg xmlns="http://www.w3.org/2000/svg" width="4558" height="2057"><path id="hungarumlaut" unicode="&#x2DD;" d="m 124,1928 q 10,0 18,13 8,13 8,22 0,9 -5,16.5 -5,7.5 -16,18.5 -13,13 -29.5,24 -16.5,11 -33,18.5 -16.5,7.5 -31,12 -14.5,4.5 -23.5,4.5 -12,0 -12,-9 0,-5 11,-11 23,-11 47.5,-35.5 Q 83,1977 111,1937 q 7,-9 13,-9 z m 108,0 q 10,0 18,13 8,13 8,22 0,9 -5,16.5 -5,7.5 -16,18.5 -13,13 -29.5,24 -16.5,11 -33,18.5 -16.5,7.5 -31,12 -14.5,4.5 -23.5,4.5 -12,0 -12,-9 0,-5 11,-11 23,-11 47.5,-35.5 24.5,-24.5 52.5,-64.5 7,-9 13,-9 z"></path></svg>
