<?xml version="1.0" encoding="UTF-8" standalone="no"?>
<svg xmlns="http://www.w3.org/2000/svg" width="4558" height="2057"><path id="i" unicode="i" d="m 144,1846 q 0,16 -8,36 -8,20 -18,40 -10,20 -18,39.5 -8,19.5 -8,34.5 0,11 4,16 4,5 9,5 7,0 15,-4.5 8,-4.5 16,-10.5 9,-6 17,-15 l 8,8 q -16,18 -34,31 -15,12 -33.5,21.5 Q 75,2057 58,2057 36,2057 18,2047.5 0,2038 0,2007 0,1991 8.5,1971.5 17,1952 27,1933 q 10,-19 18.5,-37 8.5,-18 8.5,-33 0,-9 -9,-9 -4,0 -10,3.5 -6,3.5 -12,8.5 -7,5 -15,12 l -7,-9 q 6,-5 17.5,-14.5 11.5,-9.5 25,-19 13.5,-9.5 28,-16.5 14.5,-7 26.5,-7 21,0 33.5,10 12.5,10 12.5,24 z M 99,1727 q 0,-10 5,-21 5,-11 12.5,-20 7.5,-9 17,-15 9.5,-6 18.5,-6 13,0 21.5,8 8.5,8 8.5,22 0,11 -4.5,22.5 -4.5,11.5 -11.5,21 -7,9.5 -16,15.5 -9,6 -18,6 -13,0 -23,-8 -10,-8 -10,-25 z"></path></svg>
