<?xml version="1.0" encoding="UTF-8" standalone="no"?>
<svg xmlns="http://www.w3.org/2000/svg" width="4558" height="2057"><path id="Icircumflex" unicode="&#xCE;" d="m 13,1893 q 0,53 31,79.5 31,26.5 84,26.5 37,0 66.5,-16.5 29.5,-16.5 53,-45 23.5,-28.5 41.5,-68 18,-39.5 32,-84.5 -25,-6 -54,-18 -29,-12 -54,-30 -25,-18 -41.5,-43.5 Q 155,1668 155,1635 q 0,-39 24,-71.5 24,-32.5 62.5,-60.5 38.5,-28 86,-52.5 47.5,-24.5 94.5,-46.5 47,-22 88,-43 41,-21 66,-43 l 5,9 q -28,26 -47,59.5 -19,33.5 -32.5,71.5 -13.5,38 -23,78 -9.5,40 -18.5,79 -23,104 -45.5,186 -22.5,82 -54,139 -31.5,57 -77.5,87 -46,30 -116,30 -43,0 -74.5,-14.5 Q 61,2028 40.5,2005.5 20,1983 10,1955 0,1927 0,1900 Z m 220,-238 q 0,51 27,77 27,26 66,37 12,-38 23,-75 11,-37 22,-75 14,-45 27,-83.5 13,-38.5 25,-73.5 5,-14 11,-24 6,-10 11,-18 6,-9 13,-16 -34,20 -73.5,46 -39.5,26 -73,57.5 -33.5,31.5 -56,68.5 -22.5,37 -22.5,79 z m 300,-410 q -5,0 -15,6 -10,6 -41,23 -23,13 -34.5,19 -11.5,6 -16.5,6 -7,0 -7,-6 0,-4 10,-10 12,-7 20.5,-13 8.5,-6 16,-12 7.5,-6 14.5,-13.5 7,-7.5 16,-17.5 14,-15 22.5,-25.5 8.5,-10.5 25.5,-10.5 18,0 22,10.5 4,10.5 11,25.5 l 8.5,17 q 0,0 7.5,13 7.5,13 9.5,12 2,-1 14.5,15 5,5 5,9 0,6 -8,6 -4,0 -16,-7 -12,-7 -26,-19 -21,-18 -27.5,-23 -6.5,-5 -11.5,-5 z"></path></svg>
