<?xml version="1.0" encoding="UTF-8" standalone="no"?>
<svg xmlns="http://www.w3.org/2000/svg" width="4558" height="2057"><path id="infinity" unicode="&#x221E;" d="m 465,2057 q -30,0 -54,-10.5 -24,-10.5 -43.5,-28 -19.5,-17.5 -35.5,-41 -16,-23.5 -29,-49.5 -28,45 -66.5,77 -38.5,32 -93.5,32 -38,0 -65.5,-17 Q 50,2003 33,1976.5 16,1950 8,1919.5 0,1889 0,1862 0,1834 6.5,1804.5 13,1775 27,1752 q 14,-23 36,-38 22,-15 54,-15 34,0 58.5,11 24.5,11 42.5,28.5 18,17.5 31.5,40 13.5,22.5 25.5,46.5 15,-28 32,-55 17,-27 37.5,-48 20.5,-21 45.5,-34 25,-13 57,-13 41,0 73.5,16 32.5,16 55.5,42.5 23,26.5 35,61 12,34.5 12,70.5 0,37 -11,71.5 -11,34.5 -31.5,61.5 -20.5,27 -49.5,43 -29,16 -66,16 z m 0,-70 q 65,0 100.5,-32.5 35.5,-32.5 35.5,-89.5 0,-25 -9.5,-46.5 -9.5,-21.5 -26,-37 -16.5,-15.5 -38.5,-24 -22,-8.5 -48,-8.5 -33,0 -56,13.5 -23,13.5 -41,35 -18,21.5 -33,49 -15,27.5 -31,55.5 13,21 26.5,36.5 13.5,15.5 31,26.5 17.5,11 39,16.5 21.5,5.5 50.5,5.5 z m -342,-28 q 25,0 45,-8.5 20,-8.5 36.5,-23.5 16.5,-15 30,-34.5 13.5,-19.5 25.5,-42.5 -23,-42 -56,-62.5 -33,-20.5 -88,-20.5 -45,0 -70.5,27 -25.5,27 -25.5,68 0,42 26,69.5 26,27.5 77,27.5 z"></path></svg>
