<?xml version="1.0" encoding="UTF-8" standalone="no"?>
<svg xmlns="http://www.w3.org/2000/svg" width="4558" height="2057"><path id="integral" unicode="&#x222B;" d="m 59,1621 q 0,34 12.5,79.5 12.5,45.5 27,92.5 14.5,47 27,92 12.5,45 12.5,77 0,19 -7.5,36 -7.5,17 -20,30 -12.5,13 -29,21 -16.5,8 -34.5,8 -15,0 -27.5,-7.5 Q 7,2042 7,2030 q 0,-13 14,-13 11,0 11,13 0,7 5,10.5 5,3.5 11,3.5 15,0 22,-15 7,-15 7,-34 0,-34 -12,-80.5 Q 53,1868 38.5,1820.5 24,1773 12,1729.5 0,1686 0,1657 0,1628 10.5,1607 21,1586 36,1572 51,1558 68.5,1551.5 86,1545 100,1545 q 15,0 27,6 12,6 12,18 0,6 -4,11 -4,5 -12,5 -12,0 -12,-11 0,-11 -3.5,-14 -3.5,-3 -11.5,-3 -14,0 -25.5,17.5 Q 59,1592 59,1621 Z"></path></svg>
