<?xml version="1.0" encoding="UTF-8" standalone="no"?>
<svg xmlns="http://www.w3.org/2000/svg" width="4558" height="2057"><path id="j" unicode="j" d="m 87,2043 q 19,0 36,-19 17,-19 31,-50 14,-31 25.5,-71 11.5,-40 21.5,-81.5 10,-41.5 18,-81.5 8,-40 15,-71 5,-22 13.5,-34.5 Q 256,1622 271,1613 h -7.5 q 0,0 -10.5,-1 -9,0 -17,-2 -4,-1 -7,-2 l 8,-12 8,2 q 5,1 21,1 17,0 43,-4.5 26,-4.5 58,-18.5 l 5,9 q -8,6 -15,13 -6,6 -13.5,15.5 -7.5,9.5 -13.5,20.5 -13,23 -19,43.5 -6,20.5 -12,45.5 -9,35 -17.5,87.5 Q 273,1863 262,1917 250,1980 212,2018.5 174,2057 102,2057 59,2057 29.5,2034.5 0,2012 0,1973 q 0,-24 16,-40 16,-16 33,-16 13,0 21.5,8.5 8.5,8.5 8.5,20.5 0,11 -4.5,18.5 -4.5,7.5 -10.5,13.5 -6,6 -10.5,13 -4.5,7 -4.5,18 0,15 10.5,24.5 10.5,9.5 27.5,9.5 z m 216,-538 q 0,-10 5,-21.5 5,-11.5 13,-20.5 8,-9 17.5,-15 9.5,-6 18.5,-6 13,0 22,8.5 9,8.5 9,22.5 0,11 -4.5,22.5 -4.5,11.5 -11.5,21.5 -7,10 -16.5,16 -9.5,6 -18.5,6 -13,0 -23.5,-9 -10.5,-9 -10.5,-25 z"></path></svg>
