<?xml version="1.0" encoding="UTF-8" standalone="no"?>
<svg xmlns="http://www.w3.org/2000/svg" width="4558" height="2057"><path id="J" unicode="J" d="m 186,1996 q 46,0 81,-19 35,-19 62,-50.5 27,-31.5 46.5,-73.5 19.5,-42 34.5,-87.5 15,-45.5 27.5,-92 12.5,-46.5 24.5,-87.5 -22,-3 -54,-13 -32,-10 -61,-28.5 -29,-18.5 -50,-46 -21,-27.5 -21,-66.5 0,-48 24.5,-86 24.5,-38 63,-69.5 38.5,-31.5 87.5,-57.5 49,-26 98.5,-49.5 49.5,-23.5 94,-46.5 44.5,-23 75.5,-48 l 5,10 q -33,33 -53,76 -20,43 -35,100.5 -15,57.5 -29,133 -14,75.5 -33,172.5 -17,87 -39,174 -22,87 -60.5,157.5 Q 436,1969 375,2013 q -61,44 -156,44 -50,0 -90.5,-15 Q 88,2027 59.5,2001 31,1975 15.5,1940.5 0,1906 0,1868 0,1822 18,1787.5 36,1753 63.5,1730 91,1707 123,1695.5 q 32,-11.5 61,-11.5 42,0 70,17.5 28,17.5 28,41.5 0,14 -8.5,23.5 -8.5,9.5 -22.5,9.5 -17,0 -25.5,-13 -8.5,-13 -8.5,-31 0,-14 -9,-21.5 -9,-7.5 -32,-7.5 -23,0 -48,9.5 -25,9.5 -47,28.5 -22,19 -36,48 -14,29 -14,68 0,33 11.5,59 11.5,26 32.5,44 21,18 49.5,27 28.5,9 61.5,9 z m 169,-544 q 0,31 10,51.5 10,20.5 26,34 16,13.5 35.5,21 19.5,7.5 39.5,11.5 31,-110 53,-196.5 22,-86.5 42,-149.5 5,-14 11.5,-25.5 6.5,-11.5 12.5,-19.5 7,-9 15,-15 -8,4 -19,11 -10,6 -25.5,16.5 -15.5,10.5 -38.5,25.5 -32,22 -61,48 -29,26 -51.5,56 -22.5,30 -36,63 -13.5,33 -13.5,68 z"></path></svg>
