<?xml version="1.0" encoding="UTF-8" standalone="no"?>
<svg xmlns="http://www.w3.org/2000/svg" width="4558" height="2057"><path id="l" unicode="l" d="m 81,1664 q 5,-22 17.5,-35.5 12.5,-13.5 26.5,-22.5 -3,1 -7,1 h -7 q -7,0 -12,-1 l -10,-2 q 0,0 -9,-2 l 9,-12 8,2 q 10,2 21,2 17,0 43,-4.5 26,-4.5 58,-18.5 l 5,9 q -6,4 -13,11 -6,6 -13.5,15.5 -7.5,9.5 -14.5,22.5 -7,12 -17,38.5 -10,26.5 -20.5,60 -10.5,33.5 -21.5,71.5 -11,38 -19.5,73.5 -8.5,35.5 -14,65.5 -5.5,30 -5.5,48 0,19 5.5,25 5.5,6 13.5,6 9,0 18,-4.5 9,-4.5 17,-10.5 9,-6 17,-15 l 8,8 q -16,18 -34,31 -15,12 -33,21.5 -18,9.5 -35,9.5 -27,0 -44.5,-17.5 Q 0,2022 0,1996 q 0,-18 7,-50 7,-32 18,-74.5 11,-42.5 26,-95 Q 66,1724 81,1664 Z"></path></svg>
