<?xml version="1.0" encoding="UTF-8" standalone="no"?>
<svg xmlns="http://www.w3.org/2000/svg" width="4558" height="2057"><path id="L" unicode="L" d="m 606,1958 q -6,9 -18.5,26 -12.5,17 -29.5,33 -17,16 -38,28 -21,12 -44,12 -30,0 -55,-11 -25,-11 -54,-29.5 -29,-18.5 -65.5,-42.5 -36.5,-24 -87.5,-51 -28,14 -60.5,21 -32.5,7 -61.5,7 -40,0 -66,-15.5 Q 0,1920 0,1895 q 0,-19 18.5,-31 18.5,-12 38.5,-12 26,0 49.5,5 23.5,5 49.5,14 33,-29 55.5,-72 22.5,-43 44.5,-101 15,-40 28,-80 13,-40 26.5,-78 13.5,-38 29.5,-74 16,-36 36,-70 36,-60 81.5,-91.5 45.5,-31.5 93.5,-31.5 45,0 76.5,22.5 31.5,22.5 31.5,70.5 0,15 -3,30 -3,15 -9,27.5 -6,12.5 -15.5,20.5 -9.5,8 -22.5,8 -11,0 -20.5,-8 -9.5,-8 -9.5,-22 0,-15 7.5,-23 7.5,-8 16.5,-15.5 9,-7.5 16.5,-16.5 7.5,-9 7.5,-25 0,-22 -16.5,-35.5 Q 594,1293 572,1293 q -38,0 -70,29.5 -32,29.5 -57,84.5 -18,41 -28.5,89 -10.5,48 -20,98.5 -9.5,50.5 -21.5,99.5 -12,49 -33,91 -22,43 -46.5,72.5 -24.5,29.5 -52.5,47.5 30,14 64.5,27.5 34.5,13.5 67.5,24 33,10.5 61.5,16.5 28.5,6 48.5,6 72,0 114,-29 z M 64,1907 q 23,0 38.5,-5 15.5,-5 35.5,-16 -20,-7 -35,-10.5 -15,-3.5 -34,-3.5 -20,0 -29.5,5 -9.5,5 -9.5,13 0,8 9.5,12.5 9.5,4.5 24.5,4.5 z"></path></svg>
