<?xml version="1.0" encoding="UTF-8" standalone="no"?>
<svg xmlns="http://www.w3.org/2000/svg" width="4558" height="2057"><path id="lessequal" unicode="&#x2264;" d="m 10,2057 q -5,0 -7.5,-4.5 Q 0,2048 0,2043 0,2032 6.5,2020 13,2008 21,2008 h 319 q 15,0 15,15 0,13 -9,23.5 -9,10.5 -16,10.5 z m 280,-476 h 1 q 1,0 1,-0.5 0,-0.5 1,-0.5 h 2 q 4,0 8,5.5 4,5.5 7,13 3,7.5 4.5,15 1.5,7.5 1.5,10.5 0,6 -7,8 l -206,157 209,148 q 2,2 5,4.5 3,2.5 3,7.5 0,11 -5.5,26.5 -5.5,15.5 -14.5,15.5 -5,0 -8,-3 L 49,1814 q -14,-12 -14,-28 0,-7 4,-14 4,-7 10,-12 z"></path></svg>
