<?xml version="1.0" encoding="UTF-8" standalone="no"?>
<svg xmlns="http://www.w3.org/2000/svg" width="4558" height="2057"><path id="lozenge" unicode="&#x25CA;" d="m 222,2042 q -5,7 -13.5,11 -8.5,4 -17.5,4 -10,0 -19,-5 -9,-5 -14,-13 L 5,1793 q -5,-8 -5,-13 0,-5 1.5,-8 1.5,-3 3.5,-6 l 151,-244 q 5,-6 14,-11.5 9,-5.5 23,-5.5 12,0 18.5,4.5 6.5,4.5 10.5,9.5 l 154,250 q 3,5 3,13 0,7 -4,14 z M 60,1780 184,1987 q 2,3 4.5,6 2.5,3 5.5,3 3,0 5,-3 l 4,-6 120,-205 -123,-208 q -5,-8 -10,-8 -4,0 -5.5,3 -1.5,3 -3.5,5 z"></path></svg>
