<?xml version="1.0" encoding="UTF-8" standalone="no"?>
<svg xmlns="http://www.w3.org/2000/svg" width="4558" height="2057"><path id="Lslash" unicode="&#x141;" d="m 606,1958 q -6,9 -18.5,26 -12.5,17 -29.5,33 -17,16 -38,28 -21,12 -44,12 -30,0 -55,-11 -25,-11 -54,-29.5 -29,-18.5 -65.5,-42.5 -36.5,-24 -87.5,-51 -28,14 -60.5,21 -32.5,7 -61.5,7 -40,0 -66,-15.5 Q 0,1920 0,1895 q 0,-19 18.5,-31 18.5,-12 38.5,-12 26,0 49.5,5 23.5,5 49.5,14 31,-26 51.5,-62.5 Q 228,1772 248,1720 l -36,4 q -17,2 -24,5 -7,3 -11,3 -5,0 -5,-6 0,-5 4,-13.5 4,-8.5 12,-16.5 8,-8 20,-14.5 12,-6.5 28,-8.5 l 28,-3 q 13,-37 25.5,-73 12.5,-36 25.5,-70 13,-34 27.5,-66.5 14.5,-32.5 33.5,-64.5 36,-60 81.5,-91.5 45.5,-31.5 93.5,-31.5 45,0 76.5,22.5 31.5,22.5 31.5,70.5 0,15 -3,30 -3,15 -9,27.5 -6,12.5 -15.5,20.5 -9.5,8 -22.5,8 -11,0 -20.5,-8 -9.5,-8 -9.5,-22 0,-15 7.5,-23 7.5,-8 16.5,-15.5 9,-7.5 16.5,-16.5 7.5,-9 7.5,-25 0,-22 -16.5,-35.5 Q 594,1293 572,1293 q -38,0 -70,29.5 -32,29.5 -57,84.5 -25,55 -36.5,119 -11.5,64 -25.5,130 l 26,-3 q 17,-2 24,-5 7,-3 10,-3 6,0 6,6 0,12 -16.5,29.5 Q 416,1698 384,1703 l -13,2 q -6,23 -12.5,41.5 -6.5,18.5 -16.5,38.5 -22,43 -46.5,72.5 -24.5,29.5 -52.5,47.5 30,14 64.5,27.5 34.5,13.5 67.5,24 33,10.5 61.5,16.5 28.5,6 48.5,6 72,0 114,-29 z M 64,1907 q 23,0 38.5,-5 15.5,-5 35.5,-16 -20,-7 -35,-10.5 -15,-3.5 -34,-3.5 -20,0 -29.5,5 -9.5,5 -9.5,13 0,8 9.5,12.5 9.5,4.5 24.5,4.5 z"></path></svg>
