<?xml version="1.0" encoding="UTF-8" standalone="no"?>
<svg xmlns="http://www.w3.org/2000/svg" width="4558" height="2057"><path id="m" unicode="m" d="m 443,1807 q 20,0 33.5,10.5 13.5,10.5 13.5,26.5 0,18 -7,35 -7,17 -16,35 -9,18 -16,37 -7,19 -7,40 0,13 5,17 5,4 9,4 8,0 17,-4.5 9,-4.5 16,-9.5 8,-6 16,-15 l 8,8 q -15,18 -32,31 -14,11 -32,20.5 -18,9.5 -38,9.5 -24,0 -41.5,-12 -17.5,-12 -17.5,-36 0,-20 8.5,-39.5 8.5,-19.5 19,-38 10.5,-18.5 19.5,-35 9,-16.5 9,-31.5 0,-16 -12,-16 -10,0 -32,12 -22,12 -52,49 -8,9 -15.5,29 -7.5,20 -14.5,41 -7,21 -11,39 -4,18 -4,24 0,8 -7,11 -7,3 -14,3 -8,0 -17,-1.5 -9,-1.5 -21,-1.5 -10,0 -19.5,3 -9.5,3 -12.5,3 -5,0 -5,-6 0,-4 5,-7 5,-3 10,-14 8,-20 16,-45 8,-25 14,-48.5 6,-23.5 10,-43.5 4,-20 4,-31 0,-19 -12,-19 -7,0 -24,11.5 -17,11.5 -46,48.5 -8,9 -16,29.5 -8,20.5 -15,42.5 -7,22 -11.5,40.5 -4.5,18.5 -4.5,24.5 0,14 -22,14 -7,0 -16,-1.5 -9,-1.5 -23,-1.5 -14,0 -24.5,4 -10.5,4 -13.5,4 -4,0 -4,-6 0,-4 6.5,-8.5 6.5,-4.5 11.5,-15.5 9,-19 18,-44 9,-25 17,-50 8,-25 13,-45.5 5,-20.5 5,-29.5 0,-13 -8,-13 -4,0 -10.5,4.5 -6.5,4.5 -13.5,9.5 -8,6 -16,13 l -8,-9 q 6,-6 17.5,-15.5 11.5,-9.5 25,-18.5 13.5,-9 27.5,-15.5 14,-6.5 26,-6.5 18,0 30.5,8.5 12.5,8.5 12.5,23.5 0,15 -3.5,28.5 -3.5,13.5 -5.5,17.5 26,-33 56.5,-55.5 30.5,-22.5 59.5,-22.5 25,0 38,10.5 13,10.5 13,27.5 0,8 -1.5,16.5 -1.5,8.5 -3.5,16.5 -3,9 -5,18 15,-20 33.5,-36.5 18.5,-16.5 37,-28 18.5,-11.5 37,-18 18.5,-6.5 33.5,-6.5 z"></path></svg>
