<?xml version="1.0" encoding="UTF-8" standalone="no"?>
<svg xmlns="http://www.w3.org/2000/svg" width="4558" height="2057"><path id="M" unicode="M" d="m 31,1856 q 0,36 13.5,59 13.5,23 35,36.5 21.5,13.5 48,18.5 26.5,5 52.5,5 60,0 109.5,-30 49.5,-30 91,-78.5 Q 422,1818 457,1758 q 35,-60 65.5,-120.5 30.5,-60.5 58,-115.5 27.5,-55 54.5,-92 36,-51 68,-76 32,-25 53,-39 l 12,14 q -23,27 -34,75 -11,48 -15.5,106.5 -4.5,58.5 -5.5,122.5 -1,64 -4,121 20,-34 50,-77.5 30,-43.5 64.5,-89 34.5,-45.5 70.5,-89.5 36,-44 69,-80 48,-52 86,-70 38,-18 70,-18 18,0 32,5.5 14,5.5 14,12.5 0,8 -6,14.5 -6,6.5 -14,6.5 -5,0 -7,-3 -2,-3 -5,-6.5 -3,-3.5 -7.5,-6.5 -4.5,-3 -13.5,-3 -29,0 -49,28.5 -20,28.5 -45,82.5 -24,52 -42,114 -18,62 -30,120 -12,58 -18,104.5 -6,46.5 -6,67.5 0,20 5,26.5 5,6.5 15,6.5 8,0 17.5,-5 9.5,-5 17.5,-12 10,-7 19,-17 l 9,10 q -19,20 -38,36 -17,14 -36,24.5 -19,10.5 -36,10.5 -27,0 -48.5,-21.5 Q 825,1904 825,1859 q 0,-33 6,-77 6,-44 15,-88 9,-44 19.5,-83.5 10.5,-39.5 19.5,-63.5 -7,6 -24.5,27.5 -17.5,21.5 -41,55 -23.5,33.5 -51.5,77.5 -28,44 -55,95 -8,15 -16,34.5 -8,19.5 -17,39.5 -9,20 -20,39 -11,19 -27,33 -16,14 -35,17 -19,3 -22,3 21,-50 25.5,-103 4.5,-53 4.5,-107 v -122 q 0,-45 7,-86 7,-41 21,-73 -32,51 -56.5,111 -24.5,60 -49,122.5 Q 504,1773 475,1835 q -29,62 -70,116 -34,45 -89,75.5 -55,30.5 -127,30.5 -41,0 -75.5,-13 Q 79,2031 54,2006 29,1981 14.5,1945.5 0,1910 0,1866 q 0,-47 18.5,-83 18.5,-36 46.5,-60.5 28,-24.5 60,-37 32,-12.5 59,-12.5 45,0 73,17 28,17 28,43 0,15 -8,24 -8,9 -22,9 -17,0 -25,-13.5 -8,-13.5 -8,-29.5 0,-13 -8,-21 -8,-8 -34,-8 -21,0 -46.5,9 Q 108,1712 85,1731.5 62,1751 46.5,1782 31,1813 31,1856 Z"></path></svg>
