<?xml version="1.0" encoding="UTF-8" standalone="no"?>
<svg xmlns="http://www.w3.org/2000/svg" width="4558" height="2057"><path id="multiply" unicode="&#xD7;" d="m 185,1907 109,109 q 4,4 4,7 0,4 -4,9.5 -4,5.5 -9,11 -5,5.5 -11,9 -6,3.5 -10,3.5 -2,0 -3.5,-1.5 Q 259,2053 257,2052 L 148,1944 39,2053 q -2,4 -7,4 -4,0 -9.5,-4 -5.5,-4 -10.5,-9 -5,-5 -8.5,-11 -3.5,-6 -3.5,-10 0,-3 4,-7 L 113,1907 4,1798 q -4,-2 -4,-7 0,-4 4,-9.5 4,-5.5 9,-10.5 5,-5 11,-8.5 6,-3.5 10,-3.5 3,0 5,2 l 109,111 109,-109 q 4,-4 9,-4 4,0 10,4 6,4 10.5,9 4.5,5 8,11 3.5,6 3.5,10 0,3 -4,7 z"></path></svg>
