<?xml version="1.0" encoding="UTF-8" standalone="no"?>
<svg xmlns="http://www.w3.org/2000/svg" width="4558" height="2057"><path id="Ncaron" unicode="&#x147;" d="m 181,1975 q 58,0 104.5,-27 46.5,-27 83.5,-71 37,-44 66.5,-100 29.5,-56 54,-114.5 24.5,-58.5 45.5,-114 21,-55.5 41,-99.5 26,-56 55,-90 29,-34 44,-44 l 8,8 q -2,11 -4,23 -3,21 -3,53 0,46 11.5,91 11.5,45 26,86.5 14.5,41.5 26,78.5 11.5,37 11.5,67 7,-26 18.5,-67.5 11.5,-41.5 27.5,-88.5 16,-47 37.5,-94.5 21.5,-47.5 50.5,-85.5 22,-29 50.5,-47 28.5,-18 60.5,-18 18,0 32.5,8.5 14.5,8.5 14.5,24.5 0,17 -11,26 -11,9 -25,9 -9,0 -14.5,-4 -5.5,-4 -10,-9 -4.5,-5 -10,-9 -5.5,-4 -14.5,-4 -28,0 -55,35 -29,36 -51.5,88.5 -22.5,52.5 -41,109.5 -18.5,57 -32.5,113 -14,56 -26,99 -8,30 -16,55 -8,25 -14,43 -7,21 -14,39 h -15 q 0,-70 -17.5,-130 -17.5,-60 -38,-115 -20.5,-55 -38,-105.5 Q 582,1544 582,1494 q -25,59 -40,112 -15,53 -30,104.5 -15,51.5 -33,102 -18,50.5 -49,103.5 -20,34 -43,60.5 -23,26.5 -51.5,44.5 -28.5,18 -64,27 -35.5,9 -80.5,9 -40,0 -75,-13 Q 81,2031 55.5,2006 30,1981 15,1945.5 0,1910 0,1866 q 0,-47 18.5,-83 18.5,-36 46.5,-60.5 28,-24.5 60,-37 32,-12.5 59,-12.5 45,0 73,17 28,17 28,43 0,15 -8,24 -8,9 -22,9 -17,0 -25,-13.5 -8,-13.5 -8,-29.5 0,-13 -8,-21 -8,-8 -34,-8 -21,0 -46.5,9 -25.5,9 -48.5,28.5 -23,19.5 -38.5,50.5 -15.5,31 -15.5,74 0,36 13.5,59 13.5,23 35,36.5 21.5,13.5 48.5,18.5 27,5 53,5 z m 628,-623 q -9,0 -22,-13 -13,-13 -24,-30 -11,-17 -19,-33.5 -8,-16.5 -8,-23.5 0,-9 10,-9 4,0 11.5,9.5 7.5,9.5 17.5,21 10,11.5 21,21 11,9.5 22,9.5 15,0 31,-9.5 16,-9.5 30.5,-21.5 14.5,-12 24.5,-21.5 10,-9.5 13,-9.5 10,0 10,9 0,5 -14.5,21.5 -14.5,16.5 -34,34 -19.5,17.5 -39.5,31.5 -20,14 -30,14 z"></path></svg>
