<?xml version="1.0" encoding="UTF-8" standalone="no"?>
<svg xmlns="http://www.w3.org/2000/svg" width="4558" height="2057"><path id="nine" unicode="9" d="m 107,2057 q -15,0 -34,-4.5 -19,-4.5 -35,-15 Q 22,2027 11,2011 0,1995 0,1971 q 0,-23 12,-37.5 12,-14.5 30,-14.5 15,0 23.5,10 8.5,10 8.5,22 0,12 -4,18 -4,6 -9,10.5 -5,4.5 -9,9.5 -4,5 -4,14 0,18 16,28 16,10 35,10 25,0 47,-15 22,-15 40.5,-39.5 18.5,-24.5 33.5,-55 15,-30.5 26,-62 11,-31.5 18,-61 7,-29.5 9,-51.5 -8,15 -22,31.5 -14,16.5 -32,30 -18,13.5 -40.5,22 -22.5,8.5 -46.5,8.5 -20,0 -40.5,-6 -20.5,-6 -37.5,-19 -17,-13 -28,-33 -11,-20 -11,-48 0,-37 16,-73.5 16,-36.5 43.5,-64.5 27.5,-28 65,-45.5 37.5,-17.5 79.5,-17.5 24,0 51,8 27,8 50,28 23,20 38,53.5 15,33.5 15,83.5 0,33 -8.5,71 -8.5,38 -24.5,76 -16,38 -39,73.5 -23,35.5 -52.5,62.5 -29.5,27 -65,43 -35.5,16 -76.5,16 z m 109,-500 q -32,0 -52.5,20.5 -20.5,20.5 -33.5,49.5 -13,29 -18,62 -5,33 -5,58 0,32 9.5,52.5 9.5,20.5 39.5,20.5 24,0 45.5,-13.5 21.5,-13.5 38,-36 16.5,-22.5 26,-52.5 9.5,-30 9.5,-63 0,-39 -13,-68.5 -13,-29.5 -46,-29.5 z"></path></svg>
