<?xml version="1.0" encoding="UTF-8" standalone="no"?>
<svg xmlns="http://www.w3.org/2000/svg" width="4558" height="2057"><path id="Oacute" unicode="&#xD3;" d="m 0,1858 q 0,-54 16,-110.5 16,-56.5 44,-109.5 28,-53 66,-100 38,-47 83,-82 45,-35 95,-55.5 50,-20.5 101,-20.5 32,0 62.5,11.5 30.5,11.5 54,34 23.5,22.5 37.5,56.5 14,34 14,80 0,64 -16,126 -16,62 -43.5,117 -27.5,55 -64.5,101 -37,46 -79.5,80 -42.5,34 -89,52.5 Q 234,2057 189,2057 147,2057 112,2043 77,2029 52.5,2003 28,1977 14,1940.5 0,1904 0,1858 Z m 216,-345 q 0,-7 1,-14 1,-7 3,-12 l 4,-12 q -112,143 -112,373 0,42 5,75.5 5,33.5 17,57 12,23.5 33.5,36 21.5,12.5 54.5,12.5 43,0 86.5,-40.5 43.5,-40.5 79,-106 35.5,-65.5 57.5,-147 22,-81.5 22,-163.5 0,-78 -22,-118 -22,-40 -83,-40 -23,0 -45,7 -22,7 -39,20 -17,13 -28,30 -11,17 -11,38 0,25 10.5,39 10.5,14 27.5,14 8,0 13.5,-3 5.5,-3 10.5,-6.5 5,-3.5 10.5,-6.5 5.5,-3 12.5,-3 31,0 31,29 0,15 -12,25.5 -12,10.5 -34,10.5 -18,0 -34.5,-6.5 Q 258,1595 245,1583 q -13,-12 -21,-29.5 -8,-17.5 -8,-40.5 z m 252,-282 q 8,0 16.5,14 8.5,14 8.5,26 0,17 -23,37 -28,25 -59.5,38 -31.5,13 -56.5,13 -4,0 -7.5,-2 -3.5,-2 -3.5,-7 0,-5 9,-9 22,-10 49.5,-34 27.5,-24 51.5,-65 5,-11 15,-11 z"></path></svg>
