<?xml version="1.0" encoding="UTF-8" standalone="no"?>
<svg xmlns="http://www.w3.org/2000/svg" width="4558" height="2057"><path id="OE" unicode="&#x152;" d="m 837,1392 q -41,0 -74.5,15.5 -33.5,15.5 -57.5,43 -24,27.5 -37,64.5 -13,37 -13,80 0,19 2.5,30 2.5,11 6.5,17 4,7 10,10 8,-2 13.5,-3 5.5,-1 10.5,-1 20,0 33.5,8 13.5,8 13.5,19 0,13 -9.5,21 -9.5,8 -26.5,8 -14,0 -26,-2.5 -12,-2.5 -21,-5.5 -11,-4 -19,-8 -38,18 -68,46 -26,24 -46.5,63 -20.5,39 -20.5,96 0,68 34,96 34,28 86,28 34,0 66,-13.5 32,-13.5 59.5,-35.5 27.5,-22 50.5,-51 23,-29 38,-61 l 12,11 q -17,33 -40.5,66.5 -23.5,33.5 -55,61 -31.5,27.5 -71.5,45 -40,17.5 -91,17.5 -32,0 -62.5,-4.5 -30.5,-4.5 -57,-16.5 -26.5,-12 -46.5,-33 -20,-21 -29,-54 -48,43 -103.5,70.5 Q 242,2047 189,2047 147,2047 112,2033 77,2019 52.5,1993 28,1967 14,1930.5 0,1894 0,1848 0,1794 16,1737.5 32,1681 60,1628 q 28,-53 66,-100 38,-47 83,-82 45,-35 95,-55.5 50,-20.5 101,-20.5 27,0 53,8 26,8 48,24.5 22,16.5 38,41 16,24.5 23,57.5 16,-29 44,-53 28,-24 62.5,-41.5 34.5,-17.5 72.5,-27.5 38,-10 73,-10 56,0 93.5,27 37.5,27 37.5,74 0,32 -13,57.5 -13,25.5 -38,25.5 -11,0 -21,-9 -10,-9 -10,-22 0,-15 7.5,-22.5 7.5,-7.5 17,-14.5 9.5,-7 17,-15 7.5,-8 7.5,-24 0,-22 -22.5,-38 -22.5,-16 -57.5,-16 z m -621,111 q 0,-7 1,-14 1,-7 3,-12 l 4,-12 q -112,143 -112,373 0,42 5,75.5 5,33.5 17,57 12,23.5 33.5,36 21.5,12.5 54.5,12.5 43,0 86.5,-40.5 43.5,-40.5 79,-106 35.5,-65.5 57.5,-147 22,-81.5 22,-163.5 0,-78 -22,-118 -22,-40 -83,-40 -23,0 -45,7 -22,7 -39,20 -17,13 -28,30 -11,17 -11,38 0,25 10.5,39 10.5,14 27.5,14 8,0 13.5,-3 5.5,-3 10.5,-6.5 5,-3.5 10.5,-6.5 5.5,-3 12.5,-3 31,0 31,29 0,15 -12,25.5 -12,10.5 -34,10.5 -18,0 -34.5,-6.5 Q 258,1585 245,1573 q -13,-12 -21,-29.5 -8,-17.5 -8,-40.5 z m 351,121 q -3,20 -7,39 -4,19 -9,38 10,-6 22,-11 12,-5 21.5,-9 9.5,-4 16.5,-6.5 l 7,-2.5 q -11,-5 -25.5,-16.5 Q 578,1644 567,1624 Z"></path></svg>
