<?xml version="1.0" encoding="UTF-8" standalone="no"?>
<svg xmlns="http://www.w3.org/2000/svg" width="4558" height="2057"><path id="one" unicode="1" d="m 107,1654 q 1,-3 2.5,-9 1.5,-6 1.5,-11 0,-9 -11,-9 -8,0 -13.5,0.5 -5.5,0.5 -10.5,1.5 -5,1 -10,1 v -17 q 25,-5 48.5,-17 23.5,-12 51.5,-41 7,-7 10,-8.5 3,-1.5 8,-1.5 3,0 9,4.5 6,4.5 12,10.5 6,6 10,12.5 4,6.5 4,9.5 0,4 -2,11 -2,7 -4,15 -16,56 -32,114.5 -16,58.5 -31,115 -15,56.5 -28.5,108.5 -13.5,52 -23.5,95 -1,6 -13,9.5 -12,3.5 -27,5.5 -15,2 -30,2.5 -15,0.5 -21,0.5 -7,0 -7,-7 0,-3 1.5,-5.5 1.5,-2.5 4.5,-9.5 1,-3 7.5,-26.5 6.5,-23.5 16.5,-59 10,-35.5 21,-78.5 11,-43 22,-84.5 11,-41.5 20,-77 9,-35.5 14,-55.5 z"></path></svg>
