<?xml version="1.0" encoding="UTF-8" standalone="no"?>
<svg xmlns="http://www.w3.org/2000/svg" width="4558" height="2057"><path id="onehalf" unicode="&#xBD;" d="m 88,1489 q 1,-2 2,-6.5 1,-4.5 1,-8.5 0,-7 -8,-7 -10,0 -18,2 -4,1 -7,1 v -13 q 18,-3 35.5,-12.5 17.5,-9.5 38.5,-30.5 5,-5 7.5,-6 2.5,-1 5.5,-1 3,0 7,3.5 4,3.5 8.5,8 4.5,4.5 7.5,9 3,4.5 3,6.5 0,3 -1.5,8 -1.5,5 -3.5,12 -12,41 -23.5,84 -11.5,43 -22.5,84.5 -11,41.5 -21,80 -10,38.5 -17,69.5 -1,4 -10,7 -9,3 -20,4.5 -11,1.5 -22,2 -11,0.5 -15,0.5 -5,0 -5,-5 0,-3 4,-12 1,-2 6,-19.5 5,-17.5 12,-43.5 7,-26 15.5,-57.5 8.5,-31.5 16,-62 7.5,-30.5 14,-56.5 6.5,-26 10.5,-41 z m -42,562 q -4,6 -12,6 -12,0 -23,-0.5 -11,-0.5 -11,-3.5 0,-2 1,-4 1,-2 2,-5 l 245,-510 q 2,-5 5.5,-6 3.5,-1 6.5,-1 11,0 22.5,0.5 11.5,0.5 11.5,3.5 0,7 -3,11 z m 349,-79 q -17,26 -38,46.5 -21,20.5 -49,20.5 -31,0 -61,-5.5 -30,-5.5 -53,-5.5 -6,0 -12.5,3.5 -6.5,3.5 -14.5,3.5 -7,0 -12,-7 -5,-7 -5,-12 0,-6 10.5,-13.5 10.5,-7.5 30.5,-23.5 28,-21 59,-48 31,-27 57,-58 26,-31 43,-64.5 17,-33.5 17,-67.5 0,-35 -14.5,-50.5 Q 338,1675 311,1675 q -15,0 -27,5 -12,5 -21,13 -9,8 -14,17 -5,9 -5,16 0,7 4,11 4,4 9.5,7.5 5.5,3.5 9.5,8 4,4.5 4,11.5 0,11 -7,18 -7,7 -18,7 -14,0 -23,-10.5 -9,-10.5 -9,-27.5 0,-19 10,-36.5 10,-17.5 26.5,-30.5 16.5,-13 38,-20.5 21.5,-7.5 45.5,-7.5 42,0 71,22 29,22 29,66 0,39 -23,72.5 -23,33.5 -56.5,62.5 -33.5,29 -70.5,53.5 -37,24.5 -64,45.5 28,0 56,5 28,5 52,5 20,0 36,-6.5 16,-6.5 25,-15.5 z"></path></svg>
