<?xml version="1.0" encoding="UTF-8" standalone="no"?>
<svg xmlns="http://www.w3.org/2000/svg" width="4558" height="2057"><path id="P" unicode="P" d="m 513,1408 q -20,-6 -40.5,-9.5 -20.5,-3.5 -47.5,-3.5 -64,0 -127,22 -63,22 -113.5,60 -50.5,38 -81.5,89 -31,51 -31,109 0,52 22.5,84 22.5,32 75.5,32 40,0 63,-23 23,-23 23,-51 0,-9 -3,-14.5 -3,-5.5 -6.5,-10.5 -3.5,-5 -6.5,-10 -3,-5 -3,-13 0,-14 8.5,-23 8.5,-9 23.5,-9 17,0 25,11 8,11 8,30 0,26 -10.5,50 -10.5,24 -29,42 -18.5,18 -44,29 -25.5,11 -54.5,11 -33,0 -62.5,-8.5 Q 72,1793 49.5,1776 27,1759 13.5,1732 0,1705 0,1669 0,1625 18.5,1586.5 37,1548 69,1516 q 32,-32 74,-57.5 42,-25.5 89,-43 47,-17.5 96.5,-26.5 49.5,-9 95.5,-9 32,0 59,3 27,3 53,8 21,-13 44.5,-19.5 23.5,-6.5 43.5,-6.5 22,0 41,5 19,5 19,13 0,10 -5.5,15 -5.5,5 -13.5,5 -5,0 -8.5,-3.5 -3.5,-3.5 -7.5,-8 -4,-4.5 -10,-8 -6,-3.5 -15,-3.5 -18,0 -45,21 34,11 64,28 30,17 52.5,38.5 22.5,21.5 35.5,48.5 13,27 13,57 0,52 -25.5,91 -25.5,39 -62,65 -36.5,26 -77,39 -40.5,13 -70.5,13 -20,0 -32,-3 -12,-3 -12,-9 0,-9 7,-9 3,0 7,1.5 4,1.5 12,1.5 22,0 47.5,-12 25.5,-12 47.5,-36 22,-24 36,-59.5 14,-35.5 14,-81.5 0,-49 -17.5,-87 -17.5,-38 -60.5,-61 -26,29 -43.5,68.5 -17.5,39.5 -30.5,84 -13,44.5 -23,93 -10,48.5 -21,95.5 -11,47 -25.5,91 -14.5,44 -35.5,79 -19,32 -43.5,54.5 -24.5,22.5 -51.5,37 -27,14.5 -55,21.5 -28,7 -54,7 -30,0 -50.5,-6.5 -20.5,-6.5 -33,-16 Q 79,2025 74,2015 q -5,-10 -5,-16 0,-8 4,-13 4,-5 12,-5 8,0 11.5,5 3.5,5 3.5,10 0,4 2.5,10.5 2.5,6.5 8.5,12.5 6,6 16.5,10 10.5,4 25.5,4 43,0 68.5,-30.5 25.5,-30.5 54.5,-92.5 16,-34 31,-77 15,-43 31,-90.5 16,-47.5 34,-96 18,-48.5 39,-93 21,-44.5 46,-82.5 25,-38 56,-63 z"></path></svg>
