<?xml version="1.0" encoding="UTF-8" standalone="no"?>
<svg xmlns="http://www.w3.org/2000/svg" width="4558" height="2057"><path id="p" unicode="p" d="m 169,1800 q -8,21 -19,57 -11,36 -21.5,73 -10.5,37 -18,67.5 -7.5,30.5 -7.5,40.5 0,14 -13,14 -8,0 -24.5,-1.5 Q 49,2049 36,2049 q -15,0 -22,4 -7,4 -10,4 -4,0 -4,-4 0,-3 7,-8.5 7,-5.5 12,-16.5 3,-6 9,-22 6,-16 13,-37.5 7,-21.5 14.5,-46.5 7.5,-25 15.5,-50 11,-38 23,-77.5 12,-39.5 21.5,-72 9.5,-32.5 15.5,-54.5 6,-22 6,-27 0,-3 -1,-7.5 -1,-4.5 -7,-4.5 -4,0 -10,4.5 -6,4.5 -13,9.5 -8,6 -16,13 l -7,-9 q 6,-6 17.5,-15.5 11.5,-9.5 25,-19 13.5,-9.5 28,-16.5 14.5,-7 26.5,-7 18,0 30,8.5 12,8.5 12,22.5 0,7 -2,15 -1,4 -2,6 20,-23 50,-37.5 30,-14.5 54,-14.5 27,0 49.5,16 22.5,16 22.5,51 0,38 -14.5,71 -14.5,33 -37,57 -22.5,24 -50,38 -27.5,14 -52.5,14 -28,0 -44.5,-10 -16.5,-10 -26.5,-26 z m 118,-183 q -20,0 -43.5,21 -23.5,21 -37.5,50 -3,7 -7.5,18.5 -4.5,11.5 -8.5,23.5 -4,12 -6.5,22.5 -2.5,10.5 -2.5,16.5 0,25 12.5,33.5 12.5,8.5 23.5,8.5 19,0 35.5,-12.5 16.5,-12.5 28.5,-33.5 12,-21 19,-49 7,-28 7,-60 0,-21 -6,-30 -6,-9 -14,-9 z"></path></svg>
