<?xml version="1.0" encoding="UTF-8" standalone="no"?>
<svg xmlns="http://www.w3.org/2000/svg" width="4558" height="2057"><path id="parenright" unicode=")" d="m 24,2051 q -9,6 -16,6 -8,0 -8,-7 0,-3 8,-11 24,-24 51.5,-59.5 27.5,-35.5 51,-81 Q 134,1853 149,1798 q 15,-55 15,-118 0,-41 -4,-75.5 -4,-34.5 -9.5,-61 Q 145,1517 140,1500 q -5,-17 -8,-23 -4,-8 -4,-13 0,-7 9,-7 5,0 9.5,3 4.5,3 6.5,5 6,5 21,20 15,15 31,41.5 16,26.5 28.5,65 12.5,38.5 12.5,90.5 0,65 -23.5,123.5 Q 199,1864 165,1911.5 131,1959 92.5,1995 54,2031 24,2051 Z"></path></svg>
