<?xml version="1.0" encoding="UTF-8" standalone="no"?>
<svg xmlns="http://www.w3.org/2000/svg" width="4558" height="2057"><path id="parenleft" unicode="(" d="m 222,1463 q 9,-6 16,-6 8,0 8,7 0,3 -8,11 -24,24 -51.5,59.5 -27.5,35.5 -51,81 Q 112,1661 97,1716 q -15,55 -15,118 0,41 4,75.5 4,34.5 9.5,61 5.5,26.5 10.5,43.5 5,17 8,23 4,8 4,13 0,7 -9,7 -5,0 -9.5,-3 -4.5,-3 -6.5,-5 -6,-5 -21,-20 Q 57,2014 41,1987.5 25,1961 12.5,1922.5 0,1884 0,1832 0,1767 23.5,1708.5 47,1650 81,1602.5 115,1555 153.5,1519 192,1483 222,1463 Z"></path></svg>
