<?xml version="1.0" encoding="UTF-8" standalone="no"?>
<svg xmlns="http://www.w3.org/2000/svg" width="4558" height="2057"><path id="path556" d="m 373,1460 q 19,-21 37.5,-39.5 18.5,-18.5 35.5,-33 17,-14.5 32,-22.5 15,-8 27,-8 19,0 28.5,11.5 9.5,11.5 9.5,25.5 0,15 -9,30 -9,15 -31,15 -14,0 -21.5,-8 -7.5,-8 -7.5,-20 0,-9 -5,-9 -5,0 -13,4.5 -8,4.5 -16.5,11.5 -8.5,7 -16.5,14 -8,7 -12,13 7,16 15,34 7,15 16,33.5 9,18.5 19,35.5 9,17 21.5,30.5 12.5,13.5 33.5,18.5 l 1,9 h -57 q -23,0 -43,-8 -20,-8 -28,-25 l -30,-64 q -11,33 -16,55 -5,22 -5,29 0,15 -14,15 -8,0 -21,-2 -13,-2 -26,-2 -14,0 -24,4 -10,4 -13,4 -4,0 -4,-4 0,-3 6,-9 6,-6 12,-18 11,-21 23,-58.5 12,-37.5 23,-82.5 l 3,-13 q -56,45 -105.5,93 -49.5,48 -86.5,100 -37,52 -59,107.5 -22,55.5 -22,116.5 0,31 11.5,55.5 11.5,24.5 32,42 20.5,17.5 47.5,26.5 27,9 59,9 66,0 130,-17 64,-17 127.5,-42 63.5,-25 127.5,-54.5 64,-29.5 130.5,-54.5 66.5,-25 137,-42 70.5,-17 147.5,-17 46,0 80.5,12 34.5,12 57,32.5 22.5,20.5 33.5,47 11,26.5 11,55.5 0,39 -14.5,69 -14.5,30 -37.5,50 -23,20 -51.5,30.5 -28.5,10.5 -56.5,10.5 -19,0 -36,-6 -17,-6 -17,-21 0,-11 7.5,-19 7.5,-8 19.5,-8 9,0 14,4.5 5,4.5 9.5,10.5 4.5,6 10,10.5 5.5,4.5 14.5,4.5 16,0 36.5,-8.5 20.5,-8.5 39,-25.5 18.5,-17 31,-43 12.5,-26 12.5,-62 0,-25 -10.5,-47.5 -10.5,-22.5 -32,-40 -21.5,-17.5 -53.5,-27.5 -32,-10 -74,-10 -72,0 -141.5,20 -69.5,20 -137,49.5 -67.5,29.5 -133,64.5 -65.5,35 -131,64.5 Q 365,1997 300,2017 q -65,20 -130,20 -39,0 -70.5,-12.5 Q 68,2012 46,1989.5 24,1967 12,1936 0,1905 0,1867 0,1797 25.5,1733 51,1669 93.5,1610.5 136,1552 192.5,1499 249,1446 311,1396 348,1257 387.5,1146 427,1035 472.5,957.5 518,880 572,838.5 626,797 693,797 q 25,0 46.5,10 21.5,10 36.5,27 15,17 23.5,38.5 8.5,21.5 8.5,45.5 0,56 -35,109 -35,53 -92,106 -57,53 -129.5,106.5 Q 479,1293 404,1349 q -8,26 -15.5,54 -7.5,28 -15.5,57 z M 699,853 q -43,0 -80.5,31.5 -37.5,31.5 -72,91.5 -34.5,60 -67,146.5 Q 447,1209 414,1318 q 69,-52 134,-102 65,-50 115,-98 50,-48 80.5,-94 30.5,-46 30.5,-89 0,-42 -20,-62 -20,-20 -55,-20 z"></path></svg>
