<?xml version="1.0" encoding="UTF-8" standalone="no"?>
<svg xmlns="http://www.w3.org/2000/svg" width="4558" height="2057"><path id="path977" d="m 1154,75 q 8,0 16.5,14 8.5,14 8.5,26 0,17 -23,37 -28,25 -59.5,38 -31.5,13 -56.5,13 -4,0 -7.5,-2 -3.5,-2 -3.5,-7 0,-5 9,-9 22,-10 49.5,-34 27.5,-24 51.5,-65 5,-11 15,-11 z m -78,239 q 5,-22 11.5,-37 6.5,-15 15.5,-24 9,-9 21.5,-14 12.5,-5 29.5,-7 22,-3 36,-10 7,-4 12,-7 l 6,12 q -5,2 -9,6 -4,3 -9,8 -5,5 -10,11 -14,19 -24,42 -10,23 -21,65 -11,48 -18,93 -7,45 -19,101 -7,31 -14.5,60.5 -7.5,29.5 -16.5,57.5 85,2 165.5,20 80.5,18 151.5,51 63,-21 126,-32.5 63,-11.5 127,-11.5 69,0 131,14.5 62,14.5 109,43.5 47,29 75,73 28,44 28,103 0,44 -17.5,88.5 -17.5,44.5 -55,82.5 -37.5,38 -97,65.5 -59.5,27.5 -142.5,35.5 -4,78 -29,151 -25,73 -69,133 -44,60 -106.5,103.5 -62.5,43.5 -140.5,62.5 -4,68 -32.5,139.5 -28.5,71.5 -85,130 -56.5,58.5 -142,96 Q 978,2057 861,2057 786,2057 706,2042.5 626,2028 550,1996 474,1964 405.5,1914 337,1864 285.5,1793 234,1722 204,1629 q -30,-93 -30,-210 0,-88 20,-170 Q 104,1217 52,1153 0,1089 0,1004 0,948 24,902.5 48,857 89.5,825 131,793 187.5,775.5 244,758 310,758 q 56,0 113.5,12 57.5,12 117.5,32 99,-57 209.5,-89 110.5,-32 222.5,-40 12,-29 23,-60 11,-31 21,-64 6,-21 11,-39.5 5,-18.5 9.5,-36 4.5,-17.5 8.5,-35.5 4,-18 9,-38 -29,32 -63.5,53.5 Q 957,475 930,475 907,475 889,461.5 871,448 871,421 871,405 879.5,385.5 888,366 898,347 q 10,-19 18.5,-37 8.5,-18 8.5,-33 0,-10 -7,-10 -5,0 -11,4 -6,4 -12,9 -7,6 -15,13 l -8,-9 q 6,-6 17.5,-15.5 11.5,-9.5 25,-19 13.5,-9.5 28,-16.5 14.5,-7 26.5,-7 22,0 33,9 11,9 11,24 0,15 -8,35 -8,20 -17,41 -9,21 -17,42.5 -8,21.5 -8,39.5 0,15 15,15 14,0 28,-10.5 14,-10.5 36,-33.5 13,-14 20,-29.5 7,-15.5 14,-44.5 z m -101,710 q -18,-9 -36,-17.5 -18,-8.5 -35,-17.5 -59,75 -127,129.5 -68,54.5 -139.5,89 -71.5,34.5 -145,51 Q 419,1275 350,1275 q -21,0 -41,-2 -20,-2 -40,-5 -8,36 -12,73 -4,37 -4,77 0,114 26.5,204 26.5,90 71.5,158.5 45,68.5 105.5,116.5 60.5,48 128.5,78.5 68,30.5 140,44.5 72,14 141,14 100,0 179,-33 79,-33 134,-86 55,-53 85.5,-120 30.5,-67 35.5,-136 -22,4 -44,6 -22,2 -45,2 -62,0 -123,-15 -61,-15 -110.5,-47.5 Q 928,1572 894,1521 q -34,-51 -43,-123 -70,38 -111.5,105 -41.5,67 -41.5,149 0,47 14,84.5 14,37.5 38.5,63.5 24.5,26 58,39.5 33.5,13.5 71.5,13.5 48,0 76.5,-19 28.5,-19 28.5,-42 0,-9 -4,-14.5 -4,-5.5 -8.5,-11 -4.5,-5.5 -8.5,-11.5 -4,-6 -4,-16 0,-17 11.5,-26.5 11.5,-9.5 25.5,-9.5 16,0 27,13.5 11,13.5 11,37.5 0,23 -11.5,44 -11.5,21 -32.5,37.5 -21,16.5 -50,26 -29,9.5 -63,9.5 -39,0 -80.5,-14 -41.5,-14 -76.5,-42 -35,-28 -57.5,-71 -22.5,-43 -22.5,-101 0,-48 15.5,-90.5 15.5,-42.5 43,-78 27.5,-35.5 65.5,-62.5 38,-27 83,-45 0,-99 33.5,-183.5 Q 915,1099 975,1024 Z m 631,184 q -78,0 -155,-14 -77,-14 -153,-38 -76,-24 -151,-55.5 -75,-31.5 -148,-65.5 -58,72 -91,153 -33,81 -33,169 30,-9 62.5,-14 32.5,-5 66.5,-5 69,0 127.5,19.5 58.5,19.5 101,57 42.5,37.5 67,92 24.5,54.5 24.5,124.5 64,-21 114.5,-62.5 50.5,-41.5 86.5,-98 36,-56.5 56.5,-123.5 20.5,-67 24.5,-139 z m 1,-25 q 0,-76 -17.5,-139 -17.5,-63 -49,-113.5 Q 1509,880 1466,841 q -43,-39 -94,-68 -104,38 -196,100.5 -92,62.5 -161,142.5 60,28 132,57.5 72,29.5 149,54 77,24.5 156.5,40 79.5,15.5 154.5,15.5 z m 62,-7 q 71,-9 117,-33 46,-24 73,-57.5 27,-33.5 38,-73 11,-39.5 11,-77.5 0,-51 -21,-90 -21,-39 -59.5,-64.5 Q 1789,755 1734.5,742 1680,729 1614,729 q -98,0 -197,29 56,30 102.5,71.5 46.5,41.5 79.5,93.5 33,52 51.5,115 18.5,63 18.5,138 z m -1323,15 q 122,0 243.5,-60.5 Q 711,1070 814,945 749,913 687,885 625,857 565,834 472,898 400.5,987 329,1076 291,1188 q 27,3 55,3 z M 42,994 q 0,36 13.5,64.5 13.5,28.5 37.5,51 24,22.5 56,38.5 32,16 68,26 42,-116 120,-205 78,-89 179,-152 -53,-17 -102,-27 -49,-10 -96,-10 -58,0 -108,16 -50,16 -87.5,44.5 Q 85,869 63.5,908.5 42,948 42,994 Z m 962,366 q -68,0 -127,25 7,70 38.5,120 31.5,50 78,82 46.5,32 102.5,47 56,15 112,15 49,0 93,-12 0,-69 -24,-120.5 -24,-51.5 -65,-86.5 -41,-35 -95,-52.5 -54,-17.5 -113,-17.5 z m -13,-356 q 67,-79 157,-142.5 90,-63.5 193,-104.5 -66,-32 -137,-48 -71,-16 -143,-19 -28,83 -64,152 -36,69 -78,127 l 36,18 q 0,0 36,17 z M 831,926 q 38,-50 72,-108 34,-58 63,-127 -99,8 -195,40.5 -96,32.5 -182,87.5 59,22 119,49.5 60,27.5 123,57.5 z"></path></svg>
