<?xml version="1.0" encoding="UTF-8" standalone="no"?>
<svg xmlns="http://www.w3.org/2000/svg" width="4558" height="2057"><path id="path935" d="m 252,2015 q 24,0 57,-14.5 33,-14.5 68.5,-32.5 35.5,-18 69,-32.5 33.5,-14.5 59.5,-14.5 38,0 63.5,12.5 25.5,12.5 48,27.5 22.5,15 47.5,27.5 25,12.5 64,12.5 22,0 39,-5 17,-5 29.5,-12 12.5,-7 21,-14.5 8.5,-7.5 15.5,-12.5 l 8,9 q -9,9 -26,24.5 -17,15.5 -39,30 -22,14.5 -48.5,25.5 -26.5,11 -54.5,11 -36,0 -64.5,-13 -28.5,-13 -53,-28.5 -24.5,-15.5 -49,-28.5 -24.5,-13 -53.5,-13 -33,0 -64.5,12 -31.5,12 -62.5,26 -31,14 -61,26 -30,12 -60,12 -29,0 -48,-10 -19,-10 -31,-44 -20,18 -32.5,28.5 -12.5,10.5 -22,16 -9.5,5.5 -18,7.5 -8.5,2 -18.5,2 -12,0 -24,-6.5 Q 0,2037 0,2020 0,2003 12.5,1992.5 25,1982 40,1982 q 13,0 21,6.5 8,6.5 19,6.5 10,0 17.5,-2 7.5,-2 23.5,-14 -5,-17 -9,-37 -4,-20 -9,-43 -7,-29 -12,-40.5 -5,-11.5 -18,-11.5 -4,0 -10.5,4 -6.5,4 -12.5,9 -8,5 -16,12 l -8,-9 q 6,-5 16.5,-15 10.5,-10 23.5,-19.5 13,-9.5 27,-16.5 14,-7 25,-7 26,0 39,18 13,18 25,58 l 13,42 q 18,-17 24,-29 6,-12 6,-25 0,-9 -5,-14.5 -5,-5.5 -5,-19.5 0,-14 12,-22 12,-8 26,-8 32,0 32,29 0,11 -7.5,23.5 -7.5,12.5 -19.5,26 -12,13.5 -27.5,27.5 -15.5,14 -30.5,27 10,32 21,54.5 11,22.5 31,22.5 z"></path></svg>
