<?xml version="1.0" encoding="UTF-8" standalone="no"?>
<svg xmlns="http://www.w3.org/2000/svg" width="4558" height="2057"><path id="path924" d="m 1186,1019 q 74,0 142.5,26.5 68.5,26.5 133,68 64.5,41.5 125,92 60.5,50.5 119.5,99.5 34,-40 70.5,-73 36.5,-33 76.5,-57 40,-24 83.5,-37 43.5,-13 91.5,-13 54,0 95,16.5 41,16.5 68.5,42.5 27.5,26 42,60 14.5,34 14.5,68 0,42 -15.5,75.5 -15.5,33.5 -43,57 -27.5,23.5 -64,36 -36.5,12.5 -78.5,12.5 -45,0 -86.5,-11 -41.5,-11 -80.5,-30 -39,-19 -76.5,-44 -37.5,-25 -75.5,-54 -63,70 -121.5,159.5 -58.5,89.5 -119,182.5 -60.5,93 -127.5,181 -67,88 -147,155 -11,8 -27.5,16.5 -16.5,8.5 -27.5,8.5 -9,0 -17,-3 -8,-3 -8,-11 0,-13 11,-40 11,-27 20,-86 -15,17 -33,35 -16,16 -38,36.5 -22,20.5 -49,42.5 -11,9 -28,17.5 -17,8.5 -28,8.5 -9,0 -17,-3 -8,-3 -8,-11 0,-10 7.5,-31 7.5,-21 17,-46.5 9.5,-25.5 17,-52.5 7.5,-27 7.5,-50 0,-9 -10,-9 -4,0 -10,3.5 -6,3.5 -12,8.5 -7,5 -15,12 l -7,-9 q 6,-5 17.5,-14.5 11.5,-9.5 25,-19 13.5,-9.5 28,-16.5 14.5,-7 26.5,-7 21,0 32,9 11,9 11,23 0,14 -4.5,35 -4.5,21 -10.5,43.5 -6,22.5 -13,43 -7,20.5 -11,33.5 21,-19 40.5,-38 19.5,-19 35,-37 15.5,-18 26.5,-33.5 11,-15.5 15,-26.5 6,-15 15.5,-25 9.5,-10 23.5,-10 15,0 23.5,-1.5 8.5,-1.5 13.5,-4 5,-2.5 8.5,-4 3.5,-1.5 8.5,-1.5 10,0 10,9 0,4 -3,9 -3,5 -7,15 -4,11 -9.5,30 -5.5,19 -11,40.5 -5.5,21.5 -11,42 -5.5,20.5 -9.5,33.5 63,-61 120,-145.5 57,-84.5 112.5,-176 55.5,-91.5 111.5,-183 56,-91.5 118,-167.5 -51,-39 -104,-77.5 -53,-38.5 -112,-69 -59,-30.5 -126,-50 -67,-19.5 -145,-19.5 -63,0 -117,12.5 -54,12.5 -98,35 -44,22.5 -77.5,53.5 -33.5,31 -54.5,67 42,-11 78,-11 57,0 99,26.5 42,26.5 64,61.5 26,-28 65,-49 39,-21 87,-21 88,0 141,44 53,44 53,132 0,47 -24,93.5 -24,46.5 -67,84 -43,37.5 -102,61 -59,23.5 -129,23.5 -74,0 -133.5,-22.5 Q 928,1677 886,1635.5 844,1594 821.5,1536.5 799,1479 799,1408 q 0,-10 0.5,-20 0.5,-10 1.5,-21 -61,18 -129,43 -68,25 -138.5,47.5 -70.5,22.5 -141,38 Q 322,1511 258,1511 199,1511 151.5,1498.5 104,1486 70.5,1461.5 37,1437 18.5,1400 0,1363 0,1313 q 0,-57 29,-119 29,-62 82,-113.5 53,-51.5 127,-85.5 74,-34 164,-34 61,0 109,15 48,15 80.5,40 32.5,25 49.5,57.5 17,32.5 17,66.5 0,31 -14,56 -14,25 -33.5,42.5 -19.5,17.5 -39.5,27 -20,9.5 -31,9.5 -3,0 -7,-1 -4,-1 -4,-6 0,-5 4,-6.5 4,-1.5 8,-2.5 12,-3 26.5,-10.5 14.5,-7.5 26.5,-21 12,-13.5 20.5,-31.5 8.5,-18 8.5,-42 0,-28 -17,-50.5 -17,-22.5 -47.5,-38 Q 528,1050 486,1042 q -42,-8 -91,-8 -83,0 -151.5,24 -68.5,24 -118,63 -49.5,39 -77,89 -27.5,50 -27.5,101 0,88 66.5,133 66.5,45 190.5,45 72,0 142,-23 70,-23 138,-55.5 68,-32.5 133,-66.5 65,-34 126,-55 16,-53 47,-102 31,-49 77,-86.5 46,-37.5 107,-59.5 61,-22 138,-22 z m -125,409 q 0,-23 19,-53 -32,-35 -136,-35 -26,0 -56,5.5 -30,5.5 -63,14.5 -2,12 -3.5,24 -1.5,12 -1.5,24 0,64 22.5,111.5 22.5,47.5 62.5,79.5 40,32 96,48 56,16 124,16 59,0 110.5,-16.5 51.5,-16.5 89,-45 37.5,-28.5 59,-68 21.5,-39.5 21.5,-84.5 0,-145 -161,-145 -44,0 -80,19.5 -36,19.5 -58,44.5 12,26 12,49 0,20 -10.5,31.5 -10.5,11.5 -21.5,11.5 -25,0 -25,-32 z m 964,-229 q -83,0 -151,38 -68,38 -128,99 37,29 73.5,54 36.5,25 73,44 36.5,19 73.5,29.5 37,10.5 75,10.5 78,0 123.5,-41.5 45.5,-41.5 45.5,-106.5 0,-31 -13.5,-55 -13.5,-24 -38,-40 -24.5,-16 -58.5,-24 -34,-8 -75,-8 z m -928,221 q 0,-18 -7,-31 -12,20 -12,36 0,15 8,15 3,0 7,-4.5 4,-4.5 4,-15.5 z"></path></svg>
