<?xml version="1.0" encoding="UTF-8" standalone="no"?>
<svg xmlns="http://www.w3.org/2000/svg" width="4558" height="2057"><path id="path974" d="m 1234,636 q 8,0 16.5,14 8.5,14 8.5,26 0,17 -23,37 -28,25 -59.5,38 -31.5,13 -56.5,13 -4,0 -7.5,-2 -3.5,-2 -3.5,-7 0,-5 9,-9 22,-10 49.5,-34 27.5,-24 51.5,-65 5,-11 15,-11 z m -74,237 q 5,-22 11.5,-37 6.5,-15 15.5,-24 9,-9 21.5,-14 12.5,-5 29.5,-7 22,-3 36,-10 7,-4 12,-7 l 6,12 q -5,2 -9,6 -4,3 -9,8 -5,5 -10,11 -14,19 -24,42 -10,23 -21,65 -9,35 -17.5,87.5 -8.5,52.5 -19.5,106.5 -20,99 -45,188 77,-14 150.5,-32 73.5,-18 139,-42 65.5,-24 121,-55.5 55.5,-31.5 95,-72.5 39.5,-41 62,-94 22.5,-53 22.5,-120 0,-78 -42.5,-122 -42.5,-44 -122.5,-44 -42,0 -83.5,17 -41.5,17 -74,45.5 -32.5,28.5 -53,66 -20.5,37.5 -20.5,77.5 0,34 10.5,58 10.5,24 26.5,39.5 16,15.5 35.5,22.5 19.5,7 37.5,7 10,0 17.5,-5 7.5,-5 13.5,-11 l 11,-11 q 0,0 11,-5 26,0 26,25 0,13 -17,22.5 -17,9.5 -42,9.5 -27,0 -54,-9 -27,-9 -48.5,-27.5 Q 1337,1021 1323,993 q -14,-28 -14,-67 0,-45 21.5,-88 21.5,-43 58.5,-76 37,-33 86.5,-53.5 Q 1525,688 1581,688 q 44,0 86.5,11 42.5,11 75.5,35.5 33,24.5 53.5,64 20.5,39.5 20.5,97.5 0,72 -27,127.5 -27,55.5 -74.5,98 -47.5,42.5 -112.5,74 -65,31.5 -141,55 -76,23.5 -160.5,40.5 -84.5,17 -170.5,31 -50,170 -122.5,306 -72.5,136 -165,231.5 Q 751,1955 640,2006 q -111,51 -239,51 -99,0 -174,-28 -75,-28 -125.5,-78 Q 51,1901 25.5,1832.5 0,1764 0,1683 0,1568 46,1473 92,1378 169,1310.5 246,1243 345.5,1206 445,1169 553,1169 q 126,0 194,46.5 68,46.5 76,137.5 l 214,-36 q 17,-46 31,-93.5 14,-47.5 27,-98.5 11,-42 22.5,-81 11.5,-39 21.5,-85 -29,32 -63.5,53.5 -34.5,21.5 -61.5,21.5 -23,0 -41,-13.5 -18,-13.5 -18,-40.5 0,-16 8.5,-35.5 Q 972,925 982,906 q 10,-19 18.5,-37 8.5,-18 8.5,-33 0,-10 -7,-10 -5,0 -11,4 -6,4 -12,9 -7,6 -15,13 l -8,-9 q 6,-6 17.5,-15.5 11.5,-9.5 25,-19 13.5,-9.5 28,-16.5 14.5,-7 26.5,-7 22,0 33,9 11,9 11,24 0,15 -8,35 -8,20 -17,41 -9,21 -17,42.5 -8,21.5 -8,39.5 0,15 14,15 14,0 28.5,-10.5 14.5,-10.5 36.5,-33.5 13,-14 20,-29.5 7,-15.5 14,-44.5 z M 372,1964 q 109,0 205.5,-43.5 Q 674,1877 757,1796 q 83,-81 151,-197 68,-116 121,-260 -53,8 -104.5,16.5 -51.5,8.5 -100.5,17.5 0,75 -27.5,142.5 Q 769,1583 724,1634 q -45,51 -103,81 -58,30 -119,30 -30,0 -57,-8 -27,-8 -47.5,-23 -20.5,-15 -33,-37.5 Q 352,1654 352,1625 q 0,-61 35,-104 35,-43 95.5,-74 60.5,-31 141.5,-52 81,-21 174,-38 -7,-84 -69.5,-126 -62.5,-42 -174.5,-42 -68,0 -133,17 -65,17 -122.5,47 -57.5,30 -106,72 -48.5,42 -83.5,93 -35,51 -54.5,109 -19.5,58 -19.5,119 0,76 25.5,135 25.5,59 70.5,99.5 45,40.5 107,62 62,21.5 134,21.5 z m 153,-257 q 49,0 98,-26 49,-26 88,-70.5 39,-44.5 63.5,-104.5 24.5,-60 24.5,-128 -80,16 -148.5,35.5 -68.5,19.5 -119,47 -50.5,27.5 -79.5,65 -29,37.5 -29,88.5 0,46 29,69.5 29,23.5 73,23.5 z"></path></svg>
