<?xml version="1.0" encoding="UTF-8" standalone="no"?>
<svg xmlns="http://www.w3.org/2000/svg" width="4558" height="2057"><path id="path769" d="m 1129,1154 q 0,-56 -39,-91.5 -39,-35.5 -108,-35.5 -66,0 -130.5,16.5 -64.5,16.5 -128,41 -63.5,24.5 -128,53 -64.5,28.5 -131,53 -66.5,24.5 -137,41 Q 257,1248 182,1248 136,1248 101.5,1235.5 67,1223 44.5,1203 22,1183 11,1156.5 0,1130 0,1101 0,1062 15,1032 30,1002 53,982 76,962 104.5,951.5 133,941 160,941 q 21,0 37,7 16,7 16,20 0,12 -7,19.5 -7,7.5 -20,7.5 -9,0 -14,-4.5 -5,-4.5 -9.5,-10 -4.5,-5.5 -9.5,-10 -5,-4.5 -15,-4.5 -17,0 -38,8.5 -21,8.5 -39,26 -18,17.5 -30.5,43.5 -12.5,26 -12.5,60 0,26 11,49 11,23 32.5,40 21.5,17 53.5,27 32,10 74,10 72,0 141,-19.5 69,-19.5 135.5,-48.5 66.5,-29 132,-63.5 Q 663,1064 728,1035 793,1006 858.5,986.5 924,967 992,967 q 40,0 71,12.5 31,12.5 52.5,34.5 21.5,22 32.5,52 11,30 11,65 0,48 -17.5,99.5 -17.5,51.5 -46,103 -28.5,51.5 -66,101.5 -37.5,50 -77.5,94.5 -40,44.5 -79.5,82 -39.5,37.5 -73.5,64.5 45,11 73.5,35 28.5,24 28.5,62 0,28 -17.5,58 -17.5,30 -43,60 -25.5,30 -53,58 -27.5,28 -47.5,52 -47,56 -60,56 -9,0 -16.5,-5.5 -7.5,-5.5 -7.5,-16.5 0,-21 5,-57 5,-36 13.5,-78.5 8.5,-42.5 19,-89.5 10.5,-47 21.5,-91 4,-16 7,-28.5 3,-12.5 6,-23.5 3,-11 5.5,-21.5 2.5,-10.5 6.5,-23.5 -16,20 -41.5,39 -25.5,19 -52.5,19 -35,0 -58,-20.5 -23,-20.5 -23,-55.5 0,-36 16.5,-67 16.5,-31 41,-54.5 24.5,-23.5 53.5,-37 29,-13.5 54,-13.5 29,0 44,13 15,13 17,33 5,-15 18,-25 13,-10 39,-14 12,-2 21,-4.5 9,-2.5 15,-5.5 7,-4 12,-7 l 6,11 q -7,5 -14,11 -6,5 -13,13.5 -7,8.5 -13,19.5 -4,8 -8.5,18.5 -4.5,10.5 -10.5,29.5 -6,19 -15,49 -9,30 -21,77 31,-25 66.5,-59.5 35.5,-34.5 71,-75 35.5,-40.5 69,-86 33.5,-45.5 59,-92.5 25.5,-47 41,-94 15.5,-47 15.5,-90 z m -284,616 q 0,-28 -11,-47.5 -11,-19.5 -38,-28.5 -9,37 -18.5,78.5 -9.5,41.5 -18,80.5 -8.5,39 -13.5,72.5 -5,33.5 -5,52.5 19,-23 37.5,-49.5 18.5,-26.5 33.5,-53.5 15,-27 24,-54 9,-27 9,-51 z M 680,1649 q 17,0 39,-22 22,-22 36,-51 3,-7 7,-19 4,-12 7,-24.5 3,-12.5 5,-23.5 2,-11 2,-17 0,-18 -8.5,-30 -8.5,-12 -27.5,-12 -18,0 -34,14 -16,14 -27.5,36 -11.5,22 -18,47.5 -6.5,25.5 -6.5,47.5 0,54 26,54 z"></path></svg>
