<?xml version="1.0" encoding="UTF-8" standalone="no"?>
<svg xmlns="http://www.w3.org/2000/svg" width="4558" height="2057"><path id="path379" d="m 291,1871 q -3,12 -8.5,31.5 l -11,39 q 0,0 -9,36.5 -9,36.5 -3.5,25 0,13 10,13 7,0 15,-4.5 8,-4.5 16,-9.5 9,-6 17,-15 l 8,8 q -17,18 -33,31 -14,12 -29.5,21.5 -15.5,9.5 -27.5,9.5 -27,0 -40.5,-11.5 Q 181,2034 181,2015 q 0,-6 0.5,-11 0.5,-5 2.5,-14 -8,11 -19,22.5 -11,11.5 -24,21.5 -13,10 -28,16.5 -15,6.5 -32,6.5 -35,0 -58,-18 -23,-18 -23,-56 0,-36 16.5,-67 16.5,-31 41,-54.5 24.5,-23.5 53.5,-37 29,-13.5 54,-13.5 21,0 34,5.5 13,5.5 24,16.5 56,-217 131.5,-355.5 Q 430,1339 543,1288 q 21,-74 59.5,-143 38.5,-69 94,-122 55.5,-53 127,-84.5 Q 895,907 982,907 q 78,0 141.5,25.5 63.5,25.5 108.5,69 45,43.5 69.5,102.5 24.5,59 24.5,126 0,75 -29,138 -29,63 -77,108.5 -48,45.5 -109,70.5 -61,25 -125,25 -25,0 -53,-5 -22,64 -74,101.5 -52,37.5 -121,37.5 -40,0 -79,-13.5 -39,-13.5 -69.5,-44 Q 559,1618 540,1569 q -19,-49 -19,-121 0,-19 1,-38 1,-19 4,-38 -39,33 -72.5,83 -33.5,50 -62,113.5 Q 363,1632 338,1708.5 313,1785 291,1871 Z M 979,967 q -78,0 -144.5,24.5 -66.5,24.5 -119,66.5 -52.5,42 -90.5,99 -38,57 -60,122 57,-21 124,-21 34,0 69,8 11,-35 31.5,-64 20.5,-29 47.5,-50 27,-21 59,-33 32,-12 68,-12 32,0 60.5,9.5 28.5,9.5 50.5,27 22,17.5 34.5,41.5 12.5,24 12.5,52 0,32 -13,47 -13,15 -27,15 -11,0 -18,-7.5 -7,-7.5 -7,-18.5 0,-10 5.5,-16.5 5.5,-6.5 12,-12.5 6.5,-6 12,-13 5.5,-7 5.5,-19 0,-15 -9.5,-31 -9.5,-16 -26.5,-28.5 -17,-12.5 -41,-20.5 -24,-8 -53,-8 -33,0 -62,10.5 -29,10.5 -53,30 -24,19.5 -41.5,46.5 -17.5,27 -27.5,59 76,22 122,77.5 46,55.5 46,139.5 0,32 -8,64 11,2 23,3 12,1 24,1 58,0 111.5,-24 53.5,-24 94.5,-66.5 41,-42.5 66,-100.5 25,-58 25,-126 0,-63 -21.5,-113 -21.5,-50 -61,-85 -39.5,-35 -95.5,-54 -56,-19 -125,-19 z m -288,342 q -41,0 -77,12 -36,12 -68,35 -4,23 -6,45 -2,22 -2,45 0,69 19,116 19,47 48,76.5 29,29.5 65,42 36,12.5 71,12.5 58,0 102,-35.5 44,-35.5 61,-97.5 -70,-21 -114,-77 -44,-56 -44,-137 v -16 q 0,0 2,-16 -14,-2 -28.5,-3.5 Q 705,1309 691,1309 Z m 221,187 q 0,-37 -11,-66.5 -11,-29.5 -30.5,-51 Q 851,1357 825,1342 q -26,-15 -56,-23 -1,6 -1,12 v 12 q 0,40 10.5,72.5 10.5,32.5 29.5,57.5 19,25 44,42.5 25,17.5 55,27.5 2,-11 3.5,-22.5 1.5,-11.5 1.5,-24.5 z m -797,530 q 9,0 19.5,-7 10.5,-7 21,-18 10.5,-11 20.5,-24.5 10,-13.5 16,-27.5 3,-7 6.5,-18 3.5,-11 6.5,-22 3,-11 4.5,-21.5 1.5,-10.5 1.5,-16.5 0,-18 -7.5,-30 -7.5,-12 -28.5,-12 -18,0 -34,14 -16,14 -27.5,36 -11.5,22 -18,47.5 -6.5,25.5 -6.5,47.5 0,28 6,40 6,12 20,12 z m 330,-502 q 0,-6 1.5,-13 1.5,-7 5,-13.5 3.5,-6.5 9.5,-11 6,-4.5 16,-4.5 15,0 24,11 9,11 9,25 0,12 -7,27 -7,15 -18,29 -11,14 -24,23.5 -13,9.5 -24,9.5 -9,0 -9,-7 0,-2 2.5,-4 2.5,-2 4.5,-4 7,-5 17,-15 10,-10 12,-28 -10,0 -14.5,-8 -4.5,-8 -4.5,-17 z"></path></svg>
