<?xml version="1.0" encoding="UTF-8" standalone="no"?>
<svg xmlns="http://www.w3.org/2000/svg" width="4558" height="2057"><path id="path370" d="m 637,1871 q -4,12 -9.5,31.5 -5.5,19.5 -10.5,39 -5,19.5 -8.5,36.5 -3.5,17 -3.5,25 0,13 10,13 7,0 15,-4.5 8,-4.5 16,-9.5 9,-6 17,-15 l 8,8 q -17,18 -33,31 -14,12 -29.5,21.5 -15.5,9.5 -27.5,9.5 -27,0 -40.5,-11.5 Q 527,2034 527,2015 q 0,-6 0.5,-11 0.5,-5 2.5,-14 -8,11 -19,22.5 -11,11.5 -24,21.5 -13,10 -28,16.5 -15,6.5 -32,6.5 -35,0 -58,-18 -23,-18 -23,-56 0,-36 16.5,-67 16.5,-31 41,-54.5 24.5,-23.5 53.5,-37 29,-13.5 54,-13.5 21,0 34.5,6 13.5,6 24.5,17 6,-17 11.5,-35.5 Q 587,1780 593,1760 615,1688 641,1608.5 667,1529 700,1449 596,1419 495.5,1395 395,1371 293,1371 q -62,0 -111,11.5 -49,11.5 -83.5,34 -34.5,22.5 -53,55 Q 27,1504 27,1546 q 0,26 7,43.5 7,17.5 17,27.5 10,10 22,14 12,4 22,4 10,0 16.5,-4 6.5,-4 12,-9.5 5.5,-5.5 11,-9.5 5.5,-4 14.5,-4 26,0 26,25 0,14 -16,23 -16,9 -39,9 -18,0 -39,-7 -21,-7 -39,-23 -18,-16 -30,-41 -12,-25 -12,-60 0,-48 22,-91 22,-43 61.5,-75.5 39.5,-32.5 96,-52 Q 236,1296 305,1296 q 54,0 106,9 52,9 104,24 52,15 103,34 51,19 103,39 37,-80 84.5,-152.5 47.5,-72.5 110.5,-127 63,-54.5 142.5,-87 79.5,-32.5 180.5,-32.5 75,0 131,19 56,19 93.5,52 37.5,33 56.5,77.5 19,44.5 19,94.5 0,68 -27,122 -27,54 -74,92.5 -47,38.5 -110.5,59 Q 1264,1540 1190,1540 1076,1540 972.5,1518.5 869,1497 769,1469 724,1575 693,1680.5 662,1786 637,1871 Z m 614,-798 q -90,0 -161,28.5 -71,28.5 -127.5,77 -56.5,48.5 -99.5,113 -43,64.5 -76,136.5 95,37 194.5,65 99.5,28 207.5,28 69,0 127,-19 58,-19 100.5,-53.5 42.5,-34.5 66.5,-82.5 24,-48 24,-106 0,-42 -16,-76 -16,-34 -47.5,-59 -31.5,-25 -80,-38.5 Q 1315,1073 1251,1073 Z m -790,953 q 9,0 19.5,-7 10.5,-7 21,-18 10.5,-11 20.5,-24.5 10,-13.5 16,-27.5 3,-7 6.5,-18 3.5,-11 6.5,-22 3,-11 4.5,-21.5 1.5,-10.5 1.5,-16.5 0,-18 -7.5,-30 -7.5,-12 -28.5,-12 -18,0 -34,14 -16,14 -27.5,36 -11.5,22 -18,47.5 -6.5,25.5 -6.5,47.5 0,28 6,40 6,12 20,12 z"></path></svg>
