<?xml version="1.0" encoding="UTF-8" standalone="no"?>
<svg xmlns="http://www.w3.org/2000/svg" width="4558" height="2057"><path id="path677" d="m 92,1756 q 0,-16 11.5,-32.5 11.5,-16.5 29.5,-16.5 14,0 21,11 7,11 7,25 0,20 -13.5,33.5 -13.5,13.5 -27.5,13.5 -14,0 -21,-10 -7,-10 -7,-24 z m 99,0 q 0,-16 11.5,-32.5 11.5,-16.5 29.5,-16.5 14,0 21,11 7,11 7,25 0,20 -13.5,33.5 -13.5,13.5 -27.5,13.5 -14,0 -21,-10 -7,-10 -7,-24 z m -35,52 q 49,0 80,23.5 31,23.5 31,65.5 0,14 -2.5,27 -2.5,13 -7.5,26 67,0 119.5,-34.5 52.5,-34.5 88,-87 35.5,-52.5 54,-115.5 18.5,-63 18.5,-121 0,-50 -13,-88 -26,22 -50.5,40.5 -24.5,18.5 -50.5,29.5 -5,23 -17.5,45 -12.5,22 -31,39 -18.5,17 -42,27 -23.5,10 -49.5,10 -28,0 -55,-10 -27,-10 -48.5,-29.5 -21.5,-19.5 -35,-48.5 -13.5,-29 -13.5,-67 0,-40 18.5,-73.5 18.5,-33.5 49,-58 30.5,-24.5 71,-38 40.5,-13.5 85.5,-13.5 57,0 108,24 51,24 84,70 40,-34 83,-71.5 43,-37.5 92.5,-68.5 49.5,-31 106,-51 56.5,-20 123.5,-20 54,0 97.5,15.5 43.5,15.5 74,43.5 30.5,28 47.5,65.5 17,37.5 17,82.5 0,47 -17.5,96 -17.5,49 -51,89 -33.5,40 -82.5,65.5 -49,25.5 -113,25.5 -38,0 -72,-12 -34,-12 -60,-33.5 -26,-21.5 -41,-50 -15,-28.5 -15,-61.5 0,-34 12.5,-61.5 12.5,-27.5 33,-46.5 20.5,-19 45,-29.5 24.5,-10.5 48.5,-10.5 16,0 31.5,5.5 15.5,5.5 27,15 11.5,9.5 18.5,22 7,12.5 7,27.5 0,24 -9,38 -9,14 -19,14 -10,0 -17,-5.5 -7,-5.5 -7,-16.5 0,-7 4,-12 4,-5 8.5,-9 4.5,-4 8.5,-8.5 4,-4.5 4,-11.5 0,-17 -15.5,-30.5 Q 901,1433 875,1433 q -18,0 -36.5,8 -18.5,8 -32.5,22.5 -14,14.5 -23,34.5 -9,20 -9,44 0,58 41,92.5 41,34.5 116,34.5 54,0 96.5,-20.5 42.5,-20.5 71.5,-52.5 29,-32 44,-71.5 15,-39.5 15,-77.5 0,-45 -14.5,-80.5 -14.5,-35.5 -41.5,-61 -27,-25.5 -65,-39 -38,-13.5 -85,-13.5 -62,0 -116.5,20.5 Q 781,1294 733,1326 q -48,32 -90.5,70.5 -42.5,38.5 -82.5,75.5 14,25 21.5,54 7.5,29 7.5,64 0,65 -23.5,131.5 -23.5,66.5 -67.5,120 -44,53.5 -106,87.5 -62,34 -140,34 -10,21 -25.5,38.5 -15.5,17.5 -34.5,29.5 -19,12 -40.5,19 -21.5,7 -42.5,7 -46,0 -77.5,-21.5 Q 0,2014 0,1969 0,1937 12.5,1908 25,1879 46,1856.5 67,1834 95.5,1821 124,1808 156,1808 Z m 182,-355 q 34,0 59.5,22.5 25.5,22.5 27.5,64.5 23,-11 45,-26.5 22,-15.5 45,-34.5 -23,-51 -64.5,-80 -41.5,-29 -95.5,-29 -39,0 -75.5,12.5 -36.5,12.5 -64.5,35 -28,22.5 -44.5,52.5 -16.5,30 -16.5,65 0,32 11,54.5 11,22.5 29,37 18,14.5 41.5,21.5 23.5,7 47.5,7 42,0 75,-19 33,-19 46,-54 -26,9 -50,9 -40,0 -64.5,-19.5 Q 265,1552 265,1518 q 0,-30 20.5,-47.5 Q 306,1453 338,1453 Z m -217,417 q 0,-16 6.5,-26.5 6.5,-10.5 13.5,-16.5 -15,6 -26.5,21 -11.5,15 -19.5,37 -8,22 -12,49 -4,27 -4,56 0,23 8,36 8,13 23,13 21,0 39,-26.5 18,-26.5 29,-65.5 -26,-12 -41.5,-31.5 Q 121,1896 121,1870 Z m 228,-310 q 31,0 61,-15 0,-38 -22.5,-59.5 Q 365,1464 338,1464 q -24,0 -41,14.5 -17,14.5 -17,37.5 0,26 21,35 21,9 48,9 z m -201,305 q 0,38 35,62 6,-28 6,-59 0,-44 -33,-44 -2,4 -5,13 -3,9 -3,28 z"></path></svg>
