<?xml version="1.0" encoding="UTF-8" standalone="no"?>
<svg xmlns="http://www.w3.org/2000/svg" width="4558" height="2057"><path id="path457" d="m 869,943 q -21,109 -47.5,218.5 -26.5,109.5 -61,211 Q 726,1474 682,1563 q -44,89 -99,158 47,37 97,72 50,35 105,62.5 55,27.5 117,44 62,16.5 133,16.5 123,0 210.5,-44.5 87.5,-44.5 131.5,-122.5 -19,5 -37,7.5 -18,2.5 -36,2.5 -57,0 -98.5,-26 -41.5,-26 -64.5,-61 -23,24 -59,41.5 -36,17.5 -83,17.5 -44,0 -81,-9.5 -37,-9.5 -64,-29.5 -27,-20 -42,-51.5 -15,-31.5 -15,-75.5 0,-49 24,-96 24,-47 66.5,-84 42.5,-37 101,-59.5 58.5,-22.5 128.5,-22.5 74,0 133.5,23 59.5,23 101.5,62 42,39 64.5,91 22.5,52 22.5,111 0,17 -1.5,34.5 -1.5,17.5 -3.5,34.5 61,-18 129.5,-42.5 68.5,-24.5 139.5,-47.5 71,-23 141.5,-39 70.5,-16 135.5,-16 58,0 106,12.5 48,12.5 81.5,37 33.5,24.5 52,62 18.5,37.5 18.5,86.5 0,57 -29.5,118.5 -29.5,61.5 -82.5,111.5 -53,50 -127,82.5 -74,32.5 -163,32.5 -61,0 -108.5,-13 -47.5,-13 -80.5,-36.5 -33,-23.5 -50,-55 -17,-31.5 -17,-67.5 0,-31 14,-56 14,-25 33.5,-42.5 19.5,-17.5 39,-27 19.5,-9.5 31.5,-9.5 3,0 7,1 4,1 4,6 0,5 -4,6.5 -4,1.5 -8,2.5 -12,2 -26,10 -14,8 -26.5,21 -12.5,13 -21,31.5 -8.5,18.5 -8.5,42.5 0,27 17,48 17,21 47.5,35.5 30.5,14.5 72.5,22.5 42,8 91,8 82,0 151,-23 69,-23 118.5,-61 49.5,-38 77,-86.5 27.5,-48.5 27.5,-100.5 0,-88 -66.5,-133 -66.5,-45 -190.5,-45 -70,0 -140.5,23.5 -70.5,23.5 -139.5,56.5 -69,33 -135.5,67 -66.5,34 -128.5,55 -18,55 -49,103.5 -31,48.5 -76.5,85 -45.5,36.5 -105,58 -59.5,21.5 -133.5,21.5 -68,0 -132,-23.5 -64,-23.5 -124,-61 Q 736,1884 678.5,1837 621,1790 566,1742 505,1811 429.5,1850 354,1889 259,1889 199,1889 151.5,1872 104,1855 70,1826.5 36,1798 18,1761 0,1724 0,1684 0,1644 16.5,1611.5 33,1579 60.5,1557 88,1535 123,1523 q 35,-12 73,-12 42,0 82,12 40,12 78,32 38,20 75.5,47.5 37.5,27.5 75.5,57.5 54,-63 97,-145.5 43,-82.5 77,-176.5 34,-94 60,-195 26,-101 46,-200 h -22 l 9,-17 h 17 q 3,-13 7,-28 3,-13 7.5,-28.5 4.5,-15.5 9.5,-32.5 9,-30 25,-51 16,-21 34.5,-34 18.5,-13 37.5,-19 19,-6 35,-6 31,0 48,16 17,16 17,34 0,17 -10,31 -10,14 -31,14 -15,0 -23.5,-7.5 Q 939,807 939,796 q 0,-16 9.5,-24.5 9.5,-8.5 9.5,-17.5 0,-12 -9,-12 -22,0 -34.5,26 -12.5,26 -24.5,76 -3,11 -6,25 -3,14 -5,27 l -6,30 h 68 l -10,17 z m 308,654 q 0,26 -19,54 31,34 136,34 25,0 54.5,-5.5 29.5,-5.5 61.5,-13.5 8,-38 8,-76 0,-55 -22.5,-97.5 -22.5,-42.5 -62.5,-71.5 -40,-29 -96.5,-44 -56.5,-15 -123.5,-15 -59,0 -112,19.5 -53,19.5 -92.5,49.5 -39.5,30 -62.5,67.5 -23,37.5 -23,73.5 0,70 49.5,104.5 49.5,34.5 131.5,34.5 43,0 75.5,-16 32.5,-16 52.5,-38 -12,-25 -12,-49 0,-20 10,-31.5 10,-11.5 22,-11.5 25,0 25,32 z m -954,209 q 80,0 146,-33.5 66,-33.5 122,-93.5 -38,-31 -75.5,-59 -37.5,-28 -74.5,-48 -37,-20 -73.5,-32 -36.5,-12 -73.5,-12 -33,0 -61.5,10 -28.5,10 -49.5,28.5 -21,18.5 -33,44 -12,25.5 -12,56.5 0,40 15.5,66.5 15.5,26.5 41.5,42.5 26,16 59,23 33,7 69,7 z m 918,-201 q 0,18 7,32 12,-19 12,-37 0,-15 -8,-15 -4,0 -7.5,4.5 -3.5,4.5 -3.5,15.5 z"></path></svg>
