<?xml version="1.0" encoding="UTF-8" standalone="no"?>
<svg xmlns="http://www.w3.org/2000/svg" width="4558" height="2057"><path id="path727" d="m 11,1675 q 0,28 38,51.5 38,23.5 115,23.5 98,0 175.5,-21.5 Q 417,1707 489,1675 417,1643 339.5,1622.5 262,1602 164,1602 87,1602 49,1624.5 11,1647 11,1675 Z m 499,-9 q 23,-12 41,-23 18,-11 35,-25 -36,-25 -81.5,-52 -45.5,-27 -93.5,-48.5 -48,-21.5 -96,-35.5 -48,-14 -91,-14 -61,0 -84.5,17 -23.5,17 -23.5,52 0,6 2.5,13.5 2.5,7.5 7.5,13.5 12,-2 26.5,-3 14.5,-1 29.5,-1 46,0 88.5,8.5 42.5,8.5 83,23 40.5,14.5 79.5,33.5 39,19 77,41 z m 149,-118 q -18,-21 -32.5,-42 -14.5,-21 -23.5,-42 -5,-6 -20.5,-20.5 -15.5,-14.5 -37,-30 Q 524,1398 498,1386 q -26,-12 -51,-12 -26,0 -47,13 -21,13 -21,45 0,17 5,28 61,29 117.5,70 56.5,41 100.5,76 18,-15 31,-28.5 13,-13.5 26,-29.5 z m 12,-16 q 23,-32 32.5,-62.5 9.5,-30.5 9.5,-64.5 0,-18 -2.5,-36 -2.5,-18 -8,-32.5 -5.5,-14.5 -13.5,-23 -8,-8.5 -18,-8.5 -11,0 -18.5,8.5 -7.5,8.5 -13,23 -5.5,14.5 -8,32.5 -2.5,18 -2.5,36 0,34 9.5,64.5 9.5,30.5 32.5,62.5 z m 0,30 q -25,28 -57,54 18,16 32,27.5 14,11.5 25,22.5 11,-11 24.5,-22.5 Q 709,1632 728,1617 711,1603 697.5,1590 684,1577 671,1562 Z m 671,114 q 0,31 -27.5,62.5 -27.5,31.5 -81.5,44.5 5,8 9,21.5 4,13.5 4,30.5 0,44 -32.5,72.5 -32.5,28.5 -88.5,28.5 -38,0 -76,-10.5 -38,-10.5 -78,-29.5 5,10 6.5,23 1.5,13 1.5,20 0,38 -22,58.5 -22,20.5 -51,20.5 -28,0 -53.5,-12 -25.5,-12 -46,-28.5 -20.5,-16.5 -36,-33 Q 755,1928 748,1918 q 4,11 4.5,19 0.5,8 0.5,12 0,21 -6.5,40.5 -6.5,19.5 -18,34.5 -11.5,15 -26.5,24 -15,9 -31,9 -17,0 -31.5,-9 -14.5,-9 -26,-24 -11.5,-15 -18,-34.5 -6.5,-19.5 -6.5,-40.5 0,-4 0.5,-12 0.5,-8 4.5,-19 -8,10 -23,26.5 -15,16.5 -35.5,33 -20.5,16.5 -46,28.5 -25.5,12 -53.5,12 -29,0 -51,-20.5 -22,-20.5 -22,-58.5 0,-7 1.5,-20 1.5,-13 6.5,-23 -40,19 -78,29.5 -38,10.5 -76,10.5 -56,0 -88.5,-28.5 Q 96,1879 96,1835 q 0,-17 4,-30.5 4,-13.5 9,-21.5 Q 55,1770 27.5,1738 0,1706 0,1675 q 0,-31 27.5,-62 27.5,-31 81.5,-44 -5,-8 -9,-21.5 -4,-13.5 -4,-30.5 0,-44 32.5,-72.5 32.5,-28.5 88.5,-28.5 38,0 76,10.5 38,10.5 78,29.5 -5,-10 -6.5,-23 -1.5,-13 -1.5,-20 0,-38 22,-58.5 22,-20.5 51,-20.5 28,0 53.5,12 25.5,12 46,28.5 20.5,16.5 35.5,33 15,16.5 23,26.5 -4,-11 -4.5,-19 -0.5,-8 -0.5,-12 0,-21 6.5,-40.5 6.5,-19.5 18,-34.5 11.5,-15 26,-24 14.5,-9 31.5,-9 16,0 31,9 15,9 26.5,24 11.5,15 18,34.5 6.5,19.5 6.5,40.5 0,4 -0.5,12 -0.5,8 -4.5,19 7,-10 22.5,-26.5 15.5,-16.5 36,-33 20.5,-16.5 46,-28.5 25.5,-12 53.5,-12 29,0 51,20.5 22,20.5 22,58.5 0,7 -1.5,20 -1.5,13 -6.5,23 40,-19 78,-29.5 38,-10.5 76,-10.5 56,0 88.5,28.5 32.5,28.5 32.5,72.5 0,17 -4,30.5 -4,13.5 -9,21.5 54,13 81.5,44.5 27.5,31.5 27.5,62.5 z m -489,-1 q 72,32 149.5,53.5 77.5,21.5 175.5,21.5 77,0 115,-23 38,-23 38,-51 0,-28 -38,-51 -38,-23 -115,-23 -98,0 -175.5,20.5 Q 925,1643 853,1675 Z m -21,-9 q 38,-22 77,-41 39,-19 79.5,-33.5 40.5,-14.5 83,-23 42.5,-8.5 88.5,-8.5 15,0 29.5,1 14.5,1 26.5,3 5,-6 7.5,-13.5 2.5,-7.5 2.5,-13.5 0,-35 -23.5,-52 -23.5,-17 -84.5,-17 -43,0 -91,14 -48,14 -96,35.5 -48,21.5 -93.5,48.5 -45.5,27 -81.5,52 17,14 35,25 18,11 41,23 z M 683,1548 q 13,16 26,29.5 13,13.5 31,28.5 44,-35 100.5,-76 56.5,-41 117.5,-70 5,-11 5,-28 0,-32 -21,-45 -21,-13 -47,-13 -26,0 -51.5,12 -25.5,12 -47,27.5 -21.5,15.5 -37,30 -15.5,14.5 -20.5,20.5 -9,21 -23.5,42 -14.5,21 -32.5,42 z m -173,139 q -77,44 -156.5,74.5 Q 274,1792 182,1792 q -15,0 -29.5,-1 -14.5,-1 -26.5,-3 -5,6 -7.5,13.5 -2.5,7.5 -2.5,13.5 0,35 23.5,52 23.5,17 84.5,17 43,0 90.5,-13.5 47.5,-13.5 95,-35.5 47.5,-22 92.5,-48 45,-26 81,-52 -20,-14 -37,-25 -17,-11 -36,-23 z m 149,117 q -13,-16 -27,-29 -14,-13 -33,-27 -44,35 -99,75 -55,40 -116,69 -5,11 -5,28 0,32 21,45 21,13 47,13 25,0 51,-12 26,-12 47.5,-27.5 21.5,-15.5 37,-30 15.5,-14.5 20.5,-20.5 9,-21 23.5,-42 14.5,-21 32.5,-42 z m 12,16 q -23,32 -32.5,62.5 -9.5,30.5 -9.5,64.5 0,18 2.5,36 2.5,18 8,32.5 5.5,14.5 13,23 7.5,8.5 18.5,8.5 10,0 18,-8.5 8,-8.5 13.5,-23 5.5,-14.5 8,-32.5 2.5,-18 2.5,-36 0,-34 -9.5,-64.5 Q 694,1852 671,1820 Z m -10,-144 q -11,-10 -26,-22 -15,-12 -36,-27 -17,14 -34.5,25.5 -17.5,11.5 -37.5,22.5 20,11 37.5,23 17.5,12 34.5,26 21,-15 36,-26.5 15,-11.5 26,-21.5 z m 10,10 q -11,11 -25,22.5 -14,11.5 -32,27.5 32,26 57,54 13,-15 26.5,-28 13.5,-13 30.5,-27 -19,-15 -32.5,-26.5 Q 682,1697 671,1686 Z m 86,48 q 36,26 81,52.5 45,26.5 93,48 48,21.5 96,35.5 48,14 91,14 61,0 84.5,-17 23.5,-17 23.5,-52 0,-6 -2.5,-13.5 -2.5,-7.5 -7.5,-13.5 -12,2 -26.5,3 -14.5,1 -29.5,1 -92,0 -172,-30.5 -80,-30.5 -156,-74.5 -23,12 -40.5,22.5 Q 774,1720 757,1734 Z m -74,70 q 18,21 32.5,42 14.5,21 23.5,42 5,6 20.5,20.5 15.5,14.5 37,30 21.5,15.5 47,27.5 25.5,12 51.5,12 26,0 47,-13 21,-13 21,-45 0,-17 -5,-28 -61,-29 -116.5,-69.5 Q 786,1782 742,1747 q -18,15 -32,28 -14,13 -27,29 z m 131,-129 q -20,-11 -37,-22 -17,-11 -34,-25 -21,15 -36,26.5 -15,11.5 -26,21.5 11,10 26,21.5 15,11.5 36,26.5 17,-14 34,-26 17,-12 37,-23 z"></path></svg>
