<?xml version="1.0" encoding="UTF-8" standalone="no"?>
<svg xmlns="http://www.w3.org/2000/svg" width="4558" height="2057"><path id="path103" d="m 133,1878 q 6,-17 15,-48.5 9,-31.5 20,-69.5 11,-38 22,-80 11,-42 21,-80.5 10,-38.5 18,-69.5 8,-31 13,-48 3,-12 11,-23 8,-11 23,-20 -38,9 -68.5,27.5 -30.5,18.5 -52.5,42.5 -22,24 -34,49.5 -12,25.5 -12,47.5 0,33 9,49.5 9,16.5 26,27.5 l -8,9 q -13,-4 -30.5,-12 -17.5,-8 -33,-19.5 Q 57,1649 46,1633 q -11,-16 -11,-38 0,-32 23.5,-61 23.5,-29 62,-52.5 38.5,-23.5 86.5,-39 48,-15.5 96,-20.5 25,-3 45.5,-3.5 20.5,-0.5 49.5,-0.5 l -7,15 q -7,0 -14,1 -7,1 -13.5,5.5 -6.5,4.5 -13,14.5 -6.5,10 -12.5,27 -4,12 -12,41.5 -8,29.5 -18.5,67.5 -10.5,38 -21.5,80.5 -11,42.5 -21,81.5 -10,39 -18.5,70 -8.5,31 -13.5,45 -16,47 -35,78.5 -19,31.5 -38,51.5 -19,20 -36.5,30.5 Q 106,2038 93,2043 q -20,8 -46,11 -26,3 -47,3 l 9,-15 q 15,0 32.5,-7.5 Q 59,2027 74,2007 q 23,-32 36,-66 13,-34 23,-63 z"></path></svg>
