<?xml version="1.0" encoding="UTF-8" standalone="no"?>
<svg xmlns="http://www.w3.org/2000/svg" width="4558" height="2057"><path id="path730" d="m 880,1820 q 41,0 72,11.5 31,11.5 52,30 21,18.5 33,41.5 12,23 15,46 1,8 1.5,14.5 0.5,6.5 0.5,9.5 0,7 -7,7 -5,0 -8,-17 -4,-25 -13.5,-46 -9.5,-21 -27,-36 -17.5,-15 -43.5,-23.5 -26,-8.5 -64,-8.5 -45,0 -93,15.5 -48,15.5 -99,38.5 -51,23 -103.5,50 -52.5,27 -106,50 -53.5,23 -106.5,38.5 -53,15.5 -105,15.5 -60,0 -105.5,-23.5 Q 127,2010 94,1977 61,1944 39.5,1907.5 18,1871 8,1845 5,1838 2.5,1831 0,1824 0,1821 q 0,-8 8,-8 4,0 7,5.5 3,5.5 7,12.5 13,24 34,46 21,22 49.5,39 28.5,17 63.5,27 35,10 77,10 72,0 134.5,-10 62.5,-10 118.5,-24.5 56,-14.5 106.5,-32 50.5,-17.5 97,-32 46.5,-14.5 90,-24.5 43.5,-10 87.5,-10 z"></path></svg>
