<?xml version="1.0" encoding="UTF-8" standalone="no"?>
<svg xmlns="http://www.w3.org/2000/svg" width="4558" height="2057"><path id="path971" d="m 700,1025 q 8,0 16.5,14 8.5,14 8.5,26 0,17 -23,37 -28,25 -59.5,38 -31.5,13 -56.5,13 -4,0 -7.5,-2 -3.5,-2 -3.5,-7 0,-5 9,-9 22,-10 49.5,-34 27.5,-24 51.5,-65 5,-11 15,-11 z m -85,239 q 5,-22 11.5,-37 6.5,-15 15.5,-24 9,-9 21.5,-14 12.5,-5 29.5,-7 22,-3 36,-10 7,-4 12,-7 l 6,12 q -5,2 -9,6 -4,3 -9,8 -5,5 -10,11 -14,19 -24,42 -10,23 -21,65 -5,17 -9.5,46 -4.5,29 -9.5,62 l -10,66 q 0,0 -10,60 -16,83 -41.5,148.5 Q 568,1757 534,1809 q 64,28 133,56 69,28 139.5,50.5 70.5,22.5 141.5,37 71,14.5 141,14.5 96,0 167.5,-19.5 71.5,-19.5 119,-50.5 47.5,-31 71,-68 23.5,-37 23.5,-73 0,-28 -14,-58 -73,26 -145,54.5 -72,28.5 -141,52.5 -69,24 -134.5,39.5 Q 970,1860 911,1860 q -31,0 -64,-7 -33,-7 -60.5,-22 -27.5,-15 -45,-37.5 Q 724,1771 724,1740 q 0,-46 35,-85.5 35,-39.5 93,-68 58,-28.5 133,-44.5 75,-16 155,-16 58,0 110,10.5 52,10.5 95,29.5 43,19 76.5,45 33.5,26 54.5,56 89,-29 182.5,-50 93.5,-21 191.5,-21 59,0 106.5,14.5 47.5,14.5 80.5,39.5 33,25 51,59 18,34 18,73 0,59 -27,109.5 -27,50.5 -71.5,87 -44.5,36.5 -101.5,57.5 -57,21 -118,21 -46,0 -84.5,-10 -38.5,-10 -66,-27.5 -27.5,-17.5 -43,-40 -15.5,-22.5 -15.5,-48.5 0,-25 16,-48 16,-23 41.5,-40 25.5,-17 57,-27 31.5,-10 63.5,-10 51,0 74.5,20 23.5,20 23.5,51 0,16 -7.5,29.5 -7.5,13.5 -20.5,13.5 -8,0 -14.5,-5 -6.5,-5 -6.5,-14 0,-6 3.5,-10.5 3.5,-4.5 7.5,-8.5 4,-4 7.5,-8.5 3.5,-4.5 3.5,-10.5 0,-18 -14,-31.5 -14,-13.5 -53,-13.5 -27,0 -50,10 -23,10 -40.5,26 -17.5,16 -27.5,36.5 -10,20.5 -10,40.5 0,22 9.5,42.5 9.5,20.5 28.5,36.5 19,16 47.5,25.5 28.5,9.5 67.5,9.5 57,0 102,-20.5 45,-20.5 77,-54.5 32,-34 49,-78 17,-44 17,-92 0,-36 -11.5,-69 -11.5,-33 -37,-58 -25.5,-25 -66,-40 -40.5,-15 -98.5,-15 -81,0 -163.5,19.5 -82.5,19.5 -167.5,48.5 20,37 20,76 0,47 -24,97.5 -24,50.5 -75,92.5 -51,42 -129.5,69.5 -78.5,27.5 -187.5,27.5 -79,0 -155.5,-19 Q 859,2011 786,1981.5 713,1952 643.5,1915.5 574,1879 510,1844 441,1931 355.5,1969.5 270,2008 181,2008 143,2008 110.5,1998 78,1988 53,1969 28,1950 14,1921.5 0,1893 0,1857 0,1822 15.5,1793 31,1764 57,1743.5 83,1723 117.5,1711.5 152,1700 190,1700 q 54,0 120,21 66,21 142,53 30,-46 56.5,-104 26.5,-58 47.5,-130 17,-59 23,-104 6,-45 15,-86 -29,32 -63.5,53.5 -34.5,21.5 -61.5,21.5 -23,0 -41,-13.5 -18,-13.5 -18,-40.5 0,-16 8.5,-35.5 8.5,-19.5 18.5,-38.5 10,-19 18.5,-37 8.5,-18 8.5,-33 0,-10 -7,-10 -5,0 -11,4 -6,4 -12,9 -7,6 -15,13 l -8,-9 q 6,-6 17.5,-15.5 11.5,-9.5 25,-19 13.5,-9.5 28,-16.5 14.5,-7 26.5,-7 22,0 33,9 11,9 11,24 0,15 -8,35 -8,20 -17,41 -9,21 -17,42.5 -8,21.5 -8,39.5 0,15 15,15 14,0 28,-10.5 14,-10.5 36,-33.5 13,-14 20,-29.5 7,-15.5 14,-44.5 z m 358,558 q 46,0 100,-13.5 54,-13.5 113.5,-34.5 59.5,-21 124.5,-46.5 65,-25.5 134,-49.5 -18,-28 -48,-52.5 -30,-24.5 -70,-43 -40,-18.5 -88,-29 -48,-10.5 -102,-10.5 -74,0 -135,18.5 -61,18.5 -104.5,47 -43.5,28.5 -68,62 -24.5,33.5 -24.5,63.5 0,43 45,65.5 45,22.5 123,22.5 z m -790,131 q 58,0 123.5,-35.5 Q 372,1882 432,1802 362,1766 299.5,1742 237,1718 183,1718 q -29,0 -56.5,10 -27.5,10 -49,28 -21.5,18 -34.5,43.5 -13,25.5 -13,55.5 0,30 13.5,49.5 13.5,19.5 35,30 21.5,10.5 49,14.5 27.5,4 55.5,4 z"></path></svg>
