<?xml version="1.0" encoding="UTF-8" standalone="no"?>
<svg xmlns="http://www.w3.org/2000/svg" width="4558" height="2057"><path id="path19" d="m 245,1825 h 70 q 36,-38 70.5,-76 34.5,-38 63.5,-73 23,-29 43.5,-53 20.5,-24 35.5,-43 18,-21 32,-40 h 25 l -75,285 h 13 l -6,17 h -11 l -54,200 h 41 l -6,15 H 313 l 5,-15 h 39 l 54,-200 h -73 q -29,34 -58.5,65.5 -29.5,31.5 -57.5,60.5 -38,40 -69,64.5 -31,24.5 -64,24.5 -19,0 -33.5,-9 -14.5,-9 -25,-21.5 Q 20,2014 12.5,1999.5 5,1985 0,1973 l 7,-9 q 7,7 16,12 8,5 18,8 10,3 23,3 29,0 63,-13 34,-13 71,-42 49,-37 102,-90 h -66 z m 107,0 h 63 l 33,-114 z m 266,-317 q -15,0 -28.5,-4.5 -13.5,-4.5 -26,-10.5 -12.5,-6 -25.5,-10.5 -13,-4.5 -27,-4.5 -15,0 -23.5,3 -8.5,3 -13.5,7 -5,4 -8,7 -3,3 -6,3 -7,0 -7,-7 0,-4 5.5,-13.5 5.5,-9.5 15,-18.5 9.5,-9 23,-16 13.5,-7 29.5,-7 15,0 27,4 12,4 24.5,9.5 12.5,5.5 25.5,9.5 13,4 29,4 25,0 36,-8.5 11,-8.5 16,-8.5 6,0 6,7 0,5 -5.5,14.5 -5.5,9.5 -15,18.5 -9.5,9 -23,15.5 -13.5,6.5 -28.5,6.5 z"></path></svg>
