<?xml version="1.0" encoding="UTF-8" standalone="no"?>
<svg xmlns="http://www.w3.org/2000/svg" width="4558" height="2057"><path id="path738" d="m 1316,1829 q -34,0 -63.5,7.5 -29.5,7.5 -52.5,20.5 26,23 41,51.5 15,28.5 15,58.5 0,42 -23.5,65 -23.5,23 -54.5,23 -31,0 -53,-23 -22,-23 -22,-65 0,-61 53,-109 -24,-13 -53.5,-21 -29.5,-8 -62.5,-8 -66,0 -131,17 -65,17 -129.5,42 -64.5,25 -128.5,55 -64,30 -127.5,55 -63.5,25 -126,42 -62.5,17 -123.5,17 -60,0 -105,-21 -45,-21 -77,-51 Q 60,1955 39.5,1921 19,1887 8,1861 5,1854 2.5,1846.5 0,1839 0,1836 q 0,-7 8,-7 4,0 7.5,5.5 3.5,5.5 6.5,12.5 11,25 32,47.5 21,22.5 50,39 29,16.5 65,26.5 36,10 77,10 72,0 141,-12.5 69,-12.5 136,-32 67,-19.5 132.5,-41.5 65.5,-22 129,-41.5 63.5,-19.5 125.5,-32 62,-12.5 123,-12.5 42,0 79,11.5 37,11.5 66,31.5 29,-20 65.5,-31.5 36.5,-11.5 79.5,-11.5 61,0 123,12.5 62,12.5 125.5,32 63.5,19.5 129,41.5 65.5,22 132.5,41.5 67,19.5 136,32 69,12.5 141,12.5 41,0 77,-10 36,-10 65,-26.5 29,-16.5 50,-39 21,-22.5 32,-47.5 3,-7 6.5,-12.5 3.5,-5.5 7.5,-5.5 8,0 8,7 0,3 -2,10.5 -2,7.5 -5,14.5 -11,26 -31.5,60 -20.5,34 -53,64 -32.5,30 -77.5,51 -45,21 -105,21 -61,0 -123.5,-17 -62.5,-17 -126,-42 -63.5,-25 -127.5,-55 -64,-30 -128.5,-55 -64.5,-25 -130,-42 -65.5,-17 -130.5,-17 z m -138,211 q 22,0 40,-18.5 18,-18.5 18,-53.5 0,-26 -15.5,-51 -15.5,-25 -42.5,-45 -26,20 -40.5,45 -14.5,25 -14.5,51 0,35 16.5,53.5 16.5,18.5 38.5,18.5 z"></path></svg>
