<?xml version="1.0" encoding="UTF-8" standalone="no"?>
<svg xmlns="http://www.w3.org/2000/svg" width="4558" height="2057"><path id="path144" d="m 197,2036 q 30,0 65,-25.5 35,-25.5 65,-72.5 30,-47 50.5,-113.5 Q 398,1758 398,1676 q 0,-60 -16,-91 -16,-31 -58,-31 -34,0 -72.5,26 -38.5,26 -71.5,73.5 -33,47.5 -54.5,112.5 -21.5,65 -21.5,143 0,61 22.5,94 22.5,33 70.5,33 z m -32,21 q -33,0 -63,-9.5 -30,-9.5 -52.5,-29 Q 27,1999 13.5,1969.5 0,1940 0,1900 q 0,-52 15.5,-99.5 15.5,-47.5 41.5,-88 26,-40.5 60.5,-73 34.5,-32.5 73,-56 38.5,-23.5 78.5,-36 40,-12.5 77,-12.5 32,0 60,8 28,8 48.5,26 20.5,18 32,47 11.5,29 11.5,72 0,83 -31.5,151 -31.5,68 -80.5,116.5 -49,48.5 -107.5,75 Q 220,2057 165,2057 Z m 199,-554 q -38,0 -64,-21.5 -26,-21.5 -26,-53.5 0,-12 6.5,-20.5 6.5,-8.5 18.5,-8.5 8,0 13.5,5.5 5.5,5.5 5.5,13.5 0,11 -4.5,15 -4.5,4 -4.5,12 0,16 15,29.5 15,13.5 42,13.5 29,0 50.5,-15.5 21.5,-15.5 21.5,-40.5 0,-16 7.5,-24.5 7.5,-8.5 17.5,-8.5 8,0 13,5.5 5,5.5 5,13.5 0,11 -9,25.5 -9,14.5 -25,27.5 -16,13 -37,22.5 -21,9.5 -46,9.5 z"></path></svg>
