<?xml version="1.0" encoding="UTF-8" standalone="no"?>
<svg xmlns="http://www.w3.org/2000/svg" width="4558" height="2057"><path id="path564" d="m 1967,1086 q 55,0 96.5,16 41.5,16 70,42.5 28.5,26.5 43,61 14.5,34.5 14.5,70.5 0,42 -15,75.5 -15,33.5 -40.5,57.5 -25.5,24 -59.5,37 -34,13 -71,13 -46,0 -88.5,-11 -42.5,-11 -82,-29 -39.5,-18 -78,-42.5 -38.5,-24.5 -77.5,-51.5 -49,57 -90.5,128 -41.5,71 -75,147.5 -33.5,76.5 -58.5,154 -25,77.5 -40,149.5 19,-21 37.5,-39.5 18.5,-18.5 35.5,-32.5 17,-14 31.5,-22 14.5,-8 26.5,-8 19,0 28.5,11.5 9.5,11.5 9.5,25.5 0,15 -9,30 -9,15 -31,15 -14,0 -21.5,-8 -7.5,-8 -7.5,-20 0,-9 -5,-9 -5,0 -13,4.5 -8,4.5 -16.5,11.5 -8.5,7 -16.5,14 -8,7 -12,13 7,16 15,34 7,15 16,33.5 9,18.5 19,35.5 9,17 21.5,30.5 12.5,13.5 33.5,18.5 l 1,9 h -57 q -23,0 -43,-8 -20,-8 -28,-25 l -30,-64 q -11,33 -16,55 -5,22 -5,29 0,15 -14,15 -8,0 -21,-2 -13,-2 -26,-2 -14,0 -24,4 -10,4 -13,4 -4,0 -4,-4 0,-3 6,-9 6,-6 12,-18 12,-21 23,-58.5 11,-37.5 22,-82.5 20,-76 46.5,-157.5 26.5,-81.5 60,-161 33.5,-79.5 75,-153.5 41.5,-74 91.5,-135 -47,-33 -97.5,-64.5 -50.5,-31.5 -106,-56 Q 1354,1133 1291,1118 q -63,-15 -135,-15 -123,0 -210.5,38.5 Q 858,1180 813,1246 q 37,-6 74,-6 30,0 56,7.5 26,7.5 47,20 21,12.5 36.5,28.5 15.5,16 26.5,34 26,-25 66,-43 40,-18 94,-18 82,0 132,41 50,41 50,124 0,47 -23,93.5 -23,46.5 -65,83.5 -42,37 -100,60.5 -58,23.5 -128,23.5 -70,0 -129.5,-23 -59.5,-23 -103,-64.5 Q 803,1566 778,1508.5 753,1451 753,1382 q 0,-14 1.5,-28 1.5,-14 3.5,-28 -56,8 -117,19 -61,11 -124.5,21 -63.5,10 -129,17 -65.5,7 -129.5,7 -59,0 -106.5,-12 Q 104,1366 70,1342 36,1318 18,1282 0,1246 0,1199 q 0,-54 28,-107 28,-53 80,-95 52,-42 126,-68.5 74,-26.5 165,-26.5 52,0 94,13.5 42,13.5 71.5,35 29.5,21.5 45.5,49.5 16,28 16,57 0,37 -14,65 -14,28 -33,47 -19,19 -39,28.5 -20,9.5 -32,9.5 -3,0 -7,-1 -4,-1 -4,-6 0,-5 4,-6.5 4,-1.5 8,-2.5 12,-2 26,-10 14,-8 26.5,-21 12.5,-13 21,-31.5 8.5,-18.5 8.5,-42.5 0,-28 -17,-49 -17,-21 -47.5,-35.5 Q 496,987 454,979.5 412,972 363,972 q -69,0 -131,17 -62,17 -109,47.5 -47,30.5 -74.5,74.5 -27.5,44 -27.5,98 0,77 62,120 62,43 185,43 72,0 138.5,-14 66.5,-14 129.5,-33 63,-19 122.5,-39 59.5,-20 116.5,-33 18,-49 49,-92.5 31,-43.5 76.5,-76.5 45.5,-33 105,-52 59.5,-19 133.5,-19 69,0 133,22 64,22 124.5,57 60.5,35 118.5,78.5 58,43.5 114,87.5 69,-78 152,-125 83,-47 186,-47 z m -953,316 q 0,-23 21,-52 -16,-18 -49.5,-27.5 -33.5,-9.5 -88.5,-9.5 -26,0 -56.5,2.5 -30.5,2.5 -62.5,7.5 -3,14 -5,29 -2,15 -2,30 0,65 22.5,113 22.5,48 63.5,79.5 41,31.5 97,47 56,15.5 124,15.5 59,0 111,-18.5 52,-18.5 90.5,-49 38.5,-30.5 60.5,-69.5 22,-39 22,-79 0,-68 -40,-101.5 -40,-33.5 -113,-33.5 -50,0 -88,17.5 -38,17.5 -61,40.5 6,12 8.5,24 2.5,12 2.5,23 0,20 -10,31.5 -10,11.5 -22,11.5 -10,0 -17.5,-7.5 -7.5,-7.5 -7.5,-24.5 z m 954,-239 q -77,0 -145.5,39.5 -68.5,39.5 -128.5,105.5 37,28 74,52 37,24 73.5,42 36.5,18 72.5,28.5 36,10.5 73,10.5 37,0 67.5,-11.5 30.5,-11.5 52.5,-31.5 22,-20 34,-48 12,-28 12,-60 0,-32 -13.5,-56 -13.5,-24 -38,-39.5 -24.5,-15.5 -58.5,-23.5 -34,-8 -75,-8 z m -918,231 q 0,-16 -6,-30 -13,20 -13,35 0,15 8,15 4,0 7.5,-5 3.5,-5 3.5,-15 z"></path></svg>
