<?xml version="1.0" encoding="UTF-8" standalone="no"?>
<svg xmlns="http://www.w3.org/2000/svg" width="4558" height="2057"><path id="path428" d="m 236,1857 q 0,19 -8,35 -8,16 -21,28 -13,12 -30,18.5 -17,6.5 -36,6.5 -12,0 -19.5,-5.5 -7.5,-5.5 -7.5,-16.5 0,-17 16.5,-36 16.5,-19 53.5,-40 v -5 q 0,-14 -11,-14 -14,0 -29,13 -15,13 -27,33.5 -12,20.5 -20,45 -8,24.5 -8,47.5 0,34 13.5,47 13.5,13 31.5,13 14,0 27,-6 13,-6 23,-14 11,-9 22,-20 l 8,8 q -15,18 -33,31 -16,12 -37,21.5 -21,9.5 -46,9.5 -17,0 -34.5,-4.5 Q 46,2048 32,2038.5 18,2029 9,2014.5 0,2000 0,1979 q 0,-36 17,-66.5 17,-30.5 42,-53 25,-22.5 54.5,-35 29.5,-12.5 53.5,-12.5 17,0 31,3.5 14,3.5 23,11.5 l 85,-46 41,-137 q 7,-23 22.5,-40.5 15.5,-17.5 36,-29.5 20.5,-12 44,-18.5 23.5,-6.5 46.5,-6.5 31,0 54.5,17 23.5,17 23.5,44 0,20 -15.5,39 -15.5,19 -40.5,37 -25,18 -57.5,35 -32.5,17 -66.5,35 l -15,50 q 0,0 -10,32 l -6,21 q 9,-10 22,-18.5 13,-8.5 27,-15.5 14,-7 27.5,-11 13.5,-4 24.5,-4 27,0 50,18.5 23,18.5 23,59.5 0,31 -12,61.5 -12,30.5 -32,54.5 -20,24 -47,38.5 -27,14.5 -57,14.5 -36,0 -56,-16 -20,-16 -27,-33 -17,18 -31.5,27.5 -14.5,9.5 -27.5,14.5 -13,5 -23,6 -10,1 -17,1 v -7 q 12,-4 21.5,-20.5 9.5,-16.5 18.5,-41.5 9,-25 17.5,-57.5 8.5,-32.5 19.5,-70.5 4,-15 5,-19.5 1,-4.5 2,-7.5 1,-3 2.5,-8.5 1.5,-5.5 6.5,-21.5 -22,11 -40.5,21 -18.5,10 -28.5,15 5,8 5,18 z m 191,-18 q -6,0 -16.5,4.5 -10.5,4.5 -22,13.5 -11.5,9 -22.5,22.5 -11,13.5 -17,31.5 -3,7 -6.5,18.5 -3.5,11.5 -7,23.5 -3.5,12 -6,23 -2.5,11 -2.5,16 0,24 14,32.5 14,8.5 27,8.5 16,0 30.5,-15.5 14.5,-15.5 26,-39 11.5,-23.5 18,-50 6.5,-26.5 6.5,-49.5 0,-40 -22,-40 z m 18,-230 q -8,13 -17.5,44.5 -9.5,31.5 -23.5,73.5 55,-35 89.5,-65.5 34.5,-30.5 34.5,-68.5 0,-14 -8.5,-21.5 -8.5,-7.5 -19.5,-7.5 -17,0 -29.5,11 -12.5,11 -25.5,34 z m -298,314 q 6,0 17,-16 11,-16 19,-42 -26,17 -33.5,29.5 -7.5,12.5 -7.5,23.5 0,5 5,5 z"></path></svg>
