<?xml version="1.0" encoding="UTF-8" standalone="no"?>
<svg xmlns="http://www.w3.org/2000/svg" width="4558" height="2057"><path id="path593" d="m 15,1909 q 23,-97 53,-197 30,-100 69.5,-194.5 39.5,-94.5 89,-177.5 49.5,-83 112,-144.5 Q 401,1134 478,1098 q 77,-36 171,-36 72,0 131,22 59,22 101,63 8,-1 16.5,-1 H 914 q 75,0 137,18 62,18 106.5,50.5 44.5,32.5 69.5,77.5 25,45 25,99 0,45 -16,80 -16,35 -41,59.5 -25,24.5 -56,37 -31,12.5 -61,12.5 -35,0 -48.5,-8 -13.5,-8 -13.5,-21 0,-12 8,-19 8,-7 18,-7 10,0 16,4.5 6,4.5 10.5,10.5 4.5,6 8.5,10.5 4,4.5 10,4.5 24,0 49.5,-10.5 25.5,-10.5 46.5,-31 21,-20.5 34.5,-51 13.5,-30.5 13.5,-71.5 0,-48 -23,-89 -23,-41 -63.5,-70.5 -40.5,-29.5 -95,-46 Q 995,1169 931,1169 q -8,0 -15,0.5 -7,0.5 -15,0.5 29,37 45.5,84 16.5,47 16.5,104 0,68 -18,129.5 -18,61.5 -54,108 -36,46.5 -88.5,74 Q 750,1697 681,1697 q -40,0 -78.5,-11.5 -38.5,-11.5 -69,-35 -30.5,-23.5 -49.5,-59 -19,-35.5 -19,-82.5 0,-72 31.5,-132 31.5,-60 83,-106 51.5,-46 118,-76.5 Q 764,1164 835,1153 q -66,-36 -166,-36 -83,0 -152,35.5 Q 448,1188 391.5,1248 335,1308 290,1387.5 245,1467 209.5,1555 174,1643 146.5,1734.5 119,1826 98,1910 q -7,27 -10,48 -3,21 -3,33 0,15 5.5,20.5 5.5,5.5 13.5,5.5 9,0 18,-4.5 9,-4.5 17,-10.5 9,-6 17,-15 l 8,8 q -16,18 -34,31 -15,12 -33,21.5 -18,9.5 -35,9.5 -27,0 -44.5,-17.5 Q 0,2022 0,1996 q 0,-17 4,-39 4,-22 11,-48 z m 927,-551 q 0,-63 -19.5,-108.5 Q 903,1204 867,1174 800,1184 739.5,1213.5 679,1243 633,1287 q -46,44 -73,101.5 -27,57.5 -27,123.5 0,80 41.5,121.5 41.5,41.5 108.5,41.5 63,0 111,-25.5 48,-25.5 81,-69 33,-43.5 50,-101 17,-57.5 17,-121.5 z"></path></svg>
