<?xml version="1.0" encoding="UTF-8" standalone="no"?>
<svg xmlns="http://www.w3.org/2000/svg" width="4558" height="2057"><path id="path704" d="m 213,1772 q -15,0 -28.5,-4.5 -13.5,-4.5 -26,-10.5 -12.5,-6 -25.5,-10.5 -13,-4.5 -27,-4.5 -15,0 -23.5,3 -8.5,3 -13.5,7 -5,4 -8,7 -3,3 -6,3 -7,0 -7,-7 0,-4 5.5,-13.5 5.5,-9.5 15,-18.5 9.5,-9 23,-16 13.5,-7 29.5,-7 15,0 27,4 12,4 24.5,9.5 12.5,5.5 25.5,9.5 13,4 29,4 25,0 36,-8.5 11,-8.5 16,-8.5 6,0 6,7 0,5 -5.5,14.5 -5.5,9.5 -15,18.5 -9.5,9 -23,15.5 -13.5,6.5 -28.5,6.5 z m -58,52 q -17,0 -25.5,6.5 -8.5,6.5 -8.5,16.5 0,9 2.5,12.5 2.5,3.5 2.5,16.5 0,13 -9.5,24 -9.5,11 -26.5,11 -17,0 -28.5,-11.5 Q 50,1888 50,1871 q 0,-13 9,-24.5 9,-11.5 23.5,-20.5 14.5,-9 33.5,-14.5 19,-5.5 39,-5.5 49,0 80.5,23.5 31.5,23.5 31.5,66.5 0,35 -14,64 -14,29 -36.5,51 -22.5,22 -51,34 -28.5,12 -56.5,12 -48,0 -78.5,-21.5 Q 0,2014 0,1968 0,1943 10.5,1920.5 21,1898 36,1875 q 2,17 10.5,26.5 8.5,9.5 17.5,14.5 11,6 24,8 -4,10 -7,21 -3,10 -5,23.5 -2,13.5 -2,29.5 0,20 9.5,30.5 9.5,10.5 26.5,10.5 15,0 29,-15.5 14,-15.5 25,-40 11,-24.5 18,-55.5 7,-31 7,-63 0,-41 -34,-41 z"></path></svg>
