<?xml version="1.0" encoding="UTF-8" standalone="no"?>
<svg xmlns="http://www.w3.org/2000/svg" width="4558" height="2057"><path id="path539" d="m 1235,1774 q -51,0 -100,-9.5 -49,-9.5 -97.5,-26 -48.5,-16.5 -96.5,-38 -48,-21.5 -96,-44.5 -12,54 -33,101 -30,69 -76,124.5 -46,55.5 -104.5,94.5 -58.5,39 -129,60 -70.5,21 -150.5,21 -71,0 -135,-21.5 Q 153,2014 105,1975 57,1936 28.5,1882.5 0,1829 0,1764 q 0,-67 27,-120 27,-53 74.5,-90 47.5,-37 111,-56 63.5,-19 137.5,-19 109,0 208,25 99,25 194,59 16,-66 28,-135 12,-69 21.5,-131.5 9.5,-62.5 17.5,-113.5 8,-51 15,-81 5,-22 14,-34.5 9,-12.5 24,-21.5 h -7.5 q 0,0 -10.5,-1 -9,0 -17,-2 -4,-1 -7,-2 l 8,-12 8,2 q 5,1 21,1 17,0 43,-4.5 26,-4.5 58,-18.5 l 5,9 q -8,6 -15,13 -6,6 -13.5,15.5 -7.5,9.5 -13.5,20.5 -13,23 -19,43.5 -6,20.5 -12,45.5 -11,43 -15,95.5 -4,52.5 -7,110.5 -3,58 -7,119 -4,61 -14,121 48,18 96,34 48,16 95.5,28.5 47.5,12.5 95.5,20 48,7.5 97,7.5 59,0 109,-10.5 50,-10.5 86.5,-31.5 36.5,-21 57,-52.5 20.5,-31.5 20.5,-73.5 0,-26 -7,-43 -7,-17 -17.5,-27.5 -10.5,-10.5 -22.5,-14.5 -12,-4 -22,-4 -10,0 -16.5,4 -6.5,4 -11.5,9.5 -5,5.5 -11,9.5 -6,4 -15,4 -11,0 -18.5,-7 -7.5,-7 -7.5,-18 0,-15 16,-24 16,-9 39,-9 19,0 38.5,7.5 19.5,7.5 35.5,22 16,14.5 26.5,36.5 10.5,22 10.5,52 0,48 -20.5,93 -20.5,45 -58.5,80.5 -38,35.5 -93,57 -55,21.5 -124,21.5 z m -904,216 q 137,0 229,-72.5 92,-72.5 146,-204.5 21,-50 35,-107 -46,-21 -93,-40.5 Q 601,1546 552.5,1531 504,1516 453.5,1507.5 403,1499 351,1499 q -69,0 -127,17.5 -58,17.5 -101,49.5 -43,32 -67,79 -24,47 -24,105 0,56 25,100.5 25,44.5 66.5,75.5 41.5,31 95.5,47.5 54,16.5 112,16.5 z M 904,938 q 0,-10 5,-21.5 5,-11.5 13,-20.5 8,-9 17.5,-15 9.5,-6 18.5,-6 13,0 22,8.5 9,8.5 9,22.5 0,11 -4.5,22.5 Q 980,940 973,950 q -7,10 -16.5,16 -9.5,6 -18.5,6 -13,0 -23.5,-9 Q 904,954 904,938 Z"></path></svg>
