<?xml version="1.0" encoding="UTF-8" standalone="no"?>
<svg xmlns="http://www.w3.org/2000/svg" width="4558" height="2057"><path id="path917" d="m 30,2057 q -9,0 -17,-3 -8,-3 -8,-11 0,-10 7.5,-31 7.5,-21 17,-46.5 9.5,-25.5 17,-52.5 7.5,-27 7.5,-50 0,-9 -10,-9 -4,0 -10,3.5 -6,3.5 -12,8.5 -7,5 -15,12 l -7,-9 q 6,-5 17.5,-14.5 11.5,-9.5 25,-19 13.5,-9.5 28,-16.5 14.5,-7 26.5,-7 21,0 32,9 11,9 11,23 0,14 -4.5,37.5 -4.5,23.5 -11,48.5 -6.5,25 -13.5,48 -7,23 -11,36 15,-6 33.5,-18 18.5,-12 34.5,-27.5 16,-15.5 26.5,-32.5 10.5,-17 10.5,-33 0,-12 -3,-18 -3,-6 -6,-11.5 -3,-5.5 -6,-11.5 -3,-6 -3,-17 0,-13 12.5,-23 12.5,-10 26.5,-10 18,0 29,11.5 11,11.5 11,31.5 0,22 -12,45.5 -12,23.5 -32,45.5 -20,22 -45.5,42.5 -25.5,20.5 -51.5,35.5 -26,15 -51,24 -25,9 -44,9 z"></path></svg>
