<?xml version="1.0" encoding="UTF-8" standalone="no"?>
<svg xmlns="http://www.w3.org/2000/svg" width="4558" height="2057"><path id="path376" d="m 222,1833 q 23,-97 53,-191.5 30,-94.5 68,-180.5 38,-86 86.5,-159 48.5,-73 109,-126.5 Q 599,1122 673,1092 q 74,-30 165,-30 72,0 131,22 59,22 101,63 8,-1 16.5,-1 h 16.5 q 75,0 137,18 62,18 106.5,50.5 44.5,32.5 69.5,77.5 25,45 25,99 0,45 -16,80 -16,35 -41,59.5 -25,24.5 -56,37 -31,12.5 -61,12.5 -35,0 -48.5,-8 -13.5,-8 -13.5,-21 0,-12 8,-19 8,-7 18,-7 10,0 16,4.5 6,4.5 10.5,10.5 4.5,6 8.5,10.5 4,4.5 10,4.5 24,0 49.5,-10.5 25.5,-10.5 46.5,-31 21,-20.5 34.5,-51 13.5,-30.5 13.5,-71.5 0,-48 -23,-89 -23,-41 -63.5,-70.5 -40.5,-29.5 -95,-46 Q 1184,1169 1120,1169 q -8,0 -15,0.5 -7,0.5 -15,0.5 29,37 45.5,84 16.5,47 16.5,104 0,68 -18,129.5 -18,61.5 -54,108 -36,46.5 -88.5,74 Q 939,1697 870,1697 q -40,0 -78.5,-11.5 -38.5,-11.5 -69,-35 -30.5,-23.5 -49.5,-59 -19,-35.5 -19,-82.5 0,-72 31.5,-132 31.5,-60 83,-106 51.5,-46 118,-76.5 66.5,-30.5 137.5,-41.5 -66,-36 -166,-36 -82,0 -149.5,32.5 -67.5,32.5 -123,88.5 -55.5,56 -99.5,130.5 -44,74.5 -80,158.5 -36,84 -64,172.5 -28,88.5 -51,171.5 -3,12 -8.5,31.5 l -11,39 q 0,0 -9,36.5 -9,36.5 -3.5,25 0,13 10,13 7,0 15,-4.5 8,-4.5 16,-9.5 9,-6 17,-15 l 8,8 q -17,18 -33,31 -14,12 -29.5,21.5 -15.5,9.5 -27.5,9.5 -27,0 -40.5,-11.5 Q 181,2034 181,2015 q 0,-6 0.5,-11 0.5,-5 2.5,-14 -8,11 -19,22.5 -11,11.5 -24,21.5 -13,10 -28,16.5 -15,6.5 -32,6.5 -35,0 -58,-18 -23,-18 -23,-56 0,-36 16.5,-67 16.5,-31 41,-54.5 24.5,-23.5 53.5,-37 29,-13.5 54,-13.5 20,0 33,5.5 13,5.5 24,16.5 z m 909,-475 q 0,-63 -19.5,-108.5 Q 1092,1204 1056,1174 989,1184 928.5,1213.5 868,1243 822,1287 q -46,44 -73,101.5 -27,57.5 -27,123.5 0,80 41.5,121.5 41.5,41.5 108.5,41.5 63,0 111,-25.5 48,-25.5 81,-69 33,-43.5 50,-101 17,-57.5 17,-121.5 z M 115,2026 q 9,0 19.5,-7 10.5,-7 21,-18 10.5,-11 20.5,-24.5 10,-13.5 16,-27.5 3,-7 6.5,-18 3.5,-11 6.5,-22 3,-11 4.5,-21.5 1.5,-10.5 1.5,-16.5 0,-18 -7.5,-30 -7.5,-12 -28.5,-12 -18,0 -34,14 -16,14 -27.5,36 -11.5,22 -18,47.5 -6.5,25.5 -6.5,47.5 0,28 6,40 6,12 20,12 z"></path></svg>
