<?xml version="1.0" encoding="UTF-8" standalone="no"?>
<svg xmlns="http://www.w3.org/2000/svg" width="4558" height="2057"><path id="path562" d="m 0,1842 q 0,-72 27.5,-127.5 27.5,-55.5 76.5,-97 49,-41.5 115.5,-71.5 66.5,-30 144.5,-52.5 78,-22.5 164,-38 86,-15.5 173,-29.5 64,-153 144.5,-287 80.5,-134 175,-233 94.5,-99 201.5,-156 107,-57 226,-57 101,0 171.5,28.5 70.5,28.5 115,79 44.5,50.5 64.5,118.5 20,68 20,146 0,73 -20,141.5 -20,68.5 -56.5,128.5 -36.5,60 -87,110 -50.5,50 -111,86 -60.5,36 -129.5,56 -69,20 -141,20 -61,0 -110,-15 -49,-15 -84.5,-42 -35.5,-27 -57,-64.5 Q 1001,1448 995,1404 q -53,9 -107,17.5 -54,8.5 -109,17.5 -38,88 -68.5,178 -30.5,90 -53.5,182 19,-21 37.5,-39.5 18.5,-18.5 35.5,-32.5 17,-14 31.5,-22 14.5,-8 26.5,-8 19,0 28.5,11.5 9.5,11.5 9.5,25.5 0,15 -9,30 -9,15 -31,15 -14,0 -21.5,-8 -7.5,-8 -7.5,-20 0,-9 -5,-9 -5,0 -13,4.5 -8,4.5 -16.5,11.5 -8.5,7 -16.5,14 -8,7 -12,13 7,16 15,34 7,15 16,33.5 9,18.5 19,35.5 9,17 21.5,30.5 12.5,13.5 33.5,18.5 l 1,9 h -57 q -23,0 -43,-8 -20,-8 -28,-25 l -30,-64 q -11,33 -16,55 -5,22 -5,29 0,15 -14,15 -8,0 -21,-2 -13,-2 -26,-2 -14,0 -24,4 -10,4 -13,4 -4,0 -4,-4 0,-3 6,-9 6,-6 12,-18 12,-21 20,-50 8,-29 20,-74 23,-88 51.5,-174 28.5,-86 61.5,-169 -117,20 -225.5,48.5 Q 356,1531 273,1577 190,1623 140,1692.5 90,1762 90,1864 q 0,78 47,120.5 47,42.5 124,42.5 42,0 80.5,-17 38.5,-17 68.5,-45 30,-28 48,-64.5 18,-36.5 18,-76.5 0,-33 -8.5,-57 -8.5,-24 -23,-39.5 -14.5,-15.5 -32.5,-23 -18,-7.5 -36,-7.5 -11,0 -18,5 -7,5 -12.5,11 -5.5,6 -11,11 -5.5,5 -11.5,5 -26,0 -26,-25 0,-12 16,-22 16,-10 43,-10 27,0 52.5,9 25.5,9 45.5,28 20,19 32,47 12,28 12,66 0,44 -19.5,86.5 -19.5,42.5 -54,75.5 -34.5,33 -80.5,53 -46,20 -100,20 -45,0 -89,-11.5 Q 111,2034 76.5,2008 42,1982 21,1941.5 0,1901 0,1842 Z M 1445,773 q -96,0 -188,50 -92,50 -176,137 -84,87 -157.5,203.5 Q 850,1280 791,1413 q 52,-8 103,-16 51,-8 99,-16 0,-77 28.5,-145.5 28.5,-68.5 75,-120 46.5,-51.5 105.5,-81.5 59,-30 120,-30 65,0 104,31.5 39,31.5 39,83.5 0,65 -35,111 -35,46 -95,78.5 -60,32.5 -141,54 -81,21.5 -173,37.5 6,39 25.5,73.5 19.5,34.5 52,59.5 32.5,25 76.5,39.5 44,14.5 98,14.5 101,0 191,-42 90,-42 157.5,-112.5 67.5,-70.5 106.5,-162 39,-91.5 39,-190.5 0,-76 -23,-133.5 -23,-57.5 -65.5,-96 -42.5,-38.5 -102,-58 Q 1517,773 1445,773 Z m -426,603 q 80,-15 148.5,-35 68.5,-20 119,-48.5 50.5,-28.5 79,-67.5 28.5,-39 28.5,-92 0,-46 -27.5,-69 -27.5,-23 -74.5,-23 -49,0 -98,26 -49,26 -88,71.5 -39,45.5 -63,106.5 -24,61 -24,131 z"></path></svg>
