<?xml version="1.0" encoding="UTF-8" standalone="no"?>
<svg xmlns="http://www.w3.org/2000/svg" width="4558" height="2057"><path id="path435" d="m 304,1794 q -22,10 -42.5,21 -20.5,11 -31.5,17 5,10 5,19 0,38 -28,63 -28,25 -66,25 -12,0 -19.5,-5.5 -7.5,-5.5 -7.5,-16.5 0,-17 16.5,-36 16.5,-19 53.5,-40 v -5 q 0,-14 -11,-14 -14,0 -29,13 -15,13 -27,33.5 -12,20.5 -20,45 -8,24.5 -8,47.5 0,34 13.5,47 13.5,13 31.5,13 14,0 27,-6 13,-6 23,-14 11,-9 22,-20 l 8,8 q -15,18 -33,31 -16,12 -37,21.5 -21,9.5 -46,9.5 -17,0 -34.5,-4.5 Q 46,2042 32,2032.5 18,2023 9,2008.5 0,1994 0,1973 q 0,-36 17,-66.5 17,-30.5 42,-53 25,-22.5 54.5,-35 29.5,-12.5 53.5,-12.5 16,0 30,3.5 14,3.5 23,11.5 l 88,-46 41,-137 q 7,-23 22.5,-40.5 15.5,-17.5 36,-29.5 20.5,-12 44,-18.5 23.5,-6.5 46.5,-6.5 31,0 53.5,17 22.5,17 22.5,44 0,20 -15,39 -15,19 -40,37 -25,18 -57,35 -32,17 -66,35 -10,30 -18,58 l -14,49 q -7,26 -14,47 19,-21 37.5,-39.5 18.5,-18.5 35.5,-32.5 17,-14 31.5,-22 14.5,-8 26.5,-8 38,0 38,37 0,15 -9,30 -9,15 -31,15 -14,0 -21.5,-8 -7.5,-8 -7.5,-20 0,-9 -5,-9 -5,0 -13,4.5 -8,4.5 -16.5,11.5 -8.5,7 -16.5,14 -8,7 -12,13 7,16 15,34 7,15 16,33.5 9,18.5 19,35.5 9,17 21.5,30.5 12.5,13.5 33.5,18.5 l 1,9 h -57 q -23,0 -43,-8 -20,-8 -28,-25 l -30,-64 q -11,33 -16,55 -5,22 -5,29 0,15 -14,15 -8,0 -21,-2 -13,-2 -26,-2 -14,0 -24,4 -10,4 -13,4 -4,0 -4,-4 0,-3 6,-9 6,-6 12,-18 10,-21 19.5,-50 9.5,-29 23.5,-73 9,-29 15,-53 6,-24 16,-56 z m 143,-191 q -8,13 -17.5,44.5 -9.5,31.5 -23.5,73.5 55,-35 88.5,-65.5 33.5,-30.5 33.5,-68.5 0,-14 -7.5,-21.5 -7.5,-7.5 -18.5,-7.5 -17,0 -29.5,11 -12.5,11 -25.5,34 z m -300,314 q 6,0 17,-16 11,-16 19,-42 -26,17 -33.5,29.5 -7.5,12.5 -7.5,23.5 0,5 5,5 z"></path></svg>
