<?xml version="1.0" encoding="UTF-8" standalone="no"?>
<svg xmlns="http://www.w3.org/2000/svg" width="4558" height="2057"><path id="path540" d="m 1129,920 q 0,-56 -39,-91.5 -39,-35.5 -108,-35.5 -66,0 -130.5,16.5 -64.5,16.5 -128,41 -63.5,24.5 -128,53 -64.5,28.5 -131,53 -66.5,24.5 -137,41 Q 257,1014 182,1014 136,1014 101.5,1001.5 67,989 44.5,969 22,949 11,922.5 0,896 0,867 0,828 15,798 30,768 53,748 76,728 104.5,717.5 133,707 160,707 q 21,0 37,7 16,7 16,20 0,12 -7,19.5 -7,7.5 -20,7.5 -9,0 -14,-4.5 -5,-4.5 -9.5,-10 -4.5,-5.5 -9.5,-10 -5,-4.5 -15,-4.5 -17,0 -38,8.5 -21,8.5 -39,26 Q 43,784 30.5,810 18,836 18,870 q 0,26 11,49 11,23 32.5,40 21.5,17 53.5,27 32,10 74,10 72,0 141,-19.5 Q 399,957 465.5,928 532,899 597.5,864.5 663,830 728,801 793,772 858.5,752.5 924,733 992,733 q 40,0 71,12.5 31,12.5 52.5,34.5 21.5,22 32.5,52 11,30 11,65 0,75 -30.5,146 -30.5,71 -81,137.5 Q 997,1247 931,1310 q -66,63 -136,123 -29,148 -59.5,264 -30.5,116 -71,196 -40.5,80 -94.5,122 -54,42 -129,42 -67,0 -102,-34 -35,-34 -35,-87 0,-61 34,-117 34,-56 90.5,-110.5 Q 485,1654 557,1598 q 72,-56 148,-117 12,-48 22.5,-99 10.5,-51 21.5,-104 5,-22 13.5,-34.5 Q 771,1231 786,1222 h -7.5 q 0,0 -10.5,-1 -9,0 -17,-2 -4,-1 -7,-2 l 8,-12 8,2 q 5,1 21,1 17,0 43,-4.5 26,-4.5 58,-18.5 l 5,9 q -7,6 -14,13 -6,6 -13.5,15.5 -7.5,9.5 -14.5,20.5 -13,22 -19,42.5 -6,20.5 -12,46.5 -4,18 -7,35.5 -3,17.5 -6,34.5 65,-55 124.5,-112.5 Q 985,1232 1030,1172 q 45,-60 72,-123 27,-63 27,-129 z M 414,1999 q 46,0 86,-36.5 40,-36.5 75,-101.5 35,-65 65.5,-154 30.5,-89 56.5,-194 -69,54 -133.5,106 -64.5,52 -115,102.5 -50.5,50.5 -80.5,99.5 -30,49 -30,98 0,35 18.5,57.5 18.5,22.5 57.5,22.5 z m 404,-885 q 0,-10 5,-21.5 5,-11.5 13,-20.5 8,-9 17.5,-15 9.5,-6 18.5,-6 13,0 22,8.5 9,8.5 9,22.5 0,11 -4.5,22.5 -4.5,11.5 -11.5,21.5 -7,10 -16.5,16 -9.5,6 -18.5,6 -13,0 -23.5,-9 -10.5,-9 -10.5,-25 z"></path></svg>
