<?xml version="1.0" encoding="UTF-8" standalone="no"?>
<svg xmlns="http://www.w3.org/2000/svg" width="4558" height="2057"><path id="path748" d="m 636,1419 q -16,54 -34,112.5 -18,58.5 -41,115.5 -23,57 -52.5,108 -29.5,51 -67.5,90 -38,39 -86.5,62 -48.5,23 -109.5,23 -52,0 -97,-16.5 -45,-16.5 -78,-46 Q 37,1838 18.5,1797 0,1756 0,1707 q 0,-62 24.5,-113 24.5,-51 64,-87 39.5,-36 89.5,-56 50,-20 101,-20 42,0 73,10.5 31,10.5 54,27.5 32,-20 72,-34 40,-14 86,-22 11,-35 20.5,-67.5 9.5,-32.5 17.5,-62.5 15,-55 26.5,-92.5 11.5,-37.5 11.5,-44.5 0,-5 -1.5,-8.5 -1.5,-3.5 -6.5,-3.5 -4,0 -10,4.5 -6,4.5 -13,9.5 -8,6 -16,13 l -7,-9 q 6,-6 17.5,-15.5 11.5,-9.5 25,-19 13.5,-9.5 28,-16.5 14.5,-7 26.5,-7 18,0 30,8.5 12,8.5 12,22.5 0,7 -2,15 -1,4 -2,6 20,-23 50,-37.5 30,-14.5 54,-14.5 27,0 49.5,16 22.5,16 22.5,51 0,38 -14.5,71 -14.5,33 -37,57 -22.5,24 -50,38 -27.5,14 -52.5,14 -28,0 -44.5,-10 -16.5,-10 -26.5,-26 -8,23 -16,48 -8,25 -16,53 77,0 152.5,18.5 75.5,18.5 135.5,58 60,39.5 97.5,101 37.5,61.5 37.5,147.5 0,76 -25,136.5 -25,60.5 -66,102.5 -41,42 -94.5,64.5 Q 824,2057 766,2057 q -45,0 -81.5,-13.5 -36.5,-13.5 -62.5,-36 -26,-22.5 -40,-52 -14,-29.5 -14,-61.5 0,-33 11,-60.5 11,-27.5 30.5,-48 19.5,-20.5 45.5,-32 26,-11.5 56,-11.5 44,0 67,24 23,24 23,54 0,10 -5,19.5 -5,9.5 -16,9.5 -20,0 -20,-19 0,-11 6,-17 6,-6 6,-15 0,-4 -3,-11.5 -3,-7.5 -10,-14.5 -7,-7 -19,-12 -12,-5 -30,-5 -27,0 -50,11 -23,11 -39.5,29.5 -16.5,18.5 -26,43.5 -9.5,25 -9.5,52 0,63 46.5,100 46.5,37 123.5,37 47,0 89.5,-21 42.5,-21 74,-60 31.5,-39 50,-93.5 Q 987,1799 987,1732 q 0,-76 -28,-134 -28,-58 -76,-98 -48,-40 -111.5,-60.5 Q 708,1419 636,1419 Z m -432,453 q 58,0 102,-18.5 44,-18.5 77.5,-51 33.5,-32.5 59,-75.5 25.5,-43 45.5,-92.5 20,-49.5 37,-102.5 17,-53 34,-105 -41,8 -75,23 -34,15 -61,35 16,17 23.5,37 7.5,20 7.5,42 0,51 -23,79 -23,28 -56,28 -29,0 -49,-17.5 -20,-17.5 -20,-46.5 0,-33 22.5,-66.5 22.5,-33.5 62.5,-61.5 -21,-15 -49,-24 -28,-9 -63,-9 -48,0 -93,19 -45,19 -79,53 -34,34 -54.5,81 -20.5,47 -20.5,102 0,39 13,70.5 13,31.5 36,54 23,22.5 54.5,34.5 31.5,12 68.5,12 z m 586,-750 q -20,0 -43.5,21 -23.5,21 -37.5,50 -3,7 -7.5,18.5 -4.5,11.5 -8.5,23.5 -4,12 -6.5,22.5 -2.5,10.5 -2.5,16.5 0,25 12.5,33.5 12.5,8.5 23.5,8.5 19,0 35.5,-12.5 16.5,-12.5 28.5,-33.5 12,-21 19,-49 7,-28 7,-60 0,-21 -6,-30 -6,-9 -14,-9 z m -351,442 q 0,-37 -30,-69 -30,25 -46.5,53.5 -16.5,28.5 -16.5,56.5 0,46 40,46 17,0 35,-22 18,-22 18,-65 z"></path></svg>
