<?xml version="1.0" encoding="UTF-8" standalone="no"?>
<svg xmlns="http://www.w3.org/2000/svg" width="4558" height="2057"><path id="path729" d="m 1033,1798 q 47,0 83.5,13.5 36.5,13.5 62,35.5 25.5,22 41.5,48.5 16,26.5 23,51.5 2,8 3,14 1,6 1,9 0,8 -8,8 -7,0 -10,-17 -7,-28 -22,-52 -15,-24 -38.5,-42 -23.5,-18 -55.5,-28 -32,-10 -73,-10 -66,0 -131,17 -65,17 -129.5,42 -64.5,25 -128.5,55 -64,30 -127.5,55 -63.5,25 -126,42 -62.5,17 -123.5,17 -60,0 -105,-21 -45,-21 -77.5,-51 Q 59,1955 38.5,1921 18,1887 8,1861 5,1854 2.5,1847.5 0,1841 0,1838 q 0,-8 9,-8 4,0 7,5 3,5 6,12 12,25 32.5,47.5 20.5,22.5 49,39 28.5,16.5 64.5,26.5 36,10 78,10 72,0 141,-12.5 69,-12.5 136,-32 67,-19.5 132.5,-41.5 65.5,-22 129,-41.5 63.5,-19.5 125.5,-32 62,-12.5 123,-12.5 z"></path></svg>
