<?xml version="1.0" encoding="UTF-8" standalone="no"?>
<svg xmlns="http://www.w3.org/2000/svg" width="4558" height="2057"><path id="path372" d="m 576,1553 q 38,-114 87.5,-191.5 49.5,-77.5 103,-124.5 53.5,-47 107.5,-67.5 54,-20.5 101,-20.5 38,0 64,11 26,11 42,29 16,18 23,41 7,23 7,47 0,68 -40.5,131.5 -40.5,63.5 -108.5,117 -68,53.5 -157,94.5 -89,41 -186,64 -16,47 -30.5,91.5 -14.5,44.5 -28.5,95.5 -3,12 -9,31.5 -6,19.5 -11,39 -5,19.5 -9,36.5 -4,17 -4,25 0,13 10,13 7,0 15,-4.5 8,-4.5 16,-9.5 9,-6 17,-15 l 8,8 q -17,18 -33,31 -14,12 -29.5,21.5 -15.5,9.5 -27.5,9.5 -27,0 -40.5,-11.5 Q 449,2034 449,2015 q 0,-6 0.5,-11 0.5,-5 2.5,-14 -8,11 -19,22.5 -11,11.5 -24,21.5 -13,10 -28,16.5 -15,6.5 -32,6.5 -35,0 -58,-18 -23,-18 -23,-56 0,-36 16.5,-67 16.5,-31 41,-54.5 24.5,-23.5 53.5,-37 29,-13.5 54,-13.5 21,0 34,5.5 13,5.5 24,16.5 l 38,-133 q -29,4 -57,6 -28,2 -56,2 -77,0 -151.5,-15.5 Q 190,1677 131.5,1641 73,1605 36.5,1545.5 0,1486 0,1399 0,1307 40.5,1227 81,1147 147,1087.5 213,1028 295.5,994 378,960 462,960 q 101,0 159,43.5 58,43.5 58,118.5 0,47 -25.5,94 -25.5,47 -66.5,85 -41,38 -93.5,61.5 Q 441,1386 387,1386 q -56,0 -87.5,-25 -31.5,-25 -31.5,-68 0,-20 8.5,-35.5 8.5,-15.5 22.5,-15.5 8,0 13.5,5 5.5,5 5.5,13 0,7 -4.5,11.5 -4.5,4.5 -10,9 -5.5,4.5 -10,10 -4.5,5.5 -4.5,14.5 0,30 25,47.5 25,17.5 73,17.5 48,0 91,-21.5 43,-21.5 75.5,-56 32.5,-34.5 51.5,-78.5 19,-44 19,-88 0,-66 -39,-108.5 Q 546,975 461,975 386,975 314.5,1008.5 243,1042 188,1099 133,1156 99.5,1232.5 66,1309 66,1395 q 0,83 30,139 30,56 81,90.5 51,34.5 118,49 67,14.5 140,14.5 24,0 49,-1.5 25,-1.5 51,-5.5 8,-28 18,-59 10,-31 23,-69 z m 85,11 q -10,26 -18.5,51 -8.5,25 -16.5,48 88,-22 170.5,-60.5 82.5,-38.5 146.5,-88 64,-49.5 102,-106.5 38,-57 38,-116 0,-37 -24,-59.5 -24,-22.5 -67,-22.5 -39,0 -82.5,18.5 -43.5,18.5 -87,60.5 -43.5,42 -85,109.5 Q 696,1466 661,1564 Z m -278,462 q 9,0 19.5,-7 10.5,-7 21,-18 10.5,-11 20.5,-24.5 10,-13.5 16,-27.5 3,-7 6.5,-18 3.5,-11 6.5,-22 3,-11 4.5,-21.5 1.5,-10.5 1.5,-16.5 0,-18 -7.5,-30 -7.5,-12 -28.5,-12 -18,0 -34,14 -16,14 -27.5,36 -11.5,22 -18,47.5 -6.5,25.5 -6.5,47.5 0,28 6,40 6,12 20,12 z"></path></svg>
