<?xml version="1.0" encoding="UTF-8" standalone="no"?>
<svg xmlns="http://www.w3.org/2000/svg" width="4558" height="2057"><path id="path271" d="m 297,1849 q -6,12 -12.5,31 -6.5,19 -12.5,40 -6,21 -9.5,41 -3.5,20 -3.5,33 0,16 8,22.5 8,6.5 16,6.5 28,0 62,-16 34,-16 69,-35 35,-19 68.5,-35 33.5,-16 59.5,-16 38,0 63.5,12.5 25.5,12.5 48,27.5 22.5,15 47.5,27.5 25,12.5 64,12.5 22,0 39,-5 17,-5 29.5,-12 12.5,-7 21,-14.5 8.5,-7.5 15.5,-12.5 l 8,9 q -9,9 -26,24.5 -17,15.5 -39,30 -22,14.5 -48.5,25.5 -26.5,11 -54.5,11 -36,0 -64.5,-13 -28.5,-13 -53,-28.5 -24.5,-15.5 -49,-28.5 -24.5,-13 -53.5,-13 -33,0 -63,12 -30,12 -59.5,26 -29.5,14 -59,26 -29.5,12 -60.5,12 -26,0 -43.5,-14 -17.5,-14 -17.5,-44 0,-5 0.5,-9.5 0.5,-4.5 0.5,-6.5 -6,11 -17.5,23.5 -11.5,12.5 -25.5,24 -14,11.5 -31,19 -17,7.5 -33,7.5 -35,0 -58,-20 -23,-20 -23,-54 0,-36 16,-67 16,-31 40,-54 24,-23 53,-36.5 29,-13.5 56,-13.5 29,0 44,12.5 15,12.5 17,31.5 5,-15 18,-24.5 13,-9.5 39,-13.5 12,-2 21,-4.5 9,-2.5 15,-5.5 7,-4 12,-7 l 6,12 q -7,4 -14,10 -6,5 -13,13 -7,8 -13,20 z m -182,170 q 9,0 19.5,-6.5 10.5,-6.5 21,-17.5 10.5,-11 20,-24.5 9.5,-13.5 15.5,-27.5 3,-7 6.5,-17.5 3.5,-10.5 6.5,-21 3,-10.5 5,-20.5 2,-10 2,-16 0,-18 -7.5,-31.5 Q 196,1823 175,1823 q -18,0 -34,14 -16,14 -27.5,35.5 -11.5,21.5 -18,47 -6.5,25.5 -6.5,47.5 0,28 6,40 6,12 20,12 z"></path></svg>
