<?xml version="1.0" encoding="UTF-8" standalone="no"?>
<svg xmlns="http://www.w3.org/2000/svg" width="4558" height="2057"><path id="path548" d="m 1052,2006 q -69,0 -133,-23.5 -64,-23.5 -125,-62 -61,-38.5 -118.5,-86 Q 618,1787 562,1739 501,1808 426.5,1848.5 352,1889 260,1889 200,1889 152,1872 104,1855 70.5,1826.5 37,1798 18.5,1761 0,1724 0,1684 0,1644 16.5,1611.5 33,1579 60.5,1557 88,1535 123,1523 q 35,-12 73,-12 42,0 81,11.5 39,11.5 77,31.5 38,20 74.5,46.5 36.5,26.5 74.5,56.5 49,-54 89.5,-124 40.5,-70 74,-150.5 Q 700,1302 726,1213 q 26,-89 46,-181 5,-22 13.5,-34.5 Q 794,985 809,976 h -7.5 q 0,0 -10.5,-1 -9,0 -17,-2 -4,-1 -7,-2 l 8,-12 8,2 q 5,1 21,1 17,0 43,-4.5 26,-4.5 58,-18.5 l 5,9 q -8,6 -15,13 -6,6 -13.5,15.5 -7.5,9.5 -13.5,20.5 -13,23 -20,44.5 -7,21.5 -12,44.5 -20,89 -44.5,177.5 -24.5,88.5 -56,170 -31.5,81.5 -70,154 Q 627,1660 580,1718 q 47,38 97,73.5 50,35.5 106,63 56,27.5 118.5,44.5 62.5,17 133.5,17 123,0 210.5,-44.5 87.5,-44.5 131.5,-122.5 -19,5 -37,7.5 -18,2.5 -36,2.5 -57,0 -98.5,-26 -41.5,-26 -64.5,-61 -23,24 -59,41.5 -36,17.5 -83,17.5 -44,0 -81,-9.5 -37,-9.5 -64,-29.5 -27,-20 -42,-51.5 -15,-31.5 -15,-75.5 0,-49 24,-96 24,-47 66.5,-84 42.5,-37 101,-59.5 58.5,-22.5 128.5,-22.5 74,0 133.5,23 59.5,23 101.5,62 42,39 64.5,91 22.5,52 22.5,111 0,17 -1.5,34.5 -1.5,17.5 -3.5,34.5 61,-18 129.5,-42.5 68.5,-24.5 139.5,-47.5 71,-23 141.5,-39 70.5,-16 135.5,-16 58,0 106,12.5 48,12.5 81.5,37 33.5,24.5 52,62 18.5,37.5 18.5,86.5 0,57 -29.5,118.5 -29.5,61.5 -82.5,111.5 -53,50 -127,82.5 -74,32.5 -163,32.5 -61,0 -108.5,-13 -47.5,-13 -80.5,-36.5 -33,-23.5 -50,-55 -17,-31.5 -17,-67.5 0,-31 14,-56 14,-25 33.5,-42.5 19.5,-17.5 39,-27 19.5,-9.5 31.5,-9.5 3,0 7,1 4,1 4,6 0,5 -4,6.5 -4,1.5 -8,2.5 -12,2 -26,10 -14,8 -26.5,21 -12.5,13 -21,31.5 -8.5,18.5 -8.5,42.5 0,27 17,48 17,21 47.5,35.5 30.5,14.5 72.5,22.5 42,8 91,8 82,0 151,-23 69,-23 118.5,-61 49.5,-38 77,-86.5 27.5,-48.5 27.5,-100.5 0,-88 -66.5,-133 -66.5,-45 -190.5,-45 -70,0 -140.5,23.5 -70.5,23.5 -139.5,56.5 -69,33 -135.5,67 -66.5,34 -128.5,55 -18,55 -49,103.5 -31,48.5 -76.5,85 -45.5,36.5 -105,58 Q 1126,2006 1052,2006 Z m 125,-409 q 0,26 -19,54 31,34 136,34 25,0 54.5,-5.5 29.5,-5.5 61.5,-13.5 8,-38 8,-76 0,-55 -22.5,-97.5 -22.5,-42.5 -62.5,-71.5 -40,-29 -96.5,-44 -56.5,-15 -123.5,-15 -59,0 -112,19.5 -53,19.5 -92.5,49.5 -39.5,30 -62.5,67.5 -23,37.5 -23,73.5 0,70 49.5,104.5 49.5,34.5 131.5,34.5 43,0 75.5,-16 32.5,-16 52.5,-38 -12,-25 -12,-49 0,-20 10,-31.5 10,-11.5 22,-11.5 25,0 25,32 z m -954,199 q 77,0 142,-32 65,-32 121,-89 -37,-31 -73.5,-57.5 Q 376,1591 339.5,1571 303,1551 266.5,1539.5 230,1528 194,1528 q -33,0 -61.5,10 -28.5,10 -49.5,28.5 -21,18.5 -33,44 -12,25.5 -12,56.5 0,36 15.5,60.5 15.5,24.5 41.5,40 26,15.5 59,22 33,6.5 69,6.5 z M 841,868 q 0,-10 5,-21.5 5,-11.5 13,-20.5 8,-9 17.5,-15 9.5,-6 18.5,-6 13,0 22,8.5 9,8.5 9,22.5 0,11 -4.5,22.5 Q 917,870 910,880 q -7,10 -16.5,16 -9.5,6 -18.5,6 -13,0 -23.5,-9 Q 841,884 841,868 Z m 300,737 q 0,18 7,32 12,-19 12,-37 0,-15 -8,-15 -4,0 -7.5,4.5 -3.5,4.5 -3.5,15.5 z"></path></svg>
