<?xml version="1.0" encoding="UTF-8" standalone="no"?>
<svg xmlns="http://www.w3.org/2000/svg" width="4558" height="2057"><path id="path470" d="m 1129,920 q 0,-56 -39,-91.5 -39,-35.5 -108,-35.5 -66,0 -130.5,16.5 -64.5,16.5 -128,41 -63.5,24.5 -128,53 -64.5,28.5 -131,53 -66.5,24.5 -137,41 Q 257,1014 182,1014 136,1014 101.5,1001.5 67,989 44.5,969 22,949 11,922.5 0,896 0,867 0,828 15,798 30,768 53,748 76,728 104.5,717.5 133,707 160,707 q 21,0 37,7 16,7 16,20 0,12 -7,19.5 -7,7.5 -20,7.5 -9,0 -14,-4.5 -5,-4.5 -9.5,-10 -4.5,-5.5 -9.5,-10 -5,-4.5 -15,-4.5 -17,0 -38,8.5 -21,8.5 -39,26 Q 43,784 30.5,810 18,836 18,870 q 0,26 11,49 11,23 32.5,40 21.5,17 53.5,27 32,10 74,10 72,0 141,-19.5 Q 399,957 465.5,928 532,899 597.5,864.5 663,830 728,801 793,772 858.5,752.5 924,733 992,733 q 40,0 71,12.5 31,12.5 52.5,34.5 21.5,22 32.5,52 11,30 11,65 0,75 -30,145.5 -30,70.5 -80,137 -50,66.5 -115,129.5 -65,63 -135,122 -26,160 -55.5,277.5 -29.5,117.5 -70,195 -40.5,77.5 -97,115.5 -56.5,38 -135.5,38 -28,0 -53,-9.5 -25,-9.5 -43.5,-26 Q 326,2005 315,1983 q -11,-22 -11,-47 0,-54 35,-110.5 35,-56.5 93,-114.5 58,-58 131.5,-118 73.5,-60 150.5,-120 5,-23 9.5,-46 4.5,-23 9.5,-48 -7,10 -18,22 -11,12 -24.5,22 -13.5,10 -28.5,17 -15,7 -29,7 -37,0 -59.5,-21.5 Q 551,1404 551,1370 q 0,-36 16.5,-67 16.5,-31 41,-54.5 24.5,-23.5 53.5,-37 29,-13.5 54,-13.5 29,0 44,13 15,13 17,33 5,-15 18,-25 13,-10 39,-14 12,-2 21,-4.5 9,-2.5 15,-5.5 7,-4 12,-7 l 6,12 q -6,5 -12,11 -5,5 -12.5,13 -7.5,8 -14.5,19 -14,23 -21.5,43.5 -7.5,20.5 -12.5,45.5 -4,17 -6,33.5 -2,16.5 -4,32.5 64,-55 123,-112.5 59,-57.5 103.5,-117 44.5,-59.5 71,-121.5 26.5,-62 26.5,-127 z M 423,2001 q 42,0 81.5,-33 39.5,-33 75.5,-96 36,-63 67.5,-155 31.5,-92 58.5,-210 -68,51 -134,105 -66,54 -118,107 -52,53 -84,103.5 -32,50.5 -32,96.5 0,35 23,58.5 23,23.5 62,23.5 z m 243,-586 q 17,0 39,-22 22,-22 36,-51 3,-7 7,-19 4,-12 7,-24.5 3,-12.5 5,-23.5 2,-11 2,-17 0,-18 -8,-30 -8,-12 -28,-12 -18,0 -34,14 -16,14 -27.5,36 -11.5,22 -18,47.5 -6.5,25.5 -6.5,47.5 0,54 26,54 z"></path></svg>
