<?xml version="1.0" encoding="UTF-8" standalone="no"?>
<svg xmlns="http://www.w3.org/2000/svg" width="4558" height="2057"><path id="path450" d="m 994,1013 q -11,68 -22.5,140 -11.5,72 -26,145.5 -14.5,73.5 -33,147 Q 894,1519 870,1589 q 94,29 185.5,51 91.5,22 185.5,22 59,0 109,-10.5 50,-10.5 86.5,-31.5 36.5,-21 57,-52.5 20.5,-31.5 20.5,-73.5 0,-26 -7,-43 -7,-17 -17.5,-27.5 -10.5,-10.5 -22.5,-14.5 -12,-4 -22,-4 -10,0 -16.5,4 -6.5,4 -11.5,9.5 -5,5.5 -11,9.5 -6,4 -15,4 -11,0 -18.5,-7 -7.5,-7 -7.5,-18 0,-15 16,-24 16,-9 39,-9 19,0 38.5,7.5 19.5,7.5 35.5,22 16,14.5 26.5,36.5 10.5,22 10.5,52 0,48 -20.5,93 -20.5,45 -58.5,80.5 -38,35.5 -93,57 -55,21.5 -124,21.5 -50,0 -98.5,-8.5 -48.5,-8.5 -96,-22.5 -47.5,-14 -95,-33 -47.5,-19 -94.5,-39 -34,85 -79.5,160.5 -45.5,75.5 -106,132.5 -60.5,57 -138,90 -77.5,33 -175.5,33 -71,0 -135,-21.5 Q 153,2014 105,1975 57,1936 28.5,1882.5 0,1829 0,1764 q 0,-67 27,-120 27,-53 74.5,-90 47.5,-37 111,-56 63.5,-19 137.5,-19 114,0 217.5,23.5 103.5,23.5 203.5,54.5 25,-70 45.5,-142.5 20.5,-72.5 37,-143 16.5,-70.5 30.5,-136 14,-65.5 28,-122.5 h -22 l 9,-17 h 17 q 3,-13 7,-28 3,-13 7.5,-28.5 4.5,-15.5 9.5,-32.5 9,-30 25,-51 16,-21 34.5,-34 18.5,-13 37.5,-19 19,-6 35,-6 31,0 48,16 17,16 17,34 0,17 -10,31 -10,14 -31,14 -15,0 -23.5,-7.5 -8.5,-7.5 -8.5,-18.5 0,-16 9.5,-24.5 9.5,-8.5 9.5,-17.5 0,-12 -9,-12 -22,0 -34.5,26 -12.5,26 -24.5,76 -3,11 -6,25 -3,14 -5,27 l -6,30 h 68 l -10,17 z m -672,974 q 81,0 147,-30.5 66,-30.5 118.5,-83 52.5,-52.5 93.5,-123 41,-70.5 73,-150.5 -96,-41 -195,-71 -99,-30 -208,-30 -69,0 -127,17.5 -58,17.5 -101,49.5 -43,32 -67,79 -24,47 -24,105 0,56 23.5,100 23.5,44 63.5,74.5 40,30.5 92.5,46.5 52.5,16 110.5,16 z"></path></svg>
