<?xml version="1.0" encoding="UTF-8" standalone="no"?>
<svg xmlns="http://www.w3.org/2000/svg" width="4558" height="2057"><path id="path39" d="m 439,1574 q 0,7 -7,15.5 -7,8.5 -16.5,20.5 -9.5,12 -19.5,27 -10,15 -16,36 l -12,-6 q 5,-20 7.5,-39 2.5,-19 2.5,-36 0,-17 -14,-28 -14,-11 -31,-11 -37,0 -76,26 -39,26 -71.5,70 -32.5,44 -53,102 -20.5,58 -20.5,121 0,46 9.5,76.5 9.5,30.5 25,49 15.5,18.5 34.5,26 19,7.5 38,7.5 46,0 83.5,-20.5 Q 340,1990 365,1959 l 10,8 q -14,16 -31.5,32 -17.5,16 -39,29 -21.5,13 -47.5,21 -26,8 -59,8 -26,0 -60,-8 -34,-8 -65,-28 Q 42,2001 21,1966.5 0,1932 0,1878 q 0,-72 29,-134.5 29,-62.5 75.5,-109 46.5,-46.5 105.5,-73 59,-26.5 120,-26.5 12,0 31,2.5 19,2.5 36,7 17,4.5 29.5,12 12.5,7.5 12.5,17.5 z m -96,-70 q -9,0 -22,-13 -13,-13 -24,-30 -11,-17 -19,-33.5 -8,-16.5 -8,-23.5 0,-9 10,-9 4,0 11.5,9.5 7.5,9.5 17.5,21 10,11.5 21,21 11,9.5 22,9.5 15,0 31,-9.5 16,-9.5 30.5,-21.5 14.5,-12 24.5,-21.5 10,-9.5 13,-9.5 10,0 10,9 0,5 -14.5,21.5 -14.5,16.5 -34,34 -19.5,17.5 -39.5,31.5 -20,14 -30,14 z"></path></svg>
