<?xml version="1.0" encoding="UTF-8" standalone="no"?>
<svg xmlns="http://www.w3.org/2000/svg" width="4558" height="2057"><path id="path947" d="m 619,1015 q 8,0 16.5,14 8.5,14 8.5,26 0,17 -23,37 -28,25 -59.5,38 -31.5,13 -56.5,13 -4,0 -7.5,-2 -3.5,-2 -3.5,-7 0,-5 9,-9 22,-10 49.5,-34 27.5,-24 51.5,-65 5,-11 15,-11 z m -67,237 q 5,-22 11.5,-37 6.5,-15 15.5,-24 9,-9 21.5,-14 12.5,-5 29.5,-7 22,-3 36,-10 7,-4 12,-7 l 6,12 q -5,2 -9,6 -4,3 -9,8 -5,5 -10,11 -14,19 -24,42 -10,23 -21,65 -8,29 -15.5,83 -7.5,54 -24.5,132 58,0 106.5,11 48.5,11 84,33.5 35.5,22.5 55,57 19.5,34.5 19.5,82.5 0,29 -12.5,47 -12.5,18 -26.5,18 -11,0 -18.5,-7 -7.5,-7 -7.5,-18 0,-10 5.5,-15.5 5.5,-5.5 12,-11 6.5,-5.5 12,-13.5 5.5,-8 5.5,-23 0,-33 -17,-60 -17,-27 -48.5,-46 -31.5,-19 -75,-29.5 Q 622,1527 568,1527 q -24,113 -64,210 -40,97 -94,168 -54,71 -120,111.5 -66,40.5 -141,40.5 -75,0 -112,-40 -37,-40 -37,-100 0,-65 39,-131 39,-66 105.5,-121.5 66.5,-55.5 154,-95 Q 386,1530 483,1517 q 10,-30 17,-55 7,-25 12.5,-46 5.5,-21 10,-40 4.5,-19 8.5,-38 -29,32 -63.5,53.5 -34.5,21.5 -61.5,21.5 -23,0 -41,-13.5 -18,-13.5 -18,-40.5 0,-16 8.5,-35.5 8.5,-19.5 18.5,-38.5 10,-19 18.5,-37 8.5,-18 8.5,-33 0,-10 -7,-10 -5,0 -11,4 -6,4 -12,9 -7,6 -15,13 l -8,-9 q 6,-6 17.5,-15.5 11.5,-9.5 25,-19 13.5,-9.5 28,-16.5 14.5,-7 26.5,-7 22,0 33,9 11,9 11,24 0,15 -8,35 -8,20 -17,41 -9,21 -17,42 -8,21 -8,39 0,16 15,16 14,0 28,-10.5 14,-10.5 36,-33.5 13,-14 20,-29.5 7,-15.5 14,-44.5 z m -74,281 q -90,14 -171.5,53 -81.5,39 -143,92.5 -61.5,53.5 -98,115 Q 29,1855 29,1914 q 0,32 22,54 22,22 66,22 59,0 109.5,-32 50.5,-32 94.5,-91.5 44,-59.5 82.5,-144 Q 442,1638 478,1533 Z"></path></svg>
