<?xml version="1.0" encoding="UTF-8" standalone="no"?>
<svg xmlns="http://www.w3.org/2000/svg" width="4558" height="2057"><path id="path744" d="m 566,1527 q -32,127 -74.5,226 -42.5,99 -95,166.5 Q 344,1987 282,2022 q -62,35 -133,35 -75,0 -112,-40 -37,-40 -37,-100 0,-65 39,-131 39,-66 105.5,-121.5 66.5,-55.5 154.5,-95 88,-39.5 185,-52.5 9,-28 16,-49 7,-21 12,-39 5,-18 10,-34.5 5,-16.5 10,-34.5 15,-54 26.5,-94.5 11.5,-40.5 11.5,-49.5 0,-5 -1.5,-8.5 -1.5,-3.5 -6.5,-3.5 -4,0 -10,4.5 -6,4.5 -13,9.5 -8,6 -16,13 l -7,-9 q 6,-6 17.5,-15.5 11.5,-9.5 25,-19 13.5,-9.5 28,-16.5 14.5,-7 26.5,-7 18,0 30,8.5 12,8.5 12,22.5 0,7 -2,15 -1,4 -2,6 20,-23 50,-37.5 30,-14.5 54,-14.5 27,0 49.5,16 22.5,16 22.5,51 0,38 -14.5,71 -14.5,33 -37,57 -22.5,24 -50,38 -27.5,14 -52.5,14 -28,0 -44.5,-10 -16.5,-10 -26.5,-26 -3,14 -6,25.5 -3,11.5 -6,26 -3,14.5 -8,34.5 -5,20 -12,51 58,0 107,11 49,11 84,33.5 35,22.5 55,57 20,34.5 20,82.5 0,29 -12.5,47 -12.5,18 -26.5,18 -11,0 -18.5,-7 -7.5,-7 -7.5,-18 0,-10 5.5,-15.5 5.5,-5.5 12,-11 6.5,-5.5 12,-13.5 5.5,-8 5.5,-23 0,-33 -17,-60 -17,-27 -48.5,-46 -31.5,-19 -76,-29.5 Q 620,1527 566,1527 Z m -449,463 q 50,0 92.5,-22.5 42.5,-22.5 77.5,-59.5 35,-37 64,-84.5 29,-47.5 52,-98.5 23,-51 41.5,-101 18.5,-50 33.5,-91 -90,14 -171.5,53 -81.5,39 -143,92.5 -61.5,53.5 -98,115 Q 29,1855 29,1914 q 0,32 22,54 22,22 66,22 z m 603,-798 q -20,0 -43.5,21 -23.5,21 -37.5,50 -3,7 -7.5,18.5 -4.5,11.5 -8.5,23.5 -4,12 -6.5,22.5 -2.5,10.5 -2.5,16.5 0,25 12.5,33.5 12.5,8.5 23.5,8.5 19,0 35.5,-12.5 16.5,-12.5 28.5,-33.5 12,-21 19,-49 7,-28 7,-60 0,-21 -6,-30 -6,-9 -14,-9 z"></path></svg>
