<?xml version="1.0" encoding="UTF-8" standalone="no"?>
<svg xmlns="http://www.w3.org/2000/svg" width="4558" height="2057"><path id="path314" d="m 463,1859 q 9,-10 22,-18.5 13,-8.5 27,-15.5 14,-7 27.5,-11 13.5,-4 24.5,-4 27,0 50,18.5 23,18.5 23,59.5 0,31 -12,61.5 -12,30.5 -32,54.5 -20,24 -47,38.5 -27,14.5 -57,14.5 -36,0 -56,-16 -20,-16 -27,-33 -17,18 -31.5,27.5 -14.5,9.5 -27.5,14.5 -13,5 -23,6 -10,1 -17,1 v -7 q 14,-6 24,-22.5 10,-16.5 18,-41.5 8,-25 16,-57.5 8,-32.5 18,-70.5 8,-32 16.5,-64.5 8.5,-32.5 17.5,-64.5 -74,0 -148,-18.5 -74,-18.5 -134,-58 Q 75,1613 37.5,1551.5 0,1490 0,1404 0,1328 27,1268 54,1208 97.5,1166.5 141,1125 196,1103 q 55,-22 111,-22 45,0 80,13 35,13 59,35 24,22 36.5,51 12.5,29 12.5,61 0,33 -11,60.5 -11,27.5 -30,48 -19,20.5 -45.5,32 -26.5,11.5 -56.5,11.5 -21,0 -38,-6.5 -17,-6.5 -29,-17.5 -12,-11 -18,-25 -6,-14 -6,-29 0,-10 5,-19.5 5,-9.5 17,-9.5 8,0 14,4.5 6,4.5 6,14.5 0,10 -5.5,16.5 -5.5,6.5 -5.5,15.5 0,6 3,13 3,7 10,13.5 7,6.5 18.5,11 11.5,4.5 29.5,4.5 27,0 49.5,-11 22.5,-11 39.5,-29.5 17,-18.5 26.5,-43 9.5,-24.5 9.5,-51.5 0,-63 -42.5,-98.5 Q 393,1110 318,1110 q -48,0 -91.5,21 -43.5,21 -77.5,59.5 -34,38.5 -54,92.5 -20,54 -20,120 0,76 27.5,134 27.5,58 74.5,97.5 47,39.5 109.5,59.5 62.5,20 133.5,20 18,-64 38.5,-126 20.5,-62 46.5,-118 26,-56 58,-103 32,-47 73.5,-81 41.5,-34 92.5,-53.5 51,-19.5 115,-19.5 46,0 85.5,16 39.5,16 69,45 29.5,29 46.5,68.5 17,39.5 17,87.5 0,62 -24,112.5 -24,50.5 -63.5,86.5 -39.5,36 -89.5,55.5 -50,19.5 -101,19.5 -41,0 -72,-10.5 -31,-10.5 -54,-28.5 -32,20 -72,34.5 -40,14.5 -86,22.5 -10,34 -19.5,68.5 Q 471,1825 463,1859 Z m 379,-582 q -66,0 -117,35 -51,35 -91.5,94 -40.5,59 -72,137 -31.5,78 -56.5,163 41,-8 75,-23 34,-15 61,-34 -32,-37 -32,-82 0,-51 25,-77.5 25,-26.5 57,-26.5 29,0 47.5,19.5 18.5,19.5 18.5,45.5 0,33 -22.5,66 -22.5,33 -62.5,62 20,15 48.5,24 28.5,9 63.5,9 46,0 90,-17 44,-17 78.5,-49 34.5,-32 55,-77 20.5,-45 20.5,-101 0,-78 -49,-123 -49,-45 -137,-45 z m -315,562 q -6,0 -16.5,4.5 -10.5,4.5 -22,13.5 -11.5,9 -22.5,22.5 -11,13.5 -17,31.5 -3,7 -6.5,18.5 -3.5,11.5 -7,23.5 -3.5,12 -6,23 -2.5,11 -2.5,16 0,24 14,32.5 14,8.5 27,8.5 16,0 30.5,-15.5 14.5,-15.5 26,-39 11.5,-23.5 18,-50 6.5,-26.5 6.5,-49.5 0,-40 -22,-40 z m 97,-268 q 0,37 29,68 31,-25 47.5,-53 16.5,-28 16.5,-56 0,-46 -40,-46 -18,0 -35.5,21.5 Q 624,1527 624,1571 Z"></path></svg>
