<?xml version="1.0" encoding="UTF-8" standalone="no"?>
<svg xmlns="http://www.w3.org/2000/svg" width="4558" height="2057"><path id="path358" d="m 185,1827 q -21,0 -38.5,12 -17.5,12 -30,31 -12.5,19 -20,44 -7.5,25 -7.5,50 0,34 13.5,48.5 13.5,14.5 33.5,14.5 13,0 25,-6 12,-6 23,-14 11,-9 23,-20 l 7,8 q -15,18 -33,31 -16,12 -37,21.5 -21,9.5 -46,9.5 -17,0 -34.5,-3.5 Q 46,2050 32,2041 q -14,-9 -23,-24 -9,-15 -9,-38 0,-39 17.5,-70 17.5,-31 44,-53 26.5,-22 58.5,-33.5 32,-11.5 61,-11.5 -3,-9 -5,-19 -2,-10 -2,-21 0,-23 8.5,-45 8.5,-22 24.5,-39.5 16,-17.5 39,-28 23,-10.5 52,-10.5 17,0 33.5,5 16.5,5 29,15 12.5,10 20,23.5 7.5,13.5 7.5,31.5 0,9 -1.5,20 -1.5,11 -3.5,20 -3,11 -5,22 h 70 l -9,17 h -66 q -7,24 -15,50.5 -8,26.5 -14.5,51 -6.5,24.5 -11,45.5 -4.5,21 -4.5,34 0,19 6.5,26.5 6.5,7.5 16.5,7.5 10,0 20,-4.5 10,-4.5 18,-10.5 9,-6 17,-15 l 8,9 q -16,18 -34,31 -15,11 -33.5,20.5 -18.5,9.5 -36.5,9.5 -29,0 -49.5,-16.5 Q 240,2024 240,1998 q 0,-31 17,-80.5 17,-49.5 37,-115.5 h -23 l 9,-17 h 19 q 2,-11 5,-22 2,-10 4,-22 2,-12 2,-24 0,-12 -8.5,-23.5 Q 293,1682 273,1682 q -41,0 -62,26.5 -21,26.5 -21,62.5 0,10 2,19.5 2,9.5 5,19.5 7,1 17,4 10,3 19.5,9 9.5,6 16,13.5 6.5,7.5 6.5,17.5 0,28 -26,28 -10,0 -17.5,-6.5 -7.5,-6.5 -13,-15.5 -5.5,-9 -9.5,-18 -4,-9 -5,-15 z"></path></svg>
