<?xml version="1.0" encoding="UTF-8" standalone="no"?>
<svg xmlns="http://www.w3.org/2000/svg" width="4558" height="2057"><path id="path233" d="m 690,2057 q -47,0 -83.5,-15 -36.5,-15 -63,-39.5 -26.5,-24.5 -43,-54.5 -16.5,-30 -22.5,-60 -13,2 -26,3 -13,1 -27,1 -76,0 -152,-20 -76,-20 -136.5,-63.5 Q 76,1765 38,1697 0,1629 0,1533 0,1445 37.5,1374 75,1303 133,1253 q 58,-50 128,-77 70,-27 136,-27 h 13 q 28,-26 63.5,-45.5 35.5,-19.5 73.5,-33 38,-13.5 76,-20 38,-6.5 71,-6.5 27,0 46,1 19,1 33.5,2.5 14.5,1.5 25.5,2.5 11,1 22,1 18,0 37,-3 19,-3 35,-11 l 5,10 q -21,11 -38,31.5 -17,20.5 -30,45.5 -13,25 -22.5,52 -9.5,27 -16.5,50 -14,48 -25.5,90.5 -11.5,42.5 -19.5,80.5 18,27 28.5,61 10.5,34 10.5,76 0,12 -1,23.5 -1,11.5 -3,23.5 h 13 q 17,0 40,-13.5 23,-13.5 46,-36 23,-22.5 43.5,-52.5 20.5,-30 33.5,-62 25,-63 44.5,-132.5 19.5,-69.5 39.5,-149.5 7,-26 20.5,-48.5 13.5,-22.5 45.5,-26.5 17,-2 30,-5.5 13,-3.5 23,-8.5 11,-5 20,-11 l 5,9 q -7,6 -14,16 -6,8 -14,20 -8,12 -17,29 -9,18 -19,56 -10,38 -21.5,89.5 -11.5,51.5 -25.5,114.5 -14,63 -30,131 -11,45 -21,103.5 -10,58.5 -25.5,120.5 -15.5,62 -38.5,121.5 -23,59.5 -58.5,106.5 -35.5,47 -87,76 -51.5,29 -123.5,29 z m -58,-558 q 0,-31 6.5,-69 6.5,-38 17.5,-80 -35,-18 -73,-24 -13,39 -44.5,64 -31.5,25 -66.5,25 -22,0 -44.5,-7 -22.5,-7 -41.5,-22 -25,26 -39.5,60 -14.5,34 -14.5,76 0,33 12.5,58.5 12.5,25.5 32.5,43 20,17.5 44.5,26 24.5,8.5 48.5,8.5 22,0 39.5,-7 17.5,-7 29,-18 11.5,-11 17.5,-24.5 6,-13.5 6,-25.5 0,-10 -6.5,-14.5 -6.5,-4.5 -6.5,-18.5 0,-8 7,-15.5 7,-7.5 19,-7.5 13,0 19.5,11 6.5,11 6.5,23 0,18 -10,38 -10,20 -27,37 -17,17 -41.5,28 -24.5,11 -52.5,11 -29,0 -57.5,-9 -28.5,-9 -51.5,-28.5 -23,-19.5 -37,-48.5 -14,-29 -14,-70 0,-45 17,-81.5 17,-36.5 45,-64.5 -14,-15 -21.5,-35.5 -7.5,-20.5 -7.5,-47.5 0,-35 12.5,-64.5 12.5,-29.5 34.5,-55.5 -57,2 -111.5,29.5 -54.5,27.5 -97.5,76 -43,48.5 -69.5,115 Q 85,1457 85,1536 q 0,87 31,147.5 31,60.5 81,99 50,38.5 113,55.5 63,17 127,17 60,0 111.5,-19 51.5,-19 92,-51.5 40.5,-32.5 68.5,-76 28,-43.5 42,-92.5 -21,-1 -42,-7.5 -21,-6.5 -38,-20 -17,-13.5 -28,-35.5 -11,-22 -11,-54 z m 321,-22 q -15,23 -35,46 -20,23 -42.5,42.5 -22.5,19.5 -48.5,33 -26,13.5 -53,16.5 -12,47 -36,91 -24,44 -59.5,80 -35.5,36 -81.5,62 -46,26 -101,37 14,51 58,81 44,30 102,30 47,0 84,-24 37,-24 66,-64.5 29,-40.5 51.5,-93 Q 880,1762 897.5,1704 915,1646 928,1587.5 941,1529 953,1477 Z M 715,1063 q -33,0 -66.5,6.5 -33.5,6.5 -65.5,19 -32,12.5 -60.5,30.5 -28.5,18 -50.5,40 57,15 87,50 30,35 30,76 0,5 -0.5,10.5 -0.5,5.5 -1.5,10.5 20,3 39,8.5 19,5.5 36,13.5 8,-30 17,-60.5 9,-30.5 19,-62.5 12,-38 36,-71 24,-33 68,-60 -15,-2 -30,-5 -13,-2 -28,-4 -15,-2 -29,-2 z m -175,239 h 13.5 q 0,0 13.5,1 2,-10 2,-18 0,-36 -26.5,-67 -26.5,-31 -86.5,-42 -20,24 -31.5,51 -11.5,27 -11.5,57 0,32 9,51 28,-16 58.5,-24.5 30.5,-8.5 59.5,-8.5 z m 0,20 q -58,0 -108,29 13,16 30,21 17,5 31,5 17,0 37.5,-14 20.5,-14 31.5,-40 -6,0 -11.5,-0.5 Q 545,1322 540,1322 Z m 193,175 q 0,61 27,77 3,-22 3,-45 0,-29 -6.5,-53.5 Q 750,1451 739,1430 q -6,36 -6,67 z m 369,-591 q 8,0 16.5,14 8.5,14 8.5,26 0,17 -23,37 -28,25 -59.5,38 -31.5,13 -56.5,13 -4,0 -7.5,-2 -3.5,-2 -3.5,-7 0,-5 9,-9 22,-10 49.5,-34 27.5,-24 51.5,-65 5,-11 15,-11 z"></path></svg>
