<?xml version="1.0" encoding="UTF-8" standalone="no"?>
<svg xmlns="http://www.w3.org/2000/svg" width="4558" height="2057"><path id="path237" d="m 298,1834 -55,208 h 40 l -6,15 H 103 l 5,-15 h 40 l 59,-205 q -14,-53 -25,-98 -5,-19 -9,-38.5 -4,-19.5 -7.5,-36.5 -3.5,-17 -5.5,-30.5 -2,-13.5 -2,-20.5 0,-19 3,-27.5 3,-8.5 9,-16.5 -56,19 -76,48 -20,29 -20,64 0,36 8.5,54 8.5,18 25.5,29 l -7,7 Q 88,1767 70.5,1760 53,1753 37.5,1741 22,1729 11,1712.5 0,1696 0,1674 q 0,-42 43,-76 43,-34 131,-48 25,-4 48,-5 23,-1 52,-1 -14,11 -18,24.5 -4,13.5 -4,29.5 0,14 6,48 6,34 14,69 9,41 20,90 l 206,-246 h -43 l 6,-15 h 123 l -6,15 h -46 z m -11,-356 q 0,-16 11.5,-32.5 11.5,-16.5 29.5,-16.5 14,0 21,11 7,11 7,25 0,20 -13.5,33.5 -13.5,13.5 -27.5,13.5 -14,0 -21,-10 -7,-10 -7,-24 z m 99,0 q 0,-16 11.5,-32.5 11.5,-16.5 29.5,-16.5 14,0 21,11 7,11 7,25 0,20 -13.5,33.5 -13.5,13.5 -27.5,13.5 -14,0 -21,-10 -7,-10 -7,-24 z"></path></svg>
