<?xml version="1.0" encoding="UTF-8" standalone="no"?>
<svg xmlns="http://www.w3.org/2000/svg" width="4558" height="2057"><path id="path635" d="m 498,1984 q -61,0 -115,-11 -54,-11 -94.5,-33.5 -40.5,-22.5 -64,-57 Q 201,1848 201,1801 q 0,-34 8,-63 8,-29 17,-53.5 9,-24.5 17,-44.5 8,-20 8,-35 0,-16 -12,-16 -14,0 -38,15.5 -24,15.5 -50,44.5 -8,9 -16.5,29 -8.5,20 -15.5,41 -7,21 -11.5,39.5 -4.5,18.5 -4.5,24.5 0,14 -22,14 -7,0 -16,-1.5 -9,-1.5 -23,-1.5 -14,0 -24.5,4 -10.5,4 -13.5,4 -4,0 -4,-6 0,-4 6.5,-8.5 6.5,-4.5 11.5,-15.5 9,-19 18,-44 9,-25 17,-50 8,-25 13,-45.5 5,-20.5 5,-29.5 0,-13 -8,-13 -4,0 -10.5,4.5 -6.5,4.5 -13.5,9.5 -8,6 -16,13 l -7,-9 q 6,-6 17.5,-15.5 Q 45,1583 58,1574 q 13,-9 27,-15.5 14,-6.5 26,-6.5 18,0 30.5,8.5 12.5,8.5 12.5,23.5 0,9 -1.5,17.5 -1.5,8.5 -3.5,16.5 -2,9 -4,17 15,-17 33,-32 18,-15 37,-26.5 19,-11.5 37,-18 18,-6.5 32,-6.5 19,0 33,10.5 14,10.5 14,26.5 0,18 -7.5,39 -7.5,21 -17,46 -9.5,25 -17,53 -7.5,28 -7.5,61 0,87 56.5,133 56.5,46 166.5,46 56,0 119,-16 63,-16 125.5,-35.5 62.5,-19.5 121,-35.5 58.5,-16 104.5,-16 52,0 89.5,14.5 37.5,14.5 62,38.5 24.5,24 36,56 11.5,32 11.5,66 0,18 -8,18 -7,0 -9,-14 -9,-59 -58,-86.5 -49,-27.5 -133,-27.5 -56,0 -113,8.5 -57,8.5 -115.5,19 -58.5,10.5 -118.5,19 -60,8.5 -121,8.5 z M 342,1399 q 8,0 16.5,14 8.5,14 8.5,26 0,17 -23,37 -28,25 -59.5,38 -31.5,13 -56.5,13 -4,0 -7.5,-2 -3.5,-2 -3.5,-7 0,-5 9,-9 22,-10 49.5,-34 27.5,-24 51.5,-65 5,-11 15,-11 z"></path></svg>
