<?xml version="1.0" encoding="UTF-8" standalone="no"?>
<svg xmlns="http://www.w3.org/2000/svg" width="4558" height="2057"><path id="path825" d="m 1081,1797 q 96,0 167.5,-19.5 71.5,-19.5 119,-50.5 47.5,-31 71,-68 23.5,-37 23.5,-73 0,-28 -14,-58 -73,26 -145,54.5 -72,28.5 -141,52.5 -69,24 -134.5,39.5 Q 962,1690 903,1690 q -31,0 -64,-7 -33,-7 -60.5,-22 -27.5,-15 -45,-37.5 Q 716,1601 716,1570 q 0,-46 35,-85.5 35,-39.5 93,-68 58,-28.5 133,-44.5 75,-16 155,-16 58,0 110,10.5 52,10.5 95,29.5 43,19 76.5,45 33.5,26 54.5,56 89,-29 182.5,-50 93.5,-21 191.5,-21 59,0 106.5,14.5 47.5,14.5 80.5,39.5 33,25 51,59 18,34 18,73 0,59 -27,109.5 -27,50.5 -71.5,87 -44.5,36.5 -101.5,57.5 -57,21 -118,21 -46,0 -84.5,-10 -38.5,-10 -66,-27.5 -27.5,-17.5 -43,-40 -15.5,-22.5 -15.5,-48.5 0,-25 16,-48 16,-23 41.5,-40 25.5,-17 57,-27 31.5,-10 63.5,-10 51,0 74.5,20 23.5,20 23.5,51 0,16 -7.5,29.5 -7.5,13.5 -20.5,13.5 -8,0 -14.5,-5 -6.5,-5 -6.5,-14 0,-6 3.5,-10.5 3.5,-4.5 7.5,-8.5 4,-4 7.5,-8.5 3.5,-4.5 3.5,-10.5 0,-18 -14,-31.5 -14,-13.5 -53,-13.5 -27,0 -50,10 -23,10 -40.5,26 -17.5,16 -27.5,36.5 -10,20.5 -10,40.5 0,22 9.5,42.5 9.5,20.5 28.5,36.5 19,16 47.5,25.5 28.5,9.5 67.5,9.5 57,0 102,-20.5 45,-20.5 77,-54.5 32,-34 49,-78 17,-44 17,-92 0,-36 -11.5,-69 -11.5,-33 -37,-58 -25.5,-25 -66,-40 -40.5,-15 -98.5,-15 -81,0 -163.5,19.5 -82.5,19.5 -167.5,48.5 20,37 20,76 0,47 -24,97.5 -24,50.5 -75,92.5 -51,42 -129.5,69.5 -78.5,27.5 -187.5,27.5 -74,0 -145.5,-14.5 Q 866,1850 797.5,1827 729,1804 664,1775.5 599,1747 538,1718 q -51,85 -135.5,135 -84.5,50 -198.5,50 -47,0 -85,-12.5 Q 81,1878 54.5,1855.5 28,1833 14,1803 0,1773 0,1737 q 0,-37 16,-66 16,-29 43,-49 27,-20 61.5,-30.5 34.5,-10.5 71.5,-10.5 57,0 128.5,19.5 71.5,19.5 152.5,47.5 40,-82 40,-174 0,-53 -12,-92 -12,-39 -26,-74 -14,-35 -26,-72 -12,-37 -12,-85 0,-24 10.5,-42.5 10.5,-18.5 26.5,-31 16,-12.5 35,-18.5 19,-6 36,-6 28,0 48.5,14 20.5,14 20.5,36 0,19 -11.5,30.5 -11.5,11.5 -25.5,11.5 -15,0 -24,-7.5 -9,-7.5 -9,-18.5 0,-13 7.5,-19.5 7.5,-6.5 7.5,-18.5 0,-8 -5,-11.5 -5,-3.5 -10,-3.5 -15,0 -25,16 -10,16 -10,48 0,48 14.5,84 14.5,36 32.5,72 18,36 32.5,79.5 14.5,43.5 14.5,106.5 0,57 -11.5,108.5 -11.5,51.5 -32.5,97.5 61,22 126,43 65,21 131,38 66,17 132.5,27.5 66.5,10.5 132.5,10.5 z M 965,1652 q 46,0 100,-13.5 54,-13.5 113.5,-34.5 59.5,-21 124.5,-46.5 65,-25.5 134,-49.5 -18,-28 -48,-52.5 -30,-24.5 -70,-43 -40,-18.5 -88,-29 -48,-10.5 -102,-10.5 -74,0 -135,18.5 -61,18.5 -104.5,47 -43.5,28.5 -68,62 -24.5,33.5 -24.5,63.5 0,43 45,65.5 45,22.5 123,22.5 z m -777,180 q 91,0 158.5,-42.5 Q 414,1747 456,1680 381,1645 313,1621.5 245,1598 185,1598 q -30,0 -58,8.5 -28,8.5 -49.5,24.5 -21.5,16 -35,40 -13.5,24 -13.5,54 0,51 43.5,79 43.5,28 115.5,28 z m -4,142 q 0,-6 1.5,-13 1.5,-7 5,-13.5 3.5,-6.5 9.5,-11 6,-4.5 16,-4.5 15,0 24,11 9,11 9,25 0,12 -7,27 -7,15 -18,29 -11,14 -24,23.5 -13,9.5 -24,9.5 -9,0 -9,-7 0,-2 2.5,-4 2.5,-2 4.5,-4 7,-5 17,-15 10,-10 12,-28 -10,0 -14.5,-8 -4.5,-8 -4.5,-17 z"></path></svg>
