<?xml version="1.0" encoding="UTF-8" standalone="no"?>
<svg xmlns="http://www.w3.org/2000/svg" width="4558" height="2057"><path id="path597" d="m 98,1911 q -6,26 -9.5,47 -3.5,21 -3.5,33 0,15 5.5,20.5 5.5,5.5 13.5,5.5 9,0 18,-4.5 9,-4.5 17,-10.5 9,-6 17,-15 l 8,8 q -16,18 -34,31 -15,12 -33,21.5 -18,9.5 -35,9.5 -27,0 -44.5,-17.5 Q 0,2022 0,1996 q 0,-17 4,-39.5 4,-22.5 11,-49.5 28,-109 62.5,-206 34.5,-97 76,-176 41.5,-79 92,-137.5 Q 296,1329 356,1296 375,1221 413.5,1150.5 452,1080 508,1026 564,972 636.5,939.5 709,907 797,907 q 78,0 141.5,25.5 63.5,25.5 108.5,69 45,43.5 69.5,102.5 24.5,59 24.5,126 0,75 -29,138 -29,63 -77,108.5 -48,45.5 -109,70.5 -61,25 -125,25 -25,0 -53,-5 -22,64 -74,101.5 -52,37.5 -121,37.5 -40,0 -79,-13.5 -39,-13.5 -69.5,-44 Q 374,1618 355,1569 q -19,-49 -19,-121 0,-17 1,-33.5 1,-16.5 3,-33.5 -41,38 -75.5,93 Q 230,1529 200,1597.5 170,1666 144.5,1745 119,1824 98,1911 Z M 794,967 q -79,0 -145.5,25 -66.5,25 -119.5,68 -53,43 -91.5,100.5 Q 399,1218 378,1284 q 60,-26 126,-26 34,0 69,8 11,-35 31.5,-64 20.5,-29 47.5,-50 27,-21 59,-33 32,-12 68,-12 32,0 60.5,9.5 28.5,9.5 50.5,27 22,17.5 34.5,41.5 12.5,24 12.5,52 0,32 -13,47 -13,15 -27,15 -11,0 -18,-7.5 -7,-7.5 -7,-18.5 0,-10 5.5,-16.5 5.5,-6.5 12,-12.5 6.5,-6 12,-13 5.5,-7 5.5,-19 0,-15 -9.5,-31 -9.5,-16 -26.5,-28.5 -17,-12.5 -41,-20.5 -24,-8 -53,-8 -33,0 -62,10.5 -29,10.5 -53,30 -24,19.5 -41.5,46.5 -17.5,27 -27.5,59 76,22 122,77.5 46,55.5 46,139.5 0,32 -8,64 11,2 23,3 12,1 24,1 58,0 111.5,-24 53.5,-24 94.5,-66.5 41,-42.5 66,-100.5 25,-58 25,-126 0,-63 -21.5,-113 -21.5,-50 -61,-85 Q 975,1005 919,986 863,967 794,967 Z m -288,342 q -41,0 -77.5,14.5 -36.5,14.5 -69.5,40.5 -6,41 -6,82 0,69 19,116 19,47 48,76.5 29,29.5 65,42 36,12.5 71,12.5 58,0 102,-35.5 44,-35.5 61,-97.5 -70,-21 -114,-77 -44,-56 -44,-137 v -16 q 0,0 2,-16 -14,-2 -28.5,-3.5 Q 520,1309 506,1309 Z m 221,187 q 0,-37 -11,-66.5 -11,-29.5 -30.5,-51 Q 666,1357 640,1342 q -26,-15 -56,-23 -1,6 -1,12 v 12 q 0,40 10.5,72.5 10.5,32.5 29.5,57.5 19,25 44,42.5 25,17.5 55,27.5 2,-11 3.5,-22.5 Q 727,1509 727,1496 Z M 581,1104 q 8,0 16.5,14 8.5,14 8.5,26 0,17 -23,37 -28,25 -59.5,38 -31.5,13 -56.5,13 -4,0 -7.5,-2 -3.5,-2 -3.5,-7 0,-5 9,-9 22,-10 49.5,-34 27.5,-24 51.5,-65 5,-11 15,-11 z"></path></svg>
