<?xml version="1.0" encoding="UTF-8" standalone="no"?>
<svg xmlns="http://www.w3.org/2000/svg" width="4558" height="2057"><path id="path588" d="m 576,1553 q 40,-113 90,-190 50,-77 103,-124.5 53,-47.5 106,-68.5 53,-21 100,-21 38,0 64,11 26,11 42,29 16,18 23,41 7,23 7,47 0,68 -40.5,131.5 -40.5,63.5 -108.5,117 -68,53.5 -157,94.5 -89,41 -186,64 -15,44 -29,89 -14,45 -25,86 -11,41 -18,75.5 -7,34.5 -7,56.5 0,15 5.5,20.5 5.5,5.5 13.5,5.5 9,0 18,-4.5 9,-4.5 17,-10.5 9,-6 17,-15 l 8,8 q -16,18 -34,31 -15,12 -33,21.5 -18,9.5 -35,9.5 -27,0 -44.5,-17.5 Q 455,2022 455,1996 q 0,-21 5.5,-54 5.5,-33 15.5,-72 10,-39 22.5,-82.5 12.5,-43.5 26.5,-86.5 -27,4 -54.5,5.5 -27.5,1.5 -54.5,1.5 -77,0 -151.5,-15.5 Q 190,1677 131.5,1641 73,1605 36.5,1545.5 0,1486 0,1399 0,1307 40.5,1227 81,1147 147,1087.5 213,1028 295.5,994 378,960 462,960 q 101,0 159,43.5 58,43.5 58,118.5 0,47 -25.5,94.5 -25.5,47.5 -66.5,85 -41,37.5 -93.5,61 Q 441,1386 387,1386 q -56,0 -87.5,-25 -31.5,-25 -31.5,-68 0,-20 8.5,-35.5 8.5,-15.5 22.5,-15.5 8,0 13.5,5 5.5,5 5.5,13 0,7 -4.5,11.5 -4.5,4.5 -10,9 -5.5,4.5 -10,10 -4.5,5.5 -4.5,14.5 0,30 25,47.5 25,17.5 73,17.5 48,0 91,-21.5 43,-21.5 75.5,-56 32.5,-34.5 51.5,-78.5 19,-44 19,-88 0,-66 -39,-108.5 Q 546,975 461,975 386,975 314.5,1008.5 243,1042 188,1099 133,1156 99.5,1232.5 66,1309 66,1395 q 0,83 30,139 30,56 81,90.5 51,34.5 118,49 67,14.5 140,14.5 47,0 97,-6 23,-72 44,-129 z m 50,110 q 88,-22 170.5,-60.5 82.5,-38.5 146.5,-88 64,-49.5 102,-106.5 38,-57 38,-116 0,-37 -24,-59.5 -24,-22.5 -67,-22.5 -39,0 -83,20 -44,20 -91,71 -47,51 -95.5,139 -48.5,88 -96.5,223 z m 411,-664 q 8,0 16.5,14 8.5,14 8.5,26 0,17 -23,37 -28,25 -59.5,38 -31.5,13 -56.5,13 -4,0 -7.5,-2 -3.5,-2 -3.5,-7 0,-5 9,-9 22,-10 49.5,-34 27.5,-24 51.5,-65 5,-11 15,-11 z"></path></svg>
