<?xml version="1.0" encoding="UTF-8" standalone="no"?>
<svg xmlns="http://www.w3.org/2000/svg" width="4558" height="2057"><path id="path839" d="M 91,2054 Q 53,2054 26.5,2036.5 0,2019 0,1989 0,1969 13.5,1957.5 27,1946 44,1946 q 12,0 20.5,8 8.5,8 8.5,21 0,8 -2.5,13 -2.5,5 -6,9 -3.5,4 -6,8.5 -2.5,4.5 -2.5,10.5 0,9 6.5,16 6.5,7 20.5,7 21,0 30,-14 9,-14 9,-32 0,-19 -12.5,-32 Q 97,1948 82,1936.5 67,1925 54.5,1911.5 42,1898 42,1877 q 0,-19 11,-33 11,-14 28,-23 17,-9 37,-13.5 20,-4.5 37,-4.5 24,0 42,9 17,-14 45.5,-25 28.5,-11 58.5,-25 l 39,-124 q 7,-23 22.5,-40.5 15.5,-17.5 36,-29.5 20.5,-12 44,-18.5 23.5,-6.5 46.5,-6.5 31,0 53.5,17 22.5,17 22.5,44 0,22 -14.5,40.5 -14.5,18.5 -39,35 -24.5,16.5 -56.5,31 -32,14.5 -66,29.5 -10,30 -18.5,59.5 -8.5,29.5 -15.5,52.5 -8,27 -15,52 19,-21 37.5,-39.5 18.5,-18.5 35.5,-32.5 17,-14 31.5,-22 14.5,-8 26.5,-8 19,0 28.5,11.5 9.5,11.5 9.5,25.5 0,15 -9,30 -9,15 -31,15 -14,0 -21.5,-8 -7.5,-8 -7.5,-20 0,-9 -5,-9 -5,0 -13,4.5 -8,4.5 -16.5,11.5 -8.5,7 -16.5,14 -8,7 -12,13 7,16 15,34 7,15 16,33.5 9,18.5 19,35.5 9,17 21.5,30.5 12.5,13.5 33.5,18.5 l 1,9 h -57 q -23,0 -43,-8 -20,-8 -28,-25 l -30,-64 q -11,33 -16,55 -5,22 -5,29 0,15 -14,15 -8,0 -21,-2 -13,-2 -26,-2 -14,0 -24,4 -10,4 -13,4 -4,0 -4,-4 0,-3 6,-9 6,-6 12,-18 10,-21 19.5,-50.5 9.5,-29.5 21.5,-73.5 1,-4 5,-17.5 4,-13.5 9,-31 5,-17.5 10.5,-37 5.5,-19.5 10.5,-35.5 -26,12 -48.5,21 -22.5,9 -37.5,20 14,12 14,31 0,20 -11,30.5 -11,10.5 -26,10.5 -14,0 -22.5,-7 -8.5,-7 -8.5,-18 0,-14 6.5,-20.5 6.5,-6.5 6.5,-17.5 0,-15 -15,-15 -14,0 -25,10 -11,10 -11,25 0,22 13.5,36.5 13.5,14.5 30,27 16.5,12.5 30,26 13.5,13.5 13.5,33.5 0,18 -10,33 -10,15 -26,25.5 -16,10.5 -36.5,16 Q 112,2054 91,2054 Z m 347,-451 q -8,13 -18.5,44 -10.5,31 -24.5,73 55,-26 89.5,-58.5 34.5,-32.5 34.5,-74.5 0,-14 -7.5,-21.5 -7.5,-7.5 -18.5,-7.5 -17,0 -29.5,11 -12.5,11 -25.5,34 z"></path></svg>
