<?xml version="1.0" encoding="UTF-8" standalone="no"?>
<svg xmlns="http://www.w3.org/2000/svg" width="4558" height="2057"><path id="path628" d="m 1129,1522 q 0,-56 -39,-91.5 -39,-35.5 -108,-35.5 -66,0 -130.5,16.5 -64.5,16.5 -128,41 -63.5,24.5 -128,53 -64.5,28.5 -131,53 -66.5,24.5 -137,41 Q 257,1616 182,1616 136,1616 101.5,1603.5 67,1591 44.5,1571 22,1551 11,1524.5 0,1498 0,1469 q 0,-39 15,-69 15,-30 38,-50 23,-20 51.5,-30.5 28.5,-10.5 55.5,-10.5 21,0 37,7 16,7 16,20 0,12 -7,19.5 -7,7.5 -20,7.5 -9,0 -14,-4.5 -5,-4.5 -9.5,-10 -4.5,-5.5 -9.5,-10 -5,-4.5 -15,-4.5 -17,0 -38,8.5 -21,8.5 -39,26 -18,17.5 -30.5,43.5 -12.5,26 -12.5,60 0,26 11,49 11,23 32.5,40 21.5,17 53.5,27 32,10 74,10 72,0 141,-19.5 69,-19.5 135.5,-48.5 66.5,-29 132,-63.5 Q 663,1432 728,1403 793,1374 858.5,1354.5 924,1335 992,1335 q 40,0 71,12.5 31,12.5 52.5,34.5 21.5,22 32.5,52 11,30 11,65 0,71 -20.5,145.5 -20.5,74.5 -54,142.5 -33.5,68 -78,125.5 -44.5,57.5 -92.5,94.5 -65,50 -125,50 -35,0 -62,-15 -27,-15 -27,-47 0,-18 6.5,-36.5 6.5,-18.5 14,-36.5 7.5,-18 14,-35.5 6.5,-17.5 6.5,-32.5 0,-16 -12,-16 -10,0 -32,12 -22,12 -52,49 -8,9 -15.5,29 -7.5,20 -14.5,41 -7,21 -11,39 -4,18 -4,24 0,8 -7,11 -7,3 -14,3 -8,0 -17,-1.5 -9,-1.5 -21,-1.5 -10,0 -19.5,3 -9.5,3 -12.5,3 -5,0 -5,-6 0,-4 5,-7 5,-3 10,-14 8,-20 16,-45 8,-25 14,-48.5 6,-23.5 10,-43.5 4,-20 4,-31 0,-19 -12,-19 -7,0 -24,11.5 -17,11.5 -46,48.5 -8,9 -16,29.5 -8,20.5 -15,42.5 -7,22 -11.5,40.5 -4.5,18.5 -4.5,24.5 0,14 -22,14 -7,0 -16,-1.5 -9,-1.5 -23,-1.5 -14,0 -24.5,4 -10.5,4 -13.5,4 -4,0 -4,-6 0,-4 6.5,-8.5 6.5,-4.5 11.5,-15.5 9,-19 18,-44 9,-25 17,-50 8,-25 13,-45.5 5,-20.5 5,-29.5 0,-13 -8,-13 -4,0 -10.5,4.5 -6.5,4.5 -13.5,9.5 -8,6 -16,13 l -8,-9 q 6,-6 17.5,-15.5 11.5,-9.5 25,-18.5 13.5,-9 27.5,-15.5 14,-6.5 26,-6.5 18,0 30.5,8.5 12.5,8.5 12.5,23.5 0,15 -3.5,28.5 -3.5,13.5 -5.5,17.5 26,-33 56.5,-55.5 30.5,-22.5 59.5,-22.5 21,0 36,10.5 15,10.5 15,27.5 0,18 -4,32.5 -4,14.5 -6,18.5 15,-20 33.5,-36.5 18.5,-16.5 37,-28 18.5,-11.5 37,-18 18.5,-6.5 33.5,-6.5 17,0 32,10.5 15,10.5 15,26.5 0,18 -5,35 -5,17 -10.5,35 -5.5,18 -10.5,37 -5,19 -5,40 0,15 8,23 8,8 31,8 17,0 38,-6.5 21,-6.5 43,-23.5 42,-31 81,-82.5 39,-51.5 70,-114 31,-62.5 49.5,-131.5 18.5,-69 18.5,-136 z"></path></svg>
