<?xml version="1.0" encoding="UTF-8" standalone="no"?>
<svg xmlns="http://www.w3.org/2000/svg" width="4558" height="2057"><path id="path554" d="m 705,1904 q 19,-21 37.5,-39.5 18.5,-18.5 35.5,-32.5 17,-14 31.5,-22 14.5,-8 26.5,-8 19,0 28.5,11.5 9.5,11.5 9.5,25.5 0,15 -9,30 -9,15 -31,15 -14,0 -21.5,-8 -7.5,-8 -7.5,-20 0,-9 -5,-9 -5,0 -13,4.5 -8,4.5 -16.5,11.5 -8.5,7 -16.5,14 -8,7 -12,13 7,16 15,34 7,15 16,33.5 9,18.5 19,35.5 9,17 21.5,30.5 12.5,13.5 33.5,18.5 l 1,9 h -57 q -23,0 -43,-8 -20,-8 -28,-25 l -30,-64 q -11,33 -16,55 -5,22 -5,29 0,15 -14,15 -8,0 -21,-2 -13,-2 -26,-2 -14,0 -24,4 -10,4 -13,4 -4,0 -4,-4 0,-3 6,-9 6,-6 12,-18 11,-21 20,-50 9,-29 21,-74 29,-113 72,-226.5 Q 741,1562 801,1465 735,1444 668,1422.5 601,1401 531,1383.5 461,1366 386.5,1355 312,1344 230,1344 130,1344 77.5,1386 25,1428 16,1497 q -1,6 -2,11.5 -1,5.5 -6,5.5 -5,0 -6.5,-6 -1.5,-6 -1.5,-15 0,-37 12,-79.5 12,-42.5 39,-77.5 27,-35 70,-58.5 43,-23.5 105,-23.5 67,0 139.5,17.5 72.5,17.5 147.5,44.5 75,27 152,59 77,32 155,61 35,-52 75,-95.5 40,-43.5 86,-74.5 46,-31 97.5,-48.5 51.5,-17.5 109.5,-17.5 46,0 83,10.5 37,10.5 63,31 26,20.5 40.5,49 14.5,28.5 14.5,64.5 0,44 -18.5,78 -18.5,34 -48,57 -29.5,23 -66.5,35 -37,12 -74,12 -82,0 -158,-14 -76,-14 -151,-36 -51,82 -93,187 -42,105 -75,230 z m 482,-637 q -88,0 -161.5,51 -73.5,51 -135.5,143 75,26 148.5,42 73.5,16 145.5,16 30,0 60,-11 30,-11 54,-31 24,-20 38.5,-47 14.5,-27 14.5,-60 0,-26 -13.5,-45.5 -13.5,-19.5 -36.5,-32 -23,-12.5 -52.5,-19 -29.5,-6.5 -61.5,-6.5 z"></path></svg>
