<?xml version="1.0" encoding="UTF-8" standalone="no"?>
<svg xmlns="http://www.w3.org/2000/svg" width="4558" height="2057"><path id="path661" d="m 1129,1528 q 0,-56 -39,-91.5 -39,-35.5 -108,-35.5 -67,0 -131,16.5 -64,16.5 -127.5,41 -63.5,24.5 -128,53 -64.5,28.5 -131,53 -66.5,24.5 -137,41 Q 257,1622 182,1622 136,1622 101.5,1609.5 67,1597 44.5,1577 22,1557 11,1530.5 0,1504 0,1475 q 0,-39 15,-69 15,-30 38,-50 23,-20 51.5,-30.5 28.5,-10.5 55.5,-10.5 21,0 37,7 16,7 16,20 0,12 -7,19.5 -7,7.5 -20,7.5 -9,0 -14,-4.5 -5,-4.5 -9.5,-10 -4.5,-5.5 -9.5,-10 -5,-4.5 -15,-4.5 -17,0 -38,8.5 -21,8.5 -39,26 -18,17.5 -30.5,43.5 -12.5,26 -12.5,60 0,26 11,49 11,23 32.5,40 21.5,17 53.5,27 32,10 74,10 72,0 141,-19.5 69,-19.5 135.5,-48.5 66.5,-29 132,-63.5 Q 663,1438 728,1409 793,1380 858.5,1360.5 924,1341 992,1341 q 40,0 71,12.5 31,12.5 52.5,34.5 21.5,22 32.5,52 11,30 11,65 0,71 -21,144 -21,73 -55.5,140 -34.5,67 -79,123 -44.5,56 -92.5,93 -65,50 -125,50 -35,0 -61.5,-15 -26.5,-15 -26.5,-47 0,-18 7,-35 7,-17 15,-34 8,-17 15,-33 7,-16 7,-31 0,-16 -12,-16 -14,0 -38,15.5 -24,15.5 -50,44.5 -8,9 -16.5,29 -8.5,20 -15.5,41 -7,21 -11.5,39.5 -4.5,18.5 -4.5,24.5 0,14 -22,14 -7,0 -16,-1.5 -9,-1.5 -23,-1.5 -14,0 -24.5,4 -10.5,4 -13.5,4 -4,0 -4,-6 0,-4 6.5,-8.5 6.5,-4.5 11.5,-15.5 9,-19 18,-44 9,-25 17,-50 8,-25 13,-45.5 5,-20.5 5,-29.5 0,-13 -8,-13 -4,0 -10.5,4.5 -6.5,4.5 -13.5,9.5 -8,6 -16,13 l -7,-9 q 6,-6 17.5,-15.5 11.5,-9.5 24.5,-18.5 13,-9 27,-15.5 14,-6.5 26,-6.5 18,0 30.5,8.5 12.5,8.5 12.5,23.5 0,9 -1.5,17.5 -1.5,8.5 -3.5,16.5 -2,9 -4,17 15,-17 33,-32 18,-15 37,-26.5 19,-11.5 37,-18 18,-6.5 32,-6.5 19,0 33,10.5 14,10.5 14,26.5 0,18 -5.5,34 -5.5,16 -12,32 -6.5,16 -12,34 -5.5,18 -5.5,39 0,31 39,31 17,0 37.5,-6 20.5,-6 42.5,-23 42,-31 82,-80.5 40,-49.5 71.5,-110.5 31.5,-61 50.5,-129 19,-68 19,-137 z m -349,254 q -15,0 -28.5,-4.5 -13.5,-4.5 -26,-10.5 -12.5,-6 -25.5,-10.5 -13,-4.5 -27,-4.5 -15,0 -23.5,3 -8.5,3 -13.5,7 -5,4 -8,7 -3,3 -6,3 -7,0 -7,-7 0,-4 5.5,-13.5 5.5,-9.5 15,-18.5 9.5,-9 23,-16 13.5,-7 29.5,-7 15,0 27,4 12,4 24.5,9.5 12.5,5.5 25.5,9.5 13,4 29,4 25,0 36,-8.5 11,-8.5 16,-8.5 6,0 6,7 0,5 -5.5,14.5 -5.5,9.5 -15,18.5 -9.5,9 -23,15.5 -13.5,6.5 -28.5,6.5 z"></path></svg>
