<?xml version="1.0" encoding="UTF-8" standalone="no"?>
<svg xmlns="http://www.w3.org/2000/svg" width="4558" height="2057"><path id="path84" d="m 491,2057 q -45,0 -78,-14 -33,-14 -56,-36 -34,13 -72,13 -50,0 -100.5,-15 Q 134,1990 93,1957.5 52,1925 26,1875 0,1825 0,1756 0,1668 39.5,1603.5 79,1539 140.5,1496.5 202,1454 275,1433 q 73,-21 141,-21 h 10 q 0,0 10,1 28,-22 63.5,-38.5 35.5,-16.5 73,-27 37.5,-10.5 74.5,-15.5 37,-5 69,-5 27,0 46,1 19,1 33.5,2.5 14.5,1.5 25.5,2.5 11,1 22,1 18,0 35.5,-3 17.5,-3 33.5,-11 l 5,10 q -21,11 -38,31.5 -17,20.5 -30.5,46 -13.5,25.5 -23,52.5 -9.5,27 -14.5,49 -16,69 -30.5,136.5 Q 766,1713 749,1774 q -17,61 -39,112.5 -22,51.5 -52,89.5 -30,38 -71,59.5 -41,21.5 -96,21.5 z M 79,1756 q 0,63 17,109 17,46 45.5,76 28.5,30 67,45 38.5,15 81.5,15 28,0 54,-8 -17,-21 -27,-45.5 -10,-24.5 -13,-47.5 l 12,-6 q 5,28 20.5,49.5 15.5,21.5 39.5,35.5 35,-20 53.5,-55.5 18.5,-35.5 18.5,-78.5 0,-25 -6.5,-40.5 -6.5,-15.5 -16,-24 -9.5,-8.5 -20,-11 -10.5,-2.5 -18.5,-2.5 -10,0 -16,2.5 -6,2.5 -11,6 -5,3.5 -10.5,6 -5.5,2.5 -13.5,2.5 -11,0 -19,-8.5 -8,-8.5 -8,-21.5 0,-14 14,-23.5 14,-9.5 31,-9.5 19,0 38.5,8 19.5,8 35.5,23.5 16,15.5 26.5,38 10.5,22.5 10.5,51.5 0,45 -18.5,83 -18.5,38 -53.5,62 28,11 59,11 41,0 72.5,-21 31.5,-21 56,-57 24.5,-36 44,-84 19.5,-48 36.5,-102.5 17,-54.5 32.5,-112 Q 709,1564 727,1509 q 6,-20 14,-41.5 8,-21.5 19.5,-41.5 11.5,-20 26.5,-37.5 15,-17.5 35,-31.5 -14,-2 -29,-5 -13,-2 -27.5,-4 -14.5,-2 -28.5,-2 -66,0 -128.5,20.5 Q 546,1387 503,1425 q 51,17 77.5,50.5 26.5,33.5 26.5,72.5 0,29 -10.5,52.5 -10.5,23.5 -27,41 -16.5,17.5 -37,27 -20.5,9.5 -41.5,9.5 -22,0 -45,-7 -23,-7 -42,-22 -19,-15 -31,-38.5 -12,-23.5 -12,-57.5 0,-36 14,-66 14,-30 38,-54 -54,0 -113,21 -59,21 -108,61.5 -49,40.5 -81,100.5 -32,60 -32,140 z m 509,-208 q 0,-33 -23.5,-63 -23.5,-30 -77.5,-44 -21,23 -32.5,50 -11.5,27 -11.5,59 0,30 7,47.5 7,17.5 17.5,27 10.5,9.5 22.5,12.5 12,3 22,3 12,0 25,-6 13,-6 24.5,-18 11.5,-12 19,-29 7.5,-17 7.5,-39 z"></path></svg>
