<?xml version="1.0" encoding="UTF-8" standalone="no"?>
<svg xmlns="http://www.w3.org/2000/svg" width="4558" height="2057"><path id="path575" d="m 123,1996 q 0,-36 8,-81.5 8,-45.5 19,-91 11,-45.5 23.5,-87 Q 186,1695 195,1666 102,1650 51,1596.5 0,1543 0,1473 q 0,-35 10.5,-52 10.5,-17 23.5,-17 12,0 18.5,6.5 6.5,6.5 6.5,17.5 0,10 -5.5,15.5 -5.5,5.5 -12,11 -6.5,5.5 -12,13.5 -5.5,8 -5.5,23 0,25 11,50 11,25 33,47 22,22 55,38.5 33,16.5 77,23.5 33,-106 77.5,-193 44.5,-87 97.5,-149.5 53,-62.5 113,-96.5 60,-34 124,-34 37,0 65,11.5 28,11.5 46.5,30.5 18.5,19 28,44.5 9.5,25.5 9.5,53.5 0,47 -19,91 -19,44 -52,83 -33,39 -78.5,71.5 -45.5,32.5 -98.5,56 -53,23.5 -111,38 -58,14.5 -117,17.5 -11,35 -24,78.5 -13,43.5 -25,88 -12,44.5 -20,85 -8,40.5 -8,69.5 0,11 5.5,16.5 5.5,5.5 13.5,5.5 9,0 18,-4.5 9,-4.5 17,-10.5 9,-6 17,-15 l 8,8 q -16,18 -34,31 -15,12 -33,21.5 -18,9.5 -35,9.5 -27,0 -44.5,-17.5 Q 123,2022 123,1996 Z m 521,-752 q -60,0 -112,29 -52,29 -95.5,82.5 Q 393,1409 357,1485 q -36,76 -66,170 82,-4 161,-31.5 79,-27.5 141,-72.5 62,-45 100,-104.5 38,-59.5 38,-125.5 0,-34 -21.5,-55.5 Q 688,1244 644,1244 Z"></path></svg>
