<?xml version="1.0" encoding="UTF-8" standalone="no"?>
<svg xmlns="http://www.w3.org/2000/svg" width="4558" height="2057"><path id="path318" d="m 669,1748 q 9,-10 22,-18.5 13,-8.5 27,-15.5 14,-7 27.5,-11 13.5,-4 24.5,-4 27,0 50,18.5 23,18.5 23,59.5 0,31 -12,61.5 -12,30.5 -32,54.5 -20,24 -47,38.5 -27,14.5 -57,14.5 -36,0 -56,-16 -20,-16 -27,-33 -17,18 -31.5,27.5 -14.5,9.5 -27.5,14.5 -13,5 -23,6 -10,1 -17,1 v -7 q 14,-6 24.5,-22.5 10.5,-16.5 19.5,-41.5 9,-25 17.5,-57 8.5,-32 17.5,-70 36,-153 90,-293 -77,13 -151,30 -74,17 -140,40 -66,23 -121,53.5 -55,30.5 -95,71 -40,40.5 -62.5,93.5 -22.5,53 -22.5,121 0,78 45,120 45,42 126,42 42,0 80.5,-16.5 38.5,-16.5 68.5,-44.5 30,-28 48,-64.5 18,-36.5 18,-76.5 0,-33 -8.5,-57 -8.5,-24 -23,-39.5 -14.5,-15.5 -32.5,-23 -18,-7.5 -36,-7.5 -11,0 -18,5 -7,5 -12.5,11 -5.5,6 -11,11 -5.5,5 -11.5,5 -26,0 -26,-25 0,-12 16,-22 16,-10 43,-10 27,0 52.5,9 25.5,9 45.5,28 20,19 32,47 12,28 12,66 0,44 -20,86.5 -20,42.5 -55,75.5 -35,33 -83,53 -48,20 -104,20 -41,0 -83,-11.5 Q 111,2034 77,2008 43,1982 21.5,1941.5 0,1901 0,1842 q 0,-72 27,-127 27,-55 75.5,-96.5 48.5,-41.5 114,-71.5 65.5,-30 142.5,-52 77,-22 162,-38 85,-16 172,-30 61,-156 140,-290.5 79,-134.5 173,-233 94,-98.5 202.5,-154.5 108.5,-56 229.5,-56 99,0 171,28.5 72,28.5 118.5,79 46.5,50.5 69,118.5 22.5,68 22.5,146 0,73 -20.5,141.5 -20.5,68.5 -57.5,128.5 -37,60 -87.5,110 -50.5,50 -111.5,86 -61,36 -129,56 -68,20 -139,20 -61,0 -110,-15 -49,-15 -84.5,-42 -35.5,-27 -57,-64.5 Q 1001,1448 995,1404 q -54,10 -111,18.5 -57,8.5 -114,17.5 -61,151 -101,308 z m 776,-975 q -101,0 -195,49.5 -94,49.5 -179,135.5 -85,86 -158,203 -73,117 -131,253 54,-8 107,-16 53,-8 104,-17 0,-77 28.5,-145.5 28.5,-68.5 75,-120 46.5,-51.5 105.5,-81.5 59,-30 120,-30 65,0 104,31.5 39,31.5 39,83.5 0,65 -35,111 -35,46 -95,78.5 -60,32.5 -141,54 -81,21.5 -173,37.5 6,39 25.5,73.5 19.5,34.5 52,59.5 32.5,25 76.5,39.5 44,14.5 98,14.5 103,0 193,-42 90,-42 157,-112.5 67,-70.5 105.5,-162 38.5,-91.5 38.5,-190.5 0,-78 -23,-135.5 -23,-57.5 -65.5,-96 -42.5,-38.5 -102,-57 Q 1517,773 1445,773 Z m -426,603 q 80,-15 148.5,-35 68.5,-20 119,-48.5 50.5,-28.5 79,-67.5 28.5,-39 28.5,-92 0,-46 -27.5,-69 -27.5,-23 -74.5,-23 -49,0 -98,26 -49,26 -88,71.5 -39,45.5 -63,106.5 -24,61 -24,131 z m -286,352 q -6,0 -16.5,4.5 -10.5,4.5 -22,13.5 -11.5,9 -22.5,22.5 -11,13.5 -17,31.5 -3,7 -6.5,18.5 -3.5,11.5 -7,23.5 -3.5,12 -6,23 -2.5,11 -2.5,16 0,24 14,32.5 14,8.5 27,8.5 16,0 30.5,-15.5 14.5,-15.5 26,-39 11.5,-23.5 18,-50 6.5,-26.5 6.5,-49.5 0,-40 -22,-40 z"></path></svg>
