<?xml version="1.0" encoding="UTF-8" standalone="no"?>
<svg xmlns="http://www.w3.org/2000/svg" width="4558" height="2057"><path id="path334" d="m 121,1737 q 0,6 5,7 5,1 8,1 10,0 21.5,-2.5 11.5,-2.5 16.5,-2.5 9,0 12.5,5.5 3.5,5.5 3.5,10.5 0,18 -12.5,32.5 -12.5,14.5 -30.5,24.5 -18,10 -39,15.5 -21,5.5 -39,5.5 -4,0 -13,-1 -9,-1 -18,-3.5 -9,-2.5 -16,-6 -7,-3.5 -7,-9.5 0,-7 6,-14.5 6,-7.5 12,-7.5 4,0 7,3 3,3 8,7 5,4 13,7 8,3 23,3 10,0 22.5,-3 12.5,-3 23,-8.5 10.5,-5.5 17.5,-13 7,-7.5 7,-16.5 0,-8 -9,-8 -14,0 -26.5,4 -12.5,4 -29.5,4 -5,0 -8,-4.5 -3,-4.5 -3,-8.5 l 8,-34 q -15,-1 -30,-6 -15,-5 -27,-14 Q 15,1695 7.5,1680.5 0,1666 0,1646 q 0,-39 17,-70 17,-31 43.5,-52.5 26.5,-21.5 57.5,-33 31,-11.5 59,-11.5 29,0 49.5,14.5 20.5,14.5 20.5,35.5 0,17 -10.5,30 -10.5,13 -27.5,13 -14,0 -24,-7.5 -10,-7.5 -10,-18.5 0,-14 9,-22 9,-8 9,-18 0,-12 -10,-12 -20,0 -37,12 -17,12 -30,31 -13,19 -20,44 -7,25 -7,50 0,34 13.5,48.5 13.5,14.5 33.5,14.5 38,0 83,-16 45,-16 95,-40 50,-24 103.5,-52 53.5,-28 108,-52 54.5,-24 109.5,-40 55,-16 108,-16 40,0 78,9 38,9 67.5,28.5 29.5,19.5 47.5,50.5 18,31 18,76 0,75 -37,149 -37,74 -98,133 -61,59 -139.5,96 -78.5,37 -162.5,37 -47,0 -87,-8 -40,-8 -69.5,-25.5 -29.5,-17.5 -46.5,-44 -17,-26.5 -17,-63.5 0,-61 34.5,-113 34.5,-52 85.5,-89 51,-37 108.5,-58 57.5,-21 103.5,-21 43,0 73,19.5 30,19.5 30,65.5 0,21 -7,35 -7,14 -21,14 -9,0 -16.5,-5.5 -7.5,-5.5 -7.5,-16.5 0,-8 4.5,-12.5 4.5,-4.5 9.5,-9 5,-4.5 9.5,-9.5 4.5,-5 4.5,-14 0,-22 -21.5,-37 -21.5,-15 -57.5,-15 -42,0 -89,22 -47,22 -86.5,58.5 -39.5,36.5 -65.5,83.5 -26,47 -26,97 0,32 12,56.5 12,24.5 34,41 22,16.5 51.5,24.5 29.5,8 65.5,8 73,0 137.5,-35.5 Q 727,1970 775,1913 q 48,-57 76,-127.5 28,-70.5 28,-139.5 0,-39 -11.5,-67 -11.5,-28 -31.5,-46 -20,-18 -47.5,-27 -27.5,-9 -58.5,-9 -47,0 -97,15.5 -50,15.5 -102,39 -52,23.5 -104.5,51 -52.5,27.5 -104.5,53 -52,25.5 -101.5,44 -49.5,18.5 -95.5,23.5 -2,2 -3,7 -1,5 -1,7 z"></path></svg>
