<?xml version="1.0" encoding="UTF-8" standalone="no"?>
<svg xmlns="http://www.w3.org/2000/svg" width="4558" height="2057"><path id="path545" d="m 1091,2049 q -79,0 -155.5,-19 -76.5,-19 -150,-49 -73.5,-30 -143,-66.5 Q 573,1878 508,1843 q -67,89 -153,129.5 -86,40.5 -174,40.5 -37,0 -70,-11 Q 78,1991 53.5,1971 29,1951 14.5,1922 0,1893 0,1857 q 0,-36 15.5,-65 15.5,-29 41.5,-49 26,-20 60.5,-31 34.5,-11 72.5,-11 54,0 120,20.5 66,20.5 143,52.5 29,-46 53.5,-104 24.5,-58 42.5,-130 8,-31 16.5,-72 8.5,-41 17,-81.5 8.5,-40.5 15,-75.5 6.5,-35 11.5,-56 5,-22 13.5,-34.5 Q 631,1208 646,1199 h -7.5 q 0,0 -10.5,-1 -9,0 -17,-2 -4,-1 -7,-2 l 8,-12 8,2 q 5,1 21,1 17,0 43,-4.5 26,-4.5 58,-18.5 l 5,9 q -8,6 -15,13 -6,6 -13.5,15.5 -7.5,9.5 -13.5,20.5 -13,23 -19.5,43.5 -6.5,20.5 -12.5,45.5 -5,18 -10.5,46.5 -5.5,28.5 -11.5,61.5 -6,33 -11.5,66 -5.5,33 -10.5,60 -15,81 -40,146.5 -25,65.5 -57,117.5 66,28 135.5,56.5 69.5,28.5 140,51.5 70.5,23 141.5,37.5 71,14.5 140,14.5 96,0 167.5,-19.5 71.5,-19.5 119,-50.5 47.5,-31 71,-68 23.5,-37 23.5,-73 0,-28 -14,-58 -73,26 -145,54.5 -72,28.5 -141,52.5 -69,24 -134.5,39.5 Q 970,1860 911,1860 q -31,0 -64,-7 -33,-7 -60.5,-22 -27.5,-15 -45,-37.5 Q 724,1771 724,1740 q 0,-46 35,-85.5 35,-39.5 93,-68 58,-28.5 133,-44.5 75,-16 155,-16 58,0 110,10.5 52,10.5 95,29.5 43,19 76.5,45 33.5,26 54.5,56 89,-29 182.5,-50 93.5,-21 191.5,-21 59,0 106.5,14.5 47.5,14.5 80.5,39.5 33,25 51,59 18,34 18,73 0,59 -27,109.5 -27,50.5 -71.5,87 -44.5,36.5 -101.5,57.5 -57,21 -118,21 -46,0 -84.5,-10 -38.5,-10 -66,-27.5 -27.5,-17.5 -43,-40 -15.5,-22.5 -15.5,-48.5 0,-25 16,-48 16,-23 41.5,-40 25.5,-17 57,-27 31.5,-10 63.5,-10 51,0 74.5,20 23.5,20 23.5,51 0,16 -7.5,29.5 -7.5,13.5 -20.5,13.5 -8,0 -14.5,-5 -6.5,-5 -6.5,-14 0,-6 3.5,-10.5 3.5,-4.5 7.5,-8.5 4,-4 7.5,-8.5 3.5,-4.5 3.5,-10.5 0,-18 -14,-31.5 -14,-13.5 -53,-13.5 -27,0 -50,10 -23,10 -40.5,26 -17.5,16 -27.5,36.5 -10,20.5 -10,40.5 0,22 9.5,42.5 9.5,20.5 28.5,36.5 19,16 47.5,25.5 28.5,9.5 67.5,9.5 57,0 102,-20.5 45,-20.5 77,-54.5 32,-34 49,-78 17,-44 17,-92 0,-36 -11.5,-69 -11.5,-33 -37,-58 -25.5,-25 -66,-40 -40.5,-15 -98.5,-15 -81,0 -163.5,19.5 -82.5,19.5 -167.5,48.5 20,37 20,76 0,47 -24,97.5 -24,50.5 -75,92.5 -51,42 -129.5,69.5 Q 1200,2049 1091,2049 Z M 973,1822 q 46,0 100,-13.5 54,-13.5 113.5,-34.5 59.5,-21 124.5,-46.5 65,-25.5 134,-49.5 -18,-28 -48,-52.5 -30,-24.5 -70,-43 -40,-18.5 -88,-29 -48,-10.5 -102,-10.5 -74,0 -135,18.5 -61,18.5 -104.5,47 -43.5,28.5 -68,62 -24.5,33.5 -24.5,63.5 0,43 45,65.5 45,22.5 123,22.5 z m -789,136 q 58,0 124,-37 66,-37 126,-118 -71,-37 -134,-61 -63,-24 -117,-24 -30,0 -57.5,10 -27.5,10 -48.5,28 -21,18 -34,43.5 -13,25.5 -13,55.5 0,30 13.5,49.5 13.5,19.5 35.5,31.5 22,12 49.5,17 27.5,5 55.5,5 z m 494,-867 q 0,-10 5,-21.5 5,-11.5 13,-20.5 8,-9 17.5,-15 9.5,-6 18.5,-6 13,0 22,8.5 9,8.5 9,22.5 0,11 -4.5,22.5 -4.5,11.5 -11.5,21.5 -7,10 -16.5,16 -9.5,6 -18.5,6 -13,0 -23.5,-9 -10.5,-9 -10.5,-25 z"></path></svg>
