<?xml version="1.0" encoding="UTF-8" standalone="no"?>
<svg xmlns="http://www.w3.org/2000/svg" width="4558" height="2057"><path id="path503" d="m 123,1657 q 7,-22 18.5,-35.5 11.5,-13.5 25.5,-22.5 -3,1 -7,1 h -7 q -7,0 -12,-1 l -10,-2 q 0,0 -9,-2 l 9,-12 8,2 q 10,2 21,2 17,0 43,-4.5 26,-4.5 58,-18.5 l 5,9 q -6,5 -13,12 -6,6 -13.5,15 -7.5,9 -14.5,22 -5,8 -10.5,24 -5.5,16 -12.5,36 -7,20 -14,43 -7,23 -13,46 -16,54 -32,116 15,-18 34,-33.5 19,-15.5 38,-27 19,-11.5 37,-18 18,-6.5 32,-6.5 18,0 32,9 14,9 14,30 0,21 -7,38.5 -7,17.5 -15.5,35.5 -8.5,18 -15.5,38 -7,20 -7,45 0,25 17,25 29,0 64,-16 35,-16 69.5,-35 34.5,-19 67,-35 32.5,-16 56.5,-16 38,0 63.5,12.5 25.5,12.5 48,27.5 22.5,15 47.5,27.5 25,12.5 64,12.5 22,0 39.5,-5 17.5,-5 31,-12 13.5,-7 23,-14.5 9.5,-7.5 16.5,-12.5 l 8,9 q -9,9 -25.5,24.5 -16.5,15.5 -39,30 -22.5,14.5 -50,25.5 -27.5,11 -58.5,11 -36,0 -64.5,-13 -28.5,-13 -53,-28.5 -24.5,-15.5 -49,-28.5 -24.5,-13 -53.5,-13 -33,0 -61.5,12 -28.5,12 -57.5,26 -29,14 -61.5,26 -32.5,12 -72.5,12 -23,0 -41.5,-10.5 Q 194,2029 194,2002 q 0,-20 8.5,-39.5 8.5,-19.5 19,-38.5 10.5,-19 19,-36 8.5,-17 8.5,-31 0,-15 -11,-15 -11,0 -36,14 -25,14 -56,52 -10,12 -18,31.5 -8,19.5 -14,39.5 -6,20 -9,36.5 -3,16.5 -3,21.5 0,15 -14,15 -8,0 -21,-2 -13,-2 -26,-2 -14,0 -24,4 -10,4 -13,4 -4,0 -4,-4 0,-3 6,-9 6,-6 12,-18 12,-21 20,-50 8,-29 20,-74 10,-37 20.5,-76.5 10.5,-39.5 19.5,-74 9,-34.5 15.5,-59.5 6.5,-25 9.5,-34 z"></path></svg>
