<?xml version="1.0" encoding="UTF-8" standalone="no"?>
<svg xmlns="http://www.w3.org/2000/svg" width="4558" height="2057"><path id="path182" d="m 252,1558 q -45,0 -64,26 -19,26 -19,62 0,27 11,47 11,20 27.5,38 16.5,18 35.5,35 19,17 35.5,37 16.5,20 27.5,45 11,25 11,59 0,40 -17,68.5 -17,28.5 -43.5,46.5 -26.5,18 -57.5,26.5 -31,8.5 -58,8.5 -32,0 -58,-10 Q 57,2037 38.5,2023.5 20,2010 10,1995 0,1980 0,1970 q 0,-7 6.5,-16 6.5,-9 16,-20 9.5,-11 19,-24 9.5,-13 15.5,-30 l 13,5 q -2,6 -4,15 -2,9 -3.5,19 -1.5,10 -2.5,18.5 -1,8.5 -1,14.5 0,15 5,30 5,15 16,27.5 11,12.5 28,20 17,7.5 41,7.5 32,0 51.5,-24 19.5,-24 19.5,-75 0,-33 -11,-57.5 -11,-24.5 -28,-44 -17,-19.5 -36.5,-37 Q 125,1782 108,1763.5 91,1745 80,1723 q -11,-22 -11,-51 0,-32 17.5,-57 17.5,-25 44,-41.5 26.5,-16.5 56.5,-25 30,-8.5 54,-8.5 16,0 37,2.5 21,2.5 39.5,7 18.5,4.5 31.5,12 13,7.5 13,17.5 0,7 -7,15.5 -7,8.5 -16.5,20.5 -9.5,12 -19.5,27 -10,15 -16,36 l -12,-6 q 5,-20 7.5,-39 2.5,-19 2.5,-36 0,-17 -13,-28 -13,-11 -36,-11 z m 85,-172 q 8,0 16.5,14 8.5,14 8.5,26 0,17 -23,37 -28,25 -59.5,38 -31.5,13 -56.5,13 -4,0 -7.5,-2 -3.5,-2 -3.5,-7 0,-5 9,-9 22,-10 49.5,-34 27.5,-24 51.5,-65 5,-11 15,-11 z"></path></svg>
