<?xml version="1.0" encoding="UTF-8" standalone="no"?>
<svg xmlns="http://www.w3.org/2000/svg" width="4558" height="2057"><path id="path538" d="m 1150,2023 q -66,0 -136,-20 -70,-20 -143,-50.5 Q 798,1922 722.5,1885 647,1848 572,1813 q -61,122 -144,183 -83,61 -197,61 -45,0 -86.5,-12.5 -41.5,-12.5 -74,-37 Q 38,1983 19,1947.5 0,1912 0,1865 q 0,-45 17,-77.5 17,-32.5 44,-54.5 27,-22 62,-32.5 35,-10.5 71,-10.5 83,0 160,18.5 77,18.5 154,46.5 17,-35 28.5,-75 11.5,-40 20.5,-86 9,-46 18,-98 9,-52 21,-111 5,-22 13.5,-34.5 Q 618,1338 633,1329 h -7.5 q 0,0 -10.5,-1 -9,0 -17,-2 -4,-1 -7,-2 l 8,-12 8,2 q 5,1 21,1 17,0 43,-4.5 26,-4.5 58,-18.5 l 5,9 q -8,6 -15,13 -6,6 -13.5,15.5 -7.5,9.5 -13.5,20.5 -13,23 -20,43.5 -7,20.5 -12,45.5 -11,52 -18,99.5 -7,47.5 -14.5,90.5 -7.5,43 -17,82 -9.5,39 -25.5,73 64,26 132.5,52.5 68.5,26.5 139.5,48 71,21.5 143.5,35 72.5,13.5 145.5,13.5 100,0 152.5,-41 52.5,-41 61.5,-112 1,-6 2,-11.5 1,-5.5 6,-5.5 5,0 6.5,6 1.5,6 1.5,15 0,38 -12.5,80.5 -12.5,42.5 -39.5,77.5 -27,35 -70,58 -43,23 -104,23 z m -936,-33 q 78,0 149,-49.5 Q 434,1891 494,1780 417,1748 341.5,1727.5 266,1707 192,1707 q -32,0 -62.5,9.5 -30.5,9.5 -54,28.5 -23.5,19 -38,48.5 Q 23,1823 23,1862 q 0,34 16.5,58.5 16.5,24.5 43.5,40 27,15.5 61,22.5 34,7 70,7 z m 451,-769 q 0,-10 5,-21.5 5,-11.5 13,-20.5 8,-9 17.5,-15 9.5,-6 18.5,-6 13,0 22,8.5 9,8.5 9,22.5 0,11 -4.5,22.5 -4.5,11.5 -11.5,21.5 -7,10 -16.5,16 -9.5,6 -18.5,6 -13,0 -23.5,-9 -10.5,-9 -10.5,-25 z"></path></svg>
