<?xml version="1.0" encoding="UTF-8" standalone="no"?>
<svg xmlns="http://www.w3.org/2000/svg" width="4558" height="2057"><path id="path733" d="m 1235,1582 q 0,-24 -7.5,-42 -7.5,-18 -18,-29.5 -10.5,-11.5 -22.5,-17.5 -12,-6 -22,-6 -5,0 -8,3.5 l -6,7 q 0,0 -7,7 -7,7 -10,3.5 -8,0 -12,-5 -4,-5 -4,-11 0,-24 34,-24 19,0 36,7.5 17,7.5 30.5,22.5 13.5,15 21.5,36 8,21 8,48 0,60 -30.5,105 -30.5,45 -78.5,74 6,17 9.5,34 3.5,17 3.5,35 0,34 -12.5,64 -12.5,30 -37.5,52 -25,22 -63,35 -38,13 -89,13 -85,0 -156.5,-23 Q 722,1948 659,1913.5 596,1879 539,1839 482,1799 427.5,1764.5 373,1730 318,1707 q -55,-23 -114,-23 -30,0 -61,6.5 -31,6.5 -56.5,23.5 -25.5,17 -41.5,46.5 -16,29.5 -16,75.5 0,45 22.5,82.5 22.5,37.5 57.5,64.5 35,27 77,42 42,15 82,15 58,0 96,-27.5 38,-27.5 38,-77.5 0,-25 -10,-45 -10,-20 -27,-34 -17,-14 -40,-22 -23,-8 -49,-8 -12,0 -26,4 -14,4 -26,12.5 -12,8.5 -20,22.5 -8,14 -8,35 0,7 -6,7 -8,0 -8,-18 0,-19 9,-36.5 9,-17.5 25,-31 16,-13.5 38,-21 22,-7.5 47,-7.5 31,0 58.5,11 27.5,11 47.5,29 20,18 32,41.5 12,23.5 12,49.5 0,31 -13.5,55.5 -13.5,24.5 -37,42 -23.5,17.5 -56,26.5 -32.5,9 -69.5,9 -48,0 -96.5,-17.5 Q 130,2022 90,1990.5 50,1959 25,1914.5 0,1870 0,1816 q 0,-46 18.5,-83 18.5,-37 49.5,-62 31,-25 72,-38.5 41,-13.5 87,-13.5 69,0 129.5,26.5 60.5,26.5 117,66.5 56.5,40 112,86.5 55.5,46.5 115,86.5 59.5,40 125.5,66.5 66,26.5 143,26.5 33,0 57.5,-11.5 24.5,-11.5 40,-30 15.5,-18.5 23.5,-42.5 8,-24 8,-49 0,-29 -8,-61 -26,10 -54.5,14.5 -28.5,4.5 -57.5,4.5 -14,0 -27,-1 -13,-1 -25,-3 -19,51 -92,51 -35,0 -76.5,-13 -41.5,-13 -77.5,-37 -36,-24 -60,-58 -24,-34 -24,-77 0,-28 13.5,-51.5 13.5,-23.5 37,-41 23.5,-17.5 55.5,-27 32,-9.5 69,-9.5 54,0 110,15.5 56,15.5 105.5,43.5 49.5,28 88.5,66.5 39,38.5 59,84.5 45,-27 73,-68.5 28,-41.5 28,-95.5 z m -256,207 q 27,0 54,-4.5 27,-4.5 53,-14.5 -15,-47 -47,-87 -32,-40 -75,-69.5 -43,-29.5 -93,-46 -50,-16.5 -102,-16.5 -31,0 -53.5,10 -22.5,10 -37.5,26 -15,16 -22,36 -7,20 -7,41 0,39 17,70.5 17,31.5 44,54 27,22.5 60.5,34.5 33.5,12 66.5,12 61,0 75,-38 -32,-7 -57,-19.5 -25,-12.5 -42.5,-28.5 -17.5,-16 -27,-33 -9.5,-17 -9.5,-34 0,-17 12.5,-29.5 12.5,-12.5 32.5,-12.5 24,0 44,12.5 20,12.5 34.5,31.5 14.5,19 23,41.5 8.5,22.5 8.5,41.5 0,8 -2,18 11,2 23.5,3 12.5,1 26.5,1 z M 797,1689 q 0,11 8,24 8,13 23,26 15,13 37,24.5 22,11.5 51,18.5 0,-3 0.5,-6 0.5,-3 0.5,-6 0,-17 -10,-34.5 -10,-17.5 -25,-32 -15,-14.5 -32.5,-23.5 -17.5,-9 -32.5,-9 -20,0 -20,18 z"></path></svg>
