<?xml version="1.0" encoding="UTF-8" standalone="no"?>
<svg xmlns="http://www.w3.org/2000/svg" width="4558" height="2057"><path id="path306" d="m 266,1570 q 32,-15 69,-42 37,-27 68.5,-65 31.5,-38 52.5,-86.5 21,-48.5 21,-105.5 0,-34 -10.5,-60 -10.5,-26 -28,-43 -17.5,-17 -41.5,-26 -24,-9 -51,-9 -33,0 -62.5,11.5 -29.5,11.5 -52,31.5 -22.5,20 -35.5,46.5 -13,26.5 -13,56.5 0,46 23,69.5 23,23.5 55,23.5 22,0 33.5,-10.5 11.5,-10.5 11.5,-25.5 0,-11 6,-17.5 6,-6.5 15,-6.5 23,0 23,22 0,8 -7,17.5 -7,9.5 -18.5,17.5 -11.5,8 -27,13.5 -15.5,5.5 -33.5,5.5 -22,0 -43.5,-6 -21.5,-6 -38,-18 -16.5,-12 -26.5,-31 -10,-19 -10,-46 0,-35 17.5,-66 17.5,-31 47,-54.5 29.5,-23.5 67,-37 37.5,-13.5 77.5,-13.5 34,0 66.5,9 32.5,9 58,27 25.5,18 40.5,45.5 15,27.5 15,63.5 0,61 -27,113 -27,52 -66,93.5 -39,41.5 -83.5,71.5 -44.5,30 -80.5,46 -9,4 -18,10 -8,5 -16,14 -8,9 -14,20 -17,32 -35.5,93.5 Q 176,1784 156,1859 q 9,-10 22,-18.5 13,-8.5 27,-15.5 14,-7 27.5,-11 13.5,-4 24.5,-4 27,0 50,18.5 23,18.5 23,59.5 0,31 -12,61.5 -12,30.5 -32,54.5 -20,24 -47,38.5 -27,14.5 -57,14.5 -36,0 -56,-16 -20,-16 -27,-33 -17,18 -31.5,27.5 Q 53,2045 40,2050 q -13,5 -23,6 -10,1 -17,1 v -7 q 14,-6 24,-22.5 10,-16.5 18,-41.5 8,-25 16,-57 8,-32 19,-70 21,-75 33,-123 l 18,-72 q 5,-22 17.5,-35.5 12.5,-13.5 26.5,-22.5 -3,1 -7,1 h -7 q -7,0 -12,-1 l -10,-2 q 0,0 -9,-2 l 9,-12 8,2 q 10,2 21,2 17,0 43,-4.5 26,-4.5 58,-19.5 z m -46,269 q -6,0 -16.5,4.5 -10.5,4.5 -22,13.5 -11.5,9 -22.5,22.5 -11,13.5 -17,31.5 -3,7 -6.5,18.5 -3.5,11.5 -7,23.5 -3.5,12 -6,23 -2.5,11 -2.5,16 0,24 14,32.5 14,8.5 27,8.5 16,0 30.5,-15.5 14.5,-15.5 26,-39 11.5,-23.5 18,-50 6.5,-26.5 6.5,-49.5 0,-40 -22,-40 z"></path></svg>
