<?xml version="1.0" encoding="UTF-8" standalone="no"?>
<svg xmlns="http://www.w3.org/2000/svg" width="4558" height="2057"><path id="path200" d="m 697,1206 q 54,0 84.5,4 30.5,4 52.5,4 30,0 59,-14 l 5,9 q -21,13 -38,34 -17,21 -30,46 -13,25 -22.5,51 -9.5,26 -16.5,49 -12,40 -23.5,84.5 -11.5,44.5 -21.5,86.5 18,27 28.5,61 10.5,34 10.5,76 0,44 -14,92 5,1 15,1 19,0 40.5,-11.5 21.5,-11.5 42.5,-32.5 21,-21 40.5,-50 19.5,-29 35.5,-63 34,-73 61.5,-153.5 27.5,-80.5 55.5,-160.5 4,-11 10.5,-26.5 6.5,-15.5 15.5,-30.5 9,-15 21,-26 12,-11 27,-13 17,-2 30.5,-6.5 13.5,-4.5 23.5,-8.5 11,-4 20,-10 l 5,9 q -6,6 -13,16 -6,8 -14,21 -8,13 -17,31 -8,16 -22,54 -14,38 -30,86.5 -16,48.5 -33,102.5 -17,54 -30.5,103.5 -13.5,49.5 -22,89 -8.5,39.5 -8.5,58.5 0,16 10,16 8,0 15.5,-4.5 7.5,-4.5 15.5,-10.5 8,-6 17,-15 l 7,8 q -16,18 -32,31 -14,12 -30.5,21.5 -16.5,9.5 -31.5,9.5 -27,0 -48.5,-13.5 Q 926,1798 926,1763 q 0,-9 0.5,-16 0.5,-7 1.5,-15.5 1,-8.5 3.5,-19 2.5,-10.5 6.5,-26.5 -17,24 -37.5,48.5 -20.5,24.5 -43.5,44.5 -23,20 -48.5,33 -25.5,13 -50.5,13 -20,47 -53,89 -33,42 -77,74 -44,32 -98,50.5 -54,18.5 -116,18.5 -75,0 -149.5,-21 -74.5,-21 -133,-65 Q 73,1927 36.5,1859 0,1791 0,1696 0,1608 37.5,1537 75,1466 133,1416 q 58,-50 128,-77 70,-27 136,-27 h 13 q 28,-26 64.5,-45.5 36.5,-19.5 74.5,-33 38,-13.5 76.5,-20.5 38.5,-7 71.5,-7 z m -355,247 q 0,-35 12.5,-64.5 12.5,-29.5 35.5,-55.5 -57,2 -111.5,29.5 -54.5,27.5 -97.5,76 -43,48.5 -69.5,115 Q 85,1620 85,1699 q 0,88 30.5,149.5 30.5,61.5 80,100 49.5,38.5 112,56 62.5,17.5 127.5,17.5 54,0 101,-15 47,-15 85.5,-42 38.5,-27 67.5,-63 29,-36 47,-78 -21,-2 -41,-9 -20,-7 -36,-21.5 -16,-14.5 -25.5,-37 -9.5,-22.5 -9.5,-55.5 0,-33 10,-82.5 10,-49.5 25,-104.5 -35,-19 -77,-25 -13,39 -44.5,64 -31.5,25 -65.5,25 -21,0 -43.5,-7 -22.5,-7 -42.5,-22 -25,26 -39.5,60 -14.5,34 -14.5,76 0,33 12.5,58.5 12.5,25.5 32.5,43 20,17.5 44.5,26 24.5,8.5 48.5,8.5 22,0 39.5,-7 17.5,-7 29,-18 11.5,-11 17.5,-24.5 6,-13.5 6,-25.5 0,-10 -6.5,-14.5 -6.5,-4.5 -6.5,-18.5 0,-8 7,-15.5 7,-7.5 19,-7.5 13,0 19.5,11 6.5,11 6.5,23 0,18 -10,38 -10,20 -27,37 -17,17 -41.5,28 -24.5,11 -52.5,11 -29,0 -57.5,-9 -28.5,-9 -51.5,-28.5 -23,-19.5 -37,-48.5 -14,-29 -14,-70 0,-45 17,-81.5 17,-36.5 45,-64.5 -14,-15 -22,-35.5 -8,-20.5 -8,-47.5 z m 247,-5 q 0,5 -0.5,10.5 -0.5,5.5 -1.5,10.5 21,3 40.5,8.5 19.5,5.5 37.5,14.5 9,-32 18.5,-63.5 9.5,-31.5 18.5,-60.5 13,-41 37,-73 24,-32 68,-59 -15,-2 -31,-5 -14,-2 -29,-3.5 -15,-1.5 -29,-1.5 -33,0 -66.5,7 -33.5,7 -64.5,20 -31,13 -58.5,31 -27.5,18 -48.5,40 53,17 81,51 28,34 28,73 z m -49,17 h 13.5 q 0,0 13.5,1 2,-10 2,-18 0,-35 -24,-65 -24,-30 -79,-43 -20,25 -31,52.5 -11,27.5 -11,57.5 0,26 5,44 26,-14 54.5,-21.5 28.5,-7.5 56.5,-7.5 z m 223,227 q 0,-29 -6.5,-54 -6.5,-25 -17.5,-46 -8,35 -12,65.5 -4,30.5 -4,51.5 0,29 7.5,46.5 7.5,17.5 20.5,25.5 12,-43 12,-89 z M 540,1485 q -26,0 -53,6.5 -27,6.5 -51,20.5 11,18 26.5,23 15.5,5 30.5,5 17,0 38,-13.5 21,-13.5 31,-40.5 -5,0 -11,-0.5 -6,-0.5 -11,-0.5 z m 555,-402 q 8,0 16.5,14 8.5,14 8.5,26 0,17 -23,37 -28,25 -59.5,38 -31.5,13 -56.5,13 -4,0 -7.5,-2 -3.5,-2 -3.5,-7 0,-5 9,-9 22,-10 49.5,-34 27.5,-24 51.5,-65 5,-11 15,-11 z"></path></svg>
