<?xml version="1.0" encoding="UTF-8" standalone="no"?>
<svg xmlns="http://www.w3.org/2000/svg" width="4558" height="2057"><path id="path767" d="m 276,1810 q 0,-28 -10,-43 -10,-15 -36,-24 -9,37 -17,74 -8,37 -14,68.5 -6,31.5 -9.5,55 -3.5,23.5 -3.5,33.5 39,-42 64.5,-82 25.5,-40 25.5,-82 z m 21,-293 q -8,15 -25,65 -17,50 -39,146 45,11 72,28 27,17 27,49 0,25 -16.5,50.5 -16.5,25.5 -40,50.5 -23.5,25 -50,49 -26.5,24 -46.5,46 -25,26 -39,41 -14,15 -20,15 -8,0 -16,-5.5 -8,-5.5 -8,-16.5 0,-27 6.5,-69.5 Q 109,1923 120,1872 131,1821 145.5,1766.5 160,1712 175,1662 q -16,20 -41.5,39 -25.5,19 -52.5,19 -35,0 -58,-20.5 Q 0,1679 0,1644 q 0,-36 16.5,-67 16.5,-31 41,-54.5 24.5,-23.5 53.5,-37 29,-13.5 54,-13.5 29,0 44,13 15,13 17,33 5,-15 18,-25 13,-10 39,-14 12,-2 21,-4.5 9,-2.5 15,-5.5 7,-4 12,-7 l 6,11 q -7,5 -14,11 -6,5 -13,13.5 -7,8.5 -13,19.5 z m -182,172 q 17,0 39,-22 22,-22 36,-51 3,-7 7,-19 4,-12 7,-24.5 3,-12.5 5,-23.5 2,-11 2,-17 0,-18 -8.5,-30 -8.5,-12 -27.5,-12 -18,0 -34,14 -16,14 -27.5,36 -11.5,22 -18,47.5 -6.5,25.5 -6.5,47.5 0,54 26,54 z"></path></svg>
