<?xml version="1.0" encoding="UTF-8" standalone="no"?>
<svg xmlns="http://www.w3.org/2000/svg" width="4558" height="2057"><path id="path940" d="m 186,2004 q 50,0 88,-26.5 38,-26.5 66.5,-69 28.5,-42.5 48.5,-96 20,-53.5 35,-108 15,-54.5 26,-104.5 11,-50 21,-85 -29,32 -63.5,53.5 -34.5,21.5 -61.5,21.5 -23,0 -41,-13.5 -18,-13.5 -18,-40.5 0,-16 8.5,-35.5 8.5,-19.5 18.5,-38.5 10,-19 18.5,-37 8.5,-18 8.5,-33 0,-10 -7,-10 -5,0 -11,4 -6,4 -12,9 -7,6 -15,13 l -8,-9 q 6,-6 17.5,-15.5 11.5,-9.5 25,-19 13.5,-9.5 28,-16.5 14.5,-7 26.5,-7 22,0 33,9 11,9 11,24 0,15 -8,35 -8,20 -17,41 -9,21 -17,42.5 -8,21.5 -8,39.5 0,15 15,15 14,0 28,-10.5 14,-10.5 36,-33.5 13,-14 20,-29.5 7,-15.5 14,-44.5 5,-22 11.5,-37 6.5,-15 15.5,-24 9,-9 21.5,-14 12.5,-5 29.5,-7 22,-3 36,-10 7,-4 12,-7 l 6,12 q -5,2 -9,6 -4,3 -9,7.5 -5,4.5 -10,11.5 -14,19 -24,42 -10,23 -21,65 -11,43 -20.5,102.5 -9.5,59.5 -23.5,124.5 -14,65 -36,128.5 -22,63.5 -57,114 -35,50.5 -86.5,82 Q 276,2057 202,2057 152,2057 114.5,2043 77,2029 51.5,2005.5 26,1982 13,1951 0,1920 0,1887 q 0,-40 14,-70.5 14,-30.5 35.5,-51 21.5,-20.5 48,-30.5 26.5,-10 50.5,-10 39,0 63.5,18 24.5,18 24.5,57 0,38 -21,59.5 -21,21.5 -47,21.5 -17,0 -29.5,-7.5 Q 126,1866 126,1852 q 0,-9 7,-17 7,-8 18,-8 9,0 13.5,4.5 4.5,4.5 7.5,12.5 3,8 6,10 3,2 6,2 9,0 24,-13 15,-13 15,-43 0,-33 -21,-48 -21,-15 -53,-15 -23,0 -45,9.5 -22,9.5 -39,27 -17,17.5 -27,42 -10,24.5 -10,55.5 0,24 10,47.5 10,23.5 29.5,42.5 19.5,19 49,31 29.5,12 69.5,12 z"></path></svg>
