<?xml version="1.0" encoding="UTF-8" standalone="no"?>
<svg xmlns="http://www.w3.org/2000/svg" width="4558" height="2057"><path id="path476" d="m 1138,965 q -7,10 -18,22 -11,12 -24.5,22 -13.5,10 -28.5,17 -15,7 -29,7 -37,0 -59.5,-21.5 Q 956,990 956,956 q 0,-36 16.5,-67 16.5,-31 41,-54.5 24.5,-23.5 53.5,-37 29,-13.5 54,-13.5 29,0 44,13 15,13 17,33 5,-15 18,-25 13,-10 39,-14 12,-2 21,-4.5 9,-2.5 15,-5.5 7,-4 12,-7 l 6,12 q -6,5 -12,11 -5,5 -12.5,13 -7.5,8 -14.5,19 -14,23 -21,43.5 -7,20.5 -13,45.5 -9,35 -17.5,87.5 -8.5,52.5 -19.5,106.5 -10,48 -20.5,94 -10.5,46 -22.5,91 115,-21 221,-50.5 106,-29.5 187.5,-77 81.5,-47.5 130,-116.5 48.5,-69 48.5,-169 0,-78 -42.5,-122 -42.5,-44 -122.5,-44 -42,0 -83.5,17 -41.5,17 -74,45.5 -32.5,28.5 -53,66 -20.5,37.5 -20.5,77.5 0,34 10.5,58 10.5,24 26.5,39.5 16,15.5 35.5,22.5 19.5,7 37.5,7 10,0 17.5,-5 7.5,-5 13.5,-11 l 11,-11 q 0,0 11,-5 26,0 26,25 0,13 -17,22.5 -17,9.5 -42,9.5 -27,0 -54,-9 -27,-9 -48.5,-27.5 Q 1337,1021 1323,993 q -14,-28 -14,-67 0,-45 21.5,-88 21.5,-43 58.5,-76 37,-33 86.5,-53.5 Q 1525,688 1581,688 q 44,0 86.5,11 42.5,11 75.5,35.5 33,24.5 53.5,64 20.5,39.5 20.5,97.5 0,72 -27,127.5 -27,55.5 -74,98 -47,42.5 -112,73.5 -65,31 -141,54 -76,23 -160,40 -84,17 -170,31 -49,170 -119,306.5 -70,136.5 -161.5,232 -91.5,95.5 -204,147 Q 536,2057 401,2057 302,2057 227,2029 152,2001 101.5,1951 51,1901 25.5,1832.5 0,1764 0,1683 0,1568 47.5,1473 95,1378 174,1310.5 253,1243 354,1206 q 101,-37 209,-37 57,0 101.5,13 44.5,13 76,37 31.5,24 51,57 19.5,33 27.5,73 53,-9 107.5,-17.5 54.5,-8.5 110.5,-17.5 31,-90 57,-189 11,-42 22.5,-78 11.5,-36 21.5,-82 z m -766,999 q 106,0 202,-43.5 96,-43.5 179,-125 83,-81.5 153,-198 70,-116.5 123,-261.5 -54,8 -105.5,17 -51.5,9 -101.5,18 2,8 2,17 v 19 q 0,73 -27.5,135 -27.5,62 -72.5,107 -45,45 -103,70.5 -58,25.5 -119,25.5 -30,0 -57.5,-9 -27.5,-9 -48.5,-26 -21,-17 -34,-41.5 -13,-24.5 -13,-56.5 0,-59 35,-101 35,-42 95.5,-71.5 Q 540,1410 621,1390 702,1370 794,1354 780,1280 722.5,1234.5 665,1189 564,1189 q -68,0 -133.5,17 -65.5,17 -124.5,47 -59,30 -108.5,72 -49.5,42 -85.5,93 -36,51 -56.5,109 -20.5,58 -20.5,119 0,76 25.5,135 25.5,59 70.5,99.5 45,40.5 107,62 62,21.5 134,21.5 z m 427,-557 q 0,-8 -0.5,-15.5 -0.5,-7.5 -1.5,-15.5 -80,15 -148,35 -68,20 -118,47.5 -50,27.5 -78.5,65.5 -28.5,38 -28.5,89 0,46 27.5,70 27.5,24 73.5,24 49,0 98,-21.5 49,-21.5 88,-61 39,-39.5 63.5,-94.5 24.5,-55 24.5,-123 z m 272,-406 q 17,0 39,-22 22,-22 36,-51 3,-7 7,-19 4,-12 7,-24.5 3,-12.5 5,-23.5 2,-11 2,-17 0,-18 -8,-30 -8,-12 -28,-12 -18,0 -34,14 -16,14 -27.5,36 -11.5,22 -18,47.5 -6.5,25.5 -6.5,47.5 0,54 26,54 z"></path></svg>
