<?xml version="1.0" encoding="UTF-8" standalone="no"?>
<svg xmlns="http://www.w3.org/2000/svg" width="4558" height="2057"><path id="path474" d="m 340,1392 q 22,0 43,3 12,-33 34,-58.5 22,-25.5 51,-43 29,-17.5 62,-26.5 33,-9 68,-9 41,0 78.5,13.5 37.5,13.5 66,44 28.5,30.5 45.5,80 17,49.5 17,120.5 0,15 -1,30.5 -1,15.5 -3,31.5 28,-31 49.5,-69.5 21.5,-38.5 38,-80.5 16.5,-42 29,-84 12.5,-42 22.5,-80 9,-35 21,-90.5 12,-55.5 25,-120.5 -7,10 -18,22 -11,12 -24.5,22 -13.5,10 -28.5,17 -15,7 -29,7 -37,0 -59.5,-21.5 Q 804,1078 804,1044 q 0,-36 16.5,-67 16.5,-31 41,-54.5 24.5,-23.5 53.5,-37 29,-13.5 54,-13.5 29,0 44,13 15,13 17,33 5,-15 18,-25 13,-10 39,-14 12,-2 21,-4.5 9,-2.5 15,-5.5 7,-4 12,-7 l 6,12 q -6,5 -12,11 -5,5 -12.5,13 -7.5,8 -14.5,19 -14,23 -21,43.5 -7,20.5 -13,45.5 -7,26 -14,63 -7,37 -13,74 -6,37 -11,69 -5,32 -8,50 -10,58 -26.5,121 -16.5,63 -44,120 -27.5,57 -68.5,104 -41,47 -101,72 -21,75 -59.5,143 -38.5,68 -94,120.5 -55.5,52.5 -127,83.5 -71.5,31 -157.5,31 -78,0 -141.5,-25 Q 139,2007 94,1962.5 49,1918 24.5,1858 0,1798 0,1729 0,1654 29,1591.5 58,1529 105.5,1485 153,1441 214,1416.5 275,1392 340,1392 Z m 7,605 q 78,0 143.5,-24 65.5,-24 118,-66 52.5,-42 91,-98.5 Q 738,1752 760,1688 q -25,8 -52,12.5 -27,4.5 -59,4.5 -20,0 -40.5,-2.5 -20.5,-2.5 -39.5,-7.5 -11,35 -31,65 -20,30 -47,51.5 -27,21.5 -60,33.5 -33,12 -69,12 -33,0 -61.5,-9.5 -28.5,-9.5 -50,-27 -21.5,-17.5 -34,-41 Q 204,1756 204,1727 q 0,-33 13.5,-47.5 13.5,-14.5 26.5,-14.5 11,0 18,7.5 7,7.5 7,18.5 0,10 -5.5,16.5 -5.5,6.5 -12,12.5 -6.5,6 -12,13 -5.5,7 -5.5,19 0,16 10,32 10,16 27,28.5 17,12.5 41,20 24,7.5 52,7.5 33,0 63,-11 30,-11 54,-31 24,-20 41.5,-47.5 17.5,-27.5 26.5,-60.5 -38,-12 -71,-33 -33,-21 -57,-49.5 -24,-28.5 -37.5,-64 Q 370,1508 370,1467 q 0,-29 8,-56 -9,-2 -18,-2 h -19 q -58,0 -111.5,24 -53.5,24 -95,66.5 Q 93,1542 68.5,1600 44,1658 44,1726 q 0,60 21.5,110 21.5,50 61,86 39.5,36 95.5,55.5 56,19.5 125,19.5 z m 288,-342 q 45,0 81.5,-15.5 36.5,-15.5 65.5,-41.5 6,-40 6,-80 0,-69 -17,-116 -17,-47 -44.5,-76 -27.5,-29 -62,-41.5 Q 630,1272 595,1272 q -30,0 -59,8.5 -29,8.5 -53.5,25 -24.5,16.5 -43,40.5 -18.5,24 -27.5,55 37,9 68,28.5 31,19.5 53,47 22,27.5 34.5,63.5 12.5,36 12.5,78 v 15 q 0,0 -1,15 14,3 28,5 14,2 28,2 z M 404,1458 q 0,38 13,68 13,30 34,53 21,23 48.5,39 27.5,16 57.5,25 1,-5 1,-11 v -11 q 0,-41 -11.5,-75 -11.5,-34 -32,-59.5 -20.5,-25.5 -48,-42.5 -27.5,-17 -58.5,-26 -2,9 -3,19 -1,10 -1,21 z m 515,-369 q 17,0 39,-22 22,-22 36,-51 3,-7 7,-19 4,-12 7,-24.5 3,-12.5 5,-23.5 2,-11 2,-17 0,-18 -8,-30 -8,-12 -28,-12 -18,0 -34,14 -16,14 -27.5,36 -11.5,22 -18,47.5 -6.5,25.5 -6.5,47.5 0,54 26,54 z"></path></svg>
