<?xml version="1.0" encoding="UTF-8" standalone="no"?>
<svg xmlns="http://www.w3.org/2000/svg" width="4558" height="2057"><path id="path134" d="m 745,1230 q 0,54 -25,104 51,13 78,52 27,39 27,88 5,12 8.5,33 3.5,21 3.5,55 0,65 -15,127 -15,62 -41.5,117 -26.5,55 -62.5,101 -36,46 -78,79.5 -42,33.5 -87.5,52 Q 507,2057 462,2057 414,2057 372,2042.5 330,2028 298.5,1999 267,1970 249,1926.5 231,1883 231,1825 q 0,-37 8,-80 -49,-13 -92.5,-38.5 Q 103,1681 70.5,1644 38,1607 19,1558 0,1509 0,1450 q 0,-85 38,-164 38,-79 103,-139 65,-60 151,-96 86,-36 182,-36 127,0 199,57.5 72,57.5 72,157.5 z M 58,1450 q 0,53 13.5,97.5 13.5,44.5 38.5,79.5 25,35 58.5,60 33.5,25 74.5,38 19,-78 61.5,-152 42.5,-74 105.5,-131 -49,-20 -77,-58.5 -28,-38.5 -28,-94.5 0,-33 13.5,-60.5 13.5,-27.5 34.5,-46.5 21,-19 46,-29.5 25,-10.5 48,-10.5 40,0 65.5,18 25.5,18 25.5,44 0,13 -6.5,24 -6.5,11 -17.5,11 -8,0 -15.5,-5.5 -7.5,-5.5 -7.5,-15.5 0,-6 2,-9 2,-3 4,-5.5 2,-2.5 4,-5.5 2,-3 2,-8 0,-12 -12,-23.5 -12,-11.5 -44,-11.5 -21,0 -43,10 -22,10 -40,27.5 -18,17.5 -29.5,42 -11.5,24.5 -11.5,52.5 0,52 27.5,88 27.5,36 74.5,54 54,-46 118.5,-73 64.5,-27 136.5,-27 h 10.5 q 0,0 10.5,1 11,-23 17.5,-46.5 6.5,-23.5 6.5,-48.5 0,-45 -17.5,-82.5 Q 690,1115 657.5,1088 625,1061 578.5,1046.5 532,1032 474,1032 q -90,0 -166.5,35 -76.5,35 -132,93 Q 120,1218 89,1293.5 58,1369 58,1450 Z m 285,358 q 0,102 39,155.5 39,53.5 121,53.5 48,0 103,-37 55,-37 102.5,-99 47.5,-62 79,-144 31.5,-82 31.5,-172 v -16 q 0,0 -1,-16 -9,46 -29.5,89.5 -20.5,43.5 -51,77.5 -30.5,34 -70,55 -39.5,21 -85.5,21 -37,0 -65.5,-12.5 Q 488,1751 468,1730 q -26,11 -56.5,18 -30.5,7 -65.5,8 -3,27 -3,52 z m 142,-348 q -55,54 -90,128 -35,74 -47,150 31,-1 58,-7 27,-6 50,-15 -28,-40 -28,-93 0,-23 8,-45 8,-22 22.5,-38.5 14.5,-16.5 33.5,-26.5 19,-10 41,-10 31,0 48.5,18 17.5,18 17.5,49 0,40 -26.5,79 -26.5,39 -75.5,66 31,19 81,19 53,0 95.5,-22.5 42.5,-22.5 72.5,-58.5 30,-36 46,-81.5 16,-45.5 16,-91.5 0,-24 -9,-43 -9,-19 -24.5,-32.5 Q 759,1391 739,1383 q -20,-8 -42,-10 -29,40 -74,64.5 -45,24.5 -99,24.5 h -20.5 q 0,0 -18.5,-2 z m -35,163 q 0,52 32,81 47,-24 73,-59 26,-35 26,-71 0,-30 -13,-44.5 -13,-14.5 -35,-14.5 -17,0 -32.5,10 -15.5,10 -26.5,25.5 -11,15.5 -17.5,35 -6.5,19.5 -6.5,37.5 z m 223,-250 q -50,2 -93,21 -43,19 -80,51 6,1 11.5,1 H 523 q 46,0 84,-20.5 38,-20.5 66,-52.5 z m -1,-197 q 8,0 16.5,14 8.5,14 8.5,26 0,17 -23,37 -28,25 -59.5,38 -31.5,13 -56.5,13 -4,0 -7.5,-2 -3.5,-2 -3.5,-7 0,-5 9,-9 22,-10 49.5,-34 27.5,-24 51.5,-65 5,-11 15,-11 z"></path></svg>
