<?xml version="1.0" encoding="UTF-8" standalone="no"?>
<svg xmlns="http://www.w3.org/2000/svg" width="4558" height="2057"><path id="path737" d="m 112,2010 q 3,1 6.5,2.5 3.5,1.5 3.5,3.5 0,3 -3.5,3.5 -3.5,0.5 -6.5,0.5 -15,0 -34,-7 -19,-7 -36.5,-20.5 Q 24,1979 12,1959.5 0,1940 0,1916 q 0,-38 19,-62.5 19,-24.5 47,-38.5 28,-14 60.5,-19.5 32.5,-5.5 59.5,-5.5 47,0 86,11.5 39,11.5 84,24.5 13,-37 46.5,-70 33.5,-33 77.5,-58 44,-25 94.5,-39.5 50.5,-14.5 97.5,-14.5 25,0 48.5,5 23.5,5 41.5,15 18,10 29,25.5 11,15.5 11,37.5 0,31 -23.5,57 -23.5,26 -60,45.5 -36.5,19.5 -81,30.5 -44.5,11 -86.5,11 -46,0 -84,-5 -38,-5 -70,-13 -1,5 -1,8.5 v 8.5 q 0,23 10.5,38.5 10.5,15.5 26.5,24.5 16,9 35.5,12.5 19.5,3.5 37.5,3.5 57,0 118.5,-17 61.5,-17 124,-42.5 Q 811,1864 874,1834 q 63,-30 123,-55.5 60,-25.5 115.5,-42.5 55.5,-17 104.5,-17 32,0 59,6 27,6 47,18.5 20,12.5 31.5,31 11.5,18.5 11.5,43.5 0,38 -21,73 -21,35 -55,63 43,14 85,30 42,16 84,29 42,13 83,21.5 41,8.5 83,8.5 49,0 86.5,-13 37.5,-13 63.5,-34 26,-21 41,-48 15,-27 18,-55 -65,22 -124.5,38 -59.5,16 -110.5,16 -27,0 -52,-5.5 -25,-5.5 -44.5,-15 -19.5,-9.5 -31,-24 -11.5,-14.5 -11.5,-32.5 0,-25 16.5,-46.5 16.5,-21.5 46,-37 29.5,-15.5 68.5,-24.5 39,-9 84,-9 36,0 70.5,7.5 34.5,7.5 63,21 28.5,13.5 48.5,32 20,18.5 28,41.5 42,-16 85,-32 43,-16 86,-28.5 43,-12.5 85.5,-20.5 42.5,-8 84.5,-8 72,0 110.5,28 38.5,28 38.5,73 0,17 -7.5,33 -7.5,16 -15.5,16 -7,0 -7,-6 0,-5 7.5,-14.5 7.5,-9.5 7.5,-27.5 0,-12 -8,-24.5 -8,-12.5 -25,-23 -17,-10.5 -43,-17 -26,-6.5 -62,-6.5 -81,0 -165.5,24 -84.5,24 -167.5,53 1,3 1,8 0,32 -18,63.5 -18,31.5 -51.5,56.5 -33.5,25 -82.5,40 -49,15 -111,15 -46,0 -90.5,-9 -44.5,-9 -88,-23 -43.5,-14 -86,-30.5 -42.5,-16.5 -85.5,-30.5 -38,28 -84.5,44.5 -46.5,16.5 -92.5,16.5 -60,0 -93,-18 -33,-18 -33,-39 0,-26 32,-40 32,-14 80,-14 45,0 87,8.5 42,8.5 84,20.5 23,-25 36.5,-55 13.5,-30 13.5,-64 0,-35 -27,-52.5 -27,-17.5 -86,-17.5 -46,0 -99,15.5 -53,15.5 -110.5,39 Q 927,1832 866,1859 q -61,27 -122.5,50.5 -61.5,23.5 -122.5,39 -61,15.5 -118,15.5 -24,0 -51,-5 -27,-5 -49.5,-17 -22.5,-12 -37.5,-31 -15,-19 -15,-47 0,-6 0.5,-11.5 0.5,-5.5 1.5,-11.5 -45,-13 -82.5,-24.5 Q 232,1805 192,1805 q -21,0 -47.5,6 -26.5,6 -49.5,19.5 -23,13.5 -38.5,35 Q 41,1887 41,1918 q 0,21 6.5,37 6.5,16 17,27.5 10.5,11.5 23,18 12.5,6.5 24.5,9.5 z m 556,-352 q -42,0 -85.5,14 -43.5,14 -81,38.5 -37.5,24.5 -65,57.5 -27.5,33 -36.5,70 32,8 68.5,13 36.5,5 81.5,5 39,0 75,-9.5 36,-9.5 63.5,-27 27.5,-17.5 44,-42.5 16.5,-25 16.5,-55 0,-34 -21.5,-49 -21.5,-15 -59.5,-15 z m 942,274 q 50,0 106.5,-17 56.5,-17 118.5,-40 0,-20 -11,-40 -11,-20 -31,-35.5 -20,-15.5 -50,-25.5 -30,-10 -68,-10 -79,0 -124,29 -45,29 -45,74 0,30 30.5,47.5 30.5,17.5 73.5,17.5 z m -503,79 q 38,0 74.5,-15.5 36.5,-15.5 64.5,-41.5 -38,-11 -75.5,-18.5 -37.5,-7.5 -75.5,-7.5 -76,0 -76,40 0,17 20,30 20,13 68,13 z"></path></svg>
