<?xml version="1.0" encoding="UTF-8" standalone="no"?>
<svg xmlns="http://www.w3.org/2000/svg" width="4558" height="2057"><path id="path342" d="m 797,1963 q 0,6 5,7 5,1 8,1 9,0 20.5,-3 11.5,-3 16.5,-3 8,0 12,5.5 4,5.5 4,10.5 0,18 -12,32 -12,14 -30,24 -18,10 -38.5,15 -20.5,5 -37.5,5 -4,0 -12.5,-1 -8.5,-1 -17.5,-3 -9,-2 -15.5,-6 -6.5,-4 -6.5,-9 0,-7 5.5,-14.5 5.5,-7.5 11.5,-7.5 4,0 7,3 3,3 7.5,7 4.5,4 12.5,7 8,3 22,3 10,0 22,-3 12,-3 22.5,-8.5 10.5,-5.5 17.5,-13 7,-7.5 7,-16.5 0,-8 -9,-8 -14,0 -26,4 -12,4 -29,4 -5,0 -7.5,-4 -2.5,-4 -2.5,-8 l 8,-32 q -16,-1 -31.5,-5.5 -15.5,-4.5 -28,-14 -12.5,-9.5 -20,-23.5 -7.5,-14 -7.5,-35 0,-39 17,-70 17,-31 43.5,-52.5 26.5,-21.5 57.5,-33 31,-11.5 59,-11.5 29,0 49.5,14.5 20.5,14.5 20.5,35.5 0,17 -10.5,30 -10.5,13 -27.5,13 -14,0 -24,-7.5 -10,-7.5 -10,-18.5 0,-14 9,-22 9,-8 9,-18 0,-12 -10,-12 -20,0 -37,12 -17,12 -30,31 -13,19 -20,44 -7,25 -7,50 0,34 14,48 14,14 35,14 26,0 44.5,-9 18.5,-9 41.5,-25 43,-30 84.5,-80.5 41.5,-50.5 73.5,-112 32,-61.5 52,-130.5 20,-69 20,-136 0,-56 -39,-91.5 -39,-35.5 -108,-35.5 -66,0 -130.5,16.5 -64.5,16.5 -128,41 -63.5,24.5 -128,53 -64.5,28.5 -131,53 -66.5,24.5 -137,41 Q 257,1521 182,1521 136,1521 101.5,1508.5 67,1496 44.5,1476 22,1456 11,1429.5 0,1403 0,1374 q 0,-39 15,-69 15,-30 38,-50 23,-20 51.5,-30.5 28.5,-10.5 55.5,-10.5 21,0 37,7 16,7 16,20 0,12 -7,19.5 -7,7.5 -20,7.5 -9,0 -14,-4.5 -5,-4.5 -9.5,-10 -4.5,-5.5 -9.5,-10 -5,-4.5 -15,-4.5 -17,0 -38,8.5 -21,8.5 -39,26 -18,17.5 -30.5,43.5 -12.5,26 -12.5,60 0,26 11,49 11,23 32.5,40 21.5,17 53.5,27 32,10 74,10 72,0 141,-19.5 69,-19.5 135.5,-48.5 66.5,-29 132,-63.5 Q 663,1337 728,1308 793,1279 858.5,1259.5 924,1240 992,1240 q 43,0 74.5,12.5 31.5,12.5 52,34.5 20.5,22 30.5,52 10,30 10,65 0,71 -21.5,144.5 -21.5,73.5 -56.5,140.5 -35,67 -80,122.5 -45,55.5 -93,90.5 -53,39 -107,47 -4,8 -4,14 z"></path></svg>
