<?xml version="1.0" encoding="UTF-8" standalone="no"?>
<svg xmlns="http://www.w3.org/2000/svg" width="4558" height="2057"><path id="path492" d="m 709,1888 q 15,-18 34,-33.5 19,-15.5 38,-27 19,-11.5 37,-18 18,-6.5 32,-6.5 18,0 32,9 14,9 14,30 0,18 -7,36 -7,18 -15.5,36 -8.5,18 -15.5,37 -7,19 -7,39 0,13 5,17 5,4 10,4 7,0 15,-4.5 8,-4.5 16,-10.5 9,-6 17,-15 l 8,8 q -16,18 -33,31 -15,12 -33,21.5 -18,9.5 -36,9.5 -23,0 -41.5,-10.5 Q 760,2030 760,2003 q 0,-20 8.5,-39.5 8.5,-19.5 19,-38.5 10.5,-19 19,-36 8.5,-17 8.5,-31 0,-15 -11,-15 -11,0 -36,14 -25,14 -56,52 -10,12 -18,31.5 -8,19.5 -14,39.5 -6,20 -9,36.5 -3,16.5 -3,21.5 0,15 -14,15 -8,0 -21,-2 -13,-2 -26,-2 -14,0 -24,4 -10,4 -13,4 -4,0 -4,-4 0,-3 5.5,-9 5.5,-6 12.5,-18 9,-16 19,-43.5 10,-27.5 19.5,-58 9.5,-30.5 18,-60.5 8.5,-30 14.5,-52 26,-96 62.5,-184 Q 754,1540 800,1465 734,1444 667.5,1422.5 601,1401 531,1383.5 461,1366 386,1355 q -75,-11 -156,-11 -100,0 -152.5,42 -52.5,42 -61.5,111 -1,6 -2,11.5 -1,5.5 -6,5.5 -5,0 -6.5,-6 -1.5,-6 -1.5,-15 0,-37 12,-79.5 12,-42.5 39,-77.5 27,-35 70,-58.5 43,-23.5 105,-23.5 67,0 139,17.5 72,17.5 147,44.5 75,27 152,59 77,32 155,61 36,-53 77,-96.5 41,-43.5 87.5,-74.5 46.5,-31 97.5,-48 51,-17 107,-17 46,0 83,10.5 37,10.5 63,31 26,20.5 40.5,49 14.5,28.5 14.5,64.5 0,44 -18.5,78 -18.5,34 -48,57 -29.5,23 -66.5,35 -37,12 -74,12 -83,0 -159.5,-14.5 Q 946,1508 870,1486 q -49,80 -89,181 -40,101 -72,221 z m 478,-621 q -91,0 -165,51 -74,51 -136,142 76,26 151,42.5 75,16.5 147,16.5 30,0 60,-11 30,-11 54,-31 24,-20 38.5,-47 14.5,-27 14.5,-60 0,-26 -13.5,-45.5 -13.5,-19.5 -36.5,-32 -23,-12.5 -52.5,-19 -29.5,-6.5 -61.5,-6.5 z"></path></svg>
