<?xml version="1.0" encoding="UTF-8" standalone="no"?>
<svg xmlns="http://www.w3.org/2000/svg" width="4558" height="2057"><path id="path501" d="m 942,1711 q -9,29 -18,60.5 -9,31.5 -17,57.5 -9,31 -16,59 15,-18 34,-33.5 19,-15.5 38,-27 19,-11.5 37,-18 18,-6.5 32,-6.5 18,0 32,9 14,9 14,30 0,18 -7,36 -7,18 -15.5,36 -8.5,18 -15.5,37 -7,19 -7,39 0,13 5,17 5,4 10,4 7,0 15,-4.5 8,-4.5 16,-10.5 9,-6 17,-15 l 8,8 q -16,18 -33,31 -15,12 -33,21.5 -18,9.5 -36,9.5 -23,0 -41.5,-10.5 Q 942,2030 942,2003 q 0,-20 8.5,-39.5 8.5,-19.5 19,-38.5 10.5,-19 19,-36 8.5,-17 8.5,-31 0,-15 -11,-15 -11,0 -36,14 -25,14 -56,52 -10,12 -18,31.5 -8,19.5 -14,39.5 -6,20 -9,36.5 -3,16.5 -3,21.5 0,15 -14,15 -8,0 -21,-2 -13,-2 -26,-2 -14,0 -24,4 -10,4 -13,4 -4,0 -4,-4 0,-3 6,-9 6,-6 12,-18 12,-21 20.5,-50 8.5,-29 20.5,-74 6,-20 12.5,-45.5 6.5,-25.5 13.5,-52 7,-26.5 13.5,-51.5 6.5,-25 11.5,-43 29,-102 66,-188 -89,-2 -172,-19 -83,-17 -156,-52 -63,21 -126,32.5 -63,11.5 -127,11.5 -69,0 -131,-14.5 Q 150,1466 103,1437 56,1408 28,1364 0,1320 0,1261 q 0,-43 17.5,-88 17.5,-45 55,-83 37.5,-38 97,-65.5 Q 229,997 312,989 316,911 341,838 366,765 410,705 454,645 516.5,601.5 579,558 657,539 661,465 697,392.5 733,320 800.5,263 868,206 968,171 q 100,-35 232,-35 112,0 219,35 107,35 191,108 84,73 135,186 51,113 51,269 0,110 -29,208 97,26 151.5,89 54.5,63 54.5,154 0,56 -22.5,102 -22.5,46 -63,78.5 -40.5,32.5 -96,50.5 -55.5,18 -121.5,18 -60,0 -121.5,-13 -61.5,-13 -126.5,-36 -93,57 -196.5,91 -103.5,34 -210.5,43 -21,45 -39.5,93 -18.5,48 -33.5,99 z m 163,-493 q 121,-147 260,-219.5 139,-72.5 273,-72.5 27,0 54,3 12,-46 18.5,-94.5 Q 1717,786 1717,735 1717,588 1675,479.5 1633,371 1562.5,300 1492,229 1399,194 1306,159 1203,159 1080,159 984.5,191.5 889,224 823,277 757,330 721,397.5 685,465 680,534 q 22,-4 44,-6 22,-2 45,-2 62,0 123,15.5 61,15.5 110.5,48 49.5,32.5 83.5,84 34,51.5 43,123.5 72,-39 112.5,-110.5 Q 1282,615 1282,531 1282,436 1234.5,385.5 1187,335 1110,335 q -24,0 -45,6 -21,6 -36.5,15.5 -15.5,9.5 -24.5,21.5 -9,12 -9,23 0,9 4,14.5 4,5.5 8.5,11 4.5,5.5 8.5,11.5 4,6 4,16 0,17 -11.5,26.5 Q 997,490 983,490 967,490 956,476.5 945,463 945,439 q 0,-23 13.5,-45 13.5,-22 36,-39 22.5,-17 53,-27.5 30.5,-10.5 64.5,-10.5 39,0 79,13 40,13 73,40.5 33,27.5 54,69.5 21,42 21,100 0,49 -15.5,93 -15.5,44 -43,81 -27.5,37 -65.5,66 -38,29 -84,47 0,94 -32.5,177.5 Q 1066,1088 1005,1169 Z M 378,985 q 76,0 152,14 76,14 152,38 76,24 150.5,55.5 74.5,31.5 148.5,65.5 57,-72 90.5,-152.5 Q 1105,925 1105,837 1046,855 982,855 914,855 854.5,835 795,815 751,777.5 707,740 681.5,685.5 656,631 656,562 592,583 541.5,624.5 491,666 455,722.5 419,779 398.5,846 378,913 374,985 Z m -5,25 q 0,76 17.5,139 17.5,63 49,113.5 31.5,50.5 74.5,90 43,39.5 94,67.5 104,-38 196,-100.5 92,-62.5 161,-142.5 -71,-33 -142,-63.5 -71,-30.5 -142.5,-54 -71.5,-23.5 -142,-37 Q 468,1009 398,1009 h -12.5 q 0,0 -12.5,1 z m 190,425 Q 507,1405 460.5,1364 414,1323 381,1270.5 348,1218 329.5,1154.5 311,1091 311,1015 q -71,10 -117,34.5 -46,24.5 -73,58.5 -27,34 -38,73 -11,39 -11,77 0,51 21,90 21,39 59.5,64.5 38.5,25.5 93,38.5 54.5,13 120.5,13 98,0 197,-29 z m 1375,-236 q 0,-38 -15.5,-68.5 -15.5,-30.5 -42.5,-53.5 -27,-23 -62.5,-38.5 -35.5,-15.5 -75.5,-24.5 -45,112 -122,201.5 -77,89.5 -175,154.5 58,20 112,31.5 54,11.5 105,11.5 61,0 112,-16 51,-16 87.5,-44.5 36.5,-28.5 56.5,-68 20,-39.5 20,-85.5 z M 982,833 q 66,0 121,-23 -6,-71 -38,-121.5 Q 1033,638 986.5,606 940,574 884,559 828,544 772,544 q -50,0 -93,12 0,65 24.5,116.5 24.5,51.5 66,87 41.5,35.5 96.5,54.5 55,19 116,19 z m 652,169 q -115,0 -232.5,66 -117.5,66 -220.5,187 57,28 111,52.5 54,24.5 107,44.5 89,-65 158,-152.5 69,-87.5 111,-196.5 -9,0 -17.5,-0.5 -8.5,-0.5 -16.5,-0.5 z M 989,1189 Q 921,1268 831.5,1331.5 742,1395 639,1436 q 68,33 142.5,49.5 74.5,16.5 149.5,18.5 34,-78 73.5,-144 39.5,-66 84.5,-123 z m 176,85 q -39,49 -74.5,105.5 -35.5,56.5 -66.5,120.5 93,-10 182,-44 89,-34 170,-88 -51,-20 -104,-44 -53,-24 -107,-50 z"></path></svg>
