<?xml version="1.0" encoding="UTF-8" standalone="no"?>
<svg xmlns="http://www.w3.org/2000/svg" width="4558" height="2057"><path id="path467" d="m 570,1527 q -24,113 -64.5,210 -40.5,97 -94.5,168 -54,71 -120.5,111.5 Q 224,2057 149,2057 74,2057 37,2017 0,1977 0,1917 q 0,-65 39,-131 39,-66 105,-121.5 66,-55.5 153.5,-95 Q 385,1530 481,1517 q 10,-30 17.5,-53.5 7.5,-23.5 13,-44 5.5,-20.5 10,-38.5 4.5,-18 8.5,-37 -7,10 -18,22 -11,12 -24.5,22 -13.5,10 -28.5,17 -15,7 -29,7 -37,0 -59.5,-21.5 Q 348,1369 348,1335 q 0,-36 16.5,-67 16.5,-31 41,-54.5 24.5,-23.5 53.5,-37 29,-13.5 54,-13.5 29,0 44,13 15,13 17,33 5,-15 18,-25 13,-10 39,-14 12,-2 21,-4.5 9,-2.5 15,-5.5 7,-4 12,-7 l 6,12 q -6,5 -12,11 -5,5 -12.5,13 -7.5,8 -14.5,19 -14,23 -21,43.5 -7,20.5 -13,45.5 -8,29 -15,83 -7,54 -24,132 58,1 106,12 48,11 83,33.5 35,22.5 54.5,56.5 19.5,34 19.5,82 0,29 -12.5,47 -12.5,18 -26.5,18 -11,0 -18.5,-7 -7.5,-7 -7.5,-18 0,-10 5.5,-15.5 5.5,-5.5 12,-11 6.5,-5.5 12,-13.5 5.5,-8 5.5,-23 0,-33 -17,-60 -17,-27 -48,-45.5 -31,-18.5 -74.5,-29 Q 623,1528 570,1527 Z m -94,7 q -90,14 -171,53 -81,39 -142.5,92 Q 101,1732 65,1793.5 29,1855 29,1914 q 0,32 22,54 22,22 66,22 59,0 109.5,-32 50.5,-32 94,-91.5 43.5,-59.5 82,-144 Q 441,1638 476,1534 Z m -13,-154 q 17,0 39,-22 22,-22 36,-51 3,-7 7,-19 4,-12 7,-24.5 3,-12.5 5,-23.5 2,-11 2,-17 0,-18 -8,-30 -8,-12 -28,-12 -18,0 -34,14 -16,14 -27.5,36 -11.5,22 -18,47.5 -6.5,25.5 -6.5,47.5 0,54 26,54 z"></path></svg>
