<?xml version="1.0" encoding="UTF-8" standalone="no"?>
<svg xmlns="http://www.w3.org/2000/svg" width="4558" height="2057"><path id="path145" d="m 197,2036 q 30,0 65,-25.5 35,-25.5 65,-72.5 30,-47 50.5,-113.5 Q 398,1758 398,1676 q 0,-60 -16,-91 -16,-31 -58,-31 -34,0 -72.5,26 -38.5,26 -71.5,73.5 -33,47.5 -54.5,112.5 -21.5,65 -21.5,143 0,61 22.5,94 22.5,33 70.5,33 z m -32,21 q -33,0 -63,-9.5 -30,-9.5 -52.5,-29 Q 27,1999 13.5,1969.5 0,1940 0,1900 q 0,-52 15.5,-99.5 15.5,-47.5 41.5,-88 26,-40.5 60.5,-73 34.5,-32.5 73,-56 38.5,-23.5 78.5,-36 40,-12.5 77,-12.5 32,0 60,8 28,8 48.5,26 20.5,18 32,47 11.5,29 11.5,72 0,83 -31.5,151 -31.5,68 -80.5,116.5 -49,48.5 -107.5,75 Q 220,2057 165,2057 Z m 200,-601 q -5,0 -15,6 -10,6 -41,23 -23,13 -34.5,19 -11.5,6 -16.5,6 -7,0 -7,-6 0,-4 10,-10 12,-7 20.5,-13 8.5,-6 16,-12 7.5,-6 14.5,-13.5 7,-7.5 16,-17.5 14,-15 22.5,-25.5 8.5,-10.5 25.5,-10.5 18,0 22,10.5 4,10.5 11,25.5 l 8.5,17 q 0,0 7.5,13 7.5,13 9.5,12 2,-1 14.5,15 5,5 5,9 0,6 -8,6 -4,0 -16,-7 -12,-7 -26,-19 -21,-18 -27.5,-23 -6.5,-5 -11.5,-5 z"></path></svg>
