<?xml version="1.0" encoding="UTF-8" standalone="no"?>
<svg xmlns="http://www.w3.org/2000/svg" width="4558" height="2057"><path id="path31" d="m 176,1614 q 5,-18 12.5,-28.5 7.5,-10.5 20.5,-18.5 -27,6 -51.5,19.5 -24.5,13.5 -43,32 -18.5,18.5 -29,42 Q 75,1684 75,1710 q 0,22 9,36.5 9,14.5 25,25.5 l -7,9 Q 89,1777 71.5,1770.5 54,1764 38,1753.5 22,1743 11,1729.5 0,1716 0,1699 q 0,-34 24.5,-63.5 24.5,-29.5 65,-50.5 40.5,-21 93.5,-33 53,-12 110,-12 23,0 53,4.5 30,4.5 57,16.5 27,12 45.5,32.5 18.5,20.5 18.5,52.5 0,33 -15,57 -15,24 -38,41 -23,17 -50.5,26.5 -27.5,9.5 -52.5,13.5 17,2 41.5,7.5 24.5,5.5 47.5,18 23,12.5 39.5,33.5 16.5,21 16.5,53 0,51 -27,82.5 -27,31.5 -63.5,49 -36.5,17.5 -74,23.5 -37.5,6 -59.5,6 H 16 l 4,-15 h 40 z m 46,178 q -11,41 -21.5,81 -10.5,40 -19,72.5 -8.5,32.5 -14,53.5 -5.5,21 -5.5,23 0,20 23,20 h 47 q 14,0 35.5,-6 21.5,-6 41.5,-22.5 20,-16.5 34,-45 14,-28.5 14,-72.5 0,-54 -23.5,-79 -23.5,-25 -65.5,-25 z m 4,-15 h 45 q 45,0 74.5,-40 29.5,-40 29.5,-106 0,-22 -5.5,-36 -5.5,-14 -13.5,-21.5 -8,-7.5 -17.5,-10 -9.5,-2.5 -17.5,-2.5 -22,0 -33.5,14.5 Q 276,1590 268,1622 Z"></path></svg>
