<?xml version="1.0" encoding="UTF-8" standalone="no"?>
<svg xmlns="http://www.w3.org/2000/svg" width="4558" height="2057"><path id="path308" d="m 425,1859 q 3,-10 7.5,-26.5 4.5,-16.5 10,-36 5.5,-19.5 11,-41 5.5,-21.5 10.5,-42.5 -30,-19 -47,-47 -17,-28 -17,-63 0,-28 12.5,-55 12.5,-27 34.5,-53 -14,-27 -33,-51 -37,30 -72,61 -35,31 -69.5,56 -34.5,25 -70,40.5 Q 167,1617 130,1617 104,1617 80.5,1610 57,1603 39,1589.5 21,1576 10.5,1557 0,1538 0,1513 q 0,-36 21,-67 21,-31 55,-54.5 34,-23.5 76,-37 42,-13.5 84,-13.5 59,0 104,22.5 45,22.5 77,56.5 28,-22 59,-42.5 31,-20.5 65,-36.5 34,-16 71.5,-25 37.5,-9 78.5,-9 40,0 77,8.5 37,8.5 65.5,28 28.5,19.5 46,50 17.5,30.5 17.5,75.5 0,53 -27.5,102.5 -27.5,49.5 -72.5,87.5 -45,38 -102,61 -57,23 -116,23 -24,0 -43,-3 l -32,119 q 9,-10 22,-18.5 13,-8.5 27,-15.5 14,-7 27.5,-11 13.5,-4 24.5,-4 27,0 50,18.5 23,18.5 23,59.5 0,31 -12,61.5 -12,30.5 -32,54.5 -20,24 -47,38.5 -27,14.5 -57,14.5 -36,0 -56,-16 -20,-16 -27,-33 -17,18 -31.5,27.5 -14.5,9.5 -27.5,14.5 -13,5 -23,6 -10,1 -17,1 v -7 q 14,-6 24,-22.5 10,-16.5 18,-41.5 8,-25 16,-57 8,-32 19,-70 z m 160,-268 q -10,18 -21.5,54 -11.5,36 -23.5,81 10,2 21,3 11,1 23,1 52,0 100.5,-22.5 48.5,-22.5 85.5,-59.5 37,-37 59.5,-84 22.5,-47 22.5,-95 0,-40 -12,-68.5 -12,-28.5 -33.5,-46.5 -21.5,-18 -51,-26 -29.5,-8 -64.5,-8 -39,0 -74.5,9 -35.5,9 -68,24.5 -32.5,15.5 -62.5,36 -30,20.5 -58,42.5 19,23 33,48 38,-38 90.5,-62.5 Q 604,1393 657,1393 q 63,0 92.5,26.5 29.5,26.5 29.5,71.5 0,20 -7,37 -7,17 -19,30 -12,13 -27,20 -15,7 -31,7 -19,0 -28.5,-8.5 -9.5,-8.5 -9.5,-19.5 0,-11 6.5,-19.5 6.5,-8.5 18.5,-8.5 9,0 14,3.5 5,3.5 8.5,7 3.5,3.5 7.5,7 4,3.5 11,3.5 15,0 28.5,-16 13.5,-16 13.5,-46 0,-35 -26.5,-59 -26.5,-24 -80.5,-24 -53,0 -102,29.5 -49,29.5 -81,71.5 13,29 19.5,56 6.5,27 6.5,48 11,-32 41,-44 10,-4 18,-7 8,-3 17,-6.5 9,-3.5 19.5,-8 Q 607,1540 623,1532 l 5,10 q -8,5 -15,12 -14,13 -28,37 z m -439,5 q 31,0 62,-14.5 31,-14.5 62.5,-38 31.5,-23.5 64.5,-53 33,-29.5 69,-59.5 -30,-34 -72,-56 -42,-22 -96,-22 -37,0 -71.5,10.5 -34.5,10.5 -61,30.5 -26.5,20 -42.5,48 -16,28 -16,64 0,42 26.5,66 26.5,24 74.5,24 z m 422,243 q -6,0 -16.5,4.5 -10.5,4.5 -22,13.5 -11.5,9 -22.5,22.5 -11,13.5 -17,31.5 -3,7 -6.5,18.5 -3.5,11.5 -7,23.5 -3.5,12 -6,23 -2.5,11 -2.5,16 0,24 14,32.5 14,8.5 27,8.5 16,0 30.5,-15.5 14.5,-15.5 26,-39 11.5,-23.5 18,-50 6.5,-26.5 6.5,-49.5 0,-40 -22,-40 z M 435,1603 q 0,51 35,86 5,-21 7.5,-37.5 2.5,-16.5 2.5,-27.5 0,-46 -20,-98 -25,41 -25,77 z"></path></svg>
