<?xml version="1.0" encoding="UTF-8" standalone="no"?>
<svg xmlns="http://www.w3.org/2000/svg" width="4558" height="2057"><path id="path386" d="m 281,2023 q 28,0 62,-16 34,-16 69,-35 35,-19 68.5,-35 33.5,-16 59.5,-16 38,0 63.5,12.5 25.5,12.5 48,27.5 22.5,15 47.5,27.5 25,12.5 64,12.5 22,0 39,-5 17,-5 29.5,-12 12.5,-7 21,-14.5 8.5,-7.5 15.5,-12.5 l 8,9 q -9,9 -26,24.5 -17,15.5 -39,30 -22,14.5 -48.5,25.5 -26.5,11 -54.5,11 -36,0 -64.5,-13 -28.5,-13 -53,-28.5 -24.5,-15.5 -49,-28.5 -24.5,-13 -53.5,-13 -33,0 -63,12 -30,12 -60,26 -30,14 -62,26 -32,12 -68,12 -27,0 -40.5,-11.5 Q 181,2027 181,2008 q 0,-6 0.5,-11 0.5,-5 2.5,-14 -8,11 -19,22.5 -11,11.5 -24,21.5 -13,10 -28,16.5 -15,6.5 -32,6.5 -35,0 -58,-18 -23,-18 -23,-56 0,-36 16.5,-67 16.5,-31 41,-54.5 24.5,-23.5 53.5,-37 29,-13.5 54,-13.5 21,0 34,5.5 13,5.5 24,16.5 9,-36 18,-69 8,-28 15.5,-57 7.5,-29 12.5,-48 6,-23 17,-33.5 11,-10.5 25,-19.5 -3,1 -7,1 h -7 q -7,0 -12,-1 l -10,-2 q 0,0 -9,-2 l 9,-12 8,2 q 10,2 21,2 17,0 43,-4.5 26,-4.5 58,-18.5 l 5,9 q -6,5 -13,12 -6,6 -13.5,15 -7.5,9 -14.5,22 -9,16 -18,41.5 -9,25.5 -19,57.5 -10,32 -20,68.5 -10,36.5 -21,74.5 -3,12 -8.5,31.5 -5.5,19.5 -11,40 -5.5,20.5 -9,38.5 -3.5,18 -3.5,28 0,8 6,14.5 6,6.5 16,6.5 z m -166,-4 q 9,0 19.5,-7 10.5,-7 21,-18 10.5,-11 20.5,-24.5 10,-13.5 16,-27.5 3,-7 6.5,-18 3.5,-11 6.5,-22 3,-11 4.5,-21.5 1.5,-10.5 1.5,-16.5 0,-18 -7.5,-30 -7.5,-12 -28.5,-12 -18,0 -34,14 -16,14 -27.5,36 -11.5,22 -18,47.5 -6.5,25.5 -6.5,47.5 0,28 6,40 6,12 20,12 z"></path></svg>
