<?xml version="1.0" encoding="UTF-8" standalone="no"?>
<svg xmlns="http://www.w3.org/2000/svg" width="4558" height="2057"><path id="path224" d="m 204,2057 h -33 v -403 q 0,-37 11.5,-58 11.5,-21 27.5,-30 -29,7 -54,21 -25,14 -43,32.5 -18,18.5 -28.5,42 Q 74,1685 74,1710 q 0,22 9,36.5 9,14.5 26,25.5 l -8,9 Q 88,1777 70.5,1770 53,1763 37.5,1752.5 22,1742 11,1729 0,1716 0,1699 q 0,-26 17,-51.5 17,-25.5 47.5,-46.5 30.5,-21 72,-35 41.5,-14 89.5,-19 12,-1 22,-1.5 10,-0.5 19.5,-1 9.5,-0.5 20.5,-0.5 h 26 l -6,15 q -24,5 -33,25 -9,20 -9,55 v 280 l 238,-360 h -49 l 6,-15 h 126 l -6,15 h -47 z"></path></svg>
