<?xml version="1.0" encoding="UTF-8" standalone="no"?>
<svg xmlns="http://www.w3.org/2000/svg" width="4558" height="2057"><path id="path603" d="m 1438,693 q 100,0 172,28.5 72,28.5 118.5,79 46.5,50.5 68.5,118.5 22,68 22,146 0,73 -20,141.5 -20,68.5 -56.5,128.5 -36.5,60 -87,110 -50.5,50 -111,86 -60.5,36 -129.5,56 -69,20 -141,20 -61,0 -110,-15 -49,-15 -84.5,-42 -35.5,-27 -57,-64.5 Q 1001,1448 995,1404 941,1414 885.5,1422.5 830,1431 773,1440 q -30,75 -56,154 -26,79 -46,160 -11,42 -17.5,75.5 -6.5,33.5 -6.5,50.5 0,15 5.5,20.5 5.5,5.5 13.5,5.5 9,0 18,-4.5 9,-4.5 17,-10.5 9,-6 17,-15 l 8,8 q -16,18 -34,31 -15,12 -33,21.5 -18,9.5 -35,9.5 -27,0 -44.5,-17.5 Q 562,1911 562,1885 q 0,-25 9,-59 9,-34 20,-79 20,-75 43,-148.5 23,-73.5 49,-143.5 -77,13 -151,30 -74,17 -140,40 -66,23 -121.5,53.5 -55.5,30.5 -95.5,71 -40,40.5 -62.5,93.5 -22.5,53 -22.5,121 0,78 47,120.5 47,42.5 124,42.5 42,0 80.5,-17 38.5,-17 68.5,-45 30,-28 48,-64.5 18,-36.5 18,-76.5 0,-33 -8.5,-57 -8.5,-24 -23,-39.5 -14.5,-15.5 -32.5,-23 -18,-7.5 -36,-7.5 -11,0 -18,5 -7,5 -12.5,11 -5.5,6 -11,11 -5.5,5 -11.5,5 -26,0 -26,-25 0,-12 16,-22 16,-10 43,-10 27,0 52.5,9 25.5,9 45.5,28 20,19 32,47 12,28 12,66 0,44 -21,86.5 -21,42.5 -56.5,75.5 -35.5,33 -83,53 -47.5,20 -101.5,20 -45,0 -87.5,-12.5 Q 106,2032 73,2006 40,1980 20,1939.5 0,1899 0,1842 0,1770 27.5,1715 55,1660 103,1618.5 151,1577 217,1547 q 66,-30 143,-52 77,-22 162,-38 85,-16 172,-30 61,-156 140,-290.5 79,-134.5 173,-233 Q 1101,805 1209.5,749 1318,693 1438,693 Z m 7,80 q -104,0 -198.5,49.5 Q 1152,872 1068,958 984,1044 912.5,1161.5 841,1279 784,1414 q 54,-8 106.5,-16 52.5,-8 102.5,-17 0,-77 28.5,-145.5 28.5,-68.5 75,-120 46.5,-51.5 105.5,-81.5 59,-30 120,-30 65,0 104,31.5 39,31.5 39,83.5 0,65 -35,111 -35,46 -95,78.5 -60,32.5 -141,54 -81,21.5 -173,37.5 6,39 25.5,73.5 19.5,34.5 52,59.5 32.5,25 76.5,39.5 44,14.5 98,14.5 101,0 191,-42 90,-42 157.5,-112.5 67.5,-70.5 106.5,-162 39,-91.5 39,-190.5 0,-76 -23,-133.5 -23,-57.5 -65.5,-96 -42.5,-38.5 -102,-58 Q 1517,773 1445,773 Z m -426,604 q 80,-13 148.5,-33 68.5,-20 119,-49 50.5,-29 79,-69 28.5,-40 28.5,-93 0,-46 -27.5,-69 -27.5,-23 -74.5,-23 -49,0 -98,27.5 -49,27.5 -88,73.5 -39,46 -63,107 -24,61 -24,128 z m 492,-836 q 8,0 16.5,14 8.5,14 8.5,26 0,17 -23,37 -28,25 -59.5,38 -31.5,13 -56.5,13 -4,0 -7.5,-2 -3.5,-2 -3.5,-7 0,-5 9,-9 22,-10 49.5,-34 27.5,-24 51.5,-65 5,-11 15,-11 z"></path></svg>
