<?xml version="1.0" encoding="UTF-8" standalone="no"?>
<svg xmlns="http://www.w3.org/2000/svg" width="4558" height="2057"><path id="path573" d="m 396,1996 q 0,-15 7,-47.5 7,-32.5 17.5,-72.5 10.5,-40 22.5,-83 12,-43 21,-80 -30,-19 -47,-47 -17,-28 -17,-63 0,-27 12.5,-54.5 12.5,-27.5 33.5,-52.5 -7,-14 -14.5,-27 -7.5,-13 -17.5,-25 -37,30 -72,61 -35,31 -69.5,56 -34.5,25 -70,40.5 Q 167,1617 130,1617 104,1617 80.5,1610 57,1603 39,1589.5 21,1576 10.5,1557 0,1538 0,1513 q 0,-36 21,-67 21,-31 55,-54.5 34,-23.5 76,-37 42,-13.5 84,-13.5 59,0 104,22.5 45,22.5 77,56.5 28,-22 59,-42.5 31,-20.5 65,-36.5 34,-16 71.5,-25 37.5,-9 78.5,-9 40,0 77,8.5 37,8.5 65.5,28 28.5,19.5 46,50 17.5,30.5 17.5,75.5 0,53 -27.5,102.5 -27.5,49.5 -72.5,87.5 -45,38 -102,61 -57,23 -116,23 -26,0 -45,-4 -10,36 -19.5,73 -9.5,37 -17,70.5 -7.5,33.5 -12,61 -4.5,27.5 -4.5,42.5 0,19 5.5,25 5.5,6 13.5,6 9,0 18,-4.5 9,-4.5 17,-10.5 9,-6 17,-15 l 8,8 q -16,18 -34,31 -15,12 -33,21.5 -18,9.5 -35,9.5 -27,0 -44.5,-17.5 Q 396,2022 396,1996 Z m 190,-403 q -8,14 -20.5,50 -12.5,36 -26.5,82 23,5 45,5 52,0 100.5,-22.5 48.5,-22.5 85.5,-59.5 37,-37 59.5,-84 22.5,-47 22.5,-95 0,-40 -12,-68.5 -12,-28.5 -33.5,-46.5 -21.5,-18 -51,-26 -29.5,-8 -64.5,-8 -39,0 -74.5,9 -35.5,9 -68,24.5 -32.5,15.5 -62.5,36 -30,20.5 -58,42.5 19,23 33,48 38,-38 90.5,-62.5 Q 604,1393 657,1393 q 63,0 92.5,26.5 29.5,26.5 29.5,71.5 0,20 -7,37 -7,17 -19,30 -12,13 -27,20 -15,7 -31,7 -19,0 -28.5,-8.5 -9.5,-8.5 -9.5,-19.5 0,-11 6.5,-19.5 6.5,-8.5 18.5,-8.5 9,0 14,3.5 5,3.5 8.5,7 3.5,3.5 7.5,7 4,3.5 11,3.5 15,0 28.5,-16 13.5,-16 13.5,-46 0,-35 -26.5,-59 -26.5,-24 -80.5,-24 -53,0 -102,29.5 -49,29.5 -81,71.5 13,29 19.5,56 6.5,27 6.5,48 11,-32 41,-44 10,-4 18,-7 8,-3 17,-6.5 9,-3.5 19.5,-8 Q 607,1540 623,1532 l 5,10 q -7,5 -14,12 -6,6 -13.5,16 -7.5,10 -14.5,23 z m -440,3 q 31,0 62,-14.5 31,-14.5 62.5,-38 31.5,-23.5 64,-53 32.5,-29.5 68.5,-58.5 -30,-35 -71.5,-57 -41.5,-22 -95.5,-22 -37,0 -71.5,10.5 -34.5,10.5 -61,30.5 -26.5,20 -42.5,48 -16,28 -16,64 0,42 26.5,66 26.5,24 74.5,24 z m 334,30 q 0,-46 -20,-100 -25,41 -25,77 0,51 35,86 5,-20 7.5,-36.5 2.5,-16.5 2.5,-26.5 z m 162,-210 q 8,0 15.5,13 7.5,13 7.5,24 0,16 -21,34 -26,23 -55,34.5 -29,11.5 -52,11.5 -3,0 -6.5,-1.5 -3.5,-1.5 -3.5,-6.5 0,-4 8,-8 20,-9 45.5,-31 25.5,-22 48.5,-60 4,-10 13,-10 z"></path></svg>
