<?xml version="1.0" encoding="UTF-8" standalone="no"?>
<svg xmlns="http://www.w3.org/2000/svg" width="4558" height="2057"><path id="path458" d="m 280,1662 q -7,36 -15.5,77.5 -8.5,41.5 -18.5,82 -10,40.5 -21.5,76 -11.5,35.5 -23.5,58.5 -14,25 -37,44 -23,19 -51,31.5 -28,12.5 -57.5,19 Q 26,2057 0,2057 l 1,-9 q 42,-14 67,-43.5 25,-29.5 48,-71.5 32,-61 49,-131.5 17,-70.5 33,-139.5 h -22 l 9,-17 h 17 q 3,-13 7,-28 3,-13 7.5,-28.5 4.5,-15.5 9.5,-32.5 9,-30 25,-51 16,-21 34.5,-34 18.5,-13 37.5,-19 19,-6 35,-6 31,0 48,16 17,16 17,34 0,17 -10,31 -10,14 -31,14 -15,0 -23.5,-7.5 -8.5,-7.5 -8.5,-18.5 0,-16 9.5,-24.5 9.5,-8.5 9.5,-17.5 0,-12 -9,-12 -22,0 -34.5,26 -12.5,26 -24.5,76 -3,11 -6,25 -3,14 -5,27 l -6,30 h 68 l -10,17 z"></path></svg>
