<?xml version="1.0" encoding="UTF-8" standalone="no"?>
<svg xmlns="http://www.w3.org/2000/svg" width="4558" height="2057"><path id="path227" d="m 491,1893 201,-334 h -49 l 6,-15 h 126 l -6,15 h -47 l -303,498 h -28 l 14,-364 -243,364 h -31 l 40,-403 q 4,-35 14.5,-56 10.5,-21 24.5,-30 -29,6 -54,20 -25,14 -43,33.5 -18,19.5 -28.5,42 Q 74,1686 74,1710 q 0,22 9.5,36.5 9.5,14.5 26.5,25.5 l -9,9 Q 88,1777 70.5,1770.5 53,1764 37.5,1753.5 22,1743 11,1729.5 0,1716 0,1699 q 0,-28 17,-53.5 17,-25.5 47.5,-46 30.5,-20.5 72,-34 41.5,-13.5 89.5,-18.5 12,-1 22,-1.5 10,-0.5 19.5,-1 9.5,-0.5 20.5,-0.5 h 26 l -5,15 q -24,5 -32,26.5 -8,21.5 -11,53.5 l -27,262 237,-357 h 31 z"></path></svg>
