<?xml version="1.0" encoding="UTF-8" standalone="no"?>
<svg xmlns="http://www.w3.org/2000/svg" width="4558" height="2057"><path id="path938" d="m 421,1311 q 8,0 16.5,14 8.5,14 8.5,26 0,17 -23,37 -28,25 -59.5,38 -31.5,13 -56.5,13 -4,0 -7.5,-2 -3.5,-2 -3.5,-7 0,-5 9,-9 22,-10 49.5,-34 27.5,-24 51.5,-65 5,-11 15,-11 z m -101,325 q -29,32 -63.5,53.5 -34.5,21.5 -61.5,21.5 -23,0 -41,-13.5 -18,-13.5 -18,-40.5 0,-16 8.5,-35.5 8.5,-19.5 18.5,-38.5 10,-19 18.5,-37 8.5,-18 8.5,-33 0,-10 -7,-10 -5,0 -11,4 -6,4 -12,9 -7,6 -15,13 l -8,-9 q 6,-6 17.5,-15.5 11.5,-9.5 25,-19 13.5,-9.5 28,-16.5 14.5,-7 26.5,-7 22,0 33,9 11,9 11,24 0,15 -8,35 -8,20 -17,41.5 -9,21.5 -17,43 -8,21.5 -8,39.5 0,14 14,14 11,0 27,-10.5 16,-10.5 38,-33.5 13,-14 20,-29.5 7,-15.5 14,-44.5 5,-22 11.5,-37 6.5,-15 15.5,-24 9,-9 21.5,-14 12.5,-5 29.5,-7 22,-3 36,-10 7,-4 12,-7 l 6,12 q -5,2 -9,6 -4,3 -9,7.5 -5,4.5 -10,11.5 -14,19 -24,42 -10,23 -21,65 -9,35 -19,87.5 -10,52.5 -18,106.5 -9,62 -25,111.5 -16,49.5 -41,84.5 -25,35 -60,53.5 -35,18.5 -83,18.5 -34,0 -62.5,-10 Q 63,2037 43,2019 23,2001 11.5,1977.5 0,1954 0,1927 q 0,-32 14,-49.5 14,-17.5 30,-17.5 14,0 22.5,9 8.5,9 8.5,21 0,12 -5.5,20 -5.5,8 -12,15 -6.5,7 -12,14.5 -5.5,7.5 -5.5,17.5 0,35 23,51 23,16 59,16 29,0 52.5,-19 23.5,-19 42.5,-50.5 19,-31.5 34,-72 15,-40.5 27,-83.5 12,-43 22,-85.5 10,-42.5 20,-77.5 z"></path></svg>
