<?xml version="1.0" encoding="UTF-8" standalone="no"?>
<svg xmlns="http://www.w3.org/2000/svg" width="4558" height="2057"><path id="path638" d="m 317,1687 q -24,0 -51,-7 -27,-7 -50,-23 -23,-16 -38.5,-42 -15.5,-26 -15.5,-63 0,-45 13.5,-91.5 13.5,-46.5 30,-88 16.5,-41.5 30,-74 13.5,-32.5 13.5,-49.5 0,-16 -10,-16 -14,0 -38,15.5 -24,15.5 -50,44.5 -8,9 -16.5,29 -8.5,20 -15.5,41 -7,21 -11.5,39.5 -4.5,18.5 -4.5,24.5 0,14 -22,14 -7,0 -16,-1.5 -9,-1.5 -23,-1.5 -14,0 -24.5,4 -10.5,4 -13.5,4 -4,0 -4,-6 0,-4 6.5,-8.5 6.5,-4.5 11.5,-15.5 9,-19 18,-44 9,-25 17,-50 8,-25 13,-45.5 5,-20.5 5,-29.5 0,-13 -8,-13 -4,0 -10.5,4.5 -6.5,4.5 -13.5,9.5 -8,6 -16,13 l -7,-9 q 6,-6 17.5,-15.5 Q 45,1227 58,1218 q 13,-9 27,-15.5 14,-6.5 26,-6.5 18,0 30.5,8.5 12.5,8.5 12.5,23.5 0,9 -1.5,17.5 -1.5,8.5 -3.5,16.5 -2,9 -4,17 15,-17 33,-32 18,-15 37,-26.5 19,-11.5 37,-18 18,-6.5 32,-6.5 19,0 35.5,11 16.5,11 16.5,27 0,27 -13,64.5 -13,37.5 -28.5,80.5 -15.5,43 -28.5,89.5 -13,46.5 -13,89.5 0,44 25.5,67.5 25.5,23.5 78.5,23.5 38,0 79.5,-12.5 41.5,-12.5 85.5,-31.5 44,-19 91,-41.5 47,-22.5 96.5,-41.5 49.5,-19 100.5,-31.5 51,-12.5 104,-12.5 40,0 78,9 38,9 67.5,28.5 29.5,19.5 47.5,50.5 18,31 18,76 0,50 -20.5,100 -20.5,50 -56,96 -35.5,46 -83.5,86 -48,40 -102,69.5 -54,29.5 -111.5,46.5 -57.5,17 -113.5,17 -47,0 -87,-8 -40,-8 -69.5,-25.5 -29.5,-17.5 -46.5,-44 -17,-26.5 -17,-63.5 0,-61 34.5,-113 34.5,-52 85.5,-89 51,-37 108.5,-58 57.5,-21 103.5,-21 43,0 73,19.5 30,19.5 30,65.5 0,21 -7,35 -7,14 -21,14 -9,0 -16.5,-5.5 -7.5,-5.5 -7.5,-16.5 0,-8 4.5,-12.5 4.5,-4.5 9.5,-9 5,-4.5 9.5,-9.5 4.5,-5 4.5,-14 0,-22 -21.5,-37 -21.5,-15 -57.5,-15 -42,0 -89,22 -47,22 -86.5,58.5 -39.5,36.5 -65.5,83.5 -26,47 -26,97 0,32 12,56.5 12,24.5 34,41 22,16.5 51.5,24.5 29.5,8 65.5,8 49,0 97.5,-16.5 48.5,-16.5 93.5,-45 45,-28.5 84,-66.5 39,-38 67.5,-82 28.5,-44 45,-91.5 16.5,-47.5 16.5,-93.5 0,-39 -11.5,-67 -11.5,-28 -31.5,-46 -20,-18 -47.5,-27 -27.5,-9 -58.5,-9 -53,0 -104.5,14 -51.5,14 -101.5,35 -50,21 -99,46 -49,25 -96.5,46 -47.5,21 -93,35 -45.5,14 -89.5,14 z"></path></svg>
