<?xml version="1.0" encoding="UTF-8" standalone="no"?>
<svg xmlns="http://www.w3.org/2000/svg" width="4558" height="2057"><path id="path93" d="m 166,1613 q 4,-15 10,-26 6,-11 22,-20 -57,8 -90.5,39.5 Q 74,1638 74,1683 q 0,22 9,36.5 9,14.5 26,25.5 l -9,9 Q 87,1750 69.5,1743.5 52,1737 36.5,1727 21,1717 10.5,1703.5 0,1690 0,1672 0,1645 15.5,1624 31,1603 59.5,1587.5 88,1572 128,1562 q 40,-10 88,-15 25,-2 52,-2.5 27,-0.5 56,-0.5 l -7,15 q -9,0 -17,1.5 -8,1.5 -15,8.5 -7,7 -13.5,20 -6.5,13 -13.5,35 -1,3 -6,22 -5,19 -13,49 -8,30 -18.5,67 -10.5,37 -20.5,76 -25,91 -55,204 h 42 l -6,15 H 6 l 5,-15 h 39 z m 80,-160 q -5,0 -15,6 -10,6 -41,23 -23,13 -34.5,19 -11.5,6 -16.5,6 -7,0 -7,-6 0,-4 10,-10 12,-7 20.5,-13 8.5,-6 16,-12 7.5,-6 14.5,-13.5 7,-7.5 16,-17.5 14,-15 22.5,-25.5 8.5,-10.5 25.5,-10.5 18,0 22,10.5 4,10.5 11,25.5 l 8.5,17 q 0,0 7.5,13 7.5,13 9.5,12 2,-1 14.5,15 5,5 5,9 0,6 -8,6 -4,0 -16,-7 -12,-7 -26,-19 -21,-18 -27.5,-23 -6.5,-5 -11.5,-5 z"></path></svg>
