<?xml version="1.0" encoding="UTF-8" standalone="no"?>
<svg xmlns="http://www.w3.org/2000/svg" width="4558" height="2057"><path id="path792" d="m 284,1677 q -33,0 -52.5,25 -19.5,25 -19.5,63 0,19 6,38 3,-1 9,-1 22,0 35,12.5 13,12.5 13,29.5 0,14 -10,24.5 -10,10.5 -25,10.5 -17,0 -26,-14.5 -9,-14.5 -9,-30.5 -9,6 -15.5,11.5 -6.5,5.5 -12.5,13 -6,7.5 -12.5,18.5 -6.5,11 -15.5,27 -6,10 -14,30 -8,20 -14.5,41 -6.5,21 -11.5,39 -5,18 -5,24 0,14 -14,14 -7,0 -20,-1.5 -13,-1.5 -27,-1.5 -14,0 -25,4 -11,4 -14,4 -4,0 -4,-4 0,-3 6.5,-8.5 6.5,-5.5 11.5,-16.5 9,-17 18.5,-43 9.5,-26 17.5,-52 8,-26 13,-47 5,-21 5,-28 0,-3 -1.5,-6.5 -1.5,-3.5 -6.5,-3.5 -5,0 -11.5,4 -6.5,4 -12.5,9 -7,6 -15,13 l -7,-9 q 6,-5 17,-15 11,-10 24.5,-19.5 13.5,-9.5 28,-16.5 14.5,-7 26.5,-7 21,0 32.5,10 11.5,10 11.5,24 0,11 -1,15.5 -1,4.5 -2,6.5 7,-11 12.5,-18.5 5.5,-7.5 10.5,-13.5 5,-6 10.5,-11 5.5,-5 13.5,-11 -3,-11 -5,-25 -2,-14 -2,-23 0,-23 7.5,-44 7.5,-21 22,-37.5 14.5,-16.5 36,-26.5 21.5,-10 48.5,-10 17,0 33.5,5 16.5,5 29,15 12.5,10 20,23.5 7.5,13.5 7.5,31.5 0,9 -1.5,20 -1.5,11 -3.5,20 -3,11 -5,22 h 70 l -9,17 h -66 q -7,24 -15,50.5 -8,26.5 -14.5,51 -6.5,24.5 -11,45.5 -4.5,21 -4.5,34 0,19 6.5,26.5 6.5,7.5 16.5,7.5 10,0 20,-4.5 10,-4.5 18,-10.5 9,-6 17,-15 l 8,9 q -16,18 -34,31 -15,11 -33.5,20.5 -18.5,9.5 -36.5,9.5 -29,0 -49.5,-16.5 Q 251,2019 251,1993 q 0,-31 17,-80.5 17,-49.5 37,-115.5 h -23 l 9,-17 h 19 q 2,-11 5,-22 2,-10 4,-22 2,-12 2,-24 0,-12 -8.5,-23.5 Q 304,1677 284,1677 Z"></path></svg>
