<?xml version="1.0" encoding="UTF-8" standalone="no"?>
<svg xmlns="http://www.w3.org/2000/svg" width="4558" height="2057"><path id="path113" d="m 0,2057 5,-15 h 39 l 132,-483 h -41 l 6,-15 h 175 l -5,15 h -39 q -36,127 -63,227 -12,43 -23,84.5 -11,41.5 -19.5,74.5 -8.5,33 -14,54 -5.5,21 -5.5,23 0,12 8,16 8,4 19,4 35,0 61,-8 26,-8 47,-21 21,-13 37.5,-30 16.5,-17 31.5,-35 l 9,7 q -16,25 -22.5,48.5 -6.5,23.5 -8.5,40.5 -1,8 -7.5,10.5 -6.5,2.5 -14.5,2.5 z m 243,-545 q -9,0 -22,-13 -13,-13 -24,-30 -11,-17 -19,-33.5 -8,-16.5 -8,-23.5 0,-9 10,-9 4,0 11.5,9.5 7.5,9.5 17.5,21 10,11.5 21,21 11,9.5 22,9.5 15,0 31,-9.5 16,-9.5 30.5,-21.5 14.5,-12 24.5,-21.5 10,-9.5 13,-9.5 10,0 10,9 0,5 -14.5,21.5 -14.5,16.5 -34,34 -19.5,17.5 -39.5,31.5 -20,14 -30,14 z"></path></svg>
