<?xml version="1.0" encoding="UTF-8" standalone="no"?>
<svg xmlns="http://www.w3.org/2000/svg" width="4558" height="2057"><path id="path930" d="m 255,1719 q -45,0 -90.5,-11.5 -45.5,-11.5 -82,-37 Q 46,1645 23,1604 0,1563 0,1503 q 0,-50 23.5,-95 23.5,-45 64.5,-78.5 41,-33.5 97,-53.5 56,-20 121,-20 81,0 146.5,25 65.5,25 112.5,70.5 47,45.5 72.5,109.5 25.5,64 25.5,142 0,35 -5.5,66.5 Q 652,1701 644,1730 h 26 q 74,0 141.5,-24.5 67.5,-24.5 119.5,-71 52,-46.5 82.5,-113.5 30.5,-67 30.5,-153 0,-67 -18.5,-114.5 Q 1007,1206 977,1176 947,1146 908.5,1132.5 870,1119 830,1119 q -42,0 -77,13.5 -35,13.5 -60,35.5 -25,22 -39,51 -14,29 -14,60 0,54 30.5,87 30.5,33 84.5,33 18,0 31.5,-5.5 13.5,-5.5 22.5,-13 9,-7.5 13,-15.5 4,-8 4,-13 0,-10 -5.5,-15.5 -5.5,-5.5 -5.5,-16.5 0,-8 6,-13.5 6,-5.5 14,-5.5 11,0 17,9 6,9 6,20 0,15 -8,30 -8,15 -21.5,26.5 -13.5,11.5 -32,19 -18.5,7.5 -40.5,7.5 -61,0 -97,-35.5 -36,-35.5 -36,-101.5 0,-33 15,-66 15,-33 42,-60 27,-27 66,-43.5 39,-16.5 87,-16.5 51,0 102,15 51,15 92,48.5 41,33.5 66.5,86.5 25.5,53 25.5,129 0,92 -38.5,162.5 Q 1042,1602 979,1650.5 916,1699 835.5,1724 755,1749 671,1749 h -16.5 q 0,0 -16.5,-1 -15,45 -35.5,81.5 -20.5,36.5 -38.5,62.5 -21,30 -43,53 11,32 22.5,52 11.5,20 27.5,20 9,0 18.5,-4.5 9.5,-4.5 17.5,-10.5 10,-6 19,-15 l 7,8 q -17,18 -35,31 -15,12 -33.5,21.5 -18.5,9.5 -36.5,9.5 -29,0 -48,-10 -19,-10 -31,-44 -20,18 -32.5,28.5 -12.5,10.5 -22,16 -9.5,5.5 -18,7.5 -8.5,2 -18.5,2 -12,0 -24,-6.5 -12,-6.5 -12,-23.5 0,-17 12.5,-27.5 12.5,-10.5 27.5,-10.5 13,0 21,6.5 8,6.5 19,6.5 10,0 17.5,-2 7.5,-2 23.5,-14 -5,-17 -9,-37 -4,-20 -9,-43 -7,-29 -12,-40.5 -5,-11.5 -18,-11.5 -4,0 -10.5,4 -6.5,4 -12.5,9 -8,5 -16,12 l -8,-9 q 6,-5 16.5,-15 10.5,-10 23.5,-19.5 13,-9.5 27,-16.5 14,-7 25,-7 26,0 39,18 13,18 25,58 l 11,39 q 16,-23 31,-51 13,-24 27.5,-57 14.5,-33 26.5,-74 -63,-8 -108.5,-27 -45.5,-19 -77.5,-45 -33,22 -74,34 -41,12 -85,12 z m 240,-172 q 0,33 -18,62 -18,29 -47,52 29,24 72.5,41.5 43.5,17.5 102.5,24.5 8,-30 13,-62 5,-32 5,-66 0,-70 -23.5,-129.5 Q 576,1410 535,1367 494,1324 437,1299.5 380,1275 313,1275 q -59,0 -106,20 -47,20 -80,52.5 -33,32.5 -50.5,73 Q 59,1461 59,1503 q 0,52 16,89.5 16,37.5 43,62 27,24.5 62.5,36.5 35.5,12 74.5,12 40,0 76.5,-12.5 36.5,-12.5 64.5,-35.5 -24,-26 -36,-54 -12,-28 -12,-57 0,-15 6,-28.5 6,-13.5 16,-23 10,-9.5 22.5,-15 12.5,-5.5 25.5,-5.5 13,0 26.5,4 13.5,4 25,12.5 11.5,8.5 18.5,23 7,14.5 7,35.5 z m -128,1 q 0,23 10.5,47.5 10.5,24.5 32.5,47.5 20,-20 31.5,-44 11.5,-24 11.5,-50 0,-60 -40,-60 -17,0 -31.5,15.5 Q 367,1520 367,1548 Z"></path></svg>
