<?xml version="1.0" encoding="UTF-8" standalone="no"?>
<svg xmlns="http://www.w3.org/2000/svg" width="4558" height="2057"><path id="path106" d="m 176,1613 q 4,-15 11,-26 7,-11 21,-20 -29,4 -53.5,15 -24.5,11 -42.5,27.5 -18,16.5 -28,37 -10,20.5 -10,42.5 0,22 9,36.5 9,14.5 26,25.5 l -9,9 Q 87,1756 69.5,1749.5 52,1743 36.5,1733 21,1723 10.5,1709.5 0,1696 0,1678 q 0,-27 17,-49 17,-22 47.5,-38.5 30.5,-16.5 72,-27.5 41.5,-11 89.5,-16 25,-2 52,-2.5 27,-0.5 56,-0.5 l -6,15 q -9,0 -17,1.5 -8,1.5 -15.5,8.5 -7.5,7 -14,20 -6.5,13 -13.5,35 -1,3 -6,22 -5,19 -13,49 -8,30 -18.5,67 -10.5,37 -20.5,76 -25,91 -55,204 h 41 l -6,15 H 16 l 5,-15 h 39 z m 292,5 q -17,0 -32,6 -15,6 -34,22 -19,16 -43.5,42.5 -24.5,26.5 -58.5,68.5 24,57 47,107 20,43 41.5,84.5 21.5,41.5 37.5,60.5 11,14 19.5,21 8.5,7 14.5,10 6,4 11,4 l -7,13 h -56 q -9,0 -20,-1 -11,-1 -22,-4 -11,-3 -21,-8 -10,-5 -16,-12 -16,-18 -33.5,-55 -17.5,-37 -33.5,-75 -18,-44 -36,-94 50,-62 89.5,-111 39.5,-49 71.5,-83 32,-34 60,-52 28,-18 56,-18 21,0 32.5,11 11.5,11 11.5,26 0,15 -9,30 -9,15 -20,27 -12,14 -28,27 h -13 q 2,-6 4,-11 2,-5 3.5,-10.5 1.5,-5.5 1.5,-10.5 0,-15 -18,-15 z"></path></svg>
