<?xml version="1.0" encoding="UTF-8" standalone="no"?>
<svg xmlns="http://www.w3.org/2000/svg" width="4558" height="2057"><path id="path944" d="m 793,969 q 8,0 16.5,14 8.5,14 8.5,26 0,17 -23,37 -28,25 -59.5,38 -31.5,13 -56.5,13 -4,0 -7.5,-2 -3.5,-2 -3.5,-7 0,-5 9,-9 22,-10 49.5,-34 27.5,-24 51.5,-65 5,-11 15,-11 z M 230,2057 q -53,0 -95.5,-14.5 Q 92,2028 62,2002 32,1976 16,1941 0,1906 0,1865 q 0,-61 30,-114 30,-53 75.5,-91.5 45.5,-38.5 100,-60.5 54.5,-22 104.5,-22 54,0 87,26 33,26 33,72 0,29 -11,54 -11,25 -29.5,44 -18.5,19 -42,29.5 -23.5,10.5 -48.5,10.5 -27,0 -44,-11 -17,-11 -17,-25 0,-11 7.5,-17.5 7.5,-6.5 15.5,-6.5 12,0 18,6 6,6 10.5,12.5 4.5,6.5 9.5,12.5 5,6 16,6 16,0 34,-8.5 18,-8.5 32,-24 14,-15.5 23.5,-36.5 9.5,-21 9.5,-45 0,-40 -29.5,-62 -29.5,-22 -74.5,-22 -49,0 -97.5,21 -48.5,21 -86.5,55.5 -38,34.5 -62,80 -24,45.5 -24,93.5 0,69 44.5,108 44.5,39 122.5,39 91,0 163.5,-41.5 72.5,-41.5 129,-114.5 56.5,-73 97.5,-173 41,-100 68,-218 10,-42 17,-75.5 7,-33.5 15,-75.5 -29,32 -63.5,53.5 -34.5,21.5 -61.5,21.5 -23,0 -41,-13.5 -18,-13.5 -18,-40.5 0,-16 8.5,-35.5 8.5,-19.5 18.5,-38.5 10,-19 18.5,-37 8.5,-18 8.5,-33 0,-10 -7,-10 -5,0 -11,4 -6,4 -12,9 -7,6 -15,13 l -8,-9 q 6,-6 17.5,-15.5 11.5,-9.5 25,-19 13.5,-9.5 28,-16.5 14.5,-7 26.5,-7 22,0 33,9 11,9 11,24 0,15 -8,35 -8,20 -17,41.5 -9,21.5 -17,42.5 -8,21 -8,37 0,17 15,17 14,0 28,-10.5 14,-10.5 36,-33.5 13,-14 20,-29.5 7,-15.5 14,-44.5 5,-22 11.5,-37 6.5,-15 15.5,-24 9,-9 21.5,-14 12.5,-5 29.5,-7 22,-3 36,-10 7,-4 12,-7 l 6,12 q -5,2 -9,6 -4,3 -9,7.5 -5,4.5 -10,11.5 -14,20 -24,42.5 -10,22.5 -21,64.5 -9,35 -18,87.5 -9,52.5 -19,106.5 -23,132 -67.5,244.5 -44.5,112.5 -109,194.5 -64.5,82 -148,128 -83.5,46 -185.5,46 z"></path></svg>
