<?xml version="1.0" encoding="UTF-8" standalone="no"?>
<svg xmlns="http://www.w3.org/2000/svg" width="4558" height="2057"><path id="path320" d="m 1427,1859 q 9,-10 22,-18.5 13,-8.5 27,-15.5 14,-7 27.5,-11 13.5,-4 24.5,-4 27,0 50,18.5 23,18.5 23,59.5 0,31 -12,61.5 -12,30.5 -32,54.5 -20,24 -47,38.5 -27,14.5 -57,14.5 -36,0 -56,-16 -20,-16 -27,-33 -17,18 -31.5,27.5 -14.5,9.5 -27.5,14.5 -13,5 -23,6 -10,1 -17,1 v -7 q 26,-11 42,-59.5 16,-48.5 36,-132.5 18,-77 43.5,-155 25.5,-78 58,-152 32.5,-74 72,-142.5 39.5,-68.5 86.5,-126.5 -47,-33 -96.5,-64 -49.5,-31 -105,-55 -55.5,-24 -117.5,-39 -62,-15 -134,-15 -123,0 -210.5,38.5 Q 858,1186 813,1252 q 37,-6 74,-6 30,0 56,7.5 26,7.5 47,20 21,12.5 36.5,28.5 15.5,16 26.5,34 26,-25 66,-43 40,-18 94,-18 82,0 132,41 50,41 50,124 0,47 -23,93.5 -23,46.5 -65,83.5 -42,37 -100,60.5 -58,23.5 -128,23.5 -70,0 -129.5,-23 -59.5,-23 -103,-64.5 Q 803,1572 778,1514.5 753,1457 753,1388 q 0,-14 1.5,-28 1.5,-14 3.5,-28 -56,8 -117,19 -61,11 -124.5,21 -63.5,10 -129,17 -65.5,7 -129.5,7 -59,0 -106.5,-12 Q 104,1372 70,1348 36,1324 18,1288 0,1252 0,1205 q 0,-54 28,-107 28,-53 80,-95 52,-42 126,-68.5 74,-26.5 165,-26.5 52,0 94,13.5 42,13.5 71.5,35 29.5,21.5 45.5,49.5 16,28 16,57 0,37 -14,65 -14,28 -33,47 -19,19 -39,28.5 -20,9.5 -32,9.5 -3,0 -7,-1 -4,-1 -4,-6 0,-5 4,-6.5 4,-1.5 8,-2.5 12,-2 26,-10 14,-8 26.5,-21 12.5,-13 21,-31.5 8.5,-18.5 8.5,-42.5 0,-28 -17,-49 -17,-21 -47.5,-35.5 Q 496,993 454,985.5 412,978 363,978 q -69,0 -131,17 -62,17 -109,47.5 -47,30.5 -74.5,74.5 -27.5,44 -27.5,98 0,77 62,120 62,43 185,43 72,0 138.5,-14 66.5,-14 129.5,-33 63,-19 122.5,-39 59.5,-20 116.5,-33 18,-49 49,-92.5 31,-43.5 76.5,-76.5 45.5,-33 105,-52 59.5,-19 133.5,-19 68,0 132,21.5 64,21.5 124.5,56.5 60.5,35 117.5,78.5 57,43.5 113,86.5 70,-81 153.5,-130 83.5,-49 183.5,-49 55,0 97.5,17.5 42.5,17.5 71.5,45.5 29,28 44,64 15,36 15,72 0,42 -15,75.5 -15,33.5 -40.5,57.5 -25.5,24 -59.5,37 -34,13 -71,13 -47,0 -90.5,-11.5 -43.5,-11.5 -84,-30.5 -40.5,-19 -80,-44 -39.5,-25 -79.5,-53 -45,51 -83,114.5 -38,63.5 -68.5,132.5 -30.5,69 -54,142 -23.5,73 -38.5,144 z m -413,-451 q 0,-23 21,-52 -16,-18 -49.5,-27.5 -33.5,-9.5 -88.5,-9.5 -26,0 -56.5,2.5 -30.5,2.5 -62.5,7.5 -3,14 -5,29 -2,15 -2,30 0,65 22.5,113 22.5,48 63.5,79.5 41,31.5 97,47 56,15.5 124,15.5 59,0 111,-18.5 52,-18.5 90.5,-49 38.5,-30.5 60.5,-69.5 22,-39 22,-79 0,-68 -40,-101.5 -40,-33.5 -113,-33.5 -50,0 -88,17.5 -38,17.5 -61,40.5 6,12 8.5,24 2.5,12 2.5,23 0,20 -10,31.5 -10,11.5 -22,11.5 -10,0 -17.5,-7.5 -7.5,-7.5 -7.5,-24.5 z m 954,-239 q -81,0 -151,37.5 -70,37.5 -130,101.5 38,29 75.5,54.5 37.5,25.5 75,44 37.5,18.5 74.5,29.5 37,11 75,11 37,0 67.5,-11.5 30.5,-11.5 52.5,-31.5 22,-20 34,-48 12,-28 12,-60 0,-32 -13.5,-56 -13.5,-24 -38,-39.5 -24.5,-15.5 -58.5,-23.5 -34,-8 -75,-8 z m -477,670 q -6,0 -16.5,4.5 -10.5,4.5 -22,13.5 -11.5,9 -22.5,22.5 -11,13.5 -17,31.5 -3,7 -6.5,18.5 -3.5,11.5 -7,23.5 -3.5,12 -6,23 -2.5,11 -2.5,16 0,24 14,32.5 14,8.5 27,8.5 16,0 30.5,-15.5 14.5,-15.5 26,-39 11.5,-23.5 18,-50 6.5,-26.5 6.5,-49.5 0,-40 -22,-40 z m -441,-439 q 0,-16 -6,-30 -13,20 -13,35 0,15 8,15 4,0 7.5,-5 3.5,-5 3.5,-15 z"></path></svg>
