<?xml version="1.0" encoding="UTF-8" standalone="no"?>
<svg xmlns="http://www.w3.org/2000/svg" width="4558" height="2057"><path id="path803" d="m 340,1392 q 22,0 43,3 12,-33 34,-58.5 22,-25.5 51,-43 29,-17.5 62,-26.5 33,-9 68,-9 41,0 78.5,13.5 37.5,13.5 66,44 28.5,30.5 45.5,80 17,49.5 17,120.5 0,26 -2.5,52 -2.5,26 -7.5,52 68,-41 101.5,-113 33.5,-72 33.5,-155 0,-51 -16,-97 -16,-46 -35,-86.5 -19,-40.5 -35,-75 -16,-34.5 -16,-63.5 0,-24 10.5,-42.5 10.5,-18.5 26.5,-31 16,-12.5 35,-18.5 19,-6 36,-6 28,0 48.5,14 20.5,14 20.5,36 0,19 -11.5,30.5 -11.5,11.5 -25.5,11.5 -15,0 -24,-7.5 -9,-7.5 -9,-18.5 0,-13 7.5,-19.5 7.5,-6.5 7.5,-18.5 0,-8 -5,-11.5 -5,-3.5 -10,-3.5 -15,0 -25,16 -10,16 -10,48 0,28 17,64.5 17,36.5 37,80 20,43.5 37,93 17,49.5 17,104.5 0,57 -16,108.5 -16,51.5 -45.5,94.5 -29.5,43 -71,75.5 -41.5,32.5 -93.5,51.5 -21,74 -60,142 -39,68 -94.5,120 -55.5,52 -126.5,83 -71,31 -157,31 -78,0 -141.5,-25 Q 139,2007 94,1962.5 49,1918 24.5,1858 0,1798 0,1729 0,1654 29,1591.5 58,1529 105.5,1485 153,1441 214,1416.5 275,1392 340,1392 Z m 7,605 q 78,0 143.5,-24 65.5,-24 118,-66 52.5,-42 91,-98 38.5,-56 60.5,-121 -26,8 -54,12 -28,4 -57,4 -20,0 -40.5,-2.5 -20.5,-2.5 -39.5,-7.5 -11,36 -31,65.5 -20,29.5 -47,51.5 -27,22 -60,34 -33,12 -69,12 -33,0 -61.5,-9.5 -28.5,-9.5 -50,-27 -21.5,-17.5 -34,-41 Q 204,1756 204,1727 q 0,-33 13.5,-47.5 13.5,-14.5 26.5,-14.5 11,0 18,7.5 7,7.5 7,18.5 0,10 -5.5,16.5 -5.5,6.5 -12,12.5 -6.5,6 -12,13 -5.5,7 -5.5,19 0,16 10,32 10,16 27,28.5 17,12.5 41,20 24,7.5 52,7.5 67,0 117,-42 50,-42 68,-109 -38,-12 -71,-33 -33,-21 -57,-49.5 -24,-28.5 -37.5,-63.5 -13.5,-35 -13.5,-76 0,-29 8,-56 -9,-2 -18,-2 h -19 q -58,0 -111.5,24 -53.5,24 -95,66.5 Q 93,1542 68.5,1600 44,1658 44,1726 q 0,60 21.5,110 21.5,50 61,86 39.5,36 95.5,55.5 56,19.5 125,19.5 z m 248,-725 q -30,0 -59,8.5 -29,8.5 -53.5,25 -24.5,16.5 -43,40.5 -18.5,24 -27.5,55 37,9 68,28.5 31,19.5 53,47 22,27.5 34.5,63.5 12.5,36 12.5,78 v 17 q 0,0 -2,17 17,3 33,5 16,2 33,2 38,0 71,-7.5 33,-7.5 61,-21.5 12,-55 12,-112 0,-69 -17,-116 -17,-47 -44.5,-76 -27.5,-29 -62,-41.5 Q 630,1272 595,1272 Z m -191,186 q 0,36 12,66.5 12,30.5 32.5,54 20.5,23.5 48.5,40.5 28,17 60,27 1,-6 1,-12.5 V 1621 q 0,-41 -11.5,-75 -11.5,-34 -32,-59.5 -20.5,-25.5 -48,-42.5 -27.5,-17 -58.5,-26 -2,9 -3,19 -1,10 -1,21 z m 597,-675 q 7,0 14.5,12.5 7.5,12.5 7.5,23.5 0,16 -20,34 -26,22 -54,34 -28,12 -51,12 -3,0 -6.5,-2 -3.5,-2 -3.5,-6 0,-5 9,-9 20,-8 44.5,-30 24.5,-22 45.5,-59 2,-4 6,-7 4,-3 8,-3 z"></path></svg>
