<?xml version="1.0" encoding="UTF-8" standalone="no"?>
<svg xmlns="http://www.w3.org/2000/svg" width="4558" height="2057"><path id="path919" d="m 918,1515 q -66,0 -125.5,44.5 Q 733,1604 674,1674 q 50,24 100,39 50,15 113,15 24,0 49,-10 25,-10 45.5,-27.5 20.5,-17.5 33,-42.5 12.5,-25 12.5,-55 0,-42 -31.5,-60 -31.5,-18 -77.5,-18 z m -717,484 q 21,-19 40.5,-38 19.5,-19 35,-37 15.5,-18 26.5,-33.5 11,-15.5 15,-26.5 6,-15 15.5,-25 9.5,-10 23.5,-10 15,0 23.5,-1.5 8.5,-1.5 13.5,-4 5,-2.5 8.5,-4 3.5,-1.5 8.5,-1.5 10,0 10,9 0,4 -3,9 -3,5 -7,15 -4,11 -9.5,30.5 -5.5,19.5 -11,41 -5.5,21.5 -11,42 -5.5,20.5 -9.5,33.5 25,-23 53.5,-57.5 28.5,-34.5 59,-76.5 30.5,-42 63.5,-90 33,-48 68,-98 -42,-22 -85,-42 -43,-20 -91,-35.5 -48,-15.5 -102.5,-25 Q 281,1564 215,1564 q -47,0 -81,10.5 -34,10.5 -57.5,28 -23.5,17.5 -37.5,40 -14,22.5 -21,45.5 -2,5 -3.5,11 -1.5,6 -6.5,6 -5,0 -6.5,-6.5 Q 0,1692 0,1684 q 0,-26 16,-61.5 16,-35.5 46.5,-67 30.5,-31.5 75,-53.5 44.5,-22 101.5,-22 58,0 108.5,17 50.5,17 98,42.5 47.5,25.5 93.5,55.5 46,30 94,57 30,-41 63,-77.5 33,-36.5 68,-64 35,-27.5 71.5,-43.5 36.5,-16 75.5,-16 64,0 104,34.5 40,34.5 40,90.5 0,40 -16,71.5 -16,31.5 -41.5,53 -25.5,21.5 -56.5,32.5 -31,11 -62,11 -63,0 -116.5,-13.5 Q 709,1717 658,1694 q -39,47 -78.5,95.5 -39.5,48.5 -77.5,93.5 -38,45 -75.5,83.5 -37.5,38.5 -71.5,65.5 -11,8 -27.5,16.5 -16.5,8.5 -27.5,8.5 -9,0 -17,-3 -8,-3 -8,-11 0,-13 11,-40 11,-27 20,-86 -15,17 -33,35 -16,16 -38,36.5 -22,20.5 -49,42.5 -11,9 -28,17.5 -17,8.5 -28,8.5 -9,0 -17,-3 -8,-3 -8,-11 0,-10 7.5,-31 7.5,-21 17,-46.5 9.5,-25.5 17,-52.5 7.5,-27 7.5,-50 0,-9 -10,-9 -4,0 -10,3.5 -6,3.5 -12,8.5 -7,5 -15,12 l -7,-9 q 6,-5 17.5,-14.5 11.5,-9.5 25,-19 13.5,-9.5 28,-16.5 14.5,-7 26.5,-7 21,0 32,9 11,9 11,23 0,14 -4.5,35 -4.5,21 -10.5,43.5 -6,22.5 -13,43 -7,20.5 -11,33.5 z"></path></svg>
