<?xml version="1.0" encoding="UTF-8" standalone="no"?>
<svg xmlns="http://www.w3.org/2000/svg" width="4558" height="2057"><path id="path468" d="m 231,2057 q -45,0 -86.5,-12.5 -41.5,-12.5 -74,-37 Q 38,1983 19,1947.5 0,1912 0,1865 q 0,-45 17,-77.5 17,-32.5 44,-54.5 27,-22 62,-32.5 35,-10.5 71,-10.5 85,0 163.5,19 78.5,19 156.5,48 29,-56 53,-124 24,-68 43,-148 -7,10 -18,22 -11,12 -24.5,22 -13.5,10 -28.5,17 -15,7 -29,7 -37,0 -59.5,-21.5 Q 428,1510 428,1476 q 0,-36 16.5,-67 16.5,-31 41,-54.5 24.5,-23.5 53.5,-37 29,-13.5 54,-13.5 29,0 44,13 15,13 17,33 5,-15 18,-25 13,-10 39,-14 12,-2 21,-4.5 9,-2.5 15,-5.5 7,-4 12,-7 l 6,12 q -6,5 -12,11 -5,5 -12.5,13 -7.5,8 -14.5,19 -14,23 -21.5,43.5 -7.5,20.5 -12.5,45.5 -23,105 -46.5,192 -23.5,87 -55.5,157 72,30 138.5,57 66.5,27 133,46.5 66.5,19.5 136,31 69.5,11.5 148.5,11.5 100,0 152.5,-41 52.5,-41 61.5,-112 1,-6 2,-11.5 1,-5.5 6,-5.5 5,0 6.5,6 1.5,6 1.5,15 0,38 -12.5,80.5 -12.5,42.5 -39.5,77.5 -27,35 -70,58 -43,23 -104,23 -65,0 -134.5,-19.5 -69.5,-19.5 -142,-50 -72.5,-30.5 -147,-67 Q 652,1850 577,1815 515,1937 430.5,1997 346,2057 231,2057 Z m -17,-67 q 85,0 157.5,-53 Q 444,1884 501,1783 422,1750 344.5,1728.5 267,1707 192,1707 q -32,0 -62.5,9.5 -30.5,9.5 -54,28.5 -23.5,19 -38,48.5 Q 23,1823 23,1862 q 0,34 16.5,58.5 16.5,24.5 43.5,40 27,15.5 61,22.5 34,7 70,7 z m 329,-469 q 17,0 39,-22 22,-22 36,-51 3,-7 7,-19 4,-12 7,-24.5 3,-12.5 5,-23.5 2,-11 2,-17 0,-18 -8,-30 -8,-12 -28,-12 -18,0 -34,14 -16,14 -27.5,36 -11.5,22 -18,47.5 -6.5,25.5 -6.5,47.5 0,54 26,54 z"></path></svg>
