<?xml version="1.0" encoding="UTF-8" standalone="no"?>
<svg xmlns="http://www.w3.org/2000/svg" width="4558" height="2057"><path id="path927" d="m 464,1944 q 11,32 22.5,52.5 11.5,20.5 27.5,20.5 9,0 18.5,-4.5 9.5,-4.5 17.5,-10.5 10,-6 19,-15 l 7,8 q -17,18 -35,31 -15,12 -33.5,21.5 -18.5,9.5 -36.5,9.5 -29,0 -48,-10 -19,-10 -31,-44 -20,18 -32.5,28.5 -12.5,10.5 -22,16 -9.5,5.5 -18,7.5 -8.5,2 -18.5,2 -12,0 -24,-6.5 -12,-6.5 -12,-23.5 0,-17 12.5,-27.5 12.5,-10.5 27.5,-10.5 13,0 21,6.5 8,6.5 19,6.5 10,0 17.5,-2 7.5,-2 23.5,-14 -5,-17 -9,-37 -4,-20 -9,-43 -7,-29 -12,-40.5 -5,-11.5 -18,-11.5 -4,0 -10.5,4 -6.5,4 -12.5,9 -8,5 -16,12 l -8,-9 q 6,-5 16.5,-15 10.5,-10 23.5,-19.5 13,-9.5 27,-16.5 14,-7 25,-7 26,0 39,18 13,18 25,58 l 11,40 q 15,-22 31.5,-51 16.5,-29 35.5,-62.5 19,-33.5 39.5,-70 Q 585,1708 609,1672 568,1653 526.5,1634 485,1615 437.5,1599.5 390,1584 335.5,1574 281,1564 215,1564 q -47,0 -81,10.5 -34,10.5 -58,28 -24,17.5 -38,40 -14,22.5 -21,46.5 -2,5 -3,10.5 -1,5.5 -6,5.5 -5,0 -6.5,-6 -1.5,-6 -1.5,-15 0,-26 16,-61.5 16,-35.5 46.5,-67 30.5,-31.5 75,-53.5 44.5,-22 101.5,-22 56,0 106,16 50,16 97,40.5 47,24.5 92,54 45,29.5 92,56.5 27,-39 58.5,-74.5 31.5,-35.5 66.5,-62.5 35,-27 75,-43 40,-16 85,-16 66,0 105,34.5 39,34.5 39,90.5 0,41 -16.5,72 -16.5,31 -42,52.5 -25.5,21.5 -56.5,32.5 -31,11 -61,11 -69,0 -124,-15.5 -55,-15.5 -107,-38.5 -26,33 -50.5,68 -24.5,35 -47,68 -22.5,33 -44,63.5 Q 485,1920 464,1944 Z m 454,-429 q -38,0 -72,12 -34,12 -65.5,33 -31.5,21 -60,49 -28.5,28 -55.5,60 50,26 104.5,42.5 54.5,16.5 117.5,16.5 24,0 49,-10 25,-10 45,-27.5 20,-17.5 33,-42.5 13,-25 13,-55 0,-40 -31.5,-59 -31.5,-19 -77.5,-19 z"></path></svg>
