<?xml version="1.0" encoding="UTF-8" standalone="no"?>
<svg xmlns="http://www.w3.org/2000/svg" width="4558" height="2057"><path id="path125" d="m 563,1559 q -25,83 -44.5,148 -19.5,65 -35,115.5 -15.5,50.5 -26.5,87.5 -11,37 -19,63 -18,62 -26,84 H 380 L 274,1715 q -11,35 -25,75 -12,34 -29.5,77 -17.5,43 -40.5,88 -23,45 -45.5,73.5 Q 111,2057 76,2057 64,2057 52,2048 40,2039 30,2026.5 20,2014 12,1999.5 4,1985 0,1973 l 8,-10 q 7,7 14,11 6,5 14,8 8,3 17,3 17,0 45.5,-13.5 28.5,-13.5 55.5,-55.5 42,-66 66,-126.5 24,-60.5 38,-105.5 5,-17 13,-41 8,-24 15,-46 8,-26 16,-53 h 30 l 105,346 94,-331 h -45 l 6,-15 h 122 l -5,15 z"></path></svg>
