<?xml version="1.0" encoding="UTF-8" standalone="no"?>
<svg xmlns="http://www.w3.org/2000/svg" width="4558" height="2057"><path id="path465" d="m 499,1521 q -7,10 -18,22 -11,12 -24.5,22 -13.5,10 -28.5,17 -15,7 -29,7 -37,0 -59.5,-21.5 Q 317,1546 317,1512 q 0,-36 16.5,-67 16.5,-31 41,-54.5 24.5,-23.5 53.5,-37 29,-13.5 54,-13.5 29,0 44,13 15,13 17,33 5,-15 18,-25 13,-10 39,-14 12,-2 21,-4.5 9,-2.5 15,-5.5 7,-4 12,-7 l 6,12 q -6,5 -12,11 -5,5 -12.5,13 -7.5,8 -14.5,19 -14,23 -21,43.5 -7,20.5 -13,45.5 -11,43 -22,102.5 -11,59.5 -28.5,124.5 -17.5,65 -43,128.5 -25.5,63.5 -64,114 -38.5,50.5 -92.5,82 -54,31.5 -129,31.5 -50,0 -87.5,-14.5 Q 77,2028 51.5,2004.5 26,1981 13,1950.5 0,1920 0,1887 q 0,-40 14,-70.5 14,-30.5 35.5,-51 21.5,-20.5 48,-30.5 26.5,-10 50.5,-10 39,0 63.5,18 24.5,18 24.5,57 0,38 -21,59.5 -21,21.5 -47,21.5 -17,0 -29.5,-7.5 Q 126,1866 126,1852 q 0,-9 7,-17 7,-8 18,-8 9,0 13.5,4.5 4.5,4.5 7.5,12.5 3,8 6,10 3,2 6,2 9,0 24,-13 15,-13 15,-43 0,-33 -21,-48 -21,-15 -53,-15 -23,0 -45,9.5 -22,9.5 -39,27 -17,17.5 -27,42 -10,24.5 -10,55.5 0,28 10,52 10,24 29.5,42 19.5,18 49,28 29.5,10 69.5,10 50,0 89.5,-26 39.5,-26 70.5,-67.5 31,-41.5 55,-94.5 24,-53 42,-106.5 18,-53.5 31.5,-103 Q 488,1556 499,1521 Z m -67,36 q 17,0 39,-22 22,-22 36,-51 3,-7 7,-19 4,-12 7,-24.5 3,-12.5 5,-23.5 2,-11 2,-17 0,-18 -8,-30 -8,-12 -28,-12 -18,0 -34,14 -16,14 -27.5,36 -11.5,22 -18,47.5 -6.5,25.5 -6.5,47.5 0,54 26,54 z"></path></svg>
