<?xml version="1.0" encoding="UTF-8" standalone="no"?>
<svg xmlns="http://www.w3.org/2000/svg" width="4558" height="2057"><path id="path652" d="m 259,2050 q -23,0 -43,-11 -20,-11 -20,-37 0,-19 8.5,-38 8.5,-19 19,-37.5 10.5,-18.5 19,-36 8.5,-17.5 8.5,-32.5 0,-16 -12,-16 -14,0 -38,15.5 -24,15.5 -50,44.5 -8,9 -16.5,29 -8.5,20 -15.5,41 -7,21 -11.5,39.5 -4.5,18.5 -4.5,24.5 0,14 -22,14 -7,0 -16,-1.5 -9,-1.5 -23,-1.5 -14,0 -24.5,4 -10.5,4 -13.5,4 -4,0 -4,-6 0,-4 6.5,-8.5 6.5,-4.5 11.5,-15.5 9,-19 18,-44 9,-25 17,-50 8,-25 13,-45.5 5,-20.5 5,-29.5 0,-13 -8,-13 -4,0 -10.5,4.5 -6.5,4.5 -13.5,9.5 -8,6 -16,13 l -7,-9 q 6,-6 17.5,-15.5 Q 45,1836 58,1827 q 13,-9 27,-15.5 14,-6.5 26,-6.5 18,0 30.5,8.5 12.5,8.5 12.5,23.5 0,9 -1.5,17.5 -1.5,8.5 -3.5,16.5 -2,9 -4,17 15,-17 33,-32 18,-15 37,-26.5 19,-11.5 37,-18 18,-6.5 32,-6.5 19,0 33,10.5 14,10.5 14,26.5 0,18 -7.5,36.5 -7.5,18.5 -16,38 -8.5,19.5 -16,40 -7.5,20.5 -7.5,41.5 0,12 6,18.5 6,6.5 15,6.5 28,0 62,-16 34,-16 69,-35 35,-19 68.5,-35 33.5,-16 59.5,-16 38,0 63.5,12.5 25.5,12.5 48,27.5 22.5,15 47.5,27.5 25,12.5 64,12.5 22,0 39,-5 17,-5 29.5,-12 12.5,-7 21,-14.5 8.5,-7.5 15.5,-12.5 l 8,9 q -9,9 -26,24.5 -17,15.5 -39,30 -22,14.5 -48.5,25.5 -26.5,11 -54.5,11 -36,0 -64.5,-13 -28.5,-13 -53,-28.5 -24.5,-15.5 -49,-28.5 -24.5,-13 -53.5,-13 -33,0 -63,12 -30,12 -60.5,26 -30.5,14 -62.5,26 -32,12 -67,12 z m 24,-276 q -9,0 -22,-13 -13,-13 -24,-30 -11,-17 -19,-33.5 -8,-16.5 -8,-23.5 0,-9 10,-9 4,0 11.5,9.5 7.5,9.5 17.5,21 10,11.5 21,21 11,9.5 22,9.5 15,0 31,-9.5 16,-9.5 30.5,-21.5 14.5,-12 24.5,-21.5 10,-9.5 13,-9.5 10,0 10,9 0,5 -14.5,21.5 -14.5,16.5 -34,34 -19.5,17.5 -39.5,31.5 -20,14 -30,14 z"></path></svg>
