<?xml version="1.0" encoding="UTF-8" standalone="no"?>
<svg xmlns="http://www.w3.org/2000/svg" width="4558" height="2057"><path id="path567" d="m 232,1585 q -9,5 -18,11 -8,5 -16,13.5 -8,8.5 -15,19.5 -7,12 -17,38 -10,26 -21,60 -11,34 -21.5,72 -10.5,38 -19,73.5 -8.5,35.5 -14,65.5 -5.5,30 -5.5,48 0,19 5.5,25 5.5,6 13.5,6 9,0 18,-4.5 9,-4.5 17,-10.5 9,-6 17,-15 l 8,8 q -16,18 -34,31 -15,12 -33,21.5 -18,9.5 -35,9.5 -27,0 -44.5,-17.5 Q 0,2022 0,1996 0,1978 6.5,1946 13,1914 24,1871.5 35,1829 49.5,1776.5 64,1724 80,1664 q 6,-23 18.5,-36 12.5,-13 26.5,-22 -3,1 -7,1 h -7 q -7,0 -12,-1 l -10,-2 q 0,0 -9,-2 l 9,-12 8,2 q 10,2 21,2 17,0 42.5,-5 25.5,-5 57.5,-20 32,-15 69.5,-42 37.5,-27 69,-64.5 31.5,-37.5 52.5,-85.5 21,-48 21,-106 0,-34 -10.5,-60 -10.5,-26 -28,-43 -17.5,-17 -41.5,-26 -24,-9 -51,-9 -33,0 -62.5,11.5 -29.5,11.5 -52,31.5 -22.5,20 -35.5,46.5 -13,26.5 -13,56.5 0,46 23,69.5 23,23.5 55,23.5 22,0 33.5,-10.5 11.5,-10.5 11.5,-25.5 0,-11 6,-17.5 6,-6.5 15,-6.5 23,0 23,22 0,8 -7,17.5 -7,9.5 -18.5,17.5 -11.5,8 -27,13.5 -15.5,5.5 -33.5,5.5 -22,0 -43.5,-6 -21.5,-6 -38,-18 -16.5,-12 -26.5,-31 -10,-19 -10,-46 0,-35 17.5,-66 17.5,-31 47,-54.5 29.5,-23.5 67,-37 37.5,-13.5 77.5,-13.5 34,0 66.5,9 32.5,9 58,27 25.5,18 40.5,45.5 15,27.5 15,63.5 0,60 -26,110.5 -26,50.5 -65,91.5 -39,41 -83.5,71.5 Q 269,1565 232,1585 Z m 10,-170 q 8,0 16.5,14 8.5,14 8.5,26 0,17 -23,37 -28,25 -59.5,38 -31.5,13 -56.5,13 -4,0 -7.5,-2 -3.5,-2 -3.5,-7 0,-5 9,-9 22,-10 49.5,-34 27.5,-24 51.5,-65 5,-11 15,-11 z"></path></svg>
