<?xml version="1.0" encoding="UTF-8" standalone="no"?>
<svg xmlns="http://www.w3.org/2000/svg" width="4558" height="2057"><path id="path316" d="m 156,1859 q 9,-10 22,-18.5 13,-8.5 27,-15.5 14,-7 27.5,-11 13.5,-4 24.5,-4 27,0 50,18.5 23,18.5 23,59.5 0,31 -12,61.5 -12,30.5 -32,54.5 -20,24 -47,38.5 -27,14.5 -57,14.5 -36,0 -56,-16 -20,-16 -27,-33 -17,18 -31.5,27.5 Q 53,2045 40,2050 q -13,5 -23,6 -10,1 -17,1 v -7 q 14,-6 24,-22.5 10,-16.5 18.5,-41.5 8.5,-25 16.5,-57 8,-32 18,-70 28,-109 61,-201.5 33,-92.5 73,-165 40,-72.5 88,-123.5 48,-51 107,-79 20,-75 58.5,-144 38.5,-69 94,-122 55.5,-53 127.5,-85 72,-32 159,-32 78,0 141.5,25.5 63.5,25.5 108.5,69 45,43.5 69.5,102.5 24.5,59 24.5,126 0,75 -29,138 -29,63 -77,108.5 -48,45.5 -109,70.5 -61,25 -125,25 -25,0 -53,-5 -22,64 -74,101.5 -52,37.5 -121,37.5 -40,0 -79,-13.5 -39,-13.5 -69.5,-44 Q 422,1618 403,1569 q -19,-49 -19,-121 0,-19 1,-37.5 1,-18.5 4,-38.5 -77,66 -134,190.5 Q 198,1687 156,1859 Z M 842,967 q -78,0 -144.5,24.5 -66.5,24.5 -119,67 -52.5,42.5 -90.5,99.5 -38,57 -60,122 58,-22 124,-22 34,0 69,8 11,-35 31.5,-64 20.5,-29 47.5,-50 27,-21 59,-33 32,-12 68,-12 32,0 60.5,9.5 28.5,9.5 50.5,27 22,17.5 34.5,41.5 12.5,24 12.5,52 0,32 -13,47 -13,15 -27,15 -11,0 -18,-7.5 -7,-7.5 -7,-18.5 0,-10 5.5,-16.5 5.5,-6.5 12,-12.5 6.5,-6 12,-13 5.5,-7 5.5,-19 0,-15 -9.5,-31 -9.5,-16 -26.5,-28.5 -17,-12.5 -41,-20.5 -24,-8 -53,-8 -33,0 -62,10.5 -29,10.5 -53,30 -24,19.5 -41.5,46.5 -17.5,27 -27.5,59 76,22 122,77.5 46,55.5 46,139.5 0,32 -8,64 11,2 23,3 12,1 24,1 58,0 111.5,-24 53.5,-24 94.5,-66.5 41,-42.5 66,-100.5 25,-58 25,-126 0,-63 -21.5,-113 -21.5,-50 -61,-85 Q 1023,1005 967,986 911,967 842,967 Z m -288,342 q -41,0 -77,12.5 -36,12.5 -68,35.5 -8,46 -8,89 0,69 19,116 19,47 48,76.5 29,29.5 65,42 36,12.5 71,12.5 58,0 102,-35.5 44,-35.5 61,-97.5 -70,-21 -114,-77 -44,-56 -44,-137 v -16 q 0,0 2,-16 -14,-2 -28.5,-3.5 Q 568,1309 554,1309 Z m 221,187 q 0,-37 -11,-66.5 -11,-29.5 -30.5,-51 Q 714,1357 688,1342 q -26,-15 -56,-23 -1,6 -1,12 v 12 q 0,40 10.5,72.5 10.5,32.5 29.5,57.5 19,25 44,42.5 25,17.5 55,27.5 2,-11 3.5,-22.5 1.5,-11.5 1.5,-24.5 z m -555,343 q -6,0 -16.5,4.5 -10.5,4.5 -22,13.5 -11.5,9 -22.5,22.5 -11,13.5 -17,31.5 -3,7 -6.5,18.5 -3.5,11.5 -7,23.5 -3.5,12 -6,23 -2.5,11 -2.5,16 0,24 14,32.5 14,8.5 27,8.5 16,0 30.5,-15.5 14.5,-15.5 26,-39 11.5,-23.5 18,-50 6.5,-26.5 6.5,-49.5 0,-40 -22,-40 z"></path></svg>
