<?xml version="1.0" encoding="UTF-8" standalone="no"?>
<svg xmlns="http://www.w3.org/2000/svg" width="4558" height="2057"><path id="path656" d="m 591,1131 q 0,17 -7.5,44 -7.5,27 -18,62.5 -10.5,35.5 -21.5,78 -11,42.5 -18,90.5 63,8 109,27 46,19 77,45 34,-22 75.5,-34.5 41.5,-12.5 84.5,-12.5 44,0 86,12 42,12 75,38.5 33,26.5 53,68 20,41.5 20,99.5 0,50 -20.5,98.5 -20.5,48.5 -58,87.5 -37.5,39 -91,63 -53.5,24 -119.5,24 -84,0 -153,-30.5 -69,-30.5 -118,-84.5 -49,-54 -76,-128 -27,-74 -27,-160 0,-26 2,-51 2,-25 5,-49 -70,1 -137,26 -67,25 -120,71.5 -53,46.5 -85.5,113.5 -32.5,67 -32.5,152 0,67 19,114 19,47 50.5,76 31.5,29 72,42.5 40.5,13.5 82.5,13.5 42,0 77,-13 35,-13 59.5,-34.5 24.5,-21.5 38.5,-50 14,-28.5 14,-59.5 0,-55 -31,-88 -31,-33 -85,-33 -18,0 -31.5,5.5 -13.5,5.5 -22,13 -8.5,7.5 -13,16 -4.5,8.5 -4.5,13.5 0,8 5.5,14.5 5.5,6.5 5.5,17.5 0,10 -6,14.5 -6,4.5 -14,4.5 -11,0 -16.5,-9 -5.5,-9 -5.5,-20 0,-15 8,-29.5 8,-14.5 21.5,-26.5 13.5,-12 32,-19.5 18.5,-7.5 39.5,-7.5 60,0 96.5,35.5 36.5,35.5 36.5,101.5 0,32 -14.5,65 -14.5,33 -41.5,59 -27,26 -65.5,42.5 Q 344,2057 296,2057 247,2057 194.5,2042.5 142,2028 99,1995 56,1962 28,1909.5 0,1857 0,1781 0,1690 43,1619.5 86,1549 153,1501 220,1453 299.5,1427.5 379,1402 453,1402 q 7,-44 17,-84 10,-40 19,-74 9,-34 15.5,-59 6.5,-25 6.5,-39 0,-16 -12,-16 -14,0 -38,15.5 -24,15.5 -50,44.5 -8,9 -16.5,29 -8.5,20 -15.5,41 -7,21 -11.5,39.5 -4.5,18.5 -4.5,24.5 0,14 -22,14 -7,0 -16,-1.5 -9,-1.5 -23,-1.5 -14,0 -24.5,4 -10.5,4 -13.5,4 -4,0 -4,-6 0,-4 6.5,-8.5 6.5,-4.5 11.5,-15.5 9,-19 18,-44 9,-25 17,-50 8,-25 13,-45.5 5,-20.5 5,-29.5 0,-13 -8,-13 -4,0 -10.5,4.5 -6.5,4.5 -13.5,9.5 -8,6 -16,13 l -7,-9 q 6,-6 17.5,-15.5 11.5,-9.5 24.5,-18.5 13,-9 27,-15.5 14,-6.5 26,-6.5 18,0 30.5,8.5 12.5,8.5 12.5,23.5 0,9 -1.5,17.5 -1.5,8.5 -3.5,16.5 -2,9 -4,17 15,-17 33,-32 18,-15 37,-26.5 19,-11.5 37,-18 18,-6.5 32,-6.5 19,0 33,11 14,11 14,27 z m -73,383 q 0,79 21.5,144.5 21.5,65.5 61.5,113 40,47.5 96.5,74 56.5,26.5 125.5,26.5 58,0 105,-20 47,-20 80,-53.5 33,-33.5 51,-76.5 18,-43 18,-89 0,-46 -16.5,-81 -16.5,-35 -44.5,-58.5 -28,-23.5 -65.5,-35.5 -37.5,-12 -78.5,-12 -42,0 -78.5,13 -36.5,13 -64.5,35 25,26 37,55 12,29 12,57 0,29 -18.5,50.5 -18.5,21.5 -45.5,21.5 -13,0 -27.5,-3.5 Q 672,1671 660,1662 q -12,-9 -20,-23.5 -8,-14.5 -8,-35.5 0,-32 18,-61 18,-29 47,-52 -29,-24 -72,-42 -43,-18 -101,-25 -6,44 -6,91 z m 244,89 q 0,-23 -12,-48 -12,-25 -35,-48 -20,20 -30.5,44 -10.5,24 -10.5,50 0,29 13,44.5 13,15.5 32,15.5 17,0 30,-15 13,-15 13,-43 z M 522,1068 q -9,0 -22,-13 -13,-13 -24,-30 -11,-17 -19,-33.5 -8,-16.5 -8,-23.5 0,-9 10,-9 4,0 11.5,9.5 7.5,9.5 17.5,21 10,11.5 21,21 11,9.5 22,9.5 15,0 31,-9.5 16,-9.5 30.5,-21.5 14.5,-12 24.5,-21.5 10,-9.5 13,-9.5 10,0 10,9 0,5 -14.5,21.5 -14.5,16.5 -34,34 -19.5,17.5 -39.5,31.5 -20,14 -30,14 z"></path></svg>
