<?xml version="1.0" encoding="UTF-8" standalone="no"?>
<svg xmlns="http://www.w3.org/2000/svg" width="4558" height="2057"><path id="path736" d="m 1013,1950 q 20,-6 35.5,-23.5 15.5,-17.5 15.5,-48.5 0,-48 -39,-70 -39,-22 -109,-22 -51,0 -104.5,20 -53.5,20 -110,50 -56.5,30 -116.5,65.5 -60,35.5 -122.5,65.5 -62.5,30 -129,50 -66.5,20 -135.5,20 -48,0 -84.5,-11 Q 77,2035 51.5,2016.5 26,1998 13,1972 0,1946 0,1916 q 0,-29 13.5,-57 13.5,-28 38,-50 24.5,-22 59,-35.5 34.5,-13.5 76.5,-13.5 53,0 87.5,25.5 34.5,25.5 34.5,68.5 0,22 -11.5,39 -11.5,17 -29,28 -17.5,11 -38,17 -20.5,6 -39.5,6 -3,0 -6.5,-0.5 -3.5,-0.5 -3.5,-4.5 0,-3 3.5,-4 3.5,-1 6.5,-1 15,0 29.5,-5.5 14.5,-5.5 26,-16 11.5,-10.5 18.5,-25 7,-14.5 7,-31.5 0,-38 -27,-57 -27,-19 -72,-19 -35,0 -64.5,11.5 -29.5,11.5 -51.5,30 -22,18.5 -34,43 -12,24.5 -12,50.5 0,56 46,90 46,34 121,34 71,0 138,-24 67,-24 130.5,-60 63.5,-36 124.5,-77.5 61,-41.5 121,-77.5 60,-36 120,-60 60,-24 121,-24 40,0 71.5,12.5 31.5,12.5 52.5,32 21,19.5 32,45 11,25.5 11,50.5 0,27 -10,47 -10,20 -24,33 -14,13 -29,19.5 -15,6.5 -24,6.5 -5,0 -8.5,-1 -3.5,-1 -3.5,-5 0,-3 3.5,-3.5 3.5,-0.5 8.5,-2.5 z"></path></svg>
