<?xml version="1.0" encoding="UTF-8" standalone="no"?>
<svg xmlns="http://www.w3.org/2000/svg" width="4558" height="2057"><path id="path40" d="m 208,1950 q 0,7 5.5,8 5.5,1 9.5,1 11,0 23.5,-3 12.5,-3 18.5,-3 10,0 14,6 4,6 4,12 0,20 -13.5,36 -13.5,16 -34,27 -20.5,11 -44,17 -23.5,6 -42.5,6 -5,0 -15,-1 -10,-1 -20,-4 -10,-3 -17.5,-7 -7.5,-4 -7.5,-10 0,-8 6.5,-16 6.5,-8 13.5,-8 5,0 8,3.5 3,3.5 8.5,7.5 5.5,4 14,7.5 8.5,3.5 25.5,3.5 12,0 25.5,-3.5 13.5,-3.5 25,-9.5 11.5,-6 19.5,-14.5 8,-8.5 8,-18.5 0,-9 -10,-9 -16,0 -29.5,4.5 -13.5,4.5 -32.5,4.5 -5,0 -8.5,-4.5 -3.5,-4.5 -3.5,-9.5 l 9,-39 q -27,-3 -56.5,-13.5 Q 82,1910 57.5,1889 33,1868 16.5,1836 0,1804 0,1757 q 0,-72 29,-134.5 29,-62.5 75.5,-109 46.5,-46.5 105.5,-73 59,-26.5 120,-26.5 12,0 31,2.5 19,2.5 36,7 17,4.5 29.5,12 12.5,7.5 12.5,17.5 0,7 -7,15.5 -7,8.5 -16.5,20.5 -9.5,12 -19.5,27 -10,15 -16,36 l -12,-6 q 5,-20 7.5,-39 2.5,-19 2.5,-36 0,-17 -14,-28 -14,-11 -31,-11 -37,0 -76,26 -39,26 -71.5,70 -32.5,44 -53,102 -20.5,58 -20.5,121 0,46 9.5,76.5 9.5,30.5 25,49 15.5,18.5 34.5,26 19,7.5 38,7.5 46,0 83.5,-20.5 Q 340,1869 365,1838 l 10,8 q -14,15 -30,30.5 -16,15.5 -35.5,28 -19.5,12.5 -43.5,21 -24,8.5 -54,9.5 -4,10 -4,15 z"></path></svg>
