<?xml version="1.0" encoding="UTF-8" standalone="no"?>
<svg xmlns="http://www.w3.org/2000/svg" width="4558" height="2057"><path id="path369" d="m 716,1871 q -3,12 -8.5,31.5 l -11,39 q 0,0 -9,36.5 -9,36.5 -3.5,25 0,13 10,13 7,0 15,-4.5 8,-4.5 16,-9.5 9,-6 17,-15 l 8,8 q -17,18 -33,31 -14,12 -29.5,21.5 -15.5,9.5 -27.5,9.5 -27,0 -40.5,-11.5 Q 606,2034 606,2015 q 0,-6 0.5,-11 0.5,-5 2.5,-14 -8,11 -19,22.5 -11,11.5 -24,21.5 -13,10 -28,16.5 -15,6.5 -32,6.5 -35,0 -58,-18 -23,-18 -23,-56 0,-36 16.5,-67 16.5,-31 41,-54.5 24.5,-23.5 53.5,-37 29,-13.5 54,-13.5 21,0 34,5.5 13,5.5 24,16.5 26,-99 62,-192 36,-93 84,-172 -65,-20 -131,-41 -66,-21 -135.5,-38.5 Q 458,1372 384,1361 q -74,-11 -154,-11 -100,0 -152.5,42 -52.5,42 -61.5,111 -1,6 -2,11.5 -1,5.5 -6,5.5 -5,0 -6.5,-6 -1.5,-6 -1.5,-15 0,-37 12,-79.5 12,-42.5 39,-77.5 27,-35 70,-58.5 43,-23.5 105,-23.5 66,0 137.5,17 71.5,17 145.5,43.5 74,26.5 150.5,58 76.5,31.5 153.5,60.5 35,-52 75.5,-95 40.5,-43 87,-73.5 46.5,-30.5 99.5,-47.5 53,-17 113,-17 46,0 83,10.5 37,10.5 63,31 26,20.5 40.5,49 14.5,28.5 14.5,64.5 0,44 -18.5,78 -18.5,34 -48,57 -29.5,23 -66.5,35 -37,12 -74,12 -84,0 -162,-15 -78,-15 -155,-37 -45,74 -81.5,169 -36.5,95 -67.5,211 z m 471,-598 q -94,0 -169,49 -75,49 -136,142 77,27 152.5,44 75.5,17 149.5,17 30,0 60,-11 30,-11 54,-31 24,-20 38.5,-47 14.5,-27 14.5,-60 0,-26 -13.5,-45.5 -13.5,-19.5 -36.5,-32 -23,-12.5 -52.5,-19 -29.5,-6.5 -61.5,-6.5 z m -647,753 q 9,0 19.5,-7 10.5,-7 21,-18 10.5,-11 20.5,-24.5 10,-13.5 16,-27.5 3,-7 6.5,-18 3.5,-11 6.5,-22 3,-11 4.5,-21.5 1.5,-10.5 1.5,-16.5 0,-18 -7.5,-30 -7.5,-12 -28.5,-12 -18,0 -34,14 -16,14 -27.5,36 -11.5,22 -18,47.5 -6.5,25.5 -6.5,47.5 0,28 6,40 6,12 20,12 z m 314,-469 q 0,-6 1.5,-13 1.5,-7 5,-13.5 3.5,-6.5 9.5,-11 6,-4.5 16,-4.5 15,0 24,11 9,11 9,25 0,12 -7,27 -7,15 -18,29 -11,14 -24,23.5 -13,9.5 -24,9.5 -9,0 -9,-7 0,-2 2.5,-4 2.5,-2 4.5,-4 7,-5 17,-15 10,-10 12,-28 -10,0 -14.5,-8 -4.5,-8 -4.5,-17 z"></path></svg>
