<?xml version="1.0" encoding="UTF-8" standalone="no"?>
<svg xmlns="http://www.w3.org/2000/svg" width="4558" height="2057"><path id="path591" d="m 454,1913 q -6,26 -9.5,46.5 -3.5,20.5 -3.5,31.5 0,15 5.5,20.5 5.5,5.5 13.5,5.5 9,0 18,-4.5 9,-4.5 17,-10.5 9,-6 17,-15 l 8,8 q -16,18 -34,31 -15,12 -33,21.5 -18,9.5 -35,9.5 -27,0 -44.5,-17.5 Q 356,2022 356,1996 q 0,-17 4,-39 4,-22 11,-48 11,-43 24,-88.5 13,-45.5 25,-91.5 -74,0 -148.5,-18.5 -74.5,-18.5 -135,-58 Q 76,1613 38,1551.5 0,1490 0,1404 0,1328 27,1268 54,1208 97.5,1166.5 141,1125 196,1103 q 55,-22 111,-22 45,0 80,13 35,13 59,35 24,22 36.5,51 12.5,29 12.5,61 0,33 -11,60.5 -11,27.5 -30,48 -19,20.5 -45.5,32 -26.5,11.5 -56.5,11.5 -21,0 -38,-6.5 -17,-6.5 -29,-17.5 -12,-11 -18,-25 -6,-14 -6,-29 0,-10 5,-19.5 5,-9.5 17,-9.5 8,0 14,4.5 6,4.5 6,14.5 0,10 -5.5,16.5 -5.5,6.5 -5.5,15.5 0,6 3,13 3,7 10,13.5 7,6.5 18.5,11 11.5,4.5 29.5,4.5 27,0 49.5,-11 22.5,-11 39.5,-29.5 17,-18.5 26.5,-43 9.5,-24.5 9.5,-51.5 0,-63 -42.5,-98.5 Q 393,1110 318,1110 q -48,0 -91.5,21 -43.5,21 -77.5,59.5 -34,38.5 -54,92.5 -20,54 -20,120 0,76 28,134 28,58 75.5,97.5 47.5,39.5 110.5,59.5 63,20 134,20 27,-95 62.5,-185 35.5,-90 85,-160.5 49.5,-70.5 116.5,-113 67,-42.5 157,-42.5 46,0 85.5,16 39.5,16 69,45 29.5,29 46.5,68.5 17,39.5 17,87.5 0,62 -24,112.5 -24,50.5 -63.5,86.5 -39.5,36 -89.5,55.5 -50,19.5 -101,19.5 -41,0 -72,-10.5 -31,-10.5 -54,-28.5 -32,20 -70.5,34.5 -38.5,14.5 -83.5,22.5 -14,48 -26.5,96 -12.5,48 -23.5,95 z m 388,-636 q -62,0 -112,35.5 -50,35.5 -90.5,95 -40.5,59.5 -73,136.5 -32.5,77 -57.5,161 40,-8 73,-22.5 33,-14.5 59,-33.5 -32,-37 -32,-82 0,-51 23.5,-76.5 23.5,-25.5 55.5,-25.5 29,0 49,18.5 20,18.5 20,44.5 0,33 -22.5,66 -22.5,33 -62.5,62 20,15 48.5,24 28.5,9 63.5,9 46,0 90,-17 44,-17 78.5,-49 34.5,-32 55,-77 20.5,-45 20.5,-101 0,-78 -49,-123 -49,-45 -137,-45 z m -218,294 q 0,37 29,68 31,-25 47.5,-53 16.5,-28 16.5,-56 0,-46 -40,-46 -18,0 -35.5,21.5 Q 624,1527 624,1571 Z m 274,-507 q 8,0 16.5,14 8.5,14 8.5,26 0,17 -23,37 -28,25 -59.5,38 -31.5,13 -56.5,13 -4,0 -7.5,-2 -3.5,-2 -3.5,-7 0,-5 9,-9 22,-10 49.5,-34 27.5,-24 51.5,-65 5,-11 15,-11 z"></path></svg>
