<?xml version="1.0" encoding="UTF-8" standalone="no"?>
<svg xmlns="http://www.w3.org/2000/svg" width="4558" height="2057"><path id="path735" d="M 67,1811 Q 38,1805 19,1788.5 0,1772 0,1746 q 0,-29 17.5,-50 17.5,-21 49.5,-26 -2,-4 -5,-12 -3,-8 -3,-22 0,-29 20.5,-49 20.5,-20 49.5,-20 26,0 54,19 -5,-9 -7,-18 -2,-9 -2,-19 0,-26 19.5,-45 19.5,-19 48.5,-19 11,0 22,3 8,-23 23.5,-38.5 15.5,-15.5 37.5,-15.5 24,0 44,12.5 20,12.5 28,38.5 3,-1 6.5,-1 h 6.5 q 29,0 49.5,19 20.5,19 20.5,46 0,12 -3.5,22.5 -3.5,10.5 -9.5,21.5 14,-8 28,-11.5 14,-3.5 26,-3.5 30,0 50,20.5 20,20.5 20,49.5 0,14 -3,22 -3,8 -7,13 26,6 43.5,22.5 17.5,16.5 17.5,40.5 0,26 -15,46.5 -15,20.5 -44,27.5 2,4 5,12 3,8 3,22 0,29 -20.5,48.5 -20.5,19.5 -49.5,19.5 -19,0 -32.5,-5.5 Q 475,1911 459,1903 q 5,10 8.5,19 3.5,9 3.5,23 0,26 -20,45.5 -20,19.5 -49,19.5 -10,0 -20,-3 -8,22 -23,36 -15,14 -36,14 -24,0 -44,-12 -20,-12 -28,-37 -5,1 -8.5,1.5 -3.5,0.5 -7.5,0.5 -29,0 -49.5,-19 -20.5,-19 -20.5,-46 0,-14 3,-23.5 3,-9.5 8,-18.5 -13,6 -24,8 -11,2 -23,2 -29,0 -49.5,-19.5 Q 59,1874 59,1845 59,1831 61.5,1823.5 64,1816 67,1811 Z m 28,-13 q 37,0 71,-14 34,-14 68,-35 -36,-24 -72,-37 -36,-13 -71,-13 -38,0 -57,12.5 -19,12.5 -19,34.5 0,23 22.5,37.5 Q 60,1798 95,1798 Z m 453,-105 q -35,0 -68.5,14.5 -33.5,14.5 -65.5,37.5 70,47 137,47 38,0 57.5,-12.5 19.5,-12.5 19.5,-34.5 0,-24 -23,-38 -23,-14 -57,-14 z M 275,1529 q 0,35 13,67 13,32 37,63 39,-61 39,-134 0,-76 -40,-76 -20,0 -34.5,22.5 Q 275,1494 275,1529 Z m 97,433 q 0,-35 -12,-65.5 -12,-30.5 -35,-60.5 -23,32 -33,64.5 -10,32.5 -10,65.5 0,76 42,76 23,0 35.5,-23.5 Q 372,1995 372,1962 Z M 255,1735 q 8,-7 14.5,-12 6.5,-5 14.5,-13 -39,-46 -78,-76.5 -39,-30.5 -81,-30.5 -28,0 -40.5,13.5 Q 72,1630 72,1650 q 0,10 3,14 1,3 3,5 3,-1 6.5,-1 H 91 q 39,0 82,18.5 43,18.5 82,48.5 z m 139,25 q -8,7 -15,13 -7,6 -15,14 39,45 78.5,72.5 39.5,27.5 82.5,27.5 28,0 40.5,-13.5 12.5,-13.5 12.5,-33.5 0,-5 -1,-8 -1,-3 -2,-5 -1,-3 -2,-5 -5,1 -10,1 h -10 q -38,0 -79.5,-17 -41.5,-17 -79.5,-46 z m -316,52 q -2,2 -3,5 -3,5 -3,14 0,20 12.5,33.5 12.5,13.5 40.5,13.5 42,0 80.5,-24 38.5,-24 76.5,-66 -8,-8 -14.5,-13.5 Q 261,1769 252,1762 215,1786 174.5,1799.5 134,1813 95,1813 h -9 q 0,0 -8,-1 z m 493,-131 q 2,-2 4.5,-6.5 2.5,-4.5 2.5,-12.5 0,-17 -12.5,-33 -12.5,-16 -40.5,-16 -42,0 -80.5,26 -38.5,26 -77.5,70 8,8 15.5,13 7.5,5 15.5,12 37,-26 76,-40.5 39,-14.5 74,-14.5 6,0 11.5,0.5 5.5,0.5 11.5,1.5 z m -338,-51 q 14,17 29,34 15,17 32,36 l 18,-23 q -26,-35 -40,-73 -14,-38 -14,-75 0,-19 4,-34 -4,-1 -12,-1 -21,0 -33.5,17 -12.5,17 -12.5,43 0,15 4,28 4,13 9,23 5,10 9.5,16.5 4.5,6.5 6.5,8.5 z m 61,168 q -17,16 -32,31 l -27,27 q 0,0 -22,25 -8,9 -13,25 -5,16 -5,34 0,24 12.5,42.5 12.5,18.5 35.5,18.5 h 4 q 1,0 2,-1 -4,-13 -4,-33 0,-37 18,-76 18,-39 48,-74 z m 96,164 q 0,20 -6,38 3,1 9,1 23,0 35.5,-17 12.5,-17 12.5,-44 0,-13 -3.5,-25.5 -3.5,-12.5 -8.5,-22 -5,-9.5 -10,-16.5 -5,-7 -7,-10 -17,-22 -37,-45 -11,-12 -21,-24 l -17,22 q 25,34 39,70.5 14,36.5 14,72.5 z m -33,-263 q 15,-15 28,-29 11,-12 23,-26 12,-14 20,-25 8,-10 15,-27 7,-17 7,-38 0,-21 -11,-40.5 -11,-19.5 -40,-19.5 3,14 3,30 0,41 -17,81 -17,40 -45,75 5,6 8.5,10 3.5,4 8.5,9 z m -33,101 q 10,-13 23,-25 13,-12 31,-26 -15,-11 -26.5,-23 -11.5,-12 -24.5,-29 -14,16 -26.5,27 -12.5,11 -28.5,24 4,3 7.5,6.5 3.5,3.5 9,8.5 5.5,5 13.5,13.5 8,8.5 22,23.5 z"></path></svg>
