<?xml version="1.0" encoding="UTF-8" standalone="no"?>
<svg xmlns="http://www.w3.org/2000/svg" width="4558" height="2057"><path id="path546" d="m 1817,896 q 0,72 -27,127.5 -27,55.5 -74.5,98.5 -47.5,43 -112.5,74 -65,31 -141,54.5 -76,23.5 -160.5,40.5 -84.5,17 -170.5,31 -49,170 -119.5,306 -70.5,136 -162,231.5 Q 758,1955 646,2006 q -112,51 -245,51 -99,0 -174,-28 -75,-28 -125.5,-78 Q 51,1901 25.5,1832.5 0,1764 0,1683 0,1567 47.5,1472.5 95,1378 174,1310.5 253,1243 354,1206 q 101,-37 209,-37 127,0 189.5,47 62.5,47 70.5,137 50,-9 101.5,-17.5 51.5,-8.5 103.5,-17.5 18,-46 34.5,-94 16.5,-48 32.5,-99 8,-25 16,-57.5 8,-32.5 15.5,-67.5 7.5,-35 14.5,-70 7,-35 13,-66 5,-22 13.5,-34.5 Q 1176,817 1191,808 h -7.5 q 0,0 -10.5,-1 -9,0 -17,-2 -4,-1 -7,-2 l 8,-12 8,2 q 5,1 21,1 17,0 43,-4.5 26,-4.5 58,-18.5 l 5,9 q -8,6 -15,13 -6,6 -13.5,15.5 -7.5,9.5 -13.5,20.5 -13,23 -19.5,43.5 -6.5,20.5 -12.5,45.5 -8,35 -17,87.5 -9,52.5 -20,106.5 -10,49 -20.5,95.5 -10.5,46.5 -23.5,91.5 116,-22 222.5,-52 106.5,-30 188.5,-77.5 82,-47.5 130.5,-116.5 48.5,-69 48.5,-169 0,-78 -42.5,-122 -42.5,-44 -122.5,-44 -42,0 -83.5,17 -41.5,17 -74,45.5 -32.5,28.5 -53,66 -20.5,37.5 -20.5,77.5 0,34 10.5,58 10.5,24 26.5,39.5 16,15.5 35.5,22.5 19.5,7 37.5,7 10,0 17.5,-5 7.5,-5 13.5,-11 l 11,-11 q 0,0 11,-5 26,0 26,25 0,13 -17,22.5 -17,9.5 -42,9.5 -27,0 -54,-9 -27,-9 -48.5,-27.5 Q 1337,1021 1323,993 q -14,-28 -14,-67 0,-45 21.5,-88 21.5,-43 58.5,-76 37,-33 86.5,-53.5 Q 1525,688 1581,688 q 44,0 86.5,11 42.5,11 75.5,35.5 33,24.5 53.5,64 Q 1817,838 1817,896 Z M 372,1964 q 105,0 197.5,-44 92.5,-44 173.5,-125 81,-81 150,-196.5 69,-115.5 126,-258.5 -51,8 -99.5,16 -48.5,8 -95.5,16 0,75 -27.5,143 -27.5,68 -72.5,119 -45,51 -103,81 -58,30 -119,30 -30,0 -57.5,-7 -27.5,-7 -48.5,-22 -21,-15 -34,-38 -13,-23 -13,-54 0,-60 35.5,-103 35.5,-43 96,-73.5 60.5,-30.5 142.5,-52 82,-21.5 175,-38.5 -7,-76 -65,-122 -58,-46 -169,-46 -68,0 -133.5,17 -65.5,17 -124.5,47 -59,30 -108.5,72.5 Q 148,1368 112,1418.5 76,1469 55.5,1527 35,1585 35,1646 q 0,76 25.5,135 25.5,59 70.5,99.5 45,40.5 107,62 62,21.5 134,21.5 z m 153,-257 q 49,0 98,-26 49,-26 88,-71 39,-45 63.5,-105 24.5,-60 24.5,-128 -80,16 -148.5,35.5 -68.5,19.5 -119,47.5 -50.5,28 -79,65 -28.5,37 -28.5,88 0,46 27.5,70 27.5,24 73.5,24 z M 1223,700 q 0,-10 5,-21.5 5,-11.5 13,-20.5 8,-9 17.5,-15 9.5,-6 18.5,-6 13,0 22,8.5 9,8.5 9,22.5 0,11 -4.5,22.5 -4.5,11.5 -11.5,21.5 -7,10 -16.5,16 -9.5,6 -18.5,6 -13,0 -23.5,-9 -10.5,-9 -10.5,-25 z"></path></svg>
