<?xml version="1.0" encoding="UTF-8" standalone="no"?>
<svg xmlns="http://www.w3.org/2000/svg" width="4558" height="2057"><path id="path934" d="m 472,1984 q -49,0 -94,-6.5 -45,-6.5 -83.5,-21 -38.5,-14.5 -69,-38 Q 195,1895 176,1861 q -16,-28 -25.5,-55 -9.5,-27 -23.5,-63 -20,18 -32.5,28.5 -12.5,10.5 -22,16 -9.5,5.5 -18,7.5 -8.5,2 -18.5,2 -12,0 -24,-6.5 Q 0,1784 0,1767 0,1750 12.5,1739.5 25,1729 40,1729 q 13,0 21,6.5 8,6.5 19,6.5 10,0 17.5,-2 7.5,-2 23.5,-14 -5,-17 -9,-37 -4,-20 -9,-43 -7,-29 -12,-40.5 -5,-11.5 -18,-11.5 -4,0 -10.5,4 -6.5,4 -12.5,9 -8,5 -16,12 l -8,-9 q 6,-5 16.5,-15 10.5,-10 23.5,-19.5 13,-9.5 27,-16.5 14,-7 25,-7 26,0 39,18 13,18 25,58 l 13,42 q 18,-17 24,-29 6,-12 6,-25 0,-9 -5,-14.5 -5,-5.5 -5,-19.5 0,-14 12,-22 12,-8 26,-8 32,0 32,29 0,11 -7.5,23.5 -7.5,12.5 -19.5,26 -12,13.5 -27.5,27.5 -15.5,14 -30.5,27 14,39 24.5,66.5 10.5,27.5 25.5,56.5 18,36 39.5,65 21.5,29 49.5,50 28,21 65,32.5 37,11.5 86,11.5 50,0 104.5,-16 54.5,-16 109,-35.5 54.5,-19.5 107,-35.5 52.5,-16 98.5,-16 52,0 89.5,14.5 37.5,14.5 62,38.5 24.5,24 36,56 11.5,32 11.5,66 0,18 -8,18 -7,0 -9,-14 -9,-59 -58,-86.5 -49,-27.5 -133,-27.5 -60,0 -111,8.5 -51,8.5 -101,19 -50,10.5 -102.5,19 Q 533,1984 472,1984 Z"></path></svg>
