<?xml version="1.0" encoding="UTF-8" standalone="no"?>
<svg xmlns="http://www.w3.org/2000/svg" width="4558" height="2057"><path id="path78" d="m 416,1534 h 13 q 0,0 13,-1 -12,-28 -12,-66 0,-52 19,-107.5 19,-55.5 51.5,-109 32.5,-53.5 75.5,-101 43,-47.5 91.5,-83.5 48.5,-36 100,-57 51.5,-21 100.5,-21 63,0 98,27.5 35,27.5 35,81.5 0,28 -10.5,53 -10.5,25 -29,44 -18.5,19 -43,31 -24.5,12 -51.5,14 -15,41 -42.5,84.5 -27.5,43.5 -66.5,83 -39,39.5 -89,72.5 -50,33 -110,52 16,60 80,60 23,0 50,-14.5 27,-14.5 53.5,-36.5 26.5,-22 49.5,-48.5 23,-26.5 38,-49.5 18,-28 38,-44.5 20,-16.5 41,-27.5 24,-11 32,-20 8,-9 13,-9 3,0 5,3 2,3 2,5 0,5 -5.5,12 -5.5,7 -14,20.5 -8.5,13.5 -18,34.5 -9.5,21 -17.5,52 -15,59 -32,145.5 -17,86.5 -40,183.5 -29,124 -102.5,192 -73.5,68 -177.5,68 -51,0 -89.5,-14.5 Q 426,2028 400.5,2004 375,1980 362,1948.5 349,1917 349,1882 q 0,-44 15,-79.5 15,-35.5 40.5,-61 25.5,-25.5 59,-39.5 33.5,-14 71.5,-14 29,0 48,13 19,13 19,30 0,14 -8,22.5 -8,8.5 -21,8.5 -13,0 -19,-7.5 -6,-7.5 -12,-17 -6,-9.5 -15.5,-17 -9.5,-7.5 -28.5,-7.5 -20,0 -41,11 -21,11 -38,30.5 -17,19.5 -28.5,45.5 -11.5,26 -11.5,57 0,32 11.5,56.5 11.5,24.5 30.5,41.5 19,17 43.5,26 24.5,9 50.5,9 40,0 74,-15.5 34,-15.5 61.5,-43.5 27.5,-28 49.5,-67 22,-39 39,-87 32,-92 49,-164 17,-72 32,-124 -15,19 -37.5,43 -22.5,24 -51,45.5 -28.5,21.5 -62.5,36 -34,14.5 -72,14.5 -45,0 -84,-18.5 -39,-18.5 -62,-56.5 -9,1 -18.5,1 H 413 q -80,0 -154.5,-17 -74.5,-17 -132,-53 Q 69,1448 34.5,1390.5 0,1333 0,1252 0,1172 32,1111.5 64,1051 113,1010 q 49,-41 107,-62 58,-21 109,-21 80,0 128.5,42.5 48.5,42.5 48.5,116.5 0,34 -11,64.5 -11,30.5 -32,53.5 -21,23 -50.5,36.5 -29.5,13.5 -66.5,13.5 -29,0 -52.5,-11 -23.5,-11 -40.5,-27.5 -17,-16.5 -26,-37 -9,-20.5 -9,-39.5 0,-14 6.5,-27.5 6.5,-13.5 23.5,-13.5 14,0 22.5,9 8.5,9 8.5,19 0,8 -2.5,13.5 -2.5,5.5 -5,9.5 l -5,8 q 0,0 -2.5,10 0,11 4.5,23 4.5,12 15,22 10.5,10 27.5,16 17,6 43,6 60,0 96.5,-39 36.5,-39 36.5,-111 0,-24 -10.5,-47.5 -10.5,-23.5 -30,-42 Q 427,976 399,964 q -28,-12 -63,-12 -39,0 -85,19 -46,19 -86,56 -40,37 -67,92 -27,55 -27,126 0,75 27,129.5 27,54.5 73.5,90 46.5,35.5 109.5,52.5 63,17 135,17 z m 460,-509 q -41,0 -80.5,20.5 -39.5,20.5 -75.5,55.5 -36,35 -66.5,80.5 -30.5,45.5 -53,95.5 -22.5,50 -35,101 -12.5,51 -12.5,97 0,10 0.5,19 0.5,9 1.5,17 55,-18 102.5,-48.5 47.5,-30.5 85,-67.5 37.5,-37 64.5,-77.5 27,-40.5 42,-78.5 -46,-2 -71.5,-26.5 Q 752,1188 752,1155 q 0,-27 21,-46.5 21,-19.5 46,-19.5 33,0 49,17 16,17 16,49 0,34 -12,71 41,-5 69.5,-39 28.5,-34 28.5,-82 0,-37 -23,-58.5 -23,-21.5 -71,-21.5 z m -99,132 q 0,22 18,45 18,23 59,25 14,-40 14,-72 0,-27 -11.5,-38.5 Q 845,1105 821,1105 q -17,0 -30.5,14.5 Q 777,1134 777,1157 Z"></path></svg>
