<?xml version="1.0" encoding="UTF-8" standalone="no"?>
<svg xmlns="http://www.w3.org/2000/svg" width="4558" height="2057"><path id="path477" d="m 1099,553 q -13,60 -32,118 85,2 165.5,20 80.5,18 151.5,51 63,-21 126,-32.5 63,-11.5 127,-11.5 69,0 131,14.5 62,14.5 109,43.5 47,29 75,73 28,44 28,103 0,44 -17.5,88.5 -17.5,44.5 -55,82.5 -37.5,38 -97,65.5 -59.5,27.5 -142.5,35.5 -4,78 -29,151 -25,73 -69,133 -44,60 -106.5,103.5 -62.5,43.5 -140.5,62.5 -4,68 -32.5,139.5 -28.5,71.5 -85,130 -56.5,58.5 -142,96 Q 978,2057 861,2057 786,2057 706,2042.5 626,2028 550,1996 474,1964 405.5,1914 337,1864 285.5,1793 234,1722 204,1629 q -30,-93 -30,-210 0,-88 20,-170 Q 104,1217 52,1153 0,1089 0,1004 0,948 24,902.5 48,857 89.5,825 131,793 187.5,775.5 244,758 310,758 q 56,0 113.5,12 57.5,12 117.5,32 98,-57 208.5,-89 110.5,-32 222.5,-40 12,-29 23,-60 11,-31 21,-64 l 11,-38.5 q 0,0 9.5,-34 9.5,-34 8.5,-33.5 -1,0.5 9,-37 -7,10 -18,22 -11,12 -24.5,22 -13.5,10 -28.5,17 -15,7 -29,7 -37,0 -59.5,-21.5 Q 872,431 872,397 q 0,-36 16.5,-67 16.5,-31 41,-54.5 24.5,-23.5 53.5,-37 29,-13.5 54,-13.5 29,0 44,13 15,13 17,33 5,-15 18,-25 13,-10 39,-14 12,-2 21,-4.5 9,-2.5 15,-5.5 7,-4 12,-7 l 6,12 q -6,5 -12,11 -5,5 -12.5,13 -7.5,8 -14.5,19 -14,23 -21,43.5 -7,20.5 -13,45.5 -11,48 -18,93 -7,45 -19,101 z m -124,471 -36,-18 q 0,0 -36,-17 -59,75 -127,129 -68,54 -140,88.5 -72,34.5 -144.5,51 Q 419,1274 350,1274 q -21,0 -41,-2 -20,-2 -40,-5 -8,36 -12,73.5 -4,37.5 -4,77.5 0,114 26.5,204 26.5,90 71.5,158.5 45,68.5 105.5,116.5 60.5,48 128.5,78.5 68,30.5 140,44.5 72,14 141,14 100,0 179,-33 79,-33 134,-86 55,-53 85.5,-120 30.5,-67 35.5,-136 -22,4 -44,6 -22,2 -45,2 -62,0 -123,-15 -61,-15 -110.5,-47.5 Q 928,1572 894,1521 q -34,-51 -43,-123 -70,38 -111.5,105 -41.5,67 -41.5,149 0,47 14,84.5 14,37.5 38.5,63.5 24.5,26 58,39.5 33.5,13.5 71.5,13.5 48,0 76.5,-19 28.5,-19 28.5,-42 0,-9 -4,-14.5 -4,-5.5 -8.5,-11 -4.5,-5.5 -8.5,-11.5 -4,-6 -4,-16 0,-17 11.5,-26.5 11.5,-9.5 25.5,-9.5 16,0 27,13.5 11,13.5 11,37.5 0,23 -11.5,44 -11.5,21 -32.5,37.5 -21,16.5 -50,26 -29,9.5 -63,9.5 -39,0 -80.5,-14 -41.5,-14 -76.5,-42 -35,-28 -57.5,-71 -22.5,-43 -22.5,-101 0,-48 15.5,-90.5 15.5,-42.5 43,-78 27.5,-35.5 66,-62.5 38.5,-27 83.5,-45 0,-95 32,-178.5 32,-83.5 94,-164.5 z m 627,184 q -76,0 -152.5,-14 -76.5,-14 -152,-38 -75.5,-24 -150.5,-55.5 -75,-31.5 -148,-65.5 -58,72 -91,153 -33,81 -33,169 30,-9 62.5,-14 32.5,-5 66.5,-5 69,0 127.5,19.5 58.5,19.5 101,57 42.5,37.5 67,92 24.5,54.5 24.5,124.5 64,-21 114.5,-62.5 50.5,-41.5 86.5,-98 36,-56.5 56.5,-123.5 20.5,-67 24.5,-139 z m 5,-25 q 0,-76 -17.5,-139 -17.5,-63 -49,-113.5 Q 1509,880 1466,841 q -43,-39 -94,-68 -104,38 -196,100.5 -92,62.5 -161,142.5 60,28 135,57.5 75,29.5 154.5,54 79.5,24.5 158,40 78.5,15.5 144.5,15.5 z m 62,-8 q 71,-9 117,-33 46,-24 73,-57.5 27,-33.5 38,-72.5 11,-39 11,-77 0,-51 -21,-90 -21,-39 -59.5,-64.5 Q 1789,755 1734.5,742 1680,729 1614,729 q -98,0 -197,29 56,30 102.5,71 46.5,41 79.5,93 33,52 51.5,115 18.5,63 18.5,138 z m -1323,16 q 58,0 118.5,-15 60.5,-15 120.5,-45.5 60,-30.5 117.5,-77 Q 760,1007 812,944 747,913 686,885 625,857 565,834 472,898 400.5,987 329,1076 291,1188 q 27,3 55,3 z M 42,994 q 0,36 13.5,64.5 13.5,28.5 37.5,51 24,22.5 56,38.5 32,16 68,26 42,-116 120,-205 78,-89 179,-152 -53,-17 -102,-27 -49,-10 -96,-10 -58,0 -108,16 -50,16 -87.5,44.5 Q 85,869 63.5,908.5 42,948 42,994 Z m 962,366 q -68,0 -127,25 7,70 38.5,120 31.5,50 78,82 46.5,32 102.5,47 56,15 112,15 49,0 93,-12 0,-69 -24,-120.5 -24,-51.5 -65,-86.5 -41,-35 -95,-52.5 -54,-17.5 -113,-17.5 z m -13,-356 q 67,-79 157,-142.5 90,-63.5 193,-104.5 -66,-32 -137,-48 -71,-16 -143,-19 -28,83 -64,152 -36,69 -79,127 l 36,18 q 0,0 37,17 z M 828,925 q 38,-49 72.5,-107 34.5,-58 63.5,-126 -98,8 -194,40 -96,32 -181,87 58,22 117.5,49 59.5,27 121.5,57 z M 987,442 q 17,0 39,-22 22,-22 36,-51 3,-7 7,-19 4,-12 7,-24.5 3,-12.5 5,-23.5 2,-11 2,-17 0,-18 -8,-30 -8,-12 -28,-12 -18,0 -34,14 -16,14 -27.5,36 -11.5,22 -18,47.5 -6.5,25.5 -6.5,47.5 0,54 26,54 z"></path></svg>
