<?xml version="1.0" encoding="UTF-8" standalone="no"?>
<svg xmlns="http://www.w3.org/2000/svg" width="4558" height="2057"><path id="path497" d="m 58,1902 q 22,-96 51.5,-196 29.5,-100 68,-194 38.5,-94 87.5,-177 49,-83 112,-145 63,-62 140.5,-98 77.5,-36 173.5,-36 72,0 131,22 59,22 101,63 8,-1 16.5,-1 H 956 q 75,0 137,18 62,18 106.5,50.5 44.5,32.5 69.5,77.5 25,45 25,99 0,45 -16,80 -16,35 -41,59.5 -25,24.5 -56,37 -31,12.5 -61,12.5 -35,0 -48.5,-8 -13.5,-8 -13.5,-21 0,-12 8,-19 8,-7 18,-7 10,0 16,4.5 6,4.5 10.5,10.5 4.5,6 8.5,10.5 4,4.5 10,4.5 24,0 49.5,-10.5 25.5,-10.5 46.5,-31 21,-20.5 34.5,-51 13.5,-30.5 13.5,-71.5 0,-48 -23,-89 -23,-41 -63.5,-70.5 -40.5,-29.5 -95,-46 Q 1037,1163 973,1163 q -8,0 -15,0.5 -7,0.5 -15,0.5 29,37 45.5,84 16.5,47 16.5,104 0,68 -18,129.5 -18,61.5 -54,108 -36,46.5 -88.5,74 Q 792,1691 723,1691 q -40,0 -78.5,-11.5 -38.5,-11.5 -69,-35 -30.5,-23.5 -49.5,-59 -19,-35.5 -19,-82.5 0,-72 31.5,-132 31.5,-60 83,-106 51.5,-46 118,-76.5 Q 806,1158 877,1147 q -66,-36 -166,-36 -82,0 -149.5,35 -67.5,35 -123,94 -55.5,59 -99.5,137 -44,78 -80,164 -36,86 -64,175.5 -28,89.5 -51,170.5 15,-18 34,-33 19,-15 37.5,-26.5 18.5,-11.5 36.5,-18 18,-6.5 32,-6.5 18,0 32,9 14,9 14,30 0,18 -7,36 -7,18 -15.5,36 -8.5,18 -15.5,37 -7,19 -7,39 0,13 5,17 5,4 10,4 7,0 15,-4.5 8,-4.5 16,-10.5 9,-6 17,-15 l 8,8 q -16,18 -33,31 -15,12 -33,21.5 -18,9.5 -36,9.5 -23,0 -41.5,-10.5 Q 194,2030 194,2003 q 0,-20 8.5,-39.5 8.5,-19.5 19,-38.5 10.5,-19 19,-36 8.5,-17 8.5,-31 0,-15 -11,-15 -11,0 -36,14 -25,14 -56,52 -10,12 -18,31.5 -8,19.5 -14,39.5 -6,20 -9,36.5 -3,16.5 -3,21.5 0,15 -14,15 -8,0 -21,-2 -13,-2 -26,-2 -14,0 -24,4 -10,4 -13,4 -4,0 -4,-4 0,-3 6,-9 6,-6 12,-18 12,-21 20.5,-50 8.5,-29 19.5,-74 z m 926,-550 q 0,-63 -19.5,-108.5 Q 945,1198 909,1168 842,1178 781.5,1207.5 721,1237 675,1281 q -46,44 -73,101.5 -27,57.5 -27,123.5 0,80 41.5,121.5 41.5,41.5 108.5,41.5 63,0 111,-25.5 48,-25.5 81,-69 33,-43.5 50,-101 17,-57.5 17,-121.5 z"></path></svg>
