<?xml version="1.0" encoding="UTF-8" standalone="no"?>
<svg xmlns="http://www.w3.org/2000/svg" width="4558" height="2057"><path id="path315" d="m 157,1858 q 9,-10 22,-18.5 13,-8.5 26.5,-15 13.5,-6.5 27,-10.5 13.5,-4 24.5,-4 27,0 50,18.5 23,18.5 23,59.5 0,31 -12,61.5 -12,30.5 -32,54.5 -20,24 -47,38.5 -27,14.5 -57,14.5 -36,0 -56,-16 -20,-16 -27,-33 -17,18 -31.5,27.5 Q 53,2045 40,2050 q -13,5 -23,6 -10,1 -17,1 v -7 q 14,-6 24,-22.5 10,-16.5 18.5,-41.5 8.5,-25 16.5,-57 8,-32 18,-70 25,-97 54.5,-194 29.5,-97 66,-186 36.5,-89 83.5,-165 47,-76 107.5,-132 60.5,-56 136,-88 75.5,-32 171.5,-32 72,0 131,22 59,22 101,63 8,-1 16.5,-1 H 961 q 75,0 137,18 62,18 106.5,50.5 44.5,32.5 69.5,77.5 25,45 25,99 0,45 -16,80 -16,35 -41,59.5 -25,24.5 -56,37 -31,12.5 -61,12.5 -35,0 -48.5,-8 -13.5,-8 -13.5,-21 0,-12 8,-19 8,-7 18,-7 10,0 16,4.5 6,4.5 10.5,10.5 4.5,6 8.5,10.5 4,4.5 10,4.5 24,0 49.5,-10.5 25.5,-10.5 46.5,-31 21,-20.5 34.5,-51 13.5,-30.5 13.5,-71.5 0,-48 -23,-89 -23,-41 -63.5,-70.5 -40.5,-29.5 -95,-46 Q 1042,1169 978,1169 q -8,0 -15,0.5 -7,0.5 -15,0.5 29,37 45.5,84 16.5,47 16.5,104 0,68 -18,129.5 -18,61.5 -54,108 -36,46.5 -88.5,74 Q 797,1697 728,1697 q -40,0 -78.5,-11.5 -38.5,-11.5 -69,-35 -30.5,-23.5 -49.5,-59 -19,-35.5 -19,-82.5 0,-72 31.5,-132 31.5,-60 83,-106 51.5,-46 118,-76.5 Q 811,1164 882,1153 q -66,-36 -166,-36 -81,0 -147.5,31.5 -66.5,31.5 -120.5,86 -54,54.5 -98,127.5 -44,73 -79,155.5 -35,82.5 -63,170 -28,87.5 -51,170.5 z m 832,-500 q 0,-63 -19.5,-108.5 Q 950,1204 914,1174 847,1184 786.5,1213.5 726,1243 680,1287 q -46,44 -73,101.5 -27,57.5 -27,123.5 0,80 41.5,121.5 41.5,41.5 108.5,41.5 63,0 111,-25.5 48,-25.5 81,-69 33,-43.5 50,-101 17,-57.5 17,-121.5 z m -769,481 q -6,0 -16.5,4.5 -10.5,4.5 -22,13.5 -11.5,9 -22.5,22.5 -11,13.5 -17,31.5 -3,7 -6.5,18.5 -3.5,11.5 -7,23.5 -3.5,12 -6,23 -2.5,11 -2.5,16 0,24 14,32.5 14,8.5 27,8.5 16,0 30.5,-15.5 14.5,-15.5 26,-39 11.5,-23.5 18,-50 6.5,-26.5 6.5,-49.5 0,-40 -22,-40 z"></path></svg>
