<?xml version="1.0" encoding="UTF-8" standalone="no"?>
<svg xmlns="http://www.w3.org/2000/svg" width="4558" height="2057"><path id="path786" d="m 156,1894 q -8,10 -17,31.5 -9,21.5 -17,44.5 -8,23 -13,42.5 -5,19.5 -5,25.5 0,14 -14,14 -7,0 -20,-1.5 -13,-1.5 -27,-1.5 -14,0 -25,4 -11,4 -14,4 -4,0 -4,-4 0,-3 6.5,-8.5 6.5,-5.5 11.5,-16.5 9,-17 18.5,-43 9.5,-26 17.5,-52 8,-26 13,-47 5,-21 5,-28 0,-3 -1.5,-6.5 -1.5,-3.5 -6.5,-3.5 -5,0 -11.5,4 -6.5,4 -12.5,9 -7,6 -15,13 l -7,-9 q 6,-5 17,-15 11,-10 24.5,-19.5 13.5,-9.5 28,-16.5 14.5,-7 26.5,-7 21,0 32.5,9.5 11.5,9.5 11.5,23.5 0,7 -1,13 -1,6 -2,11 -1,6 -2,11 7,-11 19,-24.5 12,-13.5 26,-25.5 14,-12 29,-20 15,-8 30,-8 14,0 26,7.5 12,7.5 24.5,16.5 12.5,9 27,16.5 14.5,7.5 34.5,7.5 12,0 24,-4.5 12,-4.5 17,-8.5 6,-4 9,-4 5,0 5,5 0,5 -12,17 -8,8 -18,17.5 -10,9.5 -21.5,18.5 -11.5,9 -24,15 -12.5,6 -24.5,6 -21,0 -34,-9.5 -13,-9.5 -22.5,-21 -9.5,-11.5 -17.5,-21 -8,-9.5 -20,-9.5 -20,0 -37.5,12.5 Q 175,1871 156,1894 Z m 110,-119 q -9,0 -22,-13 -13,-13 -24,-30 -11,-17 -19,-33.5 -8,-16.5 -8,-23.5 0,-9 10,-9 4,0 11.5,9.5 7.5,9.5 17.5,21 10,11.5 21,21 11,9.5 22,9.5 15,0 31,-9.5 16,-9.5 30.5,-21.5 14.5,-12 24.5,-21.5 10,-9.5 13,-9.5 10,0 10,9 0,5 -14.5,21.5 -14.5,16.5 -34,34 -19.5,17.5 -39.5,31.5 -20,14 -30,14 z"></path></svg>
