<?xml version="1.0" encoding="UTF-8" standalone="no"?>
<svg xmlns="http://www.w3.org/2000/svg" width="4558" height="2057"><path id="path310" d="m 723,1859 q 9,-10 22,-18.5 13,-8.5 27,-15.5 14,-7 27.5,-11 13.5,-4 24.5,-4 27,0 50,18.5 23,18.5 23,59.5 0,31 -12,61.5 -12,30.5 -32,54.5 -20,24 -47,38.5 -27,14.5 -57,14.5 -36,0 -56,-16 -20,-16 -27,-33 -17,18 -31.5,27.5 -14.5,9.5 -27.5,14.5 -13,5 -23,6 -10,1 -17,1 v -7 q 14,-6 27,-33 13,-27 25,-64 12,-37 22.5,-79.5 10.5,-42.5 20.5,-80.5 23,-91 55,-173 32,-82 74,-152 -65,-20 -130.5,-41 Q 595,1406 526,1389 457,1372 383.5,1361 310,1350 230,1350 130,1350 77.5,1392 25,1434 16,1503 q -1,6 -2,11.5 -1,5.5 -6,5.5 -5,0 -6.5,-6 -1.5,-6 -1.5,-15 0,-37 12,-79.5 12,-42.5 39,-77.5 27,-35 70,-58.5 43,-23.5 105,-23.5 66,0 137,17 71,17 145,43 74,26 149.5,57.5 Q 733,1409 810,1438 880,1331 973.5,1268.5 1067,1206 1188,1206 q 46,0 83,10.5 37,10.5 63,31 26,20.5 40.5,49 14.5,28.5 14.5,64.5 0,44 -18.5,78 -18.5,34 -48,57 -29.5,23 -66.5,35 -37,12 -74,12 -84,0 -161,-14.5 -77,-14.5 -154,-37.5 -43,72 -78.5,164 -35.5,92 -65.5,204 z m 464,-586 q -93,0 -167.5,49 -74.5,49 -136.5,143 77,26 152.5,43 75.5,17 148.5,17 30,0 60,-11 30,-11 54,-31 24,-20 38.5,-47 14.5,-27 14.5,-60 0,-26 -13.5,-45.5 -13.5,-19.5 -36.5,-32 -23,-12.5 -52.5,-19 -29.5,-6.5 -61.5,-6.5 z m -400,566 q -6,0 -16.5,4.5 -10.5,4.5 -22,13.5 -11.5,9 -22.5,22.5 -11,13.5 -17,31.5 -3,7 -6.5,18.5 -3.5,11.5 -7,23.5 -3.5,12 -6,23 -2.5,11 -2.5,16 0,24 14,32.5 14,8.5 27,8.5 16,0 30.5,-15.5 14.5,-15.5 26,-39 11.5,-23.5 18,-50 6.5,-26.5 6.5,-49.5 0,-40 -22,-40 z"></path></svg>
