<?xml version="1.0" encoding="UTF-8" standalone="no"?>
<svg xmlns="http://www.w3.org/2000/svg" width="4558" height="2057"><path id="path102" d="m 558,1075 q 62,0 113,13.5 51,13.5 90,37.5 32,-44 86,-78.5 54,-34.5 113.5,-64 59.5,-29.5 116,-56.5 56.5,-27 93.5,-57 l 5,10 q -29,29 -45.5,60.5 -16.5,31.5 -32.5,74.5 -11,29 -20,65.5 -9,36.5 -18,85 -9,48.5 -19.5,110.5 -10.5,62 -23.5,143 -10,61 -23.5,132.5 Q 979,1623 958,1694 q -21,71 -53,136.5 -32,65.5 -79.5,116 Q 778,1997 712,2027 q -66,30 -155,30 -44,0 -84.5,-10 -40.5,-10 -75,-29.5 Q 363,1998 336.5,1970 310,1942 295,1906 236,1898 183,1872.5 130,1847 89,1804 48,1761 24,1700 0,1639 0,1561 q 0,-80 24,-147 24,-67 65,-121 41,-54 95.5,-94.5 54.5,-40.5 116.5,-68 62,-27.5 128,-41.5 66,-14 129,-14 z M 75,1566 q 0,62 16.5,112.5 16.5,50.5 45,88.5 28.5,38 66.5,63.5 38,25.5 80,37.5 -2,-12 -3.5,-24.5 -1.5,-12.5 -1.5,-25.5 0,-54 18.5,-96 18.5,-42 49,-71 30.5,-29 69,-44 38.5,-15 78.5,-15 50,0 81.5,29.5 31.5,29.5 31.5,77.5 0,44 -18,82.5 -18,38.5 -51.5,67 -33.5,28.5 -82,45 Q 406,1910 345,1910 q 31,33 77.5,48 46.5,15 94.5,15 70,0 123.5,-28.5 53.5,-28.5 93,-75.5 39.5,-47 67.5,-107 28,-60 49,-123.5 21,-63.5 36.5,-125.5 15.5,-62 29.5,-112 -11,-2 -25,-6.5 -14,-4.5 -30,-12.5 -9,36 -27,68 -18,32 -44,55 -26,23 -60,36.5 -34,13.5 -75,13.5 -41,0 -75.5,-12 Q 545,1531 520,1509 495,1487 480.5,1456.5 466,1426 466,1388 q 0,-28 14,-47 14,-19 33,-19 13,0 22,8.5 9,8.5 9,20.5 0,14 -5,22 -5,8 -11.5,14 -6.5,6 -11.5,13.5 -5,7.5 -5,19.5 0,23 9.5,44 9.5,21 28.5,37.5 19,16.5 47,26 28,9.5 64,9.5 36,0 66,-13 30,-13 52.5,-35.5 22.5,-22.5 38,-52.5 15.5,-30 22.5,-65 -21,-10 -41,-24.5 Q 778,1332 762.5,1314 747,1296 737,1274.5 727,1253 727,1227 q 0,-22 5.5,-42 5.5,-20 15.5,-38 -35,-20 -82.5,-31.5 Q 618,1104 558,1104 q -83,0 -168.5,31 -85.5,31 -155.5,90 -70,59 -114.5,145 Q 75,1456 75,1566 Z m 232,243 q 0,39 15,67 11,2 21,3 10,1 21,1 51,0 92.5,-13.5 41.5,-13.5 70.5,-37.5 29,-24 45,-57.5 16,-33.5 16,-73.5 0,-37 -25.5,-63 -25.5,-26 -70.5,-26 -35,0 -68,14 -33,14 -59,40 -26,26 -42,63 -16,37 -16,83 z m 659,-796 q -47,32 -86.5,73 -39.5,41 -59.5,89 50,59 50,138 0,13 -1,25 -1,12 -3,23 13,9 27,15 14,6 27,9 29,-125 54.5,-219.5 25.5,-94.5 45.5,-157.5 9,-27 20,-38 l 13,-13 q -1,1 -22,13 -21,12 -65,43 z m -160,234 q 0,32 10,55 10,23 27,40 1,-8 1.5,-16 0.5,-8 0.5,-16 0,-61 -34,-107 -5,23 -5,44 z"></path></svg>
