<?xml version="1.0" encoding="UTF-8" standalone="no"?>
<svg xmlns="http://www.w3.org/2000/svg" width="4558" height="2057"><path id="path515" d="m 1129,1533 q 0,-56 -39,-91.5 -39,-35.5 -108,-35.5 -66,0 -130.5,16.5 -64.5,16.5 -128,41 -63.5,24.5 -128,53 -64.5,28.5 -131,53 -66.5,24.5 -137,41 Q 257,1627 182,1627 136,1627 101.5,1614.5 67,1602 44.5,1582 22,1562 11,1535.5 0,1509 0,1480 q 0,-39 15,-69 15,-30 38,-50 23,-20 51.5,-30.5 28.5,-10.5 55.5,-10.5 21,0 37,7 16,7 16,20 0,12 -7,19.5 -7,7.5 -20,7.5 -9,0 -14,-4.5 -5,-4.5 -9.5,-10 -4.5,-5.5 -9.5,-10 -5,-4.5 -15,-4.5 -17,0 -38,8.5 -21,8.5 -39,26 -18,17.5 -30.5,43.5 -12.5,26 -12.5,60 0,26 11,49 11,23 32.5,40 21.5,17 53.5,27 32,10 74,10 72,0 141,-19.5 69,-19.5 135.5,-48.5 66.5,-29 132,-63.5 Q 663,1443 728,1414 793,1385 858.5,1365.5 924,1346 992,1346 q 40,0 71,12.5 31,12.5 52.5,34.5 21.5,22 32.5,52 11,30 11,65 0,49 -19.5,109 -19.5,60 -51.5,120.5 -32,60.5 -74,118 -42,57.5 -87,101.5 -45,44 -90,71 -45,27 -84,27 -13,0 -25.5,-2 -12.5,-2 -22,-7.5 -9.5,-5.5 -15.5,-15.5 -6,-10 -6,-25 0,-16 8.5,-35.5 8.5,-19.5 18.5,-38.5 10,-19 18.5,-37 8.5,-18 8.5,-33 0,-9 -9,-9 -4,0 -10,3.5 -6,3.5 -12,8.5 -7,5 -15,12 l -7,-9 q 6,-5 17.5,-14.5 11.5,-9.5 25,-19 13.5,-9.5 28,-16.5 14.5,-7 26.5,-7 21,0 33.5,10 12.5,10 12.5,24 0,16 -8,35.5 -8,19.5 -18,40.5 -10,21 -18,40.5 -8,19.5 -8,35.5 0,13 5,17.5 5,4.5 12,4.5 27,0 62.5,-24.5 35.5,-24.5 72.5,-64 37,-39.5 73.5,-91 36.5,-51.5 64.5,-105.5 28,-54 45.5,-106.5 17.5,-52.5 17.5,-95.5 z m -331,223 q -38,0 -64,-21.5 -26,-21.5 -26,-53.5 0,-12 6.5,-20.5 6.5,-8.5 18.5,-8.5 8,0 13.5,5.5 5.5,5.5 5.5,13.5 0,11 -4.5,15 -4.5,4 -4.5,12 0,16 15,29.5 15,13.5 42,13.5 29,0 50.5,-15.5 21.5,-15.5 21.5,-40.5 0,-16 7.5,-24.5 7.5,-8.5 17.5,-8.5 8,0 13,5.5 5,5.5 5,13.5 0,11 -9,25.5 -9,14.5 -25,27.5 -16,13 -37,22.5 -21,9.5 -46,9.5 z"></path></svg>
