<?xml version="1.0" encoding="UTF-8" standalone="no"?>
<svg xmlns="http://www.w3.org/2000/svg" width="4558" height="2057"><path id="path307" d="m 105,1859 q 5,-19 13.5,-50 8.5,-31 16.5,-64 8,-33 13.5,-64 5.5,-31 5.5,-51 0,-28 -5,-56 -20,14 -39.5,22.5 Q 90,1605 70,1605 35,1605 17.5,1587 0,1569 0,1542 q 0,-26 21,-41.5 21,-15.5 46,-15.5 33,0 53.5,14 20.5,14 31.5,37 24,-15 48,-35.5 24,-20.5 50.5,-42 26.5,-21.5 55,-43 28.5,-21.5 61.5,-38 33,-16.5 70.5,-27 37.5,-10.5 81.5,-10.5 37,0 72,9 35,9 62.5,28.5 27.5,19.5 44,51 16.5,31.5 16.5,76.5 0,38 -14,73 -14,35 -38,62 -24,27 -56.5,43 -32.5,16 -69.5,16 -66,0 -104.5,-34.5 Q 393,1630 393,1579 q 0,-22 8.5,-40.5 8.5,-18.5 22,-32.5 13.5,-14 31,-22 17.5,-8 35.5,-8 32,0 50.5,16.5 18.5,16.5 18.5,44.5 0,23 -9,40 -9,17 -24,17 -22,0 -22,-19 0,-8 5,-13.5 5,-5.5 11.5,-10.5 6.5,-5 11.5,-10.5 5,-5.5 5,-13.5 0,-39 -46,-39 -17,0 -32,7.5 -15,7.5 -26,20 -11,12.5 -18,28.5 -7,16 -7,32 0,45 33,71 33,26 92,26 31,0 57,-13.5 26,-13.5 44.5,-36.5 18.5,-23 28.5,-53.5 10,-30.5 10,-65.5 0,-36 -13.5,-63 -13.5,-27 -36,-45.5 -22.5,-18.5 -53,-28 -30.5,-9.5 -64.5,-9.5 -58,0 -106,22 -48,22 -90,54 -42,32 -78,67.5 -36,35.5 -70,62.5 6,20 8,42.5 2,22.5 2,43.5 5,-18 15.5,-29 10.5,-11 24.5,-17 10,-4 18.5,-7 8.5,-3 17.5,-7 9,-4 20,-8.5 11,-4.5 26,-12.5 l 5,10 q -7,5 -14,12 -6,6 -13.5,15.5 -7.5,9.5 -14.5,22.5 -17,32 -35.5,93.5 Q 203,1784 183,1859 q 9,-10 22,-18.5 13,-8.5 27,-15.5 14,-7 27.5,-11 13.5,-4 24.5,-4 27,0 50,18.5 23,18.5 23,59.5 0,31 -12,61.5 -12,30.5 -32,54.5 -20,24 -47,38.5 -27,14.5 -57,14.5 -36,0 -56,-16 -20,-16 -27,-33 -17,18 -31.5,27.5 Q 80,2045 67,2050 q -13,5 -23,6 -10,1 -17,1 v -7 q 14,-6 24,-22.5 10,-16.5 18.5,-41.5 8.5,-25 16.5,-57 8,-32 19,-70 z m 142,-20 q -6,0 -16.5,4.5 -10.5,4.5 -22,13.5 -11.5,9 -22.5,22.5 -11,13.5 -17,31.5 -3,7 -6.5,18.5 -3.5,11.5 -7,23.5 -3.5,12 -6,23 -2.5,11 -2.5,16 0,24 14,32.5 14,8.5 27,8.5 16,0 30.5,-15.5 14.5,-15.5 26,-39 11.5,-23.5 18,-50 6.5,-26.5 6.5,-49.5 0,-40 -22,-40 z M 70,1564 q 18,0 35,-5.5 17,-5.5 34,-14.5 -10,-22 -27,-34.5 -17,-12.5 -45,-12.5 -22,0 -35,11 -13,11 -13,26 0,14 12.5,22 12.5,8 38.5,8 z"></path></svg>
