<?xml version="1.0" encoding="UTF-8" standalone="no"?>
<svg xmlns="http://www.w3.org/2000/svg" width="4558" height="2057"><path id="path464" d="m 363,1789 q -11,62 -27.5,111.5 -16.5,49.5 -41,84 -24.5,34.5 -59,53.5 -34.5,19 -82.5,19 -69,0 -111,-36.5 Q 0,1984 0,1927 q 0,-29 12,-48.5 12,-19.5 31,-19.5 14,0 23,9 9,9 9,22 0,12 -6,20 -6,8 -12.5,15 -6.5,7 -12.5,14.5 -6,7.5 -6,17.5 0,33 23.5,50 23.5,17 59.5,17 29,0 52,-18.5 23,-18.5 42,-49 19,-30.5 34,-70.5 15,-40 27,-82.5 12,-42.5 22,-84.5 10,-42 20,-77 -7,10 -18,22 -11,12 -24.5,22 -13.5,10 -28.5,17 -15,7 -29,7 -37,0 -59.5,-21.5 Q 136,1667 136,1633 q 0,-36 16.5,-67 16.5,-31 41,-54.5 24.5,-23.5 53.5,-37 29,-13.5 54,-13.5 29,0 44,13 15,13 17,33 5,-15 18,-25 13,-10 39,-14 12,-2 21,-4.5 9,-2.5 15,-5.5 7,-4 12,-7 l 6,12 q -6,5 -12,11 -5,5 -12.5,13 -7.5,8 -14.5,19 -14,23 -21,43.5 -7,20.5 -13,45.5 -9,35 -18.5,87.5 Q 372,1735 363,1789 Z M 251,1678 q 17,0 39,-22 22,-22 36,-51 3,-7 7,-19 4,-12 7,-24.5 3,-12.5 5,-23.5 2,-11 2,-17 0,-18 -8,-30 -8,-12 -28,-12 -18,0 -34,14 -16,14 -27.5,36 -11.5,22 -18,47.5 -6.5,25.5 -6.5,47.5 0,54 26,54 z"></path></svg>
