<?xml version="1.0" encoding="UTF-8" standalone="no"?>
<svg xmlns="http://www.w3.org/2000/svg" width="4558" height="2057"><path id="path488" d="m 274,1578 q -10,5 -19,11 -8,5 -16,13.5 -8,8.5 -14,20.5 -4,8 -9.5,24 -5.5,16 -12,36 -6.5,20 -13.5,43 l -14,46 q -16,54 -33,116 15,-18 34,-33.5 19,-15.5 38,-27 19,-11.5 37,-18 18,-6.5 32,-6.5 18,0 32,9 14,9 14,30 0,18 -7,36 -7,18 -15.5,36 -8.5,18 -15.5,37 -7,19 -7,39 0,13 5,17 5,4 10,4 7,0 15,-4.5 8,-4.5 16,-10.5 9,-6 17,-15 l 8,8 q -16,18 -33,31 -15,12 -33,21.5 -18,9.5 -36,9.5 -23,0 -41.5,-10.5 Q 194,2030 194,2003 q 0,-20 8.5,-39.5 8.5,-19.5 19,-38.5 10.5,-19 19,-36 8.5,-17 8.5,-31 0,-15 -11,-15 -11,0 -36,14 -25,14 -56,52 -10,12 -18,31.5 -8,19.5 -14,39.5 -6,20 -9,36.5 -3,16.5 -3,21.5 0,15 -14,15 -8,0 -21,-2 -13,-2 -26,-2 -14,0 -24,4 -10,4 -13,4 -4,0 -4,-4 0,-3 6,-9 6,-6 12,-18 12,-21 20,-50 8,-29 20,-74 10,-37 20.5,-76.5 10.5,-39.5 19.5,-74 9,-34.5 15.5,-59.5 6.5,-25 9.5,-34 7,-22 18.5,-35.5 11.5,-13.5 25.5,-22.5 -3,1 -7,1 h -7 q -7,0 -12,-1 l -10,-2 q 0,0 -9,-2 l 9,-12 8,2 q 10,2 21,2 17,0 43,-4 26,-4 58,-20 32,-16 69,-43 37,-27 68.5,-65 31.5,-38 52.5,-86 21,-48 21,-105 0,-34 -10.5,-60 -10.5,-26 -28,-43 -17.5,-17 -41.5,-26 -24,-9 -51,-9 -33,0 -62.5,11.5 -29.5,11.5 -52,31.5 -22.5,20 -35.5,46.5 -13,26.5 -13,56.5 0,46 23,69.5 23,23.5 55,23.5 22,0 33.5,-10.5 11.5,-10.5 11.5,-25.5 0,-11 6,-17.5 6,-6.5 15,-6.5 23,0 23,22 0,8 -7,17.5 -7,9.5 -18.5,17.5 -11.5,8 -27,13.5 -15.5,5.5 -33.5,5.5 -22,0 -43.5,-6 -21.5,-6 -38,-18 -16.5,-12 -26.5,-31 -10,-19 -10,-46 0,-35 17.5,-66 17.5,-31 47,-54.5 29.5,-23.5 67,-37 37.5,-13.5 77.5,-13.5 34,0 66.5,9 32.5,9 58,27 25.5,18 40.5,45.5 15,27.5 15,63.5 0,61 -26.5,113 -26.5,52 -65.5,93 -39,41 -83.5,71 -44.5,30 -80.5,46 z"></path></svg>
