<?xml version="1.0" encoding="UTF-8" standalone="no"?>
<svg xmlns="http://www.w3.org/2000/svg" width="4558" height="2057"><path id="path180" d="m 422,1974 q 0,-6 1.5,-13 1.5,-7 5,-13.5 3.5,-6.5 9.5,-11 6,-4.5 16,-4.5 15,0 24,11 9,11 9,25 0,12 -7,27 -7,15 -18,29 -11,14 -24,23.5 -13,9.5 -24,9.5 -9,0 -9,-7 0,-2 2.5,-4 2.5,-2 4.5,-4 7,-5 17,-15 10,-10 12,-28 -10,0 -14.5,-8 -4.5,-8 -4.5,-17 z m 159,-491 q 48,-23 87,-55 -13,-31 -28.5,-59 -15.5,-28 -29,-58 -13.5,-30 -23,-64.5 -9.5,-34.5 -9.5,-79.5 0,-49 17.5,-86 17.5,-37 45,-62 27.5,-25 60.5,-37.5 33,-12.5 64,-12.5 54,0 77,31.5 23,31.5 23,82.5 0,66 -28,141 -28,75 -80,141 20,39 34,83.5 14,44.5 14,105.5 0,69 -27,133 -27,64 -75.5,113.5 -48.5,49.5 -115,79 Q 521,1909 442,1909 365,1909 301.5,1888 238,1867 193,1828.5 148,1790 123,1737 98,1684 98,1620 98,1575 110,1535.5 122,1496 144,1462 80,1423 40,1362.5 0,1302 0,1218 0,1140 33,1083.5 66,1027 116,989.5 166,952 226.5,934 287,916 341,916 q 40,0 74,11.5 34,11.5 58.5,32.5 24.5,21 38.5,50.5 14,29.5 14,66.5 0,36 -12,67 -12,31 -32.5,53.5 -20.5,22.5 -48.5,35 -28,12.5 -61,12.5 -28,0 -52.5,-9.5 Q 295,1226 277,1210 259,1194 248.5,1173.5 238,1153 238,1130 q 0,-14 8,-27.5 8,-13.5 24,-13.5 13,0 20.5,8.5 7.5,8.5 7.5,19.5 0,8 -2.5,13.5 -2.5,5.5 -5.5,9.5 -3,4 -5.5,8 -2.5,4 -2.5,10 0,10 4.5,22 4.5,12 15.5,22 11,10 28.5,17 17.5,7 44.5,7 27,0 50.5,-10.5 Q 449,1205 467,1185 485,1165 495.5,1137.5 506,1110 506,1075 506,1047 494,1022 482,997 460.5,978 439,959 409,948.5 379,938 343,938 q -46,0 -94,17 -48,17 -87,51.5 -39,34.5 -64,87 -25,52.5 -25,122.5 0,69 25,122.5 25,53.5 70,91.5 43,-51 102.5,-79 59.5,-28 121.5,-28 92,0 140.5,43.5 Q 581,1410 581,1483 Z m -149,53 q -70,0 -138.5,-15 -68.5,-15 -126.5,-46 -37,62 -37,135 0,56 21.5,103.5 21.5,47.5 59,82.5 37.5,35 89,54.5 51.5,19.5 111.5,19.5 68,0 120.5,-28.5 52.5,-28.5 88,-74 35.5,-45.5 54,-103.5 18.5,-58 18.5,-117 0,-29 -4.5,-53 -4.5,-24 -12.5,-46 -22,17 -46,32 -24,15 -50,26 -7,64 -46.5,105 -39.5,41 -100.5,41 -35,0 -54,-12.5 -19,-12.5 -19,-28.5 0,-14 10,-24 10,-10 23,-10 11,0 18,6.5 7,6.5 13,14.5 6,8 13.5,14.5 7.5,6.5 19.5,6.5 37,0 66,-30 29,-30 38,-75 -30,11 -62,16.5 -32,5.5 -66,5.5 z m 0,-20 q 35,0 67.5,-6.5 32.5,-6.5 62.5,-18.5 0,-72 -46,-111.5 -46,-39.5 -124,-39.5 -60,0 -113.5,28.5 -53.5,28.5 -91.5,76.5 49,35 111.5,53 62.5,18 133.5,18 z m 413,-435 q 0,-36 -20,-58.5 -20,-22.5 -52,-22.5 -21,0 -38,10 -17,10 -29,27.5 -12,17.5 -18.5,40.5 -6.5,23 -6.5,49 0,35 6,64.5 6,29.5 15,56 9,26.5 21,50.5 12,24 24,47 48,-63 73,-133 25,-70 25,-131 z"></path></svg>
