<?xml version="1.0" encoding="UTF-8" standalone="no"?>
<svg xmlns="http://www.w3.org/2000/svg" width="4558" height="2057"><path id="path472" d="m 624,1419 q -19,94 -49.5,185.5 -30.5,91.5 -76,164 -45.5,72.5 -107,117 Q 330,1930 251,1930 193,1930 146.5,1912 100,1894 67.5,1862.5 35,1831 17.5,1788.5 0,1746 0,1697 q 0,-62 23,-111.5 23,-49.5 60.5,-84 37.5,-34.5 86,-52.5 48.5,-18 99.5,-18 42,0 73,10.5 31,10.5 54,27.5 31,-19 68.5,-33 37.5,-14 82.5,-22 6,-25 12.5,-52.5 6.5,-27.5 12.5,-53 6,-25.5 10.5,-47 4.5,-21.5 7.5,-35.5 -7,10 -18,22 -11,12 -24.5,22 -13.5,10 -28.5,17 -15,7 -29,7 -37,0 -59.5,-21.5 Q 408,1251 408,1217 q 0,-36 16.5,-67 16.5,-31 41,-54.5 24.5,-23.5 53.5,-37 29,-13.5 54,-13.5 29,0 44,13 15,13 17,33 5,-15 18,-25 13,-10 39,-14 12,-2 21,-4.5 9,-2.5 15,-5.5 7,-4 12,-7 l 6,12 q -6,5 -12,11 -5,5 -12.5,13 -7.5,8 -14.5,19 -14,23 -21,43.5 -7,20.5 -13,45.5 -4,16 -10,43.5 -6,27.5 -12,59 -6,31.5 -12.5,64.5 -6.5,33 -10.5,60 78,0 154.5,18.5 76.5,18.5 136.5,58 60,39.5 97.5,101 37.5,61.5 37.5,147.5 0,76 -25,136.5 -25,60.5 -66,102.5 -41,42 -94.5,64.5 Q 814,2057 756,2057 q -45,0 -81.5,-13.5 -36.5,-13.5 -62.5,-36 -26,-22.5 -40,-52 -14,-29.5 -14,-61.5 0,-33 11,-60.5 11,-27.5 30.5,-48 19.5,-20.5 45.5,-32 26,-11.5 56,-11.5 44,0 67,24 23,24 23,54 0,10 -5,19.5 -5,9.5 -16,9.5 -20,0 -20,-19 0,-11 6,-17 6,-6 6,-15 0,-4 -3,-11.5 -3,-7.5 -10,-14.5 -7,-7 -19,-12 -12,-5 -30,-5 -27,0 -50,11 -23,11 -39.5,29.5 -16.5,18.5 -26,43.5 -9.5,25 -9.5,52 0,63 46.5,100 46.5,37 123.5,37 47,0 89.5,-21 42.5,-21 74,-60 31.5,-39 50,-93.5 Q 977,1799 977,1732 q 0,-76 -27,-134 -27,-58 -74,-98 -47,-40 -112,-60.5 Q 699,1419 624,1419 Z m -399,451 q 46,0 83.5,-18 37.5,-18 68.5,-49.5 31,-31.5 56,-74 25,-42.5 45,-91.5 20,-49 36,-102.5 16,-53.5 29,-106.5 -39,9 -71.5,23.5 -32.5,14.5 -58.5,33.5 31,34 31,79 0,51 -23,79 -23,28 -56,28 -29,0 -49,-17.5 -20,-17.5 -20,-46.5 0,-33 22.5,-66.5 22.5,-33.5 62.5,-61.5 -21,-15 -49,-24 -28,-9 -63,-9 -48,0 -92.5,17.5 -44.5,17.5 -78.5,49 -34,31.5 -54.5,77 Q 23,1635 23,1690 q 0,39 15.5,72 15.5,33 43,57 27.5,24 64.5,37.5 37,13.5 79,13.5 z m 298,-608 q 17,0 39,-22 22,-22 36,-51 3,-7 7,-19 4,-12 7,-24.5 3,-12.5 5,-23.5 2,-11 2,-17 0,-18 -8,-30 -8,-12 -28,-12 -18,0 -34,14 -16,14 -27.5,36 -11.5,22 -18,47.5 -6.5,25.5 -6.5,47.5 0,54 26,54 z m -94,302 q 0,-36 -30,-69 -30,25 -46.5,53.5 -16.5,28.5 -16.5,56.5 0,46 40,46 17,0 35,-22 18,-22 18,-65 z"></path></svg>
