<?xml version="1.0" encoding="UTF-8" standalone="no"?>
<svg xmlns="http://www.w3.org/2000/svg" width="4558" height="2057"><path id="path742" d="m 643,1413 q -20,0 -43.5,21 -23.5,21 -37.5,50 -3,7 -7.5,18.5 -4.5,11.5 -8.5,23.5 -4,12 -6.5,22.5 -2.5,10.5 -2.5,16.5 0,25 12.5,33.5 12.5,8.5 23.5,8.5 19,0 35.5,-12.5 16.5,-12.5 28.5,-33.5 12,-21 19,-49 7,-28 7,-60 0,-21 -6,-30 -6,-9 -14,-9 z m -477,591 q 37,0 66.5,-11 29.5,-11 53.5,-31 24,-20 42.5,-47 18.5,-27 35.5,-60 19,-39 34.5,-80.5 15.5,-41.5 27.5,-82 12,-40.5 21.5,-77.5 9.5,-37 17.5,-66 14,-54 21,-78.5 7,-24.5 7,-33.5 0,-5 -1.5,-8.5 -1.5,-3.5 -6.5,-3.5 -4,0 -10,4.5 -6,4.5 -13,9.5 -8,6 -16,13 l -7,-9 q 6,-6 17.5,-15.5 11.5,-9.5 25,-19 13.5,-9.5 28,-16.5 14.5,-7 26.5,-7 18,0 30,8.5 12,8.5 12,22.5 0,7 -2,15 -1,4 -2,6 20,-23 50,-37.5 30,-14.5 54,-14.5 27,0 49.5,16 22.5,16 22.5,51 0,38 -14.5,71 -14.5,33 -37,57 -22.5,24 -50,38 -27.5,14 -52.5,14 -28,0 -44.5,-10 -16.5,-10 -26.5,-26 -13,41 -21.5,75 -8.5,34 -17,66 -8.5,32 -20,66.5 Q 455,1838 437,1880 422,1915 400.5,1946.5 379,1978 349,2003 319,2028 279.5,2042.5 240,2057 190,2057 140,2057 104,2042 68,2027 45,2002.5 22,1978 11,1947.5 0,1917 0,1887 q 0,-40 14,-70.5 14,-30.5 35.5,-51 21.5,-20.5 48,-30.5 26.5,-10 50.5,-10 39,0 63.5,18 24.5,18 24.5,57 0,38 -21,59.5 -21,21.5 -47,21.5 -17,0 -29.5,-7.5 Q 126,1866 126,1852 q 0,-9 7,-17 7,-8 18,-8 9,0 13.5,4.5 4.5,4.5 7.5,12.5 3,8 6,10 3,2 6,2 9,0 24,-13 15,-13 15,-43 0,-33 -21,-48 -21,-15 -53,-15 -23,0 -45,9.5 -22,9.5 -39,27 -17,17.5 -27,42 -10,24.5 -10,55.5 0,21 6.5,44.5 6.5,23.5 22.5,43 16,19.5 42.5,32.5 26.5,13 66.5,13 z"></path></svg>
