<?xml version="1.0" encoding="UTF-8" standalone="no"?>
<svg xmlns="http://www.w3.org/2000/svg" width="4558" height="2057"><path id="path165" d="m 84,1323 q 34,0 68,9.5 34,9.5 69,26 35,16.5 70,39 35,22.5 71,47.5 69,-26 131.5,-72 62.5,-46 108.5,-106 74,-95 111.5,-205 37.5,-110 37.5,-223 0,-72 -34,-116 -34,-44 -94,-44 -43,0 -81,21 -38,21 -70,56.5 -32,35.5 -57,82 -25,46.5 -42.5,97.5 -17.5,51 -27,103.5 -9.5,52.5 -9.5,99.5 0,29 4.5,56 4.5,27 15,47.5 10.5,20.5 28,33 17.5,12.5 44.5,12.5 19,0 38.5,-11.5 19.5,-11.5 35.5,-31.5 16,-20 26,-47 10,-27 10,-57 0,-35 -13.5,-49.5 Q 511,1077 485,1077 q -21,0 -30,9.5 -9,9.5 -9,20.5 0,6 2,9.5 2,3.5 5,6 3,2.5 5,6 2,3.5 2,10.5 0,9 -6.5,15 -6.5,6 -16.5,6 -11,0 -17.5,-8.5 -6.5,-8.5 -6.5,-21.5 0,-13 5.5,-25 5.5,-12 15.5,-22 10,-10 22.5,-16 12.5,-6 27.5,-6 32,0 55.5,19.5 23.5,19.5 23.5,61.5 0,35 -14,68 -14,33 -37,58.5 -23,25.5 -53.5,41 -30.5,15.5 -64.5,15.5 -28,0 -60,-10.5 -32,-10.5 -59,-34 -27,-23.5 -45,-61 -18,-37.5 -18,-91.5 0,-52 16,-107.5 Q 244,965 273.5,912 303,859 344,811.5 385,764 434.5,728.5 484,693 541,672 q 57,-21 119,-21 44,0 80.5,13.5 36.5,13.5 63,38.5 26.5,25 41,59.5 14.5,34.5 14.5,76.5 0,61 -13.5,122.5 -13.5,61.5 -39,119.5 -25.5,58 -63,111 -37.5,53 -85.5,98 -57,53 -126,98.5 -69,45.5 -145,74.5 13,9 25.5,18.5 12.5,9.5 25.5,19.5 70,-40 145,-60 75,-20 136,-20 67,0 120,13 53,13 89.5,36.5 36.5,23.5 55.5,56 19,32.5 19,71.5 0,33 -13,65.5 -13,32.5 -37,57.5 -24,25 -57,40.5 -33,15.5 -72,15.5 -52,0 -102,-19 -50,-19 -98.5,-50 -48.5,-31 -95.5,-71 -47,-40 -93,-81 -51,47 -83,108.5 -32,61.5 -32,136.5 0,57 16.5,100 16.5,43 45,72 28.5,29 67,43.5 38.5,14.5 82.5,14.5 30,0 58.5,-10 28.5,-10 51,-28 22.5,-18 36,-42.5 13.5,-24.5 13.5,-54.5 0,-23 -6.5,-38.5 -6.5,-15.5 -17,-25 -10.5,-9.5 -24,-13.5 -13.5,-4 -26.5,-4 -12,0 -18,7 -6,7 -10.5,16 -4.5,9 -10,16 -5.5,7 -16.5,7 -23,0 -23,-23 0,-14 21.5,-27.5 21.5,-13.5 50.5,-13.5 18,0 35.5,5.5 17.5,5.5 31,17.5 13.5,12 22,31 8.5,19 8.5,46 0,35 -14.5,64 -14.5,29 -40,50.5 -25.5,21.5 -60,33.5 -34.5,12 -75.5,12 -46,0 -96.5,-15.5 -50.5,-15.5 -93,-47 Q 285,1963 257,1915.5 229,1868 229,1805 q 0,-45 13,-85.5 13,-40.5 36,-75.5 23,-35 54.5,-65 31.5,-30 67.5,-54 -14,-13 -27,-24.5 -13,-11.5 -27,-23.5 -37,11 -74,17.5 -37,6.5 -74,6.5 -32,0 -66.5,-8 -34.5,-8 -64,-22.5 Q 38,1456 19,1435.5 0,1415 0,1389 0,1361 24.5,1342 49,1323 84,1323 Z m 635,115 q -59,0 -124,23 -65,23 -123,65 43,32 86.5,61 43.5,29 87.5,51.5 44,22.5 88,36 44,13.5 88,13.5 30,0 56.5,-6 26.5,-6 46.5,-19 20,-13 32,-34 12,-21 12,-51 0,-28 -15.5,-53 -15.5,-25 -47,-44.5 Q 875,1461 828,1449.5 781,1438 719,1438 Z m -505,38 q 26,0 54,-5 28,-5 56,-13 -58,-49 -113.5,-81 -55.5,-32 -108.5,-32 -14,0 -26,11 -12,11 -12,31 0,18 11,34 11,16 30.5,28 19.5,12 47.5,19.5 28,7.5 61,7.5 z"></path></svg>
