<?xml version="1.0" encoding="UTF-8" standalone="no"?>
<svg xmlns="http://www.w3.org/2000/svg" width="4558" height="2057"><path id="path447" d="m 841,1107 q -15,94 -39,201 -24,107 -59,212.5 -35,105.5 -83,202.5 -48,97 -111,171.5 -63,74.5 -142,118.5 -79,44 -177,44 -53,0 -95.5,-15 Q 92,2027 62,2001 32,1975 16,1940 0,1905 0,1865 q 0,-61 30,-114 30,-53 75.5,-91.5 45.5,-38.5 100,-60.5 54.5,-22 104.5,-22 54,0 87,26 33,26 33,72 0,29 -11,54 -11,25 -29.5,44 -18.5,19 -42,29.5 -23.5,10.5 -48.5,10.5 -27,0 -44,-11 -17,-11 -17,-25 0,-11 7.5,-17.5 7.5,-6.5 15.5,-6.5 12,0 18,6 6,6 10.5,12.5 4.5,6.5 9.5,12.5 5,6 16,6 16,0 34,-8.5 18,-8.5 32,-24 14,-15.5 23.5,-36.5 9.5,-21 9.5,-45 0,-40 -29.5,-62 -29.5,-22 -74.5,-22 -49,0 -97.5,21 -48.5,21 -86.5,55.5 -38,34.5 -62,80 -24,45.5 -24,93.5 0,69 44.5,108 44.5,39 122.5,39 83,0 151,-42 68,-42 124,-111.5 56,-69.5 99.5,-160.5 43.5,-91 77.5,-189 34,-98 58.5,-196 24.5,-98 41.5,-183 h -22 l 9,-17 h 17 q 3,-13 7,-28 3,-13 7.5,-28.5 4.5,-15.5 9.5,-32.5 9,-30 25,-51 16,-21 34.5,-34 18.5,-13 37.5,-19 19,-6 35,-6 31,0 48,16 17,16 17,34 0,17 -10,31 -10,14 -31,14 -15,0 -23.5,-7.5 Q 911,971 911,960 q 0,-16 9.5,-24.5 9.5,-8.5 9.5,-17.5 0,-12 -9,-12 -22,0 -34.5,26 -12.5,26 -24.5,76 -3,11 -6,25 -3,14 -5,27 l -6,30 h 68 l -10,17 z"></path></svg>
