<?xml version="1.0" encoding="UTF-8" standalone="no"?>
<svg xmlns="http://www.w3.org/2000/svg" width="4558" height="2057"><path id="path409" d="m 157,2035 q 39,0 85,-14 46,-14 91.5,-40 45.5,-26 87.5,-63 42,-37 74.5,-84 32.5,-47 52,-101.5 Q 567,1678 567,1616 q 0,-90 -46,-137.5 -46,-47.5 -132,-47.5 -41,0 -76.5,14.5 -35.5,14.5 -62,39 -26.5,24.5 -42,57 -15.5,32.5 -15.5,69.5 0,33 11,56.5 11,23.5 29,39 18,15.5 40,22.5 22,7 44,7 50,0 74,-23 24,-23 24,-47 0,-6 -2.5,-9.5 -2.5,-3.5 -5,-7.5 -2.5,-4 -5,-9 -2.5,-5 -2.5,-13 0,-13 8,-21.5 8,-8.5 21,-8.5 17,0 24,10.5 7,10.5 7,26.5 0,23 -12,44 -12,21 -31.5,37 -19.5,16 -45,26 -25.5,10 -53.5,10 -29,0 -54.5,-8.5 -25.5,-8.5 -45,-26 -19.5,-17.5 -31,-43 Q 176,1648 176,1613 q 0,-40 17.5,-78 17.5,-38 48.5,-67 31,-29 74,-46.5 43,-17.5 94,-17.5 43,0 83.5,11.5 40.5,11.5 71,37 30.5,25.5 49,65 18.5,39.5 18.5,96.5 0,57 -24,112.5 -24,55.5 -63.5,104.5 -39.5,49 -91.5,90.5 -52,41.5 -108,71.5 -56,30 -113,47 -57,17 -106,17 -17,0 -39,-1.5 -22,-1.5 -41.5,-9 Q 26,2039 13,2023 0,2007 0,1978 q 0,-36 17,-66.5 17,-30.5 42,-53 25,-22.5 54.5,-35 29.5,-12.5 53.5,-12.5 30,0 50,12 20,12 20,33 0,20 -10,36 -10,16 -25.5,27 -15.5,11 -34.5,17.5 -19,6.5 -38,6.5 -8,0 -14,-2 -6,-2 -6,-7 0,-5 5,-5 14,0 27,-8 13,-8 22.5,-20.5 9.5,-12.5 15,-28.5 5.5,-16 5.5,-32 0,-13 -11,-13 -14,0 -29,13 -15,13 -27,33.5 -12,20.5 -20,45 -8,24.5 -8,47.5 0,34 18.5,51.5 18.5,17.5 49.5,17.5 z m -16,-294 q -5,0 -15,6 -10,6 -41,23 -23,13 -34.5,19 -11.5,6 -16.5,6 -7,0 -7,-6 0,-4 10,-10 12,-7 20.5,-13 8.5,-6 16,-12 7.5,-6 14.5,-13.5 7,-7.5 16,-17.5 14,-15 22.5,-25.5 8.5,-10.5 25.5,-10.5 18,0 22,10.5 4,10.5 11,25.5 l 8.5,17 q 0,0 7.5,13 7.5,13 9.5,12 2,-1 14.5,15 5,5 5,9 0,6 -8,6 -4,0 -16,-7 -12,-7 -26,-19 -21,-18 -27.5,-23 -6.5,-5 -11.5,-5 z"></path></svg>
