<?xml version="1.0" encoding="UTF-8" standalone="no"?>
<svg xmlns="http://www.w3.org/2000/svg" width="4558" height="2057"><path id="path448" d="m 644,1154 q -3,18 -10,57.5 -7,39.5 -16.5,89.5 -9.5,50 -20.5,105 -11,55 -23,106 57,1 105.5,12 48.5,11 83,33.5 34.5,22.5 54,56.5 19.5,34 19.5,82 0,29 -12.5,47 -12.5,18 -26.5,18 -11,0 -18.5,-7 -7.5,-7 -7.5,-18 0,-10 5.5,-15.5 5.5,-5.5 12,-11 6.5,-5.5 12,-13.5 5.5,-8 5.5,-23 0,-33 -17,-59.5 Q 772,1587 741.5,1568 711,1549 667.5,1538.5 624,1528 571,1527 539,1654 495.5,1753 452,1852 399,1919.5 346,1987 283,2022 220,2057 149,2057 74,2057 37,2017 0,1977 0,1917 0,1852 39,1786.5 78,1721 143.5,1666 209,1611 296,1571.5 383,1532 479,1518 q 13,-45 25.5,-100 12.5,-55 24,-107 11.5,-52 20,-94.5 Q 557,1174 562,1154 h -22 l 9,-17 h 17 q 3,-13 7,-28 3,-13 7.5,-28.5 4.5,-15.5 9.5,-32.5 9,-30 25,-51 16,-21 34.5,-34 18.5,-13 37.5,-19 19,-6 35,-6 31,0 48,16 17,16 17,34 0,17 -10,31 -10,14 -31,14 -15,0 -23.5,-7.5 -8.5,-7.5 -8.5,-18.5 0,-16 9.5,-24.5 9.5,-8.5 9.5,-17.5 0,-12 -9,-12 -22,0 -34.5,26 -12.5,26 -24.5,76 -3,11 -6,25 -3,14 -5,27 l -6,30 h 68 l -10,17 z m -169,380 q -90,14 -170.5,53.5 Q 224,1627 162.5,1680 101,1733 65,1794.5 29,1856 29,1914 q 0,32 22,54 22,22 66,22 58,0 108.5,-32 50.5,-32 94,-91.5 43.5,-59.5 82,-144 Q 440,1638 475,1534 Z"></path></svg>
