<?xml version="1.0" encoding="UTF-8" standalone="no"?>
<svg xmlns="http://www.w3.org/2000/svg" width="4558" height="2057"><path id="path624" d="m 788,1360 q 0,18 -9.5,46 -9.5,28 -20.5,65 -11,37 -20.5,83 -9.5,46 -9.5,101 0,88 26,152 53,-22 105,-43 52,-21 105,-37 53,-16 107,-25.5 54,-9.5 111,-9.5 36,0 71,7.5 35,7.5 62.5,25.5 27.5,18 44,48 16.5,30 16.5,74 0,42 -19,80 -19,38 -55,67 -36,29 -88.5,46 -52.5,17 -119.5,17 -50,0 -105.5,-9.5 -55.5,-9.5 -109.5,-32 -54,-22.5 -101,-60 -47,-37.5 -78,-92.5 -63,30 -124.5,59 -61.5,29 -121.5,51.5 -60,22.5 -117,36.5 -57,14 -111,14 -62,0 -105,-23 Q 78,1978 51,1942.5 24,1907 12,1865.5 0,1824 0,1786 q 0,-9 1.5,-15 1.5,-6 6.5,-6 5,0 6,5.5 1,5.5 2,11.5 9,73 62.5,118 53.5,45 151.5,45 64,0 124,-9 60,-9 116.5,-24.5 56.5,-15.5 110,-35.5 53.5,-20 105.5,-41 -16,-35 -24.5,-76.5 -8.5,-41.5 -8.5,-91.5 0,-58 8.5,-105 8.5,-47 19,-83.5 10.5,-36.5 19,-62.5 8.5,-26 8.5,-41 0,-16 -12,-16 -10,0 -32,12 -22,12 -52,49 -8,9 -15.5,29 -7.5,20 -14.5,41 -7,21 -11,39 -4,18 -4,24 0,8 -7,11 -7,3 -14,3 -8,0 -17,-1.5 -9,-1.5 -21,-1.5 -10,0 -19.5,3 -9.5,3 -12.5,3 -5,0 -5,-6 0,-4 5,-7 5,-3 10,-14 8,-20 16,-45 8,-25 14,-48.5 6,-23.5 10,-43.5 4,-20 4,-31 0,-19 -12,-19 -7,0 -24,11.5 -17,11.5 -46,48.5 -8,9 -16,29.5 -8,20.5 -15,42.5 -7,22 -11.5,40.5 -4.5,18.5 -4.5,24.5 0,14 -22,14 -7,0 -16,-1.5 -9,-1.5 -23,-1.5 -14,0 -24.5,4 -10.5,4 -13.5,4 -4,0 -4,-6 0,-4 6.5,-8.5 6.5,-4.5 11.5,-15.5 9,-19 18,-44 9,-25 17,-50 8,-25 13,-45.5 5,-20.5 5,-29.5 0,-13 -8,-13 -4,0 -10.5,4.5 -6.5,4.5 -13.5,9.5 -8,6 -16,13 l -8,-9 q 6,-6 17.5,-15.5 11.5,-9.5 25,-18.5 13.5,-9 27.5,-15.5 14,-6.5 26,-6.5 18,0 30.5,8.5 12.5,8.5 12.5,23.5 0,15 -3.5,28.5 -3.5,13.5 -5.5,17.5 26,-33 56.5,-55.5 30.5,-22.5 59.5,-22.5 21,0 36,10.5 15,10.5 15,27.5 0,18 -4,32.5 -4,14.5 -6,18.5 15,-20 33.5,-36.5 18.5,-16.5 37,-28 18.5,-11.5 37,-18 18.5,-6.5 33.5,-6.5 17,0 32,10.5 15,10.5 15,27.5 z m 396,349 q -50,0 -102,10 -52,10 -104.5,27 -52.5,17 -105.5,39 -53,22 -106,47 25,50 64,84 39,34 85.5,54 46.5,20 97,28.5 50.5,8.5 99.5,8.5 54,0 98.5,-12.5 44.5,-12.5 76,-35 31.5,-22.5 48.5,-54.5 17,-32 17,-71 0,-36 -14.5,-60 -14.5,-24 -38,-38.5 -23.5,-14.5 -54,-20.5 -30.5,-6 -61.5,-6 z"></path></svg>
