<?xml version="1.0" encoding="UTF-8" standalone="no"?>
<svg xmlns="http://www.w3.org/2000/svg" width="4558" height="2057"><path id="path850" d="m 404,1783 q -38,0 -69.5,-9.5 -31.5,-9.5 -60,-22.5 -28.5,-13 -56,-25.5 Q 191,1713 161,1707 q -15,45 -28,86 -13,41 -23,77 -10,36 -16,65 -6,29 -6,48 0,19 6,26.5 6,7.5 18,7.5 11,0 21,-4.5 10,-4.5 18,-9.5 9,-6 16,-15 l 7,8 q -16,18 -34,31 -15,11 -33.5,20.5 Q 88,2057 70,2057 41,2057 20.5,2040 0,2023 0,1997 0,1972 7.5,1940 15,1908 27,1871.5 39,1835 53,1794 q 14,-41 26,-84 -17,5 -29,13.5 -12,8.5 -19,13.5 -7,5 -10,5 -6,0 -6,-6 0,-4 7,-11 8,-8 23.5,-17.5 Q 61,1698 85,1690 96,1659 116.5,1643.5 137,1628 163,1621 q 17,-4 27.5,-8 10.5,-4 16.5,-6 7,-3 11,-5 l 6,12 q -7,4 -14,10 -6,5 -13.5,14 -7.5,9 -13.5,20 l -12,24 q 30,3 56.5,9.5 26.5,6.5 55,14 28.5,7.5 62,13 33.5,5.5 76.5,5.5 50,0 74,-18.5 24,-18.5 30,-37.5 2,-7 6,-7 6,0 6,6 0,17 -10.5,37 -10.5,20 -28.5,37.5 -18,17.5 -42,29.5 -24,12 -52,12 z"></path></svg>
