<?xml version="1.0" encoding="UTF-8" standalone="no"?>
<svg xmlns="http://www.w3.org/2000/svg" width="4558" height="2057"><path id="path473" d="m 583,2002 q 99,0 178.5,-48.5 79.5,-48.5 142,-131.5 62.5,-83 109.5,-194.5 47,-111.5 82,-236.5 11,-38 20.5,-84.5 9.5,-46.5 17.5,-87.5 -7,10 -18,22 -11,12 -24.5,22 -13.5,10 -28.5,17 -15,7 -29,7 -37,0 -59.5,-21.5 Q 951,1244 951,1210 q 0,-36 16.5,-67 16.5,-31 41,-54.5 24.5,-23.5 53.5,-37 29,-13.5 54,-13.5 29,0 44,13 15,13 17,33 5,-15 18,-25 13,-10 39,-14 12,-2 21,-4.5 9,-2.5 15,-5.5 7,-4 12,-7 l 6,12 q -6,5 -12,11 -5,5 -12.5,13 -7.5,8 -14.5,19 -14,23 -21,43.5 -7,20.5 -13,45.5 -5,17 -9.5,44.5 -4.5,27.5 -9,58.5 -4.5,31 -9,63 -4.5,32 -9.5,59 -28,149 -77.5,270.5 -49.5,121.5 -121,208 Q 908,1962 814,2009.5 720,2057 603,2057 532,2057 472.5,2035.5 413,2014 371,1972 q -8,1 -16.5,1 H 338 q -75,0 -137,-18 Q 139,1937 94.5,1904.5 50,1872 25,1827 0,1782 0,1728 q 0,-45 16,-80 16,-35 41,-59.5 25,-24.5 56,-37.5 31,-13 61,-13 35,0 48.5,8 13.5,8 13.5,22 0,11 -8,18.5 -8,7.5 -18,7.5 -10,0 -16,-4.5 -6,-4.5 -10.5,-10.5 -4.5,-6 -8.5,-10.5 -4,-4.5 -10,-4.5 -23,0 -48.5,10 -25.5,10 -46.5,30.5 -21,20.5 -35,51 -14,30.5 -14,72.5 0,48 23,89 23,41 63.5,70.5 40.5,29.5 95,46 54.5,16.5 118.5,16.5 8,0 15,-0.5 7,-0.5 14,-0.5 -29,-36 -45,-83.5 -16,-47.5 -16,-104.5 0,-67 21,-128.5 21,-61.5 60.5,-108.5 39.5,-47 95.5,-74.5 56,-27.5 125,-27.5 40,0 75.5,11.5 35.5,11.5 62.5,34 27,22.5 42.5,55 15.5,32.5 15.5,75.5 0,75 -32,138 -32,63 -83.5,110 -51.5,47 -118,77.5 Q 487,1954 418,1966 q 66,36 165,36 z M 310,1761 q 0,63 19.5,108.5 19.5,45.5 56.5,75.5 66,-10 126.5,-39.5 60.5,-29.5 106.5,-75 46,-45.5 73,-104.5 27,-59 27,-128 0,-73 -32,-113.5 -32,-40.5 -98,-40.5 -63,0 -114.5,26 -51.5,26 -88,69.5 -36.5,43.5 -56.5,101 -20,57.5 -20,120.5 z m 756,-506 q 17,0 39,-22 22,-22 36,-51 3,-7 7,-19 4,-12 7,-24.5 3,-12.5 5,-23.5 2,-11 2,-17 0,-18 -8,-30 -8,-12 -28,-12 -18,0 -34,14 -16,14 -27.5,36 -11.5,22 -18,47.5 -6.5,25.5 -6.5,47.5 0,54 26,54 z"></path></svg>
