<?xml version="1.0" encoding="UTF-8" standalone="no"?>
<svg xmlns="http://www.w3.org/2000/svg" width="4558" height="2057"><path id="path112" d="m 0,2057 5,-15 h 39 l 132,-483 h -41 l 6,-15 h 175 l -5,15 h -39 q -36,127 -63,227 -12,43 -23,84.5 -11,41.5 -19.5,74.5 -8.5,33 -14,54 -5.5,21 -5.5,23 0,12 8,16 8,4 19,4 35,0 61,-8 26,-8 47,-21 21,-13 37.5,-30 16.5,-17 31.5,-35 l 9,7 q -16,25 -22.5,48.5 -6.5,23.5 -8.5,40.5 -1,8 -7.5,10.5 -6.5,2.5 -14.5,2.5 z m 335,-684 q 8,0 16.5,14 8.5,14 8.5,26 0,17 -23,37 -28,25 -59.5,38 -31.5,13 -56.5,13 -4,0 -7.5,-2 -3.5,-2 -3.5,-7 0,-5 9,-9 22,-10 49.5,-34 27.5,-24 51.5,-65 5,-11 15,-11 z"></path></svg>
