<?xml version="1.0" encoding="UTF-8" standalone="no"?>
<svg xmlns="http://www.w3.org/2000/svg" width="4558" height="2057"><path id="path728" d="m 2375,1805 q -39,0 -76,17 29,19 48.5,47.5 19.5,28.5 19.5,70.5 0,21 -8.5,38 -8.5,17 -21,28 -12.5,11 -28,17 -15.5,6 -30.5,6 -15,0 -30.5,-6 -15.5,-6 -28,-17 -12.5,-11 -21,-28 -8.5,-17 -8.5,-38 0,-42 19.5,-70.5 19.5,-28.5 48.5,-47.5 -37,-17 -76,-17 -41,0 -78.5,11 -37.5,11 -81.5,24 3,12 3,24 0,29 -15,48 -15,19 -38,30.5 -23,11.5 -50,16.5 -27,5 -51,5 -57,0 -118,-15.5 -61,-15.5 -122.5,-39 Q 1570,1886 1509,1859 q -61,-27 -119,-50.5 -58,-23.5 -111,-39 -53,-15.5 -98,-15.5 -60,0 -87,17.5 -27,17.5 -27,52.5 0,33 13.5,63.5 13.5,30.5 36.5,55.5 42,-13 84.5,-21 42.5,-8 87.5,-8 48,0 80,14.5 32,14.5 32,39.5 0,20 -33,38.5 -33,18.5 -94,18.5 -46,0 -93,-16.5 -47,-16.5 -85,-45.5 -42,15 -84.5,31.5 -42.5,16.5 -86,30.5 -43.5,14 -88,23 -44.5,9 -90.5,9 -61,0 -110,-15 -49,-15 -83,-40 -34,-25 -52,-56 -18,-31 -18,-64 v -8 q -82,-29 -166.5,-53 -84.5,-24 -164.5,-24 -36,0 -62,6.5 -26,6.5 -43,16.5 -17,10 -25,23 -8,13 -8,25 0,18 7,27.5 7,9.5 7,14.5 0,6 -6,6 -8,0 -15.5,-15.5 Q 0,1885 0,1867 q 0,-43 38.5,-72 38.5,-29 110.5,-29 41,0 83.5,8 42.5,8 85.5,20.5 43,12.5 86,28.5 43,16 85,32 8,-23 28,-41.5 20,-18.5 48.5,-32 28.5,-13.5 63.5,-21 35,-7.5 71,-7.5 45,0 84,9 39,9 68.5,24.5 29.5,15.5 46,37 16.5,21.5 16.5,46.5 0,18 -11.5,32.5 -11.5,14.5 -31,24 -19.5,9.5 -45,15 -25.5,5.5 -52.5,5.5 -52,0 -111,-16 -59,-16 -124,-38 3,28 18,55 15,27 41,48.5 26,21.5 63.5,34.5 37.5,13 87.5,13 42,0 83,-8.5 41,-8.5 82.5,-22 41.5,-13.5 83.5,-29.5 42,-16 85,-30 -34,-28 -54.5,-63 -20.5,-35 -20.5,-73 0,-25 11.5,-44 11.5,-19 31.5,-31.5 20,-12.5 47,-18.5 27,-6 58,-6 48,0 103.5,17 55.5,17 116,43 60.5,26 123,55.5 62.5,29.5 126,55.5 63.5,26 125,43 61.5,17 118.5,17 19,0 38.5,-4 19.5,-4 35,-13 15.5,-9 25.5,-24 10,-15 10,-38 v -8.5 q 0,0 -1,-8.5 -32,8 -70,13 -38,5 -83,5 -43,0 -87.5,-10.5 -44.5,-10.5 -81,-30 -36.5,-19.5 -59.5,-45.5 -23,-26 -23,-58 0,-22 11,-37.5 11,-15.5 29,-25.5 18,-10 41.5,-15 23.5,-5 48.5,-5 46,0 96.5,14.5 50.5,14.5 95,39 44.5,24.5 78,58 33.5,33.5 46.5,70.5 44,-14 83.5,-25 39.5,-11 85.5,-11 21,0 44.5,5 23.5,5 46.5,16 45,-21 91,-21 46,0 85,11 39,11 83,25 13,-37 46.5,-70.5 33.5,-33.5 78,-58 44.5,-24.5 95,-39 50.5,-14.5 97.5,-14.5 25,0 48.5,5 23.5,5 41.5,15 18,10 29,25.5 11,15.5 11,37.5 0,32 -23,58 -23,26 -59.5,45.5 -36.5,19.5 -81,30 -44.5,10.5 -87.5,10.5 -46,0 -83.5,-5 -37.5,-5 -69.5,-13 -1,5 -1,8.5 v 8.5 q 0,23 10,38 10,15 25.5,24 15.5,9 35,13 19.5,4 38.5,4 57,0 118.5,-17 61.5,-17 125,-43 63.5,-26 126,-55.5 62.5,-29.5 123,-55.5 60.5,-26 116,-43 55.5,-17 103.5,-17 31,0 58,6 27,6 47,18.5 20,12.5 31.5,31.5 11.5,19 11.5,44 0,38 -21,73 -21,35 -54,63 43,14 85,30 42,16 83.5,29.5 41.5,13.5 82.5,22 41,8.5 83,8.5 49,0 86.5,-13 37.5,-13 64,-34.5 26.5,-21.5 41.5,-48.5 15,-27 18,-55 -65,23 -124.5,38.5 -59.5,15.5 -110.5,15.5 -27,0 -52.5,-5.5 -25.5,-5.5 -45,-15 -19.5,-9.5 -31,-24 -11.5,-14.5 -11.5,-32.5 0,-25 16.5,-46.5 16.5,-21.5 46,-37 29.5,-15.5 68.5,-24.5 39,-9 84,-9 36,0 70.5,7.5 34.5,7.5 63,21 28.5,13.5 49,32 20.5,18.5 28.5,41.5 42,-16 84.5,-32 42.5,-16 85.5,-28.5 43,-12.5 85.5,-20.5 42.5,-8 84.5,-8 72,0 110.5,29 38.5,29 38.5,72 0,18 -7.5,33.5 -7.5,15.5 -15.5,15.5 -6,0 -6,-6 0,-5 7,-14.5 7,-9.5 7,-27.5 0,-12 -8,-25 -8,-13 -25,-23 -17,-10 -43,-16.5 -26,-6.5 -62,-6.5 -81,0 -165,24 -84,24 -167,53 1,3 1,8 0,33 -18,64 -18,31 -52,56 -34,25 -83,40 -49,15 -110,15 -46,0 -90.5,-9 -44.5,-9 -88,-23 -43.5,-14 -86,-30.5 -42.5,-16.5 -85.5,-31.5 -38,29 -84.5,45.5 -46.5,16.5 -92.5,16.5 -61,0 -94,-18.5 -33,-18.5 -33,-38.5 0,-25 32,-39.5 32,-14.5 80,-14.5 45,0 87.5,8 42.5,8 84.5,21 23,-25 36.5,-55.5 13.5,-30.5 13.5,-63.5 0,-35 -27,-52.5 -27,-17.5 -87,-17.5 -46,0 -98.5,15.5 -52.5,15.5 -110.5,39 -58,23.5 -119,50.5 -61,27 -122.5,50.5 -61.5,23.5 -122.5,39 -61,15.5 -118,15.5 -24,0 -51,-5 -27,-5 -50,-16.5 -23,-11.5 -38,-30.5 -15,-19 -15,-48 0,-6 0.5,-12 0.5,-6 1.5,-12 -44,-13 -81.5,-24 -37.5,-11 -77.5,-11 z m 476,-147 q -41,0 -84.5,14 -43.5,14 -81,38.5 -37.5,24.5 -65,57.5 -27.5,33 -36.5,70 32,8 68,13 36,5 81,5 39,0 75.5,-10 36.5,-10 64,-27.5 27.5,-17.5 44,-42 16.5,-24.5 16.5,-54.5 0,-32 -21.5,-48 -21.5,-16 -60.5,-16 z m -1026,198 q 45,0 81,-5 36,-5 68,-13 -9,-37 -37,-70 -28,-33 -65.5,-57.5 -37.5,-24.5 -80.5,-38.5 -43,-14 -84,-14 -39,0 -60.5,16 -21.5,16 -21.5,48 0,30 16.5,54.5 16.5,24.5 44,42 27.5,17.5 64,27.5 36.5,10 75.5,10 z m 1968,76 q 50,0 107,-17 57,-17 119,-40 0,-20 -10.5,-40 -10.5,-20 -31,-35.5 -20.5,-15.5 -50.5,-25.5 -30,-10 -69,-10 -78,0 -123.5,29 -45.5,29 -45.5,74 0,30 30.5,47.5 30.5,17.5 73.5,17.5 z M 700,1764 q -39,0 -69,10 -30,10 -50.5,25.5 -20.5,15.5 -31,35.5 -10.5,20 -10.5,40 62,23 118.5,40 56.5,17 107.5,17 43,0 73.5,-17.5 Q 869,1897 869,1867 869,1822 823.5,1793 778,1764 700,1764 Z m 1579,254 q 21,0 37.5,-22.5 16.5,-22.5 16.5,-55.5 0,-38 -15.5,-63.5 -15.5,-25.5 -38.5,-42.5 -24,17 -39,42.5 -15,25.5 -15,63.5 0,33 16.5,55.5 16.5,22.5 37.5,22.5 z m -999,-91 q -39,0 -77,7.5 -38,7.5 -76,18.5 29,27 65.5,43 36.5,16 75.5,16 48,0 68,-13.5 20,-13.5 20,-30.5 0,-19 -19,-30 -19,-11 -57,-11 z m 2010,85 q 38,0 74.5,-16 36.5,-16 65.5,-43 -38,-11 -76,-18.5 -38,-7.5 -76,-7.5 -38,0 -57,11 -19,11 -19,30 0,17 20,30.5 20,13.5 68,13.5 z"></path></svg>
