<?xml version="1.0" encoding="UTF-8" standalone="no"?>
<svg xmlns="http://www.w3.org/2000/svg" width="4558" height="2057"><path id="path247" d="m 214,2040 q 40,0 68.5,-7.5 28.5,-7.5 49.5,-20 21,-12.5 37.5,-29.5 16.5,-17 31.5,-35 l 10,8 q -16,25 -23,48 -7,23 -9,40 -1,8 -7.5,10.5 -6.5,2.5 -14.5,2.5 H 0 l 5,-17 q 15,0 31,-14 16,-14 31,-33 14,-18 37,-46 23,-28 50.5,-62 27.5,-34 58.5,-71 31,-37 61,-73 70,-84 150,-181 -23,0 -50,3 -27,3 -54,8 -27,5 -50.5,14 -23.5,9 -37.5,21 -15,14 -29.5,29 -14.5,15 -29.5,35 l -14,-6 q 13,-26 21.5,-52 8.5,-26 13.5,-49 2,-7 17.5,-13 15.5,-6 61.5,-6 h 289 l -3,10 q -14,5 -25.5,16.5 -11.5,11.5 -32.5,37.5 -14,17 -37,45 -23,28 -51,62 -28,34 -59,71 -31,37 -61,73 -70,85 -151,181 z m 151,-524 q -9,0 -22,-13 -13,-13 -24,-30 -11,-17 -19,-33.5 -8,-16.5 -8,-23.5 0,-9 10,-9 4,0 11.5,9.5 7.5,9.5 17.5,21 10,11.5 21,21 11,9.5 22,9.5 15,0 31,-9.5 16,-9.5 30.5,-21.5 14.5,-12 24.5,-21.5 10,-9.5 13,-9.5 10,0 10,9 0,5 -14.5,21.5 -14.5,16.5 -34,34 -19.5,17.5 -39.5,31.5 -20,14 -30,14 z"></path></svg>
