<?xml version="1.0" encoding="UTF-8" standalone="no"?>
<svg xmlns="http://www.w3.org/2000/svg" width="4558" height="2057"><path id="path500" d="m 0,1843 q 0,-72 27,-127 27,-55 75.5,-96.5 48.5,-41.5 114,-71.5 65.5,-30 142.5,-52 77,-22 162,-38 85,-16 172,-30 63,-154 143,-288 80,-134 175,-233 95,-99 202.5,-156 107.5,-57 224.5,-57 101,0 173,28.5 72,28.5 118.5,79 46.5,50.5 68,118.5 21.5,68 21.5,146 0,73 -20,141.5 -20,68.5 -56.5,128.5 -36.5,60 -87,110 -50.5,50 -111,86 -60.5,36 -129.5,56 -69,20 -141,20 -61,0 -110,-15 -49,-15 -84.5,-42 -35.5,-27 -57,-64.5 Q 1001,1449 995,1405 q -53,9 -107.5,18 -54.5,9 -110.5,17 -35,84 -64.5,170 -29.5,86 -51.5,174 15,-18 34,-33.5 19,-15.5 38,-27 19,-11.5 37,-18 18,-6.5 32,-6.5 18,0 32,9 14,9 14,30 0,18 -7,36 -7,18 -15.5,36 -8.5,18 -15.5,37 -7,19 -7,39 0,13 5,17 5,4 10,4 7,0 15,-4.5 8,-4.5 16,-10.5 9,-6 17,-15 l 8,8 q -16,18 -33,31 -15,12 -33,21.5 -18,9.5 -36,9.5 -23,0 -41.5,-10.5 Q 712,1926 712,1899 q 0,-20 8.5,-39.5 8.5,-19.5 19,-38.5 10.5,-19 19,-36 8.5,-17 8.5,-31 0,-15 -11,-15 -11,0 -36,14 -25,14 -56,52 -10,12 -18,31.5 -8,19.5 -14,39.5 -6,20 -9,36.5 -3,16.5 -3,21.5 0,15 -14,15 -8,0 -21,-2 -13,-2 -26,-2 -14,0 -24,4 -10,4 -13,4 -4,0 -4,-4 0,-3 6,-9 6,-6 12,-18 12,-21 20.5,-50 8.5,-29 19.5,-74 20,-88 47,-173.5 27,-85.5 59,-168.5 -77,13 -151,30 -74,17 -140,40 -66,23 -121,53.5 -55,30.5 -95,71 -40,40.5 -62.5,93.5 -22.5,53 -22.5,121 0,78 44,120.5 44,42.5 121,42.5 42,0 81.5,-15 39.5,-15 70.5,-41.5 31,-26.5 50,-61.5 19,-35 19,-75 0,-33 -8.5,-59 -8.5,-26 -23,-43 -14.5,-17 -32.5,-26 -18,-9 -36,-9 -11,0 -18,5 -7,5 -12.5,11 -5.5,6 -11,11 -5.5,5 -11.5,5 -26,0 -26,-25 0,-12 16,-22 16,-10 43,-10 61,0 101.5,42 40.5,42 40.5,118 0,44 -18,84.5 -18,40.5 -51,71.5 -33,31 -80,49.5 -47,18.5 -104,18.5 -41,0 -84.5,-11.5 -43.5,-11.5 -79,-37 Q 46,1983 23,1942.5 0,1902 0,1843 Z M 1445,774 q -98,0 -190.5,50 Q 1162,874 1078,960.5 994,1047 920.5,1163.5 847,1280 788,1414 q 54,-8 105,-15.5 51,-7.5 100,-16.5 0,-77 28.5,-145.5 28.5,-68.5 75,-120 46.5,-51.5 105.5,-81.5 59,-30 120,-30 65,0 104,31.5 39,31.5 39,83.5 0,65 -35,111 -35,46 -95,78.5 -60,32.5 -141,54 -81,21.5 -173,37.5 6,39 25.5,73.5 19.5,34.5 52,59.5 32.5,25 76.5,39.5 44,14.5 98,14.5 101,0 191,-42 90,-42 157.5,-112.5 67.5,-70.5 106.5,-162 39,-91.5 39,-190.5 0,-76 -23,-133.5 -23,-57.5 -65.5,-96 -42.5,-38.5 -102,-58 Q 1517,774 1445,774 Z m -426,604 q 80,-13 148.5,-33 68.5,-20 119,-49 50.5,-29 79,-69 28.5,-40 28.5,-93 0,-46 -27.5,-69 -27.5,-23 -74.5,-23 -49,0 -98,27.5 -49,27.5 -88,73.5 -39,46 -63,107 -24,61 -24,128 z"></path></svg>
