<?xml version="1.0" encoding="UTF-8" standalone="no"?>
<svg xmlns="http://www.w3.org/2000/svg" width="4558" height="2057"><path id="path584" d="m 376,1463 q -6,26 -9,46 -3,20 -3,31 0,15 5.5,20.5 5.5,5.5 13.5,5.5 9,0 18,-4.5 9,-4.5 17,-10.5 9,-6 17,-15 l 8,8 q -16,18 -34,31 -15,12 -33,21.5 -18,9.5 -35,9.5 -27,0 -44.5,-17.5 Q 279,1571 279,1545 q 0,-17 4.5,-42 4.5,-25 16.5,-74 -55,45 -104,93 -49,48 -86,99.5 -37,51.5 -58.5,107 Q 30,1784 30,1844 q 0,31 11.5,55.5 11.5,24.5 32,42 20.5,17.5 47.5,26.5 27,9 59,9 66,0 130,-17 64,-17 127.5,-42 63.5,-25 127.5,-54.5 64,-29.5 130.5,-54.5 66.5,-25 137,-42 70.5,-17 147.5,-17 46,0 80.5,12 34.5,12 57,32.5 22.5,20.5 33.5,47 11,26.5 11,55.5 0,39 -14.5,69 -14.5,30 -37.5,50 -23,20 -51.5,30.5 -28.5,10.5 -56.5,10.5 -19,0 -36,-6 -17,-6 -17,-21 0,-11 7.5,-19 7.5,-8 19.5,-8 9,0 14,4.5 5,4.5 9.5,10.5 4.5,6 10,10.5 5.5,4.5 14.5,4.5 16,0 36.5,-8.5 20.5,-8.5 39,-25.5 18.5,-17 31,-43 12.5,-26 12.5,-62 0,-25 -10.5,-47.5 -10.5,-22.5 -32,-40 -21.5,-17.5 -53.5,-27.5 -32,-10 -74,-10 -72,0 -141.5,20 -69.5,20 -137,49.5 -67.5,29.5 -133,64.5 -65.5,35 -131,64.5 Q 365,1997 300,2017 q -65,20 -130,20 -39,0 -70.5,-12.5 Q 68,2012 46,1989.5 24,1967 12,1936 0,1905 0,1867 0,1797 25,1733.5 50,1670 93,1612 q 43,-58 98.5,-111 55.5,-53 117.5,-102 36,-136 74.5,-247 38.5,-111 82.5,-190 44,-79 97,-122 53,-43 118,-43 29,0 52.5,10 23.5,10 40,27 16.5,17 25.5,38.5 9,21.5 9,45.5 0,56 -35,109.5 -35,53.5 -92,106 -57,52.5 -129.5,106 Q 479,1293 404,1349 q -8,28 -14.5,56.5 Q 383,1434 376,1463 Z M 699,853 q -45,0 -84.5,32 -39.5,32 -75,92 -35.5,60 -67,146.5 Q 441,1210 412,1319 q 69,-52 134.5,-102 65.5,-50 116,-98 50.5,-48 81,-94 30.5,-46 30.5,-90 0,-42 -20,-62 -20,-20 -55,-20 z"></path></svg>
