<?xml version="1.0" encoding="UTF-8" standalone="no"?>
<svg xmlns="http://www.w3.org/2000/svg" width="4558" height="2057"><path id="path752" d="m 1095,553 q -8,31 -16,60.5 -8,29.5 -18,57.5 88,2 169.5,19.5 81.5,17.5 153.5,51.5 63,-21 126,-32.5 63,-11.5 127,-11.5 69,0 131,14.5 62,14.5 109,43.5 47,29 75,73 28,44 28,103 0,44 -17.5,88.5 -17.5,44.5 -55,82.5 -37.5,38 -97,65.5 -59.5,27.5 -142.5,35.5 -4,78 -29,151 -25,73 -69,133 -44,60 -106.5,103.5 -62.5,43.5 -140.5,62.5 -4,68 -32.5,139.5 -28.5,71.5 -85,130 -56.5,58.5 -142,96 Q 978,2057 861,2057 786,2057 706,2042.5 626,2028 550,1996 474,1964 405.5,1914 337,1864 285.5,1793 234,1722 204,1629 q -30,-93 -30,-210 0,-88 20,-170 Q 104,1217 52,1153 0,1089 0,1004 0,948 24,902.5 48,857 89.5,825 131,793 187.5,775.5 244,758 310,758 q 56,0 113.5,12 57.5,12 117.5,32 98,-57 208,-89 110,-32 222,-40 26,-60 45,-124 14,-43 24.5,-79.5 10.5,-36.5 21.5,-75.5 17,-54 24.5,-81.5 7.5,-27.5 7.5,-34.5 0,-5 -1.5,-8.5 -1.5,-3.5 -6.5,-3.5 -4,0 -10,4.5 -6,4.5 -13,9.5 -8,6 -16,13 l -7,-9 q 6,-6 17.5,-15.5 11.5,-9.5 25,-19 13.5,-9.5 28,-16.5 14.5,-7 26.5,-7 18,0 30,8.5 12,8.5 12,22.5 0,7 -2,15 -1,4 -2,6 20,-23 50,-37.5 30,-14.5 54,-14.5 27,0 49.5,16 22.5,16 22.5,51 0,38 -14.5,71 -14.5,33 -37,57 -22.5,24 -50,38 -27.5,14 -52.5,14 -28,0 -44.5,-10 -16.5,-10 -26.5,-26 -5,13 -9,30 -5,15 -10,36 -5,21 -12,50 z m -745,721 q -21,0 -41,-2 -20,-2 -40,-5 -8,36 -12,73.5 -4,37.5 -4,77.5 0,114 26.5,204 26.5,90 71.5,158.5 45,68.5 105.5,116.5 60.5,48 128.5,78.5 68,30.5 140,44.5 72,14 141,14 100,0 179,-33 79,-33 134,-86 55,-53 85.5,-120 30.5,-67 35.5,-136 -22,4 -44,6 -22,2 -45,2 -62,0 -123,-15 -61,-15 -110.5,-47.5 Q 928,1572 894,1521 q -34,-51 -43,-123 -70,38 -111.5,105 -41.5,67 -41.5,149 0,47 14,84.5 14,37.5 38.5,63.5 24.5,26 58,39.5 33.5,13.5 71.5,13.5 48,0 76.5,-19 28.5,-19 28.5,-42 0,-9 -4,-14.5 -4,-5.5 -8.5,-11 -4.5,-5.5 -8.5,-11.5 -4,-6 -4,-16 0,-17 11.5,-26.5 11.5,-9.5 25.5,-9.5 16,0 27,13.5 11,13.5 11,37.5 0,23 -11.5,44 -11.5,21 -32.5,37.5 -21,16.5 -50,26 -29,9.5 -63,9.5 -39,0 -80.5,-14 -41.5,-14 -76.5,-42 -35,-28 -57.5,-71 -22.5,-43 -22.5,-101 0,-48 15.5,-90.5 15.5,-42.5 43,-78 27.5,-35.5 66,-62.5 38.5,-27 83.5,-45 0,-94 32,-178 32,-84 94,-165 -20,-10 -39,-19 -19,-9 -38,-19 -59,76 -126,130.5 -67,54.5 -138,89.5 -71,35 -143,51.5 -72,16.5 -141,16.5 z m 1256,-66 q -78,0 -155,-14 -77,-14 -153,-38 -76,-24 -151,-55.5 -75,-31.5 -148,-65.5 -57,72 -90.5,153 -33.5,81 -33.5,169 31,-9 63,-14 32,-5 66,-5 69,0 127.5,19.5 58.5,19.5 101,57 42.5,37.5 67,92 24.5,54.5 24.5,124.5 64,-21 114.5,-62.5 50.5,-41.5 86.5,-98 36,-56.5 56.5,-123.5 20.5,-67 24.5,-139 z m 1,-25 q 0,-76 -17.5,-139 -17.5,-63 -49,-113.5 Q 1509,880 1466,841 1423,802 1372,773 1268,811 1176.5,873.5 1085,936 1016,1016 q 60,29 133,58.5 73,29.5 151,53.5 78,24 157,39.5 79,15.5 150,15.5 z m 62,-8 q 71,-9 117,-33 46,-24 73,-57.5 27,-33.5 38,-72.5 11,-39 11,-77 0,-51 -21,-90 -21,-39 -59.5,-64.5 Q 1789,755 1734.5,742 1680,729 1614,729 q -98,0 -197,29 56,30 102.5,71 46.5,41 79.5,93 33,52 51.5,115 18.5,63 18.5,138 z m -1323,16 q 122,0 242.5,-60.5 Q 709,1070 812,944 747,913 685.5,885 624,857 565,834 472,898 400.5,987 329,1076 291,1188 q 27,3 55,3 z M 42,994 q 0,36 13.5,64.5 13.5,28.5 37.5,51 24,22.5 56,38.5 32,16 68,26 42,-116 120,-205 78,-89 179,-152 -53,-17 -102,-27 -49,-10 -96,-10 -58,0 -108,16 -50,16 -87.5,44.5 Q 85,869 63.5,908.5 42,948 42,994 Z m 962,366 q -35,0 -66.5,6.5 -31.5,6.5 -60.5,18.5 7,70 38.5,120 31.5,50 78,82 46.5,32 102.5,47 56,15 112,15 49,0 93,-12 0,-69 -24,-120.5 -24,-51.5 -65,-86.5 -41,-35 -95,-52.5 -54,-17.5 -113,-17.5 z m 51,-671 Q 1026,771 990.5,840 955,909 913,966 l 39,19.5 q 0,0 39,18.5 67,-79 157,-142.5 Q 1238,798 1341,757 1275,725 1201.5,708 1128,691 1055,689 Z M 828,924 Q 866,875 900,817.5 934,760 963,692 865,700 769.5,732.5 674,765 589,819 q 58,22 117.5,49 59.5,27 121.5,56 z m 416,-670 q -20,0 -43.5,21 -23.5,21 -37.5,50 -3,7 -7.5,18.5 -4.5,11.5 -8.5,23.5 -4,12 -6.5,22.5 -2.5,10.5 -2.5,16.5 0,25 12.5,33.5 12.5,8.5 23.5,8.5 19,0 35.5,-12.5 16.5,-12.5 28.5,-33.5 12,-21 19,-49 7,-28 7,-60 0,-21 -6,-30 -6,-9 -14,-9 z"></path></svg>
