<?xml version="1.0" encoding="UTF-8" standalone="no"?>
<svg xmlns="http://www.w3.org/2000/svg" width="4558" height="2057"><path id="path173" d="m 176,1608 q 5,-17 12,-27.5 7,-10.5 20,-18.5 -26,6 -50,19 -24,13 -42.5,31 -18.5,18 -29.5,41.5 -11,23.5 -11,50.5 0,21 9.5,36 9.5,15 25.5,26 l -8,9 Q 89,1771 71.5,1764.5 54,1758 38,1747.5 22,1737 11,1723.5 0,1710 0,1693 q 0,-34 24.5,-63.5 24.5,-29.5 65,-50.5 40.5,-21 93.5,-33 53,-12 110,-12 82,0 133.5,27.5 51.5,27.5 51.5,86.5 0,30 -15,55.5 -15,25.5 -39,45 -24,19.5 -53.5,31.5 -29.5,12 -58.5,15 22,6 36.5,24 14.5,18 23,43 8.5,25 13.5,54.5 5,29.5 8,56.5 4,28 10,39 6,11 17,11 8,0 13.5,-3 5.5,-3 10.5,-8 5,-4 9,-11 l 7,9 q -10,13 -22,24 -11,9 -25,16 -14,7 -32,7 -15,0 -29.5,-3.5 -14.5,-3.5 -26,-12.5 -11.5,-9 -18.5,-23.5 -7,-14.5 -7,-36.5 0,-39 -2,-71.5 -2,-32.5 -8,-56.5 -6,-24 -17,-38 -11,-14 -28,-16 h -26 l -63,237 h 40 l -6,15 H 16 l 5,-15 h 40 z m 47,176 h 16 q 39,0 67,-11 28,-11 45.5,-31 17.5,-20 25.5,-46.5 8,-26.5 8,-58.5 0,-39 -13,-61 -13,-22 -51,-22 -21,0 -33,15 -12,15 -20,47 z m 105,-286 q -9,0 -22,-13 -13,-13 -24,-30 -11,-17 -19,-33.5 -8,-16.5 -8,-23.5 0,-9 10,-9 4,0 11.5,9.5 7.5,9.5 17.5,21 10,11.5 21,21 11,9.5 22,9.5 15,0 31,-9.5 16,-9.5 30.5,-21.5 14.5,-12 24.5,-21.5 10,-9.5 13,-9.5 10,0 10,9 0,5 -14.5,21.5 -14.5,16.5 -34,34 -19.5,17.5 -39.5,31.5 -20,14 -30,14 z"></path></svg>
