<?xml version="1.0" encoding="UTF-8" standalone="no"?>
<svg xmlns="http://www.w3.org/2000/svg" width="4558" height="2057"><path id="path374" d="m 388,1833 q 6,-26 12.5,-52 6.5,-26 14.5,-52 -49,0 -99,-8 -50,-8 -96,-25.5 Q 174,1678 134,1652 94,1626 64,1589.5 34,1553 17,1507 0,1461 0,1404 0,1328 27,1268 54,1208 97.5,1166.5 141,1125 196,1103 q 55,-22 111,-22 45,0 80,13 35,13 59,35 24,22 36.5,51 12.5,29 12.5,61 0,33 -11,60.5 -11,27.5 -30,48 -19,20.5 -45.5,32 -26.5,11.5 -56.5,11.5 -21,0 -38,-6.5 -17,-6.5 -29,-17.5 -12,-11 -18,-25 -6,-14 -6,-29 0,-10 5,-19.5 5,-9.5 17,-9.5 8,0 14,4.5 6,4.5 6,14.5 0,10 -5.5,16.5 -5.5,6.5 -5.5,15.5 0,6 3,13 3,7 10,13.5 7,6.5 18.5,11 11.5,4.5 29.5,4.5 27,0 49.5,-11 22.5,-11 39.5,-29.5 17,-18.5 26.5,-43 9.5,-24.5 9.5,-51.5 0,-63 -42.5,-98.5 Q 393,1110 318,1110 q -48,0 -91.5,21 -43.5,21 -77.5,59.5 -34,38.5 -54,92.5 -20,54 -20,120 0,76 27.5,134 27.5,58 74.5,97.5 47,39.5 109.5,59.5 62.5,20 132.5,20 27,-97 62.5,-187.5 35.5,-90.5 85,-160.5 49.5,-70 117.5,-111.5 68,-41.5 160,-41.5 46,0 85.5,16 39.5,16 69,45 29.5,29 46.5,68.5 17,39.5 17,87.5 0,62 -24,112.5 -24,50.5 -63.5,86.5 -39.5,36 -89.5,55.5 -50,19.5 -101,19.5 -41,0 -72,-10.5 -31,-10.5 -54,-28.5 -32,20 -73,35 -41,15 -88,23 -11,37 -21,74 -10,37 -19,74 -3,12 -8.5,31.5 l -11,39 q 0,0 -9,36.5 -9,36.5 -3.5,25 0,13 10,13 7,0 15,-4.5 8,-4.5 16,-9.5 9,-6 17,-15 l 8,8 q -17,18 -33,31 -14,12 -29.5,21.5 -15.5,9.5 -27.5,9.5 -27,0 -40.5,-11.5 Q 347,2034 347,2015 q 0,-6 0.5,-11 0.5,-5 2.5,-14 -8,11 -19,22.5 -11,11.5 -24,21.5 -13,10 -28,16.5 -15,6.5 -32,6.5 -35,0 -58,-18 -23,-18 -23,-56 0,-36 16.5,-67 16.5,-31 41,-54.5 24.5,-23.5 53.5,-37 29,-13.5 54,-13.5 21,0 33.5,5.5 12.5,5.5 23.5,16.5 z m 454,-556 q -66,0 -118,35.5 -52,35.5 -93,94.5 -41,59 -72.5,136.5 Q 527,1621 502,1706 q 42,-8 77,-22.5 35,-14.5 62,-34.5 -32,-37 -32,-82 0,-51 23.5,-76.5 23.5,-25.5 55.5,-25.5 29,0 49,18.5 20,18.5 20,44.5 0,33 -22.5,66 -22.5,33 -62.5,62 20,15 48.5,24 28.5,9 63.5,9 46,0 90,-17 44,-17 78.5,-49 34.5,-32 55,-77 20.5,-45 20.5,-101 0,-78 -49,-123 -49,-45 -137,-45 z m -561,749 q 9,0 19.5,-7 10.5,-7 21,-18 10.5,-11 20.5,-24.5 10,-13.5 16,-27.5 3,-7 6.5,-18 3.5,-11 6.5,-22 3,-11 4.5,-21.5 1.5,-10.5 1.5,-16.5 0,-18 -7.5,-30 -7.5,-12 -28.5,-12 -18,0 -34,14 -16,14 -27.5,36 -11.5,22 -18,47.5 -6.5,25.5 -6.5,47.5 0,28 6,40 6,12 20,12 z m 343,-455 q 0,37 29,68 31,-25 47.5,-53 16.5,-28 16.5,-56 0,-46 -40,-46 -18,0 -35.5,21.5 Q 624,1527 624,1571 Z"></path></svg>
