<?xml version="1.0" encoding="UTF-8" standalone="no"?>
<svg xmlns="http://www.w3.org/2000/svg" width="4558" height="2057"><path id="path607" d="m 1161,1370 q 0,-6 1.5,-13 1.5,-7 5,-13.5 3.5,-6.5 9.5,-11 6,-4.5 16,-4.5 15,0 24,11 9,11 9,25 0,12 -7,27 -7,15 -18,29 -11,14 -24,23.5 -13,9.5 -24,9.5 -9,0 -9,-7 0,-2 2.5,-4 2.5,-2 4.5,-4 7,-5 17,-15 10,-10 12,-28 -10,0 -14.5,-8 -4.5,-8 -4.5,-17 z m -218,377 q -10,35 -20.5,72 -10.5,37 -18.5,70.5 -8,33.5 -13.5,60.5 -5.5,27 -5.5,41 0,15 5.5,20.5 5.5,5.5 13.5,5.5 9,0 18,-4.5 9,-4.5 17,-10.5 9,-6 17,-15 l 8,8 q -16,18 -34,31 -15,12 -33,21.5 -18,9.5 -35,9.5 -27,0 -44.5,-17.5 Q 800,2022 800,1996 q 0,-19 5.5,-48 5.5,-29 14.5,-63 9,-34 19.5,-70 10.5,-36 19.5,-69 17,-59 36.5,-113 19.5,-54 42.5,-105 -92,0 -179,-17.5 -87,-17.5 -163,-53.5 -63,21 -126,32.5 -63,11.5 -127,11.5 -69,0 -131,-14.5 Q 150,1472 103,1443 56,1414 28,1370 0,1326 0,1267 q 0,-43 17.5,-88 17.5,-45 55,-83 37.5,-38 97,-65.5 Q 229,1003 312,995 316,917 341,844 366,771 410,711 454,651 516.5,607.5 579,564 657,545 661,471 697,398.5 733,326 800.5,269 868,212 968,177 q 100,-35 232,-35 112,0 219,35 107,35 191,108 84,73 135,186 51,113 51,269 0,110 -29,208 97,26 151.5,89 54.5,63 54.5,154 0,56 -22.5,102 -22.5,46 -63,78.5 -40.5,32.5 -96,50.5 -55.5,18 -121.5,18 -60,0 -121.5,-13 -61.5,-13 -126.5,-36 -90,55 -190,88.5 -100,33.5 -203,44.5 -52,105 -86,223 z m 62,-572 q 29,14 57.5,28 28.5,14 56.5,28 60,-73 124.5,-129 64.5,-56 131.5,-93.5 67,-37.5 133.5,-57 Q 1575,932 1638,932 q 27,0 54,3 12,-46 18.5,-94.5 Q 1717,792 1717,741 1717,594 1675,485.5 1633,377 1562.5,306 1492,235 1399,200 1306,165 1203,165 1080,165 984.5,197.5 889,230 823,283 757,336 721,403.5 685,471 680,540 q 22,-4 44,-6 22,-2 45,-2 62,0 123,15.5 61,15.5 110.5,48 49.5,32.5 83.5,84 34,51.5 43,123.5 72,-39 112.5,-110.5 Q 1282,621 1282,537 1282,442 1234.5,391.5 1187,341 1110,341 q -24,0 -45,6 -21,6 -36.5,15.5 -15.5,9.5 -24.5,21.5 -9,12 -9,23 0,9 4,14.5 4,5.5 8.5,11 4.5,5.5 8.5,11.5 4,6 4,16 0,17 -11.5,26.5 Q 997,496 983,496 967,496 956,482.5 945,469 945,445 q 0,-23 13.5,-45 13.5,-22 36,-39 22.5,-17 53,-27.5 30.5,-10.5 64.5,-10.5 39,0 79,13 40,13 73,40.5 33,27.5 54,69.5 21,42 21,100 0,49 -15.5,93 -15.5,44 -43,81 -27.5,37 -65.5,66 -38,29 -84,47 0,94 -32.5,177.5 Q 1066,1094 1005,1175 Z M 374,991 q 78,0 155,14 77,14 153,38 76,24 150.5,55.5 74.5,31.5 148.5,65.5 57,-72 90.5,-152.5 Q 1105,931 1105,843 1046,861 982,861 914,861 854.5,841 795,821 751,783.5 707,746 681.5,691.5 656,637 656,568 592,589 541.5,630.5 491,672 455,728.5 419,785 398.5,852 378,919 374,991 Z m -1,25 q 0,76 17.5,139 17.5,63 49,113.5 31.5,50.5 74.5,90 43,39.5 94,67.5 104,-38 196,-100.5 Q 896,1263 965,1183 905,1155 833.5,1125.5 762,1096 685,1071.5 608,1047 528.5,1031.5 449,1016 373,1016 Z m 190,425 Q 507,1411 460.5,1370 414,1329 381,1276.5 348,1224 329.5,1160.5 311,1097 311,1021 q -71,10 -117,34.5 -46,24.5 -73,58.5 -27,34 -38,73 -11,39 -11,77 0,51 21,90 21,39 59.5,64.5 38.5,25.5 93,38.5 54.5,13 120.5,13 98,0 197,-29 z m 1375,-236 q 0,-38 -15.5,-68.5 -15.5,-30.5 -42.5,-53.5 -27,-23 -62.5,-38.5 -35.5,-15.5 -75.5,-24.5 -45,112 -122,201.5 -77,89.5 -175,154.5 58,20 112,31.5 54,11.5 105,11.5 61,0 112,-16 51,-16 87.5,-44.5 36.5,-28.5 56.5,-68 20,-39.5 20,-85.5 z M 982,839 q 66,0 121,-23 -6,-71 -38,-121.5 Q 1033,644 986.5,612 940,580 884,565 828,550 772,550 q -50,0 -93,12 0,65 24.5,116.5 24.5,51.5 66,87 41.5,35.5 96.5,54.5 55,19 116,19 z m 652,169 q -111,0 -225.5,68.5 Q 1294,1145 1193,1267 q 54,26 105,49 51,23 101,42 89,-65 158,-152.5 69,-87.5 111,-196.5 -9,0 -17.5,-0.5 -8.5,-0.5 -16.5,-0.5 z M 989,1195 Q 921,1274 831.5,1337.5 742,1401 639,1442 q 72,35 151,51.5 79,16.5 157,16.5 70,-148 156,-260 z m 188,91 q -38,48 -73,102.5 -35,54.5 -66,116.5 90,-12 175.5,-45 85.5,-33 162.5,-86 -49,-19 -98.5,-41.5 Q 1228,1310 1177,1286 Z m 496,-507 q 8,0 16.5,14 8.5,14 8.5,26 0,17 -23,37 -28,25 -59.5,38 -31.5,13 -56.5,13 -4,0 -7.5,-2 -3.5,-2 -3.5,-7 0,-5 9,-9 22,-10 49.5,-34 27.5,-24 51.5,-65 5,-11 15,-11 z"></path></svg>
