<?xml version="1.0" encoding="UTF-8" standalone="no"?>
<svg xmlns="http://www.w3.org/2000/svg" width="4558" height="2057"><path id="path578" d="m 705,1913 q -7,26 -10,46.5 -3,20.5 -3,31.5 0,15 5.5,20.5 5.5,5.5 13.5,5.5 9,0 18,-4.5 9,-4.5 17,-10.5 9,-6 17,-15 l 8,8 q -16,18 -34,31 -15,12 -33,21.5 -18,9.5 -35,9.5 -27,0 -44.5,-17.5 Q 607,2022 607,1996 q 0,-30 11.5,-74.5 Q 630,1877 647,1816 673,1723 709.5,1634.5 746,1546 794,1469 729,1449 663,1428 597,1407 527.5,1389.5 458,1372 384.5,1361 311,1350 230,1350 130,1350 77.5,1392 25,1434 16,1503 q -1,6 -2,11.5 -1,5.5 -6,5.5 -5,0 -6.5,-6 -1.5,-6 -1.5,-15 0,-37 12,-79.5 12,-42.5 39,-77.5 27,-35 70,-58.5 43,-23.5 105,-23.5 67,0 138,17 71,17 145.5,43.5 74.5,26.5 150.5,58 76,31.5 153,60.5 36,-52 77,-94.5 41,-42.5 87.5,-73.5 46.5,-31 99,-48 52.5,-17 111.5,-17 46,0 83,10.5 37,10.5 63,31 26,20.5 40.5,49 14.5,28.5 14.5,64.5 0,44 -18.5,78 -18.5,34 -48,57 -29.5,23 -66.5,35 -37,12 -74,12 -83,0 -159.5,-14.5 Q 946,1514 870,1492 819,1576 778.5,1682 738,1788 705,1913 Z m 482,-640 q -92,0 -166.5,51 -74.5,51 -134.5,142 76,26 151,42.5 75,16.5 147,16.5 30,0 60,-11 30,-11 54,-31 24,-20 38.5,-47 14.5,-27 14.5,-60 0,-26 -13.5,-45.5 -13.5,-19.5 -36.5,-32 -23,-12.5 -52.5,-19 -29.5,-6.5 -61.5,-6.5 z"></path></svg>
