<?xml version="1.0" encoding="UTF-8" standalone="no"?>
<svg xmlns="http://www.w3.org/2000/svg" width="4558" height="2057"><path id="path560" d="m 138,1904 q 19,-21 37.5,-39.5 18.5,-18.5 35.5,-32.5 17,-14 31.5,-22 14.5,-8 26.5,-8 19,0 28.5,11.5 9.5,11.5 9.5,25.5 0,15 -9,30 -9,15 -31,15 -14,0 -21.5,-8 -7.5,-8 -7.5,-20 0,-9 -5,-9 -5,0 -13,4.5 -8,4.5 -16.5,11.5 -8.5,7 -16.5,14 -8,7 -12,13 7,16 15,34 7,15 16,33.5 9,18.5 19,35.5 9,17 21.5,30.5 12.5,13.5 33.5,18.5 l 1,9 h -57 q -23,0 -43,-8 -20,-8 -28,-25 l -30,-64 q -11,33 -16,55 -5,22 -5,29 0,15 -14,15 -8,0 -21,-2 -13,-2 -26,-2 -14,0 -24,4 -10,4 -13,4 -4,0 -4,-4 0,-3 6,-9 6,-6 12,-18 12,-21 22.5,-58.5 Q 51,1930 63,1885 91,1776 125,1680.5 159,1585 200.5,1508 242,1431 291,1375 q 49,-56 109,-87 20,-75 58.5,-145 38.5,-70 94,-123.5 55.5,-53.5 128,-86 Q 753,901 841,901 q 78,0 141.5,25.5 63.5,25.5 108.5,69 45,43.5 69.5,102.5 24.5,59 24.5,126 0,75 -29,138 -29,63 -77,108.5 -48,45.5 -109,70.5 -61,25 -125,25 -25,0 -53,-5 -22,64 -74,101.5 -52,37.5 -121,37.5 -40,0 -79,-13.5 -39,-13.5 -69.5,-44 Q 418,1612 399,1563 q -19,-49 -19,-121 0,-16 1,-32 1,-16 3,-33 -41,38 -76.5,92.5 -35.5,54.5 -66,122.5 -30.5,68 -56.5,147 -26,79 -47,165 z M 838,961 q -79,0 -145.5,25 -66.5,25 -119.5,67.5 -53,42.5 -91,100 -38,57.5 -59,123.5 59,-25 125,-25 34,0 69,8 11,-35 31.5,-64 20.5,-29 47.5,-50 27,-21 59,-33 32,-12 68,-12 32,0 60.5,9.5 28.5,9.5 50.5,27 22,17.5 34.5,41.5 12.5,24 12.5,52 0,32 -13,47 -13,15 -27,15 -11,0 -18,-7.5 -7,-7.5 -7,-18.5 0,-10 5.5,-16.5 5.5,-6.5 12,-12.5 6.5,-6 12,-13 5.5,-7 5.5,-19 0,-15 -9.5,-31 -9.5,-16 -26.5,-28.5 -17,-12.5 -41,-20.5 -24,-8 -53,-8 -33,0 -62,10.5 -29,10.5 -53,30 -24,19.5 -41.5,46.5 -17.5,27 -27.5,59 76,22 122,77.5 46,55.5 46,139.5 0,32 -8,64 11,2 23,3 12,1 24,1 58,0 111.5,-24 53.5,-24 94.5,-66.5 41,-42.5 66,-100.5 25,-58 25,-126 0,-63 -21.5,-113 -21.5,-50 -61,-85 Q 1019,999 963,980 907,961 838,961 Z m -288,342 q -40,0 -76.5,15 -36.5,15 -70.5,42 -6,39 -6,80 0,69 19,116 19,47 48,76.5 29,29.5 65,42 36,12.5 71,12.5 58,0 102,-35.5 44,-35.5 61,-97.5 -70,-21 -114,-77 -44,-56 -44,-137 v -16 q 0,0 2,-16 -14,-2 -28.5,-3.5 Q 564,1303 550,1303 Z m 221,187 q 0,-37 -11,-66.5 -11,-29.5 -30.5,-51 Q 710,1351 684,1336 q -26,-15 -56,-23 -1,6 -1,12 v 12 q 0,40 10.5,72.5 10.5,32.5 29.5,57.5 19,25 44,42.5 25,17.5 55,27.5 2,-11 3.5,-22.5 1.5,-11.5 1.5,-24.5 z"></path></svg>
