<?xml version="1.0" encoding="UTF-8" standalone="no"?>
<svg xmlns="http://www.w3.org/2000/svg" width="4558" height="2057"><path id="path687" d="m 1129,1531 q 0,-56 -39,-91.5 -39,-35.5 -108,-35.5 -66,0 -130.5,16.5 -64.5,16.5 -128,41 -63.5,24.5 -128,53 -64.5,28.5 -131,53 -66.5,24.5 -137,41 Q 257,1625 182,1625 136,1625 101.5,1612.5 67,1600 44.5,1580 22,1560 11,1533.5 0,1507 0,1478 q 0,-39 15,-69 15,-30 38,-50 23,-20 51.5,-30.5 28.5,-10.5 55.5,-10.5 21,0 37,7 16,7 16,20 0,12 -7,19.5 -7,7.5 -20,7.5 -9,0 -14,-4.5 -5,-4.5 -9.5,-10 -4.5,-5.5 -9.5,-10 -5,-4.5 -15,-4.5 -17,0 -38,8.5 -21,8.5 -39,26 -18,17.5 -30.5,43.5 -12.5,26 -12.5,60 0,26 11,49 11,23 32.5,40 21.5,17 53.5,27 32,10 74,10 72,0 141,-19.5 69,-19.5 135.5,-48.5 66.5,-29 132,-63.5 Q 663,1441 728,1412 793,1383 858.5,1363.5 924,1344 992,1344 q 80,0 123,44 43,44 43,120 0,49 -12,100.5 -12,51.5 -33,100.5 -21,49 -49.5,93 -28.5,44 -60.5,78.5 -32,34.5 -67.5,57 -35.5,22.5 -69.5,27.5 -21,42 -60.5,67 -39.5,25 -81.5,25 -46,0 -77.5,-21.5 Q 615,2014 615,1969 q 0,-32 12.5,-61 12.5,-29 33.5,-51.5 21,-22.5 49.5,-35.5 28.5,-13 60.5,-13 49,0 80,23.5 31,23.5 31,65.5 0,12 -1.5,24.5 -1.5,12.5 -6.5,25.5 43,-9 88,-49.5 45,-40.5 82,-99 37,-58.5 61,-129 24,-70.5 24,-138.5 z m -394,339 q 0,-16 7,-27 7,-11 15,-17 -15,5 -26.5,20 -11.5,15 -19.5,37 -8,22 -12.5,49.5 -4.5,27.5 -4.5,57.5 0,23 8,36 8,13 23,13 21,0 38.5,-25.5 Q 781,1988 792,1950 767,1938 751,1917.5 735,1897 735,1870 Z m 38,-45 q -3,5 -5,14 -2,9 -2,26 0,18 10,33.5 10,15.5 23,26.5 3,-14 4.5,-23 1.5,-9 1.5,-21 0,-27 -11,-41.5 -11,-14.5 -21,-14.5 z m 40,-174 q 10,0 18,13 8,13 8,22 0,9 -5,16.5 -5,7.5 -16,18.5 -13,13 -29.5,24 -16.5,11 -33,18.5 -16.5,7.5 -31,12 -14.5,4.5 -23.5,4.5 -12,0 -12,-9 0,-5 11,-11 23,-11 47.5,-35.5 24.5,-24.5 52.5,-64.5 7,-9 13,-9 z m 108,0 q 10,0 18,13 8,13 8,22 0,9 -5,16.5 -5,7.5 -16,18.5 -13,13 -29.5,24 -16.5,11 -33,18.5 -16.5,7.5 -31,12 -14.5,4.5 -23.5,4.5 -12,0 -12,-9 0,-5 11,-11 23,-11 47.5,-35.5 24.5,-24.5 52.5,-64.5 7,-9 13,-9 z"></path></svg>
