<?xml version="1.0" encoding="UTF-8" standalone="no"?>
<svg xmlns="http://www.w3.org/2000/svg" width="4558" height="2057"><path id="path965" d="m 1249,887 q 8,0 16.5,14 8.5,14 8.5,26 0,17 -23,37 -28,25 -59.5,38 -31.5,13 -56.5,13 -4,0 -7.5,-2 -3.5,-2 -3.5,-7 0,-5 9,-9 22,-10 49.5,-34 27.5,-24 51.5,-65 5,-11 15,-11 z m -83,239 q 5,-22 11.5,-37 6.5,-15 15.5,-24 9,-9 21.5,-14 12.5,-5 29.5,-7 22,-3 36,-10 7,-4 12,-7 l 6,12 q -5,2 -9,6 -4,3 -9,8 -5,5 -10,11 -14,19 -24,42 -10,23 -21,65 -5,17 -10,44 -5,27 -11,57.5 -6,30.5 -11.5,62 -5.5,31.5 -10.5,58.5 -28,149 -77.5,271 -49.5,122 -122,209.5 Q 910,1961 815.5,2009 721,2057 603,2057 532,2057 472.5,2035.5 413,2014 371,1972 q -8,1 -16.5,1 H 338 q -75,0 -137,-18 Q 139,1937 94.5,1904.5 50,1872 25,1827 0,1782 0,1728 q 0,-45 16,-80 16,-35 41,-59.5 25,-24.5 56,-37.5 31,-13 61,-13 35,0 48.5,8 13.5,8 13.5,22 0,11 -8,18.5 -8,7.5 -18,7.5 -10,0 -16,-4.5 -6,-4.5 -10.5,-10.5 -4.5,-6 -8.5,-10.5 -4,-4.5 -10,-4.5 -23,0 -48.5,10 -25.5,10 -46.5,30.5 -21,20.5 -35,51 -14,30.5 -14,72.5 0,48 23,89 23,41 63.5,70.5 40.5,29.5 95,46 54.5,16.5 118.5,16.5 8,0 15,-0.5 7,-0.5 14,-0.5 -29,-36 -45,-83.5 -16,-47.5 -16,-104.5 0,-67 21,-128.5 21,-61.5 60.5,-108.5 39.5,-47 95.5,-74.5 56,-27.5 125,-27.5 40,0 75.5,11.5 35.5,11.5 62.5,34 27,22.5 42.5,55 15.5,32.5 15.5,75.5 0,75 -32,138 -32,63 -83.5,110 -51.5,47 -118,77.5 Q 487,1954 418,1966 q 66,36 165,36 100,0 179.5,-48.5 Q 842,1905 904,1822 q 62,-83 109.5,-194 47.5,-111 84.5,-236 11,-38 25,-88.5 14,-50.5 22,-91.5 -29,32 -63.5,53.5 -34.5,21.5 -61.5,21.5 -23,0 -41,-13.5 -18,-13.5 -18,-40.5 0,-16 8.5,-35.5 8.5,-19.5 18.5,-38.5 10,-19 18.5,-37 8.5,-18 8.5,-33 0,-10 -7,-10 -5,0 -11,4 -6,4 -12,9 -7,6 -15,13 l -8,-9 q 6,-6 17.5,-15.5 11.5,-9.5 25,-19 13.5,-9.5 28,-16.5 14.5,-7 26.5,-7 22,0 33,9 11,9 11,24 0,15 -8,35 -8,20 -17,41 -9,21 -17,42 -8,21 -8,38 0,17 15,17 14,0 28,-10.5 14,-10.5 36,-33.5 13,-14 20,-29.5 7,-15.5 14,-44.5 z m -856,635 q 0,63 19.5,108.5 19.5,45.5 56.5,75.5 66,-10 126.5,-39.5 60.5,-29.5 106.5,-75 46,-45.5 73,-104.5 27,-59 27,-128 0,-73 -32,-113.5 -32,-40.5 -98,-40.5 -63,0 -114.5,26 -51.5,26 -88,69.5 -36.5,43.5 -56.5,101 -20,57.5 -20,120.5 z"></path></svg>
