<?xml version="1.0" encoding="UTF-8" standalone="no"?>
<svg xmlns="http://www.w3.org/2000/svg" width="4558" height="2057"><path id="path333" d="m 730,1497 q -49,0 -102,17 -53,17 -107.5,42 -54.5,25 -109.5,54.5 -55,29.5 -109,54.5 -54,25 -105.5,42 -51.5,17 -98.5,17 -17,0 -34.5,-3.5 Q 46,1717 32,1708 q -14,-9 -23,-24 -9,-15 -9,-38 0,-39 17,-70 17,-31 43.5,-52.5 26.5,-21.5 57.5,-33 31,-11.5 59,-11.5 29,0 49.5,14.5 20.5,14.5 20.5,35.5 0,17 -10.5,30 -10.5,13 -27.5,13 -14,0 -24,-7.5 -10,-7.5 -10,-18.5 0,-14 9,-22 9,-8 9,-18 0,-12 -10,-12 -20,0 -37,12 -17,12 -30,31 -13,19 -20,44 -7,25 -7,50 0,34 13.5,48.5 13.5,14.5 33.5,14.5 38,0 83,-16 45,-16 95,-40 50,-24 103.5,-52 53.5,-28 108,-52 54.5,-24 109.5,-40 55,-16 108,-16 40,0 78,9 38,9 67.5,28.5 29.5,19.5 47.5,50.5 18,31 18,76 0,75 -37,149 -37,74 -98,133 -61,59 -139.5,96 -78.5,37 -162.5,37 -47,0 -87,-8 -40,-8 -69.5,-25.5 -29.5,-17.5 -46.5,-44 -17,-26.5 -17,-63.5 0,-61 34.5,-113 34.5,-52 85.5,-89 51,-37 108.5,-58 57.5,-21 103.5,-21 43,0 73,19.5 30,19.5 30,65.5 0,21 -7,35 -7,14 -21,14 -9,0 -16.5,-5.5 -7.5,-5.5 -7.5,-16.5 0,-8 4.5,-12.5 4.5,-4.5 9.5,-9 5,-4.5 9.5,-9.5 4.5,-5 4.5,-14 0,-22 -21.5,-37 -21.5,-15 -57.5,-15 -42,0 -89,22 -47,22 -86.5,58.5 -39.5,36.5 -65.5,83.5 -26,47 -26,97 0,32 12,56.5 12,24.5 34,41 22,16.5 51.5,24.5 29.5,8 65.5,8 73,0 137.5,-35.5 Q 727,1970 775,1913 q 48,-57 76,-127.5 28,-70.5 28,-139.5 0,-39 -11.5,-67 -11.5,-28 -31.5,-46 -20,-18 -47.5,-27 -27.5,-9 -58.5,-9 z m -545,-48 q -9,0 -22,-13 -13,-13 -24,-30 -11,-17 -19,-33.5 -8,-16.5 -8,-23.5 0,-9 10,-9 4,0 11.5,9.5 7.5,9.5 17.5,21 10,11.5 21,21 11,9.5 22,9.5 15,0 31,-9.5 16,-9.5 30.5,-21.5 14.5,-12 24.5,-21.5 10,-9.5 13,-9.5 10,0 10,9 0,5 -14.5,21.5 -14.5,16.5 -34,34 -19.5,17.5 -39.5,31.5 -20,14 -30,14 z"></path></svg>
