<?xml version="1.0" encoding="UTF-8" standalone="no"?>
<svg xmlns="http://www.w3.org/2000/svg" width="4558" height="2057"><path id="path455" d="m 706,1176 q -12,66 -27,146 -15,80 -37.5,164.5 Q 619,1571 589,1654 q -30,83 -72,153 67,28 138,56.5 71,28.5 144,51.5 73,23 146,37.5 73,14.5 144,14.5 96,0 167.5,-19.5 71.5,-19.5 119,-50.5 47.5,-31 71,-68 23.5,-37 23.5,-73 0,-28 -14,-58 -73,26 -145,54.5 -72,28.5 -141,52.5 -69,24 -134.5,39.5 Q 970,1860 911,1860 q -31,0 -64,-7 -33,-7 -60.5,-22 -27.5,-15 -45,-37.5 Q 724,1771 724,1740 q 0,-46 35,-85.5 35,-39.5 93,-68 58,-28.5 133,-44.5 75,-16 155,-16 58,0 110,10.5 52,10.5 95,29.5 43,19 76.5,45 33.5,26 54.5,56 89,-29 182.5,-50 93.5,-21 191.5,-21 59,0 106.5,14.5 47.5,14.5 80.5,39.5 33,25 51,59 18,34 18,73 0,59 -27,109.5 -27,50.5 -71.5,87 -44.5,36.5 -101.5,57.5 -57,21 -118,21 -46,0 -84.5,-10 -38.5,-10 -66,-27.5 -27.5,-17.5 -43,-40 -15.5,-22.5 -15.5,-48.5 0,-25 16,-48 16,-23 41.5,-40 25.5,-17 57,-27 31.5,-10 63.5,-10 51,0 74.5,20 23.5,20 23.5,51 0,16 -7.5,29.5 -7.5,13.5 -20.5,13.5 -8,0 -14.5,-5 -6.5,-5 -6.5,-14 0,-6 3.5,-10.5 3.5,-4.5 7.5,-8.5 4,-4 7.5,-8.5 3.5,-4.5 3.5,-10.5 0,-18 -14,-31.5 -14,-13.5 -53,-13.5 -27,0 -50,10 -23,10 -40.5,26 -17.5,16 -27.5,36.5 -10,20.5 -10,40.5 0,22 9.5,42.5 9.5,20.5 28.5,36.5 19,16 47.5,25.5 28.5,9.5 67.5,9.5 57,0 102,-20.5 45,-20.5 77,-54.5 32,-34 49,-78 17,-44 17,-92 0,-36 -11.5,-69 -11.5,-33 -37,-58 -25.5,-25 -66,-40 -40.5,-15 -98.5,-15 -81,0 -163.5,19.5 -82.5,19.5 -167.5,48.5 20,37 20,76 0,47 -24,97.5 -24,50.5 -75,92.5 -51,42 -129.5,69.5 -78.5,27.5 -187.5,27.5 -81,0 -159.5,-19 -78.5,-19 -154,-49 -75.5,-30 -146.5,-67 -71,-37 -137,-72 -27,40 -59.5,73.5 -32.5,33.5 -71,57.5 -38.5,24 -83,37 -44.5,13 -96.5,13 -38,0 -71.5,-11 Q 79,2001 54,1981 29,1961 14.5,1932 0,1903 0,1867 q 0,-36 15.5,-65 15.5,-29 41.5,-49 26,-20 60.5,-31 34.5,-11 72.5,-11 50,0 111.5,18 61.5,18 132.5,45 40,-68 71,-148.5 31,-80.5 53.5,-161.5 22.5,-81 38.5,-156 16,-75 27,-132 h -22 l 9,-17 h 17 q 3,-13 7,-28 3,-13 7.5,-28.5 4.5,-15.5 9.5,-32.5 9,-30 25,-51 16,-21 34.5,-34 18.5,-13 37.5,-19 19,-6 35,-6 31,0 48,16 17,16 17,34 0,17 -10,31 -10,14 -31,14 -15,0 -23.5,-7.5 -8.5,-7.5 -8.5,-18.5 0,-16 9.5,-24.5 9.5,-8.5 9.5,-17.5 0,-12 -9,-12 -22,0 -34.5,26 -12.5,26 -24.5,76 -3,11 -6,25 -3,14 -5,27 l -6,30 h 68 l -10,17 z m 267,646 q 46,0 100,-13.5 54,-13.5 113.5,-34.5 59.5,-21 124.5,-46.5 65,-25.5 134,-49.5 -18,-28 -48,-52.5 -30,-24.5 -70,-43 -40,-18.5 -88,-29 -48,-10.5 -102,-10.5 -74,0 -135,18.5 -61,18.5 -104.5,47 -43.5,28.5 -68,62 -24.5,33.5 -24.5,63.5 0,43 45,65.5 45,22.5 123,22.5 z m -810,140 q 80,0 142.5,-44.5 Q 368,1873 416,1802 q -66,-32 -124,-53 -58,-21 -109,-21 -30,0 -57.5,10 -27.5,10 -48.5,28 -21,18 -34,43.5 -13,25.5 -13,55.5 0,25 10.5,43.5 10.5,18.5 28.5,30.5 18,12 42,17.5 24,5.5 52,5.5 z"></path></svg>
