<?xml version="1.0" encoding="UTF-8" standalone="no"?>
<svg xmlns="http://www.w3.org/2000/svg" width="4558" height="2057"><path id="path931" d="m 1015,1179 q 77,0 151,15 74,15 144.5,38 70.5,23 137.5,52 67,29 130,57 34,-41 72.5,-75.5 38.5,-34.5 81,-59.5 42.5,-25 91,-39 48.5,-14 102.5,-14 87,0 134,42 47,42 47,106 0,39 -17,69.5 -17,30.5 -45,51.5 -28,21 -64,32 -36,11 -74,11 -63,0 -144,-22 -81,-22 -175,-53 -50,60 -95,131 -45,71 -89,145 -44,74 -90,146 -46,72 -97,133 11,32 22.5,52 11.5,20 27.5,20 9,0 18.5,-4.5 9.5,-4.5 17.5,-10.5 10,-6 19,-15 l 7,8 q -17,18 -35,31 -15,12 -33.5,21.5 -18.5,9.5 -36.5,9.5 -29,0 -48,-10 -19,-10 -31,-44 -20,18 -32.5,28.5 -12.5,10.5 -22,16 -9.5,5.5 -18,7.5 -8.5,2 -18.5,2 -12,0 -24,-6.5 -12,-6.5 -12,-23.5 0,-17 12.5,-27.5 12.5,-10.5 27.5,-10.5 13,0 21,6.5 8,6.5 19,6.5 10,0 17.5,-2 7.5,-2 23.5,-14 -5,-17 -9,-37 -4,-20 -9,-43 -7,-29 -12,-40.5 -5,-11.5 -18,-11.5 -4,0 -10.5,4 -6.5,4 -12.5,9 -8,5 -16,12 l -8,-9 q 6,-5 16.5,-15 10.5,-10 23.5,-19.5 13,-9.5 27,-16.5 14,-7 25,-7 26,0 39,18 13,18 25,58 l 11,40 q 42,-56 82,-125 40,-69 81,-142 41,-73 84,-146 43,-73 92,-137 -63,-21 -129.5,-41.5 -66.5,-20.5 -134,-37 -67.5,-16.5 -135,-27 Q 1083,1262 1017,1262 q -96,0 -167.5,19.5 -71.5,19.5 -119,51 -47.5,31.5 -71,70 -23.5,38.5 -23.5,77.5 0,28 14,58 73,-26 145,-54.5 72,-28.5 141,-52 69,-23.5 134,-39 65,-15.5 125,-15.5 32,0 65.5,7.5 33.5,7.5 61,22 27.5,14.5 45,37 17.5,22.5 17.5,52.5 0,47 -35.5,86 -35.5,39 -94,67.5 -58.5,28.5 -133.5,44.5 -75,16 -155,16 -57,0 -109,-10.5 -52,-10.5 -95.5,-29.5 -43.5,-19 -77,-45 -33.5,-26 -54.5,-57 -89,30 -182.5,51 -93.5,21 -191.5,21 -59,0 -106,-16 -47,-16 -80.5,-43 Q 36,1554 18,1518.5 0,1483 0,1444 0,1385 26.5,1336 53,1287 97,1252 141,1217 198.5,1197.5 256,1178 318,1178 q 48,0 86.5,10.5 38.5,10.5 65.5,27.5 27,17 42,40.5 15,23.5 15,48.5 0,26 -14.5,50 -14.5,24 -38,43 -23.5,19 -53.5,30.5 -30,11.5 -62,11.5 -51,0 -79.5,-24.5 Q 251,1391 251,1359 q 0,-18 8.5,-30.5 8.5,-12.5 19.5,-12.5 8,0 14.5,5 6.5,5 6.5,14 0,6 -3.5,10.5 -3.5,4.5 -7.5,8.5 -4,4 -7.5,8.5 -3.5,4.5 -3.5,10.5 0,18 19.5,36.5 19.5,18.5 57.5,18.5 26,0 48,-11.5 22,-11.5 37.5,-29.5 15.5,-18 24,-40 8.5,-22 8.5,-42 0,-22 -9,-42.5 -9,-20.5 -28,-36.5 -19,-16 -47.5,-26 -28.5,-10 -68.5,-10 -56,0 -101.5,19 -45.5,19 -77.5,51.5 -32,32.5 -49,75 -17,42.5 -17,90.5 0,36 12,70.5 12,34.5 37.5,61.5 25.5,27 66,43 40.5,16 97.5,16 81,0 163.5,-19.5 Q 534,1578 618,1549 q -19,-36 -19,-75 0,-46 25,-98 25,-52 76,-96 51,-44 129.5,-72.5 Q 908,1179 1015,1179 Z m 118,234 q -47,0 -100.5,13.5 -53.5,13.5 -113,34.5 -59.5,21 -124.5,47 -65,26 -134,50 18,28 48.5,52.5 30.5,24.5 70,42.5 39.5,18 87.5,28.5 48,10.5 102,10.5 72,0 132.5,-17.5 60.5,-17.5 104.5,-45 44,-27.5 68.5,-61 24.5,-33.5 24.5,-66.5 0,-45 -44.5,-67 -44.5,-22 -121.5,-22 z m 943,-102 q 0,-53 -41,-78 -41,-25 -113,-25 -48,0 -90,11 -42,11 -79.5,30.5 -37.5,19.5 -72,47 -34.5,27.5 -65.5,61.5 85,38 159,64 74,26 139,26 29,0 58,-8.5 29,-8.5 52.5,-25.5 23.5,-17 38,-42.5 14.5,-25.5 14.5,-60.5 z"></path></svg>
