<?xml version="1.0" encoding="UTF-8" standalone="no"?>
<svg xmlns="http://www.w3.org/2000/svg" width="4558" height="2057"><path id="path446" d="m 675,1328 q -16,83 -31.5,161 -15.5,78 -35,148.5 -19.5,70.5 -43.5,132 -24,61.5 -56,110.5 -25,39 -55.5,71.5 -30.5,32.5 -66.5,56 -36,23.5 -78.5,36.5 -42.5,13 -91.5,13 -50,0 -90,-14.5 Q 87,2028 58.5,2004 30,1980 15,1948.5 0,1917 0,1884 0,1844 14,1813.5 28,1783 49.5,1762.5 71,1742 97,1732 q 26,-10 50,-10 39,0 64.5,19 25.5,19 25.5,56 0,36 -20.5,58.5 -20.5,22.5 -47.5,22.5 -17,0 -29.5,-8 -12.5,-8 -12.5,-21 0,-10 7,-17.5 7,-7.5 18,-7.5 8,0 12,4.5 4,4.5 7,10 3,5.5 5.5,10 2.5,4.5 8.5,4.5 9,0 24,-13.5 15,-13.5 15,-42.5 0,-32 -22,-47.5 -22,-15.5 -54,-15.5 -24,0 -45.5,9.5 -21.5,9.5 -37.5,27 -16,17.5 -25.5,42 -9.5,24.5 -9.5,55.5 0,56 38.5,90.5 38.5,34.5 118.5,34.5 67,0 130,-36.5 63,-36.5 108,-110.5 33,-55 57,-114.5 24,-59.5 43.5,-124 19.5,-64.5 35,-134 Q 576,1404 593,1328 h -22 l 9,-17 h 17 q 3,-13 7,-28 3,-13 7.5,-28.5 4.5,-15.5 9.5,-32.5 9,-30 25,-51 16,-21 34.5,-34 18.5,-13 37.5,-19 19,-6 35,-6 31,0 48,16 17,16 17,34 0,17 -10,31 -10,14 -31,14 -15,0 -23.5,-7.5 -8.5,-7.5 -8.5,-18.5 0,-16 9.5,-24.5 9.5,-8.5 9.5,-17.5 0,-12 -9,-12 -22,0 -34.5,26 -12.5,26 -24.5,76 -3,11 -6,25 -3,14 -5,27 l -6,30 h 68 l -10,17 z"></path></svg>
