<?xml version="1.0" encoding="UTF-8" standalone="no"?>
<svg xmlns="http://www.w3.org/2000/svg" width="4558" height="2057"><path id="path536" d="m 207,1989 q 89,0 161.5,-41.5 Q 441,1906 498,1833 q 57,-73 98.5,-173 41.5,-100 68.5,-218 5,-21 11.5,-54 6.5,-33 13,-69 6.5,-36 12.5,-69 6,-33 10,-54 5,-22 13.5,-34.5 Q 734,1149 749,1140 h -7.5 q 0,0 -10.5,-1 -9,0 -17,-2 -4,-1 -7,-2 l 8,-12 8,2 q 5,1 21,1 17,0 43,-4.5 26,-4.5 58,-18.5 l 5,9 q -8,6 -15,13 -6,6 -13.5,15.5 -7.5,9.5 -13.5,20.5 -13,23 -19,43.5 -6,20.5 -12,45.5 -9,35 -18,87.5 -9,52.5 -19,106.5 -25,132 -69.5,244.5 -44.5,112.5 -108.5,194 -64,81.5 -147,128 -83,46.5 -185,46.5 -53,0 -95.5,-15 Q 92,2027 62,2001 32,1975 16,1940 0,1905 0,1865 q 0,-61 30,-114 30,-53 75.5,-91.5 45.5,-38.5 100,-60.5 54.5,-22 104.5,-22 54,0 87,26 33,26 33,72 0,29 -11,54 -11,25 -29.5,44 -18.5,19 -42,29.5 -23.5,10.5 -48.5,10.5 -27,0 -44,-11 -17,-11 -17,-25 0,-11 7.5,-17.5 7.5,-6.5 15.5,-6.5 12,0 18,6 6,6 10.5,12.5 4.5,6.5 9.5,12.5 5,6 16,6 16,0 34,-8.5 18,-8.5 32,-24 14,-15.5 23.5,-36.5 9.5,-21 9.5,-45 0,-40 -29.5,-62 -29.5,-22 -74.5,-22 -49,0 -97.5,21 -48.5,21 -86.5,55.5 -38,34.5 -62,80 -24,45.5 -24,93.5 0,69 44.5,108 44.5,39 122.5,39 z m 574,-957 q 0,-10 5,-21.5 5,-11.5 13,-20.5 8,-9 17.5,-15 9.5,-6 18.5,-6 13,0 22,8.5 9,8.5 9,22.5 0,11 -4.5,22.5 -4.5,11.5 -11.5,21.5 -7,10 -16.5,16 -9.5,6 -18.5,6 -13,0 -23.5,-9 -10.5,-9 -10.5,-25 z"></path></svg>
