<?xml version="1.0" encoding="UTF-8" standalone="no"?>
<svg xmlns="http://www.w3.org/2000/svg" width="4558" height="2057"><path id="path281" d="m 189,1925 q -6,11 -17.5,24 -11.5,13 -26,24 -14.5,11 -31,19 -16.5,8 -33.5,8 -35,0 -58,-20 -23,-20 -23,-54 0,-36 16,-67 16,-31 40,-54 24,-23 53,-36.5 29,-13.5 56,-13.5 29,0 44,12.5 15,12.5 17,31.5 5,-15 18,-24.5 13,-9.5 39,-13.5 12,-2 21,-4.5 9,-2.5 15,-5.5 7,-4 12,-7 l 6,12 q -7,4 -14,10 -6,5 -13,13 -7,8 -13,20 -6,12 -13.5,29 -7.5,17 -13.5,37 -6,20 -10.5,41 -4.5,21 -4.5,40 0,39 22,61.5 22,22.5 62,22.5 69,0 136,-35.5 67,-35.5 119.5,-95 52.5,-59.5 84.5,-136 32,-76.5 32,-158.5 0,-61 -15.5,-104 -15.5,-43 -43,-70 -27.5,-27 -65,-39 -37.5,-12 -80.5,-12 -47,0 -86.5,15.5 -39.5,15.5 -67.5,40 -28,24.5 -43.5,56.5 -15.5,32 -15.5,65 0,35 10.5,59.5 10.5,24.5 28.5,40.5 18,16 41.5,23.5 23.5,7.5 50.5,7.5 25,0 42.5,-6.5 17.5,-6.5 28,-16.5 10.5,-10 15.5,-22 5,-12 5,-23 0,-6 -2,-10 -2,-4 -5,-8 -3,-4 -5,-9 -2,-5 -2,-14 0,-12 7.5,-20 7.5,-8 20.5,-8 17,0 25,13 8,13 8,28 0,23 -10.5,43 -10.5,20 -29,36 -18.5,16 -43,25 -24.5,9 -51.5,9 -33,0 -60.5,-9.5 -27.5,-9.5 -48,-27.5 -20.5,-18 -32,-45.5 Q 277,1595 277,1559 q 0,-37 17,-73 17,-36 48.5,-64.5 31.5,-28.5 76.5,-46 45,-17.5 100,-17.5 51,0 98,13.5 47,13.5 83.5,43 36.5,29.5 58.5,76 22,46.5 22,112.5 0,59 -22,116 -22,57 -58,107.5 -36,50.5 -83,93 -47,42.5 -98,73 -51,30.5 -101.5,47.5 -50.5,17 -93.5,17 -29,0 -54.5,-7.5 Q 245,2042 226,2028 q -19,-14 -29.5,-34 -10.5,-20 -10.5,-46 0,-10 1,-15 z m -74,44 q 9,0 19.5,-6.5 10.5,-6.5 21,-17.5 10.5,-11 20,-24.5 9.5,-13.5 15.5,-27.5 3,-7 6.5,-17.5 3.5,-10.5 6.5,-21 3,-10.5 5,-20.5 2,-10 2,-16 0,-18 -7.5,-31.5 Q 196,1773 175,1773 q -18,0 -34,14 -16,14 -27.5,35.5 -11.5,21.5 -18,47 -6.5,25.5 -6.5,47.5 0,28 6,40 6,12 20,12 z m 120,-363 q 8,0 16.5,14 8.5,14 8.5,26 0,17 -23,37 -28,25 -59.5,38 -31.5,13 -56.5,13 -4,0 -7.5,-2 -3.5,-2 -3.5,-7 0,-5 9,-9 22,-10 49.5,-34 27.5,-24 51.5,-65 5,-11 15,-11 z"></path></svg>
