<?xml version="1.0" encoding="UTF-8" standalone="no"?>
<svg xmlns="http://www.w3.org/2000/svg" width="4558" height="2057"><path id="path557" d="m 425,1682 q 25,0 50,-2 25,-2 51,-5 10,-32 20,-63.5 10,-31.5 21,-63.5 38,-114 89,-191.5 51,-77.5 106.5,-125 55.5,-47.5 110.5,-68 55,-20.5 102,-20.5 38,0 66,11 28,11 46,29 18,18 27,41 9,23 9,47 0,68 -42.5,131.5 -42.5,63.5 -113.5,117 -71,53.5 -163,94.5 -92,41 -191,63 -20,58 -38.5,115 -18.5,57 -34.5,111 38,-42 72.5,-71.5 34.5,-29.5 57.5,-29.5 19,0 28.5,11.5 9.5,11.5 9.5,25.5 0,15 -9,30 -9,15 -31,15 -14,0 -21.5,-8 -7.5,-8 -7.5,-20 0,-9 -5,-9 -5,0 -13,4.5 -8,4.5 -16.5,11.5 -8.5,7 -16.5,14 -8,7 -12,13 7,16 15,34 7,15 16,33.5 9,18.5 19,35.5 9,17 21.5,30.5 12.5,13.5 33.5,18.5 l 1,9 h -57 q -23,0 -43,-8 -20,-8 -28,-25 l -30,-64 q -11,33 -16,55 -5,22 -5,29 0,15 -14,15 -8,0 -21,-2 -13,-2 -26,-2 -14,0 -24,4 -10,4 -13,4 -4,0 -4,-4 0,-3 6,-9 6,-6 12,-18 6,-10 12,-28 6,-18 17,-54 11,-36 28,-96 17,-60 44,-154 -29,4 -57.5,6 -28.5,2 -56.5,2 -77,0 -150,-15.5 Q 183,1671 126,1635 69,1599 34.5,1539.5 0,1480 0,1393 q 0,-92 39,-172 39,-80 103,-139.5 64,-59.5 145,-93.5 81,-34 165,-34 101,0 159,43.5 58,43.5 58,118.5 0,47 -25.5,94 -25.5,47 -66.5,85 -41,38 -93.5,61.5 Q 431,1380 377,1380 q -56,0 -87.5,-25 -31.5,-25 -31.5,-68 0,-20 8.5,-35.5 8.5,-15.5 22.5,-15.5 8,0 13.5,5 5.5,5 5.5,13 0,7 -4.5,11.5 -4.5,4.5 -10,9 -5.5,4.5 -10,10 -4.5,5.5 -4.5,14.5 0,30 25,47.5 25,17.5 73,17.5 48,0 91,-21.5 43,-21.5 75.5,-56 32.5,-34.5 51.5,-78.5 19,-44 19,-88 0,-66 -39,-108.5 Q 536,969 451,969 q -50,0 -99,15 -49,15 -93,43 -44,28 -81.5,66.5 -37.5,38.5 -65,85 -27.5,46.5 -43,100 Q 54,1332 54,1389 q 0,83 30.5,139 30.5,56 82,90.5 51.5,34.5 118.5,49 67,14.5 140,14.5 z m 195,-25 q 91,-22 176.5,-60.5 85.5,-38.5 152,-88 66.5,-49.5 106.5,-106.5 40,-57 40,-116 0,-37 -22.5,-59.5 -22.5,-22.5 -65.5,-22.5 -42,0 -90,20 -48,20 -98,71 -50,51 -100.5,139 -50.5,88 -98.5,223 z"></path></svg>
