<?xml version="1.0" encoding="UTF-8" standalone="no"?>
<svg xmlns="http://www.w3.org/2000/svg" width="4558" height="2057"><path id="path496" d="m 456,1888 q 15,-18 34,-33.5 19,-15.5 38,-27 19,-11.5 37,-18 18,-6.5 32,-6.5 18,0 32,9 14,9 14,30 0,18 -7,36 -7,18 -15.5,36 -8.5,18 -15.5,37 -7,19 -7,39 0,13 5,17 5,4 10,4 7,0 15,-4.5 8,-4.5 16,-10.5 9,-6 17,-15 l 8,8 q -16,18 -33,31 -15,12 -33,21.5 -18,9.5 -36,9.5 -23,0 -41.5,-10.5 Q 507,2030 507,2003 q 0,-20 8.5,-39.5 8.5,-19.5 19,-38.5 10.5,-19 19,-36 8.5,-17 8.5,-31 0,-15 -11,-15 -11,0 -36,14 -25,14 -56,52 -10,12 -18,31.5 -8,19.5 -14,39.5 -6,20 -9,36.5 -3,16.5 -3,21.5 0,15 -14,15 -8,0 -21,-2 -13,-2 -26,-2 -14,0 -24,4 -10,4 -13,4 -4,0 -4,-4 0,-3 6,-9 6,-6 12,-18 12,-21 20.5,-50 8.5,-29 19.5,-74 11,-43 21.5,-88 10.5,-45 23.5,-91 -73,0 -147,-18.5 -74,-18.5 -134,-58 Q 75,1607 37.5,1545.5 0,1484 0,1398 0,1322 27,1262 54,1202 97.5,1160.5 141,1119 196,1097 q 55,-22 111,-22 45,0 80,13 35,13 59,35 24,22 36.5,51 12.5,29 12.5,61 0,33 -11,60.5 -11,27.5 -30,48 -19,20.5 -45.5,32 -26.5,11.5 -56.5,11.5 -21,0 -38,-6.5 -17,-6.5 -29,-17.5 -12,-11 -18,-25 -6,-14 -6,-29 0,-10 5,-19.5 5,-9.5 17,-9.5 8,0 14,4.5 6,4.5 6,14.5 0,10 -5.5,16.5 -5.5,6.5 -5.5,15.5 0,6 3,13 3,7 10,13.5 7,6.5 18.5,11 11.5,4.5 29.5,4.5 27,0 49.5,-11 22.5,-11 39.5,-29.5 17,-18.5 26.5,-43 9.5,-24.5 9.5,-51.5 0,-63 -42.5,-98.5 Q 393,1104 318,1104 q -48,0 -91.5,21 -43.5,21 -77.5,59.5 -34,38.5 -54,92.5 -20,54 -20,120 0,76 27.5,134 27.5,58 75,97.5 47.5,39.5 110,59.5 62.5,20 132.5,20 27,-94 62,-184.5 35,-90.5 85,-160.5 50,-70 117.5,-113 67.5,-43 159.5,-43 46,0 85.5,16 39.5,16 69,45 29.5,29 46.5,68.5 17,39.5 17,87.5 0,62 -24,112.5 -24,50.5 -63.5,86.5 -39.5,36 -89.5,55.5 -50,19.5 -101,19.5 -41,0 -72,-10.5 -31,-10.5 -54,-28.5 -32,20 -71,34.5 -39,14.5 -84,22.5 -14,43 -25,86.5 -11,43.5 -22,85.5 z m 386,-617 q -63,0 -113,35.5 -50,35.5 -90.5,94.5 -40.5,59 -72.5,136.5 -32,77.5 -58,161.5 40,-8 73.5,-22.5 33.5,-14.5 59.5,-33.5 -32,-37 -32,-82 0,-51 23.5,-76.5 23.5,-25.5 55.5,-25.5 29,0 49,18.5 20,18.5 20,44.5 0,33 -22.5,66 -22.5,33 -62.5,62 20,15 48.5,24 28.5,9 63.5,9 46,0 90,-17 44,-17 78.5,-49 34.5,-32 55,-77 20.5,-45 20.5,-101 0,-78 -49,-123 -49,-45 -137,-45 z m -218,294 q 0,37 29,68 31,-25 47.5,-53 16.5,-28 16.5,-56 0,-46 -40,-46 -18,0 -35.5,21.5 Q 624,1521 624,1565 Z"></path></svg>
