<?xml version="1.0" encoding="UTF-8" standalone="no"?>
<svg xmlns="http://www.w3.org/2000/svg" width="4558" height="2057"><path id="path311" d="m 631,1859 q 9,-10 22,-18.5 13,-8.5 27,-15.5 14,-7 27.5,-11 13.5,-4 24.5,-4 27,0 50,18.5 23,18.5 23,59.5 0,31 -12,61.5 -12,30.5 -32,54.5 -20,24 -47,38.5 -27,14.5 -57,14.5 -36,0 -56,-16 -20,-16 -27,-33 -17,18 -31.5,27.5 -14.5,9.5 -27.5,14.5 -13,5 -23,6 -10,1 -17,1 v -7 q 14,-6 24,-22.5 10,-16.5 18,-41.5 8,-25 16,-57 8,-32 19,-70 12,-43 26,-92.5 14,-49.5 31,-102.5 17,-53 37,-108.5 20,-55.5 44,-109.5 -101,-29 -199,-52 -98,-23 -198,-23 -62,0 -111,11.5 -49,11.5 -83.5,34 -34.5,22.5 -53,55 Q 27,1504 27,1546 q 0,26 7,43.5 7,17.5 17,27.5 10,10 22,14 12,4 22,4 10,0 16.5,-4 6.5,-4 12,-9.5 5.5,-5.5 11,-9.5 5.5,-4 14.5,-4 26,0 26,25 0,14 -16,23 -16,9 -39,9 -18,0 -39,-7 -21,-7 -39,-23 -18,-16 -30,-41 -12,-25 -12,-60 0,-48 22,-91 22,-43 61.5,-75.5 39.5,-32.5 96,-52 Q 236,1296 305,1296 q 53,0 104,8.5 51,8.5 101.5,23 50.5,14.5 100.5,33 50,18.5 101,38.5 39,-80 89,-152 50,-72 114.5,-126 64.5,-54 144.5,-86 80,-32 179,-32 75,0 131,19 56,19 93.5,52 37.5,33 56.5,77.5 19,44.5 19,94.5 0,68 -27,122 -27,54 -74,92.5 -47,38.5 -110.5,59 Q 1264,1540 1190,1540 1076,1540 971.5,1518.5 867,1497 767,1469 q -22,51 -41,103 -19,52 -35.5,102 -16.5,50 -31,97 -14.5,47 -28.5,88 z m 620,-786 q -89,0 -160,28.5 -71,28.5 -127.5,77.5 -56.5,49 -100,113 -43.5,64 -77.5,136 95,37 195,65 100,28 208,28 69,0 127,-19 58,-19 100.5,-53.5 42.5,-34.5 66.5,-82.5 24,-48 24,-106 0,-42 -16,-76 -16,-34 -47.5,-59 -31.5,-25 -80,-38.5 Q 1315,1073 1251,1073 Z m -556,766 q -6,0 -16.5,4.5 -10.5,4.5 -22,13.5 -11.5,9 -22.5,22.5 -11,13.5 -17,31.5 -3,7 -6.5,18.5 -3.5,11.5 -7,23.5 -3.5,12 -6,23 -2.5,11 -2.5,16 0,24 14,32.5 14,8.5 27,8.5 16,0 30.5,-15.5 14.5,-15.5 26,-39 11.5,-23.5 18,-50 6.5,-26.5 6.5,-49.5 0,-40 -22,-40 z"></path></svg>
