<?xml version="1.0" encoding="UTF-8" standalone="no"?>
<svg xmlns="http://www.w3.org/2000/svg" width="4558" height="2057"><path id="path36" d="m 836,1950 q 0,7 5.5,8 5.5,1 9.5,1 11,0 23.5,-3 12.5,-3 18.5,-3 10,0 14,6 4,6 4,12 0,20 -13.5,36 -13.5,16 -34,27 -20.5,11 -44,17 -23.5,6 -42.5,6 -5,0 -15,-1 -10,-1 -20,-4 -10,-3 -17.5,-7 -7.5,-4 -7.5,-10 0,-8 6.5,-16 6.5,-8 13.5,-8 5,0 8,3.5 3,3.5 8.5,7.5 5.5,4 14,7.5 8.5,3.5 25.5,3.5 12,0 25.5,-3.5 13.5,-3.5 25,-9.5 11.5,-6 19.5,-14.5 8,-8.5 8,-18.5 0,-9 -10,-9 -16,0 -29.5,4.5 -13.5,4.5 -32.5,4.5 -5,0 -8.5,-4.5 -3.5,-4.5 -3.5,-9.5 l 10,-42 q -36,-4 -68.5,-18.5 -32.5,-14.5 -57,-39 -24.5,-24.5 -39.5,-59 -15,-34.5 -15,-79.5 -57,-6 -104,-22 -47,-16 -84,-39 -32,38 -76.5,62.5 Q 308,1761 252,1761 202,1761 156.5,1745 111,1729 76,1697 41,1665 20.5,1616 0,1567 0,1501 0,1425 28.5,1359 57,1293 105,1238.5 q 48,-54.5 111,-97 63,-42.5 132,-71.5 69,-29 140,-44 71,-15 135,-15 165,0 260,61 95,61 109,176 32,-13 61.5,-20 29.5,-7 55.5,-7 47,0 71,25.5 24,25.5 24,67.5 0,41 -17,85 -17,44 -47.5,87.5 -30.5,43.5 -73,84 -42.5,40.5 -94,73.5 -51.5,33 -110,56 -58.5,23 -120.5,32 0,77 36,117 36,40 90,40 34,0 66.5,-15 32.5,-15 60.5,-37 28,-22 50.5,-47 22.5,-25 37.5,-45 l 10,8 q -15,24 -40,53.5 -25,29.5 -57,56.5 -32,27 -71.5,46.5 Q 885,1929 841,1932 l -3,9 q 0,0 -2,9 z M 497,1502 q 0,38 -14.5,79.5 -14.5,41.5 -42.5,78.5 34,22 78.5,36.5 44.5,14.5 98.5,19.5 2,-48 16.5,-93 14.5,-45 37.5,-87 -66,-20 -105.5,-70 -39.5,-50 -39.5,-125 0,-39 14.5,-70.5 14.5,-31.5 37.5,-53 23,-21.5 51,-33 28,-11.5 55,-11.5 33,0 57,10 24,10 39,26.5 15,16.5 22,36.5 7,20 7,39 0,14 -8,27.5 -8,13.5 -21,13.5 -11,0 -21,-10 -10,-10 -10,-18 0,-15 7,-21.5 7,-6.5 7,-19.5 0,-11 -3,-22.5 -3,-11.5 -11.5,-20.5 -8.5,-9 -24,-15 -15.5,-6 -40.5,-6 -23,0 -48,10 -25,10 -45.5,28.5 -20.5,18.5 -34,45.5 -13.5,27 -13.5,61 0,72 38,118.5 38,46.5 99,64.5 26,-44 59.5,-83.5 33.5,-39.5 72,-73.5 38.5,-34 79,-61 40.5,-27 80.5,-45 -5,-53 -31.5,-94 Q 913,1123 869,1094.5 825,1066 764.5,1051.5 704,1037 631,1037 q -59,0 -123.5,16 -64.5,16 -127.5,45 -63,29 -120,71 -57,42 -100.5,93.5 Q 116,1314 90.5,1375 65,1436 65,1503 q 0,56 15.5,98.5 15.5,42.5 42,71 26.5,28.5 61.5,42.5 35,14 75,14 46,0 84,-19 38,-19 67,-49 -40,-29 -61,-64.5 -21,-35.5 -21,-73.5 0,-48 26,-78.5 26,-30.5 63,-30.5 34,0 57,22 23,22 23,66 z m 292,44 q -20,38 -32.5,80 -12.5,42 -14.5,86 59,-9 114,-30.5 55,-21.5 103,-52 48,-30.5 87.5,-67.5 39.5,-37 68,-77.5 28.5,-40.5 44,-81.5 15.5,-41 15.5,-79 0,-47 -58,-47 -25,0 -57,12 -32,12 -67,34 -6,44 -24.5,82 -18.5,38 -45.5,67 -27,29 -61,48.5 -34,19.5 -72,25.5 z m -438,-23 q 0,35 18.5,67 18.5,32 52.5,58 27,-32 41.5,-70 14.5,-38 14.5,-73 0,-38 -17.5,-55 -17.5,-17 -43.5,-17 -26,0 -46,24.5 -20,24.5 -20,65.5 z m 615,-182 q -46,33 -90,80.5 -44,47.5 -76,104.5 30,-7 56.5,-23.5 Q 883,1486 905,1462 927,1438 942.5,1407.5 958,1377 966,1341 Z"></path></svg>
