<?xml version="1.0" encoding="UTF-8" standalone="no"?>
<svg xmlns="http://www.w3.org/2000/svg" width="4558" height="2057"><path id="path229" d="m 974,1265 q -26,0 -60,13 59,31 89.5,76 30.5,45 30.5,104 0,32 -10.5,61 -10.5,29 -29,50.5 -18.5,21.5 -45,34.5 -26.5,13 -58.5,13 -33,0 -62.5,-9.5 Q 799,1598 776.5,1579 754,1560 741,1531.5 728,1503 728,1465 q 0,-60 32,-110 32,-50 80,-85 -47,-15 -103.5,-23 -56.5,-8 -124.5,-8 -72,0 -142,17.5 -70,17.5 -132.5,49 -62.5,31.5 -115,76 -52.5,44.5 -91,98 Q 93,1533 71.5,1594 50,1655 50,1720 q 0,74 22,132.5 22,58.5 62.5,99.5 40.5,41 98,63 57.5,22 127.5,22 73,0 129.5,-29.5 56.5,-29.5 95.5,-77.5 39,-48 59,-109 20,-61 20,-124 0,-51 -14.5,-90 Q 635,1568 609,1541.5 583,1515 546.5,1502 510,1489 466,1489 q -42,0 -80.5,15.5 -38.5,15.5 -68,42 -29.5,26.5 -46.5,62.5 -17,36 -17,77 0,36 12,63 12,27 31,44 19,17 43,25.5 24,8.5 49,8.5 22,0 39.5,-7.5 17.5,-7.5 29,-18.5 11.5,-11 17.5,-24 6,-13 6,-25 0,-5 -2,-8.5 -2,-3.5 -4.5,-6.5 -2.5,-3 -4.5,-7 -2,-4 -2,-11 0,-7 7,-15 7,-8 19,-8 13,0 19.5,11 6.5,11 6.5,23 0,18 -10,38.5 -10,20.5 -27,37 -17,16.5 -41.5,27.5 -24.5,11 -52.5,11 -29,0 -57,-10 -28,-10 -50.5,-30 -22.5,-20 -36,-50 -13.5,-30 -13.5,-71 0,-43 18.5,-81.5 18.5,-38.5 50.5,-67 32,-28.5 75.5,-45.5 43.5,-17 93.5,-17 47,0 90,14 43,14 75.5,42.5 32.5,28.5 51.5,72 19,43.5 19,102.5 0,64 -24,127.5 -24,63.5 -69,113.5 -45,50 -109.5,81.5 Q 439,2057 358,2057 284,2057 219,2035.5 154,2014 105,1971.5 56,1929 28,1866.5 0,1804 0,1721 0,1616 51.5,1524.5 103,1433 188.5,1365.5 274,1298 384,1259.5 494,1221 612,1221 q 75,0 137,8.5 62,8.5 112,25.5 41,-26 84.5,-40 43.5,-14 82.5,-14 53,0 89.5,19 36.5,19 60,52 23.5,33 34,78.5 10.5,45.5 11.5,98.5 46,-64 88,-114 42,-50 82,-84 55,-46 111,-46 21,0 37.5,9 16.5,9 16.5,26 0,14 -9,26 -9,12 -28,12 -10,0 -16,-3.5 -6,-3.5 -11.5,-7.5 -5.5,-4 -11,-7.5 -5.5,-3.5 -14.5,-3.5 -17,0 -32.5,4.5 -15.5,4.5 -35.5,19.5 -42,32 -84.5,85.5 -42.5,53.5 -91.5,122.5 0,87 4,145 4,58 11.5,93 7.5,35 18,49.5 10.5,14.5 24.5,14.5 15,0 30,-7 15,-7 27,-16 14,-11 27,-24 l 7,12 q -19,22 -40,39 -18,15 -41.5,27 -23.5,12 -48.5,12 -42,0 -67,-11.5 -25,-11.5 -38,-31 -13,-19.5 -17,-45.5 -4,-26 -4,-56 0,-18 1,-30.5 1,-12.5 3,-30.5 -23,31 -50.5,66.5 -27.5,35.5 -58,70.5 -30.5,35 -63,67 -32.5,32 -65.5,57 -33,25 -66,39.5 -33,14.5 -64,14.5 -27,0 -45.5,-9 -18.5,-9 -18.5,-28 0,-18 11.5,-30.5 11.5,-12.5 30.5,-12.5 9,0 15,2.5 6,2.5 12.5,5.5 6.5,3 14.5,5.5 8,2.5 20,2.5 38,0 79.5,-25.5 41.5,-25.5 83.5,-66.5 42,-41 84,-93 42,-52 81,-105 1,-29 1,-59 v -53 q 0,-47 -8.5,-86 -8.5,-39 -26.5,-67 -18,-28 -46.5,-43.5 Q 1013,1265 974,1265 Z m 41,194 q 0,-54 -32,-97 -32,-43 -93,-72 -22,12 -42,29.5 -20,17.5 -35.5,40.5 -15.5,23 -24.5,51 -9,28 -9,61 0,62 31.5,94 31.5,32 86.5,32 24,0 45,-11 21,-11 37.5,-30 16.5,-19 26,-44 9.5,-25 9.5,-54 z"></path></svg>
