<?xml version="1.0" encoding="UTF-8" standalone="no"?>
<svg xmlns="http://www.w3.org/2000/svg" width="4558" height="2057"><path id="path959" d="m 657,799 q 8,0 16.5,14 8.5,14 8.5,26 0,17 -23,37 -28,25 -59.5,38 -31.5,13 -56.5,13 -4,0 -7.5,-2 -3.5,-2 -3.5,-7 0,-5 9,-9 22,-10 49.5,-34 27.5,-24 51.5,-65 5,-11 15,-11 z m 42,530 q -25,0 -50,1.5 -25,1.5 -51,5.5 -33,134 -84.5,234.5 -51.5,100.5 -112,168 Q 341,1806 275.5,1840 210,1874 149,1874 112,1874 84,1862.5 56,1851 37.5,1832 19,1813 9.5,1789 0,1765 0,1740 0,1673 42.5,1609.5 85,1546 156,1492.5 227,1439 319,1398 q 92,-41 191,-64 22,-69 34.5,-122.5 12.5,-53.5 20.5,-92.5 -29,32 -63.5,53.5 -34.5,21.5 -61.5,21.5 -23,0 -41,-13.5 -18,-13.5 -18,-40.5 0,-16 8.5,-35.5 8.5,-19.5 18.5,-38.5 10,-19 18.5,-37 8.5,-18 8.5,-33 0,-10 -7,-10 -5,0 -11,4 -6,4 -12,9 -7,6 -15,13 l -8,-9 q 6,-6 17.5,-15.5 11.5,-9.5 25,-19 13.5,-9.5 28,-16.5 14.5,-7 26.5,-7 22,0 33,9 11,9 11,24 0,15 -8,35 -8,20 -17,41 -9,21 -17,41.5 -8,20.5 -8,36.5 0,19 11,19 14,0 30,-10.5 16,-10.5 38,-33.5 13,-14 20,-29.5 7,-15.5 14,-44.5 5,-22 11.5,-37 6.5,-15 15.5,-24 9,-9 21.5,-14 12.5,-5 29.5,-7 22,-3 36,-10 7,-4 12,-7 l 6,12 q -6,2 -10,6 -10,6 -18,19 -14,20 -24,42.5 -10,22.5 -21,64.5 -8,29 -16.5,93 -8.5,64 -26.5,146 29,-4 58,-6 29,-2 58,-2 79,0 152,15.5 73,15.5 129.5,51.5 56.5,36 90,95.5 33.5,59.5 33.5,146.5 0,61 -18,117.5 -18,56.5 -49,105.5 -31,49 -74,89 -43,40 -93,68 -50,28 -105.5,43.5 Q 728,2057 672,2057 q -103,0 -162,-40 -59,-40 -59,-112 0,-51 25.5,-100 25.5,-49 67.5,-87.5 42,-38.5 95,-62.5 53,-24 108,-24 58,0 88.5,25.5 30.5,25.5 30.5,67.5 0,20 -8.5,35.5 -8.5,15.5 -22.5,15.5 -8,0 -13.5,-5 -5.5,-5 -5.5,-13 0,-7 4.5,-11.5 4.5,-4.5 10.5,-9 6,-4.5 10.5,-10 4.5,-5.5 4.5,-14.5 0,-29 -24.5,-47 -24.5,-18 -74.5,-18 -47,0 -90,22.5 -43,22.5 -75.5,58 -32.5,35.5 -52,78.5 -19.5,43 -19.5,85 0,66 44,107 44,41 128,41 75,0 145,-33 70,-33 123.5,-89.5 53.5,-56.5 86,-132.5 32.5,-76 32.5,-162 0,-83 -32,-139 -32,-56 -84,-90.5 -52,-34.5 -118.5,-49 Q 768,1329 699,1329 Z m -195,25 q -91,22 -176.5,60 -85.5,38 -152,87.5 Q 109,1551 69,1608 q -40,57 -40,117 0,32 22,57 22,25 66,25 58,0 113,-33 55,-33 104.5,-92.5 49.5,-59.5 92.5,-143 43,-83.5 77,-184.5 z"></path></svg>
