<?xml version="1.0" encoding="UTF-8" standalone="no"?>
<svg xmlns="http://www.w3.org/2000/svg" width="4558" height="2057"><path id="path313" d="m 564,1857 q 9,-10 21.5,-18.5 12.5,-8.5 26.5,-15 14,-6.5 27,-10 13,-3.5 24,-3.5 27,0 50,18.5 23,18.5 23,59.5 0,31 -12,61.5 -12,30.5 -32,54.5 -20,24 -47,38.5 -27,14.5 -57,14.5 -36,0 -56,-16 -20,-16 -27,-33 -17,18 -31.5,27.5 -14.5,9.5 -27.5,14.5 -13,5 -23,6 -10,1 -17,1 v -7 q 14,-6 24,-22.5 10,-16.5 18.5,-41.5 8.5,-25 16.5,-57 8,-32 19,-70 12,-42 22.5,-81 10.5,-39 22.5,-77 -29,4 -57,5.5 -28,1.5 -56,1.5 -77,0 -151.5,-15.5 Q 190,1677 131.5,1641 73,1605 36.5,1545.5 0,1486 0,1399 0,1307 40.5,1227 81,1147 147,1087.5 213,1028 295.5,994 378,960 462,960 q 101,0 159,43.5 58,43.5 58,118.5 0,47 -25.5,94 -25.5,47 -66.5,85 -41,38 -93.5,61.5 Q 441,1386 387,1386 q -56,0 -87.5,-25 -31.5,-25 -31.5,-68 0,-20 8.5,-35.5 8.5,-15.5 22.5,-15.5 8,0 13.5,5 5.5,5 5.5,13 0,7 -4.5,11.5 -4.5,4.5 -10,9 -5.5,4.5 -10,10 -4.5,5.5 -4.5,14.5 0,30 25,47.5 25,17.5 73,17.5 48,0 91,-21.5 43,-21.5 75.5,-56 32.5,-34.5 51.5,-78.5 19,-44 19,-88 0,-66 -39,-108.5 Q 546,975 461,975 386,975 314.5,1008.5 243,1042 188,1099 133,1156 99.5,1232.5 66,1309 66,1395 q 0,83 30,139 30,56 81,90.5 51,34.5 118,49 67,14.5 140,14.5 24,0 49,-1.5 25,-1.5 50,-5.5 9,-30 19.5,-61.5 10.5,-31.5 22.5,-66.5 39,-114 89,-191 50,-77 103,-124.5 53,-47.5 106.5,-68 Q 928,1149 975,1149 q 38,0 64,11 26,11 42,29 16,18 23,41 7,23 7,47 0,68 -40.5,131.5 -40.5,63.5 -108,116.5 -67.5,53 -156,94 -88.5,41 -185.5,64 -15,42 -28.5,83.5 Q 579,1808 564,1857 Z m 65,-194 q 88,-22 170,-61 82,-39 145,-88 63,-49 101,-106 38,-57 38,-116 0,-37 -24,-59.5 -24,-22.5 -67,-22.5 -39,0 -82,18.5 -43,18.5 -86,60.5 -43,42 -84,109.5 -41,67.5 -76,165.5 z m -3,176 q -6,0 -16.5,4.5 -10.5,4.5 -22,13.5 -11.5,9 -22.5,22.5 -11,13.5 -17,31.5 -3,7 -6.5,18.5 -3.5,11.5 -7,23.5 -3.5,12 -6,23 -2.5,11 -2.5,16 0,24 14,32.5 14,8.5 27,8.5 16,0 30.5,-15.5 14.5,-15.5 26,-39 11.5,-23.5 18,-50 6.5,-26.5 6.5,-49.5 0,-40 -22,-40 z"></path></svg>
