<?xml version="1.0" encoding="UTF-8" standalone="no"?>
<svg xmlns="http://www.w3.org/2000/svg" width="4558" height="2057"><path id="path770" d="m 635,1622 q -16,20 -41.5,39 -25.5,19 -52.5,19 -35,0 -58,-20.5 -23,-20.5 -23,-55.5 0,-36 16.5,-67 16.5,-31 41,-54.5 24.5,-23.5 53.5,-37 29,-13.5 54,-13.5 29,0 44,13 15,13 17,33 5,-15 18,-25 13,-10 39,-14 12,-2 21,-4.5 9,-2.5 15,-5.5 7,-4 12,-7 l 6,11 q -7,5 -14,11 -6,5 -13,13.5 -7,8.5 -13,19.5 -9,17 -19.5,49.5 -10.5,32.5 -21.5,72.5 -7,26 -14.5,56.5 -7.5,30.5 -15.5,62.5 57,0 94.5,15 37.5,15 37.5,52 0,30 -21.5,62.5 -21.5,32.5 -51,62.5 -29.5,30 -60,55 -30.5,25 -49.5,40 -26,20 -42.5,36 -16.5,16 -18.5,16 -8,0 -16,-6.5 -8,-6.5 -8,-15.5 0,-21 4,-53 4,-32 11,-70 7,-38 16,-79.5 9,-41.5 19,-82.5 -51,21 -100.5,55.5 Q 451,1840 399,1874 q -52,34 -107,58.5 -55,24.5 -117,24.5 -41,0 -73.5,-16.5 Q 69,1924 46.5,1898.5 24,1873 12,1841.5 0,1810 0,1780 q 0,-5 1.5,-9 1.5,-4 6.5,-4 5,0 6,4 1,4 1,8 0,45 37.5,76 37.5,31 102.5,31 62,0 119.5,-18.5 Q 332,1849 387,1824 q 55,-25 109,-51 54,-26 110,-41 8,-30 15,-57.5 7,-27.5 14,-52.5 z m 48,108 q -9,35 -17,70.5 -8,35.5 -14,68.5 -6,33 -9.5,61.5 -3.5,28.5 -3.5,50.5 16,-13 36.5,-32.5 20.5,-19.5 39.5,-44.5 19,-25 32,-54 13,-29 13,-61 0,-26 -17.5,-42.5 Q 725,1730 683,1730 Z m -108,-81 q 17,0 39,-22 22,-22 36,-51 3,-7 7,-19 4,-12 7,-24.5 3,-12.5 5,-23.5 2,-11 2,-17 0,-18 -8.5,-30 -8.5,-12 -27.5,-12 -18,0 -34,14 -16,14 -27.5,36 -11.5,22 -18,47.5 -6.5,25.5 -6.5,47.5 0,54 26,54 z"></path></svg>
