<?xml version="1.0" encoding="UTF-8" standalone="no"?>
<svg xmlns="http://www.w3.org/2000/svg" width="4558" height="2057"><path id="path818" d="m 699,1328 q -32,0 -63.5,3.5 -31.5,3.5 -64.5,9.5 3,17 5,35.5 2,18.5 2,38.5 0,96 -37,184.5 -37,88.5 -97.5,156 Q 383,1823 306,1863.5 229,1904 149,1904 112,1904 84,1892 56,1880 37.5,1861 19,1842 9.5,1818 0,1794 0,1769 0,1704 39.5,1640 79,1576 145,1519.5 211,1463 297.5,1417.5 384,1372 479,1344 q -7,-36 -18.5,-69 -11.5,-33 -22,-66 -10.5,-33 -18.5,-67 -8,-34 -8,-73 0,-24 10.5,-42.5 10.5,-18.5 26.5,-31 16,-12.5 35,-18.5 19,-6 36,-6 28,0 48.5,14 20.5,14 20.5,36 0,19 -11.5,30.5 -11.5,11.5 -25.5,11.5 -15,0 -24,-7.5 -9,-7.5 -9,-18.5 0,-13 7.5,-19.5 7.5,-6.5 7.5,-18.5 0,-8 -5,-11.5 -5,-3.5 -10,-3.5 -15,0 -25,16 -10,16 -10,48 0,39 9.5,71.5 9.5,32.5 23,64.5 13.5,32 28,65.5 14.5,33.5 23.5,73.5 75,-15 150,-15 76,0 149,15.5 73,15.5 130,51.5 57,36 92,95.5 35,59.5 35,146.5 0,92 -38.5,172.5 -38.5,80.5 -102,140 -63.5,59.5 -145,93.5 -81.5,34 -166.5,34 -102,0 -159.5,-44 -57.5,-44 -57.5,-119 0,-47 25,-94 25,-47 66.5,-85 41.5,-38 94,-61.5 Q 693,1630 747,1630 q 57,0 88,25.5 31,25.5 31,67.5 0,20 -8,35.5 -8,15.5 -23,15.5 -9,0 -14,-5 -5,-5 -5,-13 0,-7 4.5,-11.5 4.5,-4.5 10.5,-9 6,-4.5 10.5,-10 4.5,-5.5 4.5,-14.5 0,-29 -24.5,-47 -24.5,-18 -74.5,-18 -48,0 -91,21.5 -43,21.5 -75.5,56 -32.5,34.5 -51.5,78.5 -19,44 -19,88 0,66 40.5,109 40.5,43 122.5,43 74,0 143.5,-33.5 69.5,-33.5 123,-91 53.5,-57.5 86,-134 32.5,-76.5 32.5,-162.5 0,-83 -29,-139 -29,-56 -78.5,-90.5 Q 901,1357 836,1342.5 771,1328 699,1328 Z m -211,97 q 0,-17 -1.5,-32.5 -1.5,-15.5 -3.5,-30.5 -88,27 -170,69.5 -82,42.5 -145,95 -63,52.5 -101,111 -38,58.5 -38,116.5 0,36 22,59 22,23 66,23 71,0 138,-34 67,-34 118.5,-91 51.5,-57 83,-131 31.5,-74 31.5,-155 z"></path></svg>
