<?xml version="1.0" encoding="UTF-8" standalone="no"?>
<svg xmlns="http://www.w3.org/2000/svg" width="4558" height="2057"><path id="path831" d="M 91,2057 Q 53,2057 26.5,2039.5 0,2022 0,1992 0,1972 13.5,1960.5 27,1949 44,1949 q 12,0 20.5,8 8.5,8 8.5,21 0,8 -2.5,13 -2.5,5 -6,9 -3.5,4 -6,8.5 -2.5,4.5 -2.5,10.5 0,9 6.5,16 6.5,7 20.5,7 21,0 30,-14 9,-14 9,-32 0,-19 -12.5,-32 Q 97,1951 82,1939.5 67,1928 54.5,1914.5 42,1901 42,1880 q 0,-19 11,-33 11,-14 28,-23 17,-9 37,-13.5 20,-4.5 37,-4.5 24,0 41,9 18,-14 46,-25 28,-11 58,-25 l 39,-124 q 7,-23 22.5,-40.5 15.5,-17.5 36,-29.5 20.5,-12 44,-18.5 23.5,-6.5 46.5,-6.5 31,0 53.5,17 22.5,17 22.5,44 0,22 -14.5,40.5 -14.5,18.5 -39,35 -24.5,16.5 -56.5,31 -32,14.5 -66,29.5 -10,30 -16,51.5 -6,21.5 -11,35.5 -5,16 -8,26 9,-10 22,-18.5 13,-8.5 27,-15.5 14,-7 27.5,-11 13.5,-4 24.5,-4 27,0 50,18.5 23,18.5 23,59.5 0,31 -12,61.5 -12,30.5 -32,54.5 -20,24 -47,38.5 -27,14.5 -57,14.5 -36,0 -56,-16 -20,-16 -27,-33 -17,18 -31.5,27.5 -14.5,9.5 -27.5,14.5 -13,5 -23,6 -10,1 -17,1 v -7 q 12,-4 21.5,-20.5 9.5,-16.5 18.5,-42 9,-25.5 18,-58 9,-32.5 20,-70.5 2,-8 5.5,-24 3.5,-16 13.5,-48 -26,12 -47.5,20.5 -21.5,8.5 -37.5,19.5 15,14 15,32 0,20 -11,30.5 -11,10.5 -26,10.5 -14,0 -22.5,-7 -8.5,-7 -8.5,-18 0,-14 6.5,-20.5 6.5,-6.5 6.5,-17.5 0,-15 -15,-15 -14,0 -25,10 -11,10 -11,25 0,22 13.5,36.5 13.5,14.5 30,27 16.5,12.5 30,26 13.5,13.5 13.5,33.5 0,18 -10,33 -10,15 -26,25.5 -16,10.5 -36.5,16 Q 112,2057 91,2057 Z m 326,-221 q -6,0 -16.5,4.5 -10.5,4.5 -22,13.5 -11.5,9 -22.5,22.5 -11,13.5 -17,31.5 -3,7 -6.5,18.5 -3.5,11.5 -7,23.5 -3.5,12 -6,23 -2.5,11 -2.5,16 0,24 14,32.5 14,8.5 27,8.5 16,0 30.5,-15.5 14.5,-15.5 26,-39 11.5,-23.5 18,-50 6.5,-26.5 6.5,-49.5 0,-40 -22,-40 z m 20,-230 q -8,13 -18.5,44 -10.5,31 -24.5,73 55,-26 89.5,-58.5 34.5,-32.5 34.5,-74.5 0,-14 -7.5,-21.5 -7.5,-7.5 -18.5,-7.5 -17,0 -29.5,11 -12.5,11 -25.5,34 z"></path></svg>
