<?xml version="1.0" encoding="UTF-8" standalone="no"?>
<svg xmlns="http://www.w3.org/2000/svg" width="4558" height="2057"><path id="path542" d="m 623,1419 q -17,101 -44,193 -27,92 -70,163 -43,71 -106,113 -63,42 -152,42 -58,0 -104.5,-18 -46.5,-18 -79,-49.5 Q 35,1831 17.5,1788.5 0,1746 0,1697 q 0,-62 23,-111.5 23,-49.5 60.5,-84 37.5,-34.5 86,-52.5 48.5,-18 99.5,-18 42,0 73,10.5 31,10.5 54,27.5 32,-19 70,-33.5 38,-14.5 83,-22.5 6,-26 14.5,-67.5 8.5,-41.5 16.5,-84.5 8,-43 15.5,-80.5 7.5,-37.5 10.5,-55.5 5,-22 13.5,-34.5 Q 628,1078 643,1069 h -7.5 q 0,0 -10.5,-1 -9,0 -17,-2 -4,-1 -7,-2 l 8,-12 8,2 q 5,1 21,1 17,0 43,-4.5 26,-4.5 58,-18.5 l 5,9 q -8,6 -15,13 -6,6 -13.5,15.5 -7.5,9.5 -13.5,20.5 -13,23 -18,42.5 -5,19.5 -13,46.5 -4,16 -10,43.5 -6,27.5 -12.5,59 -6.5,31.5 -12.5,64.5 -6,33 -11,60 79,0 155.5,18.5 76.5,18.5 137,58 60.5,39.5 98,101 37.5,61.5 37.5,147.5 0,76 -25,136.5 -25,60.5 -66,102.5 -41,42 -94.5,64.5 Q 814,2057 756,2057 q -45,0 -81.5,-13 -36.5,-13 -62.5,-35.5 -26,-22.5 -40,-52 -14,-29.5 -14,-62.5 0,-33 11,-60.5 11,-27.5 30.5,-48 19.5,-20.5 45.5,-32 26,-11.5 56,-11.5 44,0 67,24 23,24 23,54 0,10 -5,19.5 -5,9.5 -16,9.5 -20,0 -20,-19 0,-11 6,-17 6,-6 6,-15 0,-4 -3,-11.5 -3,-7.5 -10,-14.5 -7,-7 -19,-12 -12,-5 -30,-5 -27,0 -50,11 -23,11 -39.5,29.5 -16.5,18.5 -26,43.5 -9.5,25 -9.5,52 0,63 46.5,100 46.5,37 123.5,37 47,0 89.5,-21 42.5,-21 74,-60 31.5,-39 50,-93.5 Q 977,1799 977,1732 q 0,-76 -28,-134 -28,-58 -76,-98 -48,-40 -112.5,-60.5 Q 696,1419 623,1419 Z m -398,452 q 68,0 119.5,-39.5 Q 396,1792 434,1729 q 38,-63 65,-142 27,-79 47,-159 -40,8 -73.5,23 -33.5,15 -59.5,34 16,17 23.5,37 7.5,20 7.5,42 0,51 -23,79 -23,28 -56,28 -29,0 -49,-17.5 -20,-17.5 -20,-46.5 0,-33 22.5,-66.5 22.5,-33.5 62.5,-61.5 -21,-15 -49,-24 -28,-9 -63,-9 -48,0 -92.5,17.5 -44.5,17.5 -78.5,49 -34,31.5 -54.5,77 Q 23,1635 23,1690 q 0,38 15.5,71 15.5,33 43,57.5 27.5,24.5 64.5,38.5 37,14 79,14 z m 204,-307 q 0,-37 -30,-69 -30,25 -46.5,53.5 -16.5,28.5 -16.5,56.5 0,46 40,46 17,0 35,-22 18,-22 18,-65 z M 675,961 q 0,-10 5,-21.5 5,-11.5 13,-20.5 8,-9 17.5,-15 9.5,-6 18.5,-6 13,0 22,8.5 9,8.5 9,22.5 0,11 -4.5,22.5 Q 751,963 744,973 q -7,10 -16.5,16 -9.5,6 -18.5,6 -13,0 -23.5,-9 Q 675,977 675,961 Z"></path></svg>
