<?xml version="1.0" encoding="UTF-8" standalone="no"?>
<svg xmlns="http://www.w3.org/2000/svg" width="4558" height="2057"><path id="path955" d="m 755,1287 q 5,-22 11.5,-37 6.5,-15 15.5,-24 9,-9 21.5,-14 12.5,-5 29.5,-7 22,-3 36,-10 7,-4 12,-7 l 6,12 q -5,2 -9,6 -4,3 -9,8 -5,5 -10,11 -14,19 -24.5,42 -10.5,23 -20.5,65 -5,19 -8,36.5 -3,17.5 -6,34.5 66,-55 125.5,-113 59.5,-58 104.5,-118 45,-60 72,-123 27,-63 27,-129 0,-56 -39,-91.5 -39,-35.5 -108,-35.5 -66,0 -130.5,16.5 -64.5,16.5 -128,41 -63.5,24.5 -128,53 -64.5,28.5 -131,53 -66.5,24.5 -137,41 Q 257,1014 182,1014 136,1014 101.5,1001.5 67,989 44.5,969 22,949 11,922.5 0,896 0,867 0,828 15,798 30,768 53,748 76,728 104.5,717.5 133,707 160,707 q 21,0 37,7 16,7 16,20 0,12 -7,19.5 -7,7.5 -20,7.5 -9,0 -14,-4.5 -5,-4.5 -9.5,-10 -4.5,-5.5 -9.5,-10 -5,-4.5 -15,-4.5 -17,0 -38,8.5 -21,8.5 -39,26 Q 43,784 30.5,810 18,836 18,870 q 0,26 11,49 11,23 32.5,40 21.5,17 53.5,27 32,10 74,10 72,0 141,-19.5 Q 399,957 465.5,928 532,899 597.5,864.5 663,830 728,801 793,772 858.5,752.5 924,733 992,733 q 40,0 71,12.5 31,12.5 52.5,34.5 21.5,22 32.5,52 11,30 11,65 0,75 -30.5,146.5 -30.5,71.5 -81,138.5 -50.5,67 -116.5,130 -66,63 -137,123 -31,158 -60,274.5 -29,116.5 -67.5,194 -38.5,77.5 -92,115.5 -53.5,38 -133.5,38 -28,0 -53,-9.5 -25,-9.5 -43.5,-25.5 -18.5,-16 -29.5,-38 -11,-22 -11,-48 0,-54 35,-109.5 35,-55.5 93,-113 58,-57.5 131.5,-117.5 73.5,-60 150.5,-122 5,-24 10,-49.5 5,-25.5 10,-51.5 -29,32 -63.5,53.5 -34.5,21.5 -61.5,21.5 -23,0 -41,-13.5 -18,-13.5 -18,-40.5 0,-16 8.5,-35.5 8.5,-19.5 18.5,-38.5 10,-19 18.5,-37 8.5,-18 8.5,-33 0,-10 -7,-10 -5,0 -11,4 -6,4 -12,9 -7,6 -15,13 l -8,-9 q 6,-6 17.5,-15.5 11.5,-9.5 25,-19 13.5,-9.5 28,-16.5 14.5,-7 26.5,-7 22,0 33,9 11,9 11,24 0,15 -8,35 -8,20 -17,41 -9,21 -17,42 -8,21 -8,39 0,16 15,16 14,0 28,-10.5 14,-10.5 36,-33.5 13,-14 20,-29.5 7,-15.5 14,-44.5 z m -332,714 q 41,0 80.5,-33.5 39.5,-33.5 76,-97 Q 616,1807 648,1715 q 32,-92 59,-209 -72,58 -138.5,112.5 -66.5,54.5 -118,106 -51.5,51.5 -82.5,100 -31,48.5 -31,94.5 0,40 25.5,61 25.5,21 60.5,21 z"></path></svg>
