<?xml version="1.0" encoding="UTF-8" standalone="no"?>
<svg xmlns="http://www.w3.org/2000/svg" width="4558" height="2057"><path id="path725" d="m 1006,1683 q -85,0 -151.5,17.5 Q 788,1718 728,1746 q 60,29 126.5,46.5 66.5,17.5 151.5,17.5 67,0 95,-20 28,-20 28,-44 0,-24 -28,-43.5 -28,-19.5 -95,-19.5 z m -996,63 q 0,24 28,44 28,20 95,20 84,0 150.5,-17.5 Q 350,1775 411,1746 350,1718 283.5,1700.5 217,1683 133,1683 q -67,0 -95,19 -28,19 -28,44 z m 501,-43 q -14,11 -30.5,21.5 -16.5,10.5 -33.5,21.5 36,22 64,44 l 51,-44 q -16,-16 -51,-43 z m 59,37 47,-45 q -13,-11 -25,-22.5 -12,-11.5 -23,-24.5 -11,13 -22.5,24 -11.5,11 -25.5,22 z m -60,-55 q 14,-12 26,-23.5 12,-11.5 23,-25.5 -26,-32 -43,-64.5 -17,-32.5 -17,-61.5 0,-36 21.5,-55.5 21.5,-19.5 48.5,-19.5 28,0 49,19.5 21,19.5 21,55.5 0,29 -16.5,61.5 -16.5,32.5 -42.5,64.5 10,14 22,26 12,12 26,24 31,-27 68.5,-58 37.5,-31 77,-57.5 39.5,-26.5 77.5,-43.5 38,-17 70,-17 35,0 55,19.5 20,19.5 20,48.5 0,21 -6.5,31 -6.5,10 -10.5,10 -4,0 -4,-5 0,-2 4.5,-7 4.5,-5 4.5,-15 0,-20 -15,-33.5 -15,-13.5 -53,-13.5 -27,0 -62.5,14.5 -35.5,14.5 -73,36.5 -37.5,22 -74.5,48 -37,26 -67,50 28,21 69,43 65,-37 133.5,-63.5 Q 910,1647 990,1647 q 38,0 66,9 28,9 46.5,23 18.5,14 27.5,31.5 9,17.5 9,35.5 0,18 -9,35.5 -9,17.5 -27.5,31.5 -18.5,14 -46.5,23 -28,9 -66,9 -81,0 -148.5,-26 -67.5,-26 -133.5,-63 -37,18 -68,43 30,25 66.5,53 36.5,28 74,51 37.5,23 73,38.5 35.5,15.5 62.5,15.5 38,0 53,-13 15,-13 15,-33 0,-11 -4.5,-16 -4.5,-5 -4.5,-8 0,-3 4,-3 4,0 10.5,10.5 6.5,10.5 6.5,29.5 0,29 -20,49 -20,20 -55,20 -32,0 -70,-18 -38,-18 -77,-46 -39,-28 -76.5,-60 -37.5,-32 -68.5,-61 -24,19 -49,48 26,32 43,64.5 17,32.5 17,61.5 0,36 -21,55.5 -21,19.5 -50,19.5 -28,0 -49,-19.5 -21,-19.5 -21,-55.5 0,-29 17,-61.5 17,-32.5 43,-64.5 -21,-27 -49,-47 -31,29 -68.5,61 -37.5,32 -76.5,59.5 -39,27.5 -77,45.5 -38,18 -69,18 -35,0 -55,-20 -20,-20 -20,-49 0,-20 6,-30 6,-10 11,-10 4,0 4,4 0,3 -4.5,7.5 -4.5,4.5 -4.5,15.5 0,20 15,33 15,13 53,13 27,0 62,-15 35,-15 72,-38.5 37,-23.5 74,-51 37,-27.5 67,-52.5 -17,-11 -33.5,-21.5 Q 449,1768 431,1756 q -66,37 -134,63 -68,26 -148,26 -38,0 -66,-9 -28,-9 -46.5,-23 Q 18,1799 9,1781.5 0,1764 0,1746 0,1728 9,1710.5 18,1693 36.5,1679 55,1665 83,1656 q 28,-9 66,-9 79,0 147.5,26.5 68.5,26.5 134.5,63.5 41,-22 69,-43 -30,-24 -67,-50.5 -37,-26.5 -74.5,-48 -37.5,-21.5 -72.5,-36 -35,-14.5 -62,-14.5 -38,0 -53,14 -15,14 -15,33 0,10 4.5,15 4.5,5 4.5,7 0,5 -4,5 -5,0 -11,-11 -6,-11 -6,-30 0,-29 20,-48.5 20,-19.5 55,-19.5 31,0 69,17 38,17 77,43 39,26 76.5,57 37.5,31 68.5,58 z m 97,294 q 0,-55 -38,-110 -37,53 -37,110 0,32 10,50.5 10,18.5 27,18.5 18,0 28,-18.5 10,-18.5 10,-50.5 z m -74,-466 q 0,29 8.5,55 8.5,26 27.5,54 19,-28 28.5,-54 9.5,-26 9.5,-55 0,-32 -10.5,-50.5 Q 586,1444 569,1444 q -15,0 -25.5,18.5 Q 533,1481 533,1513 Z m 85,285 q -15,-14 -27,-25.5 -12,-11.5 -21,-19.5 -20,17 -49,46 13,11 25,22.5 12,11.5 23,23.5 11,-13 23,-24.5 12,-11.5 26,-22.5 z m 10,-9 q 14,-11 30,-21.5 16,-10.5 33,-21.5 -34,-19 -64,-42 -16,13 -28.5,23.5 Q 586,1738 577,1746 Z"></path></svg>
