<?xml version="1.0" encoding="UTF-8" standalone="no"?>
<svg xmlns="http://www.w3.org/2000/svg" width="4558" height="2057"><path id="path753" d="m 260,1939 q -60,0 -108,-16.5 -48,-16.5 -81.5,-45 Q 37,1849 18.5,1812 0,1775 0,1734 0,1694 16.5,1661.5 33,1629 60.5,1607 88,1585 123,1573 q 35,-12 73,-12 43,0 84,11 41,11 80.5,30 39.5,19 78.5,44 39,25 78,52 42,-48 77.5,-107 35.5,-59 65.5,-125 30,-66 54.5,-136 24.5,-70 44.5,-139 16,-54 26.5,-91.5 10.5,-37.5 10.5,-44.5 0,-5 -1.5,-8.5 -1.5,-3.5 -6.5,-3.5 -4,0 -10,4.5 -6,4.5 -13,9.5 -8,6 -16,13 l -7,-9 q 6,-6 17.5,-15.5 11.5,-9.5 25,-19 13.5,-9.5 28,-16.5 14.5,-7 26.5,-7 18,0 30,8.5 12,8.5 12,22.5 0,7 -2,15 -1,4 -2,6 20,-23 50,-37.5 30,-14.5 54,-14.5 27,0 49.5,16 22.5,16 22.5,51 0,38 -14.5,71 -14.5,33 -37,57 -22.5,24 -50,38 -27.5,14 -52.5,14 -28,0 -44.5,-10 Q 838,1230 828,1214 785,1372 730.5,1512.5 676,1653 598,1756 q 45,31 93.5,59.5 48.5,28.5 102.5,51 54,22.5 113.5,36 59.5,13.5 127.5,13.5 123,0 210.5,-44.5 87.5,-44.5 131.5,-122.5 -19,5 -37,7.5 -18,2.5 -36,2.5 -57,0 -98.5,-26 -41.5,-26 -64.5,-61 -23,24 -59,41.5 -36,17.5 -83,17.5 -44,0 -81,-9.5 -37,-9.5 -64,-29.5 -27,-20 -42,-51.5 -15,-31.5 -15,-75.5 0,-49 24,-96 24,-47 66.5,-84 42.5,-37 101,-59.5 58.5,-22.5 128.5,-22.5 74,0 133.5,23 59.5,23 101.5,62 42,39 64.5,91 22.5,52 22.5,111 0,17 -1.5,34.5 -1.5,17.5 -3.5,34.5 61,-18 129.5,-42.5 68.5,-24.5 139.5,-47.5 71,-23 141.5,-39 70.5,-16 135.5,-16 58,0 106,12.5 48,12.5 81.5,37 33.5,24.5 52,62 18.5,37.5 18.5,86.5 0,57 -29.5,118.5 -29.5,61.5 -82.5,111.5 -53,50 -127,82.5 -74,32.5 -163,32.5 -61,0 -108.5,-13 -47.5,-13 -80.5,-36.5 -33,-23.5 -50,-55 -17,-31.5 -17,-67.5 0,-31 14,-56 14,-25 33.5,-42.5 19.5,-17.5 39,-27 19.5,-9.5 31.5,-9.5 3,0 7,1 4,1 4,6 0,5 -4,6.5 -4,1.5 -8,2.5 -12,2 -26,10 -14,8 -26.5,21 -12.5,13 -21,31.5 -8.5,18.5 -8.5,42.5 0,27 17,48 17,21 47.5,35.5 30.5,14.5 72.5,22.5 42,8 91,8 82,0 151,-23 69,-23 118.5,-61 49.5,-38 77,-86.5 27.5,-48.5 27.5,-100.5 0,-88 -66.5,-133 -66.5,-45 -190.5,-45 -70,0 -140.5,23.5 -70.5,23.5 -139.5,56.5 -69,33 -135.5,67 -66.5,34 -128.5,55 -18,55 -49,103.5 -31,48.5 -76.5,85 -45.5,36.5 -105,58 Q 1126,2006 1052,2006 986,2006 924,1986.5 862,1967 803.5,1935 745,1903 689,1862.5 633,1822 579,1780 516,1854 438,1896.5 360,1939 260,1939 Z m 917,-342 q 0,26 -19,54 31,34 136,34 25,0 54.5,-5.5 29.5,-5.5 61.5,-13.5 8,-38 8,-76 0,-55 -22.5,-97.5 -22.5,-42.5 -62.5,-71.5 -40,-29 -96.5,-44 -56.5,-15 -123.5,-15 -59,0 -112,19.5 -53,19.5 -92.5,49.5 -39.5,30 -62.5,67.5 -23,37.5 -23,73.5 0,70 49.5,104.5 49.5,34.5 131.5,34.5 43,0 75.5,-16 32.5,-16 52.5,-38 -12,-25 -12,-49 0,-20 10,-31.5 10,-11.5 22,-11.5 25,0 25,32 z m -954,248 q 83,0 150.5,-34 67.5,-34 124.5,-93 -39,-29 -77,-54.5 -38,-25.5 -76,-44.5 -38,-19 -75.5,-30 -37.5,-11 -75.5,-11 -33,0 -61.5,10 -28.5,10 -49.5,28.5 -21,18.5 -33,44 -12,25.5 -12,56.5 0,36 15.5,60.5 15.5,24.5 41.5,39.5 26,15 59,21.5 33,6.5 69,6.5 z m 723,-814 q -20,0 -43.5,21 -23.5,21 -37.5,50 -3,7 -7.5,18.5 -4.5,11.5 -8.5,23.5 -4,12 -6.5,22.5 -2.5,10.5 -2.5,16.5 0,25 12.5,33.5 12.5,8.5 23.5,8.5 19,0 35.5,-12.5 16.5,-12.5 28.5,-33.5 12,-21 19,-49 7,-28 7,-60 0,-21 -6,-30 -6,-9 -14,-9 z m 195,574 q 0,18 7,32 12,-19 12,-37 0,-15 -8,-15 -4,0 -7.5,4.5 -3.5,4.5 -3.5,15.5 z"></path></svg>
