<?xml version="1.0" encoding="UTF-8" standalone="no"?>
<svg xmlns="http://www.w3.org/2000/svg" width="4558" height="2057"><path id="path694" d="m 156,1808 q 49,0 80,23.5 31,23.5 31,65.5 0,14 -2.5,27 -2.5,13 -7.5,25 h 12 q 52,0 94.5,-26.5 42.5,-26.5 72.5,-67.5 30,-41 46.5,-91.5 16.5,-50.5 16.5,-98.5 0,-98 -43.5,-145 -43.5,-47 -121.5,-47 -31,0 -60,10.5 -29,10.5 -51.5,29.5 -22.5,19 -36.5,44 -14,25 -14,54 0,28 9.5,48 9.5,20 24.5,33.5 15,13.5 34.5,20 19.5,6.5 39.5,6.5 45,0 69,-23.5 24,-23.5 24,-51.5 0,-6 -3,-9.5 -3,-3.5 -6,-6 -3,-2.5 -6,-6 -3,-3.5 -3,-10.5 0,-6 4,-11.5 4,-5.5 13,-5.5 11,0 15.5,8.5 4.5,8.5 4.5,21.5 0,48 -30.5,78.5 -30.5,30.5 -83.5,30.5 -23,0 -45.5,-7.5 Q 210,1719 193,1704 q -17,-15 -27.5,-38 -10.5,-23 -10.5,-54 0,-33 15,-62 15,-29 41,-50.5 26,-21.5 61,-34 35,-12.5 76,-12.5 39,0 76,12 37,12 66,37.5 29,25.5 47,65.5 18,40 18,96 0,53 -23,106.5 -23,53.5 -62,96.5 -39,43 -91.5,69.5 Q 326,1963 268,1963 h -16 q -10,21 -25.5,38.5 -15.5,17.5 -34.5,29.5 -19,12 -40.5,19 -21.5,7 -42.5,7 -46,0 -77.5,-21.5 Q 0,2014 0,1969 0,1937 12.5,1908 25,1879 46,1856.5 67,1834 95.5,1821 124,1808 156,1808 Z m -36,62 q 0,-15 6,-25.5 6,-10.5 13,-16.5 -14,6 -25,21 -11,15 -19,37 -8,22 -12,48.5 -4,26.5 -4,55.5 0,23 8,36 8,13 23,13 21,0 39,-26.5 18,-26.5 29,-65.5 -26,-12 -42,-31.5 -16,-19.5 -16,-45.5 z m 32,-5 q 0,37 31,60 6,-28 6,-57 0,-20 -8,-31 -8,-11 -20,-13 -3,4 -6,13 -3,9 -3,28 z m -51,-217 q 8,0 15,11 8,12 19.5,27.5 11.5,15.5 25.5,30.5 14,15 28.5,27 14.5,12 28.5,16 6,1 6,8 0,9 -10,9 -10,0 -24.5,-3.5 -14.5,-3.5 -30,-10 -15.5,-6.5 -31.5,-16 -16,-9.5 -30,-21.5 -23,-20 -23,-38 0,-12 9,-26 9,-14 17,-14 z"></path></svg>
