<?xml version="1.0" encoding="UTF-8" standalone="no"?>
<svg xmlns="http://www.w3.org/2000/svg" width="4558" height="2057"><path id="path380" d="m 1444,1640 q -12,34 -24.5,74 -12.5,40 -23.5,75 l -24,82 q -3,12 -8.5,31.5 l -11,39 q 0,0 -9,36.5 -9,36.5 -3.5,25 0,13 10,13 7,0 15,-4.5 8,-4.5 16,-9.5 9,-6 17,-15 l 8,8 q -17,18 -33,31 -14,12 -29.5,21.5 -15.5,9.5 -27.5,9.5 -27,0 -40.5,-11.5 -13.5,-11.5 -13.5,-30.5 0,-6 0.5,-11 0.5,-5 2.5,-14 -8,11 -19,22.5 -11,11.5 -24,21.5 -13,10 -28,16.5 -15,6.5 -32,6.5 -35,0 -58,-18 -23,-18 -23,-56 0,-36 16.5,-67 16.5,-31 41,-54.5 24.5,-23.5 53.5,-37 29,-13.5 54,-13.5 21,0 33.5,5 12.5,5 23.5,16 9,-33 19,-67 8,-29 17.5,-64.5 9.5,-35.5 19.5,-67.5 22,-75 51.5,-138 29.5,-63 64.5,-115 -64,-21 -131,-42 -67,-21 -135.5,-38.5 -68.5,-17.5 -137.5,-28 -69,-10.5 -136,-10.5 -96,0 -167.5,19.5 -71.5,19.5 -119,51 -47.5,31.5 -71,70.5 -23.5,39 -23.5,78 0,2 0.5,2.5 0.5,0.5 0.5,2.5 70,-15 140.5,-33.5 70.5,-18.5 140.5,-35 70,-16.5 139.5,-28 69.5,-11.5 137.5,-11.5 32,0 66,7.5 34,7.5 61.5,22 27.5,14.5 45,37 17.5,22.5 17.5,52.5 0,47 -35,86 -35,39 -93,67 -58,28 -133,44 -75,16 -154,16 -71,0 -132.5,-15.5 Q 694,1678 646,1651.5 598,1625 566,1589 q -32,-36 -43,-77 -51,9 -105,14 -54,5 -112,5 -75,0 -132.5,-14 -57.5,-14 -96,-37.5 Q 39,1456 19.5,1424 0,1392 0,1356 q 0,-50 31.5,-91.5 31.5,-41.5 81.5,-71 50,-29.5 112,-46 62,-16.5 123,-16.5 40,0 73,7 33,7 57,20.5 24,13.5 37,33.5 13,20 13,45 0,26 -15,48.5 -15,22.5 -39,39.5 -24,17 -54,27 -30,10 -61,10 -51,0 -80,-20 -29,-20 -29,-51 0,-16 8,-29 8,-13 21,-13 8,0 14,5 6,5 6,13 0,6 -3.5,10.5 -3.5,4.5 -7,8.5 -3.5,4 -7,8.5 -3.5,4.5 -3.5,10.5 0,18 18,31.5 18,13.5 59,13.5 28,0 50,-10 22,-10 37.5,-26 15.5,-16 23.5,-36.5 8,-20.5 8,-40.5 0,-44 -30.5,-69 -30.5,-25 -93.5,-25 -59,0 -109,17 -50,17 -87,45.5 -37,28.5 -58,65.5 -21,37 -21,77 0,30 11,59.5 11,29.5 39,53 28,23.5 74.5,38 46.5,14.5 118.5,14.5 51,0 100.5,-5.5 49.5,-5.5 100.5,-15.5 0,-5 -0.5,-9 -0.5,-4 -0.5,-9 0,-47 25,-99 25,-52 76,-95.5 51,-43.5 129,-72 78,-28.5 185,-28.5 78,0 152.5,15 74.5,15 146,39 71.5,24 139,53.5 67.5,29.5 130.5,57.5 75,-96 164.5,-143.5 89.5,-47.5 176.5,-47.5 39,0 72,11.5 33,11.5 57.5,32.5 24.5,21 38.5,49.5 14,28.5 14,62.5 0,36 -17,65 -17,29 -45.5,49 -28.5,20 -64.5,31 -36,11 -73,11 -54,0 -121,-16.5 -67,-16.5 -145,-41.5 -33,48 -62,106.5 -29,58.5 -52,126.5 z m -393,-226 q -55,0 -113,9.5 -58,9.5 -119.5,23.5 -61.5,14 -126.5,30 -65,16 -135,29 8,36 35.5,69.5 27.5,33.5 70.5,60 43,26.5 100,42 57,15.5 124,15.5 72,0 132.5,-17.5 60.5,-17.5 104.5,-45.5 44,-28 69,-61.5 25,-33.5 25,-66.5 0,-45 -44.5,-66.5 Q 1129,1414 1051,1414 Z m 788,-206 q -61,0 -129,44 -68,44 -131,126 70,30 133,50 63,20 119,20 28,0 57.5,-10 29.5,-10 52.5,-28 23,-18 38,-43.5 15,-25.5 15,-55.5 0,-53 -41.5,-78 -41.5,-25 -113.5,-25 z m -643,818 q 9,0 19.5,-7 10.5,-7 21,-18 10.5,-11 20.5,-24.5 10,-13.5 16,-27.5 3,-7 6.5,-18 3.5,-11 6.5,-22 3,-11 4.5,-21.5 1.5,-10.5 1.5,-16.5 0,-18 -7.5,-30 -7.5,-12 -28.5,-12 -18,0 -34,14 -16,14 -27.5,36 -11.5,22 -18,47.5 -6.5,25.5 -6.5,47.5 0,28 6,40 6,12 20,12 z"></path></svg>
