<?xml version="1.0" encoding="UTF-8" standalone="no"?>
<svg xmlns="http://www.w3.org/2000/svg" width="4558" height="2057"><path id="path751" d="m 184,2057 q -38,0 -71,-9.5 -33,-9.5 -58.5,-28 Q 29,2001 14.5,1973 0,1945 0,1908 q 0,-35 17,-65 17,-30 45,-51.5 28,-21.5 64,-34 36,-12.5 74,-12.5 53,0 118.5,17 65.5,17 140.5,42 50,-83 86.5,-186 36.5,-103 65.5,-209 15,-54 25.5,-91.5 10.5,-37.5 10.5,-44.5 0,-5 -1.5,-8.5 -1.5,-3.5 -6.5,-3.5 -4,0 -10,4.5 -6,4.5 -13,9.5 -8,6 -16,13 l -7,-9 q 6,-6 17.5,-15.5 11.5,-9.5 25,-19 13.5,-9.5 28,-16.5 14.5,-7 26.5,-7 18,0 30,8.5 12,8.5 12,22.5 0,7 -2,15 -1,4 -2,6 20,-23 50,-37.5 30,-14.5 54,-14.5 27,0 49.5,16 22.5,16 22.5,51 0,38 -14.5,71 -14.5,33 -37,57 -22.5,24 -50,38 -27.5,14 -52.5,14 -28,0 -44.5,-10 -16.5,-10 -26.5,-26 -15,48 -30,99 -15,51 -32,102.5 -17,51.5 -36.5,102 -19.5,50.5 -44.5,95.5 65,23 133.5,46 68.5,23 139,42 70.5,19 141,31 70.5,12 139.5,12 96,0 167.5,-19.5 71.5,-19.5 119,-50.5 47.5,-31 71,-68 23.5,-37 23.5,-73 0,-28 -14,-58 -73,26 -145,54.5 -72,28.5 -141,52.5 -69,24 -134.5,39.5 Q 970,1855 911,1855 q -31,0 -64,-7 -33,-7 -60.5,-22 -27.5,-15 -45,-37.5 Q 724,1766 724,1735 q 0,-46 35,-85.5 35,-39.5 93,-68 58,-28.5 133,-44.5 75,-16 155,-16 58,0 110,10.5 52,10.5 95,29.5 43,19 76.5,45 33.5,26 54.5,56 89,-29 182.5,-50 93.5,-21 191.5,-21 59,0 106.5,14.5 47.5,14.5 80.5,39.5 33,25 51,59 18,34 18,73 0,59 -27,109.5 -27,50.5 -71.5,87 -44.5,36.5 -101.5,57.5 -57,21 -118,21 -46,0 -84.5,-10 -38.5,-10 -66,-27.5 -27.5,-17.5 -43,-40 -15.5,-22.5 -15.5,-48.5 0,-25 16,-48 16,-23 41.5,-40 25.5,-17 57,-27 31.5,-10 63.5,-10 51,0 74.5,20 23.5,20 23.5,51 0,16 -7.5,29.5 -7.5,13.5 -20.5,13.5 -8,0 -14.5,-5 -6.5,-5 -6.5,-14 0,-6 3.5,-10.5 3.5,-4.5 7.5,-8.5 4,-4 7.5,-8.5 3.5,-4.5 3.5,-10.5 0,-18 -14,-31.5 -14,-13.5 -53,-13.5 -27,0 -50,10 -23,10 -40.5,26 -17.5,16 -27.5,36.5 -10,20.5 -10,40.5 0,22 9.5,42.5 9.5,20.5 28.5,36.5 19,16 47.5,25.5 28.5,9.5 67.5,9.5 57,0 102,-20.5 45,-20.5 77,-54.5 32,-34 49,-78 17,-44 17,-92 0,-36 -11.5,-69 -11.5,-33 -37,-58 -25.5,-25 -66,-40 -40.5,-15 -98.5,-15 -81,0 -163.5,19.5 -82.5,19.5 -167.5,48.5 20,37 20,76 0,47 -24,97.5 -24,50.5 -75,92.5 -51,42 -129.5,69.5 -78.5,27.5 -187.5,27.5 -80,0 -156,-16 -76,-16 -148.5,-41.5 Q 714,1961 645.5,1930 577,1899 514,1869 q -26,41 -58.5,75.5 -32.5,34.5 -73,59.5 -40.5,25 -89.5,39 -49,14 -109,14 z m 789,-240 q 46,0 100,-13.5 54,-13.5 113.5,-34.5 59.5,-21 124.5,-46.5 65,-25.5 134,-49.5 -18,-28 -48,-52.5 -30,-24.5 -70,-43 -40,-18.5 -88,-29 -48,-10.5 -102,-10.5 -74,0 -135,18.5 -61,18.5 -104.5,47 -43.5,28.5 -68,62 -24.5,33.5 -24.5,63.5 0,43 45,65.5 45,22.5 123,22.5 z m -789,180 q 82,0 144.5,-44.5 Q 391,1908 440,1835 371,1804 309,1783.5 247,1763 193,1763 q -29,0 -58,10 -29,10 -52.5,28 -23.5,18 -38,43.5 Q 30,1870 30,1900 q 0,29 13.5,47.5 13.5,18.5 35.5,29.5 22,11 49.5,15.5 27.5,4.5 55.5,4.5 z m 613,-748 q -20,0 -43.5,21 -23.5,21 -37.5,50 -3,7 -7.5,18.5 -4.5,11.5 -8.5,23.5 -4,12 -6.5,22.5 -2.5,10.5 -2.5,16.5 0,25 12.5,33.5 12.5,8.5 23.5,8.5 19,0 35.5,-12.5 16.5,-12.5 28.5,-33.5 12,-21 19,-49 7,-28 7,-60 0,-21 -6,-30 -6,-9 -14,-9 z"></path></svg>
