<?xml version="1.0" encoding="UTF-8" standalone="no"?>
<svg xmlns="http://www.w3.org/2000/svg" width="4558" height="2057"><path id="path256" d="m 189,1610 q -6,11 -17.5,24 -11.5,13 -26,24 -14.5,11 -31,19 -16.5,8 -33.5,8 -35,0 -58,-20 -23,-20 -23,-54 0,-36 16,-67 16,-31 40,-54 24,-23 53,-36.5 29,-13.5 56,-13.5 29,0 44,12.5 15,12.5 17,31.5 5,-15 18,-24.5 13,-9.5 39,-13.5 12,-2 21,-4.5 9,-2.5 15,-5.5 7,-4 12,-7 l 6,12 q -7,4 -14,10 -6,5 -13,13 -7,8 -13,20 -17,32 -27,65 -10,33 -10,62 0,17 5.5,33 5.5,16 19,28 13.5,12 36.5,19.5 23,7.5 58,7.5 40,0 83,-16.5 43,-16.5 88.5,-41 45.5,-24.5 93,-53 47.5,-28.5 97.5,-53 50,-24.5 101,-41 51,-16.5 104,-16.5 40,0 78,9 38,9 67.5,28.5 29.5,19.5 47.5,50.5 18,31 18,76 0,75 -37,149 -37,74 -98,133 -61,59 -139.5,96 -78.5,37 -162.5,37 -47,0 -87,-8 -40,-8 -69.5,-25.5 -29.5,-17.5 -46.5,-44 -17,-26.5 -17,-63.5 0,-61 34.5,-113 34.5,-52 85.5,-89 51,-37 108.5,-58 57.5,-21 103.5,-21 43,0 73,19.5 30,19.5 30,65.5 0,21 -7,35 -7,14 -21,14 -9,0 -16.5,-5.5 -7.5,-5.5 -7.5,-16.5 0,-8 4.5,-12.5 4.5,-4.5 9.5,-9 5,-4.5 9.5,-9.5 4.5,-5 4.5,-14 0,-22 -21.5,-37 -21.5,-15 -57.5,-15 -42,0 -89,22 -47,22 -86.5,58.5 -39.5,36.5 -65.5,83.5 -26,47 -26,97 0,32 12,56.5 12,24.5 34,41 22,16.5 51.5,24.5 29.5,8 65.5,8 73,0 137.5,-35.5 Q 930,1970 978,1913 q 48,-57 76,-127.5 28,-70.5 28,-139.5 0,-39 -11.5,-67 -11.5,-28 -31.5,-46 -20,-18 -47.5,-27 -27.5,-9 -58.5,-9 -49,0 -99.5,18 -50.5,18 -101.5,44.5 -51,26.5 -102,57.5 -51,31 -101,57.5 -50,26.5 -97.5,44.5 -47.5,18 -92.5,18 -24,0 -50,-6 -26,-6 -48.5,-20 -22.5,-14 -37,-38.5 Q 189,1648 189,1610 Z m -74,44 q 9,0 19.5,-6.5 10.5,-6.5 21,-17.5 10.5,-11 20,-24.5 9.5,-13.5 15.5,-27.5 3,-7 6.5,-17.5 3.5,-10.5 6.5,-21 3,-10.5 5,-20.5 2,-10 2,-16 0,-18 -7.5,-31.5 Q 196,1458 175,1458 q -18,0 -34,14 -16,14 -27.5,35.5 -11.5,21.5 -18,47 -6.5,25.5 -6.5,47.5 0,28 6,40 6,12 20,12 z m 82,-296 q -5,0 -15,6 -10,6 -41,23 -23,13 -34.5,19 -11.5,6 -16.5,6 -7,0 -7,-6 0,-4 10,-10 12,-7 20.5,-13 8.5,-6 16,-12 7.5,-6 14.5,-13.5 7,-7.5 16,-17.5 14,-15 22.5,-25.5 8.5,-10.5 25.5,-10.5 18,0 22,10.5 4,10.5 11,25.5 l 8.5,17 q 0,0 7.5,13 7.5,13 9.5,12 2,-1 14.5,15 5,5 5,9 0,6 -8,6 -4,0 -16,-7 -12,-7 -26,-19 -21,-18 -27.5,-23 -6.5,-5 -11.5,-5 z"></path></svg>
