<?xml version="1.0" encoding="UTF-8" standalone="no"?>
<svg xmlns="http://www.w3.org/2000/svg" width="4558" height="2057"><path id="path813" d="m 523,1374 q 2,16 3.5,32.5 1.5,16.5 1.5,35.5 0,113 -32,199 -32,86 -85,144.5 -53,58.5 -121.5,88 Q 221,1903 149,1903 112,1903 84,1892 56,1881 37.5,1862 19,1843 9.5,1817.5 0,1792 0,1763 q 0,-63 33.5,-126 33.5,-63 92,-117 58.5,-54 137.5,-94.5 79,-40.5 169,-57.5 -6,-42 -18,-73 -12,-31 -23.5,-59.5 -11.5,-28.5 -20,-58.5 -8.5,-30 -8.5,-72 0,-24 10.5,-42.5 10.5,-18.5 26.5,-31 16,-12.5 35,-18.5 19,-6 36,-6 28,0 48.5,14 20.5,14 20.5,36 0,19 -11.5,30.5 -11.5,11.5 -25.5,11.5 -15,0 -24,-7.5 -9,-7.5 -9,-18.5 0,-13 7.5,-19.5 7.5,-6.5 7.5,-18.5 0,-8 -5,-11.5 -5,-3.5 -10,-3.5 -15,0 -25,16 -10,16 -10,48 0,38 10.5,69 10.5,31 24.5,61.5 14,30.5 29,64.5 15,34 23,79 69,0 123.5,10.5 54.5,10.5 92.5,33 38,22.5 58.5,57.5 20.5,35 20.5,83 0,29 -12.5,47 -12.5,18 -26.5,18 -26,0 -26,-25 0,-10 5.5,-15.5 5.5,-5.5 12,-11 6.5,-5.5 12,-13.5 5.5,-8 5.5,-23 0,-68 -69,-106.5 Q 648,1374 523,1374 Z m -85,73 q 0,-17 -1,-32.5 -1,-15.5 -3,-29.5 -84,17 -157.5,56.5 -73.5,39.5 -128,91 -54.5,51.5 -86,111 Q 31,1703 31,1760 q 0,32 21,53.5 21,21.5 65,21.5 60,0 117.5,-31.5 Q 292,1772 337,1719 q 45,-53 73,-123.5 28,-70.5 28,-148.5 z m -290,527 q 0,-6 1.5,-13 1.5,-7 5,-13.5 3.5,-6.5 9.5,-11 6,-4.5 16,-4.5 15,0 24,11 9,11 9,25 0,12 -7,27 -7,15 -18,29 -11,14 -24,23.5 -13,9.5 -24,9.5 -9,0 -9,-7 0,-2 2.5,-4 2.5,-2 4.5,-4 7,-5 17,-15 10,-10 12,-28 -10,0 -14.5,-8 -4.5,-8 -4.5,-17 z"></path></svg>
