<?xml version="1.0" encoding="UTF-8" standalone="no"?>
<svg xmlns="http://www.w3.org/2000/svg" width="4558" height="2057"><path id="path241" d="m 926,1550 q -29,62 -62,122 -33,60 -72,109 -15,65 -54,118 49,21 97.5,35.5 48.5,14.5 89.5,14.5 35,0 63,-9 28,-9 51,-23 l 8,10 q -6,8 -20,24.5 -14,16.5 -32,33 -18,16.5 -38.5,29 -20.5,12.5 -40.5,12.5 -27,0 -53,-8 -26,-8 -51.5,-21.5 -25.5,-13.5 -51,-30 Q 735,1950 710,1932 q -56,59 -135.5,92 -79.5,33 -167.5,33 -75,0 -148,-24.5 Q 186,2008 128.5,1960 71,1912 35.5,1841 0,1770 0,1677 q 0,-73 22,-135.5 22,-62.5 59,-113 37,-50.5 86,-89.5 49,-39 103,-65 54,-26 110,-39.5 56,-13.5 107,-13.5 59,0 100,7 33,-34 86.5,-55 53.5,-21 122.5,-21 44,0 83,6.5 39,6.5 76.5,14 37.5,7.5 74.5,14 37,6.5 76,6.5 14,-18 29.5,-28.5 15.5,-10.5 32.5,-10.5 14,0 21.5,7 7.5,7 7.5,17 0,13 -8,23 -8,10 -21.5,17.5 -13.5,7.5 -30.5,11.5 -17,4 -35,5 -27,21 -49,50 -22,29 -48,86 -12,26 -24,54 -12,28 -26,59 5,1 8.5,1 h 7.5 q 18,0 32,-4 14,-4 25,-9 11,-6 21,-14 l 9,9 q -35,41 -62,63.5 -27,22.5 -55,22.5 -8,0 -15,-3 z M 541,1334 q 0,-48 31,-88 -19,-2 -40,-3.5 -21,-1.5 -45,-1.5 -67,0 -137.5,30 -70.5,30 -128.5,86.5 -58,56.5 -95,138.5 -37,82 -37,185 0,77 25.5,140 25.5,63 70,107.5 44.5,44.5 105,68.5 60.5,24 130.5,24 73,0 144,-27.5 71,-27.5 123,-77.5 -8,-6 -17,-11.5 -9,-5.5 -18,-10.5 -28,14 -59.5,20 -31.5,6 -60.5,6 -40,0 -66,-15 -26,-15 -26,-41 0,-20 19,-31.5 19,-11.5 38,-11.5 26,0 48.5,4.5 22.5,4.5 48.5,14.5 54,-35 94.5,-88 40.5,-53 74.5,-116 -23,-63 -73,-95 -50,-32 -107,-32 -34,0 -64,10.5 -30,10.5 -52,29.5 -22,19 -35,45 -13,26 -13,56 0,30 7.5,50.5 7.5,20.5 19.5,33 12,12.5 27.5,17.5 15.5,5 32.5,5 25,0 40.5,-15 15.5,-15 15.5,-29 0,-10 -5,-12.5 -5,-2.5 -5,-10.5 0,-6 4.5,-10 4.5,-4 9.5,-4 15,0 15,19 0,28 -22.5,51 -22.5,23 -62.5,23 -16,0 -37,-5 -21,-5 -40,-18 -19,-13 -32,-35 -13,-22 -13,-57 0,-34 19,-63.5 19,-29.5 49.5,-51 30.5,-21.5 67.5,-33.5 37,-12 73,-12 61,0 111,28 27,-26 66.5,-39.5 Q 800,1468 837,1468 h 12 q 20,-36 40.5,-69 20.5,-33 44.5,-62 38,-45 68.5,-67.5 30.5,-22.5 56.5,-36.5 -56,-1 -91.5,-8.5 -35.5,-7.5 -65,-16 -29.5,-8.5 -59.5,-15 -30,-6.5 -76,-6.5 -42,0 -80,13 -38,13 -67,36 97,27 97,103 0,39 -23.5,62 -23.5,23 -57.5,23 -17,0 -34,-5 -17,-5 -30.5,-16 -13.5,-11 -22,-28 -8.5,-17 -8.5,-41 z m 160,4 q 0,-33 -23.5,-54.5 Q 654,1262 603,1251 q -17,18 -26,39.5 -9,21.5 -9,46.5 0,38 22.5,54.5 22.5,16.5 47.5,16.5 25,0 44,-18 19,-18 19,-52 z m 92,163 q -23,0 -45,5.5 -22,5.5 -43,20.5 47,31 72,83 14,-26 26.5,-51.5 12.5,-25.5 25.5,-51.5 -18,-6 -36,-6 z m -289,375 q 20,0 37,-5 17,-5 35,-17 -22,-8 -36,-10.5 -14,-2.5 -31,-2.5 -22,0 -30.5,5.5 -8.5,5.5 -8.5,12.5 0,8 9.5,12.5 9.5,4.5 24.5,4.5 z m 209,12 q 13,-15 23.5,-31.5 10.5,-16.5 18.5,-34.5 -34,34 -71,53 z"></path></svg>
