<?xml version="1.0" encoding="UTF-8" standalone="no"?>
<svg xmlns="http://www.w3.org/2000/svg" width="4558" height="2057"><path id="path532" d="m 144,1846 q 0,16 -8,36 -8,20 -18,40 -10,20 -18,39.5 -8,19.5 -8,34.5 0,11 4,16 4,5 9,5 7,0 15,-4.5 8,-4.5 16,-10.5 9,-6 17,-15 l 8,8 q -16,18 -34,31 -15,12 -33.5,21.5 Q 75,2057 58,2057 36,2057 18,2047.5 0,2038 0,2007 0,1991 8.5,1971.5 17,1952 27,1933 q 10,-19 18.5,-37 8.5,-18 8.5,-33 0,-9 -9,-9 -4,0 -10,3.5 -6,3.5 -12,8.5 -7,5 -15,12 l -7,-9 q 6,-5 17.5,-14.5 11.5,-9.5 25,-19 13.5,-9.5 28,-16.5 14.5,-7 26.5,-7 21,0 33.5,10 12.5,10 12.5,24 z m 96,-61 q 6,-19 11,-38 5,-17 8.5,-35.5 3.5,-18.5 3.5,-35.5 0,-26 -8,-40.5 -8,-14.5 -33,-14.5 -21,0 -36,7.5 -15,7.5 -25,16.5 -11,11 -20,23 2,0 5,-1 6,-2 8,-2 12,0 20,8.5 8,8.5 8,21.5 0,12 -4.5,23.5 -4.5,11.5 -12,21 -7.5,9.5 -16.5,15 -9,5.5 -17,5.5 -14,0 -22,-9.5 -8,-9.5 -8,-23.5 0,-25 12.5,-48.5 12.5,-23.5 32.5,-41.5 20,-18 45.5,-28.5 25.5,-10.5 52.5,-10.5 19,0 36.5,5 17.5,5 30.5,15 13,10 20.5,23.5 7.5,13.5 7.5,30.5 0,17 -3.5,36.5 -3.5,19.5 -7.5,36.5 -4,20 -10,40 h 70 l -9,17 h -66 q -7,24 -15,50.5 -8,26.5 -14.5,51 -6.5,24.5 -11,45.5 -4.5,21 -4.5,34 0,19 6.5,26.5 6.5,7.5 16.5,7.5 10,0 20,-4.5 10,-4.5 18,-10.5 9,-6 17,-15 l 8,9 q -16,18 -34,31 -15,11 -33.5,20.5 -18.5,9.5 -36.5,9.5 -29,0 -49.5,-16.5 Q 181,2024 181,1998 q 0,-31 17,-80.5 17,-49.5 37,-115.5 h -23 l 9,-17 z"></path></svg>
