<?xml version="1.0" encoding="UTF-8" standalone="no"?>
<svg xmlns="http://www.w3.org/2000/svg" width="4558" height="2057"><path id="path366" d="m 223,1833 14,-58 q 6,-25 13.5,-53.5 7.5,-28.5 14.5,-52.5 -50,-7 -89,-25 -39,-18 -65.5,-44 Q 84,1574 70,1541.5 56,1509 56,1473 q 0,-35 10.5,-52 10.5,-17 23.5,-17 12,0 18.5,6.5 6.5,6.5 6.5,17.5 0,10 -5.5,15.5 -5.5,5.5 -12,11 -6.5,5.5 -12,13.5 -5.5,8 -5.5,23 0,26 12,52.5 12,26.5 35.5,48.5 23.5,22 59.5,38 36,16 84,22 32,-106 73.5,-194 41.5,-88 92,-150 50.5,-62 108.5,-96.5 58,-34.5 123,-34.5 37,0 65,11.5 28,11.5 46.5,30.5 18.5,19 28,44.5 9.5,25.5 9.5,53.5 0,71 -41.5,134.5 Q 734,1515 667,1563 q -67,48 -153,77.5 -86,29.5 -174,33.5 -3,9 -11.5,38.5 -8.5,29.5 -19,67 -10.5,37.5 -21.5,78 -11,40.5 -18,73.5 -3,11 -5,22.5 -2,11.5 -3.5,22 -1.5,10.5 -2,18 -0.5,7.5 -0.5,9.5 0,13 10,13 7,0 15,-4.5 8,-4.5 16,-9.5 9,-6 17,-15 l 8,8 q -17,18 -33,31 -14,12 -29.5,21.5 -15.5,9.5 -27.5,9.5 -27,0 -40.5,-11.5 Q 181,2034 181,2015 q 0,-6 0.5,-11 0.5,-5 2.5,-14 -8,11 -19,22.5 -11,11.5 -24,21.5 -13,10 -28,16.5 -15,6.5 -32,6.5 -35,0 -58,-18 -23,-18 -23,-56 0,-36 16.5,-67 16.5,-31 41,-54.5 24.5,-23.5 53.5,-37 29,-13.5 54,-13.5 21,0 34,5.5 13,5.5 24,16.5 z m 477,-589 q -61,0 -112.5,28.5 -51.5,28.5 -95.5,82 -44,53.5 -80,129.5 -36,76 -66,171 82,-4 161,-31.5 79,-27.5 141.5,-72.5 62.5,-45 100.5,-104.5 38,-59.5 38,-125.5 0,-35 -21.5,-56 -21.5,-21 -65.5,-21 z m -585,782 q 9,0 19.5,-7 10.5,-7 21,-18 10.5,-11 20.5,-24.5 10,-13.5 16,-27.5 3,-7 6.5,-18 3.5,-11 6.5,-22 3,-11 4.5,-21.5 1.5,-10.5 1.5,-16.5 0,-18 -7.5,-30 -7.5,-12 -28.5,-12 -18,0 -34,14 -16,14 -27.5,36 -11.5,22 -18,47.5 -6.5,25.5 -6.5,47.5 0,28 6,40 6,12 20,12 z"></path></svg>
