<?xml version="1.0" encoding="UTF-8" standalone="no"?>
<svg xmlns="http://www.w3.org/2000/svg" width="4558" height="2057"><path id="path75" d="m 512,1248 q 46,0 84,8.5 38,8.5 69,22.5 28,-24 62.5,-42.5 34.5,-18.5 73.5,-31 39,-12.5 80,-19.5 41,-7 82,-7 59,0 99,5.5 40,5.5 76,11.5 36,6 75,11.5 39,5.5 96,5.5 34,0 55.5,-6.5 21.5,-6.5 44.5,-20.5 4,-2 7.5,-4 3.5,-2 5.5,-2 7,0 7,6 0,-2 -9,15.5 -9,17.5 -26,39.5 -17,22 -41,40.5 -24,18.5 -54,18.5 -39,0 -74,-12.5 -35,-12.5 -65,-26.5 -33,44 -49,101 -16,57 -27,125 23,7 44,13 21,6 44,6 17,0 30.5,-4.5 13.5,-4.5 24.5,-10.5 12,-6 23,-15 l 9,9 q -35,41 -61.5,63.5 -26.5,22.5 -55.5,22.5 -23,0 -36.5,-8.5 -13.5,-8.5 -30.5,-19.5 -7,46 -16.5,102.5 -9.5,56.5 -26.5,113.5 -17,57 -43.5,110.5 -26.5,53.5 -66,95.5 -39.5,42 -95,67 -55.5,25 -130.5,25 -54,0 -102.5,-15 -48.5,-15 -81.5,-47 -29,11 -63,17.5 -34,6.5 -74,6.5 -72,0 -139.5,-21.5 Q 169,1976 116.5,1934 64,1892 32,1830 0,1768 0,1687 q 0,-66 21.5,-124 21.5,-58 58,-107 36.5,-49 86.5,-87.5 50,-38.5 106.5,-65.5 56.5,-27 118,-41 61.5,-14 121.5,-14 z m 473,271 q -13,0 -24,2 -11,2 -23,8 l -4,-7 q 6,-7 16,-13 8,-5 19,-11 11,-6 25,-10 24,-72 55.5,-136.5 31.5,-64.5 79.5,-105.5 -38,-17 -79.5,-32 -41.5,-15 -95.5,-15 -68,0 -133,29 -65,29 -109,80 38,31 56.5,72.5 18.5,41.5 18.5,89.5 0,31 -8.5,60 -8.5,29 -22.5,55 5,1 16,1 21,0 37.5,-7 16.5,-7 28,-18 11.5,-11 17.5,-24.5 6,-13.5 6,-27.5 0,-9 -2.5,-14 -2.5,-5 -6,-9.5 -3.5,-4.5 -6,-9.5 -2.5,-5 -2.5,-14 0,-12 6.5,-21.5 6.5,-9.5 23.5,-9.5 16,0 24.5,11.5 8.5,11.5 8.5,28.5 0,27 -11.5,51.5 -11.5,24.5 -31,42.5 -19.5,18 -45,29 -25.5,11 -53.5,11 h -11 q 0,0 -11,-1 -27,38 -67.5,62 -40.5,24 -89.5,24 -35,0 -65.5,-9.5 -30.5,-9.5 -53.5,-28 -23,-18.5 -36,-45.5 -13,-27 -13,-63 0,-35 15.5,-63.5 15.5,-28.5 40.5,-49 25,-20.5 56,-32.5 31,-12 62,-14 15,-51 58,-93 -27,-12 -60,-19 -33,-7 -72,-7 -82,0 -160.5,30 -78.5,30 -139.5,85.5 -61,55.5 -98,133 -37,77.5 -37,172.5 0,67 24.5,123 24.5,56 66,97 41.5,41 95,64 53.5,23 110.5,23 34,0 63,-4 29,-4 54,-12 -34,-42 -34,-101 0,-24 10.5,-45.5 10.5,-21.5 27.5,-38 17,-16.5 38.5,-26.5 21.5,-10 44.5,-10 32,0 51.5,17 19.5,17 19.5,51 0,41 -26.5,82.5 -26.5,41.5 -79.5,70.5 25,20 56.5,29 31.5,9 65.5,9 52,0 93.5,-25 41.5,-25 73,-66 31.5,-41 55,-93.5 23.5,-52.5 41,-107.5 17.5,-55 30,-108.5 Q 976,1562 985,1519 Z m -398,153 q 42,0 77,-19.5 35,-19.5 60,-51.5 -27,-6 -52.5,-18.5 Q 646,1570 627,1549.5 608,1529 596.5,1501.5 585,1474 585,1439 q 0,-20 5,-43 -27,3 -52,17 -25,14 -43.5,34.5 -18.5,20.5 -29.5,46.5 -11,26 -11,54 0,27 10,49.5 10,22.5 28,39 18,16.5 42.5,26 24.5,9.5 52.5,9.5 z m 180,-203 q 0,-42 -16.5,-79.5 Q 734,1352 700,1323 q -20,28 -31.5,60.5 -11.5,32.5 -11.5,67.5 0,49 20,84.5 20,35.5 60,46.5 14,-25 22,-53.5 8,-28.5 8,-59.5 z m -265,409 q 0,27 8.5,48 8.5,21 22.5,38 53,-25 78.5,-63.5 25.5,-38.5 25.5,-78.5 0,-23 -13,-36 -13,-13 -39,-13 -35,0 -59,29.5 -24,29.5 -24,75.5 z"></path></svg>
