<?xml version="1.0" encoding="UTF-8" standalone="no"?>
<svg xmlns="http://www.w3.org/2000/svg" width="4558" height="2057"><path id="path720" d="m 304,1879 q 2,-2 5,-4.5 3,-2.5 5,-2.5 6,0 6,5 0,3 -3,9 -9,13 -22,26.5 -13,13.5 -29.5,25 -16.5,11.5 -38,18.5 -21.5,7 -48.5,7 -42,0 -75,-14 Q 71,1935 47.5,1911.5 24,1888 12,1857.5 0,1827 0,1794 0,1762 13,1736.5 26,1711 47.5,1693 69,1675 97,1665.5 q 28,-9.5 59,-9.5 55,0 104,21 49,21 97.5,52.5 48.5,31.5 98,68 49.5,36.5 105.5,68 56,31.5 120.5,52.5 64.5,21 142.5,21 98,0 167.5,-35.5 69.5,-35.5 104.5,-96.5 -14,4 -28.5,5.5 -14.5,1.5 -28.5,1.5 -45,0 -78,-20.5 -33,-20.5 -51,-47.5 -19,23 -49.5,39 -30.5,16 -72.5,16 -32,0 -60,-9 -28,-9 -49,-27 -21,-18 -33,-44.5 -12,-26.5 -12,-61.5 0,-37 19,-74.5 19,-37.5 53.5,-67 34.5,-29.5 81,-48 Q 834,1451 890,1451 q 59,0 106.5,17.5 47.5,17.5 80.5,48.5 33,31 51,72.5 18,41.5 18,89.5 0,14 -1,28 -1,14 -3,28 48,-14 103,-34 55,-20 111.5,-38 56.5,-18 112.5,-31 56,-13 108,-13 94,0 149.5,39 55.5,39 55.5,118 0,46 -23.5,95.5 -23.5,49.5 -65.5,91 -42,41.5 -100.5,68 -58.5,26.5 -129.5,26.5 -49,0 -87,-11.5 -38,-11.5 -64.5,-31 -26.5,-19.5 -40,-45.5 -13.5,-26 -13.5,-55 0,-25 11.5,-45 11.5,-20 27,-34 15.5,-14 31.5,-21.5 16,-7.5 25,-7.5 2,0 5,1 3,1 3,5 0,4 -3,5.5 -3,1.5 -6,2.5 -10,2 -21.5,8 -11.5,6 -21.5,16.5 -10,10.5 -16.5,25 -6.5,14.5 -6.5,33.5 0,21 14,38.5 14,17.5 38,30.5 24,13 57.5,20 33.5,7 72.5,7 66,0 121,-19 55,-19 94,-50 39,-31 61,-70.5 22,-39.5 22,-81.5 0,-70 -53,-106 -53,-36 -151,-36 -58,0 -114.5,19 -56.5,19 -111.5,45 -55,26 -107.5,53.5 -52.5,27.5 -101.5,43.5 -14,44 -39,82.5 -25,38.5 -61,67.5 -36,29 -83,46 -47,17 -106,17 -66,0 -128,-25.5 -62,-25.5 -121,-63 -59,-37.5 -115,-82 -56,-44.5 -110.5,-82 Q 309,1720 257,1694.5 205,1669 154,1669 q -26,0 -48.5,8 -22.5,8 -39,22.5 -16.5,14.5 -26.5,35 -10,20.5 -10,45.5 0,32 12.5,57 12.5,25 35,43 22.5,18 52.5,27.5 30,9.5 65,9.5 37,0 65,-11 28,-11 44,-27 z m 634,-195 q 0,21 -15,45 25,26 108,26 38,0 91,-14 7,-28 7,-62 0,-43 -17.5,-76.5 -17.5,-33.5 -49.5,-57 -32,-23.5 -76.5,-36 Q 941,1497 887,1497 q -47,0 -89.5,13.5 -42.5,13.5 -74,36.5 -31.5,23 -50,53.5 -18.5,30.5 -18.5,64.5 0,56 38,88 38,32 95,32 41,0 69.5,-15.5 28.5,-15.5 45.5,-35.5 -10,-20 -10,-41 0,-15 8,-24 8,-9 17,-9 20,0 20,24 z m -29,7 q 0,17 5,26 10,-18 10,-30 0,-12 -6,-12 -3,0 -6,4 -3,4 -3,12 z"></path></svg>
