<?xml version="1.0" encoding="UTF-8" standalone="no"?>
<svg xmlns="http://www.w3.org/2000/svg" width="4558" height="2057"><path id="path7" d="m 1219,1105 q 8,0 15,11 8,12 19.5,27.5 11.5,15.5 25.5,30.5 14,15 28.5,27 14.5,12 28.5,16 6,1 6,8 0,9 -10,9 -10,0 -24.5,-3.5 -14.5,-3.5 -30,-10 -15.5,-6.5 -31.5,-16 -16,-9.5 -30,-21.5 -23,-20 -23,-38 0,-12 9,-26 9,-14 17,-14 z m -110,533 q -25,-5 -48.5,-13 -23.5,-8 -47.5,-18 -28,60 -54.5,117 -26.5,57 -56,107 -29.5,50 -63.5,91.5 -34,41.5 -76,71.5 -42,30 -93.5,46.5 Q 618,2057 553,2057 q -53,0 -100.5,-16 -47.5,-16 -85,-43.5 Q 330,1970 303.5,1932 277,1894 266,1849 212,1849 163.5,1831.5 115,1814 78.5,1780 42,1746 21,1696.5 0,1647 0,1583 q 0,-103 45,-188 45,-85 120,-145.5 75,-60.5 172,-93.5 97,-33 201,-33 82,0 153.5,20.5 71.5,20.5 124,59 52.5,38.5 83,93 30.5,54.5 30.5,123.5 0,27 -5,52 -5,25 -13,48 18,9 36,18.5 18,9.5 35,19.5 37,-55 73,-102 36,-47 71.5,-82 35.5,-35 71,-57 35.5,-22 70.5,-28 22,-4 37.5,-8 15.5,-4 25.5,-8 11,-4 18,-8 l 5,10 q -6,6 -13,15 -6,8 -14.5,20 -8.5,12 -16.5,30 -8,15 -19,44.5 -11,29.5 -24.5,67 -13.5,37.5 -27.5,81.5 -14,44 -27,87 23,-7 36,-18.5 13,-11.5 21,-19.5 l 7,7 q -8,11 -24.5,26.5 -16.5,15.5 -44.5,23.5 -10,33 -18,63.5 -8,30.5 -14,56 -6,25.5 -9.5,45.5 -3.5,20 -3.5,32 0,11 3.5,14 3.5,3 8.5,3 7,0 15,-4.5 8,-4.5 16,-10.5 9,-7 17,-16 l 8,8 q -16,18 -33,31 -14,12 -30.5,21.5 -16.5,9.5 -31.5,9.5 -27,0 -48,-14 -21,-14 -21,-49 0,-33 11.5,-82 11.5,-49 31.5,-108 z M 537,1143 q -95,0 -181.5,33 -86.5,33 -152,91.5 Q 138,1326 99.5,1407 61,1488 61,1584 q 0,52 16.5,96 16.5,44 44.5,77 28,33 64.5,52 36.5,19 75.5,20 -3,-19 -3,-41 0,-41 13,-72 13,-31 33.5,-51.5 20.5,-20.5 44.5,-31 24,-10.5 46,-10.5 35,0 52.5,19 17.5,19 17.5,51 0,24 -10.5,49 -10.5,25 -30.5,46 -20,21 -51,36.5 -31,15.5 -71,21.5 24,67 86,100 62,33 149,33 65,0 120.5,-31 55.5,-31 106.5,-84.5 51,-53.5 99.5,-125.5 48.5,-72 99.5,-153 -17,-8 -35,-15 -18,-7 -36,-13 -31,54 -81.5,86 -50.5,32 -110.5,32 -47,0 -84,-12 -3,14 -3,28 0,23 3,38.5 3,15.5 7,25.5 4,11 10,18 l -10,8 q -13,-17 -23,-37 -8,-17 -15,-40 -7,-23 -7,-49 v -10 Q 542,1623 522.5,1589.5 503,1556 503,1517 q 0,-30 11,-53.5 11,-23.5 28,-40 17,-16.5 37.5,-25 20.5,-8.5 39.5,-8.5 18,0 29.5,8 11.5,8 11.5,21 0,13 -9,22 -9,9 -19,9 -8,0 -13.5,-2.5 -5.5,-2.5 -9.5,-5 l -8,-5 q 0,0 -10,-2.5 -10,0 -21,4.5 -11,4.5 -20.5,14.5 -9.5,10 -15.5,27 -6,17 -6,41 0,29 14,55 14,26 41,45 6,-27 22,-52.5 16,-25.5 39.5,-45.5 23.5,-20 55,-32 31.5,-12 69.5,-12 32,0 62.5,8.5 30.5,8.5 60.5,21.5 8,-21 12,-44 4,-23 4,-49 0,-63 -29,-113.5 -29,-50.5 -79.5,-86 -50.5,-35.5 -118,-55 Q 614,1143 537,1143 Z m 489,437 q 23,12 45,21.5 22,9.5 44,15.5 18,-53 39,-109.5 21,-56.5 44,-112.5 11,-25 24.5,-49 13.5,-24 33.5,-37 -32,9 -62,33 -30,24 -58.5,59.5 -28.5,35.5 -56,81 -27.5,45.5 -53.5,97.5 z m -735,189 q 0,32 6,59 38,-4 66,-18.5 28,-14.5 46.5,-33.5 18.5,-19 27.5,-41.5 9,-22.5 9,-43.5 0,-22 -13,-36 -13,-14 -39,-14 -15,0 -32.5,8.5 -17.5,8.5 -33.5,25 -16,16.5 -26.5,40 Q 291,1738 291,1769 Z m 493,-232 q -29,0 -54.5,8.5 -25.5,8.5 -46,23.5 -20.5,15 -35.5,34 -15,19 -24,40 33,12 76,12 54,0 99,-28 45,-28 74,-76 -22,-6 -44,-10 -22,-4 -45,-4 z"></path></svg>
