<?xml version="1.0" encoding="UTF-8" standalone="no"?>
<svg xmlns="http://www.w3.org/2000/svg" width="4558" height="2057"><path id="path797" d="m 372,1653 q 0,-51 -9,-87.5 -9,-36.5 -20.5,-65.5 -11.5,-29 -20.5,-54 -9,-25 -9,-54 0,-24 10.5,-42.5 10.5,-18.5 26.5,-31 16,-12.5 35,-18.5 19,-6 36,-6 28,0 48.5,14 20.5,14 20.5,36 0,19 -11.5,30.5 -11.5,11.5 -25.5,11.5 -15,0 -24,-7.5 -9,-7.5 -9,-18.5 0,-13 7.5,-19.5 7.5,-6.5 7.5,-18.5 0,-8 -5,-11.5 -5,-3.5 -10,-3.5 -15,0 -25,16 -10,16 -10,48 0,28 10,55 10,27 22.5,59 12.5,32 22.5,72 10,40 10,95 0,54 -19,101.5 -19,47.5 -52,83.5 -33,36 -78,57 -45,21 -96,21 -46,0 -84,-13.5 Q 83,1888 56,1865 29,1842 14.5,1810 0,1778 0,1742 q 0,-34 13,-62 13,-28 33.5,-48 20.5,-20 46,-31 25.5,-11 51.5,-11 45,0 69,21.5 24,21.5 24,59.5 0,34 -20,56.5 -20,22.5 -47,22.5 -20,0 -30,-8 -10,-8 -10,-19 0,-11 6.5,-17 6.5,-6 17.5,-6 8,0 12.5,4 4.5,4 7.5,9.5 3,5.5 5.5,9.5 2.5,4 8.5,4 10,0 22.5,-15 12.5,-15 12.5,-41 0,-32 -21,-50 -21,-18 -58,-18 -22,0 -43.5,10 -21.5,10 -38,27.5 -16.5,17.5 -27,41.5 -10.5,24 -10.5,52 0,65 46.5,99.5 46.5,34.5 120.5,34.5 42,0 75.5,-17 33.5,-17 57,-46 23.5,-29 35.5,-68.5 12,-39.5 12,-83.5 z m -195,321 q 0,-6 1.5,-13 1.5,-7 5,-13.5 3.5,-6.5 9.5,-11 6,-4.5 16,-4.5 15,0 24,11 9,11 9,25 0,12 -7,27 -7,15 -18,29 -11,14 -24,23.5 -13,9.5 -24,9.5 -9,0 -9,-7 0,-2 2.5,-4 2.5,-2 4.5,-4 7,-5 17,-15 10,-10 12,-28 -10,0 -14.5,-8 -4.5,-8 -4.5,-17 z"></path></svg>
