<?xml version="1.0" encoding="UTF-8" standalone="no"?>
<svg xmlns="http://www.w3.org/2000/svg" width="4558" height="2057"><path id="path772" d="m 175,1333 q -16,20 -41.5,39 -25.5,19 -52.5,19 -35,0 -58,-20.5 Q 0,1350 0,1315 q 0,-36 16.5,-67 16.5,-31 41,-54.5 24.5,-23.5 53.5,-37 29,-13.5 54,-13.5 29,0 44,13 15,13 17,33 5,-15 18,-25 13,-10 39,-14 12,-2 21,-4.5 9,-2.5 15,-5.5 7,-4 12,-7 l 6,11 q -7,5 -14,11 -6,5 -13,13.5 -7,8.5 -13,19.5 -9,17 -19.5,49.5 -10.5,32.5 -21.5,72.5 -11,42 -23,90 -12,48 -22,90 -10,42 -16.5,73.5 -6.5,31.5 -6.5,41.5 20,-18 52,-40.5 32,-22.5 74.5,-42 42.5,-19.5 94,-32.5 51.5,-13 111.5,-13 40,0 78,9 38,9 67,29 29,20 47,51.5 18,31.5 18,75.5 0,50 -17.5,100 -17.5,50 -48,96 -30.5,46 -72,86 -41.5,40 -88,69.5 -46.5,29.5 -97,46.5 -50.5,17 -99.5,17 -38,0 -74.5,-8 -36.5,-8 -65,-25 -28.5,-17 -46,-43.5 Q 105,1954 105,1916 q 0,-41 16,-78 16,-37 42.5,-68 26.5,-31 60.5,-56 34,-25 71,-42.5 37,-17.5 73.5,-27 36.5,-9.5 67.5,-9.5 43,0 73,19.5 30,19.5 30,65.5 0,21 -8,35 -8,14 -20,14 -10,0 -17,-6 -7,-6 -7,-16 0,-7 4.5,-12 4.5,-5 9.5,-9.5 5,-4.5 9.5,-9.5 4.5,-5 4.5,-14 0,-24 -22,-38 -22,-14 -57,-14 -42,0 -89,22 -47,22 -86,60 -39,38 -65,88 -26,50 -26,105 0,59 37,87.5 37,28.5 100,28.5 69,0 132,-35.5 63,-35.5 111,-92.5 48,-57 76.5,-127.5 Q 655,1715 655,1646 655,1568 614.5,1532.5 574,1497 507,1497 q -53,0 -103,13.5 -50,13.5 -92,34 -42,20.5 -74,43 -32,22.5 -51,40.5 -29,27 -45,40 -16,13 -24,13 -9,0 -16.5,-6.5 Q 94,1668 94,1659 q 0,-12 8,-49.5 8,-37.5 20,-85.5 12,-48 26,-99 14,-51 27,-92 z m -60,27 q 17,0 39,-22 22,-22 36,-51 3,-7 7,-19 4,-12 7,-24.5 3,-12.5 5,-23.5 2,-11 2,-17 0,-18 -8.5,-30 -8.5,-12 -27.5,-12 -18,0 -34,14 -16,14 -27.5,36 -11.5,22 -18,47.5 -6.5,25.5 -6.5,47.5 0,54 26,54 z"></path></svg>
