<?xml version="1.0" encoding="UTF-8" standalone="no"?>
<svg xmlns="http://www.w3.org/2000/svg" width="4558" height="2057"><path id="path583" d="m 305,1296 q 54,0 107,9.5 53,9.5 105,24.5 52,15 104,34.5 52,19.5 104,39.5 45,-80 99.5,-153 54.5,-73 118.5,-128 64,-55 138,-87.5 74,-32.5 158,-32.5 75,0 131,19 56,19 93.5,52 37.5,33 56.5,77.5 19,44.5 19,94.5 0,68 -27,122 -27,54 -74,92.5 -47,38.5 -110.5,59 Q 1264,1540 1190,1540 1079,1540 977.5,1519.5 876,1499 779,1472 q -41,81 -71.5,163 -30.5,82 -51,152.5 Q 636,1858 626,1912 q -10,54 -10,79 0,15 5.5,20.5 5.5,5.5 13.5,5.5 9,0 18,-4.5 9,-4.5 17,-10.5 9,-6 17,-15 l 8,8 q -16,18 -34,31 -15,12 -33,21.5 -18,9.5 -35,9.5 -27,0 -44.5,-17.5 Q 531,2022 531,1996 q 0,-33 11,-92 11,-59 32.5,-132.5 Q 596,1698 628,1615 660,1532 702,1449 597,1419 496.5,1395 396,1371 293,1371 q -62,0 -111,11.5 -49,11.5 -83.5,34 -34.5,22.5 -53,55 Q 27,1504 27,1546 q 0,26 7,43.5 7,17.5 17,27.5 10,10 22,14 12,4 22,4 10,0 16.5,-4 6.5,-4 12,-9.5 5.5,-5.5 11,-9.5 5.5,-4 14.5,-4 26,0 26,25 0,14 -16,23 -16,9 -39,9 -18,0 -39,-7 -21,-7 -39,-23 -18,-16 -30,-41 -12,-25 -12,-60 0,-48 22,-91 22,-43 61.5,-75.5 39.5,-32.5 96,-52 Q 236,1296 305,1296 Z m 946,-223 q -74,0 -138.5,29 -64.5,29 -121,78.5 -56.5,49.5 -104.5,115 -48,65.5 -87,137.5 92,35 188.5,61.5 96.5,26.5 200.5,26.5 69,0 127,-19 58,-19 100.5,-53.5 42.5,-34.5 66.5,-82.5 24,-48 24,-106 0,-42 -16,-76 -16,-34 -47.5,-59 -31.5,-25 -80,-38.5 Q 1315,1073 1251,1073 Z m -480,475 q 0,-6 1.5,-13 1.5,-7 5,-13.5 3.5,-6.5 9.5,-11 6,-4.5 16,-4.5 15,0 24,11 9,11 9,25 0,12 -7,27 -7,15 -18,29 -11,14 -24,23.5 -13,9.5 -24,9.5 -9,0 -9,-7 0,-2 2.5,-4 2.5,-2 4.5,-4 7,-5 17,-15 10,-10 12,-28 -10,0 -14.5,-8 -4.5,-8 -4.5,-17 z"></path></svg>
