<?xml version="1.0" encoding="UTF-8" standalone="no"?>
<svg xmlns="http://www.w3.org/2000/svg" width="4558" height="2057"><path id="path968" d="m 1093,729 q 8,0 16.5,14 8.5,14 8.5,26 0,17 -23,37 -28,25 -59.5,38 -31.5,13 -56.5,13 -4,0 -7.5,-2 -3.5,-2 -3.5,-7 0,-5 9,-9 22,-10 49.5,-34 27.5,-24 51.5,-65 5,-11 15,-11 z m -63,533 q -8,58 -26,120 -18,62 -48,118.5 -30,56.5 -72.5,103 Q 841,1650 783,1677 q -21,75 -59.5,143.5 -38.5,68.5 -94,121 -55.5,52.5 -127,84 Q 431,2057 344,2057 266,2057 202.5,2032 139,2007 94,1962.5 49,1918 24.5,1858 0,1798 0,1729 0,1654 29,1591.5 58,1529 105.5,1485 153,1441 214,1416.5 275,1392 340,1392 q 22,0 43,3 12,-33 34,-58.5 22,-25.5 51,-43 29,-17.5 62,-26.5 33,-9 68,-9 41,0 78.5,13.5 37.5,13.5 66,44 28.5,30.5 45.5,80 17,49.5 17,120.5 0,17 -1,33.5 -1,16.5 -3,33.5 30,-30 54,-69.5 24,-39.5 42,-82 18,-42.5 31.5,-85.5 13.5,-43 23.5,-82 9,-35 20.5,-93.5 Q 984,1112 997,1047 q -29,32 -63.5,53.5 -34.5,21.5 -61.5,21.5 -23,0 -41,-13.5 -18,-13.5 -18,-40.5 0,-16 8.5,-35.5 8.5,-19.5 18.5,-38.5 10,-19 18.5,-37 8.5,-18 8.5,-33 0,-10 -7,-10 -5,0 -11,4 -6,4 -12,9 -7,6 -15,13 l -8,-9 q 6,-6 17.5,-15.5 11.5,-9.5 25,-19 13.5,-9.5 28,-16.5 14.5,-7 26.5,-7 22,0 33,9 11,9 11,24 0,15 -8,35 -8,20 -17,41 -9,21 -17,42 -8,21 -8,38 0,17 15,17 14,0 28,-10.5 14,-10.5 36,-33.5 13,-14 20,-29.5 7,-15.5 14,-44.5 5,-22 11.5,-37 6.5,-15 15.5,-24 9,-9 21.5,-14 12.5,-5 29.5,-7 22,-3 36,-10 7,-4 12,-7 l 6,12 q -5,2 -9,6 -4,3 -9,8 -5,5 -10,11 -14,19 -24,42 -10,23 -21,65 -7,26 -14,61.5 -7,35.5 -13.5,71.5 -6.5,36 -11.5,69 -5,33 -8,54 z m -381,443 q -20,0 -40,-2.5 -20,-2.5 -40,-7.5 -11,35 -31,65 -20,30 -47,51.5 -27,21.5 -60,33.5 -33,12 -69,12 -33,0 -61.5,-9.5 -28.5,-9.5 -50,-27 -21.5,-17.5 -34,-41 Q 204,1756 204,1727 q 0,-33 13.5,-47.5 13.5,-14.5 26.5,-14.5 11,0 18,7.5 7,7.5 7,18.5 0,10 -5.5,16.5 -5.5,6.5 -12,12.5 -6.5,6 -12,13 -5.5,7 -5.5,19 0,16 10,32 10,16 27,28.5 17,12.5 41,20 24,7.5 52,7.5 67,0 117,-42 50,-42 68,-109 -37,-12 -69.5,-32 -32.5,-20 -57,-48 -24.5,-28 -38.5,-63.5 -14,-35.5 -14,-78.5 0,-29 8,-56 -9,-2 -18,-2 h -19 q -58,0 -111.5,24 -53.5,24 -95,66.5 Q 93,1542 68.5,1600 44,1658 44,1726 q 0,60 21.5,110 21.5,50 61,86 39.5,36 95.5,55.5 56,19.5 125,19.5 78,0 144,-24.5 66,-24.5 118.5,-66.5 52.5,-42 91,-98.5 Q 739,1751 761,1686 q -26,9 -53.5,14 -27.5,5 -58.5,5 z m -14,-50 q 45,0 81,-14.5 36,-14.5 65,-39.5 4,-20 5.5,-41 1.5,-21 1.5,-42 0,-69 -17,-116 -17,-47 -44.5,-76 -27.5,-29 -62,-41.5 Q 630,1272 595,1272 q -30,0 -59,8.5 -29,8.5 -53.5,25 -24.5,16.5 -43,40.5 -18.5,24 -27.5,55 37,9 68,28.5 31,19.5 53,47 22,27.5 34.5,63.5 12.5,36 12.5,78 0,8 -0.5,15.5 -0.5,7.5 -1.5,15.5 30,6 57,6 z M 404,1458 q 0,38 13,68.5 13,30.5 34,53.5 21,23 48.5,38.5 27.5,15.5 57.5,24.5 1,-5 1,-11 v -11 q 0,-41 -11.5,-75 -11.5,-34 -32,-59.5 -20.5,-25.5 -48,-42.5 -27.5,-17 -58.5,-26 -2,9 -3,19 -1,10 -1,21 z"></path></svg>
