<?xml version="1.0" encoding="UTF-8" standalone="no"?>
<svg xmlns="http://www.w3.org/2000/svg" width="4558" height="2057"><path id="path732" d="m 340,2035 q 51,0 92,-17 41,-17 72,-42 31,-25 53,-54.5 22,-29.5 34,-53.5 8,-17 13,-17 3,0 6,1.5 3,1.5 3,5.5 0,7 -9,25 -13,26 -36.5,56 -23.5,30 -58,56.5 -34.5,26.5 -79.5,44 -45,17.5 -101,17.5 -69,0 -129,-22 Q 140,2013 95.5,1972.5 51,1932 25.5,1875.5 0,1819 0,1751 q 0,-69 26,-124 26,-55 68,-93.5 42,-38.5 95.5,-59 Q 243,1454 299,1454 q 53,0 94,15 41,15 68.5,41.5 27.5,26.5 41.5,62 14,35.5 14,77.5 0,33 -10.5,62 -10.5,29 -28,50 -17.5,21 -41,33.5 -23.5,12.5 -48.5,12.5 -22,0 -34.5,-8.5 Q 342,1791 342,1778 q 0,-10 6.5,-17 6.5,-7 16.5,-7 9,0 14,4 5,4 9.5,9 4.5,5 8.5,9 4,4 12,4 16,0 32.5,-9.5 16.5,-9.5 29.5,-26.5 13,-17 21.5,-40.5 8.5,-23.5 8.5,-51.5 0,-37 -13.5,-68 -13.5,-31 -39,-53 -25.5,-22 -61,-34 -35.5,-12 -79.5,-12 -49,0 -94,18.5 -45,18.5 -79,53.5 -34,35 -54.5,84.5 Q 60,1691 60,1753 q 0,62 20,114 20,52 56.5,89.5 36.5,37.5 88,58 Q 276,2035 340,2035 Z"></path></svg>
