<?xml version="1.0" encoding="UTF-8" standalone="no"?>
<svg xmlns="http://www.w3.org/2000/svg" width="4558" height="2057"><path id="path162" d="m 811,1984 q -50,0 -89,-14.5 -39,-14.5 -67,-37.5 -46,55 -115,90 -69,35 -160,35 -80,0 -149.5,-21.5 Q 161,2014 110,1971.5 59,1929 29.5,1866.5 0,1804 0,1721 q 0,-106 52,-197.5 52,-91.5 139,-159 87,-67.5 202,-105.5 115,-38 241,-38 92,0 164.5,18.5 72.5,18.5 126.5,50.5 65,-33 138,-50.5 73,-17.5 139,-17.5 32,0 59,2.5 27,2.5 54,7.5 41,-25 87,-25 22,0 41,5 19,5 19,13 0,9 -6,14.5 -6,5.5 -13,5.5 -5,0 -8.5,-3.5 -3.5,-3.5 -7,-7.5 -3.5,-4 -9.5,-7.5 -6,-3.5 -16,-3.5 -14,0 -24,5 -10,5 -23,15 36,12 67,29 31,17 53,38.5 22,21.5 34.5,48 12.5,26.5 12.5,56.5 0,52 -26,91 -26,39 -63,65.5 -37,26.5 -78,39.5 -41,13 -71,13 -20,0 -32,-4 -12,-4 -12,-9 0,-3 1.5,-6 1.5,-3 6.5,-3 3,0 6.5,1.5 3.5,1.5 11.5,1.5 25,0 51,-12 26,-12 47.5,-36 21.5,-24 35.5,-59.5 14,-35.5 14,-81.5 0,-49 -17.5,-87 -17.5,-38 -61.5,-61 -23,24 -42.5,60.5 -19.5,36.5 -36.5,81 -17,44.5 -33,94 -16,49.5 -34,100 -18,50.5 -38.5,100 -20.5,49.5 -45.5,92.5 -23,40 -50.5,74 -27.5,34 -63,59.5 -35.5,25.5 -79.5,40 -44,14.5 -101,14.5 z m 392,-745 q -60,0 -124.5,20 -64.5,20 -119.5,54 47,37 71.5,84 24.5,47 24.5,101 0,32 -10,60.5 -10,28.5 -29,50.5 -19,22 -45,35 -26,13 -58,13 -33,0 -62.5,-9.5 Q 821,1638 798,1620 775,1602 761.5,1574.5 748,1547 748,1511 q 0,-33 11.5,-63 11.5,-30 32.5,-56.5 21,-26.5 49.5,-49 Q 870,1320 903,1301 852,1272 785,1255.5 718,1239 634,1239 q -106,0 -206.5,38.5 -100.5,38.5 -179,104 -78.5,65.5 -126,153 Q 75,1622 75,1720 q 0,74 22.5,133 22.5,59 63,100 40.5,41 97,63 56.5,22 124.5,22 84,0 145,-38.5 61,-38.5 99,-98.5 -38,-52 -38,-112 0,-28 9.5,-51.5 9.5,-23.5 23,-42 13.5,-18.5 29.5,-30.5 16,-12 30,-16 -7,-39 -25,-69 -18,-30 -43.5,-50 -25.5,-20 -58,-30.5 Q 521,1489 485,1489 q -40,0 -77.5,15.5 -37.5,15.5 -67,42 -29.5,26.5 -47,62.5 -17.5,36 -17.5,77 0,36 12,63 12,27 31,44 19,17 43.5,25.5 24.5,8.5 48.5,8.5 23,0 40,-7 17,-7 28.5,-18 11.5,-11 17.5,-24.5 6,-13.5 6,-25.5 0,-10 -5.5,-14.5 -5.5,-4.5 -5.5,-18.5 0,-8 6.5,-15 6.5,-7 17.5,-7 13,0 19.5,10.5 6.5,10.5 6.5,22.5 0,18 -9.5,38 -9.5,20 -26.5,37 -17,17 -41,28 -24,11 -54,11 -29,0 -57,-10 -28,-10 -50,-30 -22,-20 -35.5,-50 -13.5,-30 -13.5,-71 0,-43 19.5,-81.5 19.5,-38.5 52,-67.5 32.5,-29 73.5,-45.5 41,-16.5 85,-16.5 49,0 94.5,14 45.5,14 81,42.5 35.5,28.5 57,72 21.5,43.5 21.5,102.5 0,49 -14,97.5 -14,48.5 -41,92.5 34,17 80,17 41,0 74.5,-10.5 33.5,-10.5 62,-30 28.5,-19.5 53.5,-47 25,-27.5 49,-61.5 29,-42 55,-89.5 26,-47.5 50,-97 24,-49.5 46,-98 22,-48.5 44.5,-91 22.5,-42.5 45.5,-77.5 23,-35 48,-58 -21,-7 -41.5,-9 -20.5,-2 -47.5,-2 z m -167,255 q 0,-47 -24,-90.5 -24,-43.5 -71,-78.5 -54,37 -87.5,84.5 Q 820,1457 820,1511 q 0,57 25.5,90 25.5,33 75.5,33 24,0 44.5,-11 20.5,-11 36.5,-30 16,-19 25,-44.5 9,-25.5 9,-54.5 z m -424,289 q 0,50 34,84 38,-79 38,-170 0,-8 -0.5,-16.5 -0.5,-8.5 -1.5,-16.5 -11,4 -23.5,14 -12.5,10 -23,25.5 -10.5,15.5 -17,35.5 -6.5,20 -6.5,44 z"></path></svg>
