<?xml version="1.0" encoding="UTF-8" standalone="no"?>
<svg xmlns="http://www.w3.org/2000/svg" width="4558" height="2057"><path id="path230" d="m 352,2042 q -9,-27 -19,-59 -8,-27 -19,-63 -11,-36 -23,-77 L 86,2042 h 44 l -6,15 H 0 l 6,-15 h 48 l 229,-223 q -10,-35 -19.5,-69 -9.5,-34 -17,-62.5 -7.5,-28.5 -12,-48.5 -4.5,-20 -4.5,-26 0,-19 5,-28 5,-9 11,-17 -54,20 -75,48 -21,28 -21,65 0,35 9,52.5 9,17.5 26,28.5 l -8,9 q -13,-4 -30.5,-11 -17.5,-7 -33,-18.5 Q 98,1730 87,1713.5 76,1697 76,1674 q 0,-45 43,-77.5 43,-32.5 131,-46.5 25,-4 48.5,-5 23.5,-1 52.5,-1 -14,11 -18,24.5 -4,13.5 -4,29.5 0,11 9,48 9,37 25,94 l 186,-181 h -43 l 6,-15 h 123 l -6,15 h -47 l -212,207 q 13,48 27.5,96.5 14.5,48.5 26.5,88.5 14,47 27,91 h 41 l -6,15 H 309 l 5,-15 z"></path></svg>
