<?xml version="1.0" encoding="UTF-8" standalone="no"?>
<svg xmlns="http://www.w3.org/2000/svg" width="4558" height="2057"><path id="path856" d="M 75,2050 Q 40,2050 20,2032.5 0,2015 0,1989 0,1958 15,1909.5 30,1861 50,1795 H 28 l 9,-17 h 18 q 11,-37 32,-54 21,-17 49,-25 17,-4 27.5,-8 10.5,-4 16.5,-6 7,-3 11,-5 l 6,12 q -8,5 -15,11 -6,5 -13.5,13.5 -7.5,8.5 -13.5,19.5 -11,17 -18,42 h 68 l -9,17 h -65 q -14,49 -28,101.5 -14,52.5 -14,90.5 0,20 9,27 9,7 17,7 24,0 57,-15.5 33,-15.5 69,-34.5 36,-19 71,-34.5 35,-15.5 61,-15.5 38,0 63.5,12.5 25.5,12.5 48,27.5 22.5,15 47.5,27.5 25,12.5 64,12.5 22,0 39,-5 17,-5 29.5,-12 12.5,-7 21,-14.5 8.5,-7.5 15.5,-12.5 l 8,9 q -9,9 -26,24.5 -17,15.5 -39,30 -22,14.5 -48.5,25.5 -26.5,11 -54.5,11 -36,0 -64.5,-13 -28.5,-13 -53,-28.5 -24.5,-15.5 -49,-28.5 -24.5,-13 -53.5,-13 -33,0 -64.5,12 -31.5,12 -61.5,26 -30,14 -60,26 -30,12 -60,12 z"></path></svg>
