<?xml version="1.0" encoding="UTF-8" standalone="no"?>
<svg xmlns="http://www.w3.org/2000/svg" width="4558" height="2057"><path id="path858" d="M 75,1907 Q 40,1907 20,1889.5 0,1872 0,1846 0,1815 15,1766.5 30,1718 50,1652 H 28 l 9,-17 h 18 q 11,-37 32,-54 21,-17 49,-25 17,-4 27.5,-8 10.5,-4 16.5,-6 7,-3 11,-5 l 6,12 q -8,5 -15,11 -6,5 -13.5,13.5 -7.5,8.5 -13.5,19.5 -11,17 -18,42 h 68 l -9,17 h -65 q -14,49 -28,101.5 -14,52.5 -14,90.5 0,20 9,27 9,7 17,7 24,0 57,-15.5 33,-15.5 69,-34.5 36,-19 71,-34.5 35,-15.5 61,-15.5 38,0 63.5,12.5 25.5,12.5 48,27.5 22.5,15 47.5,27.5 25,12.5 64,12.5 22,0 39,-5 17,-5 29.5,-12 12.5,-7 21,-14.5 8.5,-7.5 15.5,-12.5 l 8,9 q -9,9 -26,24.5 -17,15.5 -39,30 -22,14.5 -48.5,25.5 -26.5,11 -54.5,11 -36,0 -64.5,-13 -28.5,-13 -53,-28.5 -24.5,-15.5 -49,-28.5 -24.5,-13 -53.5,-13 -33,0 -64.5,12 -31.5,12 -61.5,26 -30,14 -60,26 -30,12 -60,12 z m -32,67 q 0,-6 1.5,-13 1.5,-7 5,-13.5 3.5,-6.5 9.5,-11 6,-4.5 16,-4.5 15,0 24,11 9,11 9,25 0,12 -7,27 -7,15 -18,29 -11,14 -24,23.5 -13,9.5 -24,9.5 -9,0 -9,-7 0,-2 2.5,-4 2.5,-2 4.5,-4 7,-5 17,-15 10,-10 12,-28 -10,0 -14.5,-8 -4.5,-8 -4.5,-17 z"></path></svg>
