<?xml version="1.0" encoding="UTF-8" standalone="no"?>
<svg xmlns="http://www.w3.org/2000/svg" width="4558" height="2057"><path id="path534" d="m 363,1789 q -10,62 -26,111.5 -16,49.5 -41,84.5 -25,35 -60,53.5 -35,18.5 -83,18.5 -34,0 -62,-10 Q 63,2037 42.5,2019.5 22,2002 11,1978.5 0,1955 0,1927 0,1898 12.5,1879.5 25,1861 43,1861 q 13,0 21.5,8.5 8.5,8.5 8.5,20.5 0,11 -5.5,19.5 -5.5,8.5 -12,16 -6.5,7.5 -12,15 -5.5,7.5 -5.5,16.5 0,33 23.5,50 23.5,17 59.5,17 32,0 58,-25 26,-25 47,-66 21,-41 37.5,-93 16.5,-52 29.5,-105.5 13,-53.5 23,-104.5 10,-51 18,-89 5,-22 13.5,-34.5 Q 356,1494 371,1485 h -7.5 q 0,0 -10.5,-1 -9,0 -17,-2 -4,-1 -7,-2 l 8,-12 8,2 q 5,1 21,1 17,0 43,-4.5 26,-4.5 58,-18.5 l 5,9 q -8,6 -15,13 -6,6 -13.5,15.5 -7.5,9.5 -13.5,20.5 -13,23 -19,43.5 -6,20.5 -12,45.5 -9,35 -17.5,83 -8.5,48 -18.5,111 z m 40,-412 q 0,-10 5,-21.5 5,-11.5 13,-20.5 8,-9 17.5,-15 9.5,-6 18.5,-6 13,0 22,8.5 9,8.5 9,22.5 0,11 -4.5,22.5 -4.5,11.5 -11.5,21.5 -7,10 -16.5,16 -9.5,6 -18.5,6 -13,0 -23.5,-9 -10.5,-9 -10.5,-25 z"></path></svg>
