<?xml version="1.0" encoding="UTF-8" standalone="no"?>
<svg xmlns="http://www.w3.org/2000/svg" width="4558" height="2057"><path id="path745" d="m 1161,2022 q -66,0 -137.5,-20.5 Q 952,1981 877.5,1950 803,1919 727,1881.5 651,1844 576,1809 q -71,122 -158,185 -87,63 -193,63 -45,0 -86,-12 Q 98,2033 67.5,2009.5 37,1986 18.5,1951 0,1916 0,1870 q 0,-46 19,-80 19,-34 49.5,-56.5 30.5,-22.5 68,-33.5 37.5,-11 74.5,-11 84,0 160.5,19.5 76.5,19.5 152.5,48.5 28,-52 52,-114 24,-62 46,-135 17,-54 27.5,-91.5 10.5,-37.5 10.5,-44.5 0,-5 -1.5,-8.5 -1.5,-3.5 -6.5,-3.5 -4,0 -10,4.5 -6,4.5 -13,9.5 -8,6 -16,13 l -7,-9 q 6,-6 17.5,-15.5 11.5,-9.5 25,-19 13.5,-9.5 28,-16.5 14.5,-7 26.5,-7 18,0 30,8.5 12,8.5 12,22.5 0,7 -2,15 -1,4 -2,6 20,-23 50,-37.5 30,-14.5 54,-14.5 27,0 49.5,16 22.5,16 22.5,51 0,38 -14.5,71 -14.5,33 -37,57 -22.5,24 -50,38 -27.5,14 -52.5,14 -28,0 -44.5,-10 -16.5,-10 -26.5,-26 -23,73 -48,135.5 -25,62.5 -53,116.5 63,26 128,52 65,26 134.5,48 69.5,22 144.5,35.5 75,13.5 159,13.5 100,0 152.5,-41 52.5,-41 61.5,-112 1,-6 2,-11.5 1,-5.5 6,-5.5 5,0 6.5,6 1.5,6 1.5,15 0,38 -12.5,80.5 -12.5,42.5 -39.5,77.5 -27,35 -70,58 -43,23 -104,23 z m -936,-32 q 85,0 155.5,-53 70.5,-53 130.5,-156 -78,-32 -152,-53.5 -74,-21.5 -144,-21.5 -32,0 -64,8.5 -32,8.5 -58.5,26.5 -26.5,18 -43,46 -16.5,28 -16.5,67 0,39 16.5,65.5 16.5,26.5 43.5,42 27,15.5 61.5,22 34.5,6.5 70.5,6.5 z m 585,-642 q -20,0 -43.5,21 -23.5,21 -37.5,50 -3,7 -7.5,18.5 -4.5,11.5 -8.5,23.5 -4,12 -6.5,22.5 -2.5,10.5 -2.5,16.5 0,25 12.5,33.5 12.5,8.5 23.5,8.5 19,0 35.5,-12.5 16.5,-12.5 28.5,-33.5 12,-21 19,-49 7,-28 7,-60 0,-21 -6,-30 -6,-9 -14,-9 z"></path></svg>
