<?xml version="1.0" encoding="UTF-8" standalone="no"?>
<svg xmlns="http://www.w3.org/2000/svg" width="4558" height="2057"><path id="path317" d="m 1376,1858 q 9,-10 22,-18.5 13,-8.5 26.5,-15 13.5,-6.5 27,-10.5 13.5,-4 24.5,-4 27,0 50,18.5 23,18.5 23,59.5 0,31 -12,61.5 -12,30.5 -32,54.5 -20,24 -47,38.5 -27,14.5 -57,14.5 -36,0 -56,-16 -20,-16 -27,-33 -17,18 -31.5,27.5 -14.5,9.5 -27.5,14.5 -13,5 -23,6 -10,1 -17,1 v -7 q 14,-6 24,-22.5 10,-16.5 18,-41.5 8,-25 16,-57 8,-32 19,-70 20,-74 33,-124 13,-50 24,-88 22,-81 52,-147.5 30,-66.5 67,-120.5 -63,-21 -130,-42 -67,-21 -135,-38 -68,-17 -136.5,-27.5 Q 1002,1261 935,1261 q -96,0 -167.5,19.5 -71.5,19.5 -119,51 -47.5,31.5 -71,70.5 -23.5,39 -23.5,78 0,2 0.5,2.5 0.5,0.5 0.5,2.5 70,-15 140.5,-33.5 70.5,-18.5 140.5,-35 70,-16.5 139.5,-28 69.5,-11.5 137.5,-11.5 32,0 66,7.5 34,7.5 61.5,22 27.5,14.5 45,37 17.5,22.5 17.5,52.5 0,47 -35,86 -35,39 -93,67 -58,28 -133,44 -75,16 -154,16 -71,0 -132.5,-15.5 Q 694,1678 646,1651.5 598,1625 566,1589 q -32,-36 -43,-77 -51,9 -105,14 -54,5 -112,5 -75,0 -132.5,-14 -57.5,-14 -96,-37.5 Q 39,1456 19.5,1424 0,1392 0,1356 q 0,-50 31.5,-91.5 31.5,-41.5 81.5,-71 50,-29.5 112,-46 62,-16.5 123,-16.5 40,0 73,7 33,7 57,20.5 24,13.5 37,33.5 13,20 13,45 0,26 -15,48.5 -15,22.5 -39,39.5 -24,17 -54,27 -30,10 -61,10 -51,0 -80,-20 -29,-20 -29,-51 0,-16 8,-29 8,-13 21,-13 8,0 14,5 6,5 6,13 0,6 -3.5,10.5 -3.5,4.5 -7,8.5 -3.5,4 -7,8.5 -3.5,4.5 -3.5,10.5 0,18 18,31.5 18,13.5 59,13.5 28,0 50,-10 22,-10 37.5,-26 15.5,-16 23.5,-36.5 8,-20.5 8,-40.5 0,-44 -30.5,-69 -30.5,-25 -93.5,-25 -59,0 -109,17 -50,17 -87,45.5 -37,28.5 -58,65.5 -21,37 -21,77 0,30 11,59.5 11,29.5 39,53 28,23.5 74.5,38 46.5,14.5 118.5,14.5 51,0 100.5,-5.5 49.5,-5.5 100.5,-15.5 0,-5 -0.5,-9 -0.5,-4 -0.5,-9 0,-47 25,-99 25,-52 76,-95.5 51,-43.5 129,-72 78,-28.5 185,-28.5 78,0 152.5,15 74.5,15 145.5,38.5 71,23.5 138,53 67,29.5 130,57.5 75,-97 164,-143.5 89,-46.5 179,-46.5 39,0 72,11.5 33,11.5 57.5,32.5 24.5,21 38.5,49.5 14,28.5 14,62.5 0,36 -17,65 -17,29 -45.5,49 -28.5,20 -64.5,31 -36,11 -73,11 -54,0 -121,-16.5 -67,-16.5 -145,-41.5 -31,46 -58,101 -27,55 -49,121 -3,9 -7.5,23.5 -4.5,14.5 -10.5,32 -6,17.5 -12.5,37.5 -6.5,20 -12.5,39 -15,46 -32,97 z m -325,-444 q -55,0 -113,9.5 -58,9.5 -119.5,23.5 -61.5,14 -126.5,30 -65,16 -135,29 8,36 35.5,69.5 27.5,33.5 70.5,60 43,26.5 100,42 57,15.5 124,15.5 72,0 132.5,-17.5 60.5,-17.5 104.5,-45.5 44,-28 69,-61.5 25,-33.5 25,-66.5 0,-45 -44.5,-66.5 Q 1129,1414 1051,1414 Z m 788,-206 q -59,0 -127.5,42.5 -68.5,42.5 -132.5,127.5 70,30 133,50 63,20 119,20 28,0 57.5,-10 29.5,-10 52.5,-28 23,-18 38,-43.5 15,-25.5 15,-55.5 0,-53 -41.5,-78 -41.5,-25 -113.5,-25 z m -400,631 q -6,0 -16.5,4.5 -10.5,4.5 -22,13.5 -11.5,9 -22.5,22.5 -11,13.5 -17,31.5 -3,7 -6.5,18.5 -3.5,11.5 -7,23.5 -3.5,12 -6,23 -2.5,11 -2.5,16 0,24 14,32.5 14,8.5 27,8.5 16,0 30.5,-15.5 14.5,-15.5 26,-39 11.5,-23.5 18,-50 6.5,-26.5 6.5,-49.5 0,-40 -22,-40 z"></path></svg>
