<?xml version="1.0" encoding="UTF-8" standalone="no"?>
<svg xmlns="http://www.w3.org/2000/svg" width="4558" height="2057"><path id="path887" d="m 240,1615 q 6,0 13.5,11.5 7.5,11.5 7.5,22.5 0,15 -20,32 -23,21 -50.5,32.5 -27.5,11.5 -48.5,11.5 -10,0 -10,-8 0,-4 8,-8 19,-8 42.5,-29 23.5,-21 44.5,-56 4,-9 13,-9 z m 102,415 q 41,0 83.5,-17 42.5,-17 81.5,-47.5 39,-30.5 73.5,-71.5 34.5,-41 60,-89.5 Q 666,1756 681,1703 q 15,-53 15,-108 0,-61 -15.5,-104 -15.5,-43 -43,-70 -27.5,-27 -65,-39 -37.5,-12 -80.5,-12 -47,0 -86.5,15.5 -39.5,15.5 -67.5,40 -28,24.5 -43.5,56.5 -15.5,32 -15.5,65 0,35 10.5,59.5 10.5,24.5 28.5,40.5 18,16 41.5,23.5 23.5,7.5 50.5,7.5 25,0 42.5,-6.5 17.5,-6.5 28,-16.5 10.5,-10 15.5,-22 5,-12 5,-23 0,-6 -2,-10 -2,-4 -5,-8 -3,-4 -5,-9 -2,-5 -2,-14 0,-12 7.5,-20 7.5,-8 20.5,-8 17,0 25,13 8,13 8,28 0,23 -10.5,43 -10.5,20 -29,36 -18.5,16 -43,25 -24.5,9 -51.5,9 -33,0 -60.5,-9.5 -27.5,-9.5 -48,-27.5 -20.5,-18 -32,-45.5 Q 262,1585 262,1549 q 0,-37 17,-73 17,-36 48.5,-64.5 31.5,-28.5 76.5,-46 45,-17.5 100,-17.5 50,0 97.5,13.5 47.5,13.5 84,42.5 36.5,29 58.5,75.5 22,46.5 22,113.5 0,59 -21,117 -21,58 -56,109.5 -35,51.5 -81,95 -46,43.5 -95.5,75 -49.5,31.5 -99.5,49.5 -50,18 -93,18 -29,0 -55,-6.5 -26,-6.5 -46,-21 Q 199,2015 187.5,1993 176,1971 176,1940 v -9.5 q 0,0 1,-7.5 0,-4 1,-7 -28,31 -60,52.5 Q 86,1990 57,1990 35,1990 17.5,1978.5 0,1967 0,1939 q 0,-16 8.5,-35 8.5,-19 18.5,-38 10,-19 18.5,-37 8.5,-18 8.5,-33 0,-10 -9,-10 -4,0 -10,4 -6,4 -12,9 -7,6 -16,13 l -7,-9 q 6,-5 17.5,-15 11.5,-10 25.5,-19.5 14,-9.5 28,-16.5 14,-7 26,-7 21,0 32,9 11,9 11,24 0,15 -8,35 -8,20 -17,41.5 -9,21.5 -17,43 -8,21.5 -8,39.5 0,13 13,13 12,0 29,-11 17,-11 45,-44 6,-7 10.5,-19.5 4.5,-12.5 9,-26 4.5,-13.5 8,-27 3.5,-13.5 8.5,-22.5 9,-21 28,-33.5 19,-12.5 40,-15.5 15,-2 25,-4.5 10,-2.5 16,-5.5 7,-4 11,-7 l 7,11 q -7,5 -14,11 -6,5 -13.5,13.5 -7.5,8.5 -12.5,19.5 -7,14 -14.5,36 -7.5,22 -13.5,46 -6,24 -9.5,48 -3.5,24 -3.5,42 0,30 21,49.5 21,19.5 62,19.5 z"></path></svg>
