<?xml version="1.0" encoding="UTF-8" standalone="no"?>
<svg xmlns="http://www.w3.org/2000/svg" width="4558" height="2057"><path id="path466" d="m 629,1333 q 17,0 39,-22 22,-22 36,-51 3,-7 7,-19 4,-12 7,-24.5 3,-12.5 5,-23.5 2,-11 2,-17 0,-18 -8,-30 -8,-12 -28,-12 -18,0 -34,14 -16,14 -27.5,36 -11.5,22 -18,47.5 -6.5,25.5 -6.5,47.5 0,54 26,54 z m -422,656 q 88,0 160.5,-41.5 72.5,-41.5 129,-114.5 56.5,-73 98.5,-173 42,-100 69,-218 5,-21 9,-38.5 4,-17.5 7.5,-34 3.5,-16.5 7.5,-34 4,-17.5 8,-38.5 -7,10 -18,22 -11,12 -24.5,22 -13.5,10 -28.5,17 -15,7 -29,7 -37,0 -59.5,-21.5 Q 514,1322 514,1288 q 0,-36 16.5,-67 16.5,-31 41,-54.5 24.5,-23.5 53.5,-37 29,-13.5 54,-13.5 29,0 44,13 15,13 17,33 5,-15 18,-25 13,-10 39,-14 12,-2 21,-4.5 9,-2.5 15,-5.5 7,-4 12,-7 l 6,12 q -6,5 -12,11 -5,5 -12.5,13 -7.5,8 -14.5,19 -14,23 -21,43.5 -7,20.5 -13,45.5 -9,35 -18,87.5 -9,52.5 -19,106.5 -25,132 -69,244.5 -44,112.5 -107.5,194 -63.5,81.5 -147,128 Q 334,2057 230,2057 177,2057 134.5,2042 92,2027 62,2001 32,1975 16,1940 0,1905 0,1865 q 0,-61 30,-114 30,-53 75.5,-91.5 45.5,-38.5 100,-60.5 54.5,-22 104.5,-22 54,0 87,26 33,26 33,72 0,29 -11,54 -11,25 -29.5,44 -18.5,19 -42,29.5 -23.5,10.5 -48.5,10.5 -27,0 -44,-11 -17,-11 -17,-25 0,-11 7.5,-17.5 7.5,-6.5 15.5,-6.5 12,0 18,6 6,6 10.5,12.5 4.5,6.5 9.5,12.5 5,6 16,6 16,0 34,-8.5 18,-8.5 32,-24 14,-15.5 23.5,-36.5 9.5,-21 9.5,-45 0,-40 -29.5,-62 -29.5,-22 -74.5,-22 -49,0 -97.5,21 -48.5,21 -86.5,55.5 -38,34.5 -62,80 -24,45.5 -24,93.5 0,69 44.5,108 44.5,39 122.5,39 z"></path></svg>
