<?xml version="1.0" encoding="UTF-8" standalone="no"?>
<svg xmlns="http://www.w3.org/2000/svg" width="4558" height="2057"><path id="path433" d="m 306,1775 41,-137 q 7,-23 22.5,-40.5 15.5,-17.5 36,-29.5 20.5,-12 44,-18.5 23.5,-6.5 46.5,-6.5 31,0 54,17 23,17 23,44 0,20 -15,39 -15,19 -40,37 -25,18 -57.5,35 -32.5,17 -66.5,35 -10,30 -17.5,55.5 -7.5,25.5 -12.5,43.5 -6,22 -11,39 15,-18 34,-33.5 19,-15.5 38,-27 19,-11.5 37,-18 18,-6.5 32,-6.5 18,0 32,9 14,9 14,30 0,18 -7,36 -7,18 -15.5,36 -8.5,18 -15.5,37 -7,19 -7,39 0,13 5,17 5,4 10,4 7,0 15,-4.5 8,-4.5 16,-10.5 9,-6 17,-15 l 8,8 q -16,18 -33,31 -15,12 -33,21.5 -18,9.5 -36,9.5 -23,0 -41.5,-10.5 Q 404,2030 404,2003 q 0,-20 8.5,-39.5 8.5,-19.5 19,-38.5 10.5,-19 19,-36 8.5,-17 8.5,-31 0,-15 -11,-15 -11,0 -36,14 -25,14 -56,52 -10,12 -18,31.5 -8,19.5 -14,39.5 -6,20 -9,36.5 -3,16.5 -3,21.5 0,15 -14,15 -8,0 -21,-2 -13,-2 -26,-2 -14,0 -24,4 -10,4 -13,4 -4,0 -4,-4 0,-3 6,-9 6,-6 12,-18 12,-21 21.5,-50 9.5,-29 21.5,-74 8,-29 14,-51 6,-22 16,-54 -22,11 -41.5,21 -19.5,10 -29.5,15 5,8 5,19 0,38 -28,62.5 -28,24.5 -66,24.5 -12,0 -19.5,-5.5 -7.5,-5.5 -7.5,-16.5 0,-17 16.5,-36 16.5,-19 53.5,-40 v -5 q 0,-14 -11,-14 -14,0 -29,13 -15,13 -27,33.5 -12,20.5 -20,45 -8,24.5 -8,47.5 0,34 13.5,47 13.5,13 31.5,13 14,0 27,-6 13,-6 23,-14 11,-9 22,-20 l 8,8 q -15,18 -33,31 -16,12 -37,21.5 -21,9.5 -46,9.5 -17,0 -34.5,-4.5 Q 46,2042 32,2032.5 18,2023 9,2008.5 0,1994 0,1973 q 0,-36 17,-66.5 17,-30.5 42,-53 25,-22.5 54.5,-35 29.5,-12.5 53.5,-12.5 17,0 31,3.5 14,3.5 23,11.5 z m 139,-172 q -8,13 -17.5,44.5 -9.5,31.5 -23.5,73.5 55,-35 88.5,-65.5 33.5,-30.5 33.5,-68.5 0,-14 -7.5,-21.5 -7.5,-7.5 -18.5,-7.5 -17,0 -29.5,11 -12.5,11 -25.5,34 z m -298,314 q 6,0 17,-16 11,-16 19,-42 -26,17 -33.5,29.5 -7.5,12.5 -7.5,23.5 0,5 5,5 z"></path></svg>
