<?xml version="1.0" encoding="UTF-8" standalone="no"?>
<svg xmlns="http://www.w3.org/2000/svg" width="4558" height="2057"><path id="path853" d="m 165,1695 q -5,10 -12.5,31 -7.5,21 -16,48 -8.5,27 -17.5,57.5 -9,30.5 -15.5,59 -6.5,28.5 -11,53 -4.5,24.5 -4.5,39.5 0,19 6,26.5 6,7.5 18,7.5 11,0 21,-4.5 10,-4.5 18,-9.5 9,-6 16,-15 l 7,8 q -16,18 -34,31 -15,11 -33.5,20.5 Q 88,2057 70,2057 41,2057 20.5,2038.5 0,2020 0,1987 q 0,-22 8,-53.5 8,-31.5 20,-69 12,-37.5 26.5,-79.5 14.5,-42 28.5,-85 -20,6 -33,14.5 -13,8.5 -20,13.5 -7,5 -9,5 -7,0 -7,-6 0,-4 7,-11 8,-8 25.5,-18.5 Q 64,1687 90,1679 q 12,-25 31,-38.5 19,-13.5 42,-19.5 17,-5 27.5,-8.5 L 207,1607 q 7,-3 11,-5 l 6,12 q -7,4 -15,12 -7,7 -16,18 -9,11 -18,28 45,2 86.5,8.5 41.5,6.5 85.5,14 44,7.5 94,13 50,5.5 110,5.5 51,0 79,-17 28,-17 34,-36 l 2.5,-5 q 0,0 4.5,-3 6,0 6,7 0,15 -10,36.5 -10,21.5 -28.5,41 -18.5,19.5 -46,33 -27.5,13.5 -61.5,13.5 -55,0 -103,-12 -48,-12 -92.5,-27.5 Q 291,1728 249.5,1714 208,1700 165,1695 Z"></path></svg>
