<?xml version="1.0" encoding="UTF-8" standalone="no"?>
<svg xmlns="http://www.w3.org/2000/svg" width="4558" height="2057"><path id="path952" d="m 820,1197 q -29,32 -63.5,53.5 -34.5,21.5 -61.5,21.5 -23,0 -41,-13.5 -18,-13.5 -18,-40.5 0,-16 8.5,-35.5 8.5,-19.5 18.5,-38.5 10,-19 18.5,-37 8.5,-18 8.5,-33 0,-10 -7,-10 -5,0 -11,4 -6,4 -12,9 -7,6 -15,13 l -8,-9 q 6,-6 17.5,-15.5 11.5,-9.5 25,-19 13.5,-9.5 28,-16.5 14.5,-7 26.5,-7 22,0 33,9 11,9 11,24 0,15 -8,35 -8,20 -17,41 -9,21 -17,42 -8,21 -8,39 0,16 16,16 14,0 27.5,-10.5 13.5,-10.5 35.5,-33.5 13,-14 20,-29.5 7,-15.5 14,-44.5 5,-22 11.5,-37 6.5,-15 15.5,-24 9,-9 21.5,-14 12.5,-5 29.5,-7 22,-3 36,-10 7,-4 12,-7 l 6,12 q -5,2 -10,6 -10,7 -19,20 -11,17 -22.5,40.5 -11.5,23.5 -21.5,65.5 -10,43 -14.5,95.5 -4.5,52.5 -7.5,110.5 -3,58 -7.5,119 -4.5,61 -14.5,121 98,36 192.5,63.5 94.5,27.5 192.5,27.5 61,0 111.5,-11 50.5,-11 86.5,-32.5 36,-21.5 55.5,-52.5 19.5,-31 19.5,-72 0,-26 -7,-43 -7,-17 -17.5,-27.5 -10.5,-10.5 -22.5,-14.5 -12,-4 -22,-4 -10,0 -16.5,4 -6.5,4 -12,9.5 -5.5,5.5 -11,9.5 -5.5,4 -14.5,4 -11,0 -18.5,-7 -7.5,-7 -7.5,-18 0,-14 16,-23 16,-9 39,-9 18,0 38,7 20,7 36,21 16,14 26.5,36.5 10.5,22.5 10.5,52.5 0,48 -20.5,93 -20.5,45 -58.5,80.5 -38,35.5 -93,57 -55,21.5 -124,21.5 -51,0 -100,-9.5 -49,-9.5 -97.5,-26 -48.5,-16.5 -96.5,-38 -48,-21.5 -96,-44.5 -13,53 -33,100 -30,69 -74.5,124.5 Q 693,1937 635,1976 q -58,39 -128.5,60 -70.5,21 -154.5,21 -70,0 -134,-22 -64,-22 -112.5,-61 Q 57,1935 28.5,1881 0,1827 0,1764 q 0,-67 27,-120 27,-53 74.5,-89.5 47.5,-36.5 111,-56 Q 276,1479 350,1479 q 109,0 208,25 99,25 195,60 14,-58 25,-115 11,-57 19,-106.5 8,-49.5 13.5,-87.5 5.5,-38 9.5,-58 z m -114,516 q 10,-25 19,-51.5 9,-26.5 17,-54.5 -47,-22 -94,-41.5 Q 601,1546 552.5,1531 504,1516 454,1507.5 404,1499 351,1499 q -69,0 -127.5,17 -58.5,17 -101,49.5 Q 80,1598 56,1644.5 32,1691 32,1750 q 0,59 25,103.5 25,44.5 66.5,74.5 41.5,30 95.5,45.5 54,15.5 112,15.5 137,0 229,-72 92,-72 146,-204 z"></path></svg>
