<?xml version="1.0" encoding="UTF-8" standalone="no"?>
<svg xmlns="http://www.w3.org/2000/svg" width="4558" height="2057"><path id="path731" d="m 246,1967 q 0,-37 18,-76 18,-39 48,-74 -29,-33 -60,-56 -37,24 -78,38 -41,14 -79,14 -19,0 -36,-4.5 -17,-4.5 -30,-13 -13,-8.5 -21,-21 -8,-12.5 -8,-28.5 0,-34 25,-56 25,-22 65,-22 40,0 83,19 43,19 82,49 17,-14 31,-28 14,-14 27,-31 -26,-35 -40.5,-72.5 Q 258,1567 258,1529 q 0,-38 18.5,-66.5 18.5,-28.5 48.5,-28.5 33,0 54.5,23 21.5,23 21.5,67 0,41 -17,81 -17,40 -45,75 14,16 28.5,29 14.5,13 30.5,26 37,-26 76,-41.5 39,-15.5 74,-15.5 38,0 66,18 28,18 28,50 0,32 -24,54.5 -24,22.5 -65,22.5 -38,0 -79.5,-17.5 Q 432,1788 394,1759 q -17,14 -31,28.5 -14,14.5 -27,31.5 25,34 39.5,70.5 14.5,36.5 14.5,72.5 0,38 -18.5,66.5 Q 353,2057 323,2057 292,2057 269,2034.5 246,2012 246,1967 Z M 95,1794 q 37,0 72.5,-12 35.5,-12 69.5,-33 -36,-24 -73.5,-37 -37.5,-13 -72.5,-13 -38,0 -57,12.5 -19,12.5 -19,34.5 0,23 22.5,35.5 Q 60,1794 95,1794 Z m 453,-98 q -35,0 -69.5,13 -34.5,13 -66.5,36 71,46 139,46 77,0 77,-46 0,-20 -23,-34.5 Q 582,1696 548,1696 Z M 275,1529 q 0,35 13.5,68 13.5,33 36.5,64 19,-31 29,-64.5 10,-33.5 10,-71.5 0,-76 -40,-76 -21,0 -35,22.5 -14,22.5 -14,57.5 z m 97,433 q 0,-35 -12.5,-66.5 Q 347,1864 325,1834 q -43,64 -43,132 0,76 42,76 23,0 35.5,-23 12.5,-23 12.5,-57 z M 269,1748 q 16,13 28.5,26 12.5,13 26.5,29 13,-15 26.5,-28.5 13.5,-13.5 30.5,-25.5 -15,-13 -28,-26 -13,-13 -26,-29 -14,16 -28,28.5 -14,12.5 -30,25.5 z"></path></svg>
