<?xml version="1.0" encoding="UTF-8" standalone="no"?>
<svg xmlns="http://www.w3.org/2000/svg" width="4558" height="2057"><path id="path268" d="m 690,1825 q -6,11 -17.5,24 -11.5,13 -26,24 -14.5,11 -31,19 -16.5,8 -33.5,8 -35,0 -58,-20 -23,-20 -23,-54 0,-36 16,-67 16,-31 40,-54 24,-23 53,-36.5 29,-13.5 56,-13.5 29,0 44,12.5 15,12.5 17,31.5 5,-15 18,-24.5 13,-9.5 39,-13.5 12,-2 21,-4.5 9,-2.5 15,-5.5 7,-4 12,-7 l 6,12 q -7,4 -14,10 -6,5 -13,13 -7,8 -13,20 -6,12 -13.5,30.5 -7.5,18.5 -13.5,38.5 -6,20 -10.5,38 -4.5,18 -4.5,29 0,25 7,41 7,16 30,16 23,0 57,-19 34,-19 71.5,-53.5 37.5,-34.5 74.5,-82.5 37,-48 66.5,-105.5 29.5,-57.5 48,-122 18.5,-64.5 18.5,-133.5 0,-56 -39,-91.5 -39,-35.5 -108,-35.5 -66,0 -130.5,16.5 -64.5,16.5 -128,41 -63.5,24.5 -128,53 -64.5,28.5 -131,53 -66.5,24.5 -137,41 Q 257,1470 182,1470 136,1470 101.5,1457.5 67,1445 44.5,1425 22,1405 11,1378.5 0,1352 0,1323 q 0,-39 15,-69 15,-30 38,-50 23,-20 51.5,-30.5 28.5,-10.5 55.5,-10.5 21,0 37,7 16,7 16,20 0,12 -7,19.5 -7,7.5 -20,7.5 -9,0 -14,-4.5 -5,-4.5 -9.5,-10 -4.5,-5.5 -9.5,-10 -5,-4.5 -15,-4.5 -17,0 -38,8.5 -21,8.5 -39,26 -18,17.5 -30.5,43.5 -12.5,26 -12.5,60 0,26 11,49 11,23 32.5,40 21.5,17 53.5,27 32,10 74,10 72,0 141,-19.5 69,-19.5 135.5,-48.5 66.5,-29 132,-63.5 Q 663,1286 728,1257 793,1228 858.5,1208.5 924,1189 992,1189 q 40,0 71,12.5 31,12.5 52.5,34.5 21.5,22 32.5,52 11,30 11,65 0,72 -20,141 -20,69 -53,131.5 -33,62.5 -75,115.5 -42,53 -85,91.5 -43,38.5 -83.5,60.5 -40.5,22 -71.5,22 -5,0 -8.5,-0.5 -3.5,-0.5 -7.5,-0.5 -14,11 -28.5,29 -14.5,18 -14.5,32 0,9 5,15.5 5,6.5 12.5,10 7.5,3.5 15,5.5 7.5,2 13.5,2 8,0 8,7 0,5 -3,12 -3,7 -8,13.5 -5,6.5 -12,11.5 -7,5 -14,5 -8,0 -20,-5.5 -12,-5.5 -23,-14.5 -11,-9 -18.5,-22 -7.5,-13 -7.5,-28 0,-11 7,-22 7,-11 18,-21.5 11,-10.5 23,-19 12,-8.5 23,-15.5 -20,-7 -31.5,-22.5 Q 688,1871 688,1843 v -7.5 q 0,0 2,-10.5 z m -74,44 q 9,0 19.5,-6.5 10.5,-6.5 21,-17.5 10.5,-11 20,-24.5 9.5,-13.5 15.5,-27.5 3,-7 6.5,-17.5 3.5,-10.5 6.5,-21 3,-10.5 5,-20.5 2,-10 2,-16 0,-18 -7.5,-31.5 Q 697,1673 676,1673 q -18,0 -34,14 -16,14 -27.5,35.5 -11.5,21.5 -18,47 -6.5,25.5 -6.5,47.5 0,28 6,40 6,12 20,12 z"></path></svg>
