<?xml version="1.0" encoding="UTF-8" standalone="no"?>
<svg xmlns="http://www.w3.org/2000/svg" width="4558" height="2057"><path id="path559" d="m 138,1904 q 19,-21 37.5,-39.5 18.5,-18.5 35.5,-32.5 17,-14 31.5,-22 14.5,-8 26.5,-8 19,0 28.5,11.5 9.5,11.5 9.5,25.5 0,15 -9,30 -9,15 -31,15 -14,0 -21.5,-8 -7.5,-8 -7.5,-20 0,-9 -5,-9 -5,0 -13,4.5 -8,4.5 -16.5,11.5 -8.5,7 -16.5,14 -8,7 -12,13 7,16 15,34 7,15 16,33.5 9,18.5 19,35.5 9,17 21.5,30.5 12.5,13.5 33.5,18.5 l 1,9 h -57 q -23,0 -43,-8 -20,-8 -28,-25 l -30,-64 q -11,33 -16,55 -5,22 -5,29 0,15 -14,15 -8,0 -21,-2 -13,-2 -26,-2 -14,0 -24,4 -10,4 -13,4 -4,0 -4,-4 0,-3 6,-9 6,-6 12,-18 12,-21 22.5,-58.5 Q 51,1930 63,1885 q 26,-96 57,-195 31,-99 70.5,-191 39.5,-92 88.5,-173 49,-81 110,-141 61,-60 136,-94.5 75,-34.5 167,-34.5 72,0 131,22 59,22 101,63 8,-1 16.5,-1 H 957 q 75,0 137,18 62,18 106.5,50.5 44.5,32.5 69.5,77.5 25,45 25,99 0,45 -16,80 -16,35 -41,59.5 -25,24.5 -56,37 -31,12.5 -61,12.5 -35,0 -48.5,-8 -13.5,-8 -13.5,-21 0,-12 8,-19 8,-7 18,-7 10,0 16,4.5 6,4.5 10.5,10.5 4.5,6 8.5,10.5 4,4.5 10,4.5 24,0 49.5,-10.5 25.5,-10.5 46.5,-31 21,-20.5 34.5,-51 13.5,-30.5 13.5,-71.5 0,-48 -23,-89 -23,-41 -63.5,-70.5 -40.5,-29.5 -95,-46 Q 1038,1163 974,1163 q -8,0 -15,0.5 -7,0.5 -15,0.5 29,37 45.5,84 16.5,47 16.5,104 0,68 -18,129.5 -18,61.5 -54,108 -36,46.5 -88.5,74 Q 793,1691 724,1691 q -40,0 -78.5,-11.5 -38.5,-11.5 -69,-35 -30.5,-23.5 -49.5,-59 -19,-35.5 -19,-82.5 0,-72 31.5,-132 31.5,-60 83,-106 51.5,-46 118,-76.5 Q 807,1158 878,1147 q -66,-36 -166,-36 -81,0 -148.5,35.5 -67.5,35.5 -123.5,96 -56,60.5 -101.5,140 Q 293,1462 256,1550 q -37,88 -66,179.5 -29,91.5 -52,174.5 z m 847,-552 q 0,-63 -19.5,-108.5 Q 946,1198 910,1168 843,1178 782.5,1207.5 722,1237 676,1281 q -46,44 -73,101.5 -27,57.5 -27,123.5 0,80 41.5,121.5 41.5,41.5 108.5,41.5 63,0 111,-25.5 48,-25.5 81,-69 33,-43.5 50,-101 17,-57.5 17,-121.5 z"></path></svg>
