<?xml version="1.0" encoding="UTF-8" standalone="no"?>
<svg xmlns="http://www.w3.org/2000/svg" width="4558" height="2057"><path id="path998" d="m 478,1393 q -26,0 -37,5 -11,5 -19,5 -5,0 -9.5,-3.5 -4.5,-3.5 -4.5,-9.5 0,-15 5,-24.5 5,-9.5 19,-22.5 22,-20 46,-34 24,-14 47,-27 23,-13 45,-26.5 22,-13.5 40,-31.5 -9,6 -31,6 -14,0 -23,-2 -9,-2 -16.5,-4 -7.5,-2 -15.5,-4 -8,-2 -18,-2 -14,0 -23,3.5 -9,3.5 -16,8.5 -8,5 -13,11 l -7,-6 q 14,-21 30,-38 14,-14 31,-26.5 17,-12.5 37,-12.5 14,0 23,1.5 9,1.5 16,4 7,2.5 15,4 8,1.5 20,1.5 13,0 20.5,-1.5 7.5,-1.5 12.5,-4 l 8,-4 q 0,0 6,-1.5 2,0 6,4 4,4 4,6 0,6 -11.5,23 -11.5,17 -26.5,32 -23,23 -45,38.5 -22,15.5 -42.5,27.5 -20.5,12 -40,23 -19.5,11 -37.5,24 2,-1 9.5,-3.5 7.5,-2.5 22.5,-2.5 34,0 62.5,12.5 28.5,12.5 54,32 25.5,19.5 49.5,43.5 l 48,48 q 42,-15 83.5,-24 41.5,-9 85.5,-9 24,0 48.5,5.5 24.5,5.5 43.5,16.5 19,11 31,29.5 12,18.5 12,43.5 0,22 -10,40.5 -10,18.5 -26.5,32 -16.5,13.5 -39,21 -22.5,7.5 -47.5,7.5 -40,0 -72.5,-11 -32.5,-11 -60.5,-29 -28,-18 -52.5,-41 -24.5,-23 -47.5,-46 -40,19 -79,41.5 -39,22.5 -78,46.5 41,20 76,45.5 35,25.5 60,56.5 25,31 39,67 14,36 14,76 0,50 -17.5,91 -17.5,41 -47.5,70 -30,29 -69,45 -39,16 -82,16 -33,0 -63.5,-10.5 Q 389,2036 366,2016.5 343,1997 329.5,1969 316,1941 316,1906 q 0,-31 12.5,-58 12.5,-27 33,-46.5 20.5,-19.5 46,-30.5 25.5,-11 52.5,-11 23,0 42.5,7 19.5,7 33.5,18.5 14,11.5 22,27 8,15.5 8,31.5 0,17 -9,28.5 -9,11.5 -22,11.5 -12,0 -18.5,-7 -6.5,-7 -6.5,-16 0,-11 9.5,-18 9.5,-7 9.5,-18 0,-18 -17,-33.5 -17,-15.5 -50,-15.5 -24,0 -46.5,10.5 -22.5,10.5 -40,28 -17.5,17.5 -28.5,40.5 -11,23 -11,48 0,26 11.5,49 11.5,23 31,40.5 19.5,17.5 46,27.5 26.5,10 57.5,10 36,0 66,-15 30,-15 51,-40 21,-25 33,-58 12,-33 12,-69 0,-81 -43.5,-143 -43.5,-62 -113.5,-100 -45,28 -89.5,54.5 -44.5,26.5 -89,47 -44.5,20.5 -89.5,33 -45,12.5 -90,12.5 -57,0 -93,-20.5 Q 0,1711 0,1672 q 0,-31 21,-55.5 21,-24.5 57.5,-42 36.5,-17.5 86,-27 49.5,-9.5 105.5,-9.5 59,0 115.5,11.5 56.5,11.5 107.5,32.5 40,-24 80.5,-47 40.5,-23 82.5,-43 -20,-19 -40,-37 -20,-18 -41.5,-32 -21.5,-14 -45.5,-22 -24,-8 -51,-8 z m -334,342 q 38,0 77.5,-11.5 39.5,-11.5 80.5,-31 41,-19.5 83,-44 42,-24.5 85,-51.5 -91,-43 -198,-43 -48,0 -88,8.5 -40,8.5 -68.5,24 -28.5,15.5 -44,36 Q 56,1643 56,1667 q 0,31 21.5,49.5 Q 99,1735 144,1735 Z m 734,-287 q -38,0 -75,7 -37,7 -74,21 38,38 81,65.5 43,27.5 99,27.5 37,0 58.5,-15.5 21.5,-15.5 21.5,-41.5 0,-16 -9,-28.5 -9,-12.5 -24.5,-20 Q 940,1456 920,1452 q -20,-4 -42,-4 z"></path></svg>
