<?xml version="1.0" encoding="UTF-8" standalone="no"?>
<svg xmlns="http://www.w3.org/2000/svg" width="4558" height="2057"><path id="path551" d="m 154,1624 q 0,-28 -5,-56 -20,14 -39.5,22.5 Q 90,1599 70,1599 35,1599 17.5,1581 0,1563 0,1536 q 0,-26 21,-41.5 21,-15.5 46,-15.5 33,0 53.5,14 20.5,14 31.5,37 24,-15 48,-35.5 24,-20.5 50.5,-42 26.5,-21.5 55,-43 28.5,-21.5 61.5,-38 33,-16.5 70.5,-27 37.5,-10.5 81.5,-10.5 37,0 72,9 35,9 62.5,28.5 27.5,19.5 44,51 16.5,31.5 16.5,76.5 0,38 -14,73 -14,35 -38,62 -24,27 -56.5,43 -32.5,16 -69.5,16 -66,0 -104.5,-34.5 Q 393,1624 393,1573 q 0,-22 8.5,-40.5 8.5,-18.5 22,-32.5 13.5,-14 31,-22 17.5,-8 35.5,-8 32,0 50.5,16.5 18.5,16.5 18.5,44.5 0,23 -9,40 -9,17 -24,17 -22,0 -22,-19 0,-8 5,-13.5 5,-5.5 11.5,-10.5 6.5,-5 11.5,-10.5 5,-5.5 5,-13.5 0,-39 -46,-39 -17,0 -32,7.5 -15,7.5 -26,20 -11,12.5 -18,28.5 -7,16 -7,32 0,45 33,71 33,26 92,26 31,0 57,-13.5 26,-13.5 44.5,-36.5 18.5,-23 28.5,-53.5 10,-30.5 10,-65.5 0,-36 -13.5,-63 -13.5,-27 -36,-45.5 -22.5,-18.5 -53,-28 -30.5,-9.5 -64.5,-9.5 -58,0 -106,22 -48,22 -90,54 -42,32 -78,67.5 -36,35.5 -70,62.5 6,20 8,42.5 2,22.5 2,43.5 5,-18 15.5,-29 10.5,-11 24.5,-17 10,-4 18.5,-7 8.5,-3 17.5,-7 9,-4 20,-8.5 11,-4.5 26,-12.5 l 5,10 q -8,6 -15,13 -14,13 -28,37 -9,16 -20.5,51 -11.5,35 -23.5,76.5 -12,41.5 -23.5,83 -11.5,41.5 -19.5,70.5 19,-21 37.5,-39.5 18.5,-18.5 35.5,-32.5 17,-14 31.5,-22 14.5,-8 26.5,-8 19,0 28.5,11.5 9.5,11.5 9.5,25.5 0,15 -9,30 -9,15 -31,15 -14,0 -21.5,-8 -7.5,-8 -7.5,-20 0,-9 -5,-9 -5,0 -13,4.5 -8,4.5 -16.5,11.5 -8.5,7 -16.5,14 -8,7 -12,13 7,16 15,34 7,15 16,33.5 9,18.5 19,35.5 9,17 21.5,30.5 12.5,13.5 33.5,18.5 l 1,9 h -57 q -23,0 -43,-8 -20,-8 -28,-25 l -30,-64 q -11,33 -16,55 -5,22 -5,29 0,15 -14,15 -8,0 -21,-2 -13,-2 -26,-2 -14,0 -24,4 -10,4 -13,4 -4,0 -4,-4 0,-3 6,-9 6,-6 12,-18 12,-21 20,-50 8,-29 20,-74 10,-37 21.5,-72 11.5,-35 21,-69 9.5,-34 16,-68 6.5,-34 6.5,-69 z m -84,-66 q 18,0 35,-5.5 17,-5.5 34,-14.5 -10,-22 -27,-34.5 -17,-12.5 -45,-12.5 -22,0 -35,11 -13,11 -13,26 0,14 12.5,22 12.5,8 38.5,8 z"></path></svg>
