<?xml version="1.0" encoding="UTF-8" standalone="no"?>
<svg xmlns="http://www.w3.org/2000/svg" width="4558" height="2057"><path id="path796" d="m 372,1795 q 0,-51 -9,-87.5 -9,-36.5 -20.5,-65.5 -11.5,-29 -20.5,-54 -9,-25 -9,-54 0,-24 10.5,-42.5 10.5,-18.5 26.5,-31 16,-12.5 35,-18.5 19,-6 36,-6 28,0 48.5,14 20.5,14 20.5,36 0,19 -11.5,30.5 -11.5,11.5 -25.5,11.5 -15,0 -24,-7.5 -9,-7.5 -9,-18.5 0,-13 7.5,-19.5 7.5,-6.5 7.5,-18.5 0,-8 -5,-11.5 -5,-3.5 -10,-3.5 -15,0 -25,16 -10,16 -10,48 0,28 10,55 10,27 22.5,59 12.5,32 22.5,72 10,40 10,95 0,54 -19,101.5 -19,47.5 -52,83.5 -33,36 -78,57 -45,21 -96,21 -46,0 -84,-13.5 Q 83,2030 56,2007 29,1984 14.5,1952 0,1920 0,1884 q 0,-34 13,-62 13,-28 33.5,-48 20.5,-20 46,-31 25.5,-11 51.5,-11 45,0 69,21.5 24,21.5 24,59.5 0,34 -20,56.5 -20,22.5 -47,22.5 -20,0 -30,-8 -10,-8 -10,-19 0,-11 6.5,-17 6.5,-6 17.5,-6 8,0 12.5,4 4.5,4 7.5,9.5 3,5.5 5.5,9.5 2.5,4 8.5,4 10,0 22.5,-15 12.5,-15 12.5,-41 0,-32 -21,-50 -21,-18 -58,-18 -22,0 -43.5,10 -21.5,10 -38,27.5 -16.5,17.5 -27,41.5 -10.5,24 -10.5,52 0,65 46.5,99.5 46.5,34.5 120.5,34.5 42,0 75.5,-17 33.5,-17 57,-46 23.5,-29 35.5,-68.5 12,-39.5 12,-83.5 z m 43,-385 q -9,0 -20.5,-12 -11.5,-12 -22,-27.5 -10.5,-15.5 -17.5,-31 -7,-15.5 -7,-21.5 0,-4 3,-6 3,-2 6,-2 3,0 10.5,9 7.5,9 16.5,19.5 9,10.5 19.5,19 10.5,8.5 20.5,8.5 13,0 28,-9 15,-9 28,-19.5 13,-10.5 22.5,-19.5 9.5,-9 12.5,-9 9,0 9,8 0,5 -13.5,20 -13.5,15 -31.5,31 -18,16 -36,29 -18,13 -28,13 z"></path></svg>
