<?xml version="1.0" encoding="UTF-8" standalone="no"?>
<svg xmlns="http://www.w3.org/2000/svg" width="4558" height="2057"><path id="path612" d="m 113,2023 q 22,0 56,-16 34,-16 70.5,-35 36.5,-19 72,-35 35.5,-16 61.5,-16 38,0 63.5,12.5 25.5,12.5 48,27.5 22.5,15 47.5,27.5 25,12.5 64,12.5 22,0 39,-5 17,-5 29.5,-12 12.5,-7 21,-14.5 8.5,-7.5 15.5,-12.5 l 8,9 q -9,9 -26,24.5 -17,15.5 -39,30 -22,14.5 -48.5,25.5 -26.5,11 -54.5,11 -36,0 -64.5,-13 -28.5,-13 -53,-28.5 -24.5,-15.5 -49,-28.5 -24.5,-13 -53.5,-13 -33,0 -64,12 -31,12 -62,26 -31,14 -61,26 -30,12 -60,12 -36,0 -55,-17.5 Q 0,2015 0,1989 0,1971 6.5,1939 13,1907 24,1864.5 35,1822 49.5,1769.5 64,1717 80,1657 86,1635 98.5,1621.5 111,1608 125,1599 q -3,1 -7,1 h -7 q -7,0 -12,-1 l -10,-2 q 0,0 -9,-2 l 9,-12 8,2 q 10,2 21,2 17,0 43,-4.5 26,-4.5 58,-18.5 l 5,9 q -6,4 -13,11 -6,6 -13.5,15.5 -7.5,9.5 -14.5,22.5 -7,12 -17,38.5 -10,26.5 -20.5,60 -10.5,33.5 -21.5,71.5 -11,38 -19.5,73.5 -8.5,35.5 -14,65.5 -5.5,30 -5.5,48 0,19 6,31.5 6,12.5 22,12.5 z m 161,-606 q 8,0 16.5,14 8.5,14 8.5,26 0,17 -23,37 -28,25 -59.5,38 -31.5,13 -56.5,13 -4,0 -7.5,-2 -3.5,-2 -3.5,-7 0,-5 9,-9 22,-10 49.5,-34 27.5,-24 51.5,-65 5,-11 15,-11 z"></path></svg>
