<?xml version="1.0" encoding="UTF-8" standalone="no"?>
<svg xmlns="http://www.w3.org/2000/svg" width="4558" height="2057"><path id="path553" d="m 284,1666 q -14,43 -26.5,86 -12.5,43 -22.5,76.5 -10,33.5 -16,54.5 l -6,21 q 19,-21 37.5,-39.5 18.5,-18.5 35.5,-32.5 17,-14 31.5,-22 14.5,-8 26.5,-8 19,0 28.5,11.5 9.5,11.5 9.5,25.5 0,15 -9,30 -9,15 -31,15 -14,0 -21.5,-8 -7.5,-8 -7.5,-20 0,-9 -5,-9 -5,0 -13,4.5 -8,4.5 -16.5,11.5 -8.5,7 -16.5,14 -8,7 -12,13 7,16 15,34 7,15 16,33.5 9,18.5 19,35.5 9,17 21.5,30.5 12.5,13.5 33.5,18.5 l 1,9 h -57 q -23,0 -43,-8 -20,-8 -28,-25 l -30,-64 q -11,33 -16,55 -5,22 -5,29 0,15 -14,15 -8,0 -21,-2 -13,-2 -26,-2 -14,0 -24,4 -10,4 -13,4 -4,0 -4,-4 0,-3 6,-9 6,-6 12,-18 12,-21 20.5,-50 8.5,-29 20.5,-74 20,-72 37,-132.5 17,-60.5 31,-108.5 -48,-7 -86,-25.5 Q 78,1617 52.5,1591.5 27,1566 13.5,1534 0,1502 0,1467 q 0,-35 10.5,-52 10.5,-17 23.5,-17 12,0 18.5,6.5 6.5,6.5 6.5,17.5 0,10 -5.5,15.5 -5.5,5.5 -12,11 -6.5,5.5 -12,13.5 -5.5,8 -5.5,23 0,26 11.5,51.5 11.5,25.5 34.5,47.5 23,22 57,38 34,16 80,23 32,-106 74,-193.5 42,-87.5 93.5,-150 51.5,-62.5 111,-96.5 59.5,-34 126.5,-34 37,0 65,11.5 28,11.5 46.5,30.5 18.5,19 28,44.5 9.5,25.5 9.5,53.5 0,71 -41,134 -41,63 -108,111.5 -67,48.5 -153,77.5 -86,29 -175,32 z m 360,-428 q -61,0 -113,28.5 -52,28.5 -96,82 -44,53.5 -80,129.5 -36,76 -66,171 82,-3 161.5,-31 79.5,-28 141.5,-73 62,-45 100.5,-104 38.5,-59 38.5,-126 0,-35 -21.5,-56 -21.5,-21 -65.5,-21 z"></path></svg>
