<?xml version="1.0" encoding="UTF-8" standalone="no"?>
<svg xmlns="http://www.w3.org/2000/svg" width="4558" height="2057"><path id="path149" d="m 381,1525 q 51,8 84,42 33,34 33,108 0,83 -31.5,151 -31.5,68 -80.5,116.5 -49,48.5 -107.5,75 Q 220,2044 165,2044 q -18,0 -34,-3 l -4,10 q -4,6 -12,6 -12,0 -23,-0.5 -11,-0.5 -11,-3.5 0,-2 1,-4 1,-2 2,-5 l 6,-13 q -40,-17 -65,-52 -25,-35 -25,-92 0,-76 32,-141.5 32,-65.5 81,-114 49,-48.5 108,-77 59,-28.5 114,-31.5 l 5,-10 q 2,-5 5.5,-6 3.5,-1 6.5,-1 11,0 22.5,0.5 11.5,0.5 11.5,3.5 0,7 -3,11 z m -184,498 q 30,0 65,-25.5 35,-25.5 65,-72.5 30,-47 50.5,-113.5 Q 398,1745 398,1663 q 0,-40 -7,-67 -7,-27 -24,-41 l -220,455 q 19,13 50,13 z m -93,-127 q 0,50 14,78 l 206,-433 q -34,0 -72.5,26 -38.5,26 -71.5,73.5 -33,47.5 -54.5,112.5 -21.5,65 -21.5,143 z"></path></svg>
