<?xml version="1.0" encoding="UTF-8" standalone="no"?>
<svg xmlns="http://www.w3.org/2000/svg" width="4558" height="2057"><path id="path456" d="m 1099,553 q -13,60 -32,118 85,2 165.5,20 80.5,18 151.5,51 63,-21 126,-32.5 63,-11.5 127,-11.5 69,0 131,14.5 62,14.5 109,43.5 47,29 75,73 28,44 28,103 0,44 -17.5,88.5 -17.5,44.5 -55,82.5 -37.5,38 -97,65.5 -59.5,27.5 -142.5,35.5 -4,78 -29,151 -25,73 -69,133 -44,60 -106.5,103.5 -62.5,43.5 -140.5,62.5 -4,68 -32.5,139.5 -28.5,71.5 -85,130 -56.5,58.5 -142,96 Q 978,2057 861,2057 786,2057 706,2042.5 626,2028 550,1996 474,1964 405.5,1914 337,1864 285.5,1793 234,1722 204,1629 q -30,-93 -30,-210 0,-88 20,-170 Q 104,1217 52,1153 0,1089 0,1004 0,948 24,902.5 48,857 89.5,825 131,793 187.5,775.5 244,758 310,758 366,758 423.5,770 481,782 541,802 641,745 752,712.5 863,680 977,673 q 22,-57 39,-124 12,-46 24,-104 12,-58 23,-109 l 24,-120 h -22 l 9,-17 h 17 q 3,-13 7,-28 3,-13 7.5,-28.5 4.5,-15.5 9.5,-32.5 9,-30 25,-51 16,-21 34.5,-34 18.5,-13 37.5,-19 19,-6 35,-6 31,0 48,16 17,16 17,34 0,17 -10,31 -10,14 -31,14 -15,0 -23.5,-7.5 Q 1239,80 1239,69 q 0,-16 9.5,-24.5 9.5,-8.5 9.5,-17.5 0,-12 -9,-12 -22,0 -34.5,26 -12.5,26 -24.5,76 -3,11 -6,25 -3,14 -5,27 l -6,30 h 68 l -10,17 h -62 q -12,59 -24,119 -11,51 -23,109.5 -12,58.5 -23,108.5 z m -749,721 q -21,0 -41,-2 -20,-2 -40,-5 -8,36 -12,73.5 -4,37.5 -4,77.5 0,114 26.5,204 26.5,90 71.5,158.5 45,68.5 105.5,116.5 60.5,48 128.5,78.5 68,30.5 140,44.5 72,14 141,14 100,0 179,-33 79,-33 134,-86 55,-53 85.5,-120 30.5,-67 35.5,-136 -22,4 -44,6 -22,2 -45,2 -62,0 -123,-15 -61,-15 -110.5,-47.5 Q 928,1572 894,1521 q -34,-51 -43,-123 -70,38 -111.5,105 -41.5,67 -41.5,149 0,47 14,84.5 14,37.5 38.5,63.5 24.5,26 58,39.5 33.5,13.5 71.5,13.5 48,0 76.5,-19 28.5,-19 28.5,-42 0,-9 -4,-14.5 -4,-5.5 -8.5,-11 -4.5,-5.5 -8.5,-11.5 -4,-6 -4,-16 0,-17 11.5,-26.5 11.5,-9.5 25.5,-9.5 16,0 27,13.5 11,13.5 11,37.5 0,23 -11.5,44 -11.5,21 -32.5,37.5 -21,16.5 -50,26 -29,9.5 -63,9.5 -39,0 -80.5,-14 -41.5,-14 -76.5,-42 -35,-28 -57.5,-71 -22.5,-43 -22.5,-101 0,-48 15.5,-90.5 15.5,-42.5 43,-78 27.5,-35.5 66,-62.5 38.5,-27 83.5,-45 0,-94 32,-178 32,-84 94,-165 -18,-9 -36,-17.5 -18,-8.5 -35,-17.5 -59,75 -127,129 -68,54 -139.5,88.5 -71.5,34.5 -145,51 Q 419,1274 350,1274 Z m 1256,-66 q -78,0 -155,-14 -77,-14 -153,-38 -76,-24 -151,-55.5 -75,-31.5 -148,-65.5 -57,72 -90.5,153 -33.5,81 -33.5,169 31,-9 63,-14 32,-5 66,-5 69,0 127.5,19.5 58.5,19.5 101,57 42.5,37.5 67,92 24.5,54.5 24.5,124.5 64,-21 114.5,-62.5 50.5,-41.5 86.5,-98 36,-56.5 56.5,-123.5 20.5,-67 24.5,-139 z m 1,-25 q 0,-76 -17.5,-139 -17.5,-63 -49,-113.5 Q 1509,880 1466,841 1423,802 1372,773 1268,811 1176.5,873.5 1085,936 1016,1016 q 70,33 141.5,63.5 71.5,30.5 142.5,54 71,23.5 141.5,37 70.5,13.5 140.5,13.5 h 12.5 q 0,0 12.5,-1 z m 62,-5 q 71,-10 117,-34.5 46,-24.5 73,-58.5 27,-34 38,-73 11,-39 11,-77 0,-51 -21,-90 -21,-39 -59.5,-64.5 Q 1789,755 1734.5,742 1680,729 1614,729 q -98,0 -197,29 56,30 102.5,71 46.5,41 79.5,93.5 33,52.5 51.5,116 18.5,63.5 18.5,139.5 z m -1323,13 q 60,0 122,-15 62,-15 122.5,-45 Q 651,1101 709,1055.5 767,1010 819,948 753,916 689.5,886.5 626,857 565,834 472,898 400.5,987 329,1076 291,1188 q 27,3 55,3 z M 42,994 q 0,36 13.5,64.5 13.5,28.5 37.5,51 24,22.5 56,38.5 32,16 68,26 42,-116 120,-205 78,-89 179,-152 -53,-17 -102,-27 -49,-10 -96,-10 -58,0 -108,16 -50,16 -87.5,44.5 Q 85,869 63.5,908.5 42,948 42,994 Z m 962,366 q -35,0 -66.5,6.5 -31.5,6.5 -60.5,18.5 7,70 38.5,120 31.5,50 78,82 46.5,32 102.5,47 56,15 112,15 49,0 93,-12 0,-69 -24,-120.5 -24,-51.5 -65,-86.5 -41,-35 -95,-52.5 -54,-17.5 -113,-17.5 z m 57,-670 q -28,83 -64,152 -36,69 -78,127 l 36,18 q 0,0 36,17 67,-79 157,-142.5 90,-63.5 193,-104.5 -66,-32 -137,-48 -71,-16 -143,-19 z M 836,928 Q 915,828 970,691 870,699 773,731.5 676,764 589,819 q 60,23 122,50.5 62,27.5 125,58.5 z"></path></svg>
