<?xml version="1.0" encoding="UTF-8" standalone="no"?>
<svg xmlns="http://www.w3.org/2000/svg" width="4558" height="2057"><path id="path454" d="m 1106,864 q -13,77 -28,156 -15,79 -33,156 -18,77 -41,148.5 -23,71.5 -52,133.5 -29,62 -66.5,111.5 Q 848,1619 801,1651 783,1730 743.5,1803 704,1876 646,1932.5 588,1989 511.5,2023 435,2057 344,2057 266,2057 202.5,2032 139,2007 94,1962.5 49,1918 24.5,1858 0,1798 0,1729 0,1654 29,1591.5 58,1529 105.5,1485 153,1441 214,1416.5 275,1392 340,1392 q 22,0 43,3 12,-33 34,-58.5 22,-25.5 51,-43 29,-17.5 62,-26.5 33,-9 68,-9 40,0 79,15 39,15 69.5,47 30.5,32 49.5,82.5 19,50.5 19,121.5 41,-54 72,-127.5 31,-73.5 55,-159 24,-85.5 43.5,-180.5 19.5,-95 38.5,-193 h -22 l 9,-17 h 17 q 3,-13 7,-28 3,-13 7.5,-28.5 4.5,-15.5 9.5,-32.5 9,-30 25,-51 16,-21 34.5,-34 18.5,-13 37.5,-19 19,-6 35,-6 31,0 48,16 17,16 17,34 0,17 -10,31 -10,14 -31,14 -15,0 -23.5,-7.5 -8.5,-7.5 -8.5,-18.5 0,-16 9.5,-24.5 9.5,-8.5 9.5,-17.5 0,-12 -9,-12 -22,0 -34.5,26 -12.5,26 -24.5,76 -3,11 -6,25 -3,14 -5,27 l -6,30 h 68 l -10,17 z M 347,1997 q 82,0 152.5,-26 70.5,-26 126,-71 55.5,-45 94.5,-105.5 39,-60.5 59,-129.5 -31,17 -66,26.5 -35,9.5 -76,9.5 -37,0 -68,-7 -11,36 -31,65.5 -20,29.5 -47,51.5 -27,22 -60,34 -33,12 -69,12 -33,0 -61.5,-9.5 -28.5,-9.5 -50,-27 -21.5,-17.5 -34,-41 Q 204,1756 204,1727 q 0,-33 13.5,-47.5 13.5,-14.5 26.5,-14.5 11,0 18,7.5 7,7.5 7,18.5 0,10 -5.5,16.5 -5.5,6.5 -12,12.5 -6.5,6 -12,13 -5.5,7 -5.5,19 0,16 10,32 10,16 27,28.5 17,12.5 41,20 24,7.5 52,7.5 67,0 117,-42 50,-42 68,-109 -39,-10 -72,-30 -33,-20 -56.5,-48.5 -23.5,-28.5 -37,-64.5 -13.5,-36 -13.5,-79 0,-29 8,-56 -9,-2 -18,-2 h -19 q -58,0 -111.5,24 -53.5,24 -95,66.5 Q 93,1542 68.5,1600 44,1658 44,1726 q 0,60 21.5,110 21.5,50 61,86 39.5,36 95.5,55.5 56,19.5 125,19.5 z m 261,-358 q 59,0 105.5,-25 46.5,-25 84.5,-69 0,-75 -18.5,-127 -18.5,-52 -47,-84 -28.5,-32 -64.5,-46 -36,-14 -70,-14 -30,0 -59.5,8.5 -29.5,8.5 -54,24.5 -24.5,16 -43.5,39.5 -19,23.5 -29,54.5 37,9 68,28.5 31,19.5 53,49 22,29.5 34.5,69.5 12.5,40 12.5,89 7,1 14,1.5 7,0.5 14,0.5 z M 404,1458 q 0,41 12.5,71 12.5,30 34,51.5 21.5,21.5 49.5,34.5 28,13 58,19 0,-46 -11.5,-82 -11.5,-36 -32,-63 -20.5,-27 -48,-44.5 Q 439,1427 408,1418 q -2,10 -3,19.5 -1,9.5 -1,20.5 z"></path></svg>
