<?xml version="1.0" encoding="UTF-8" standalone="no"?>
<svg xmlns="http://www.w3.org/2000/svg" width="4558" height="2057"><path id="percent" unicode="%" d="m 16,1672 q 0,-22 10.5,-40.5 Q 37,1613 54,1599 q 17,-14 39.5,-22 22.5,-8 46.5,-8 19,0 38.5,7 19.5,7 34.5,20 15,13 24.5,30 9.5,17 9.5,38 0,27 -10.5,47 -10.5,20 -27.5,32.5 -17,12.5 -38.5,18.5 -21.5,6 -43.5,6 -18,0 -37.5,-5.5 -19.5,-5.5 -36,-17 Q 37,1734 26.5,1716 16,1698 16,1672 Z m 60,0 q 0,35 17,56 17,21 43,21 24,0 38,-24 14,-24 14,-61 0,-35 -17,-56 -17,-21 -40,-21 -26,0 -40.5,25 -14.5,25 -14.5,60 z m -23,381 q -2,2 -6,3 -4,1 -6,1 -11,0 -26,-4.5 Q 0,2048 0,2042 0,2038 2.5,2034.5 5,2031 7,2030 l 384,-446 q 6,-6 11,-6 11,0 25.5,7 14.5,7 14.5,12 0,5 -5,10 z m 155,-96 q 0,-22 10.5,-40.5 10.5,-18.5 27.5,-32.5 17,-14 39.5,-22 22.5,-8 46.5,-8 19,0 38.5,7 19.5,7 34.5,20 15,13 24.5,30 9.5,17 9.5,38 0,27 -10.5,47 -10.5,20 -27.5,32.5 -17,12.5 -38.5,18.5 -21.5,6 -43.5,6 -18,0 -37.5,-5.5 -19.5,-5.5 -36,-17 Q 229,2019 218.5,2001 208,1983 208,1957 Z m 60,0 q 0,35 17,56 17,21 43,21 24,0 38,-24 14,-24 14,-61 0,-35 -17,-56 -17,-21 -40,-21 -26,0 -40.5,25 -14.5,25 -14.5,60 z"></path></svg>
