<?xml version="1.0" encoding="UTF-8" standalone="no"?>
<svg xmlns="http://www.w3.org/2000/svg" width="4558" height="2057"><path id="plusminus" unicode="&#xB1;" d="m 10,2057 q -5,0 -7.5,-4.5 Q 0,2048 0,2043 0,2032 6.5,2020 13,2008 21,2008 h 351 q 15,0 15,15 0,13 -9,23.5 -9,10.5 -16,10.5 z m 205,-315 h 156 q 7,0 8.5,8 1.5,8 1.5,15 0,7 -2.5,16 -2.5,9 -7.5,9 H 215 v 157 q 0,5 -8,7.5 -8,2.5 -15,2.5 -7,0 -15.5,-2.5 Q 168,1952 168,1947 V 1790 H 12 q -5,0 -7.5,-7.5 Q 2,1775 2,1767 2,1759 4.5,1750.5 7,1742 12,1742 h 156 v -155 q 0,-7 8.5,-9 8.5,-2 14.5,-2 7,0 15.5,2.5 8.5,2.5 8.5,8.5 z"></path></svg>
