<?xml version="1.0" encoding="UTF-8" standalone="no"?>
<svg xmlns="http://www.w3.org/2000/svg" width="4558" height="2057"><path id="Q" unicode="Q" d="m 620,1962 q -9,14 -22,30.5 -13,16.5 -29.5,30.5 -16.5,14 -36,24 -19.5,10 -42.5,10 -25,0 -46.5,-5.5 -21.5,-5.5 -44,-22 Q 377,2013 350,1983 q -27,-30 -63,-79 -18,5 -34,8 -16,3 -33,3 -48,0 -87.5,-15.5 Q 93,1884 70,1849 q -11,8 -15,17.5 -4,9.5 -4,17.5 0,9 3.5,13.5 3.5,4.5 7,8.5 3.5,4 7,9.5 3.5,5.5 3.5,15.5 0,14 -9.5,23 -9.5,9 -22.5,9 -20,0 -30,-12.5 Q 0,1938 0,1918 0,1893 16,1870.5 32,1848 58,1831 45,1808 38,1777.5 31,1747 31,1714 31,1663 45,1607.5 59,1552 84.5,1499 q 25.5,-53 62,-101 36.5,-48 81.5,-84 45,-36 97.5,-57 52.5,-21 110.5,-21 81,0 124.5,45.5 43.5,45.5 43.5,136.5 0,73 -22.5,145 -22.5,72 -59.5,134 -37,62 -86,111 -49,49 -101,75 22,18 45,35.5 23,17.5 47,31.5 24,14 49,23 25,9 52,9 21,0 41.5,-5.5 Q 590,1971 611,1953 Z M 402,1260 q -38,0 -72.5,22 -34.5,22 -63,59 -28.5,37 -51.5,84.5 -23,47.5 -39,99 -16,51.5 -24.5,102.5 -8.5,51 -8.5,94 0,43 14,83 39,2 78,17 39,15 80,45 37,-23 70.5,-70 33.5,-47 58.5,-107.5 25,-60.5 40,-128.5 15,-68 15,-132 0,-30 -2.5,-60 -2.5,-30 -12,-54 -9.5,-24 -29,-39 -19.5,-15 -53.5,-15 z m -148,627 q 6,0 10,-0.5 4,-0.5 9,-1.5 -29,-30 -58.5,-44.5 Q 185,1826 164,1824 q 14,30 38,46.5 24,16.5 52,16.5 z"></path></svg>
