<?xml version="1.0" encoding="UTF-8" standalone="no"?>
<svg xmlns="http://www.w3.org/2000/svg" width="4558" height="2057"><path id="r" unicode="r" d="m 201,1849 q -8,0 -17,9 -9,9 -28,36 -7,10 -16,31.5 -9,21.5 -17,44.5 -8,23 -13.5,42.5 -5.5,19.5 -5.5,25.5 0,14 -14,14 -7,0 -20,-1.5 -13,-1.5 -27,-1.5 -14,0 -25,4 -11,4 -14,4 -4,0 -4,-4 0,-3 6.5,-8.5 6.5,-5.5 11.5,-16.5 9,-17 18.5,-43 9.5,-26 17.5,-52 8,-26 13,-47 5,-21 5,-28 0,-3 -1.5,-6.5 -1.5,-3.5 -6.5,-3.5 -5,0 -11.5,4 -6.5,4 -12.5,9 -7,6 -15,13 l -7,-9 q 6,-5 17,-15 11,-10 24.5,-19.5 13.5,-9.5 28,-16.5 14.5,-7 26.5,-7 21,0 32.5,9.5 11.5,9.5 11.5,23.5 0,11 -1,19 -1,8 -2,10 8,-11 18.5,-22 10.5,-11 21.5,-20 11,-9 22,-14.5 11,-5.5 20,-5.5 18,0 28.5,9.5 10.5,9.5 10.5,23.5 0,17 -10.5,31 -10.5,14 -30.5,14 -14,0 -21,-8.5 -7,-8.5 -7,-18.5 0,-9 -6,-9 z"></path></svg>
