<?xml version="1.0" encoding="UTF-8" standalone="no"?>
<svg xmlns="http://www.w3.org/2000/svg" width="4558" height="2057"><path id="R" unicode="R" d="m 759,2031 q -11,8 -31,17 -20,9 -51,9 -49,0 -79,-16.5 -30,-16.5 -47.5,-44 -17.5,-27.5 -26,-62 -8.5,-34.5 -15,-71 -6.5,-36.5 -14.5,-71 -8,-34.5 -24,-61.5 -5,-8 -11.5,-13.5 -6.5,-5.5 -6.5,-10.5 0,-9 8,-9 25,-3 55,-16.5 30,-13.5 55.5,-37 25.5,-23.5 42.5,-58 17,-34.5 17,-79.5 0,-39 -16.5,-71 -16.5,-32 -55.5,-55 -27,29 -45.5,68 -18.5,39 -32.5,84 -14,45 -25,93 -11,48 -22.5,95 -11.5,47 -26.5,91 -15,44 -36,79 -19,32 -43,54.5 -24,22.5 -51,37 -27,14.5 -55,21.5 -28,7 -54,7 -30,0 -50.5,-6.5 -20.5,-6.5 -33,-16 Q 72,1979 67,1969 q -5,-10 -5,-16 0,-7 5.5,-12.5 5.5,-5.5 10.5,-5.5 6,0 10.5,5 4.5,5 4.5,10 0,4 2,10.5 2,6.5 8,12.5 6,6 16.5,10 10.5,4 26.5,4 43,0 68.5,-30.5 25.5,-30.5 54.5,-92.5 24,-50 48.5,-120.5 24.5,-70.5 53,-142.5 28.5,-72 64,-136 35.5,-64 81.5,-102 -21,-7 -42.5,-10.5 -21.5,-3.5 -48.5,-3.5 -64,0 -127,22 -63,22 -113.5,60 -50.5,38 -81.5,89 -31,51 -31,109 0,52 21.5,84 21.5,32 76.5,32 40,0 63,-22.5 23,-22.5 23,-51.5 0,-9 -3,-14.5 -3,-5.5 -6.5,-10 -3.5,-4.5 -6.5,-10 -3,-5.5 -3,-13.5 0,-14 8.5,-23 8.5,-9 23.5,-9 16,0 24.5,11.5 8.5,11.5 8.5,29.5 0,27 -10.5,51 -10.5,24 -29.5,42 -19,18 -44,28.5 -25,10.5 -54,10.5 -33,0 -62.5,-9 -29.5,-9 -52,-26.5 Q 27,1711 13.5,1684.5 0,1658 0,1623 0,1579 18.5,1540.5 37,1502 69,1470 q 32,-32 74,-57.5 42,-25.5 89,-43 47,-17.5 96.5,-26.5 49.5,-9 95.5,-9 33,0 61,2.5 28,2.5 55,8.5 24,-13 50.5,-19.5 26.5,-6.5 49.5,-6.5 22,0 41,6 19,6 19,13 0,9 -6,14 -6,5 -13,5 -6,0 -9.5,-3.5 -3.5,-3.5 -7.5,-8 -4,-4.5 -9.5,-8 -5.5,-3.5 -14.5,-3.5 -26,0 -57,22 67,21 110,60 43,39 43,88 0,35 -13,63.5 -13,28.5 -34,50.5 -21,22 -46.5,38.5 -25.5,16.5 -50,27.5 -24.5,11 -45.5,16.5 -21,5.5 -32,6.5 29,23 49,56 20,33 34.5,69.5 14.5,36.5 25.5,72 11,35.5 23,64 12,28.5 27,46.5 15,18 37,18 15,0 25.5,-4 10.5,-4 16.5,-7 z"></path></svg>
