<?xml version="1.0" encoding="UTF-8" standalone="no"?>
<svg xmlns="http://www.w3.org/2000/svg" width="4558" height="2057"><path id="radical" unicode="&#x221A;" d="m 318,1485 q 2,-3 7,-7.5 5,-4.5 16,-4.5 8,0 16.5,3.5 8.5,3.5 8.5,10.5 0,3 -10,40.5 -10,37.5 -25,93.5 -15,56 -33,122.5 -18,66.5 -35,127 -17,60.5 -30,107 -13,46.5 -18,62.5 -2,8 -8.5,12.5 -6.5,4.5 -13.5,4.5 -5,0 -12,-3.5 -7,-3.5 -9,-9.5 l -88,-200 -50,45 q -3,3 -4,3 h -2 q -10,0 -19,-11 -9,-11 -9,-20 0,-4 3,-7 l 68,-61 q 5,-4 12.5,-9.5 7.5,-5.5 11.5,-5.5 11,0 18.5,5 7.5,5 10.5,12 l 66,153 z"></path></svg>
