<?xml version="1.0" encoding="UTF-8" standalone="no"?>
<svg xmlns="http://www.w3.org/2000/svg" width="4558" height="2057"><path id="registered" unicode="&#xAE;" d="m 88,1838 q 0,-5 5,-7 8,-1 21,-2 13,-1 24,-1 11,0 23,2 12,2 22,7 10,5 16.5,14 6.5,9 6.5,23 0,13 -4,22 -4,9 -17,17 5,5 8,11 3,6 5,14 l 12,42 q 0,7 -6,7 h -28 q -5,0 -6,-3 l -11,-36 q -3,-11 -6,-15.5 -3,-4.5 -14,-5.5 h -10 v 52 q 0,8 -6,8 H 94 q -6,0 -6,-8 z m 41,57 h 11 q 13,0 19,-5 6,-5 6,-12 0,-5 -4,-8 -4,-3 -10,-4.5 -6,-1.5 -12,-1.5 H 129 Z M 0,1912 q 0,-29 11.5,-55.5 11.5,-26.5 31,-46 19.5,-19.5 46,-31 26.5,-11.5 55.5,-11.5 29,0 55.5,11.5 26.5,11.5 46.5,31 20,19.5 31.5,45.5 11.5,26 11.5,56 0,30 -11.5,56.5 -11.5,26.5 -31.5,46 -20,19.5 -46,31 -26,11.5 -56,11.5 -29,0 -55.5,-11.5 Q 62,2034 42.5,2014.5 23,1995 11.5,1968.5 0,1942 0,1912 Z m 40,0 q 0,22 8.5,41 8.5,19 22.5,33.5 14,14.5 33,22.5 19,8 40,8 22,0 41,-8.5 19,-8.5 32.5,-23 13.5,-14.5 21.5,-33.5 8,-19 8,-40 0,-21 -8,-39.5 -8,-18.5 -22,-32.5 -14,-14 -33,-22 -19,-8 -40,-8 -21,0 -40,8 -19,8 -33,21.5 -14,13.5 -22.5,32.5 -8.5,19 -8.5,40 z"></path></svg>
