<?xml version="1.0" encoding="UTF-8" standalone="no"?>
<svg xmlns="http://www.w3.org/2000/svg" width="4558" height="2057"><path id="sacute" unicode="&#x15B;" d="M 91,2057 Q 53,2057 26.5,2039.5 0,2022 0,1992 0,1972 13.5,1960.5 27,1949 44,1949 q 12,0 20.5,8 8.5,8 8.5,21 0,8 -2.5,13 -2.5,5 -6,9 -3.5,4 -6,8.5 -2.5,4.5 -2.5,10.5 0,9 6.5,16 6.5,7 20.5,7 21,0 30,-14 9,-14 9,-32 0,-19 -12.5,-32 Q 97,1951 82,1939.5 67,1928 54.5,1914.5 42,1901 42,1880 q 0,-19 11,-33 11,-14 28,-23 17,-9 37,-13.5 20,-4.5 37,-4.5 31,0 50,14 19,14 19,36 0,20 -11,30.5 -11,10.5 -26,10.5 -14,0 -22.5,-7 -8.5,-7 -8.5,-18 0,-14 6.5,-20.5 6.5,-6.5 6.5,-17.5 0,-15 -15,-15 -14,0 -25,10 -11,10 -11,25 0,22 13.5,36.5 13.5,14.5 30,27 16.5,12.5 30,26 13.5,13.5 13.5,33.5 0,18 -10,33 -10,15 -26,25.5 -16,10.5 -36.5,16 Q 112,2057 91,2057 Z m 133,-385 q 6,0 13.5,11.5 7.5,11.5 7.5,22.5 0,15 -19,32 -24,21 -51.5,32.5 -27.5,11.5 -48.5,11.5 -10,0 -10,-8 0,-4 8,-8 19,-8 42.5,-29 23.5,-21 44.5,-56 4,-9 13,-9 z"></path></svg>
