<?xml version="1.0" encoding="UTF-8" standalone="no"?>
<svg xmlns="http://www.w3.org/2000/svg" width="4558" height="2057"><path id="semicolon" unicode=";" d="m 40,1856 q 0,-8 3.5,-18 3.5,-10 10.5,-18.5 7,-8.5 15.5,-14 8.5,-5.5 19.5,-5.5 11,0 17,7 6,7 6,18 0,19 -13,38.5 -13,19.5 -36,19.5 -11,0 -17,-7.5 -6,-7.5 -6,-19.5 z m -23,118 q 0,-11 6,-26 6,-15 26,-15 15,0 24,10.5 9,10.5 9,24.5 0,12 -7,27 -7,15 -18,29 -11,14 -24,23.5 -13,9.5 -24,9.5 -9,0 -9,-7 0,-2 2.5,-4 2.5,-2 4.5,-4 7,-5 17,-15 10,-10 12,-28 -10,0 -14.5,-8 -4.5,-8 -4.5,-17 z"></path></svg>
