<?xml version="1.0" encoding="UTF-8" standalone="no"?>
<svg xmlns="http://www.w3.org/2000/svg" width="4558" height="2057"><path id="seven" unicode="7" d="m 266,1635 q -19,0 -41.5,-4 -22.5,-4 -45,-8.5 -22.5,-4.5 -44,-8.5 -21.5,-4 -37.5,-4 -17,0 -27.5,3.5 Q 60,1617 46,1627 q -10,7 -13,7 -5,0 -8,-3.5 -3,-3.5 -3,-5.5 0,-4 1.5,-7.5 1.5,-3.5 9.5,-14.5 4,-5 13.5,-16 9.5,-11 22.5,-22.5 13,-11.5 29,-20 16,-8.5 33,-8.5 21,0 42.5,3.5 21.5,3.5 42,8 20.5,4.5 39.5,8 19,3.5 35,3.5 14,0 24.5,-4.5 10.5,-4.5 20.5,-4.5 4,0 8,5 4,5 7.5,11.5 3.5,6.5 5.5,13 2,6.5 2,9.5 0,4 -5.5,7 -5.5,3 -14.5,7.5 -9,4.5 -20.5,11.5 -11.5,7 -23.5,19 -37,38 -64.5,84 -27.5,46 -48.5,95 -21,49 -36,99.5 -15,50.5 -27,96.5 -2,8 -8,11.5 -6,3.5 -15,5.5 -9,2 -20,5 -11,3 -24,9 -12,5 -22.5,11 -10.5,6 -17.5,6 -11,0 -11,-10 0,-4 1,-10.5 1,-6.5 5,-17.5 19,-55 48.5,-108 29.5,-53 64,-101.5 34.5,-48.5 72.5,-92.5 38,-44 75,-82 z"></path></svg>
