<?xml version="1.0" encoding="UTF-8" standalone="no"?>
<svg xmlns="http://www.w3.org/2000/svg" width="4558" height="2057"><path id="tcaron" unicode="&#x165;" d="m 37,1785 h 19 q 11,-37 31.5,-54 20.5,-17 48.5,-25 17,-4 27.5,-8 10.5,-4 16.5,-6 7,-3 11,-5 l 6,12 q -7,5 -14,11 -6,5 -13.5,13.5 -7.5,8.5 -13.5,19.5 -12,18 -20,42 h 70 l -9,17 h -66 q -7,24 -15,50.5 -8,26.5 -14.5,51 Q 95,1928 91,1949 q -4,21 -4,34 0,19 6,26.5 6,7.5 19,7.5 10,0 20,-4.5 10,-4.5 18,-10.5 9,-6 17,-15 l 7,8 q -16,18 -34,31 -15,12 -34,21.5 -19,9.5 -37,9.5 -29,0 -49,-17 -20,-17 -20,-41 0,-31 16,-81 16,-50 36,-116 H 28 Z m 184,-124 q 0,-11 6,-26 6,-15 26,-15 15,0 24,10.5 9,10.5 9,24.5 0,12 -7,27 -7,15 -18,29 -11,14 -24,23.5 -13,9.5 -24,9.5 -9,0 -9,-7 0,-2 2.5,-4 2.5,-2 4.5,-4 7,-5 17,-15 10,-10 12,-28 -10,0 -14.5,-8 -4.5,-8 -4.5,-17 z"></path></svg>
