<?xml version="1.0" encoding="UTF-8" standalone="no"?>
<svg xmlns="http://www.w3.org/2000/svg" width="4558" height="2057"><path id="thorn" unicode="&#xFE;" d="m 264,1485 q -8,14 -21,52.5 -13,38.5 -30,97.5 20,-21 53,-38 33,-17 68,-17 42,0 68,26.5 26,26.5 26,65.5 0,45 -15,88.5 -15,43.5 -40.5,78 -25.5,34.5 -59,55.5 -33.5,21 -71.5,21 -32,0 -56.5,-12.5 Q 161,1890 147,1865 l -15,56 q -5,17 -10,36 -5,19 -10,36 -5,17 -8,29.5 -3,12.5 -3,15.5 0,15 -13,15 -8,0 -24.5,-2 -16.5,-2 -29.5,-2 -15,0 -21,4 -6,4 -9,4 -4,0 -4,-4 0,-3 6,-9 6,-6 12,-15 9,-14 21,-54 12,-40 26,-90 l 97,-365 q 5,-21 17.5,-35 12.5,-14 26.5,-23 -3,1 -7,1 h -7 q -7,0 -12,-1 l -10,-2 q 0,0 -9,-2 l 9,-12 8,2 q 10,2 21,2 17,0 43,-4.5 26,-4.5 58,-18.5 l 5,9 q -6,5 -13,12 -6,6 -13.5,15 -7.5,9 -14.5,22 z m -63,207 q -3,6 -10,24.5 -7,18.5 -13.5,40.5 -6.5,22 -12,43 -5.5,21 -5.5,31 0,26 17,40.5 17,14.5 40,14.5 22,0 44,-21 22,-21 39,-54 17,-33 27.5,-73 10.5,-40 10.5,-77 0,-51 -32,-51 -28,0 -56.5,20 -28.5,20 -48.5,62 z"></path></svg>
