<?xml version="1.0" encoding="UTF-8" standalone="no"?>
<svg xmlns="http://www.w3.org/2000/svg" width="4558" height="2057"><path id="trademark" unicode="&#x2122;" d="m 334,2052 q -2,-38 -2.5,-58 -0.5,-20 -1.5,-30.5 -1,-10.5 -1,-15 V 1936 l -44,116 q -3,5 -6,5 h -24 q -5,0 -5,-5 l -40,-116 -7,116 q 0,5 -5,5 h -33 q -6,0 -6,-5 l 13,-198 q 0,-4 7,-4 h 40 q 1,0 1.5,0.5 0.5,0.5 1.5,0.5 1,1 2,1 l 45,135 46,-135 q 1,0 2,-1 1,0 1.5,-0.5 0.5,-0.5 2.5,-0.5 h 40 q 2,0 4,1 2,1 2,3 l 12,198 q 0,5 -7,5 h -33 q -5,0 -5,-5 z M 60,1883 H 6 q -6,0 -6,-6 v -23 q 0,-4 6,-4 h 153 q 2,0 4,1 2,1 2,3 v 23 q 0,3 -2,4.5 -2,1.5 -4,1.5 h -55 v 169 q 0,5 -4,5 H 66 q -6,0 -6,-5 z"></path></svg>
