<?xml version="1.0" encoding="UTF-8" standalone="no"?>
<svg xmlns="http://www.w3.org/2000/svg" width="4558" height="2057"><path id="uni0162" unicode="&#x162;" d="m 177,1973 q 0,-5 1.5,-12 1.5,-7 4.5,-13 3,-6 8.5,-10.5 5.5,-4.5 13.5,-4.5 13,0 21.5,11 8.5,11 8.5,25 0,11 -7,26 -7,15 -17.5,28.5 -10.5,13.5 -23,23.5 -12.5,10 -22.5,10 -6,0 -6,-6 0,-2 2,-3.5 2,-1.5 4,-3.5 7,-5 17.5,-16 10.5,-11 12.5,-31 -18,-1 -18,-24 z m 510,-721 q 35,0 56.5,-7.5 21.5,-7.5 44.5,-21.5 4,-2 7,-4 3,-2 5,-2 7,0 7,6 0,7 -6,14 -6,8 -18,23.5 -12,15.5 -28.5,31 -16.5,15.5 -36,27 -19.5,11.5 -41.5,11.5 -42,0 -75,-9.5 -33,-9.5 -63,-23.5 -25,29 -38.5,66.5 -13.5,37.5 -21.5,79.5 -8,42 -13,87.5 -5,45.5 -12.5,90.5 -7.5,45 -19,87 -11.5,42 -32.5,77 -19,32 -43.5,54.5 -24.5,22.5 -51.5,37 -27,14.5 -55,21.5 -28,7 -53,7 -30,0 -50.5,-6.5 -20.5,-6.5 -33,-15.5 -12.5,-9 -18,-19 -5.5,-10 -5.5,-17 0,-18 16,-18 8,0 11.5,5 3.5,5 3.5,10 0,4 2.5,10.5 2.5,6.5 9,12.5 6.5,6 16.5,10 10,4 25,4 35,0 64.5,-30.5 29.5,-30.5 58.5,-92.5 24,-50 43,-116.5 19,-66.5 40.5,-133 21.5,-66.5 51,-127 29.5,-60.5 74.5,-98.5 -38,-17 -80,-32 -42,-15 -96,-15 -45,0 -91.5,19 -46.5,19 -84,53.5 -37.5,34.5 -61,82.5 -23.5,48 -23.5,106 0,26 5,49 5,23 17,40 12,17 30.5,27 18.5,10 45.5,10 39,0 64,-23.5 25,-23.5 25,-53.5 0,-9 -3,-14.5 -3,-5.5 -6.5,-10 -3.5,-4.5 -6.5,-9.5 -3,-5 -3,-13 0,-12 7.5,-22 7.5,-10 24.5,-10 16,0 25,11.5 9,11.5 9,29.5 0,27 -11.5,51.5 -11.5,24.5 -31,42.5 -19.5,18 -45,29 -25.5,11 -54.5,11 -33,0 -62.5,-10 Q 72,1622 49.5,1602.5 27,1583 13.5,1555 0,1527 0,1492 0,1426 30,1374.5 60,1323 108.5,1288 157,1253 218,1234.5 279,1216 341,1216 q 59,0 99,5.5 40,5.5 76,12.5 36,7 75,12.5 39,5.5 96,5.5 z"></path></svg>
