<?xml version="1.0" encoding="UTF-8" standalone="no"?>
<svg xmlns="http://www.w3.org/2000/svg" width="4558" height="2057"><path id="uni00B3" unicode="&#xB3;" d="m 118,1855 q -4,3 -8,5 -8,5 -20,5 -12,0 -17.5,-5 -5.5,-5 -5.5,-12 0,-7 5.5,-12.5 5.5,-5.5 16.5,-5.5 5,0 9.5,1 4.5,1 9.5,3 l 10,4 q 31,-5 53,-33 22,-28 22,-66 0,-26 -12.5,-39 -12.5,-13 -32.5,-13 -26,0 -43,13 -17,13 -17,27 0,8 4,11.5 4,3.5 9,6.5 5,3 9,7.5 4,4.5 4,13.5 0,10 -6.5,16.5 -6.5,6.5 -17.5,6.5 -13,0 -22,-10 -9,-10 -9,-27 0,-17 8.5,-31.5 8.5,-14.5 23,-25.5 14.5,-11 34,-17.5 19.5,-6.5 40.5,-6.5 18,0 35.5,4 17.5,4 31.5,12.5 14,8.5 23,21.5 9,13 9,31 0,22 -13,40.5 -13,18.5 -32,32 -19,13.5 -40.5,21.5 -21.5,8 -37.5,11 12,2 29,8.5 17,6.5 32.5,18.5 15.5,12 27,30 11.5,18 11.5,42 0,28 -12,49 -12,21 -31,35.5 -19,14.5 -41.5,21.5 -22.5,7 -43.5,7 -50,0 -76,-22.5 Q 11,2012 0,1983 l 10,-6 q 6,11 24.5,26.5 18.5,15.5 48.5,15.5 39,0 61.5,-25.5 22.5,-25.5 22.5,-60.5 0,-32 -11,-51.5 -11,-19.5 -38,-26.5 z"></path></svg>
