<?xml version="1.0" encoding="UTF-8" standalone="no"?>
<svg xmlns="http://www.w3.org/2000/svg" width="4558" height="2057"><path id="uni00B2" unicode="&#xB2;" d="m 245,1990 q -17,26 -38,46.5 -21,20.5 -49,20.5 -31,0 -61,-5.5 -30,-5.5 -53,-5.5 -6,0 -12.5,3.5 -6.5,3.5 -14.5,3.5 -7,0 -12,-7 -5,-7 -5,-12 0,-6 10.5,-13.5 Q 21,2013 41,1997 q 28,-21 59,-48 31,-27 57,-58 26,-31 43,-64.5 17,-33.5 17,-67.5 0,-35 -14.5,-50.5 Q 188,1693 161,1693 q -15,0 -27,5 -12,5 -21,13 -9,8 -14,17 -5,9 -5,16 0,7 4,11 4,4 9.5,7.5 5.5,3.5 9.5,8 4,4.5 4,11.5 0,11 -7,18 -7,7 -18,7 -14,0 -23,-10.5 -9,-10.5 -9,-27.5 0,-19 10,-36.5 10,-17.5 26.5,-30.5 16.5,-13 38,-20.5 21.5,-7.5 45.5,-7.5 42,0 71,22 29,22 29,66 0,39 -23,72.5 -23,33.5 -56.5,62.5 -33.5,29 -70.5,53.5 -37,24.5 -64,45.5 28,0 56,5 28,5 52,5 20,0 36,-6.5 16,-6.5 25,-15.5 z"></path></svg>
