<?xml version="1.0" encoding="UTF-8" standalone="no"?>
<svg xmlns="http://www.w3.org/2000/svg" width="4558" height="2057"><path id="uni00B9" unicode="&#xB9;" d="m 78,1760 q 1,-2 2,-6.5 1,-4.5 1,-8.5 0,-7 -8,-7 -10,0 -18,2 -4,1 -7,1 v -13 q 18,-3 35.5,-12.5 17.5,-9.5 38.5,-30.5 5,-5 7.5,-6 2.5,-1 5.5,-1 3,0 7,3.5 4,3.5 8.5,8 4.5,4.5 7.5,9 3,4.5 3,6.5 0,3 -1.5,8 -1.5,5 -3.5,12 -12,41 -23.5,84 -11.5,43 -22.5,84.5 -11,41.5 -21,80 -10,38.5 -17,69.5 -1,4 -10,7 -9,3 -20,4.5 -11,1.5 -22,2 -11,0.5 -15,0.5 -5,0 -5,-5 0,-2 5,-14 4,-10 14,-46.5 10,-36.5 21.5,-80.5 11.5,-44 22,-86 10.5,-42 15.5,-65 z"></path></svg>
