<?xml version="1.0" encoding="UTF-8" standalone="no"?>
<svg xmlns="http://www.w3.org/2000/svg" width="4558" height="2057"><path id="uniFB06" unicode="&#xFB06;" d="m 118,1854 q 0,22 13.5,36.5 13.5,14.5 30,27 16.5,12.5 30,26 13.5,13.5 13.5,33.5 0,18 -10,33 -10,15 -26,25.5 -16,10.5 -36.5,16 Q 112,2057 91,2057 53,2057 26.5,2039.5 0,2022 0,1992 0,1972 13.5,1960.5 27,1949 44,1949 q 12,0 20.5,8 8.5,8 8.5,21 0,8 -2.5,13 -2.5,5 -6,9 -3.5,4 -6,8.5 -2.5,4.5 -2.5,10.5 0,9 6.5,16 6.5,7 20.5,7 21,0 30,-14 9,-14 9,-32 0,-19 -12.5,-32 Q 97,1951 82,1939.5 67,1928 54.5,1914.5 42,1901 42,1880 q 0,-19 11,-33 11,-14 27.5,-23.5 16.5,-9.5 36.5,-14 20,-4.5 37,-4.5 l -2,-8 q 0,0 -1,-9 v -10 q 0,-23 9,-46.5 9,-23.5 27,-43 18,-19.5 44.5,-31.5 26.5,-12 61.5,-12 40,0 66.5,20 26.5,20 26.5,55 0,9 -1.5,20 -1.5,11 -3.5,20 -3,11 -5,22 h 70 l -9,17 h -66 q -7,24 -15,50.5 -8,26.5 -14.5,51 -6.5,24.5 -11,45.5 -4.5,21 -4.5,34 0,19 6.5,26.5 6.5,7.5 16.5,7.5 10,0 20,-4.5 10,-4.5 18,-10.5 9,-6 17,-15 l 8,9 q -16,18 -34,31 -15,11 -33.5,20.5 -18.5,9.5 -36.5,9.5 -29,0 -49.5,-16.5 Q 238,2021 238,1995 q 0,-31 17,-80.5 17,-49.5 37,-115.5 h -23 l 9,-17 h 19 q 2,-10 5,-20 2,-8 4,-17.5 2,-9.5 2,-17.5 0,-22 -13.5,-35 -13.5,-13 -33.5,-13 -20,0 -37.5,8.5 -17.5,8.5 -30,23 -12.5,14.5 -19.5,32 -7,17.5 -7,35.5 0,8 2,18 1,4 2,9 7,1 17,4.5 10,3.5 19.5,9.5 9.5,6 16,14 6.5,8 6.5,18 0,14 -7.5,21.5 -7.5,7.5 -19.5,7.5 -11,0 -19,-7.5 -8,-7.5 -13.5,-17.5 -5.5,-10 -9.5,-20 -4,-10 -5,-16 -18,0 -28,10 -10,10 -10,25 z"></path></svg>
