<?xml version="1.0" encoding="UTF-8" standalone="no"?>
<svg xmlns="http://www.w3.org/2000/svg" width="4558" height="2057"><path id="Uring" unicode="&#x16E;" d="m 517,1467 q -15,-2 -30,-5 -13,-2 -28.5,-3.5 -15.5,-1.5 -29.5,-1.5 -69,0 -133,18 -64,18 -114,53.5 -50,35.5 -80,88.5 -30,53 -30,124 0,52 22,84 22,32 76,32 41,0 63.5,-23.5 22.5,-23.5 22.5,-50.5 0,-9 -3,-14.5 -3,-5.5 -6.5,-10 -3.5,-4.5 -6.5,-10 -3,-5.5 -3,-13.5 0,-12 7.5,-22 7.5,-10 24.5,-10 16,0 24.5,11.5 8.5,11.5 8.5,29.5 0,27 -11,51 -11,24 -29.5,42 -18.5,18 -44,28.5 -25.5,10.5 -53.5,10.5 -32,0 -61.5,-8.5 -29.5,-8.5 -52,-26 Q 28,1824 14,1797.5 0,1771 0,1735 0,1660 38,1604.5 76,1549 135.5,1512 195,1475 267.5,1456.5 340,1438 408,1438 q 27,0 46,1.5 19,1.5 33.5,3 14.5,1.5 25.5,2.5 11,1 22,1 18,0 37,-3 19,-3 35,-11 l 5,9 q -21,11 -38,31.5 -17,20.5 -29.5,46 -12.5,25.5 -22.5,52.5 -10,27 -17,50 -14,41 -28,86.5 -14,45.5 -26,89 -12,43.5 -19.5,81.5 -7.5,38 -7.5,63 0,46 18.5,63.5 18.5,17.5 44.5,17.5 19,0 40.5,-11.5 21.5,-11.5 42.5,-32.5 21,-21 40.5,-50 19.5,-29 35.5,-63 34,-73 56.5,-153.5 Q 725,1631 753,1551 q 4,-11 11,-26.5 7,-15.5 16.5,-30.5 9.5,-15 22,-26 12.5,-11 27.5,-13 17,-2 30.5,-6.5 13.5,-4.5 23.5,-8.5 11,-4 20,-10 l 5,9 q -7,6 -15,16 -14,17 -32,50 -9,16 -22.5,54 -13.5,38 -28.5,86.5 -15,48.5 -30,103 -15,54.5 -27.5,104.5 -12.5,50 -20,89.5 -7.5,39.5 -7.5,58.5 0,16 10,16 8,0 15.5,-4.5 7.5,-4.5 15.5,-10.5 8,-6 17,-15 l 7,8 q -16,18 -32,31 -14,12 -30.5,21.5 -16.5,9.5 -31.5,9.5 -27,0 -48.5,-13.5 Q 627,2030 627,1995 q 0,-9 0.5,-16 0.5,-7 1.5,-15.5 1,-8.5 3.5,-19 2.5,-10.5 6.5,-26.5 -17,24 -37.5,48.5 -20.5,24.5 -44,45 -23.5,20.5 -49,33 -25.5,12.5 -51.5,12.5 -23,0 -46.5,-5.5 Q 387,2046 368,2032 q -19,-14 -31,-38 -12,-24 -12,-61 0,-28 8.5,-68 8.5,-40 21.5,-85 13,-45 28.5,-92 15.5,-47 28.5,-88 13,-41 37,-73.5 24,-32.5 68,-59.5 z m 153,-86 q 0,-18 8,-35 8,-17 21,-29.5 13,-12.5 29.5,-20 16.5,-7.5 34.5,-7.5 27,0 43,17 16,17 16,43 0,16 -7.5,32.5 -7.5,16.5 -20,30 -12.5,13.5 -29,22 -16.5,8.5 -35.5,8.5 -26,0 -43,-16 -17,-16 -17,-45 z m 94,-69 q -24,0 -44,20.5 -20,20.5 -20,48.5 0,21 9.5,30 9.5,9 24.5,9 23,0 42,-21.5 19,-21.5 19,-49.5 0,-37 -31,-37 z"></path></svg>
