<?xml version="1.0" encoding="UTF-8" standalone="no"?>
<svg xmlns="http://www.w3.org/2000/svg" width="4558" height="2057"><path id="V" unicode="V" d="m 294,1379 q -42,0 -82,19 -40,19 -71,52 -31,33 -50,77 -19,44 -19,95 0,26 6.5,49 6.5,23 19.5,40 13,17 33,27 20,10 47,10 50,0 74.5,-24 24.5,-24 24.5,-53 0,-9 -3,-14.5 -3,-5.5 -6.5,-10 -3.5,-4.5 -6.5,-9.5 -3,-5 -3,-13 0,-14 9.5,-23.5 9.5,-9.5 22.5,-9.5 17,0 25.5,11.5 8.5,11.5 8.5,29.5 0,29 -11,53.5 -11,24.5 -30.5,42.5 -19.5,18 -48,28 -28.5,10 -62.5,10 -33,0 -64,-10 Q 77,1746 53,1726.5 29,1707 14.5,1679.5 0,1652 0,1616 0,1557 27.5,1509.5 55,1462 101,1428.5 147,1395 206,1377 q 59,-18 121,-18 38,0 67.5,5 29.5,5 54,11.5 24.5,6.5 46.5,11.5 22,5 46,5 35,0 56,-6 21,-6 44,-20 5,-2 7.5,-4 2.5,-2 4.5,-2 8,0 8,6 0,6 -6,13 -6,8 -15.5,19.5 -9.5,11.5 -20.5,26.5 -24,32 -35.5,66 -11.5,34 -17,70 -5.5,36 -6,74 -0.5,38 -1.5,77 -1,25 -1.5,54 -0.5,29 -3,57 -2.5,28 -8.5,53.5 -6,25.5 -17,44.5 22,-17 53,-44.5 31,-27.5 64,-62 33,-34.5 65.5,-74.5 32.5,-40 58.5,-82 26,-42 42,-84 16,-42 16,-81 0,-15 -5,-24 -5,-9 -10.5,-17 -5.5,-8 -10.5,-16 -5,-8 -5,-22 0,-16 12,-26.5 12,-10.5 28,-10.5 23,0 35.5,13.5 12.5,13.5 12.5,36.5 0,29 -6.5,57 -6.5,28 -17.5,57 -24,68 -66.5,131.5 -42.5,63.5 -91,118 -48.5,54.5 -98,98 -49.5,43.5 -87.5,71.5 -38,29 -62,47.5 -24,18.5 -38,29.5 l -24,20 -11,-11 q 27,-36 42,-77 15,-41 22.5,-87.5 7.5,-46.5 9.5,-98 2,-51.5 2,-108.5 0,-42 7,-74 7,-32 18,-56 11,-24 24.5,-41 13.5,-17 27.5,-30 -5,2 -8.5,2 H 521 q -27,0 -53.5,-15 -26.5,-15 -54.5,-33.5 -28,-18.5 -57,-33.5 -29,-15 -62,-15 z"></path></svg>
