<?xml version="1.0" encoding="UTF-8" standalone="no"?>
<svg xmlns="http://www.w3.org/2000/svg" width="4558" height="2057"><path id="v" unicode="v" d="m 104,2016 q 20,0 38.5,-12 18.5,-12 32.5,-29.5 14,-17.5 22,-37 8,-19.5 8,-34.5 0,-12 -2.5,-18.5 -2.5,-6.5 -6,-12 -3.5,-5.5 -6,-11.5 -2.5,-6 -2.5,-18 0,-12 10,-21.5 10,-9.5 28,-9.5 20,0 30,11.5 10,11.5 10,31.5 0,32 -21.5,67.5 -21.5,35.5 -53,65.5 -31.5,30 -68,49.5 Q 87,2057 57,2057 35,2057 17.5,2045 0,2033 0,2007 0,1991 8.5,1971.5 17,1952 27,1933 q 10,-19 18.5,-37 8.5,-18 8.5,-33 0,-11 -8,-11 -4,0 -10,4.5 -6,4.5 -13,9.5 -8,6 -16,13 l -7,-9 q 6,-6 17.5,-15.5 11.5,-9.5 25,-19 13.5,-9.5 28,-16.5 14.5,-7 26.5,-7 18,0 31,8 13,8 13,25 0,15 -8,34.5 -8,19.5 -17,40.5 -9,21 -17,41 -8,20 -8,35 0,13 4.5,16.5 4.5,3.5 8.5,3.5 z"></path></svg>
