<?xml version="1.0" encoding="UTF-8" standalone="no"?>
<svg xmlns="http://www.w3.org/2000/svg" width="4558" height="2057"><path id="W" unicode="W" d="m 72,1586 q 0,26 6.5,49 6.5,23 19.5,40 13,17 33,27 20,10 47,10 50,0 74.5,-24 24.5,-24 24.5,-53 0,-9 -3,-14.5 -3,-5.5 -6.5,-10 -3.5,-4.5 -6.5,-9.5 -3,-5 -3,-13 0,-14 9.5,-23.5 9.5,-9.5 22.5,-9.5 17,0 25.5,11.5 8.5,11.5 8.5,29.5 0,29 -11,53.5 -11,24.5 -30.5,42.5 -19.5,18 -48,28 -28.5,10 -62.5,10 -33,0 -64,-10 Q 77,1710 53,1690.5 29,1671 14.5,1643.5 0,1616 0,1580 0,1522 27.5,1474.5 55,1427 100.5,1393 146,1359 205,1341 q 59,-18 122,-18 38,0 67.5,5 29.5,5 54,11.5 24.5,6.5 46.5,11.5 22,5 46,5 35,0 55.5,-6 20.5,-6 43.5,-20 5,-2 8,-4 3,-2 5,-2 8,0 8,6 0,5 -6,12 -6,8 -17,19.5 -11,11.5 -22,26.5 -26,36 -40.5,70 -14.5,34 -22,69.5 -7.5,35.5 -9,72.5 -1.5,37 -1.5,78 0,61 -6.5,105 -6.5,44 -14,73 -7.5,29 -15,43.5 -7.5,14.5 -8.5,17.5 31,-30 63,-66.5 32,-36.5 66,-81 34,-44.5 69,-99 35,-54.5 71,-121.5 17,-31 38,-59 21,-28 40,-50 22,-26 44,-47 l 19,6 q -21,37 -35.5,94 -14.5,57 -24.5,126 -10,69 -14.5,146.5 -4.5,77.5 -4.5,156.5 14,-17 40.5,-46 26.5,-29 58,-66.5 31.5,-37.5 64.5,-81.5 33,-44 59.5,-90 26.5,-46 43.5,-92.5 17,-46.5 17,-88.5 0,-15 -5,-24 -5,-9 -10.5,-17 -5.5,-8 -10.5,-16.5 -5,-8.5 -5,-21.5 0,-14 10.5,-25.5 10.5,-11.5 29.5,-11.5 20,0 34,13.5 14,13.5 14,36.5 0,29 -6.5,57 -6.5,28 -17.5,57 -25,68 -68.5,138 -43.5,70 -97.5,138 -54,68 -113.5,132 -59.5,64 -115.5,119 l -18,-2 q -2,-75 -2,-129.5 V 1802 q 0,-49 3,-87 3,-38 13,-75 -32,50 -61,93 -29,43 -59.5,81 -30.5,38 -64.5,73.5 -34,35.5 -74,71.5 -36,32 -60,51 -24,19 -39,30 -18,12 -27,17 l -11,-11 q 31,-42 49.5,-90 18.5,-48 28,-100.5 9.5,-52.5 12,-108.5 2.5,-56 2.5,-115 0,-40 9.5,-71.5 9.5,-31.5 23.5,-55 14,-23.5 30,-40 16,-16.5 30,-27.5 -2,1 -4,1 -3,1 -9,1 -27,0 -53.5,-15 -26.5,-15 -54,-33.5 Q 388,1373 358,1358 q -30,-15 -64,-15 -42,0 -82,19 -40,19 -71,52 -31,33 -50,77 -19,44 -19,95 z"></path></svg>
