<?xml version="1.0" encoding="UTF-8" standalone="no"?>
<svg xmlns="http://www.w3.org/2000/svg" width="4558" height="2057"><path id="x" unicode="x" d="m 103,1906 q -7,-29 -12,-40.5 -5,-11.5 -18,-11.5 -4,0 -10.5,4 -6.5,4 -12.5,9 -8,5 -16,12 l -8,-9 q 6,-5 16.5,-15 10.5,-10 23.5,-19.5 13,-9.5 27,-16.5 14,-7 25,-7 26,0 39,18 13,18 25,58 l 13,42 q 18,-17 24,-29 6,-12 6,-25 0,-9 -5,-14.5 -5,-5.5 -5,-19.5 0,-14 12,-22 12,-8 26,-8 32,0 32,29 0,11 -7.5,23.5 -7.5,12.5 -19.5,26 -12,13.5 -27.5,27.5 -15.5,14 -30.5,27 11,32 22,52 11,20 27,20 9,0 18.5,-4.5 9.5,-4.5 17.5,-10.5 10,-6 19,-15 l 7,8 q -17,18 -35,31 -15,12 -33.5,21.5 -18.5,9.5 -36.5,9.5 -29,0 -48,-10 -19,-10 -31,-44 -20,18 -32.5,28.5 -12.5,10.5 -22,16 -9.5,5.5 -18,7.5 -8.5,2 -18.5,2 -12,0 -24,-6.5 Q 0,2044 0,2027 0,2010 12.5,1999.5 25,1989 40,1989 q 13,0 21,6.5 8,6.5 19,6.5 10,0 17.5,-2 7.5,-2 23.5,-14 -5,-17 -9,-37 -4,-20 -9,-43 z"></path></svg>
