<?xml version="1.0" encoding="UTF-8" standalone="no"?>
<svg xmlns="http://www.w3.org/2000/svg" width="4558" height="2057"><path id="ydieresis" unicode="&#xFF;" d="m 218,1764 q -29,32 -63.5,53.5 Q 120,1839 93,1839 70,1839 52,1825.5 34,1812 34,1785 34,1769 42.5,1749.5 51,1730 61,1711 q 10,-19 18.5,-37 8.5,-18 8.5,-33 0,-10 -7,-10 -5,0 -11,4 -6,4 -12,9 -7,6 -15,13 l -8,-9 q 6,-6 17.5,-15.5 11.5,-9.5 25,-19 13.5,-9.5 28,-16.5 14.5,-7 26.5,-7 22,0 33,9 11,9 11,24 0,15 -8,35 -8,20 -17,41 -9,21 -17,41.5 -8,20.5 -8,36.5 0,19 11,19 14,0 30,-10.5 16,-10.5 38,-33.5 13,-14 20,-29.5 7,-15.5 14,-44.5 5,-22 11.5,-37 6.5,-15 15.5,-24 9,-9 21.5,-14 12.5,-5 29.5,-7 22,-3 36,-10 7,-4 12,-7 l 6,12 q -4,3 -8,7 -4,3 -9,7.5 -5,4.5 -10,10.5 -18,20 -27,42.5 -9,22.5 -19,64.5 -9,35 -17,87.5 -8,52.5 -19,106.5 -12,63 -53,101.5 -41,38.5 -108,38.5 -42,0 -71.5,-22.5 Q 0,2012 0,1973 q 0,-24 14.5,-40 14.5,-16 33.5,-16 15,0 23,9 8,9 8,20 0,12 -4.5,20 -4.5,8 -10.5,14 -6,6 -10.5,12.5 -4.5,6.5 -4.5,16.5 0,15 11,24.5 11,9.5 26,9.5 23,0 42.5,-24 19.5,-24 35.5,-63.5 16,-39.5 29.5,-89.5 13.5,-50 24.5,-102 z m -59,-237 q 0,-16 11.5,-32.5 11.5,-16.5 29.5,-16.5 14,0 21,11 7,11 7,25 0,20 -13.5,33.5 -13.5,13.5 -27.5,13.5 -14,0 -21,-10 -7,-10 -7,-24 z m 99,0 q 0,-16 11.5,-32.5 11.5,-16.5 29.5,-16.5 14,0 21,11 7,11 7,25 0,20 -13.5,33.5 -13.5,13.5 -27.5,13.5 -14,0 -21,-10 -7,-10 -7,-24 z"></path></svg>
