<?xml version="1.0" encoding="UTF-8" standalone="no"?>
<svg xmlns="http://www.w3.org/2000/svg" width="4558" height="2057"><path id="Z" unicode="Z" d="m 607,1958 q -6,8 -20,24.5 -14,16.5 -32,33 -18,16.5 -38.5,29 -20.5,12.5 -40.5,12.5 -34,0 -67,-12.5 -33,-12.5 -65,-32 -32,-19.5 -65,-43 -33,-23.5 -67,-44.5 -28,14 -59.5,20 -31.5,6 -60.5,6 -40,0 -66,-15 -26,-15 -26,-41 0,-20 19,-31.5 19,-11.5 38,-11.5 26,0 48.5,4.5 22.5,4.5 48.5,14.5 61,-38 101.5,-87 40.5,-49 74,-103 33.5,-54 66,-111 32.5,-57 78.5,-112 38,-45 68.5,-67.5 Q 573,1368 599,1354 543,1353 504.5,1342.5 466,1332 434,1321 q -32,-11 -65,-20.5 -33,-9.5 -79,-9.5 -38,0 -75.5,16 -37.5,16 -67,45.5 -29.5,29.5 -48,71 Q 81,1465 81,1516 q 0,26 7,49 7,23 20.5,40 13.5,17 33,27 19.5,10 45.5,10 20,0 36.5,-6.5 16.5,-6.5 28,-17.5 11.5,-11 18,-24.5 6.5,-13.5 6.5,-28.5 0,-9 -3,-14.5 -3,-5.5 -6.5,-10 -3.5,-4.5 -6.5,-9.5 -3,-5 -3,-13 0,-14 8,-23.5 8,-9.5 24,-9.5 17,0 25,11.5 8,11.5 8,29.5 0,28 -11.5,52.5 -11.5,24.5 -31,42.5 -19.5,18 -45,28.5 Q 209,1660 181,1660 148,1660 117,1650 86,1640 62,1620.5 38,1601 23.5,1573.5 9,1546 9,1510 9,1451 36.5,1406.5 64,1362 110,1332.5 156,1303 215,1288 q 59,-15 121,-15 44,0 83,6.5 39,6.5 76.5,14 37.5,7.5 74.5,14 37,6.5 76,6.5 14,-18 29.5,-28.5 15.5,-10.5 32.5,-10.5 14,0 21.5,7 7.5,7 7.5,17 0,13 -8,23 -8,10 -21.5,17.5 -13.5,7.5 -30.5,11.5 -17,4 -35,5 -27,21 -49,50 -22,29 -48,86 -27,59 -56,120 -29,61 -64.5,116.5 Q 389,1784 345,1830 q -44,46 -101,76 30,14 62,27.5 32,13.5 63,24 31,10.5 60.5,16.5 29.5,6 55.5,6 35,0 63,-9 28,-9 51,-23 z M 64,1907 q 20,0 37,-5 17,-5 35,-17 -22,-8 -36,-10.5 -14,-2.5 -31,-2.5 -22,0 -30.5,5.5 -8.5,5.5 -8.5,12.5 0,8 9.5,12.5 9.5,4.5 24.5,4.5 z"></path></svg>
