<?xml version="1.0" encoding="UTF-8" standalone="no"?>
<svg xmlns="http://www.w3.org/2000/svg" width="4558" height="2057"><path id="zacute" unicode="&#x17A;" d="m 268,1822 q 0,6 -11.5,23 -11.5,17 -26.5,32 -23,23 -45,38.5 -22,15.5 -42.5,27.5 -20.5,12 -40,22.5 Q 83,1976 65,1989 q 2,-1 8.5,-3 6.5,-2 17.5,-2 13,0 22.5,2 9.5,2 17.5,5 8,3 17.5,5 9.5,2 22.5,2 13,0 23,-3 10,-3 18,-8 9,-5 15,-12 l 6,6 q -12,21 -27,38 -13,14 -30.5,26 -17.5,12 -39.5,12 -23,0 -38,-5 -15,-5 -35,-5 -23,0 -32,5 -9,5 -17,5 -5,0 -9.5,-3.5 Q 0,2050 0,2044 q 0,-15 5,-24.5 5,-9.5 19,-22.5 22,-20 46,-34 24,-14 47,-27 23,-13 45,-26.5 22,-13.5 40,-31.5 -9,6 -31,6 -14,0 -23,-2 -9,-2 -16.5,-4 -7.5,-2 -15.5,-4 -8,-2 -18,-2 -14,0 -23,3.5 -9,3.5 -16,8.5 -8,5 -13,11 l -7,-6 q 14,-21 30,-38 14,-14 31,-26.5 17,-12.5 37,-12.5 14,0 23,1.5 9,1.5 16,4 7,2.5 15,4 8,1.5 20,1.5 13,0 20.5,-1.5 7.5,-1.5 12.5,-4 l 8,-4 q 0,0 6,-1.5 2,0 6,4 4,4 4,6 z m 2,-160 q 8,0 16.5,14 8.5,14 8.5,26 0,17 -23,37 -28,25 -59.5,38 -31.5,13 -56.5,13 -4,0 -7.5,-2 -3.5,-2 -3.5,-7 0,-5 9,-9 22,-10 49.5,-34 27.5,-24 51.5,-65 5,-11 15,-11 z"></path></svg>
