<?xml version="1.0" encoding="UTF-8" standalone="no"?>
<svg xmlns="http://www.w3.org/2000/svg" width="4558" height="2057"><path id="zero" unicode="0" d="M 0,1890 Q 0,1826 22.5,1763.5 45,1701 82,1652 q 37,-49 85,-79 48,-30 99,-30 31,0 56.5,10.5 25.5,10.5 44,30 18.5,19.5 28.5,46 10,26.5 10,58.5 0,79 -20.5,146.5 -20.5,67.5 -55.5,117 -35,49.5 -81.5,77.5 -46.5,28 -97.5,28 -28,0 -55,-11 Q 68,2035 47,2013.5 26,1992 13,1961 0,1930 0,1890 Z m 247,-326 q -34,0 -62,33.5 -28,33.5 -48.5,84.5 -20.5,51 -32,112.5 Q 93,1856 93,1912 q 0,60 19.5,91.5 19.5,31.5 63.5,31.5 31,0 57,-33 26,-33 44,-86 18,-53 28,-118 10,-65 10,-130 0,-54 -19.5,-79 -19.5,-25 -48.5,-25 z"></path></svg>
