<?xml version="1.0" encoding="UTF-8" standalone="no"?>
<svg xmlns="http://www.w3.org/2000/svg" width="4558" height="2057"><path id="abreve" unicode="&#x103;" d="m 255,2003 q 0,15 13,15 7,0 15,-4.5 8,-4.5 16,-10.5 9,-7 17,-16 l 7,8 q -16,18 -32,31 -14,12 -29.5,21.5 -15.5,9.5 -28.5,9.5 -23,0 -35.5,-13 -12.5,-13 -12.5,-31 0,-10 1,-16 1,-6 3,-15 -6,11 -17.5,24 -11.5,13 -26,24 -14.5,11 -31,19 -16.5,8 -33.5,8 -35,0 -58,-20 -23,-20 -23,-54 0,-36 16,-67 16,-31 40,-54 24,-23 53,-36.5 29,-13.5 56,-13.5 29,0 44,12.5 15,12.5 17,31.5 5,-15 18,-24.5 13,-9.5 39,-13.5 12,-2 21,-4.5 9,-2.5 15,-5.5 7,-4 12,-7 l 6,12 q -7,4 -14,10 -6,5 -13,13 -7,8 -13,20 -6,12 -13.5,31.5 -7.5,19.5 -13.5,41 -6,21.5 -10.5,41.5 -4.5,20 -4.5,33 z m -140,23 q 9,0 19,-6.5 10,-6.5 20.5,-17.5 10.5,-11 20,-24.5 9.5,-13.5 16.5,-27.5 3,-7 6.5,-17.5 3.5,-10.5 6.5,-21 3,-10.5 5,-20.5 2,-10 2,-16 0,-18 -7.5,-31.5 Q 196,1830 175,1830 q -18,0 -34,14 -16,14 -27.5,35.5 -11.5,21.5 -18,47 -6.5,25.5 -6.5,47.5 0,28 6,40 6,12 20,12 z m 78,-252 q -38,0 -64,-21.5 -26,-21.5 -26,-53.5 0,-12 6.5,-20.5 6.5,-8.5 18.5,-8.5 8,0 13.5,5.5 5.5,5.5 5.5,13.5 0,11 -4.5,15 -4.5,4 -4.5,12 0,16 15,29.5 15,13.5 42,13.5 29,0 50.5,-15.5 21.5,-15.5 21.5,-40.5 0,-16 7.5,-24.5 7.5,-8.5 17.5,-8.5 8,0 13,5.5 5,5.5 5,13.5 0,11 -9,25.5 -9,14.5 -25,27.5 -16,13 -37,22.5 -21,9.5 -46,9.5 z"></path></svg>
