<?xml version="1.0" encoding="UTF-8" standalone="no"?>
<svg xmlns="http://www.w3.org/2000/svg" width="4558" height="2057"><path id="ae" unicode="&#xE6;" d="m 115,2026 q 9,0 20,-6.5 11,-6.5 21.5,-17.5 10.5,-11 20,-24.5 9.5,-13.5 16.5,-27.5 2,-4 5.5,-14.5 3.5,-10.5 6.5,-22 3,-11.5 5.5,-22.5 2.5,-11 2.5,-16 0,-17 -8.5,-31 -8.5,-14 -29.5,-14 -17,0 -32.5,14 -15.5,14 -27.5,35.5 -12,21.5 -19,47 -7,25.5 -7,47.5 0,28 6,40 6,12 20,12 z m 168,31 q -38,0 -62.5,-22 -24.5,-22 -27.5,-56 -7,11 -19,24.5 -12,13.5 -27,25.5 -15,12 -32,20 -17,8 -34,8 -35,0 -58,-21 -23,-21 -23,-53 0,-36 16.5,-67 16.5,-31 41,-54 24.5,-23 53.5,-36.5 29,-13.5 54,-13.5 29,0 46.5,15.5 17.5,15.5 19.5,35.5 29,-25 63.5,-38 34.5,-13 57.5,-13 30,0 50,12 20,12 20,33 0,20 -10,36 -10,16 -26.5,27 -16.5,11 -38,17.5 -21.5,6.5 -43.5,6.5 -8,0 -14,-2 -6,-2 -6,-7 0,-5 5,-5 14,0 28.5,-8 14.5,-8 26,-20.5 11.5,-12.5 18.5,-28.5 7,-16 7,-32 0,-13 -11,-13 -14,0 -29,13 -15,13 -27,33.5 -12,20.5 -20,45 -8,24.5 -8,47.5 0,34 13.5,47 13.5,13 31.5,13 14,0 27,-6 13,-6 23,-14 11,-9 22,-20 l 8,8 q -15,18 -33,31 -16,12 -37,21.5 -21,9.5 -46,9.5 z"></path></svg>
