<?xml version="1.0" encoding="UTF-8" standalone="no"?>
<svg xmlns="http://www.w3.org/2000/svg" width="4558" height="2057"><path id="AE" unicode="&#xC6;" d="m 1132,1343 q -36,0 -69,15.5 -33,15.5 -58,43 -25,27.5 -40,64.5 -15,37 -15,80 0,19 2.5,31.5 2.5,12.5 6.5,20.5 4,10 10,15 8,-2 13.5,-3 5.5,-1 10.5,-1 20,0 33.5,8 13.5,8 13.5,19 0,13 -9.5,21 -9.5,8 -26.5,8 -14,0 -26,-2.5 -12,-2.5 -21,-5.5 -11,-4 -19,-8 -38,21 -68,53 -26,27 -46.5,69.5 Q 803,1814 803,1874 q 0,69 31,96.5 31,27.5 89,27.5 34,0 66,-13.5 32,-13.5 59.5,-35.5 27.5,-22 50.5,-51 23,-29 38,-61 l 12,11 q -17,33 -40.5,66.5 -23.5,33.5 -55,61 -31.5,27.5 -71.5,45 -40,17.5 -91,17.5 -36,0 -73.5,-9.5 -37.5,-9.5 -67.5,-29 -30,-19.5 -49.5,-50 Q 681,1919 681,1877 q 0,-35 14.5,-85.5 Q 710,1741 733,1675 H 613 q -38,69 -79.5,137.5 -41.5,68.5 -91,123 -49.5,54.5 -107.5,88 -58,33.5 -128,33.5 -49,0 -87.5,-16 Q 81,2025 54.5,1998 28,1971 14,1936.5 0,1902 0,1864 0,1816 16.5,1779.5 33,1743 59,1718 q 26,-25 57,-37.5 31,-12.5 61,-12.5 22,0 41.5,5.5 19.5,5.5 34.5,14.5 15,9 23.5,20.5 8.5,11.5 8.5,23.5 0,11 -7.5,21.5 -7.5,10.5 -24.5,10.5 -17,0 -25,-11.5 -8,-11.5 -8,-30.5 0,-15 -10.5,-24 -10.5,-9 -35.5,-9 -24,0 -48.5,10 -24.5,10 -44,29 -19.5,19 -32,46 -12.5,27 -12.5,60 0,60 41,92 41,32 116,32 47,0 91.5,-22.5 44.5,-22.5 87,-60.5 42.5,-38 82.5,-89.5 40,-51.5 79,-110.5 H 430 l 9,-18 h 104 q 39,-59 78.5,-115 39.5,-56 80.5,-100 41,-44 83,-71 42,-27 86,-27 21,0 38.5,-4 17.5,-4 29.5,-9 14,-6 26,-14 l 5,10 q -6,5 -12,13 -5,7 -12,16.5 -7,9.5 -15,23.5 40,-28 88.5,-44 48.5,-16 94.5,-16 56,0 93.5,27 37.5,27 37.5,74 0,32 -13,57.5 -13,25.5 -38,25.5 -11,0 -21,-9 -10,-9 -10,-22 0,-15 7.5,-22.5 7.5,-7.5 17,-14.5 9.5,-7 17,-15 7.5,-8 7.5,-24 0,-22 -22.5,-38 -22.5,-16 -57.5,-16 z m -257,17 q -32,0 -63.5,24.5 -31.5,24.5 -63,65.5 -31.5,41 -63.5,94.5 -32,53.5 -64,112.5 h 117 q 17,-49 36.5,-101.5 Q 794,1503 815,1448 825,1423 838.5,1399.5 852,1376 875,1360 Z m -42,303 q 16,-7 30.5,-12.5 14.5,-5.5 25.5,-9.5 l 24,-8 q -10,-6 -20,-15 -8,-8 -17.5,-19.5 Q 866,1587 859,1572 Z"></path></svg>
