<?xml version="1.0" encoding="UTF-8" standalone="no"?>
<svg xmlns="http://www.w3.org/2000/svg" width="4558" height="2057"><path id="ampersand" unicode="&amp;" d="m 452,1917 q 0,-3 1.5,-7 1.5,-4 1.5,-14 0,-20 -7.5,-30.5 Q 440,1855 419,1855 q -13,0 -24,4 -11,4 -22,10 v 4 q 0,31 -12.5,63.5 -12.5,32.5 -37,59.5 -24.5,27 -61,44 -36.5,17 -84.5,17 -28,0 -59,-6.5 -31,-6.5 -57.5,-22 Q 35,2013 17.5,1987.5 0,1962 0,1924 0,1887 14,1858.5 28,1830 49.5,1809 71,1788 96,1774.5 q 25,-13.5 47,-22 22,-8.5 37.5,-12 15.5,-3.5 17.5,-4.5 -1,0 -11.5,-6.5 -10.5,-6.5 -22.5,-19 -12,-12.5 -22,-31 -10,-18.5 -10,-43.5 0,-33 19.5,-60 19.5,-27 48.5,-46 29,-19 63,-29.5 34,-10.5 63,-10.5 43,0 69,21.5 26,21.5 26,61.5 0,25 -11.5,41.5 -11.5,16.5 -31.5,16.5 -11,0 -18,-7 -7,-7 -7,-18 0,-10 6,-16.5 6,-6.5 12.5,-11.5 6.5,-5 12.5,-10.5 6,-5.5 6,-15.5 0,-19 -12.5,-29.5 Q 365,1512 335,1512 q -20,0 -40,9 -20,9 -36.5,26.5 -16.5,17.5 -27,44 -10.5,26.5 -10.5,62.5 0,21 3,34 3,13 8,21 4,9 11,13 6,-1 11.5,-2 5.5,-1 11.5,-1 16,0 27,5.5 11,5.5 11,15.5 0,10 -7.5,16.5 -7.5,6.5 -21.5,6.5 -11,0 -21,-2 -10,-2 -17,-4 -9,-3 -15,-7 -32,15 -57,40 -22,21 -39.5,53.5 -17.5,32.5 -17.5,78.5 0,27 8,46 8,19 21.5,30.5 13.5,11.5 31,17 17.5,5.5 36.5,5.5 31,0 57.5,-12 26.5,-12 46,-31.5 19.5,-19.5 31,-44.5 11.5,-25 13.5,-51 -23,15 -47.5,30 -24.5,15 -56.5,15 -21,0 -39,-11.5 -18,-11.5 -18,-35.5 0,-18 9.5,-31.5 9.5,-13.5 24,-23.5 14.5,-10 32.5,-15 18,-5 35,-5 28,0 48,13.5 20,13.5 28,33.5 17,-14 36,-24.5 19,-10.5 39,-10.5 20,0 32,13 12,13 12,32 0,11 -3.5,22 -3.5,11 -8.5,19.5 -5,8.5 -9.5,14 -4.5,5.5 -7.5,5.5 -7,0 -7,-6 z m -160,-23 q 15,0 30,-8.5 15,-8.5 30,-19.5 -4,-38 -44,-38 -15,0 -27.5,12 -12.5,12 -12.5,29 0,15 8,20 8,5 16,5 z"></path></svg>
