<?xml version="1.0" encoding="UTF-8" standalone="no"?>
<svg xmlns="http://www.w3.org/2000/svg" width="4558" height="2057"><path id="asterisk" unicode="*" d="m 111,1865 q 0,9 -3.5,30 -3.5,21 -3.5,39 2,-1 11,-7 9,-6 19.5,-13.5 10.5,-7.5 19.5,-13.5 9,-6 11,-6 7,0 12,7 5,7 5,15 0,11 -5,14 -16,8 -29,12.5 -13,4.5 -31,14.5 14,8 33,16 19,8 26,11 5,3 5,11 0,8 -5,16 -5,8 -12,8 -3,0 -11,-5 -8,-5 -17.5,-11.5 -9.5,-6.5 -18.5,-13 -9,-6.5 -14,-9.5 2,18 4.5,34 2.5,16 2.5,34 0,9 -19,9 -8,0 -13.5,-2.5 -5.5,-2.5 -5.5,-6.5 0,-17 2.5,-33.5 2.5,-16.5 4.5,-34.5 -1,0 -10,6.5 -9,6.5 -19.5,13.5 -10.5,7 -20,13 -9.5,6 -11.5,6 -8,0 -12.5,-8 -4.5,-8 -4.5,-16 0,-8 4,-11 16,-8 30,-13.5 14,-5.5 28,-13.5 -14,-8 -28.5,-14 -14.5,-6 -29.5,-13 -2,-1 -3.5,-5 -1.5,-4 -1.5,-9 0,-8 5.5,-15 5.5,-7 13.5,-7 2,0 10,5.5 8,5.5 17.5,12.5 9.5,7 18.5,13.5 9,6.5 14,8.5 0,-18 -4.5,-39 -4.5,-21 -4.5,-30 0,-2 6.5,-5.5 6.5,-3.5 14.5,-3.5 8,0 14,3.5 6,3.5 6,5.5 z"></path></svg>
