<?xml version="1.0" encoding="UTF-8" standalone="no"?>
<svg xmlns="http://www.w3.org/2000/svg" width="4558" height="2057"><path id="b" unicode="b" d="m 271,1580 q -7,4 -14,11 -6,6 -13,15.5 -7,9.5 -14,22.5 -17,32 -35.5,93.5 Q 176,1784 156,1859 q 9,-10 22,-18.5 13,-8.5 27,-15.5 14,-7 27.5,-11 13.5,-4 24.5,-4 27,0 50,18.5 23,18.5 23,59.5 0,31 -12,61.5 -12,30.5 -32,54.5 -20,24 -47,38.5 -27,14.5 -57,14.5 -36,0 -56,-16 -20,-16 -27,-33 -17,18 -31.5,27.5 Q 53,2045 40,2050 q -13,5 -23,6 -10,1 -17,1 v -7 q 14,-6 24,-22.5 10,-16.5 18,-41.5 8,-25 16,-57 8,-32 19,-70 21,-75 33,-123 l 18,-72 q 5,-22 17.5,-35.5 12.5,-13.5 26.5,-22.5 -3,1 -7,1 h -7 q -7,0 -12,-1 l -10,-2 q 0,0 -9,-2 l 9,-12 8,2 q 10,2 21,2 17,0 43,-4.5 26,-4.5 58,-18.5 z m -51,259 q -6,0 -16.5,4.5 -10.5,4.5 -22,13.5 -11.5,9 -22.5,22.5 -11,13.5 -17,31.5 -3,7 -6.5,18.5 -3.5,11.5 -7,23.5 -3.5,12 -6,23 -2.5,11 -2.5,16 0,24 14,32.5 14,8.5 27,8.5 16,0 30.5,-15.5 14.5,-15.5 26,-39 11.5,-23.5 18,-50 6.5,-26.5 6.5,-49.5 0,-40 -22,-40 z"></path></svg>
