<?xml version="1.0" encoding="UTF-8" standalone="no"?>
<svg xmlns="http://www.w3.org/2000/svg" width="4558" height="2057"><path id="braceleft" unicode="{" d="m 0,1781 q 0,-6 10,-6 21,0 35.5,-7.5 Q 60,1760 70,1739 q 6,-13 9.5,-33.5 3.5,-20.5 7,-44 3.5,-23.5 8.5,-47 5,-23.5 16,-43.5 10,-20 28.5,-33 18.5,-13 39.5,-20.5 21,-7.5 42.5,-10.5 21.5,-3 37.5,-3 2,0 5,0.5 3,0.5 3,3.5 0,4 -11,6 -25,5 -40.5,18 -15.5,13 -33.5,41 -20,32 -37,73.5 -17,41.5 -43,86.5 -17,29 -39.5,39.5 Q 40,1783 24,1783 q 5,2 13,5.5 8,3.5 16,10 8,6.5 14,15.5 6,9 7,22 3,39 3,81 v 32 q 0,32 9.5,58.5 9.5,26.5 47.5,40.5 6,2 6,5 0,4 -8,4 -16,0 -36,-4 -20,-4 -37.5,-13 -17.5,-9 -29.5,-24 -12,-15 -12,-38 0,-22 4,-40 4,-18 8.5,-34 4.5,-16 8.5,-33 4,-17 4,-38 0,-18 -9.5,-29 -9.5,-11 -26.5,-17 -6,-3 -6,-6 z"></path></svg>
