<?xml version="1.0" encoding="UTF-8" standalone="no"?>
<svg xmlns="http://www.w3.org/2000/svg" width="4558" height="2057"><path id="c" unicode="c" d="m 177,1812 q 29,0 49.5,14.5 20.5,14.5 20.5,35.5 0,17 -10.5,30 -10.5,13 -27.5,13 -14,0 -24,-7.5 -10,-7.5 -10,-18.5 0,-14 9,-22 9,-8 9,-18 0,-12 -10,-12 -20,0 -37,12 -17,12 -30,31 -13,19 -20,44 -7,25 -7,50 0,34 13.5,48.5 13.5,14.5 33.5,14.5 13,0 25.5,-5.5 12.5,-5.5 22.5,-13.5 11,-9 22,-20 l 7,8 q -16,18 -34,31 -16,11 -38.5,20.5 Q 118,2057 91,2057 77,2057 61,2053.5 45,2050 31.5,2041 18,2032 9,2017 q -9,-15 -9,-38 0,-39 17,-70 17,-31 43.5,-52.5 26.5,-21.5 57.5,-33 31,-11.5 59,-11.5 z"></path></svg>
