<?xml version="1.0" encoding="UTF-8" standalone="no"?>
<svg xmlns="http://www.w3.org/2000/svg" width="4558" height="2057"><path id="ccedilla" unicode="&#xE7;" d="m 112,1967 q 0,6 4.5,7 4.5,1 7.5,1 9,0 20,-2.5 11,-2.5 16,-2.5 8,0 11.5,5 3.5,5 3.5,10 0,17 -11.5,30.5 -11.5,13.5 -28.5,22.5 -17,9 -37,14 -20,5 -36,5 -4,0 -12.5,-1 -8.5,-1 -16.5,-3 -8,-2 -14.5,-6 -6.5,-4 -6.5,-9 0,-6 5.5,-13 5.5,-7 11.5,-7 4,0 6.5,3 2.5,3 7,6.5 4.5,3.5 12,6.5 7.5,3 21.5,3 10,0 21,-3 11,-3 21,-8 10,-5 16.5,-12.5 6.5,-7.5 6.5,-15.5 0,-7 -8,-7 -14,0 -25,3.5 -11,3.5 -27,3.5 -5,0 -7.5,-4 -2.5,-4 -2.5,-8 l 7,-30 Q 48,1952 24,1934.5 0,1917 0,1879 q 0,-39 17,-70 17,-31 43.5,-52.5 26.5,-21.5 57.5,-33 31,-11.5 59,-11.5 29,0 49.5,14.5 20.5,14.5 20.5,35.5 0,17 -10.5,30 -10.5,13 -27.5,13 -14,0 -24,-7.5 -10,-7.5 -10,-18.5 0,-14 9,-22 9,-8 9,-18 0,-12 -10,-12 -20,0 -37,12 -17,12 -30,31 -13,19 -20,44 -7,25 -7,50 0,34 13.5,48.5 13.5,14.5 33.5,14.5 13,0 25.5,-5.5 12.5,-5.5 22.5,-13.5 11,-9 22,-20 l 7,8 q -13,15 -28,27 -13,11 -31,20.5 -18,9.5 -39,12.5 -3,6 -3,11 z"></path></svg>
