<?xml version="1.0" encoding="UTF-8" standalone="no"?>
<svg xmlns="http://www.w3.org/2000/svg" width="4558" height="2057"><path id="degree" unicode="&#xB0;" d="m 0,1961 q 0,-22 11,-41 11,-19 29,-32 18,-13 40.5,-20.5 22.5,-7.5 45.5,-7.5 19,0 38,7 19,7 34,19.5 15,12.5 24,29.5 9,17 9,38 0,27 -10,46.5 -10,19.5 -27,32 -17,12.5 -38.5,18.5 -21.5,6 -43.5,6 -18,0 -37.5,-5.5 -19.5,-5.5 -36,-17 Q 22,2023 11,2005 0,1987 0,1961 Z m 67,0 q 0,35 15,56 15,21 38,21 24,0 36,-24 12,-24 12,-60 0,-38 -14.5,-58 -14.5,-20 -37.5,-20 -22,0 -35.5,25 -13.5,25 -13.5,60 z"></path></svg>
