<?xml version="1.0" encoding="UTF-8" standalone="no"?>
<svg xmlns="http://www.w3.org/2000/svg" width="4558" height="2057"><path id="divide" unicode="&#xF7;" d="m 126,2034 q 0,-9 3.5,-19.5 3.5,-10.5 10.5,-19.5 7,-9 15.5,-15 8.5,-6 19.5,-6 11,0 16.5,6.5 5.5,6.5 5.5,17.5 0,9 -3.5,19.5 -3.5,10.5 -10,19 -6.5,8.5 -15.5,14.5 -9,6 -20,6 -22,0 -22,-23 z m 39,-177 q 0,-8 4,-18 4,-10 10.5,-19 6.5,-9 15.5,-15 9,-6 20,-6 11,0 16,7 5,7 5,18 0,9 -3.5,19.5 -3.5,10.5 -9.5,19.5 -6,9 -15,14.5 -9,5.5 -21,5.5 -11,0 -16.5,-7.5 Q 165,1868 165,1857 Z m -155,95 q -5,0 -7.5,-4.5 Q 0,1943 0,1938 0,1927 6.5,1915 13,1903 21,1903 h 319 q 15,0 15,15 0,13 -9,23.5 -9,10.5 -16,10.5 z"></path></svg>
