<?xml version="1.0" encoding="UTF-8" standalone="no"?>
<svg xmlns="http://www.w3.org/2000/svg" width="4558" height="2057"><path id="dollar" unicode="$" d="M 128,1801 Q 103,1775 83.5,1747 64,1719 64,1691 q 0,-24 10,-44 10,-20 26.5,-36 16.5,-16 38.5,-27 22,-11 46,-16 l 4,-17 q 1,-4 5,-8 4,-4 11,-4 6,0 10,3.5 4,3.5 4,4.5 l -4,21 q 29,0 49,16.5 20,16.5 20,45.5 0,15 -12.5,24.5 -12.5,9.5 -21.5,9.5 -4,0 -9,-2 -5,-2 -5,-6 0,-5 4,-15 4,-10 4,-23 0,-17 -9,-25 -9,-8 -23,-8 l -35,149 q 12,13 25,27.5 13,14.5 23.5,31 10.5,16.5 17.5,35 7,18.5 7,39.5 0,28 -11.5,54 -11.5,26 -31.5,46.5 -20,20.5 -46.5,33.5 -26.5,13 -55.5,15 l -9,34 q -1,4 -7,5.5 -6,1.5 -14,1.5 -9,0 -9,-9 l 9,-32 q -31,-2 -53,-21 -22,-19 -22,-50 0,-14 13,-23.5 13,-9.5 27,-9.5 8,0 8,6 0,9 -4,17.5 -4,8.5 -4,22.5 0,15 11,22.5 11,7.5 28,9.5 z m -16,187 q 31,-10 46.5,-40 15.5,-30 15.5,-65 0,-17 -4.5,-30 -4.5,-13 -16.5,-29 z m 68,-397 q -18,8 -31,27.5 -13,19.5 -13,43.5 0,14 3.5,24 3.5,10 12.5,21 z"></path></svg>
