<?xml version="1.0" encoding="UTF-8" standalone="no"?>
<svg xmlns="http://www.w3.org/2000/svg" width="4558" height="2057"><path id="ecircumflex" unicode="&#xEA;" d="m 171,1739 q -5,0 -15,6 -10,6 -41,23 -23,13 -34.5,19 -11.5,6 -16.5,6 -7,0 -7,-6 0,-4 10,-10 12,-7 20.5,-13 8.5,-6 16,-12 7.5,-6 14.5,-13.5 7,-7.5 16,-17.5 14,-15 22.5,-25.5 8.5,-10.5 25.5,-10.5 18,0 22,10.5 4,10.5 11,25.5 l 8.5,17 q 0,0 7.5,13 7.5,13 9.5,12 2,-1 14.5,15 5,5 5,9 0,6 -8,6 -4,0 -16,-7 -12,-7 -26,-19 -21,-18 -27.5,-23 -6.5,-5 -11.5,-5 z M 0,1979 q 0,-36 17,-66.5 17,-30.5 42,-53 25,-22.5 54.5,-35 29.5,-12.5 53.5,-12.5 30,0 50,12 20,12 20,33 0,20 -10,36 -10,16 -25.5,27 -15.5,11 -34.5,17.5 -19,6.5 -38,6.5 -8,0 -14,-2 -6,-2 -6,-7 0,-5 5,-5 14,0 27,-8 13,-8 22.5,-20.5 9.5,-12.5 15,-28.5 5.5,-16 5.5,-32 0,-13 -11,-13 -14,0 -29,13 -15,13 -27,33.5 -12,20.5 -20,45 -8,24.5 -8,47.5 0,34 13.5,47 13.5,13 31.5,13 14,0 27,-6 13,-6 23,-14 11,-9 22,-20 l 8,8 q -15,18 -33,31 -16,12 -37,21.5 -21,9.5 -46,9.5 -17,0 -34.5,-4.5 Q 46,2048 32,2038.5 18,2029 9,2014.5 0,2000 0,1979 Z"></path></svg>
