<?xml version="1.0" encoding="UTF-8" standalone="no"?>
<svg xmlns="http://www.w3.org/2000/svg" width="4558" height="2057"><path id="Egrave" unicode="&#xC8;" d="m 454,1362 q -41,0 -74.5,15.5 -33.5,15.5 -57.5,43 -24,27.5 -37,64.5 -13,37 -13,80 0,19 2.5,31.5 2.5,12.5 6.5,20.5 4,10 10,15 8,-2 13.5,-3 5.5,-1 10.5,-1 20,0 33.5,8 13.5,8 13.5,19 0,13 -9.5,21 -9.5,8 -26.5,8 -14,0 -26,-2.5 -12,-2.5 -21,-5.5 -11,-4 -19,-8 -38,21 -68,53 -26,27 -46.5,69.5 Q 125,1833 125,1893 q 0,69 31,96.5 31,27.5 89,27.5 34,0 66,-13.5 32,-13.5 59.5,-35.5 27.5,-22 50.5,-51 23,-29 38,-61 l 12,11 q -17,33 -40.5,66.5 -23.5,33.5 -55,61 -31.5,27.5 -71.5,45 -40,17.5 -91,17.5 -36,0 -74,-8.5 -38,-8.5 -68.5,-28 Q 40,2001 20,1969.5 0,1938 0,1893 q 0,-34 10,-62.5 10,-28.5 26.5,-52 16.5,-23.5 38,-42 Q 96,1718 118,1704 q 52,-33 118,-52 -19,-11 -34,-29 -13,-15 -23.5,-37 -10.5,-22 -10.5,-53 0,-40 25.5,-75.5 25.5,-35.5 64.5,-62 39,-26.5 86.5,-41.5 47.5,-15 91.5,-15 56,0 93.5,27 37.5,27 37.5,74 0,32 -13,57.5 -13,25.5 -38,25.5 -11,0 -21,-9 -10,-9 -10,-22 0,-15 7.5,-22.5 7.5,-7.5 17,-14.5 9.5,-7 17,-15 7.5,-8 7.5,-24 0,-22 -22.5,-38 -22.5,-16 -57.5,-16 z m -80,-176 q 8,0 15,11 8,12 19.5,27.5 11.5,15.5 25.5,30.5 14,15 28.5,27 14.5,12 28.5,16 6,1 6,8 0,9 -10,9 -10,0 -24.5,-3.5 -14.5,-3.5 -30,-10 -15.5,-6.5 -31.5,-16 -16,-9.5 -30,-21.5 -23,-20 -23,-38 0,-12 9,-26 9,-14 17,-14 z"></path></svg>
