<?xml version="1.0" encoding="UTF-8" standalone="no"?>
<svg xmlns="http://www.w3.org/2000/svg" width="4558" height="2057"><path id="Eogonek" unicode="&#x118;" d="m 454,1217 q -41,0 -74.5,15.5 -33.5,15.5 -57.5,43 -24,27.5 -37,64.5 -13,37 -13,80 0,19 2.5,31.5 2.5,12.5 6.5,20.5 4,10 10,15 8,-2 13.5,-3 5.5,-1 10.5,-1 20,0 33.5,8 13.5,8 13.5,19 0,13 -9.5,21 -9.5,8 -26.5,8 -14,0 -26,-2.5 -12,-2.5 -21,-5.5 -11,-4 -19,-8 -38,21 -68,53 -26,27 -46.5,69.5 Q 125,1688 125,1748 q 0,69 31,96.5 31,27.5 89,27.5 34,0 66,-13.5 32,-13.5 59.5,-35.5 27.5,-22 50.5,-51 23,-29 38,-61 l 12,11 q -17,33 -40.5,66.5 -23.5,33.5 -55,61 -31.5,27.5 -72.5,45 -41,17.5 -92,17.5 -13,10 -23,21 -9,9 -16,20 -7,11 -7,22 0,9 5,15.5 5,6.5 12.5,10 7.5,3.5 15,5.5 7.5,2 13.5,2 8,0 8,7 0,5 -3,12 -3,7 -8,13.5 -5,6.5 -12,11.5 -7,5 -14,5 -8,0 -20,-5.5 -12,-5.5 -23,-14.5 -11,-9 -18.5,-22 -7.5,-13 -7.5,-28 0,-11 6.5,-21.5 6.5,-10.5 17,-20.5 10.5,-10 22.5,-19 12,-9 23,-16 -33,-3 -66,-13.5 Q 83,1886 57.5,1866.5 32,1847 16,1818 0,1789 0,1748 q 0,-34 10,-62.5 10,-28.5 26.5,-52 16.5,-23.5 38,-42 Q 96,1573 118,1559 q 52,-33 118,-52 -19,-11 -34,-29 -13,-15 -23.5,-37 -10.5,-22 -10.5,-53 0,-40 25.5,-75.5 25.5,-35.5 64.5,-62 39,-26.5 86.5,-41.5 47.5,-15 91.5,-15 56,0 93.5,27 37.5,27 37.5,74 0,32 -13,57.5 -13,25.5 -38,25.5 -11,0 -21,-9 -10,-9 -10,-22 0,-15 7.5,-22.5 7.5,-7.5 17,-14.5 9.5,-7 17,-15 7.5,-8 7.5,-24 0,-22 -22.5,-38 -22.5,-16 -57.5,-16 z"></path></svg>
