<?xml version="1.0" encoding="UTF-8" standalone="no"?>
<svg xmlns="http://www.w3.org/2000/svg" width="4558" height="2057"><path id="f" unicode="f" d="m 128,1703 h 17 q 3,-13 7,-28 3,-13 7.5,-28.5 4.5,-15.5 9.5,-32.5 9,-30 25,-51 16,-21 34.5,-34 18.5,-13 37.5,-19 19,-6 35,-6 31,0 48,16 17,16 17,34 0,17 -10,31 -10,14 -31,14 -15,0 -23.5,-7.5 -8.5,-7.5 -8.5,-18.5 0,-16 9.5,-24.5 9.5,-8.5 9.5,-17.5 0,-12 -9,-12 -22,0 -34.5,26 -12.5,26 -24.5,76 -3,11 -6,25 -3,14 -5,27 l -6,30 h 68 l -10,17 h -62 q -14,72 -28.5,136.5 Q 180,1921 156,1967 q -14,25 -33.5,42.5 -19.5,17.5 -41.5,28 -22,10.5 -43.5,15 Q 16,2057 0,2057 l 1,-9 q 27,-9 49,-47 22,-38 39.5,-87.5 Q 107,1864 120,1811 q 13,-53 21,-91 h -22 z"></path></svg>
