<?xml version="1.0" encoding="UTF-8" standalone="no"?>
<svg xmlns="http://www.w3.org/2000/svg" width="4558" height="2057"><path id="F" unicode="F" d="m 507,1435 q -38,-17 -79,-32 -41,-15 -96,-15 -45,0 -91.5,19 -46.5,19 -84,53.5 -37.5,34.5 -61,82.5 -23.5,48 -23.5,106 0,26 5,49 5,23 16,40 11,17 30,27 19,10 47,10 41,0 65,-24.5 24,-24.5 24,-52.5 0,-9 -3,-14.5 -3,-5.5 -6.5,-10.5 -3.5,-5 -6.5,-10 -3,-5 -3,-12 0,-13 8.5,-22.5 8.5,-9.5 23.5,-9.5 16,0 25,11.5 9,11.5 9,29.5 0,27 -11.5,51.5 -11.5,24.5 -31,43 -19.5,18.5 -45.5,29 -26,10.5 -54,10.5 -33,0 -62.5,-10 Q 72,1774 49.5,1754.5 27,1735 13.5,1707 0,1679 0,1644 0,1578 30,1526.5 60,1475 108.5,1440 157,1405 218,1386.5 279,1368 341,1368 q 59,0 99,5.5 40,5.5 76,11.5 36,6 75,11.5 39,5.5 96,5.5 35,0 57.5,-7.5 22.5,-7.5 45.5,-21.5 7,-4 11,-4 6,0 6,5 0,6 -6,13 -6,9 -18.5,26 -12.5,17 -29,34 -16.5,17 -36.5,29.5 -20,12.5 -40,12.5 -39,0 -74,-12.5 -35,-12.5 -65,-26.5 -33,44 -49,101 -16,57 -27,125 23,7 44,13 21,6 44,6 17,0 30.5,-4.5 13.5,-4.5 24.5,-10.5 12,-6 23,-15 l 9,9 q -35,41 -61.5,63.5 -26.5,22.5 -55.5,22.5 -23,0 -36.5,-8.5 Q 470,1743 453,1732 q -9,56 -23,109 -14,53 -40,96 -19,32 -43.5,54.5 -24.5,22.5 -51,37 -26.5,14.5 -54,21.5 -27.5,7 -52.5,7 -30,0 -50.5,-6.5 -20.5,-6.5 -33,-15.5 -12.5,-9 -18,-19 -5.5,-10 -5.5,-17 0,-7 4,-12.5 4,-5.5 12,-5.5 8,0 11.5,5 3.5,5 3.5,10 0,11 12,24 12,13 41,13 44,0 70,-30.5 26,-30.5 55,-92.5 20,-42 37,-93.5 17,-51.5 35,-108.5 -13,0 -24,2 -11,2 -23,8 l -4,-7 q 6,-7 16,-13 8,-5 19,-11 11,-6 25,-10 24,-72 55.5,-136.5 Q 459,1476 507,1435 Z"></path></svg>
