<?xml version="1.0" encoding="UTF-8" standalone="no"?>
<svg xmlns="http://www.w3.org/2000/svg" width="4558" height="2057"><path id="k" unicode="k" d="m 225,1623 q -9,16 -20.5,51 -11.5,35 -23.5,76.5 -12,41.5 -23.5,83 -11.5,41.5 -19.5,70.5 19,-21 37.5,-39.5 18.5,-18.5 35.5,-32.5 17,-14 31.5,-22 14.5,-8 26.5,-8 19,0 28.5,11.5 9.5,11.5 9.5,25.5 0,15 -9,30 -9,15 -31,15 -14,0 -21.5,-8 -7.5,-8 -7.5,-20 0,-9 -5,-9 -5,0 -13,4.5 -8,4.5 -16.5,11.5 -8.5,7 -16.5,14 -8,7 -12,13 7,16 15,34 7,15 16,33.5 9,18.5 19,35.5 9,17 21.5,30.5 12.5,13.5 33.5,18.5 l 1,9 h -57 q -23,0 -43,-8 -20,-8 -28,-25 l -31,-68 q -9,31 -14.5,56 -5.5,25 -5.5,32 0,15 -14,15 -8,0 -21,-2 -13,-2 -26,-2 -14,0 -24,4 -10,4 -13,4 -4,0 -4,-4 0,-3 6,-9 6,-6 12,-18 12,-21 20,-50 8,-29 20,-74 10,-37 20.5,-76.5 10.5,-39.5 19.5,-74 9,-34.5 15.5,-59.5 6.5,-25 9.5,-34 7,-22 18.5,-35.5 11.5,-13.5 25.5,-22.5 -3,1 -7,1 h -7 q -7,0 -12,-1 l -10,-2 q 0,0 -9,-2 l 9,-12 8,2 q 10,2 21,2 17,0 43,-4.5 26,-4.5 58,-18.5 l 5,9 q -6,4 -13,11 -6,6 -13.5,15.5 -7.5,9.5 -14.5,22.5 z"></path></svg>
