<?xml version="1.0" encoding="UTF-8" standalone="no"?>
<svg xmlns="http://www.w3.org/2000/svg" width="4558" height="2057"><path id="K" unicode="K" d="m 816,2028 q -11,8 -36.5,18.5 -25.5,10.5 -63.5,10.5 -35,0 -67,-8.5 -32,-8.5 -58,-35.5 -26,-27 -45.5,-76 Q 526,1888 516,1807 512,1775 504,1752.5 496,1730 486.5,1714 477,1698 467,1688.5 457,1679 448,1673 l -8,3 q -8,27 -16,55.5 -8,28.5 -17.5,56.5 -9.5,28 -19.5,53 -10,25 -22,46 -18,32 -42.5,54.5 -24.5,22.5 -52,37 -27.5,14.5 -56.5,21.5 -29,7 -56,7 -30,0 -50.5,-6.5 Q 87,1994 74.5,1985 62,1976 57,1966 q -5,-10 -5,-17 0,-18 16,-18 8,0 11.5,4.5 3.5,4.5 3.5,10.5 0,4 2.5,10.5 2.5,6.5 8.5,12.5 6,6 16.5,10.5 10.5,4.5 25.5,4.5 38,0 66,-31 28,-31 57,-93 24,-50 48,-121.5 24,-71.5 52.5,-144.5 28.5,-73 64,-138 35.5,-65 81.5,-103 -14,-2 -29,-5 -13,-2 -28,-4 -15,-2 -29,-2 -69,0 -131.5,17.5 -62.5,17.5 -110.5,53 -48,35.5 -76.5,88.5 -28.5,53 -28.5,124 0,52 22,84 22,32 76,32 40,0 63,-23.5 23,-23.5 23,-50.5 0,-9 -3,-14.5 -3,-5.5 -6.5,-10 -3.5,-4.5 -6.5,-10 -3,-5.5 -3,-13.5 0,-14 8.5,-23 8.5,-9 23.5,-9 17,0 25,11.5 8,11.5 8,29.5 0,27 -10.5,51 -10.5,24 -29.5,42 -19,18 -44,28.5 -25,10.5 -54,10.5 -32,0 -62,-8.5 -30,-8.5 -52.5,-26 Q 27,1708 13.5,1681.5 0,1655 0,1619 q 0,-75 36.5,-130.5 36.5,-55.5 94,-92 57.5,-36.5 128.5,-55 71,-18.5 139,-18.5 27,0 46,1 19,1 33.5,2.5 14.5,1.5 25.5,2.5 11,1 22,1 18,0 37,-3 19,-3 35,-11 l 5,10 q -8,7 -16,15 -7,7 -15,16 -8,9 -15,20 -36,56 -60.5,122.5 Q 471,1566 447,1648 q 49,-26 85.5,-54 36.5,-28 66,-57.5 29.5,-29.5 54.5,-60.5 25,-31 50,-64 33,-43 68.5,-69.5 35.5,-26.5 71.5,-26.5 23,0 37.5,9.5 14.5,9.5 14.5,23.5 0,15 -11.5,25.5 -11.5,10.5 -24.5,10.5 -9,0 -14.5,-3.5 -5.5,-3.5 -9.5,-7.5 -4,-4 -9,-7.5 -5,-3.5 -13,-3.5 -22,0 -46,19.5 -24,19.5 -44,44.5 -27,33 -54.5,65 -27.5,32 -55.5,60.5 -28,28.5 -57.5,52.5 -29.5,24 -60.5,40 10,2 24,11.5 14,9.5 29.5,27 15.5,17.5 30,44 14.5,26.5 26.5,63.5 23,73 41,119.5 18,46.5 36,73 18,26.5 37.5,36.5 19.5,10 45.5,10 16,0 27,-3.5 11,-3.5 18,-7.5 z"></path></svg>
