<?xml version="1.0" encoding="UTF-8" standalone="no"?>
<svg xmlns="http://www.w3.org/2000/svg" width="4558" height="2057"><path id="lslash" unicode="&#x142;" d="m 113,1664 q 5,-22 17.5,-35.5 12.5,-13.5 26.5,-22.5 -3,1 -7,1 h -7 q -7,0 -12,-1 l -10,-2 q 0,0 -9,-2 l 9,-12 8,2 q 10,2 21,2 17,0 43,-4.5 26,-4.5 58,-18.5 l 5,9 q -7,4 -14,11 -6,6 -13.5,15.5 -7.5,9.5 -13.5,22.5 -7,12 -16.5,36.5 -9.5,24.5 -20,56.5 -10.5,32 -20.5,68 -10,36 -19,71 l 11,-2 q 17,-2 26.5,-5.5 9.5,-3.5 12.5,-3.5 6,0 6,6 0,14 -17.5,31 -17.5,17 -49.5,21 -11,52 -11,78 0,19 5.5,25 5.5,6 13.5,6 9,0 18,-4.5 9,-4.5 17,-10.5 9,-6 17,-15 l 8,8 q -16,18 -34,31 -15,12 -33,21.5 -18,9.5 -35,9.5 -27,0 -44.5,-17.5 Q 32,2022 32,1996 q 0,-25 12,-75 h -4 q -18,2 -24.5,5.5 Q 9,1930 5,1930 q -5,0 -5,-6 0,-12 14.5,-27 14.5,-15 40.5,-22 11,-44 26,-97 15,-53 32,-114 z"></path></svg>
