<?xml version="1.0" encoding="UTF-8" standalone="no"?>
<svg xmlns="http://www.w3.org/2000/svg" width="4558" height="2057"><path id="mu" unicode="&#xB5;" d="m 303,1762 q -28,31 -54.5,52.5 -26.5,21.5 -52.5,21.5 -16,0 -25,-7 -4,-3 -8,-7 -8,21 -18,53.5 -10,32.5 -19,65.5 -9,33 -15.5,60 -6.5,27 -6.5,37 0,8 -2.5,11 -2.5,3 -12.5,3 -10,0 -23.5,-1.5 Q 52,2049 39,2049 q -15,0 -23,4 -8,4 -11,4 -5,0 -5,-6 0,-3 7.5,-8 7.5,-5 12.5,-16 3,-6 9,-22 6,-16 13,-37 7,-21 14.5,-46 7.5,-25 15.5,-50 11,-38 22.5,-77 11.5,-39 21,-71.5 9.5,-32.5 15.5,-54.5 6,-22 6,-27 0,-5 -1.5,-8.5 -1.5,-3.5 -7.5,-3.5 -3,0 -9,4.5 -6,4.5 -13,9.5 -8,6 -16,13 l -7,-11 q 6,-5 17.5,-14.5 11.5,-9.5 25,-19 13.5,-9.5 28,-16.5 14.5,-7 26.5,-7 20,0 31.5,9.5 11.5,9.5 11.5,24.5 0,11 -5,30.5 -5,19.5 -10.5,41.5 l -10.5,42 q 0,0 -5,30 0,28 21,28 17,0 39,-11.5 22,-11.5 49,-43.5 6,-7 11,-19.5 5,-12.5 9,-26.5 4,-14 8,-27.5 4,-13.5 9,-22.5 9,-21 28,-33.5 19,-12.5 40,-15.5 15,-2 25,-4.5 10,-2.5 16,-5.5 7,-4 11,-7 l 7,11 q -7,5 -14,11 -6,5 -13.5,13.5 -7.5,8.5 -12.5,19.5 -7,14 -14.5,34.5 -7.5,20.5 -13.5,41.5 -6,21 -9.5,41 -3.5,20 -3.5,33 0,11 8,11 7,0 14.5,-4.5 7.5,-4.5 15.5,-10.5 8,-6 17,-15 l 7,8 q -16,18 -32,31 -14,12 -29.5,21.5 -15.5,9.5 -28.5,9.5 -26,0 -42,-11.5 -16,-11.5 -16,-32.5 0,-10 2,-20 1,-4 3,-8 z"></path></svg>
