<?xml version="1.0" encoding="UTF-8" standalone="no"?>
<svg xmlns="http://www.w3.org/2000/svg" width="4558" height="2057"><path id="notequal" unicode="&#x2260;" d="m 330,1833 q 5,0 7.5,4 2.5,4 2.5,15 0,22 -12,22 H 181 L 56,2050 q -5,7 -12,7 -8,0 -19.5,-8 -11.5,-8 -11.5,-22 0,-4 1,-9 L 119,1874 H 10 q -6,0 -8,-6 -2,-6 -2,-13 0,-8 3,-15 3,-7 11,-7 h 135 q 17,-25 34,-49.5 17,-24.5 34,-47.5 H 108 q -5,0 -7.5,-8 -2.5,-8 -2.5,-19 0,-9 6,-14 6,-5 13,-5 h 131 q 27,-39 54,-74.5 27,-35.5 45,-60.5 2,-2 6,-5.5 4,-3.5 9,-3.5 8,0 17.5,8 9.5,8 9.5,15 0,5 -5,15 -8,11 -18,24.5 -10,13.5 -20.5,28.5 -10.5,15 -20.5,29 -10,14 -18,24 h 120 q 5,0 8.5,4 3.5,4 3.5,15 0,5 -4,16 -4,11 -9,11 H 277 l -65,97 z"></path></svg>
