<?xml version="1.0" encoding="UTF-8" standalone="no"?>
<svg xmlns="http://www.w3.org/2000/svg" width="4558" height="2057"><path id="numbersign" unicode="#" d="m 317,1618 q 2,-5 7.5,-7 5.5,-2 11.5,-2 10,0 19.5,7 9.5,7 9.5,8 l -40,97 h 76 q 8,0 8,11 0,9 -6,21.5 -6,12.5 -16,12.5 h -77 l -53,132 h 73 q 6,0 6,7 0,3 -1.5,9 -1.5,6 -4.5,12 -3,6 -7,10.5 -4,4.5 -9,4.5 h -74 l -42,106 q -2,5 -7.5,7.5 -5.5,2.5 -13.5,2.5 -8,0 -18.5,-5 -10.5,-5 -10.5,-11 l 40,-100 h -68 l -43,106 q -5,10 -21,10 -8,0 -17.5,-5 -9.5,-5 -9.5,-11 L 70,1941 H 8 q -5,0 -6.5,-4 -1.5,-4 -1.5,-6 0,-11 6,-23 6,-12 15,-12 h 66 l 52,-128 H 61 q -2,0 -3,-4.5 -1,-4.5 -1,-6.5 0,-9 4,-22.5 4,-13.5 15,-13.5 h 82 l 40,-103 q 4,-9 19,-9 11,0 20,7 9,7 9,8 l -37,97 h 67 z m -110,278 52,-128 h -69 l -51,128 z"></path></svg>
