<?xml version="1.0" encoding="UTF-8" standalone="no"?>
<svg xmlns="http://www.w3.org/2000/svg" width="4558" height="2057"><path id="oe" unicode="&#x153;" d="m 156,1808 q 33,0 55.5,10.5 22.5,10.5 35.5,27.5 22,-17 46,-26.5 24,-9.5 48,-9.5 30,0 50,12 20,12 20,33 0,20 -10,36 -10,16 -26.5,27 -16.5,11 -38,17.5 -21.5,6.5 -43.5,6.5 -8,0 -14,-2 -6,-2 -6,-7 0,-5 5,-5 14,0 28.5,-8 14.5,-8 26,-20.5 11.5,-12.5 18.5,-28.5 7,-16 7,-32 0,-13 -11,-13 -14,0 -29,13 -15,13 -27,33.5 -12,20.5 -20,45 -8,24.5 -8,47.5 0,34 13.5,47 13.5,13 31.5,13 14,0 27,-6 13,-6 23,-14 11,-9 22,-20 l 8,8 q -15,18 -33,31 -16,12 -37,21.5 -21,9.5 -46,9.5 -21,0 -41.5,-6 -20.5,-6 -35.5,-20 -40,28 -86,28 -46,0 -77.5,-21.5 Q 0,2014 0,1969 0,1937 12.5,1908 25,1879 46,1856.5 67,1834 95.5,1821 124,1808 156,1808 Z m 0,16 q -18,0 -32,13.5 -14,13.5 -24,36.5 -10,23 -15.5,53 -5.5,30 -5.5,63 0,23 8,36 8,13 23,13 16,0 30,-15 14,-15 25,-39.5 11,-24.5 17.5,-55 6.5,-30.5 6.5,-61.5 0,-44 -33,-44 z"></path></svg>
