<?xml version="1.0" encoding="UTF-8" standalone="no"?>
<svg xmlns="http://www.w3.org/2000/svg" width="4558" height="2057"><path id="ogonek" unicode="&#x2DB;" d="m 101,1895 q 7,0 7,6 0,3 -3.5,6 -3.5,3 -8.5,7 -14,11 -29,29 -15,18 -15,32 0,9 5,15.5 5,6.5 12.5,10 7.5,3.5 15,5.5 7.5,2 13.5,2 8,0 8,7 0,5 -3,12 -3,7 -8,13.5 -5,6.5 -12,11.5 -7,5 -14,5 -8,0 -20,-5.5 Q 37,2046 26,2037 15,2028 7.5,2015 0,2002 0,1987 q 0,-12 8,-23.5 8,-11.5 19.5,-22 Q 39,1931 52,1922 q 13,-9 24,-16 17,-11 25,-11 z"></path></svg>
