<?xml version="1.0" encoding="UTF-8" standalone="no"?>
<svg xmlns="http://www.w3.org/2000/svg" width="4558" height="2057"><path id="Omega" unicode="&#x2126;" d="m 480,2052 q -26,0 -55,-8.5 -29,-8.5 -62,-8.5 -21,0 -37.5,8.5 -16.5,8.5 -27.5,8.5 -10,0 -10,-9 0,-10 13,-31 13,-21 33,-52 20,-31 43,-71.5 23,-40.5 43,-90 20,-49.5 33,-107 13,-57.5 13,-123.5 0,-24 -5.5,-45 -5.5,-21 -16,-37.5 -10.5,-16.5 -27.5,-26 -17,-9.5 -39,-9.5 -35,0 -64,21 -29,21 -50,56 -21,35 -32.5,80 -11.5,45 -11.5,93 0,63 6.5,108.5 6.5,45.5 15,77.5 8.5,32 15,52 6.5,20 6.5,30 0,6 -7,20 -7,14 -17.5,28.5 -10.5,14.5 -24,25 -13.5,10.5 -26.5,10.5 -26,0 -51,-5.5 -25,-5.5 -65,-5.5 -21,0 -38,8 -17,8 -24,8 -10,0 -10,-9 0,-11 11.5,-25.5 11.5,-14.5 28,-27 16.5,-12.5 35,-21.5 18.5,-9 32.5,-9 30,0 57,7.5 27,7.5 49,7.5 -9,-25 -24,-51.5 -15,-26.5 -30,-58 -15,-31.5 -26,-71 -11,-39.5 -11,-89.5 0,-61 21,-112 21,-51 56,-87.5 35,-36.5 81,-56.5 46,-20 97,-20 89,0 135.5,43.5 46.5,43.5 46.5,124.5 0,62 -25.5,118.5 -25.5,56.5 -60.5,105 -35,48.5 -71,89.5 -36,41 -57,71 14,-6 29,-8 15,-2 31,-2 30,0 59,4.5 29,4.5 48,4.5 26,0 35,-5.5 9,-5.5 14,-5.5 8,0 8,7 0,6 -7.5,18 -7.5,12 -20,24 -12.5,12 -28.5,20.5 -16,8.5 -33,8.5 z"></path></svg>
