<?xml version="1.0" encoding="UTF-8" standalone="no"?>
<svg xmlns="http://www.w3.org/2000/svg" width="4558" height="2057"><path id="onequarter" unicode="&#xBC;" d="m 46,2051 q -4,6 -12,6 -12,0 -23,-0.5 -11,-0.5 -11,-3.5 0,-2 1,-4 1,-2 2,-5 l 245,-510 q 2,-5 5.5,-6 3.5,-1 6.5,-1 11,0 22.5,0.5 11.5,0.5 11.5,3.5 0,7 -3,11 z m 351,-158 q -8,33 -14,61 -5,24 -9.5,46 -4.5,22 -4.5,29 0,5 -1.5,7.5 -1.5,2.5 -9.5,2.5 -5,0 -14,-2 -9,-2 -17.5,-5.5 -8.5,-3.5 -15,-7.5 -6.5,-4 -6.5,-8 0,-6 1,-13.5 1,-7.5 4,-18.5 2,-9 5.5,-22 3.5,-13 6.5,-25 4,-14 8,-30 -20,-1 -37,-4 -17,-3 -32.5,-7 -15.5,-4 -30.5,-7 -15,-3 -31,-3 -14,0 -19.5,3.5 -5.5,3.5 -8.5,3.5 -4,0 -12.5,-10 -8.5,-10 -8.5,-15 0,-6 13,-16 13,-10 33,-27 38,-32 58,-73 20,-41 20,-85 0,-11 11,-11 4,0 10.5,4 6.5,4 12.5,9 6,5 10.5,11 4.5,6 4.5,10 0,17 -11,35 -11,18 -27.5,36.5 -16.5,18.5 -36.5,36.5 -20,18 -39,34 22,0 38,3 16,3 31,7 15,4 29.5,7 14.5,3 33.5,3 10,-42 17.5,-72 7.5,-30 12.5,-51 5,-21 8.5,-34.5 3.5,-13.5 5.5,-22.5 2,-9 4.5,-12 2.5,-3 11.5,-3 5,0 12.5,3 7.5,3 14.5,6.5 7,3.5 12,8 5,4.5 5,7.5 0,3 -1,6.5 -1,3.5 -2,8.5 -6,23 -12.5,49.5 Q 423,1773 418,1797 l -12,56 q 2,0 4,-1 2,-1 3.5,-2 1.5,-1 3.5,-3 5,-4 8,-6.5 3,-2.5 5,-2.5 4,0 4,3 0,7 -7,18 -5,8 -13.5,18.5 Q 405,1888 397,1893 Z M 92,1489 q 1,-2 2,-6.5 1,-4.5 1,-8.5 0,-7 -8,-7 -10,0 -18,2 -4,1 -7,1 v -13 q 18,-3 35.5,-12.5 17.5,-9.5 38.5,-30.5 5,-5 7.5,-6 2.5,-1 5.5,-1 3,0 7,3.5 4,3.5 8.5,8 4.5,4.5 7.5,9 3,4.5 3,6.5 0,3 -1.5,8 -1.5,5 -3.5,12 -12,41 -23.5,84 -11.5,43 -22.5,84.5 -11,41.5 -21,80 -10,38.5 -17,69.5 -1,4 -10,7 -9,3 -20,4.5 -11,1.5 -22,2 -11,0.5 -15,0.5 -5,0 -5,-5 0,-2 1,-5.5 1,-3.5 3,-8.5 1,-3 6,-20.5 5,-17.5 12,-43.5 7,-26 15.5,-57 8.5,-31 16,-61 7.5,-30 14,-55.5 Q 88,1504 92,1489 Z"></path></svg>
