<?xml version="1.0" encoding="UTF-8" standalone="no"?>
<svg xmlns="http://www.w3.org/2000/svg" width="4558" height="2057"><path id="ordmasculine" unicode="&#xBA;" d="m 158,1824 q -15,0 -29,13.5 -14,13.5 -25.5,36.5 -11.5,23 -18,53 -6.5,30 -6.5,63 0,23 7.5,36 7.5,13 22.5,13 15,0 29.5,-15 14.5,-15 25.5,-39.5 11,-24.5 18,-55 7,-30.5 7,-61.5 0,-44 -31,-44 z m -2,-16 q 49,0 80,23.5 31,23.5 31,65.5 0,34 -14,63 -14,29 -36.5,50.5 -22.5,21.5 -50.5,34 -28,12.5 -57,12.5 -46,0 -77.5,-21.5 Q 0,2014 0,1969 0,1937 12.5,1908 25,1879 46,1856.5 67,1834 95.5,1821 124,1808 156,1808 Z"></path></svg>
