<?xml version="1.0" encoding="UTF-8" standalone="no"?>
<svg xmlns="http://www.w3.org/2000/svg" width="4558" height="2057"><path id="oslash" unicode="&#xF8;" d="m 172,1772 q 2,-5 5.5,-6 3.5,-1 6.5,-1 11,0 21.5,0.5 10.5,0.5 10.5,3.5 0,7 -3,11 l -8,19 q 27,10 44.5,33 17.5,23 17.5,49 0,34 -14.5,63.5 -14.5,29.5 -37,51 -22.5,21.5 -51,34 Q 136,2042 109,2042 h -9 l -3,9 q -2,4 -7,5 -5,1 -9,1 -12,0 -20,-0.5 -8,-0.5 -8,-3.5 0,-2 1,-4 1,-2 2,-5 l 4,-9 Q 34,2026 17,2005.5 0,1985 0,1953 q 0,-32 13,-61 13,-29 35.5,-51.5 22.5,-22.5 52.5,-36 30,-13.5 63,-13.5 z m 22,80 q 0,-16 -3,-22 l -81,194 q 15,0 30,-15.5 15,-15.5 27,-40 12,-24.5 19.5,-55 7.5,-30.5 7.5,-61.5 z m -36,-45 q -17,1 -31.5,14.5 -14.5,13.5 -25.5,35 -11,21.5 -17.5,49.5 -6.5,28 -6.5,57 0,16 3,26 z"></path></svg>
