<?xml version="1.0" encoding="UTF-8" standalone="no"?>
<svg xmlns="http://www.w3.org/2000/svg" width="4558" height="2057"><path id="Oslash" unicode="&#xD8;" d="m 0,1822 q 0,-54 16,-110.5 16,-56.5 44,-109.5 28,-53 66,-100 38,-47 83,-82 45,-35 95,-55.5 50,-20.5 101,-20.5 30,0 60,11 l 13,-27 q 2,-5 6,-6.5 4,-1.5 8,-1.5 12,0 24.5,0.5 12.5,0.5 12.5,3.5 0,5 -4,13 l -19,39 q 29,23 48,60 19,37 19,90 0,64 -15.5,125.5 -15.5,61.5 -42.5,116 -27,54.5 -64,100.5 -37,46 -79,79.5 -42,33.5 -88,53 -46,19.5 -91,20.5 l -14,30 q -5,6 -14,6 -14,0 -25.5,-0.5 -11.5,-0.5 -11.5,-3.5 0,-2 4,-10 l 12,-27 Q 78,2002 39,1951.5 0,1901 0,1822 Z m 216,-345 q 0,-7 1,-14 1,-7 3,-12 l 4,-12 q -112,143 -112,373 0,61 10.5,103 10.5,42 40.5,62 l 275,-567 q -24,-32 -76,-32 -23,0 -45,7 -22,7 -39,20 -17,13 -28,30 -11,17 -11,38 0,25 10.5,39 10.5,14 27.5,14 8,0 13.5,-3 5.5,-3 10.5,-6.5 5,-3.5 10.5,-6.5 5.5,-3 12.5,-3 31,0 31,29 0,15 -12,25.5 -12,10.5 -34,10.5 -18,0 -34.5,-6.5 Q 258,1559 245,1547 q -13,-12 -21,-29.5 -8,-17.5 -8,-40.5 z m 251,59 q 0,-20 -1.5,-37 -1.5,-17 -3.5,-31 l -255,524 q 5,1 15,1 43,0 86.5,-40.5 43.5,-40.5 79,-106 35.5,-65.5 57.5,-147 22,-81.5 22,-163.5 z"></path></svg>
