<?xml version="1.0" encoding="UTF-8" standalone="no"?>
<svg xmlns="http://www.w3.org/2000/svg" width="4558" height="2057"><path id="partialdiff" unicode="&#x2202;" d="m 199,1696 q 60,0 90.5,36.5 30.5,36.5 31.5,100.5 8,-31 14,-56.5 6,-25.5 10,-50 4,-24.5 6,-51.5 2,-27 2,-62 0,-72 -21.5,-116.5 Q 310,1452 260,1452 q -39,0 -61.5,21 -22.5,21 -22.5,42 0,5 0.5,8 0.5,3 1.5,6 1,3 1.5,7 0.5,4 0.5,11 0,11 -8.5,20 -8.5,9 -20.5,9 -11,0 -16,-9 -5,-9 -5,-20 0,-25 12,-46 12,-21 31,-35 19,-14 42,-22 23,-8 45,-8 43,0 77,15.5 34,15.5 57,43.5 23,28 35,66.5 12,38.5 12,84.5 0,42 -7.5,89 -7.5,47 -23.5,92.5 -16,45.5 -39.5,87 -23.5,41.5 -56,73.5 -32.5,32 -73,50.5 Q 201,2057 151,2057 119,2057 91.5,2047 64,2037 44,2018.5 24,2000 12,1974 0,1948 0,1915 q 0,-46 17.5,-86.5 17.5,-40.5 46,-69.5 28.5,-29 64,-46 35.5,-17 71.5,-17 z m -35,344 q 27,0 52,-20 25,-20 44,-50.5 19,-30.5 30.5,-66.5 11.5,-36 11.5,-68 0,-54 -24,-86 -24,-32 -64,-32 -33,0 -56.5,21 -23.5,21 -38.5,53 -15,32 -22,69 -7,37 -7,68 0,20 3.5,40 3.5,20 12,36 8.5,16 23,26 14.5,10 35.5,10 z"></path></svg>
