<?xml version="1.0" encoding="UTF-8" standalone="no"?>
<svg xmlns="http://www.w3.org/2000/svg" width="4558" height="2057"><path id="path223" d="m 997,1279 q -27,0 -52,-13 -25,-13 -52.5,-28.5 -27.5,-15.5 -59,-28.5 -31.5,-13 -71.5,-13 -40,0 -77,11.5 -37,11.5 -64,34.5 48,18 72,49 24,31 24,68 0,39 -23.5,64.5 -23.5,25.5 -57.5,25.5 -17,0 -34,-6 -17,-6 -30.5,-18 -13.5,-12 -22,-29.5 -8.5,-17.5 -8.5,-41.5 0,-61 35,-105 -20,-4 -41.5,-6 -21.5,-2 -47.5,-2 -68,0 -139,30 -71,30 -128.5,86.5 -57.5,56.5 -94,138.5 -36.5,82 -36.5,185 0,78 25,141 25,63 69,107.5 44,44.5 105,68 61,23.5 132,23.5 65,0 125.5,-21.5 60.5,-21.5 107.5,-61 47,-39.5 75.5,-95 Q 757,1788 757,1719 q 0,-50 -15,-87 -15,-37 -40.5,-62 -25.5,-25 -58.5,-37 -33,-12 -70,-12 -32,0 -60,10.5 -28,10.5 -49,29 -21,18.5 -33,44 -12,25.5 -12,55.5 0,30 7.5,50.5 7.5,20.5 20,33 12.5,12.5 28,17.5 15.5,5 31.5,5 23,0 38.5,-15 15.5,-15 15.5,-29 0,-9 -5.5,-12 -5.5,-3 -5.5,-11 0,-7 4.5,-12 4.5,-5 12.5,-5 8,0 12.5,6.5 4.5,6.5 4.5,15.5 0,28 -23.5,51 -23.5,23 -63.5,23 -16,0 -37,-5 -21,-5 -40,-18 -19,-13 -32,-35 -13,-22 -13,-57 0,-34 17,-63 17,-29 44.5,-50 27.5,-21 63.5,-33 36,-12 74,-12 41,0 78,12.5 37,12.5 65.5,39 28.5,26.5 45.5,66 17,39.5 17,93.5 0,75 -29.5,137.5 -29.5,62.5 -80,108 Q 619,2007 551,2032 q -68,25 -144,25 -75,0 -148,-25 -73,-25 -130.5,-73 Q 71,1911 35.5,1840 0,1769 0,1677 0,1604 22,1541.5 44,1479 81.5,1428.5 119,1378 168,1339 q 49,-39 103,-65 54,-26 109.5,-39.5 Q 436,1221 487,1221 q 29,0 55,3.5 26,3.5 48,8.5 35,-38 90,-58.5 55,-20.5 121,-20.5 41,0 71,6.5 30,6.5 54,14 24,7.5 45.5,14 21.5,6.5 45.5,6.5 35,0 56,-6 21,-6 44,-20 5,-2 7.5,-4 2.5,-2 4.5,-2 8,0 8,6 0,6 -6,13 -6,8 -15.5,19.5 -9.5,11.5 -20.5,26.5 -24,32 -35.5,66 -11.5,34 -17,70 -5.5,36 -6,74 -0.5,38 -1.5,77 -1,25 -1.5,54 -0.5,29 -3,57 -2.5,28 -8.5,53.5 -6,25.5 -17,44.5 22,-17 53,-44.5 31,-27.5 64,-62 33,-34.5 65.5,-74.5 32.5,-40 58.5,-82 26,-42 42,-84 16,-42 16,-81 0,-15 -5,-24 -5,-9 -10.5,-17 -5.5,-8 -10.5,-16 -5,-8 -5,-22 0,-16 12,-26.5 12,-10.5 28,-10.5 23,0 35.5,13.5 12.5,13.5 12.5,36.5 0,29 -6.5,57 -6.5,28 -17.5,57 -24,68 -66.5,131.5 -42.5,63.5 -91,118 -48.5,54.5 -98,98 -49.5,43.5 -87.5,71.5 -38,29 -62,47.5 -24,18.5 -38,29.5 l -24,20 -11,-11 q 27,-36 42,-77 15,-41 22.5,-87.5 7.5,-46.5 9.5,-98 2,-51.5 2,-108.5 0,-42 7,-74 7,-32 18,-56 11,-24 24.5,-41 13.5,-17 27.5,-30 -5,2 -8.5,2 z m -296,79 q 0,-32 -23,-59.5 -23,-27.5 -72,-42.5 -18,20 -28,44.5 -10,24.5 -10,56.5 0,39 23,57.5 23,18.5 47,18.5 25,0 44,-21 19,-21 19,-54 z"></path></svg>
