<?xml version="1.0" encoding="UTF-8" standalone="no"?>
<svg xmlns="http://www.w3.org/2000/svg" width="4558" height="2057"><path id="path46" d="m 800,1974 q -51,0 -91,-14 -40,-14 -68,-37 -46,59 -114.5,96.5 Q 458,2057 369,2057 296,2057 229.5,2035 163,2013 112,1970 61,1927 30.5,1864.5 0,1802 0,1721 0,1649 24.5,1583.5 49,1518 92,1462.5 q 43,-55.5 102,-100 59,-44.5 128,-76 69,-31.5 145.5,-48.5 76.5,-17 155.5,-17 92,0 164.5,18.5 72.5,18.5 126.5,50.5 65,-32 138,-49.5 73,-17.5 139,-17.5 32,0 59.5,2 27.5,2 53.5,9 14,-11 34,-18 20,-7 40,-7 21,0 39,5 18,5 18,13 0,8 -6.5,13.5 -6.5,5.5 -11.5,5.5 -5,0 -8,-3.5 -3,-3.5 -6.5,-8 -3.5,-4.5 -9,-8 -5.5,-3.5 -15.5,-3.5 -11,0 -21,3.5 -10,3.5 -20,14.5 54,15 99,39.5 45,24.5 77,59.5 32,35 50,81 18,46 18,104 0,78 -30,140 -30,62 -74,104.5 -44,42.5 -93.5,65 -49.5,22.5 -89.5,22.5 -38,0 -66,-8 -28,-8 -46,-20.5 -18,-12.5 -26.5,-28.5 -8.5,-16 -8.5,-32 0,-12 4.5,-22 4.5,-10 10,-16.5 5.5,-6.5 11.5,-10 6,-3.5 9,-3.5 7,0 7,6 0,7 -4,17.5 -4,10.5 -4,32.5 0,22 21,42.5 21,20.5 63,20.5 40,0 77.5,-24.5 37.5,-24.5 65.5,-69 28,-44.5 45,-106.5 17,-62 17,-138 0,-85 -32.5,-146.5 Q 1405,1289 1321,1261 q -34,36 -59.5,100 -25.5,64 -50,139 -24.5,75 -52,153 -27.5,78 -65.5,143 -23,40 -51,72.5 -28,32.5 -63,56 -35,23.5 -79.5,36.5 -44.5,13 -100.5,13 z m 392,-734 q -60,0 -124,19.5 -64,19.5 -119,54.5 47,37 71,84 24,47 24,100 0,32 -10.5,61 -10.5,29 -29,51 -18.5,22 -45,34.5 -26.5,12.5 -57.5,12.5 -33,0 -62.5,-9.5 Q 810,1638 787,1620 764,1602 750.5,1574.5 737,1547 737,1511 q 0,-33 11.5,-63 11.5,-30 32.5,-56.5 21,-26.5 49.5,-49 Q 859,1320 893,1301 842,1272 775,1255.5 708,1239 623,1239 q -71,0 -140.5,18 -69.5,18 -132,50.5 -62.5,32.5 -115.5,77 -53,44.5 -91.5,98 -38.5,53.5 -60,114 Q 62,1657 62,1720 q 0,74 23,133 23,59 64.5,100 41.5,41 98,63 56.5,22 123.5,22 85,0 147,-39 62,-39 100,-99 -41,-49 -41,-111 0,-28 9.5,-52 9.5,-24 24,-42.5 14.5,-18.5 30.5,-30 16,-11.5 29,-15.5 -7,-39 -25.5,-69 -18.5,-30 -45,-50 -26.5,-20 -59.5,-30.5 -33,-10.5 -70,-10.5 -40,0 -77,15.5 -37,15.5 -65.5,42 -28.5,26.5 -45.5,62.5 -17,36 -17,77 0,36 12,63 12,27 31,44 19,17 43.5,25.5 24.5,8.5 48.5,8.5 23,0 40,-7 17,-7 28.5,-18 11.5,-11 17.5,-24.5 6,-13.5 6,-25.5 0,-10 -5.5,-14.5 -5.5,-4.5 -5.5,-18.5 0,-8 6.5,-15 6.5,-7 17.5,-7 13,0 19.5,10.5 6.5,10.5 6.5,22.5 0,18 -9.5,38 -9.5,20 -26.5,37 -17,17 -41,28 -24,11 -54,11 -29,0 -57,-10 -28,-10 -50,-30 -22,-20 -35.5,-50 -13.5,-30 -13.5,-71 0,-43 19,-81.5 19,-38.5 50.5,-67.5 31.5,-29 72,-45.5 40.5,-16.5 84.5,-16.5 49,0 93.5,14 44.5,14 78.5,42.5 34,28.5 54.5,72 20.5,43.5 20.5,102.5 0,49 -14.5,97 -14.5,48 -40.5,92 37,20 91,20 40,0 73.5,-11 33.5,-11 62.5,-30.5 29,-19.5 54,-47.5 25,-28 49,-62 44,-63 81,-138 37,-75 70.5,-147 33.5,-72 67,-133 33.5,-61 71.5,-95 -21,-5 -42,-6.5 -21,-1.5 -48,-1.5 z m -167,254 q 0,-47 -24,-90 -24,-43 -70,-78 -54,37 -88,84 -34,47 -34,101 0,57 25.5,90 25.5,33 75.5,33 24,0 44.5,-11 20.5,-11 36.5,-30 16,-19 25,-44.5 9,-25.5 9,-54.5 z m -424,289 q 0,53 33,88 20,-40 30.5,-84.5 10.5,-44.5 10.5,-89.5 0,-8 -0.5,-16.5 -0.5,-8.5 -1.5,-16.5 -12,3 -24.5,13 -12.5,10 -23,25.5 -10.5,15.5 -17.5,36 -7,20.5 -7,44.5 z m 695,-592 q -9,0 -22,-13 -13,-13 -24,-30 -11,-17 -19,-33.5 -8,-16.5 -8,-23.5 0,-9 10,-9 4,0 11.5,9.5 7.5,9.5 17.5,21 10,11.5 21,21 11,9.5 22,9.5 15,0 31,-9.5 16,-9.5 30.5,-21.5 14.5,-12 24.5,-21.5 10,-9.5 13,-9.5 10,0 10,9 0,5 -14.5,21.5 -14.5,16.5 -34,34 -19.5,17.5 -39.5,31.5 -20,14 -30,14 z"></path></svg>
