<?xml version="1.0" encoding="UTF-8" standalone="no"?>
<svg xmlns="http://www.w3.org/2000/svg" width="4558" height="2057"><path id="path345" d="m 177,1812 q 19,0 37,8 18,-14 41.5,-26 23.5,-12 54.5,-26 l 39,-124 q 7,-23 22.5,-40.5 15.5,-17.5 36,-29.5 20.5,-12 44,-18.5 23.5,-6.5 46.5,-6.5 31,0 53.5,17 22.5,17 22.5,44 0,22 -14.5,40.5 -14.5,18.5 -39,35 -24.5,16.5 -56.5,31 -32,14.5 -66,29.5 -10,30 -16,51.5 -6,21.5 -10,35.5 -4,16 -8,26 9,-10 22,-18.5 13,-8.5 26.5,-15.5 13.5,-7 27,-11 13.5,-4 24.5,-4 27,0 50,18.5 23,18.5 23,59.5 0,31 -12,61.5 -12,30.5 -32,54.5 -20,24 -47,38.5 -27,14.5 -57,14.5 -36,0 -56,-16 -20,-16 -27,-33 -17,18 -31.5,27.5 -14.5,9.5 -27.5,14.5 -13,5 -23,6 -10,1 -17,1 v -7 q 13,-6 23,-22.5 10,-16.5 18.5,-41.5 8.5,-25 17,-57 8.5,-32 19.5,-70 2,-8 5.5,-24 3.5,-16 13.5,-48 -26,12 -43,21 -17,9 -33,20 8,7 13.5,15.5 5.5,8.5 5.5,18.5 0,17 -10.5,30 -10.5,13 -27.5,13 -14,0 -24,-7.5 -10,-7.5 -10,-18.5 0,-14 9,-22 9,-8 9,-18 0,-12 -10,-12 -20,0 -37,12 -17,12 -30,31 -13,19 -20,44 -7,25 -7,50 0,34 13.5,48.5 13.5,14.5 33.5,14.5 13,0 25,-6 12,-6 23,-14 11,-9 23,-20 l 7,8 q -15,18 -33,31 -16,12 -37,21.5 -21,9.5 -46,9.5 -17,0 -34.5,-3.5 Q 46,2050 32,2041 q -14,-9 -23,-24 -9,-15 -9,-38 0,-39 17,-70 17,-31 43.5,-52.5 26.5,-21.5 57.5,-33 31,-11.5 59,-11.5 z m 250,27 q -6,0 -16.5,4.5 -10.5,4.5 -22,13.5 -11.5,9 -22.5,22.5 -11,13.5 -17,31.5 -3,7 -6.5,18.5 -3.5,11.5 -7,23.5 -3.5,12 -6,23 -2.5,11 -2.5,16 0,24 14,32.5 14,8.5 27,8.5 16,0 30.5,-15.5 14.5,-15.5 26,-39 11.5,-23.5 18,-50 6.5,-26.5 6.5,-49.5 0,-40 -22,-40 z m 20,-230 q -8,13 -18.5,44 -10.5,31 -24.5,73 55,-26 89.5,-58.5 34.5,-32.5 34.5,-74.5 0,-14 -7.5,-21.5 -7.5,-7.5 -18.5,-7.5 -17,0 -29.5,11 -12.5,11 -25.5,34 z"></path></svg>
