<?xml version="1.0" encoding="UTF-8" standalone="no"?>
<svg xmlns="http://www.w3.org/2000/svg" width="4558" height="2057"><path id="path362" d="m 412,1579 q -7,5 -14,12 -6,6 -14,15.5 -8,9.5 -15,22.5 -9,16 -18,41.5 -9,25.5 -19,57.5 -10,32 -20,68.5 -10,36.5 -21,74.5 -3,12 -8.5,31.5 l -11,39 q 0,0 -9,36.5 -9,36.5 -3.5,25 0,13 10,13 7,0 15,-4.5 8,-4.5 16,-9.5 9,-6 17,-15 l 8,8 q -17,18 -33,31 -14,12 -29.5,21.5 -15.5,9.5 -27.5,9.5 -27,0 -40.5,-11.5 Q 181,2034 181,2015 q 0,-6 0.5,-11 0.5,-5 2.5,-14 -8,11 -19,22.5 -11,11.5 -24,21.5 -13,10 -28,16.5 -15,6.5 -32,6.5 -35,0 -58,-18 -23,-18 -23,-56 0,-36 16.5,-67 16.5,-31 41,-54.5 24.5,-23.5 53.5,-37 29,-13.5 54,-13.5 21,0 34,5.5 13,5.5 24,16.5 12,-41 22,-80 8,-33 15,-67 7,-34 7,-56 0,-28 -5,-56 -20,14 -39.5,22.5 -19.5,8.5 -39.5,8.5 -35,0 -52.5,-18 -17.5,-18 -17.5,-45 0,-26 21,-41.5 21,-15.5 46,-15.5 33,0 53.5,14 20.5,14 31.5,37 24,-15 48,-35.5 24,-20.5 50.5,-42 26.5,-21.5 55,-43 28.5,-21.5 61.5,-38 33,-16.5 70.5,-27 37.5,-10.5 81.5,-10.5 37,0 72,9 35,9 62.5,28.5 27.5,19.5 44,51 16.5,31.5 16.5,76.5 0,38 -14,73 -14,35 -38,62 -24,27 -56.5,43 -32.5,16 -69.5,16 -66,0 -104.5,-34.5 Q 506,1630 506,1579 q 0,-22 8.5,-40.5 8.5,-18.5 22,-32.5 13.5,-14 31,-22 17.5,-8 35.5,-8 32,0 50.5,16.5 18.5,16.5 18.5,44.5 0,23 -9,40 -9,17 -24,17 -22,0 -22,-19 0,-8 5,-13.5 5,-5.5 11.5,-10.5 6.5,-5 11.5,-10.5 5,-5.5 5,-13.5 0,-39 -46,-39 -17,0 -32,7.5 -15,7.5 -26,20 -11,12.5 -18,28.5 -7,16 -7,32 0,45 33,71 33,26 92,26 31,0 57,-13.5 26,-13.5 44.5,-36.5 18.5,-23 28.5,-53.5 10,-30.5 10,-65.5 0,-36 -13.5,-63 -13.5,-27 -36,-45.5 -22.5,-18.5 -53,-28 -30.5,-9.5 -64.5,-9.5 -58,0 -106,22 -48,22 -90,54 -42,32 -78,67.5 -36,35.5 -70,62.5 6,20 8,42.5 2,22.5 2,43.5 5,-18 15.5,-29 10.5,-11 24.5,-17 10,-4 18.5,-7 8.5,-3 17.5,-7 9,-4 20,-8.5 11,-4.5 26,-12.5 z m -297,447 q 9,0 19.5,-7 10.5,-7 21,-18 10.5,-11 20.5,-24.5 10,-13.5 16,-27.5 3,-7 6.5,-18 3.5,-11 6.5,-22 3,-11 4.5,-21.5 1.5,-10.5 1.5,-16.5 0,-18 -7.5,-30 -7.5,-12 -28.5,-12 -18,0 -34,14 -16,14 -27.5,36 -11.5,22 -18,47.5 -6.5,25.5 -6.5,47.5 0,28 6,40 6,12 20,12 z m 68,-462 q 18,0 35,-5.5 17,-5.5 34,-14.5 -10,-22 -27,-34.5 -17,-12.5 -45,-12.5 -22,0 -35,11 -13,11 -13,26 0,14 12.5,22 12.5,8 38.5,8 z"></path></svg>
