<?xml version="1.0" encoding="UTF-8" standalone="no"?>
<svg xmlns="http://www.w3.org/2000/svg" width="4558" height="2057"><path id="path123" d="m 995,1384 q -15,28 -28,71.5 -13,43.5 -27.5,96.5 -14.5,53 -32.5,110.5 -18,57.5 -41.5,113.5 -23.5,56 -54.5,107 -31,51 -72,89.5 -41,38.5 -94,61.5 -53,23 -121,23 -33,0 -67.5,-10.5 -34.5,-10.5 -65,-30 Q 361,1997 336,1969 311,1941 296,1906 239,1898 185.5,1872.5 132,1847 91,1804 50,1761 25,1700 0,1639 0,1561 0,1481 23.5,1414.5 47,1348 87,1294 q 40,-54 94,-94.5 54,-40.5 115,-67.5 61,-27 125.5,-40.5 Q 486,1078 548,1078 q 73,0 131,18 58,18 98.5,50 40.5,32 61.5,77.5 21,45.5 21,99.5 0,47 -14.5,89 -14.5,42 -42,73.5 -27.5,31.5 -67.5,50.5 -40,19 -91,19 -41,0 -75.5,-12 -34.5,-12 -59.5,-34 -25,-22 -39,-53 -14,-31 -14,-68 0,-28 13.5,-47 13.5,-19 32.5,-19 12,0 21,9 9,9 9,20 0,14 -5,22 -5,8 -11.5,14.5 -6.5,6.5 -11.5,13.5 -5,7 -5,19 0,23 10,44 10,21 29.5,37 19.5,16 47,26 27.5,10 63.5,10 45,0 79.5,-17.5 34.5,-17.5 58.5,-47 24,-29.5 36,-69 12,-39.5 12,-83.5 0,-47 -20,-86.5 -20,-39.5 -57.5,-68 Q 721,1137 668,1121.5 615,1106 548,1106 q -56,0 -113,14 -57,14 -109.5,41 -52.5,27 -98.5,66.5 -46,39.5 -79.5,90.5 -33.5,51 -53,113.5 Q 75,1494 75,1566 q 0,63 17,113.5 17,50.5 45.5,88.5 28.5,38 66.5,63 38,25 80,37 -2,-12 -3.5,-24 -1.5,-12 -1.5,-26 0,-54 18.5,-96 18.5,-42 48.5,-71 30,-29 68.5,-44 38.5,-15 78.5,-15 50,0 81.5,29.5 31.5,29.5 31.5,77.5 0,44 -18,82.5 -18,38.5 -51.5,67 -33.5,28.5 -82,45 Q 406,1910 345,1910 q 31,33 77.5,48 46.5,15 94.5,15 81,0 141.5,-33.5 60.5,-33.5 105,-88 44.5,-54.5 76.5,-123 32,-68.5 57.5,-138.5 25.5,-70 47,-135 21.5,-65 45.5,-112 27,-54 55.5,-89 28.5,-35 43.5,-45 l 8,8 q -2,11 -4,23 -3,21 -3,53 0,46 11.5,91 11.5,45 26,86.5 14.5,41.5 26,78.5 11.5,37 11.5,67 7,-26 18.5,-67.5 11.5,-41.5 27.5,-88.5 16,-47 37.5,-94.5 21.5,-47.5 50.5,-85.5 22,-29 50.5,-47 28.5,-18 60.5,-18 18,0 32.5,8.5 14.5,8.5 14.5,24.5 0,17 -11,26 -11,9 -25,9 -9,0 -14.5,-4 -5.5,-4 -10,-9 -4.5,-5 -10,-9 -5.5,-4 -14.5,-4 -28,0 -55,35 -29,36 -51.5,88.5 -22.5,52.5 -41,109.5 -18.5,57 -32.5,113 -14,56 -26,99 -8,30 -16,55 -8,25 -14,43 -7,21 -14,39 h -15 q 0,-70 -17.5,-131 -17.5,-61 -38.5,-116 -21,-55 -38.5,-106.5 Q 995,1434 995,1384 Z m -688,425 q 0,39 15,67 11,2 21,3 10,1 21,1 51,0 92.5,-13.5 41.5,-13.5 70,-38 28.5,-24.5 44,-58 Q 586,1737 586,1698 586,1662 562.5,1635.5 539,1609 493,1609 q -35,0 -68,14 -33,14 -59.5,39.5 -26.5,25.5 -42.5,63 -16,37.5 -16,83.5 z m 920,-589 q -9,0 -22,-13 -13,-13 -24,-30 -11,-17 -19,-33.5 -8,-16.5 -8,-23.5 0,-9 10,-9 4,0 11.5,9.5 7.5,9.5 17.5,21 10,11.5 21,21 11,9.5 22,9.5 15,0 31,-9.5 16,-9.5 30.5,-21.5 14.5,-12 24.5,-21.5 10,-9.5 13,-9.5 10,0 10,9 0,5 -14.5,21.5 -14.5,16.5 -34,34 -19.5,17.5 -39.5,31.5 -20,14 -30,14 z"></path></svg>
