<?xml version="1.0" encoding="UTF-8" standalone="no"?>
<svg xmlns="http://www.w3.org/2000/svg" width="4558" height="2057"><path id="path872" d="m 198,1527 q -38,0 -64,-21.5 -26,-21.5 -26,-53.5 0,-12 6.5,-20.5 6.5,-8.5 18.5,-8.5 8,0 13.5,5.5 5.5,5.5 5.5,13.5 0,11 -4.5,15 -4.5,4 -4.5,12 0,16 15,29.5 15,13.5 42,13.5 29,0 50.5,-15.5 21.5,-15.5 21.5,-40.5 0,-16 7.5,-24.5 7.5,-8.5 17.5,-8.5 8,0 13,5.5 5,5.5 5,13.5 0,11 -9,25.5 -9,14.5 -25,27.5 -16,13 -37,22.5 -21,9.5 -46,9.5 z m 274,457 q -144,0 -222,-54.5 -78,-54.5 -78,-146.5 0,-31 3,-46 1,-8 3,-14 -28,31 -60,52.5 Q 86,1797 57,1797 35,1797 17.5,1785.5 0,1774 0,1746 q 0,-16 8.5,-35 8.5,-19 18.5,-38 10,-19 18.5,-37 8.5,-18 8.5,-33 0,-10 -9,-10 -4,0 -10,4 -6,4 -12,9 -7,6 -16,13 l -7,-9 q 6,-5 17.5,-15 11.5,-10 25.5,-19.5 14,-9.5 28,-16.5 14,-7 26,-7 21,0 32,9 11,9 11,24 0,15 -8,35 -8,20 -17,41 -9,21 -17,42 -8,21 -8,38 0,16 15,16 11,0 27.5,-11 16.5,-11 44.5,-44 6,-7 10.5,-19.5 4.5,-12.5 9,-26 4.5,-13.5 8,-27 3.5,-13.5 8.5,-22.5 9,-21 28,-33.5 19,-12.5 40,-15.5 15,-2 25,-4.5 10,-2.5 16,-5.5 7,-4 11,-7 l 7,11 q -7,5 -14,11 -6,5 -13.5,13.5 -7.5,8.5 -12.5,19.5 -7,14 -14.5,34.5 -7.5,20.5 -13.5,44 -6,23.5 -10,47 -4,23.5 -4,44.5 0,44 10.5,81 10.5,37 36,63.5 25.5,26.5 68,41.5 42.5,15 106.5,15 56,0 119,-16 63,-16 125.5,-35.5 62.5,-19.5 121,-35.5 58.5,-16 104.5,-16 52,0 89.5,14.5 37.5,14.5 62,38.5 24.5,24 36,56 11.5,32 11.5,66 0,18 -8,18 -7,0 -9,-14 -9,-59 -58,-86.5 -49,-27.5 -133,-27.5 -56,0 -113,8.5 -57,8.5 -115.5,19 -58.5,10.5 -118.5,19 -60,8.5 -121,8.5 z"></path></svg>
