<?xml version="1.0" encoding="UTF-8" standalone="no"?>
<svg xmlns="http://www.w3.org/2000/svg" width="4558" height="2057"><path id="path801" d="m 540,1465 q -31,0 -59,3 11,31 18.5,63 7.5,32 7.5,67 0,65 -20,122 -20,57 -57,99 -37,42 -89.5,66.5 Q 288,1910 224,1910 170,1910 128,1892.5 86,1875 57.5,1846.5 29,1818 14.5,1781 0,1744 0,1704 q 0,-50 18.5,-88 18.5,-38 48.5,-64 30,-26 68,-39.5 38,-13.5 77,-13.5 44,0 73,17 26,-15 55.5,-26.5 Q 370,1478 402,1470 391,1441 377.5,1414 364,1387 353,1363 342,1339 334.5,1317.5 327,1296 327,1277 q 0,-24 10.5,-42.5 10.5,-18.5 26.5,-31 16,-12.5 35,-18.5 19,-6 36,-6 28,0 48.5,14 20.5,14 20.5,36 0,19 -11.5,30.5 -11.5,11.5 -25.5,11.5 -15,0 -24,-7.5 -9,-7.5 -9,-18.5 0,-13 7.5,-19.5 7.5,-6.5 7.5,-18.5 0,-8 -5,-11.5 -5,-3.5 -10,-3.5 -15,0 -25,16 -10,16 -10,48 0,18 7.5,40 7.5,22 19.5,47.5 12,25.5 25.5,53.5 13.5,28 25.5,59 16,-2 31.5,-3 15.5,-1 31.5,-1 64,0 112,14.5 48,14.5 80.5,39 32.5,24.5 49,57.5 16.5,33 16.5,69 0,34 -13.5,63 -13.5,29 -35.5,50.5 -22,21.5 -50.5,33.5 -28.5,12 -58.5,12 -45,0 -74,-25.5 -29,-25.5 -29,-63.5 0,-34 22,-56 22,-22 48,-22 17,0 26.5,6.5 9.5,6.5 9.5,17.5 0,9 -5.5,15 -5.5,6 -14.5,6 -8,0 -12.5,-3.5 -4.5,-3.5 -7.5,-7.5 -3,-4 -7,-7.5 -4,-3.5 -10,-3.5 -9,0 -22.5,13 -13.5,13 -13.5,42 0,33 26,54.5 26,21.5 64,21.5 27,0 48.5,-11.5 21.5,-11.5 35.5,-31.5 14,-20 21.5,-47.5 7.5,-27.5 7.5,-60.5 0,-30 -12,-59.5 -12,-29.5 -37.5,-52 Q 678,1493 637.5,1479 597,1465 540,1465 Z m -111,134 q 0,-31 -6,-59.5 -6,-28.5 -16,-55.5 -59,18 -102,46 34,34 34,90 0,24 -7.5,49 -7.5,25 -21,44.5 -13.5,19.5 -33,32 Q 258,1758 233,1758 202,1758 177.5,1740.5 153,1723 153,1687 q 0,-48 32.5,-89.5 32.5,-41.5 86.5,-73.5 -25,-14 -62,-14 -32,0 -64.5,12.5 -32.5,12.5 -59,37.5 -26.5,25 -43.5,61 -17,36 -17,83 0,32 12,60.5 12,28.5 35,50.5 23,22 56,34.5 33,12.5 75,12.5 57,0 99.5,-19.5 42.5,-19.5 70,-54.5 27.5,-35 41.5,-83.5 14,-48.5 14,-105.5 z m -105,21 q 0,-22 -7.5,-43.5 Q 309,1555 292,1539 q -43,30 -68.5,67 -25.5,37 -25.5,77 0,27 12.5,40 12.5,13 32.5,13 16,0 30.5,-9.5 14.5,-9.5 26,-26 11.5,-16.5 18,-37 6.5,-20.5 6.5,-43.5 z m -122,354 q 0,-6 1.5,-13 1.5,-7 5,-13.5 3.5,-6.5 9.5,-11 6,-4.5 16,-4.5 15,0 24,11 9,11 9,25 0,12 -7,27 -7,15 -18,29 -11,14 -24,23.5 -13,9.5 -24,9.5 -9,0 -9,-7 0,-2 2.5,-4 2.5,-2 4.5,-4 7,-5 17,-15 10,-10 12,-28 -10,0 -14.5,-8 -4.5,-8 -4.5,-17 z"></path></svg>
