<?xml version="1.0" encoding="UTF-8" standalone="no"?>
<svg xmlns="http://www.w3.org/2000/svg" width="4558" height="2057"><path id="path226" d="m 762,1196 q -40,0 -77,11.5 -37,11.5 -64,34.5 48,18 72,49 24,31 24,68 0,39 -23.5,64.5 -23.5,25.5 -57.5,25.5 -17,0 -34,-6 -17,-6 -30.5,-18 -13.5,-12 -22,-29.5 -8.5,-17.5 -8.5,-41.5 0,-61 35,-105 -20,-4 -41.5,-6 -21.5,-2 -47.5,-2 -68,0 -139,30 -71,30 -128.5,86.5 -57.5,56.5 -94,138.5 -36.5,82 -36.5,185 0,78 25,141 25,63 69,107.5 44,44.5 105,68 61,23.5 132,23.5 65,0 125.5,-21.5 60.5,-21.5 107.5,-61 47,-39.5 75.5,-95 Q 757,1788 757,1719 q 0,-50 -15,-87 -15,-37 -40.5,-62 -25.5,-25 -58.5,-37 -33,-12 -70,-12 -32,0 -60,10.5 -28,10.5 -49,29 -21,18.5 -33,44 -12,25.5 -12,55.5 0,30 7.5,50.5 7.5,20.5 20,33 12.5,12.5 28,17.5 15.5,5 31.5,5 23,0 38.5,-15 15.5,-15 15.5,-29 0,-9 -5.5,-12 -5.5,-3 -5.5,-11 0,-7 4.5,-12 4.5,-5 12.5,-5 8,0 12.5,6.5 4.5,6.5 4.5,15.5 0,28 -23.5,51 -23.5,23 -63.5,23 -16,0 -37,-5 -21,-5 -40,-18 -19,-13 -32,-35 -13,-22 -13,-57 0,-34 17,-63 17,-29 44.5,-50 27.5,-21 63.5,-33 36,-12 74,-12 41,0 78,12.5 37,12.5 65.5,39 28.5,26.5 45.5,66 17,39.5 17,93.5 0,75 -29.5,137.5 -29.5,62.5 -80,108 Q 619,2007 551,2032 q -68,25 -144,25 -75,0 -148,-25 -73,-25 -130.5,-73 Q 71,1911 35.5,1840 0,1769 0,1677 0,1604 22,1541.5 44,1479 81.5,1428.5 119,1378 168,1339 q 49,-39 103,-65 54,-26 109.5,-39.5 Q 436,1221 487,1221 q 29,0 55,3.5 26,3.5 48,8.5 35,-38 90,-58.5 55,-20.5 121,-20.5 38,0 67.5,6.5 29.5,6.5 54.5,14 25,7.5 47.5,14 22.5,6.5 46.5,6.5 35,0 55.5,-6 20.5,-6 43.5,-20 5,-2 8,-4 3,-2 5,-2 8,0 8,6 0,5 -6,12 -6,8 -17,19.5 -11,11.5 -22,26.5 -26,36 -40.5,70 -14.5,34 -22,69.5 -7.5,35.5 -9,72.5 -1.5,37 -1.5,78 0,61 -6.5,105 -6.5,44 -14,73 -7.5,29 -15,43.5 -7.5,14.5 -8.5,17.5 31,-30 63,-66.5 32,-36.5 66,-81 34,-44.5 69,-99 35,-54.5 71,-121.5 17,-31 38,-59 21,-28 40,-50 22,-26 44,-47 l 19,6 q -21,37 -35.5,94 -14.5,57 -24.5,126 -10,69 -14.5,146.5 -4.5,77.5 -4.5,156.5 14,-17 40.5,-46 26.5,-29 58,-66.5 31.5,-37.5 64.5,-81.5 33,-44 59.5,-90 26.5,-46 43.5,-92.5 17,-46.5 17,-88.5 0,-15 -5,-24 -5,-9 -10.5,-17 -5.5,-8 -10.5,-16.5 -5,-8.5 -5,-21.5 0,-14 10.5,-25.5 10.5,-11.5 29.5,-11.5 20,0 34,13.5 14,13.5 14,36.5 0,29 -6.5,57 -6.5,28 -17.5,57 -25,68 -68.5,138 -43.5,70 -97.5,138 -54,68 -113.5,132 -59.5,64 -115.5,119 l -18,-2 q -2,-75 -2,-129.5 V 1641 q 0,-49 3,-87 3,-38 13,-75 -32,50 -61,93 -29,43 -59.5,81 -30.5,38 -64.5,73.5 -34,35.5 -74,71.5 -36,32 -60,51 -24,19 -39,30 -18,12 -27,17 l -11,-11 q 31,-42 49.5,-90 18.5,-48 28,-100.5 9.5,-52.5 12,-108.5 2.5,-56 2.5,-115 0,-40 9.5,-71.5 9.5,-31.5 23.5,-55 14,-23.5 30,-40 16,-16.5 30,-27.5 -2,1 -4,1 -3,1 -9,1 -27,0 -54.5,-13 -27.5,-13 -57,-28.5 Q 858,1222 827,1209 q -31,-13 -65,-13 z m -61,162 q 0,-32 -23,-59.5 -23,-27.5 -72,-42.5 -18,20 -28,44.5 -10,24.5 -10,56.5 0,39 23,57.5 23,18.5 47,18.5 25,0 44,-21 19,-21 19,-54 z"></path></svg>
