<?xml version="1.0" encoding="UTF-8" standalone="no"?>
<svg xmlns="http://www.w3.org/2000/svg" width="4558" height="2057"><path id="path210" d="m 276,2029 q 47,0 79,-32.5 32,-32.5 53,-96.5 4,-14 10.5,-36 6.5,-22 14,-49 7.5,-27 15.5,-57 8,-30 16,-59 18,-68 37,-145 h -46 l 6,-15 h 123 l -5,15 h -48 q -22,80 -40,150 l -16,60 q 0,0 -15.5,57 -15.5,57 -13.5,49 2,-8 -10,35 -22,70 -64.5,111 -42.5,41 -111.5,41 -30,0 -57.5,-6.5 -27.5,-6.5 -48,-20 -20.5,-13.5 -33,-34 Q 109,1976 109,1949 q 0,-14 4.5,-41 4.5,-27 12,-60 7.5,-33 17,-69.5 9.5,-36.5 18,-70 8.5,-33.5 16,-61.5 7.5,-28 11.5,-44 4,-15 10,-24 6,-9 20,-17 -30,7 -56.5,20 -26.5,13 -46,30.5 -19.5,17.5 -30.5,39 -11,21.5 -11,46.5 0,22 9,36.5 9,14.5 26,25.5 l -8,9 Q 88,1765 70.5,1758 53,1751 37.5,1740.5 22,1730 11,1717 0,1704 0,1687 q 0,-26 18.5,-50.5 18.5,-24.5 51,-44 32.5,-19.5 75.5,-32.5 43,-13 91,-18 25,-2 52,-2.5 27,-0.5 56,-0.5 l -6,15 q -20,0 -32,9 -12,9 -20,32 -5,15 -13,43 -8,28 -17,62.5 -9,34.5 -18.5,73 -9.5,38.5 -17,73.5 -7.5,35 -12,63.5 -4.5,28.5 -4.5,44.5 0,36 17,55 17,19 55,19 z m 132,-575 q -5,0 -15,6 -10,6 -41,23 -23,13 -34.5,19 -11.5,6 -16.5,6 -7,0 -7,-6 0,-4 10,-10 12,-7 20.5,-13 8.5,-6 16,-12 7.5,-6 14.5,-13.5 7,-7.5 16,-17.5 14,-15 22.5,-25.5 8.5,-10.5 25.5,-10.5 18,0 22,10.5 4,10.5 11,25.5 l 8.5,17 q 0,0 7.5,13 7.5,13 9.5,12 2,-1 14.5,15 5,5 5,9 0,6 -8,6 -4,0 -16,-7 -12,-7 -26,-19 -21,-18 -27.5,-23 -6.5,-5 -11.5,-5 z"></path></svg>
