<?xml version="1.0" encoding="UTF-8" standalone="no"?>
<svg xmlns="http://www.w3.org/2000/svg" width="4558" height="2057"><path id="path555" d="m 617,1904 q 19,-21 37.5,-39.5 18.5,-18.5 35.5,-32.5 17,-14 31.5,-22 14.5,-8 26.5,-8 19,0 28.5,11.5 9.5,11.5 9.5,25.5 0,15 -9,30 -9,15 -31,15 -14,0 -21.5,-8 -7.5,-8 -7.5,-20 0,-9 -5,-9 -5,0 -13,4.5 -8,4.5 -16.5,11.5 -8.5,7 -16.5,14 -8,7 -12,13 7,16 15,34 7,15 16,33.5 9,18.5 19,35.5 9,17 21.5,30.5 12.5,13.5 33.5,18.5 l 1,9 h -57 q -23,0 -43,-8 -20,-8 -28,-25 l -30,-64 q -11,33 -16,55 -5,22 -5,29 0,15 -14,15 -8,0 -21,-2 -13,-2 -26,-2 -14,0 -24,4 -10,4 -13,4 -4,0 -4,-4 0,-3 6,-9 6,-6 12,-18 12,-21 20.5,-50 8.5,-29 20.5,-74 12,-46 27,-100.5 15,-54.5 34,-114.5 19,-60 42,-122.5 23,-62.5 51,-123.5 -101,-29 -200,-52.5 -99,-23.5 -199,-23.5 -62,0 -111,11.5 -49,11.5 -83.5,34 -34.5,22.5 -53,55 Q 27,1498 27,1540 q 0,26 7,43.5 7,17.5 17,27.5 10,10 22,14 12,4 22,4 10,0 16.5,-4 6.5,-4 12,-9.5 5.5,-5.5 11,-9.5 5.5,-4 14.5,-4 26,0 26,25 0,14 -16,23 -16,9 -39,9 -18,0 -39,-7 -21,-7 -39,-23 -18,-16 -30,-41 -12,-25 -12,-60 0,-48 22,-91 22,-43 61.5,-75.5 39.5,-32.5 96,-52 Q 236,1290 305,1290 q 53,0 104.5,9 51.5,9 102.5,23.5 51,14.5 101,33 50,18.5 101,38.5 40,-80 91.5,-152 51.5,-72 115.5,-126.5 64,-54.5 143,-86.5 79,-32 175,-32 75,0 131,19 56,19 93.5,52 37.5,33 56.5,77.5 19,44.5 19,94.5 0,68 -27,122 -27,54 -74,92.5 -47,38.5 -110.5,59 -63.5,20.5 -137.5,20.5 -116,0 -221.5,-22 -105.5,-22 -207.5,-51 -26,60 -47,120.5 -21,60.5 -38.5,118.5 -17.5,58 -31.5,110 -14,52 -27,94 z m 634,-837 q -89,0 -160.5,28.5 -71.5,28.5 -129,76.5 -57.5,48 -102,112 -44.5,64 -78.5,136 48,19 97.5,36 49.5,17 100,30 50.5,13 103,21 52.5,8 107.5,8 69,0 127,-19 58,-19 100.5,-53.5 42.5,-34.5 66.5,-82.5 24,-48 24,-106 0,-42 -16,-76 -16,-34 -47.5,-59 -31.5,-25 -80,-38.5 Q 1315,1067 1251,1067 Z"></path></svg>
