<?xml version="1.0" encoding="UTF-8" standalone="no"?>
<svg xmlns="http://www.w3.org/2000/svg" width="4558" height="2057"><path id="path338" d="m 239,1961 q 0,6 5,7 5,1 8,1 10,0 21.5,-2.5 11.5,-2.5 16.5,-2.5 9,0 12.5,5.5 3.5,5.5 3.5,10.5 0,18 -12,32.5 -12,14.5 -30,24 -18,9.5 -39,15 -21,5.5 -39,5.5 -5,0 -14,-1 -9,-1 -18,-3.5 -9,-2.5 -15.5,-6 -6.5,-3.5 -6.5,-9.5 0,-7 6,-14 6,-7 12,-7 4,0 7,3 3,3 7.5,6.5 4.5,3.5 12.5,6.5 8,3 23,3 10,0 22.5,-3 12.5,-3 23,-8.5 10.5,-5.5 17.5,-13 7,-7.5 7,-16.5 0,-8 -9,-8 -14,0 -26,4 -12,4 -29,4 -5,0 -8,-4 -3,-4 -3,-8 l 8,-34 q -20,0 -54,-4 -34,-4 -67,-18 Q 49,1912 24.5,1885 0,1858 0,1810 q 0,-39 17,-70 17,-31 43.5,-52.5 26.5,-21.5 57.5,-33 31,-11.5 59,-11.5 29,0 49.5,14.5 20.5,14.5 20.5,35.5 0,17 -10.5,30 -10.5,13 -27.5,13 -14,0 -24,-7.5 -10,-7.5 -10,-18.5 0,-14 9,-22 9,-8 9,-18 0,-12 -10,-12 -20,0 -37,12 -17,12 -30,31 -13,19 -20,44 -7,25 -7,50 0,45 16.5,72 16.5,27 39,40.5 22.5,13.5 45,17.5 22.5,4 35.5,4 70,0 138.5,-36 68.5,-36 123.5,-96 55,-60 89,-139 34,-79 34,-165 0,-61 -15.5,-104 -15.5,-43 -43,-70 -27.5,-27 -65,-39 -37.5,-12 -80.5,-12 -47,0 -86.5,15.5 -39.5,15.5 -67.5,40 -28,24.5 -43.5,56.5 -15.5,32 -15.5,65 0,35 10.5,59.5 10.5,24.5 28.5,40.5 18,16 41.5,23.5 23.5,7.5 50.5,7.5 25,0 42.5,-6.5 17.5,-6.5 28,-16.5 10.5,-10 15.5,-22 5,-12 5,-23 0,-6 -2,-10 -2,-4 -5,-8 -3,-4 -5,-9 -2,-5 -2,-14 0,-12 7.5,-20 7.5,-8 20.5,-8 17,0 25,13 8,13 8,28 0,23 -10.5,43 -10.5,20 -29,36 -18.5,16 -43,25 -24.5,9 -51.5,9 -33,0 -60.5,-9.5 -27.5,-9.5 -48,-27.5 -20.5,-18 -32,-45.5 Q 176,1483 176,1447 q 0,-37 17,-73 17,-36 48.5,-64.5 31.5,-28.5 76.5,-46 45,-17.5 100,-17.5 51,0 98,13.5 47,13.5 83.5,42 36.5,28.5 58.5,72 22,43.5 22,104.5 0,85 -37,166 -37,81 -98,145.5 -61,64.5 -139.5,106.5 -78.5,42 -162.5,50 -4,8 -4,15 z"></path></svg>
