<?xml version="1.0" encoding="UTF-8" standalone="no"?>
<svg xmlns="http://www.w3.org/2000/svg" width="4558" height="2057"><path id="path726" d="m 497,1515 q 24,0 43,16.5 19,16.5 19,48.5 0,26 -15,54 -15,28 -38,56 20,25 47,46.5 27,21.5 65,41.5 58,-32 117.5,-55.5 Q 795,1699 865,1699 q 33,0 57.5,8 24.5,8 40.5,20.5 16,12.5 23.5,28 7.5,15.5 7.5,30.5 0,15 -7.5,30.5 -7.5,15.5 -23.5,28 -16,12.5 -40.5,20.5 -24.5,8 -57.5,8 -70,0 -129.5,-23 -59.5,-23 -117.5,-55 -16,7 -32,17.5 -16,10.5 -30.5,22 -14.5,11.5 -27,24 -12.5,12.5 -22.5,23.5 23,28 38,56 15,28 15,54 0,32 -19,48.5 -19,16.5 -43,16.5 -24,0 -43,-16.5 -19,-16.5 -19,-48.5 0,-26 15,-54 15,-28 38,-56 -19,-25 -49,-46 -30,-21 -63,-41 -58,32 -117.5,55 -59.5,23 -129.5,23 -33,0 -57.5,-8 Q 47,1857 31,1844.5 15,1832 7.5,1816.5 0,1801 0,1786 0,1771 7.5,1755.5 15,1740 31,1727.5 47,1715 71.5,1707 q 24.5,-8 57.5,-8 70,0 129.5,23.5 59.5,23.5 117.5,55.5 38,-20 65,-41.5 27,-21.5 47,-46.5 -23,-28 -38,-56 -15,-28 -15,-54 0,-32 19,-48.5 19,-16.5 43,-16.5 z M 360,1786 Q 306,1761 247.5,1745.5 189,1730 115,1730 57,1730 32.5,1746.5 8,1763 8,1786 q 0,23 24.5,39.5 24.5,16.5 82.5,16.5 74,0 132.5,-15.5 Q 306,1811 360,1786 Z m 137,86 q 22,-25 49,-46 27,-21 58,-40 -33,-19 -59,-40.5 -26,-21.5 -48,-45.5 -22,24 -48,45.5 -26,21.5 -59,40.5 31,19 58,40.5 27,21.5 49,45.5 z m 0,-350 q -16,0 -24,16 -8,16 -8,44 0,26 7.5,49 7.5,23 24.5,47 17,-24 24.5,-47 7.5,-23 7.5,-49 0,-28 -8,-44 -8,-16 -24,-16 z m 137,264 q 54,25 112.5,40.5 58.5,15.5 132.5,15.5 58,0 82.5,-16.5 Q 986,1809 986,1786 986,1763 961.5,1746.5 937,1730 879,1730 805,1730 746.5,1745.5 688,1761 634,1786 Z m -137,108 q -17,24 -24.5,47 -7.5,23 -7.5,49 0,28 8,44 8,16 24,16 16,0 24,-16 8,-16 8,-44 0,-26 -7.5,-49 -7.5,-23 -24.5,-47 z"></path></svg>
