<?xml version="1.0" encoding="UTF-8" standalone="no"?>
<svg xmlns="http://www.w3.org/2000/svg" width="4558" height="2057"><path id="path915" d="m 1137,2042 q -11,8 -26,11.5 -15,3.5 -29,3.5 -9,0 -17,-3 -8,-3 -8,-11 0,-10 7.5,-31 7.5,-21 17,-46.5 9.5,-25.5 17,-52.5 7.5,-27 7.5,-50 0,-9 -10,-9 -4,0 -10,3.5 -6,3.5 -12,8.5 -7,5 -15,12 l -7,-9 q 6,-5 17.5,-14.5 11.5,-9.5 25,-19 13.5,-9.5 28,-16.5 14.5,-7 26.5,-7 21,0 32,9 11,9 11,23 0,14 -4,36 -4,22 -10,45.5 -6,23.5 -12.5,45 -6.5,21.5 -10.5,34.5 63,-58 116.5,-134.5 53.5,-76.5 103.5,-160 50,-83.5 98.5,-167 48.5,-83.5 101.5,-156.5 -66,-21 -135,-43.5 -69,-22.5 -140,-40.5 -71,-18 -142.5,-29.5 Q 1086,1262 1017,1262 q -96,0 -167.5,19.5 -71.5,19.5 -119,51 -47.5,31.5 -71,70 -23.5,38.5 -23.5,77.5 0,28 14,58 73,-26 145,-54.5 72,-28.5 141,-52 69,-23.5 134,-39 65,-15.5 125,-15.5 32,0 65.5,7.5 33.5,7.5 61,22 27.5,14.5 45,37 17.5,22.5 17.5,52.5 0,47 -35.5,86 -35.5,39 -94,67.5 -58.5,28.5 -133.5,44.5 -75,16 -155,16 -57,0 -109,-10.5 -52,-10.5 -95.5,-29.5 -43.5,-19 -77,-45 -33.5,-26 -54.5,-57 -89,30 -182.5,51 -93.5,21 -191.5,21 -59,0 -106,-16 -47,-16 -80.5,-43 Q 36,1554 18,1518.5 0,1483 0,1444 0,1385 26.5,1336 53,1287 97,1252 141,1217 198.5,1197.5 256,1178 318,1178 q 48,0 86.5,10.5 38.5,10.5 65.5,27.5 27,17 42,40.5 15,23.5 15,48.5 0,26 -14.5,50 -14.5,24 -38,43 -23.5,19 -53.5,30.5 -30,11.5 -62,11.5 -51,0 -79.5,-24.5 Q 251,1391 251,1359 q 0,-18 8.5,-30.5 8.5,-12.5 19.5,-12.5 8,0 14.5,5 6.5,5 6.5,14 0,6 -3.5,10.5 -3.5,4.5 -7.5,8.5 -4,4 -7.5,8.5 -3.5,4.5 -3.5,10.5 0,18 19.5,36.5 19.5,18.5 57.5,18.5 26,0 48,-11.5 22,-11.5 37.5,-29.5 15.5,-18 24,-40 8.5,-22 8.5,-42 0,-22 -9,-42.5 -9,-20.5 -28,-36.5 -19,-16 -47.5,-26 -28.5,-10 -68.5,-10 -56,0 -101.5,19 -45.5,19 -77.5,51.5 -32,32.5 -49,75 -17,42.5 -17,90.5 0,36 12,70.5 12,34.5 37.5,61.5 25.5,27 66,43 40.5,16 97.5,16 81,0 163.5,-19.5 Q 534,1578 618,1549 q -19,-36 -19,-75 0,-46 25,-98 25,-52 76,-96 51,-44 129.5,-72.5 78.5,-28.5 185.5,-28.5 79,0 156.5,16 77.5,16 151.5,41.5 74,25.5 143.5,56 69.5,30.5 134.5,59.5 34,-43 71,-80 37,-37 78,-63 41,-26 87,-41 46,-15 98,-15 86,0 128.5,42 42.5,42 42.5,106 0,39 -17,69.5 -17,30.5 -45,51.5 -28,21 -64,32 -36,11 -74,11 -59,0 -132.5,-19 -73.5,-19 -158.5,-46 -38,48 -73,103.5 -35,55.5 -70.5,114 -35.5,58.5 -72.5,117.5 -37,59 -77.5,114.5 -40.5,55.5 -86,105 -45.5,49.5 -98.5,87.5 z m -4,-629 q -47,0 -100.5,13.5 -53.5,13.5 -113,34.5 -59.5,21 -124.5,47 -65,26 -134,50 18,28 48.5,52.5 30.5,24.5 70,42.5 39.5,18 87.5,28.5 48,10.5 102,10.5 72,0 132.5,-17.5 60.5,-17.5 104.5,-45 44,-27.5 68.5,-61 24.5,-33.5 24.5,-66.5 0,-45 -44.5,-67 -44.5,-22 -121.5,-22 z m 799,-205 q -89,0 -159.5,44.5 -70.5,44.5 -132.5,116.5 77,34 145,56.5 68,22.5 128,22.5 29,0 58,-8.5 29,-8.5 52.5,-25.5 23.5,-17 38,-42.5 14.5,-25.5 14.5,-60.5 0,-103 -144,-103 z"></path></svg>
