<?xml version="1.0" encoding="UTF-8" standalone="no"?>
<svg xmlns="http://www.w3.org/2000/svg" width="4558" height="2057"><path id="path809" d="m 1817,749 q 0,70 -25,125 -25,55 -69,97 -44,42 -105,74 -61,32 -133,56 -72,24 -152,42 -80,18 -163,32 -5,117 -39,216 -34,99 -90,180 -56,81 -130,142 -74,61 -157.5,103 -83.5,42 -174,63 -90.5,21 -178.5,21 -99,0 -174,-28.5 Q 152,1843 101.5,1793 51,1743 25.5,1674.5 0,1606 0,1526 0,1449 22.5,1378.5 45,1308 85,1248 q 40,-60 94.5,-109 54.5,-49 118,-83.5 63.5,-34.5 134,-53 Q 502,984 573,984 q 65,0 111.5,17 46.5,17 77,47 30.5,30 45.5,71 15,41 17,89 65,-11 132,-22 67,-11 135,-24 v -5 q 0,-79 -16,-138 -16,-59 -34.5,-108.5 Q 1022,861 1006,817 q -16,-44 -16,-94 0,-24 10.5,-42.5 10.5,-18.5 26.5,-31 16,-12.5 35,-18.5 19,-6 36,-6 28,0 48.5,14 20.5,14 20.5,36 0,19 -11.5,30.5 -11.5,11.5 -25.5,11.5 -15,0 -24,-7.5 -9,-7.5 -9,-18.5 0,-13 7.5,-19.5 7.5,-6.5 7.5,-18.5 0,-8 -5,-11.5 -5,-3.5 -10,-3.5 -15,0 -25,16 -10,16 -10,48 0,45 17,91.5 17,46.5 37.5,100 20.5,53.5 37.5,114.5 17,61 17,134 110,-20 211,-50 101,-30 177.5,-78 76.5,-48 122,-118 45.5,-70 45.5,-169 0,-78 -43.5,-122 -43.5,-44 -121.5,-44 -42,0 -83.5,17.5 -41.5,17.5 -74,46 -32.5,28.5 -53,65.5 -20.5,37 -20.5,77 0,34 10.5,58 10.5,24 26.5,39.5 16,15.5 35.5,22.5 19.5,7 37.5,7 10,0 17,-5 7,-5 13,-11 6,-6 11.5,-11 5.5,-5 11.5,-5 26,0 26,25 0,13 -17,22.5 -17,9.5 -42,9.5 -27,0 -54,-9 -27,-9 -48.5,-27.5 Q 1337,864 1323,836 q -14,-28 -14,-67 0,-45 21.5,-88 21.5,-43 59,-76.5 37.5,-33.5 86.5,-53.5 49,-20 105,-20 44,0 86.5,12.5 42.5,12.5 75.5,38.5 33,26 53.5,67.5 Q 1817,691 1817,749 Z M 668,1241 q 31,-8 63.5,-15 32.5,-7 66.5,-13 -1,-42 -14.5,-80 -13.5,-38 -41,-66.5 -27.5,-28.5 -69,-45.5 -41.5,-17 -99.5,-17 -68,0 -134.5,19 -66.5,19 -126.5,52 -60,33 -111,79 -51,46 -88,100 -37,54 -58,114 -21,60 -21,121 0,75 25.5,134 25.5,59 70.5,100 45,41 107,62.5 62,21.5 134,21.5 83,0 167,-19 84,-19 162,-55 78,-36 147,-89 69,-53 121,-122 52,-69 84,-152.5 32,-83.5 37,-181.5 -69,11 -136,21.5 -67,10.5 -130,22.5 -2,71 -30,135 -28,64 -73,113.5 -45,49.5 -102,78.5 -57,29 -117,29 -67,0 -108.5,-32 -41.5,-32 -41.5,-84 0,-46 26,-82.5 26,-36.5 69.5,-64 Q 491,1298 548,1277 q 57,-21 120,-36 z m -143,309 q 48,0 95.5,-25 47.5,-25 86,-67.5 38.5,-42.5 63.5,-99.5 25,-57 28,-121 -36,7 -69.5,14 -33.5,7 -64.5,16 -55,15 -99,33 -44,18 -75.5,41 -31.5,23 -48.5,52 -17,29 -17,65 0,46 29.5,69 29.5,23 71.5,23 z m -123,424 q 0,-6 1.5,-13 1.5,-7 5,-13.5 3.5,-6.5 9.5,-11 6,-4.5 16,-4.5 15,0 24,11 9,11 9,25 0,12 -7,27 -7,15 -18,29 -11,14 -24,23.5 -13,9.5 -24,9.5 -9,0 -9,-7 0,-2 2.5,-4 2.5,-2 4.5,-4 7,-5 17,-15 10,-10 12,-28 -10,0 -14.5,-8 -4.5,-8 -4.5,-17 z"></path></svg>
