<?xml version="1.0" encoding="UTF-8" standalone="no"?>
<svg xmlns="http://www.w3.org/2000/svg" width="4558" height="2057"><path id="path194" d="m 308,1413 q -15,0 -29.5,14 -14.5,14 -26.5,50 -1,3 -6,22 -5,19 -13.5,49 -8.5,30 -18.5,67 -10,37 -20,76 -25,91 -54,204 h 40 l -6,15 H 0 l 5,-15 h 40 l 115,-429 q 10,-39 35,-53 -42,0 -72,5.5 -30,5.5 -51,24.5 -15,14 -30.5,35 -15.5,21 -29.5,45 l -12,-6 q 13,-26 17.5,-53 4.5,-27 6.5,-48 1,-7 17.5,-13 16.5,-6 62.5,-6 h 317 q 14,0 24,3 10,3 10,9 0,6 -8,14 -8,8 -19,25 -10,16 -21.5,40 -11.5,24 -16.5,42 l -12,-6 q 3,-11 6,-29.5 3,-18.5 3,-44.5 0,-15 -16,-26 -16,-11 -63,-11 z M 59,1974 q 0,-6 1.5,-13 1.5,-7 5,-13.5 3.5,-6.5 9.5,-11 6,-4.5 16,-4.5 15,0 24,11 9,11 9,25 0,12 -7,27 -7,15 -18,29 -11,14 -24,23.5 -13,9.5 -24,9.5 -9,0 -9,-6 0,-5 6,-9 7,-5 17.5,-14.5 Q 76,2018 78,1998 68,1998 63.5,1990.5 59,1983 59,1974 Z"></path></svg>
