<?xml version="1.0" encoding="UTF-8" standalone="no"?>
<svg xmlns="http://www.w3.org/2000/svg" width="4558" height="2057"><path id="path490" d="m 407,1902 q 13,-47 29.5,-98 16.5,-51 28.5,-96 -31,-19 -48,-47.5 -17,-28.5 -17,-63.5 0,-28 12.5,-55 12.5,-27 34.5,-53 -14,-27 -33,-51 -37,30 -72,61 -35,31 -69.5,56 -34.5,25 -70,40.5 Q 167,1611 130,1611 104,1611 80.5,1604 57,1597 39,1583.5 21,1570 10.5,1551 0,1532 0,1507 q 0,-36 21,-67 21,-31 55,-54.5 34,-23.5 76,-37 42,-13.5 84,-13.5 59,0 104,22.5 45,22.5 77,56.5 28,-22 59,-42.5 31,-20.5 65,-36.5 34,-16 71.5,-25 37.5,-9 78.5,-9 40,0 77,8.5 37,8.5 65.5,28 28.5,19.5 46,50 17.5,30.5 17.5,75.5 0,53 -27.5,102.5 -27.5,49.5 -72.5,87.5 -45,38 -102,61 -57,23 -116,23 -23,0 -44,-3 -9,29 -16.5,56.5 L 505,1840 q -7,26 -13,48 15,-18 34,-33.5 19,-15.5 38,-27 19,-11.5 37,-18 18,-6.5 32,-6.5 18,0 32,9 14,9 14,30 0,18 -7,36 -7,18 -15.5,36 -8.5,18 -15.5,37 -7,19 -7,39 0,13 5,17 5,4 10,4 7,0 15,-4.5 8,-4.5 16,-10.5 9,-6 17,-15 l 8,8 q -16,18 -33,31 -15,12 -33,21.5 -18,9.5 -36,9.5 -23,0 -41.5,-10.5 Q 543,2030 543,2003 q 0,-20 8.5,-39.5 8.5,-19.5 19,-38.5 10.5,-19 19,-36 8.5,-17 8.5,-31 0,-15 -11,-15 -11,0 -36,14 -25,14 -56,52 -10,12 -18,31.5 -8,19.5 -14,39.5 -6,20 -9,36.5 -3,16.5 -3,21.5 0,15 -14,15 -8,0 -21,-2 -13,-2 -26,-2 -14,0 -24,4 -10,4 -13,4 -4,0 -4,-4 0,-3 6,-9 6,-6 12,-18 12,-21 20,-50 8,-29 20,-74 z m 179,-316 q -8,14 -20.5,51 -12.5,37 -26.5,82 23,5 45,5 52,0 100.5,-22.5 48.5,-22.5 85.5,-59.5 37,-37 59.5,-84 22.5,-47 22.5,-95 0,-40 -12,-68.5 -12,-28.5 -33.5,-46.5 -21.5,-18 -51,-26 -29.5,-8 -64.5,-8 -39,0 -74.5,9 -35.5,9 -68,24.5 -32.5,15.5 -62.5,36 -30,20.5 -58,42.5 19,23 33,48 38,-38 90.5,-62.5 Q 604,1387 657,1387 q 63,0 92.5,26.5 29.5,26.5 29.5,71.5 0,20 -7,37 -7,17 -19,30 -12,13 -27,20 -15,7 -31,7 -19,0 -28.5,-8.5 -9.5,-8.5 -9.5,-19.5 0,-11 6.5,-19.5 6.5,-8.5 18.5,-8.5 9,0 14,3.5 5,3.5 8.5,7 3.5,3.5 7.5,7 4,3.5 11,3.5 15,0 28.5,-16 13.5,-16 13.5,-46 0,-35 -26.5,-59 -26.5,-24 -80.5,-24 -53,0 -102,29.5 -49,29.5 -81,71.5 13,29 19.5,56 6.5,27 6.5,48 11,-32 41,-44 10,-4 18,-7 8,-3 17,-6.5 9,-3.5 19.5,-8 Q 607,1534 623,1526 l 5,10 q -7,5 -14,12 -6,6 -13.5,15.5 -7.5,9.5 -14.5,22.5 z m -440,4 q 31,0 62,-14.5 31,-14.5 62.5,-38 31.5,-23.5 64.5,-53 33,-29.5 69,-59.5 -31,-34 -72.5,-56 -41.5,-22 -95.5,-22 -37,0 -71.5,10.5 -34.5,10.5 -61,30.5 -26.5,20 -42.5,48 -16,28 -16,64 0,42 26.5,66 26.5,24 74.5,24 z m 334,28 q 0,-46 -20,-98 -25,41 -25,77 0,51 36,87 4,-19 6.5,-35.5 2.5,-16.5 2.5,-30.5 z"></path></svg>
