<?xml version="1.0" encoding="UTF-8" standalone="no"?>
<svg xmlns="http://www.w3.org/2000/svg" width="4558" height="2057"><path id="path312" d="m 389,1408 q 9,-10 22,-18.5 13,-8.5 27,-15.5 14,-7 27.5,-11 13.5,-4 24.5,-4 27,0 50,18.5 23,18.5 23,59.5 0,31 -12,61.5 -12,30.5 -32,54.5 -20,24 -47,38.5 -27,14.5 -57,14.5 -36,0 -56,-16 -20,-16 -27,-33 -17,18 -31.5,27.5 -14.5,9.5 -27.5,14.5 -13,5 -23,6 -10,1 -17,1 v -7 q 13,-6 22.5,-20.5 9.5,-14.5 17,-37 7.5,-22.5 15,-51 7.5,-28.5 15.5,-62.5 -56,45 -105.5,93 -49.5,48 -86.5,99.5 -37,51.5 -59,107 -22,55.5 -22,116.5 0,31 11.5,55.5 11.5,24.5 32,42 20.5,17.5 47.5,26.5 27,9 59,9 66,0 130,-17 64,-17 127.5,-42 63.5,-25 127.5,-54.5 64,-29.5 130.5,-54.5 66.5,-25 137,-42 70.5,-17 147.5,-17 46,0 80.5,12 34.5,12 57,32.5 22.5,20.5 33.5,47 11,26.5 11,55.5 0,39 -14.5,69 -14.5,30 -37.5,50 -23,20 -51.5,30.5 -28.5,10.5 -56.5,10.5 -19,0 -36,-6 -17,-6 -17,-21 0,-11 7.5,-19 7.5,-8 19.5,-8 9,0 14,4.5 5,4.5 9.5,10.5 4.5,6 10,10.5 5.5,4.5 14.5,4.5 16,0 36.5,-8.5 20.5,-8.5 39,-25.5 18.5,-17 31,-43 12.5,-26 12.5,-62 0,-25 -10.5,-47.5 -10.5,-22.5 -32,-40 -21.5,-17.5 -53.5,-27.5 -32,-10 -74,-10 -72,0 -141.5,20 -69.5,20 -137,49.5 -67.5,29.5 -133,64.5 -65.5,35 -131,64.5 Q 365,1997 300,2017 q -65,20 -130,20 -39,0 -70.5,-12.5 Q 68,2012 46,1989.5 24,1967 12,1936 0,1905 0,1867 q 0,-70 25.5,-134 25.5,-64 68,-122 42.5,-58 98.5,-111 56,-53 118,-103 38,-146 75.5,-258 37.5,-112 80.5,-188 43,-76 95,-115 52,-39 120,-39 29,0 52.5,10 23.5,10 40,27 16.5,17 25.5,38.5 9,21.5 9,45.5 0,56 -35,109 -35,53 -91.5,105.5 -56.5,52.5 -128.5,106 -72,53.5 -147,109.5 -5,14 -8.5,29 -3.5,15 -8.5,31 z M 699,853 q -46,0 -83.5,28.5 -37.5,28.5 -71,86 -33.5,57.5 -65,144.5 -31.5,87 -65.5,205 65,-48 129.5,-96.5 Q 608,1172 659,1124 q 51,-48 83,-95.5 32,-47.5 32,-93.5 0,-42 -20,-62 -20,-20 -55,-20 z m -246,535 q -6,0 -16.5,4.5 -10.5,4.5 -22,13.5 -11.5,9 -22.5,22.5 -11,13.5 -17,31.5 -3,7 -6.5,18.5 -3.5,11.5 -7,23.5 -3.5,12 -6,23 -2.5,11 -2.5,16 0,24 14,32.5 14,8.5 27,8.5 16,0 30.5,-15.5 14.5,-15.5 26,-39 11.5,-23.5 18,-50 6.5,-26.5 6.5,-49.5 0,-40 -22,-40 z"></path></svg>
