<?xml version="1.0" encoding="UTF-8" standalone="no"?>
<svg xmlns="http://www.w3.org/2000/svg" width="4558" height="2057"><path id="path81" d="m 1050,1605 q -40,122 -88,208 -48,86 -105,140 -57,54 -124,79 -67,25 -144,25 -57,0 -106.5,-16 -49.5,-16 -89.5,-44.5 -40,-28.5 -67,-66.5 -27,-38 -39,-82 h -4 q -52,0 -103,-15 -51,-15 -91,-47.5 Q 49,1753 24.5,1703 0,1653 0,1583 0,1515 22,1454.5 44,1394 82.5,1343 q 38.5,-51 91.5,-92 53,-41 115,-69.5 62,-28.5 131,-43.5 69,-15 139,-15 112,0 200.5,36.5 88.5,36.5 138.5,102.5 11,-2 20.5,-2 H 938 q 27,0 55.5,3 28.5,3 54,7 25.5,4 46,7 20.5,3 31.5,3 18,0 35.5,-3 17.5,-3 33.5,-11 l 5,9 q -8,6 -15,14 -14,14 -28,36 -7,11 -15,28 -8,17 -19,45.5 -11,28.5 -25.5,71 -14.5,42.5 -35.5,104.5 46,19 90,35 44,16 83,23 11,-36 24,-72 13,-36 26.5,-68.5 13.5,-32.5 27,-61 13.5,-28.5 26.5,-49.5 22,-36 47,-58.5 25,-22.5 49,-35 24,-12.5 45,-17 21,-4.5 35,-4.5 22,0 36,5 14,5 14,14 0,8 -6,13.5 -6,5.5 -13,5.5 -5,0 -7,-3 -2,-3 -4.5,-6 -2.5,-3 -7,-6 -4.5,-3 -14.5,-3 -14,0 -25.5,9 -11.5,9 -22.5,25 -11,16 -22.5,38.5 -11.5,22.5 -24.5,48.5 -7,13 -16,35.5 -9,22.5 -19,51 -10,28.5 -20.5,62 -10.5,33.5 -20.5,67.5 23,-9 37,-21 14,-12 21,-20 l 7,8 q -8,10 -24.5,26.5 -16.5,16.5 -46.5,27.5 -17,58 -28,110 -11,52 -11,81 0,11 3.5,14 3.5,3 8.5,3 6,0 14,-4.5 8,-4.5 15,-10.5 8,-7 17,-16 l 8,8 q -16,18 -32,31 -14,12 -30.5,21.5 -16.5,9.5 -31.5,9.5 -27,0 -50,-14 -23,-14 -23,-49 0,-32 9,-78 9,-46 23,-97 -40,-5 -84.5,-18.5 Q 1098,1621 1050,1605 Z m -81,-70 q 21,-52 37,-90.5 16,-38.5 31,-66 15,-27.5 30.5,-46 15.5,-18.5 36.5,-31.5 -31,-6 -63,-11 -27,-4 -59,-7.5 -32,-3.5 -60,-3.5 h -12 q 40,62 40,140 0,53 -19,102 z m -16,39 q -11,-3 -21,-6 -10,-3 -21,-5 -30,51 -76.5,80 -46.5,29 -96.5,29 -26,0 -50.5,-4.5 Q 663,1663 643,1653 q -5,11 -6.5,22 -1.5,11 -1.5,22 0,23 4.5,39 4.5,16 10.5,27 7,12 16,20 l -9,9 q -17,-13 -29,-31 -11,-16 -19.5,-39.5 -8.5,-23.5 -8.5,-56.5 0,-17 5,-37 -21,-20 -33,-47.5 -12,-27.5 -12,-64.5 0,-55 27.5,-98 27.5,-43 71.5,-74.5 44,-31.5 99,-51 55,-19.5 111,-27.5 -51,-57 -133,-89 -82,-32 -179,-32 -96,0 -183.5,33.5 Q 286,1211 219,1269.5 152,1328 112.5,1409 73,1490 73,1584 q 0,57 17.5,102.5 17.5,45.5 47,77 29.5,31.5 67,48 37.5,16.5 78.5,17.5 -3,-19 -3,-41 0,-41 13.5,-71.5 13.5,-30.5 33.5,-51 20,-20.5 44.5,-31 24.5,-10.5 45.5,-10.5 33,0 51,18.5 18,18.5 18,50.5 0,23 -10,47.5 -10,24.5 -30.5,46 -20.5,21.5 -51,37 -30.5,15.5 -71.5,21.5 23,69 86,101 63,32 150,32 67,0 122.5,-28 55.5,-28 103,-80.5 47.5,-52.5 89,-127 Q 915,1668 953,1574 Z m -37,-58 q 8,-22 12,-45.5 4,-23.5 4,-49.5 0,-39 -13,-74 -13,-35 -36,-65 -45,6 -92.5,25 -47.5,19 -86.5,50 -39,31 -63.5,73.5 -24.5,42.5 -24.5,95.5 0,17 1.5,31.5 1.5,14.5 6.5,27.5 23,-39 66,-67 43,-28 100,-28 29,0 60.5,7.5 31.5,7.5 65.5,18.5 z m -449,175 q 0,-20 -12,-35 -12,-15 -40,-15 -16,0 -34,8.5 -18,8.5 -33.5,25 -15.5,16.5 -25.5,40 -10,23.5 -10,54.5 0,32 6,59 37,-4 65,-18 28,-14 47,-33 19,-19 28,-41.5 9,-22.5 9,-44.5 z m 428,-132 q -23,-5 -46,-8.5 -23,-3.5 -44,-3.5 -54,0 -93,24.5 -39,24.5 -59,59.5 28,25 84,25 48,0 89.5,-26 41.5,-26 68.5,-71 z"></path></svg>
