<?xml version="1.0" encoding="UTF-8" standalone="no"?>
<svg xmlns="http://www.w3.org/2000/svg" width="4558" height="2057"><path id="path184" d="m 252,1404 q -45,0 -64,26 -19,26 -19,62 0,27 11,47 11,20 27.5,38 16.5,18 35.5,35 19,17 35.5,37 16.5,20 27.5,45 11,25 11,59 0,40 -17,68.5 -17,28.5 -43.5,46.5 -26.5,18 -57.5,26.5 -31,8.5 -58,8.5 -32,0 -58,-10 Q 57,1883 38.5,1869.5 20,1856 10,1841 0,1826 0,1816 q 0,-7 6.5,-16 6.5,-9 16,-20 9.5,-11 19,-24 9.5,-13 15.5,-30 l 13,5 q -2,6 -4,15 -2,9 -3.5,19 -1.5,10 -2.5,18.5 -1,8.5 -1,14.5 0,15 5,30 5,15 16,27.5 11,12.5 28,20 17,7.5 41,7.5 32,0 51.5,-24 19.5,-24 19.5,-75 0,-33 -11,-57.5 -11,-24.5 -28,-44 -17,-19.5 -36.5,-37 Q 125,1628 108,1609.5 91,1591 80,1569 q -11,-22 -11,-51 0,-32 17.5,-57 17.5,-25 44,-41.5 26.5,-16.5 56.5,-25 30,-8.5 54,-8.5 16,0 37,2.5 21,2.5 39.5,7 18.5,4.5 31.5,12 13,7.5 13,17.5 0,7 -7,15.5 -7,8.5 -16.5,20.5 -9.5,12 -19.5,27 -10,15 -16,36 l -12,-6 q 5,-20 7.5,-39 2.5,-19 2.5,-36 0,-17 -13,-28 -13,-11 -36,-11 z m -120,570 q 0,-6 1.5,-13 1.5,-7 5,-13.5 3.5,-6.5 9.5,-11 6,-4.5 16,-4.5 15,0 24,11 9,11 9,25 0,12 -7,27 -7,15 -18,29 -11,14 -24,23.5 -13,9.5 -24,9.5 -9,0 -9,-6 0,-5 6,-9 7,-5 17.5,-14.5 10.5,-9.5 12.5,-29.5 -10,0 -14.5,-7.5 Q 132,1983 132,1974 Z"></path></svg>
