<?xml version="1.0" encoding="UTF-8" standalone="no"?>
<svg xmlns="http://www.w3.org/2000/svg" width="4558" height="2057"><path id="path535" d="m 187,2003 q 50,0 89.5,-33 39.5,-33 69.5,-86 30,-53 52,-118.5 22,-65.5 38,-130 16,-64.5 27,-122 11,-57.5 19,-93.5 5,-22 13.5,-34.5 Q 504,1373 519,1364 h -7.5 q 0,0 -10.5,-1 -9,0 -17,-2 -4,-1 -7,-2 l 8,-12 8,2 q 5,1 21,1 17,0 43,-4.5 26,-4.5 58,-18.5 l 5,9 q -8,6 -15,13 -6,6 -13.5,15.5 -7.5,9.5 -13.5,20.5 -13,23 -19,43.5 -6,20.5 -12,45.5 -11,43 -19.5,102.5 -8.5,59.5 -22,124.5 -13.5,65 -34.5,128.5 -21,63.5 -56,114 -35,50.5 -86.5,82 Q 277,2057 203,2057 153,2057 115,2043 77,2029 51.5,2005.5 26,1982 13,1951 0,1920 0,1887 q 0,-40 14.5,-70.5 14.5,-30.5 36,-51 21.5,-20.5 48,-30.5 26.5,-10 50.5,-10 39,0 63.5,19 24.5,19 24.5,56 0,36 -20.5,58.5 -20.5,22.5 -47.5,22.5 -17,0 -29.5,-8 -12.5,-8 -12.5,-21 0,-10 7,-17.5 7,-7.5 18,-7.5 8,0 12,4.5 4,4.5 7,10 3,5.5 5.5,10 2.5,4.5 8.5,4.5 9,0 24,-13.5 15,-13.5 15,-42.5 0,-32 -21,-47.5 -21,-15.5 -53,-15.5 -24,0 -46,9.5 -22,9.5 -38.5,27 -16.5,17.5 -26,42 -9.5,24.5 -9.5,55.5 0,28 9.5,52 9.5,24 29,42 19.5,18 49,28 29.5,10 69.5,10 z m 364,-747 q 0,-10 5,-21.5 5,-11.5 13,-20.5 8,-9 17.5,-15 9.5,-6 18.5,-6 13,0 22,8.5 9,8.5 9,22.5 0,11 -4.5,22.5 -4.5,11.5 -11.5,21.5 -7,10 -16.5,16 -9.5,6 -18.5,6 -13,0 -23.5,-9 -10.5,-9 -10.5,-25 z"></path></svg>
