<?xml version="1.0" encoding="UTF-8" standalone="no"?>
<svg xmlns="http://www.w3.org/2000/svg" width="4558" height="2057"><path id="path812" d="m 523,1528 q 2,16 3.5,32.5 1.5,16.5 1.5,35.5 0,113 -32,199 -32,86 -85,144.5 -53,58.5 -121.5,88 Q 221,2057 149,2057 112,2057 84,2046 56,2035 37.5,2016 19,1997 9.5,1971.5 0,1946 0,1917 q 0,-63 33.5,-126 33.5,-63 92,-117 58.5,-54 137.5,-94.5 79,-40.5 169,-57.5 -6,-42 -18,-73 -12,-31 -23.5,-59.5 -11.5,-28.5 -20,-58.5 -8.5,-30 -8.5,-72 0,-24 10.5,-42.5 10.5,-18.5 26.5,-31 16,-12.5 35,-18.5 19,-6 36,-6 28,0 48.5,14 20.5,14 20.5,36 0,19 -11.5,30.5 -11.5,11.5 -25.5,11.5 -15,0 -24,-7.5 -9,-7.5 -9,-18.5 0,-13 7.5,-19.5 7.5,-6.5 7.5,-18.5 0,-8 -5,-11.5 -5,-3.5 -10,-3.5 -15,0 -25,16 -10,16 -10,48 0,38 10.5,69 10.5,31 24.5,61.5 14,30.5 29,64.5 15,34 23,79 69,0 123.5,10.5 54.5,10.5 92.5,33 38,22.5 58.5,57.5 20.5,35 20.5,83 0,29 -12.5,47 -12.5,18 -26.5,18 -26,0 -26,-25 0,-10 5.5,-15.5 5.5,-5.5 12,-11 6.5,-5.5 12,-13.5 5.5,-8 5.5,-23 0,-68 -69,-106.5 Q 648,1528 523,1528 Z m -85,73 q 0,-17 -1,-32.5 -1,-15.5 -3,-29.5 -84,17 -157.5,56.5 -73.5,39.5 -128,91 -54.5,51.5 -86,111 Q 31,1857 31,1914 q 0,32 21,53.5 21,21.5 65,21.5 60,0 117.5,-31.5 Q 292,1926 337,1873 q 45,-53 73,-123.5 28,-70.5 28,-148.5 z m 29,-469 q -8,0 -19.5,-12 -11.5,-12 -21.5,-27 -10,-15 -17,-30 -7,-15 -7,-21 0,-9 9,-9 3,0 10,8.5 7,8.5 15.5,19 8.5,10.5 18.5,19 10,8.5 20,8.5 13,0 28,-8.5 15,-8.5 27.5,-19 12.5,-10.5 22,-19 9.5,-8.5 11.5,-8.5 9,0 9,8 0,4 -13,19 -13,15 -30.5,31 -17.5,16 -35.5,28.5 -18,12.5 -27,12.5 z"></path></svg>
