<?xml version="1.0" encoding="UTF-8" standalone="no"?>
<svg xmlns="http://www.w3.org/2000/svg" width="4558" height="2057"><path id="path721" d="m 145,1655 q 3,0 3,4 0,15 5.5,25 5.5,10 14.5,16 9,6 19,8.5 10,2.5 19,2.5 38,0 64,-24 26,-24 26,-59 0,-36 -22,-53.5 -22,-17.5 -60,-17.5 -30,0 -62,11.5 -32,11.5 -59,33.5 -27,22 -44.5,53.5 Q 31,1687 31,1726 q 0,28 10.5,49.5 10.5,21.5 29,35.5 18.5,14 44,21.5 25.5,7.5 54.5,7.5 57,0 108,-16 51,-16 98.5,-39.5 47.5,-23.5 93.5,-51 46,-27.5 95,-51 49,-23.5 101.5,-39.5 52.5,-16 113.5,-16 54,0 99,12 45,12 77.5,35.5 32.5,23.5 50.5,57.5 18,34 18,78 0,53 -26.5,98 -26.5,45 -70,78 -43.5,33 -99.5,52 -56,19 -116,19 -41,0 -79.5,-8.5 -38.5,-8.5 -69,-26.5 -30.5,-18 -49,-45.5 Q 496,1949 496,1911 q 0,-33 16,-61.5 16,-28.5 42,-50 26,-21.5 59,-33.5 33,-12 66,-12 39,0 65,17.5 26,17.5 26,46.5 0,13 -5,24.5 -5,11.5 -12.5,19.5 -7.5,8 -16,13 -8.5,5 -15.5,5 -3,0 -6,-1 -3,-1 -3,-4 0,-2 3,-2.5 3,-0.5 5,-1.5 17,-5 27.5,-18 10.5,-13 10.5,-32 0,-23 -22,-34.5 -22,-11.5 -53,-11.5 -25,0 -50,11 -25,11 -44.5,29 -19.5,18 -31.5,42 -12,24 -12,51 0,32 14.5,57 14.5,25 39.5,42 25,17 56.5,26 31.5,9 66.5,9 54,0 99.5,-19.5 45.5,-19.5 77.5,-51.5 32,-32 50,-74.5 18,-42.5 18,-87.5 0,-83 -49,-126 -49,-43 -140,-43 -61,0 -113.5,19 -52.5,19 -101,48 -48.5,29 -94.5,62 -46,33 -92,62 -46,29 -95,48 -49,19 -103,19 -40,0 -73,-12.5 Q 73,1873 49.5,1851.5 26,1830 13,1800 0,1770 0,1735 q 0,-44 21,-79 21,-35 52.5,-59.5 31.5,-24.5 69.5,-37.5 38,-13 71,-13 48,0 81,21.5 33,21.5 33,64.5 0,22 -9,41.5 -9,19.5 -24,34.5 -15,15 -35,23.5 -20,8.5 -42,8.5 -37,0 -58.5,-21.5 Q 138,1697 138,1668 q 0,-13 7,-13 z"></path></svg>
