<?xml version="1.0" encoding="UTF-8" standalone="no"?>
<svg xmlns="http://www.w3.org/2000/svg" width="4558" height="2057"><path id="path699" d="m 151,1776 q -38,0 -64,-21.5 -26,-21.5 -26,-53.5 0,-12 6.5,-20.5 6.5,-8.5 18.5,-8.5 8,0 13.5,5.5 5.5,5.5 5.5,13.5 0,11 -4.5,15 -4.5,4 -4.5,12 0,16 15,29.5 15,13.5 42,13.5 29,0 50.5,-15.5 21.5,-15.5 21.5,-40.5 0,-16 7.5,-24.5 7.5,-8.5 17.5,-8.5 8,0 13,5.5 5,5.5 5,13.5 0,11 -9,25.5 -9,14.5 -25,27.5 -16,13 -37,22.5 -21,9.5 -46,9.5 z m 4,48 q -17,0 -25.5,6.5 -8.5,6.5 -8.5,16.5 0,9 2.5,12.5 2.5,3.5 2.5,16.5 0,13 -9.5,24 -9.5,11 -26.5,11 -17,0 -28.5,-11.5 Q 50,1888 50,1871 q 0,-13 9,-24.5 9,-11.5 23.5,-20.5 14.5,-9 33.5,-14.5 19,-5.5 39,-5.5 49,0 80.5,23.5 31.5,23.5 31.5,66.5 0,35 -14,64 -14,29 -36.5,51 -22.5,22 -51,34 -28.5,12 -56.5,12 -48,0 -78.5,-21.5 Q 0,2014 0,1968 0,1943 10.5,1920.5 21,1898 36,1875 q 2,17 10.5,26.5 8.5,9.5 17.5,14.5 11,6 24,8 -4,10 -7,21 -3,10 -5,23.5 -2,13.5 -2,29.5 0,20 9.5,30.5 9.5,10.5 26.5,10.5 15,0 29,-15.5 14,-15.5 25,-40 11,-24.5 18,-55.5 7,-31 7,-63 0,-41 -34,-41 z"></path></svg>
