<?xml version="1.0" encoding="UTF-8" standalone="no"?>
<svg xmlns="http://www.w3.org/2000/svg" width="4558" height="2057"><path id="path495" d="m 425,1682 q 24,0 49,-1.5 25,-1.5 51,-5.5 l 20,-64 q 0,0 21,-63 39,-114 90,-191.5 51,-77.5 106.5,-125 55.5,-47.5 110.5,-68 55,-20.5 102,-20.5 38,0 66,11 28,11 46,29 18,18 27,41 9,23 9,47 0,68 -42.5,131.5 -42.5,63.5 -114,117 Q 895,1573 803,1614 q -92,41 -191,64 -18,54 -34.5,106 -16.5,52 -32.5,104 15,-18 34,-33.5 19,-15.5 38,-27 19,-11.5 37,-18 18,-6.5 32,-6.5 18,0 32,9 14,9 14,30 0,18 -7,36 -7,18 -15.5,36 -8.5,18 -15.5,37 -7,19 -7,39 0,13 5,17 5,4 10,4 7,0 15,-4.5 8,-4.5 16,-10.5 9,-6 17,-15 l 8,8 q -16,18 -33,31 -15,12 -33,21.5 -18,9.5 -36,9.5 -23,0 -41.5,-10.5 Q 596,2030 596,2003 q 0,-20 8.5,-39.5 8.5,-19.5 19,-38.5 10.5,-19 19,-36 8.5,-17 8.5,-31 0,-15 -11,-15 -11,0 -36,14 -25,14 -56,52 -10,12 -18,31.5 -8,19.5 -14,39.5 -6,20 -9,36.5 -3,16.5 -3,21.5 0,15 -14,15 -8,0 -21,-2 -13,-2 -26,-2 -14,0 -24,4 -10,4 -13,4 -4,0 -4,-4 0,-3 6,-9 6,-6 12,-18 12,-21 20.5,-50 8.5,-29 20.5,-74 14,-48 28,-100.5 14,-52.5 30,-106.5 -29,4 -57,5.5 -28,1.5 -56,1.5 -77,0 -150,-15.5 Q 183,1671 126,1635 69,1599 34.5,1539.5 0,1480 0,1393 q 0,-92 39,-172 39,-80 103,-139.5 64,-59.5 145,-93.5 81,-34 165,-34 101,0 159,43.5 58,43.5 58,118.5 0,47 -25.5,94 -25.5,47 -66.5,85 -41,38 -93.5,61.5 Q 431,1380 377,1380 q -56,0 -87.5,-25 -31.5,-25 -31.5,-68 0,-20 8.5,-35.5 8.5,-15.5 22.5,-15.5 8,0 13.5,5 5.5,5 5.5,13 0,7 -4.5,11.5 -4.5,4.5 -10,9 -5.5,4.5 -10,10 -4.5,5.5 -4.5,14.5 0,30 25,47.5 25,17.5 73,17.5 48,0 91,-21.5 43,-21.5 75.5,-56 32.5,-34.5 51.5,-78.5 19,-44 19,-88 0,-66 -39,-108.5 Q 536,969 451,969 q -50,0 -99,15 -49,15 -93,43 -44,28 -81.5,66.5 -37.5,38.5 -65,85 -27.5,46.5 -43,100 Q 54,1332 54,1389 q 0,83 30.5,139 30.5,56 82,90.5 51.5,34.5 118.5,49 67,14.5 140,14.5 z m 194,-25 q 91,-22 176.5,-60.5 85.5,-38.5 152,-88 66.5,-49.5 107,-106.5 40.5,-57 40.5,-116 0,-37 -22.5,-59.5 -22.5,-22.5 -65.5,-22.5 -39,0 -86.5,20 -47.5,20 -98.5,71 -51,51 -103,139 -52,88 -100,223 z"></path></svg>
