<?xml version="1.0" encoding="UTF-8" standalone="no"?>
<svg xmlns="http://www.w3.org/2000/svg" width="4558" height="2057"><path id="path771" d="m 299,1622 q -16,20 -41.5,39 -25.5,19 -52.5,19 -35,0 -58,-20.5 -23,-20.5 -23,-55.5 0,-36 16.5,-67 16.5,-31 41,-54.5 24.5,-23.5 53.5,-37 29,-13.5 54,-13.5 29,0 44,13 15,13 17,33 5,-15 18,-25 13,-10 39,-14 12,-2 21,-4.5 9,-2.5 15,-5.5 7,-4 12,-7 l 6,11 q -7,5 -14,11 -6,5 -13,13.5 -7,8.5 -13,19.5 -5,9 -10,23.5 -5,14.5 -13.5,41.5 -8.5,27 -20,70 -11.5,43 -28.5,108 59,7 95.5,32 36.5,25 36.5,64 0,29 -21.5,57 -21.5,28 -51,52.5 -29.5,24.5 -60.5,44.5 -31,20 -50,35 -26,20 -41.5,36 -15.5,16 -17.5,16 -8,0 -16,-6.5 -8,-6.5 -8,-15.5 0,-22 4.5,-56.5 4.5,-34.5 12.5,-75 8,-40.5 17.5,-84.5 9.5,-44 20.5,-87 -51,5 -97,21 -46,16 -80.5,41.5 -34.5,25.5 -55,58.5 -20.5,33 -20.5,71 0,17 5,29 5,12 12,19 7,7 15.5,10 8.5,3 14.5,3 7,0 11.5,-3.5 4.5,-3.5 9,-8 4.5,-4.5 9,-8 4.5,-3.5 11.5,-3.5 9,0 14,5.5 5,5.5 5,13.5 0,12 -12.5,21 -12.5,9 -29.5,9 -13,0 -27.5,-5 -14.5,-5 -26.5,-15 -12,-10 -20,-26 -8,-16 -8,-39 0,-42 22,-77.5 22,-35.5 59.5,-63 37.5,-27.5 87,-44.5 49.5,-17 104.5,-22 z m 125,184 q 0,-26 -18,-46.5 -18,-20.5 -60,-27.5 -9,35 -17,70 -8,35 -14,68 -6,33 -9.5,61.5 -3.5,28.5 -3.5,50.5 16,-13 37,-28.5 21,-15.5 40,-36 19,-20.5 32,-48 13,-27.5 13,-63.5 z M 239,1649 q 17,0 39,-22 22,-22 36,-51 3,-7 7,-19 4,-12 7,-24.5 3,-12.5 5,-23.5 2,-11 2,-17 0,-18 -8.5,-30 -8.5,-12 -27.5,-12 -18,0 -34,14 -16,14 -27.5,36 -11.5,22 -18,47.5 -6.5,25.5 -6.5,47.5 0,54 26,54 z"></path></svg>
