<?xml version="1.0" encoding="UTF-8" standalone="no"?>
<svg xmlns="http://www.w3.org/2000/svg" width="4558" height="2057"><path id="path119" d="m 550,1747 -214,310 h -33 l 23,-327 q -15,30 -32,65.5 -17,35.5 -36.5,72 -19.5,36.5 -40.5,70.5 -21,34 -43,60.5 -22,26.5 -45,42.5 -23,16 -46,16 -17,0 -30,-9 -13,-9 -23,-21.5 Q 20,2014 12.5,1999.5 5,1985 0,1973 l 8,-10 q 7,7 16,12 8,5 17.5,8.5 9.5,3.5 22.5,3.5 35,0 70.5,-29.5 35.5,-29.5 68,-72.5 32.5,-43 61,-92.5 28.5,-49.5 49.5,-90.5 19,-36 35.5,-65 16.5,-29 27.5,-50 13,-24 24,-43 h 33 l -28,376 262,-380 h 35 l -134,502 h 40 l -6,15 H 428 l 4,-15 h 40 z"></path></svg>
