<?xml version="1.0" encoding="UTF-8" standalone="no"?>
<svg xmlns="http://www.w3.org/2000/svg" width="4558" height="2057"><path id="path979" d="m 778,1051 q 5,-22 11.5,-37 6.5,-15 15.5,-24 9,-9 21.5,-14 12.5,-5 29.5,-7 22,-3 36,-10 7,-4 12,-7 l 6,12 q -5,2 -9,6 -4,3 -9,8 -5,5 -10,11 -14,19 -23.5,42 -9.5,23 -19.5,65 -21,92 -46,180.5 -25,88.5 -56,169.5 -31,81 -68.5,153 -37.5,72 -83.5,129 46,36 96,69.5 50,33.5 105.5,60 55.5,26.5 117,42.5 61.5,16 131.5,16 123,0 210.5,-44.5 87.5,-44.5 131.5,-122.5 -19,5 -37,7.5 -18,2.5 -36,2.5 -57,0 -98.5,-26 -41.5,-26 -64.5,-61 -23,24 -59,41.5 -36,17.5 -83,17.5 -44,0 -81,-9.5 -37,-9.5 -64,-29.5 -27,-20 -42,-51.5 -15,-31.5 -15,-75.5 0,-49 24,-96 24,-47 66.5,-84 42.5,-37 101,-59.5 58.5,-22.5 128.5,-22.5 74,0 133.5,23 59.5,23 101.5,62 42,39 64.5,91 22.5,52 22.5,111 0,17 -1.5,34.5 -1.5,17.5 -3.5,34.5 61,-18 129.5,-42.5 68.5,-24.5 139.5,-47.5 71,-23 141.5,-39 70.5,-16 135.5,-16 58,0 106,12.5 48,12.5 81.5,37 33.5,24.5 52,62 18.5,37.5 18.5,86.5 0,57 -29.5,118.5 -29.5,61.5 -82.5,111.5 -53,50 -127,82.5 -74,32.5 -163,32.5 -61,0 -108.5,-13 -47.5,-13 -80.5,-36.5 -33,-23.5 -50,-55 -17,-31.5 -17,-67.5 0,-31 14,-56 14,-25 33.5,-42.5 19.5,-17.5 39,-27 19.5,-9.5 31.5,-9.5 3,0 7,1 4,1 4,6 0,5 -4,6.5 -4,1.5 -8,2.5 -12,2 -26,10 -14,8 -26.5,21 -12.5,13 -21,31.5 -8.5,18.5 -8.5,42.5 0,27 17,48 17,21 47.5,35.5 30.5,14.5 72.5,22.5 42,8 91,8 82,0 151,-23 69,-23 118.5,-61 49.5,-38 77,-86.5 27.5,-48.5 27.5,-100.5 0,-88 -66.5,-133 -66.5,-45 -190.5,-45 -70,0 -140.5,23.5 -70.5,23.5 -139.5,56.5 -69,33 -135.5,67 -66.5,34 -128.5,55 -18,55 -49,103.5 -31,48.5 -76.5,85 -45.5,36.5 -105,58 Q 1126,2006 1052,2006 984,2006 920.5,1983.5 857,1961 797,1924 737,1887 679.5,1841.5 622,1796 567,1749 506,1819 430.5,1859 355,1899 260,1899 200,1899 152,1882.5 104,1866 70.5,1838 37,1810 18.5,1773 0,1736 0,1694 0,1654 16.5,1621.5 33,1589 60.5,1567 88,1545 123,1533 q 35,-12 73,-12 42,0 82,11.5 40,11.5 78.5,31.5 38.5,20 76.5,46.5 38,26.5 76,56.5 46,-49 84,-111 38,-62 69,-131 31,-69 54.5,-142.5 Q 740,1209 757,1137 q -29,32 -63.5,53.5 -34.5,21.5 -61.5,21.5 -23,0 -41,-13.5 -18,-13.5 -18,-40.5 0,-16 8.5,-35.5 8.5,-19.5 18.5,-38.5 10,-19 18.5,-37 8.5,-18 8.5,-33 0,-10 -7,-10 -5,0 -11,4 -6,4 -12,9 -7,6 -15,13 l -8,-9 q 6,-6 17.5,-15.5 11.5,-9.5 25,-19 13.5,-9.5 28,-16.5 14.5,-7 26.5,-7 22,0 33,9 11,9 11,24 0,15 -8,35 -8,20 -17,41 -9,21 -17,42.5 -8,21.5 -8,39.5 0,15 14,15 14,0 28.5,-10.5 14.5,-10.5 36.5,-33.5 13,-14 20,-29.5 7,-15.5 14,-44.5 z m 399,546 q 0,26 -19,54 31,34 136,34 25,0 54.5,-5.5 29.5,-5.5 61.5,-13.5 8,-38 8,-76 0,-55 -22.5,-97.5 -22.5,-42.5 -62.5,-71.5 -40,-29 -96.5,-44 -56.5,-15 -123.5,-15 -59,0 -112,19.5 -53,19.5 -92.5,49.5 -39.5,30 -62.5,67.5 -23,37.5 -23,73.5 0,70 49.5,104.5 49.5,34.5 131.5,34.5 43,0 75.5,-16 32.5,-16 52.5,-38 -12,-25 -12,-49 0,-20 10,-31.5 10,-11.5 22,-11.5 25,0 25,32 z m -954,208 q 79,0 145,-32 66,-32 123,-87 -38,-31 -75.5,-58 Q 378,1601 341,1581 304,1561 267.5,1549.5 231,1538 194,1538 q -33,0 -61.5,10 -28.5,10 -49.5,28.5 -21,18.5 -33,44 -12,25.5 -12,56.5 0,36 15.5,60.5 15.5,24.5 41.5,39.5 26,15 59,21.5 33,6.5 69,6.5 z m 918,-200 q 0,18 7,32 12,-19 12,-37 0,-15 -8,-15 -4,0 -7.5,4.5 -3.5,4.5 -3.5,15.5 z"></path></svg>
