<?xml version="1.0" encoding="UTF-8" standalone="no"?>
<svg xmlns="http://www.w3.org/2000/svg" width="4558" height="2057"><path id="path920" d="m 845,2006 q 59,-43 111,-103 52,-60 90.5,-125 38.5,-65 60.5,-129.5 22,-64.5 22,-115.5 0,-56 -39,-91.5 -39,-35.5 -108,-35.5 -66,0 -130.5,16.5 -64.5,16.5 -128,41 -63.5,24.5 -128,53 -64.5,28.5 -131,53 -66.5,24.5 -137,41 Q 257,1627 182,1627 136,1627 101.5,1614.5 67,1602 44.5,1582 22,1562 11,1535.5 0,1509 0,1480 q 0,-39 15,-69 15,-30 38,-50 23,-20 51.5,-30.5 28.5,-10.5 55.5,-10.5 21,0 37,7 16,7 16,20 0,12 -7,19.5 -7,7.5 -20,7.5 -9,0 -14,-4.5 -5,-4.5 -9.5,-10 -4.5,-5.5 -9.5,-10 -5,-4.5 -15,-4.5 -17,0 -38,8.5 -21,8.5 -39,26 -18,17.5 -30.5,43.5 -12.5,26 -12.5,60 0,26 11,49 11,23 32.5,40 21.5,17 53.5,27 32,10 74,10 72,0 141,-19.5 69,-19.5 135.5,-48.5 66.5,-29 132,-63.5 Q 663,1443 728,1414 793,1385 858.5,1365.5 924,1346 992,1346 q 40,0 71,12.5 31,12.5 52.5,34.5 21.5,22 32.5,52 11,30 11,65 0,59 -26.5,131 -26.5,72 -71.5,144 -45,72 -104.5,137.5 Q 897,1988 831,2034 q -11,8 -28,15.5 -17,7.5 -28,7.5 -9,0 -17,-3 -8,-3 -8,-11 0,-13 11,-40 11,-27 20,-86 -15,17 -33,35 -16,16 -38,36.5 -22,20.5 -49,42.5 -11,9 -28,17.5 -17,8.5 -28,8.5 -9,0 -17,-3 -8,-3 -8,-11 0,-10 7.5,-31 7.5,-21 17,-46.5 9.5,-25.5 17,-52.5 7.5,-27 7.5,-50 0,-9 -10,-9 -4,0 -10,3.5 -6,3.5 -12,8.5 -7,5 -15,12 l -7,-9 q 6,-5 17.5,-14.5 11.5,-9.5 25,-19 13.5,-9.5 28,-16.5 14.5,-7 26.5,-7 21,0 32,9 11,9 11,23 0,14 -4.5,35 -4.5,21 -10.5,43.5 -6,22.5 -13,43 -7,20.5 -11,33.5 21,-19 40.5,-38 19.5,-19 35,-37 15.5,-18 26.5,-33.5 11,-15.5 15,-26.5 6,-15 15.5,-25 9.5,-10 23.5,-10 15,0 23.5,-1.5 8.5,-1.5 13.5,-4 5,-2.5 8.5,-4 3.5,-1.5 8.5,-1.5 10,0 10,9 0,4 -3,9 -3,5 -7,15 -4,11 -9.5,31.5 -5.5,20.5 -11,43.5 -5.5,23 -11,45 -5.5,22 -9.5,35 z"></path></svg>
