<?xml version="1.0" encoding="UTF-8" standalone="no"?>
<svg xmlns="http://www.w3.org/2000/svg" width="4558" height="2057"><path id="path923" d="m 1925,1152 q 43,0 76.5,11.5 33.5,11.5 56.5,31.5 23,20 35.5,47 12.5,27 12.5,59 0,39 -15,69.5 -15,30.5 -41.5,51.5 -26.5,21 -63.5,32 -37,11 -80,11 -59,0 -133,-19 -74,-19 -159,-47 -56,69 -108,153 -52,84 -107.5,169.5 -55.5,85.5 -119,166 -63.5,80.5 -141.5,143.5 -11,8 -28,17 -17,9 -28,9 -9,0 -17,-3 -8,-3 -8,-11 0,-13 11,-40 11,-27 20,-86 -15,17 -33,35 -16,16 -38,36.5 -22,20.5 -49,42.5 -11,9 -28,17.5 -17,8.5 -28,8.5 -9,0 -17,-3 -8,-3 -8,-11 0,-10 7.5,-31 7.5,-21 17,-46.5 9.5,-25.5 17,-52.5 7.5,-27 7.5,-50 0,-9 -10,-9 -4,0 -10,3.5 -6,3.5 -12,8.5 -7,5 -15,12 l -7,-9 q 6,-5 17.5,-14.5 11.5,-9.5 25,-19 13.5,-9.5 28,-16.5 14.5,-7 26.5,-7 21,0 32,9 11,9 11,23 0,14 -4.5,35 -4.5,21 -10.5,43.5 -6,22.5 -13,43 -7,20.5 -11,33.5 21,-19 40.5,-38 19.5,-19 35,-37 15.5,-18 26.5,-33.5 11,-15.5 15,-26.5 6,-15 15.5,-25 9.5,-10 23.5,-10 15,0 23.5,-1.5 8.5,-1.5 13.5,-4 5,-2.5 8.5,-4 3.5,-1.5 8.5,-1.5 10,0 10,9 0,4 -3,9 -3,5 -7,15 -4,11 -9.5,30.5 -5.5,19.5 -11,41 -5.5,21.5 -11,42 -5.5,20.5 -9.5,33.5 63,-58 116.5,-134.5 53.5,-76.5 102.5,-159 49,-82.5 96.5,-165.5 47.5,-83 99.5,-155 -65,-21 -133,-43 -68,-22 -138,-39.5 -70,-17.5 -140.5,-28.5 -70.5,-11 -138.5,-11 -96,0 -167.5,19.5 -71.5,19.5 -119,51 -47.5,31.5 -71,70 -23.5,38.5 -23.5,77.5 0,28 14,58 73,-26 145,-54.5 72,-28.5 141,-52 69,-23.5 134,-39 65,-15.5 125,-15.5 32,0 65.5,7.5 33.5,7.5 61,22 27.5,14.5 45,37 17.5,22.5 17.5,52.5 0,47 -35.5,86 -35.5,39 -94,67.5 -58.5,28.5 -133.5,44.5 -75,16 -155,16 -57,0 -109,-10.5 -52,-10.5 -95.5,-29.5 -43.5,-19 -77,-45 -33.5,-26 -54.5,-57 -89,30 -182.5,51 -93.5,21 -191.5,21 -59,0 -106,-16 -47,-16 -80.5,-43 Q 36,1554 18,1518.5 0,1483 0,1444 0,1385 26.5,1336 53,1287 97,1252 141,1217 198.5,1197.5 256,1178 318,1178 q 48,0 86.5,10.5 38.5,10.5 65.5,27.5 27,17 42,40.5 15,23.5 15,48.5 0,26 -14.5,50 -14.5,24 -38,43 -23.5,19 -53.5,30.5 -30,11.5 -62,11.5 -51,0 -79.5,-24.5 Q 251,1391 251,1359 q 0,-18 8.5,-30.5 8.5,-12.5 19.5,-12.5 8,0 14.5,5 6.5,5 6.5,14 0,6 -3.5,10.5 -3.5,4.5 -7.5,8.5 -4,4 -7.5,8.5 -3.5,4.5 -3.5,10.5 0,18 19.5,36.5 19.5,18.5 57.5,18.5 26,0 48,-11.5 22,-11.5 37.5,-29.5 15.5,-18 24,-40 8.5,-22 8.5,-42 0,-22 -9,-42.5 -9,-20.5 -28,-36.5 -19,-16 -47.5,-26 -28.5,-10 -68.5,-10 -56,0 -101.5,19 -45.5,19 -77.5,51.5 -32,32.5 -49,75 -17,42.5 -17,90.5 0,36 12,70.5 12,34.5 37.5,61.5 25.5,27 66,43 40.5,16 97.5,16 81,0 163.5,-19.5 Q 534,1578 618,1549 q -19,-36 -19,-75 0,-46 25,-98 25,-52 76,-96 51,-44 129.5,-72.5 78.5,-28.5 185.5,-28.5 79,0 155.5,15.5 76.5,15.5 149,40.5 72.5,25 141,55 68.5,30 132.5,58 34,-43 70.5,-79 36.5,-36 77,-62 40.5,-26 86.5,-40.5 46,-14.5 98,-14.5 z m -792,261 q -47,0 -100.5,13.5 -53.5,13.5 -113,34.5 -59.5,21 -124.5,47 -65,26 -134,50 18,28 48.5,52.5 30.5,24.5 70,42.5 39.5,18 87.5,28.5 48,10.5 102,10.5 72,0 132.5,-17.5 60.5,-17.5 104.5,-45 44,-27.5 68.5,-61 24.5,-33.5 24.5,-66.5 0,-45 -44.5,-67 -44.5,-22 -121.5,-22 z m 793,-196 q -88,0 -157.5,41.5 -69.5,41.5 -129.5,110.5 77,33 145.5,56 68.5,23 128.5,23 29,0 58,-7 29,-7 52.5,-23 23.5,-16 38,-40.5 14.5,-24.5 14.5,-59.5 0,-51 -39,-76 -39,-25 -111,-25 z"></path></svg>
