<?xml version="1.0" encoding="UTF-8" standalone="no"?>
<svg xmlns="http://www.w3.org/2000/svg" width="4558" height="2057"><path id="path469" d="m 352,2057 q -71,0 -135,-21.5 Q 153,2014 105,1975 57,1936 28.5,1882.5 0,1829 0,1764 q 0,-67 27,-120 27,-53 74.5,-90 47.5,-37 111,-56 63.5,-19 137.5,-19 109,0 208.5,25.5 99.5,25.5 194.5,59.5 15,-57 25.5,-113 10.5,-56 18,-104.5 7.5,-48.5 13,-86 5.5,-37.5 9.5,-57.5 -7,10 -18,22 -11,12 -24.5,22 -13.5,10 -28.5,17 -15,7 -29,7 -37,0 -59.5,-21.5 Q 637,1228 637,1194 q 0,-36 16.5,-67 16.5,-31 41,-54.5 24.5,-23.5 53.5,-37 29,-13.5 54,-13.5 29,0 44,13 15,13 17,33 5,-15 18,-25 13,-10 39,-14 12,-2 21,-4.5 9,-2.5 15,-5.5 7,-4 12,-7 l 6,12 q -6,5 -12,11 -5,5 -12.5,13 -7.5,8 -14.5,19 -14,23 -21,43.5 -7,20.5 -13,45.5 -10,43 -14,95.5 -4,52.5 -7,110.5 -3,58 -8,119 -5,61 -15,121 97,36 191.5,63.5 94.5,27.5 192.5,27.5 59,0 109,-10.5 50,-10.5 86.5,-31.5 36.5,-21 57,-52.5 20.5,-31.5 20.5,-73.5 0,-26 -7,-43 -7,-17 -17.5,-27.5 -10.5,-10.5 -22.5,-14.5 -12,-4 -22,-4 -10,0 -16.5,4 -6.5,4 -11.5,9.5 -5,5.5 -11,9.5 -6,4 -15,4 -11,0 -18.5,-7 -7.5,-7 -7.5,-18 0,-15 16,-24 16,-9 39,-9 19,0 38.5,7.5 19.5,7.5 35.5,22 16,14.5 26.5,36.5 10.5,22 10.5,52 0,48 -20.5,93 -20.5,45 -58.5,80.5 -38,35.5 -93,57 -55,21.5 -124,21.5 -51,0 -100,-9.5 -49,-9.5 -97.5,-26 -48.5,-16.5 -96.5,-38 -48,-21.5 -96,-44.5 -13,53 -33,100 -30,69 -74.5,124.5 Q 693,1937 635,1976 q -58,39 -128.5,60 -70.5,21 -154.5,21 z m 354,-344 q 10,-25 19,-51.5 9,-26.5 17,-54.5 -46,-22 -93,-41.5 Q 602,1546 553.5,1531 505,1516 454.5,1507.5 404,1499 351,1499 q -69,0 -127,17.5 -58,17.5 -101,49.5 -43,32 -67,79 -24,47 -24,105 0,56 25,100 25,44 66.5,74.5 41.5,30.5 95,46.5 53.5,16 111.5,16 141,0 231.5,-71 90.5,-71 144.5,-203 z m 46,-474 q 17,0 39,-22 22,-22 36,-51 3,-7 7,-19 4,-12 7,-24.5 3,-12.5 5,-23.5 2,-11 2,-17 0,-18 -8,-30 -8,-12 -28,-12 -18,0 -34,14 -16,14 -27.5,36 -11.5,22 -18,47.5 -6.5,25.5 -6.5,47.5 0,54 26,54 z"></path></svg>
