<?xml version="1.0" encoding="UTF-8" standalone="no"?>
<svg xmlns="http://www.w3.org/2000/svg" width="4558" height="2057"><path id="path932" d="m 1186,1019 q 71,0 137.5,24 66.5,24 130,62.5 63.5,38.5 123.5,86 60,47.5 117,94.5 66,-76 144,-124 78,-48 172,-48 55,0 97.5,17 42.5,17 71.5,45 29,28 44,63.5 15,35.5 15,72.5 0,38 -13.5,71.5 -13.5,33.5 -37.5,58.5 -24,25 -58.5,39 -34.5,14 -76.5,14 -47,0 -90,-12 -43,-12 -83.5,-32.5 -40.5,-20.5 -80,-47.5 -39.5,-27 -78.5,-57 -62,65 -114.5,146.5 -52.5,81.5 -100.5,164.5 -48,83 -92.5,159.5 -44.5,76.5 -90.5,131.5 10,28 20.5,48.5 10.5,20.5 26.5,20.5 9,0 18.5,-4.5 9.5,-4.5 17.5,-10.5 10,-6 19,-15 l 7,8 q -17,18 -35,31 -15,12 -33.5,21.5 -18.5,9.5 -36.5,9.5 -29,0 -48,-10 -19,-10 -31,-44 -20,18 -32.5,28.5 -12.5,10.5 -22,16 -9.5,5.5 -18,7.5 -8.5,2 -18.5,2 -12,0 -24,-6.5 -12,-6.5 -12,-23.5 0,-17 12.5,-27.5 12.5,-10.5 27.5,-10.5 13,0 21,6.5 8,6.5 19,6.5 10,0 17.5,-2 7.5,-2 23.5,-14 -5,-17 -9,-37 -4,-20 -9,-43 -7,-29 -12,-40.5 -5,-11.5 -18,-11.5 -4,0 -10.5,4 -6.5,4 -12.5,9 -8,5 -16,12 l -8,-9 q 6,-5 16.5,-15 10.5,-10 23.5,-19.5 13,-9.5 27,-16.5 14,-7 25,-7 26,0 39,18 13,18 25,58 l 13,43 q 35,-49 73,-124 38,-75 81.5,-160.5 43.5,-85.5 94,-173.5 50.5,-88 109.5,-162 -49,-37 -100.5,-73.5 -51.5,-36.5 -108.5,-65 -57,-28.5 -121.5,-46 Q 1278,1109 1203,1109 q -63,0 -117,12.5 -54,12.5 -98,35 -44,22.5 -77.5,53 -33.5,30.5 -54.5,67.5 42,-11 78,-11 58,0 100,26.5 42,26.5 64,61.5 25,-28 64,-49 39,-21 87,-21 88,0 141,44 53,44 53,132 0,47 -24,93.5 -24,46.5 -67,84 -43,37.5 -102,61 -59,23.5 -129,23.5 -74,0 -133.5,-22.5 Q 928,1677 886,1635.5 844,1594 821.5,1536.5 799,1479 799,1408 q 0,-10 0.5,-20 0.5,-10 1.5,-21 -61,18 -129,43 -68,25 -138.5,47.5 -70.5,22.5 -141,38 Q 322,1511 258,1511 199,1511 151.5,1498.5 104,1486 70.5,1461.5 37,1437 18.5,1400 0,1363 0,1313 0,1256 29.5,1194 59,1132 114,1080.5 169,1029 246,995 q 77,-34 173,-34 56,0 100.5,15 44.5,15 75,40 30.5,25 47,57.5 16.5,32.5 16.5,66.5 0,31 -14,56 -14,25 -33.5,42.5 -19.5,17.5 -39.5,27 -20,9.5 -31,9.5 -3,0 -7,-1 -4,-1 -4,-6 0,-5 4,-6.5 4,-1.5 8,-2.5 12,-3 26.5,-10.5 14.5,-7.5 26.5,-21 12,-13.5 20.5,-31.5 8.5,-18 8.5,-42 0,-28 -17,-50.5 -17,-22.5 -47.5,-38 Q 528,1050 486,1042 q -42,-8 -91,-8 -83,0 -151.5,24 -68.5,24 -118,63 -49.5,39 -77,89 -27.5,50 -27.5,101 0,88 66.5,133 66.5,45 190.5,45 72,0 142,-23 70,-23 138,-55.5 68,-32.5 133,-66.5 65,-34 126,-55 16,-53 47.5,-101.5 31.5,-48.5 77,-86 45.5,-37.5 106.5,-60 61,-22.5 138,-22.5 z m -125,409 q 0,-24 20,-53 -17,-17 -50,-26 -33,-9 -87,-9 -26,0 -56,5.5 -30,5.5 -63,14.5 -2,12 -3.5,24 -1.5,12 -1.5,24 0,64 22.5,111.5 22.5,47.5 62.5,79.5 40,32 96,48 56,16 124,16 59,0 110.5,-16.5 51.5,-16.5 89,-45 37.5,-28.5 59,-68 21.5,-39.5 21.5,-84.5 0,-145 -161,-145 -44,0 -80,19.5 -36,19.5 -58,44.5 12,26 12,49 0,20 -10.5,31.5 -10.5,11.5 -21.5,11.5 -25,0 -25,-32 z m 1139,-102 q 0,-30 -13.5,-53.5 -13.5,-23.5 -38,-39.5 -24.5,-16 -58.5,-24.5 -34,-8.5 -75,-8.5 -81,0 -148,34 -67,34 -126,90 39,31 77,58.5 38,27.5 75.5,47.5 37.5,20 74.5,32 37,12 73,12 37,0 67,-11 30,-11 50,-30.5 20,-19.5 31,-47 11,-27.5 11,-59.5 z m -1103,94 q 0,-17 -6,-31 -13,21 -13,36 0,15 8,15 3,0 7,-4.5 4,-4.5 4,-15.5 z"></path></svg>
