<?xml version="1.0" encoding="UTF-8" standalone="no"?>
<svg xmlns="http://www.w3.org/2000/svg" width="4558" height="2057"><path id="path425" d="m 98,1642 q 8,0 15,11 8,12 19.5,27.5 11.5,15.5 25.5,30.5 14,15 28.5,27 14.5,12 28.5,16 6,1 6,8 0,9 -10,9 -10,0 -24.5,-3.5 -14.5,-3.5 -30,-10 -15.5,-6.5 -31.5,-16 -16,-9.5 -30,-21.5 -23,-20 -23,-38 0,-12 9,-26 9,-14 17,-14 z m 0,408 q -17,0 -34.5,-4.5 Q 46,2041 32,2031.5 18,2022 9,2007.5 0,1993 0,1972 q 0,-36 17,-66.5 17,-30.5 42,-53 25,-22.5 54.5,-35 29.5,-12.5 53.5,-12.5 30,0 50,12 20,12 20,33 0,20 -10,36 -10,16 -25.5,27 -15.5,11 -34.5,17.5 -19,6.5 -38,6.5 -8,0 -14,-2 -6,-2 -6,-7 0,-5 5,-5 14,0 27,-8 13,-8 22.5,-20.5 9.5,-12.5 15,-28.5 5.5,-16 5.5,-32 0,-13 -11,-13 -14,0 -29,13 -15,13 -27,33.5 -12,20.5 -20,45 -8,24.5 -8,47.5 0,34 13.5,47 13.5,13 31.5,13 28,0 62,-15.5 34,-15.5 68.5,-34 34.5,-18.5 68,-34 33.5,-15.5 59.5,-15.5 38,0 63.5,12.5 25.5,12.5 48,27.5 22.5,15 47.5,27.5 25,12.5 64,12.5 22,0 39,-5 17,-5 29.5,-12 12.5,-7 21,-14.5 8.5,-7.5 15.5,-12.5 l 8,9 q -9,9 -26,24.5 -17,15.5 -39,30 -22,14.5 -48.5,25.5 -26.5,11 -54.5,11 -36,0 -64.5,-13 -28.5,-13 -53,-28.5 -24.5,-15.5 -49,-28.5 -24.5,-13 -53.5,-13 -33,0 -63,12 -30,12 -59.5,26 -29.5,14 -59,26 -29.5,12 -60.5,12 z"></path></svg>
