<?xml version="1.0" encoding="UTF-8" standalone="no"?>
<svg xmlns="http://www.w3.org/2000/svg" width="4558" height="2057"><path id="path360" d="m 404,1570 q 32,-15 69,-42 37,-27 68.5,-65 31.5,-38 52.5,-86.5 21,-48.5 21,-105.5 0,-34 -10.5,-60 -10.5,-26 -28,-43 -17.5,-17 -41.5,-26 -24,-9 -51,-9 -33,0 -62.5,11.5 -29.5,11.5 -52,31.5 -22.5,20 -35.5,46.5 -13,26.5 -13,56.5 0,46 23,69.5 23,23.5 55,23.5 22,0 33.5,-10.5 11.5,-10.5 11.5,-25.5 0,-11 6,-17.5 6,-6.5 15,-6.5 23,0 23,22 0,8 -7,17.5 -7,9.5 -18.5,17.5 -11.5,8 -27,13.5 -15.5,5.5 -33.5,5.5 -22,0 -43.5,-6 -21.5,-6 -38,-18 -16.5,-12 -26.5,-31 -10,-19 -10,-46 0,-35 17.5,-66 17.5,-31 47,-54.5 29.5,-23.5 67,-37 37.5,-13.5 77.5,-13.5 34,0 66.5,9 32.5,9 58,27 25.5,18 40.5,45.5 15,27.5 15,63.5 0,61 -29,113.5 -29,52.5 -69,93.5 -40,41 -83,70 -43,29 -71,44 -14,8 -27.5,17.5 -13.5,9.5 -24.5,29.5 -9,17 -18.5,42.5 -9.5,25.5 -19,57 -9.5,31.5 -19.5,68 -10,36.5 -21,74.5 -3,12 -8.5,31.5 l -11,39 q 0,0 -9,36.5 -9,36.5 -3.5,25 0,13 10,13 7,0 15,-4.5 8,-4.5 16,-9.5 9,-6 17,-15 l 8,8 q -17,18 -33,31 -14,12 -29.5,21.5 -15.5,9.5 -27.5,9.5 -27,0 -40.5,-11.5 Q 181,2034 181,2015 q 0,-6 0.5,-11 0.5,-5 2.5,-14 -8,11 -19,22.5 -11,11.5 -24,21.5 -13,10 -28,16.5 -15,6.5 -32,6.5 -35,0 -58,-18 -23,-18 -23,-56 0,-36 16.5,-67 16.5,-31 41,-54.5 24.5,-23.5 53.5,-37 29,-13.5 54,-13.5 21,0 34,5.5 13,5.5 24,16.5 9,-36 18,-69 8,-28 15.5,-57 7.5,-29 12.5,-48 6,-23 17,-33.5 11,-10.5 25,-19.5 -3,1 -7,1 h -7 q -7,0 -12,-1 l -10,-2 q 0,0 -9,-2 l 9,-12 8,2 q 10,2 21,2 17,0 42.5,-4.5 Q 372,1585 404,1570 Z m -289,456 q 9,0 19.5,-7 10.5,-7 21,-18 10.5,-11 20.5,-24.5 10,-13.5 16,-27.5 3,-7 6.5,-18 3.5,-11 6.5,-22 3,-11 4.5,-21.5 1.5,-10.5 1.5,-16.5 0,-18 -7.5,-30 -7.5,-12 -28.5,-12 -18,0 -34,14 -16,14 -27.5,36 -11.5,22 -18,47.5 -6.5,25.5 -6.5,47.5 0,28 6,40 6,12 20,12 z"></path></svg>
