<?xml version="1.0" encoding="UTF-8" standalone="no"?>
<svg xmlns="http://www.w3.org/2000/svg" width="4558" height="2057"><path id="path750" d="m 1062,1146 q -15,50 -37,118.5 -22,68.5 -54,139.5 -32,71 -76.5,136 -44.5,65 -104.5,108 -18,79 -56,153 -38,74 -94.5,131 -56.5,57 -130.5,91 -74,34 -165,34 -78,0 -141.5,-25 Q 139,2007 94,1962.5 49,1918 24.5,1858 0,1798 0,1729 0,1654 29,1591.5 58,1529 105.5,1485 153,1441 214,1416.5 275,1392 340,1392 q 22,0 43,3 12,-33 34,-58.5 22,-25.5 51,-43 29,-17.5 62,-26.5 33,-9 68,-9 41,0 78.5,13.5 37.5,13.5 66,44 28.5,30.5 45.5,80 17,49.5 17,120.5 v 18 q 0,0 -1,18 39,-44 69,-100 30,-56 52.5,-114.5 22.5,-58.5 39,-114.5 16.5,-56 28.5,-100 16,-54 26.5,-91.5 10.5,-37.5 10.5,-44.5 0,-5 -1.5,-8.5 -1.5,-3.5 -6.5,-3.5 -4,0 -10,4.5 -6,4.5 -13,9.5 -8,6 -16,13 l -7,-9 q 6,-6 17.5,-15.5 11.5,-9.5 25,-19 13.5,-9.5 28,-16.5 14.5,-7 26.5,-7 18,0 30,8.5 12,8.5 12,22.5 0,7 -2,15 -1,4 -2,6 20,-23 50,-37.5 30,-14.5 54,-14.5 27,0 49.5,16 22.5,16 22.5,51 0,38 -14.5,71 -14.5,33 -37,57 -22.5,24 -50,38 -27.5,14 -52.5,14 -28,0 -44.5,-10 -16.5,-10 -26.5,-26 z m -449,560 q -12,0 -24,-1 -12,-1 -23,-3 -12,34 -32,62.5 -20,28.5 -46.5,49 -26.5,20.5 -58.5,32 -32,11.5 -67,11.5 -33,0 -61.5,-9.5 -28.5,-9.5 -50,-27 -21.5,-17.5 -34,-41 Q 204,1756 204,1727 q 0,-33 13.5,-47.5 13.5,-14.5 26.5,-14.5 11,0 18,7.5 7,7.5 7,18.5 0,10 -5.5,16.5 -5.5,6.5 -12,12.5 -6.5,6 -12,13 -5.5,7 -5.5,19 0,16 10,32 10,16 27,28.5 17,12.5 41,20 24,7.5 52,7.5 32,0 61,-10.5 29,-10.5 52.5,-29 23.5,-18.5 41.5,-44.5 18,-26 28,-58 -39,-10 -71.5,-30.5 -32.5,-20.5 -56,-50 Q 396,1588 383,1550 q -13,-38 -13,-83 0,-29 8,-56 -9,-2 -18,-2 h -19 q -58,0 -111.5,24 -53.5,24 -95,66.5 Q 93,1542 68.5,1600 44,1658 44,1726 q 0,60 21.5,110 21.5,50 61,86 39.5,36 95.5,55.5 56,19.5 125,19.5 81,0 149.5,-26.5 68.5,-26.5 122,-72 53.5,-45.5 91,-106 Q 747,1732 767,1663 q -33,20 -71,31.5 -38,11.5 -83,11.5 z m -4,-59 q 54,0 97.5,-20.5 43.5,-20.5 78.5,-54.5 3,-27 3,-54 0,-69 -17,-116 -17,-47 -44.5,-76 -27.5,-29 -62,-41.5 Q 630,1272 595,1272 q -30,0 -59,8.5 -29,8.5 -53.5,25 -24.5,16.5 -43,40.5 -18.5,24 -27.5,55 37,9 68,28.5 31,19.5 53,47 22,27.5 34.5,63.5 12.5,36 12.5,78 v 13.5 q 0,0 -1,13.5 8,1 15,1.5 7,0.5 15,0.5 z M 404,1458 q 0,42 12.5,73.5 12.5,31.5 33.5,54 21,22.5 49,36.5 28,14 58,20 1,-5 1,-10.5 V 1621 q 0,-41 -11.5,-75 -11.5,-34 -32,-59.5 -20.5,-25.5 -48,-42.5 -27.5,-17 -58.5,-26 -2,9 -3,19 -1,10 -1,21 z m 776,-495 q -20,0 -43.5,21 -23.5,21 -37.5,50 -3,7 -7.5,18.5 -4.5,11.5 -8.5,23.5 -4,12 -6.5,22.5 -2.5,10.5 -2.5,16.5 0,25 12.5,33.5 12.5,8.5 23.5,8.5 19,0 35.5,-12.5 16.5,-12.5 28.5,-33.5 12,-21 19,-49 7,-28 7,-60 0,-21 -6,-30 -6,-9 -14,-9 z"></path></svg>
