<?xml version="1.0" encoding="UTF-8" standalone="no"?>
<svg xmlns="http://www.w3.org/2000/svg" width="4558" height="2057"><path id="path499" d="m 1444,1635 q -11,35 -24,79 -13,44 -24,82 l -26,90 q 15,-18 33.5,-33 18.5,-15 37.5,-26 19,-11 36.5,-17.5 17.5,-6.5 31.5,-6.5 18,0 32,9 14,9 14,30 0,18 -7,36 -7,18 -15.5,36 -8.5,18 -15.5,37 -7,19 -7,39 0,13 5,17 5,4 10,4 7,0 15,-4.5 8,-4.5 16,-10.5 9,-6 17,-15 l 8,8 q -16,18 -33,31 -15,12 -33,21.5 -18,9.5 -36,9.5 -23,0 -41.5,-10.5 -18.5,-10.5 -18.5,-37.5 0,-20 8.5,-39.5 8.5,-19.5 19,-38.5 10.5,-19 19,-36 8.5,-17 8.5,-31 0,-15 -11,-15 -11,0 -36,14 -25,14 -56,52 -10,12 -18,31.5 -8,19.5 -14,39.5 -6,20 -9,36.5 -3,16.5 -3,21.5 0,15 -14,15 -8,0 -21,-2 -13,-2 -26,-2 -14,0 -24,4 -10,4 -13,4 -4,0 -4,-4 0,-3 6,-9 6,-6 12,-18 12,-21 20,-50 8,-29 20,-74 10,-37 20.5,-75 10.5,-38 19.5,-73 9,-35 17,-64.5 8,-29.5 13,-48.5 22,-81 52,-147.5 30,-66.5 67,-120.5 -63,-21 -130,-42 -67,-21 -135,-38 -68,-17 -136.5,-27.5 Q 1002,1255 935,1255 q -96,0 -167.5,19.5 -71.5,19.5 -119,51.5 -47.5,32 -70.5,72 -23,40 -23,81 70,-15 140.5,-33.5 70.5,-18.5 140.5,-35 70,-16.5 139.5,-28 69.5,-11.5 137.5,-11.5 32,0 66,7.5 34,7.5 61.5,22 27.5,14.5 45,37 17.5,22.5 17.5,52.5 0,47 -35,86 -35,39 -93,67 -58,28 -133,44 -75,16 -154,16 -71,0 -132.5,-15.5 Q 694,1672 646,1645.5 598,1619 566,1583 q -32,-36 -43,-77 -51,9 -105,14 -54,5 -112,5 -75,0 -132.5,-14 -57.5,-14 -96,-37.5 Q 39,1450 19.5,1418 0,1386 0,1350 q 0,-50 31.5,-91.5 31.5,-41.5 81.5,-71 50,-29.5 112,-46 62,-16.5 123,-16.5 40,0 73,7 33,7 57,20.5 24,13.5 37,33.5 13,20 13,45 0,26 -15,48.5 -15,22.5 -39,39.5 -24,17 -54,27 -30,10 -61,10 -51,0 -80,-20 -29,-20 -29,-51 0,-16 8,-29 8,-13 21,-13 8,0 14,5 6,5 6,13 0,6 -3.5,10.5 -3.5,4.5 -7,8.5 -3.5,4 -7,8.5 -3.5,4.5 -3.5,10.5 0,18 18,31.5 18,13.5 59,13.5 28,0 50,-10 22,-10 37.5,-26 15.5,-16 23.5,-36.5 8,-20.5 8,-40.5 0,-44 -30.5,-69 -30.5,-25 -93.5,-25 -59,0 -109,17 -50,17 -87,45.5 -37,28.5 -58,65.5 -21,37 -21,77 0,30 11,59.5 11,29.5 39,53 28,23.5 74.5,38 46.5,14.5 118.5,14.5 51,0 100.5,-5.5 49.5,-5.5 100.5,-15.5 0,-77 35.5,-135.5 35.5,-58.5 94,-98 Q 707,1213 781,1193 q 74,-20 152,-20 75,0 149,15 74,15 145.5,38.5 71.5,23.5 139.5,52.5 68,29 131,57 74,-96 163.5,-142.5 89.5,-46.5 180.5,-46.5 39,0 72,11.5 33,11.5 57.5,32.5 24.5,21 38.5,49.5 14,28.5 14,62.5 0,36 -17,65 -17,29 -45.5,49 -28.5,20 -64.5,31 -36,11 -73,11 -55,0 -123.5,-17 -68.5,-17 -147.5,-42 -32,48 -60,106.5 -28,58.5 -49,128.5 z m -393,-227 q -55,0 -113,9.5 -58,9.5 -119.5,23.5 -61.5,14 -126.5,30 -65,16 -135,29 8,36 35.5,69.5 27.5,33.5 70.5,60 43,26.5 100,42 57,15.5 124,15.5 72,0 132.5,-17.5 60.5,-17.5 104.5,-45.5 44,-28 69,-61.5 25,-33.5 25,-66.5 0,-45 -44.5,-66.5 Q 1129,1408 1051,1408 Z m 788,-206 q -62,0 -131.5,42.5 -69.5,42.5 -132.5,125.5 71,31 135,51.5 64,20.5 121,20.5 28,0 57.5,-10 29.5,-10 52.5,-28 23,-18 38,-43.5 15,-25.5 15,-55.5 0,-53 -41.5,-78 -41.5,-25 -113.5,-25 z"></path></svg>
