<?xml version="1.0" encoding="UTF-8" standalone="no"?>
<svg xmlns="http://www.w3.org/2000/svg" width="4558" height="2057"><path id="path95" d="m 166,1613 q 4,-15 10,-26 6,-11 22,-20 -57,8 -90.5,39.5 Q 74,1638 74,1683 q 0,22 9,36.5 9,14.5 26,25.5 l -9,9 Q 87,1750 69.5,1743.5 52,1737 36.5,1727 21,1717 10.5,1703.5 0,1690 0,1672 0,1645 15.5,1624 31,1603 59.5,1587.5 88,1572 128,1562 q 40,-10 88,-15 25,-2 52,-2.5 27,-0.5 56,-0.5 l -7,15 q -9,0 -17,1.5 -8,1.5 -15,8.5 -7,7 -13.5,20 -6.5,13 -13.5,35 -1,3 -6,22 -5,19 -13,49 -8,30 -18.5,67 -10.5,37 -20.5,76 -25,91 -55,204 h 42 l -6,15 H 6 l 5,-15 h 39 z m 14,-234 q 8,0 15,11 8,12 19.5,27.5 11.5,15.5 25.5,30.5 14,15 28.5,27 14.5,12 28.5,16 6,1 6,8 0,9 -10,9 -10,0 -24.5,-3.5 -14.5,-3.5 -30,-10 -15.5,-6.5 -31.5,-16 -16,-9.5 -30,-21.5 -23,-20 -23,-38 0,-12 9,-26 9,-14 17,-14 z"></path></svg>
