<?xml version="1.0" encoding="UTF-8" standalone="no"?>
<svg xmlns="http://www.w3.org/2000/svg" width="4558" height="2057"><path id="path426" d="m 340,1832 q -32,0 -61.5,11.5 -29.5,11.5 -58.5,25 -29,13.5 -57.5,26 -28.5,12.5 -58.5,13.5 -6,6 -15,13.5 -9,7.5 -17,15.5 -8,8 -13.5,17.5 -5.5,9.5 -5.5,20.5 0,9 5,15.5 5,6.5 12.5,10 7.5,3.5 15,5.5 7.5,2 13.5,2 8,0 8,7 0,5 -3,12 -3,7 -8,13.5 -5,6.5 -12,11.5 -7,5 -14,5 -8,0 -20,-5.5 Q 38,2046 27,2037 16,2028 8.5,2015 1,2002 1,1987 q 0,-12 8,-23.5 8,-11.5 19,-22 11,-10.5 24,-19.5 13,-9 24,-15 -29,-5 -52.5,-23.5 Q 0,1865 0,1830 q 0,-36 17,-66.5 17,-30.5 42,-53 25,-22.5 54.5,-35 29.5,-12.5 53.5,-12.5 30,0 50,12 20,12 20,33 0,20 -10,36 -10,16 -25.5,27 -15.5,11 -34.5,17.5 -19,6.5 -38,6.5 -8,0 -14,-2 -6,-2 -6,-7 0,-5 5,-5 14,0 27,-8 13,-8 22.5,-20.5 9.5,-12.5 15,-28.5 5.5,-16 5.5,-32 0,-13 -11,-13 -14,0 -29,13 -15,13 -27,33.5 -12,20.5 -20,45 -8,24.5 -8,47.5 0,34 13.5,47 13.5,13 31.5,13 28,0 62,-15.5 34,-15.5 68.5,-34 34.5,-18.5 68,-34 33.5,-15.5 59.5,-15.5 38,0 63.5,12.5 25.5,12.5 48,27.5 22.5,15 47.5,27.5 25,12.5 64,12.5 22,0 39,-5 17,-5 29.5,-12 12.5,-7 21,-14.5 8.5,-7.5 15.5,-12.5 l 8,9 q -9,9 -26,24.5 -17,15.5 -39,30 -22,14.5 -48.5,25.5 -26.5,11 -54.5,11 -36,0 -64.5,-13 -28.5,-13 -53,-28.5 Q 418,1858 393.5,1845 369,1832 340,1832 Z"></path></svg>
