<?xml version="1.0" encoding="UTF-8" standalone="no"?>
<svg xmlns="http://www.w3.org/2000/svg" width="4558" height="2057"><path id="path743" d="m 211,2057 q -53,0 -92.5,-15 Q 79,2027 52.5,2001 26,1975 13,1940 0,1905 0,1865 q 0,-61 30,-114 30,-53 75.5,-91.5 45.5,-38.5 100,-60.5 54.5,-22 104.5,-22 54,0 87,26 33,26 33,72 0,29 -11,54 -11,25 -29.5,44 -18.5,19 -42,29.5 -23.5,10.5 -48.5,10.5 -27,0 -44,-11 -17,-11 -17,-25 0,-11 7.5,-17.5 7.5,-6.5 15.5,-6.5 12,0 18,6 6,6 10.5,12.5 4.5,6.5 9.5,12.5 5,6 16,6 16,0 34,-8.5 18,-8.5 32,-24 14,-15.5 23.5,-36.5 9.5,-21 9.5,-45 0,-40 -29.5,-62 -29.5,-22 -74.5,-22 -49,0 -97.5,21 -48.5,21 -86.5,55.5 -38,34.5 -62,80 -24,45.5 -24,93.5 0,69 44.5,108 44.5,39 122.5,39 64,0 120.5,-28 56.5,-28 105,-77 48.5,-49 90,-114.5 41.5,-65.5 76,-141 34.5,-75.5 63,-157 Q 690,1390 713,1310 q 15,-54 26,-93 11,-39 11,-48 0,-5 -1.5,-8.5 -1.5,-3.5 -6.5,-3.5 -4,0 -10,4.5 -6,4.5 -13,9.5 -8,6 -16,13 l -7,-9 q 6,-6 17.5,-15.5 11.5,-9.5 25,-19 13.5,-9.5 28,-16.5 14.5,-7 26.5,-7 18,0 30,8.5 12,8.5 12,22.5 0,7 -2,15 -1,4 -2,6 20,-23 50,-37.5 30,-14.5 54,-14.5 27,0 49.5,16 22.5,16 22.5,51 0,38 -14.5,71 -14.5,33 -37,57 -22.5,24 -50,38 -27.5,14 -52.5,14 -28,0 -44.5,-10 -16.5,-10 -26.5,-26 -23,88 -52.5,176.5 Q 700,1593 663,1674 q -37,81 -83,151 -46,70 -102,121.5 -56,51.5 -122.5,81 Q 289,2057 211,2057 Z m 689,-912 q -20,0 -43.5,21 -23.5,21 -37.5,50 -3,7 -7.5,18.5 -4.5,11.5 -8.5,23.5 -4,12 -6.5,22.5 -2.5,10.5 -2.5,16.5 0,25 12.5,33.5 12.5,8.5 23.5,8.5 19,0 35.5,-12.5 16.5,-12.5 28.5,-33.5 12,-21 19,-49 7,-28 7,-60 0,-21 -6,-30 -6,-9 -14,-9 z"></path></svg>
