<?xml version="1.0" encoding="UTF-8" standalone="no"?>
<svg xmlns="http://www.w3.org/2000/svg" width="4558" height="2057"><path id="path48" d="m 176,1614 q 5,-18 12.5,-28.5 7.5,-10.5 20.5,-18.5 -27,6 -51.5,19.5 -24.5,13.5 -43,32 -18.5,18.5 -29,42 Q 75,1684 75,1710 q 0,22 9,36.5 9,14.5 25,25.5 l -7,9 Q 89,1777 71.5,1770.5 54,1764 38,1753.5 22,1743 11,1729.5 0,1716 0,1699 q 0,-34 24.5,-63.5 24.5,-29.5 65,-50.5 40.5,-21 93.5,-33 53,-12 110,-12 48,0 94,12 46,12 82.5,37.5 36.5,25.5 59,65 22.5,39.5 22.5,95.5 0,78 -31,136 -31,58 -78,96 -47,38 -103,56.5 -56,18.5 -107,18.5 H 16 l 4,-15 h 40 z m 271,141 Q 447,1653 412.5,1606.5 378,1560 321,1560 q -22,0 -33.5,15 -11.5,15 -19.5,47 -1,4 -9,34.5 -8,30.5 -20,74 -12,43.5 -25.5,93.5 -13.5,50 -25,93 -11.5,43 -19,72.5 -7.5,29.5 -7.5,32.5 0,20 23,20 h 22 q 41,0 84,-18.5 43,-18.5 77.5,-55 34.5,-36.5 56.5,-90 22,-53.5 22,-123.5 z M 318,1503 q -9,0 -22,-13 -13,-13 -24,-30 -11,-17 -19,-33.5 -8,-16.5 -8,-23.5 0,-9 10,-9 4,0 11.5,9.5 7.5,9.5 17.5,21 10,11.5 21,21 11,9.5 22,9.5 15,0 31,-9.5 16,-9.5 30.5,-21.5 14.5,-12 24.5,-21.5 10,-9.5 13,-9.5 10,0 10,9 0,5 -14.5,21.5 -14.5,16.5 -34,34 -19.5,17.5 -39.5,31.5 -20,14 -30,14 z"></path></svg>
