<?xml version="1.0" encoding="UTF-8" standalone="no"?>
<svg xmlns="http://www.w3.org/2000/svg" width="4558" height="2057"><path id="path664" d="m 266,1746 q -9,0 -22,-13 -13,-13 -24,-30 -11,-17 -19,-33.5 -8,-16.5 -8,-23.5 0,-9 10,-9 4,0 11.5,9.5 7.5,9.5 17.5,21 10,11.5 21,21 11,9.5 22,9.5 10,0 21,-4.5 11,-4.5 22,-12.5 -13,-18 -20,-40.5 -7,-22.5 -7,-51.5 0,-37 17,-73 17,-36 48.5,-64.5 31.5,-28.5 76.5,-46 45,-17.5 100,-17.5 50,0 97.5,13.5 47.5,13.5 84,42.5 36.5,29 58.5,75.5 22,46.5 22,113.5 0,59 -22.5,114 -22.5,55 -60,102 -37.5,47 -86,85.5 -48.5,38.5 -100,65.5 -51.5,27 -103,42 -51.5,15 -94.5,15 -19,0 -40,-2.5 -21,-2.5 -38.5,-11 -17.5,-8.5 -29,-23.5 -11.5,-15 -11.5,-40 0,-25 6.5,-45 6.5,-20 14,-37 7.5,-17 14,-31.5 6.5,-14.5 6.5,-28.5 0,-16 -12,-16 -14,0 -38,15.5 -24,15.5 -50,44.5 -8,9 -16.5,29 -8.5,20 -15.5,41 -7,21 -11.5,39.5 -4.5,18.5 -4.5,24.5 0,14 -22,14 -7,0 -16,-1.5 -9,-1.5 -23,-1.5 -14,0 -24.5,4 -10.5,4 -13.5,4 -4,0 -4,-6 0,-4 6.5,-8.5 6.5,-4.5 11.5,-15.5 9,-19 18,-44 9,-25 17,-50 8,-25 13,-45.5 5,-20.5 5,-29.5 0,-13 -8,-13 -4,0 -10.5,4.5 -6.5,4.5 -13.5,9.5 -8,6 -16,13 l -7,-9 q 6,-6 17.5,-15.5 Q 45,1816 58,1807 q 13,-9 27,-15.5 14,-6.5 26,-6.5 18,0 30.5,8.5 12.5,8.5 12.5,23.5 0,9 -1.5,17.5 -1.5,8.5 -3.5,16.5 -2,9 -4,17 15,-17 33,-32 18,-15 37,-26.5 19,-11.5 37,-18 18,-6.5 32,-6.5 19,0 33,10.5 14,10.5 14,26.5 0,18 -6.5,35 -6.5,17 -14.5,35 -8,18 -14.5,38.5 -6.5,20.5 -6.5,44.5 0,32 13.5,43.5 13.5,11.5 40.5,11.5 69,0 137.5,-31 68.5,-31 123,-84.5 54.5,-53.5 88,-125.5 33.5,-72 33.5,-154 0,-61 -15.5,-104 -15.5,-43 -43,-70 -27.5,-27 -65,-39 -37.5,-12 -80.5,-12 -47,0 -86.5,15.5 -39.5,15.5 -67.5,40 -28,24.5 -43.5,56.5 -15.5,32 -15.5,65 0,52 24,84 16,-12 27.5,-23.5 11.5,-11.5 14.5,-11.5 10,0 10,9 0,5 -10.5,17 -10.5,12 -25.5,26 18,16 41.5,23 23.5,7 49.5,7 25,0 42.5,-6.5 17.5,-6.5 28,-16.5 10.5,-10 15.5,-22 5,-12 5,-23 0,-6 -2,-10 -2,-4 -5,-8 -3,-4 -5,-9 -2,-5 -2,-14 0,-12 7.5,-20 7.5,-8 20.5,-8 17,0 25,13 8,13 8,28 0,23 -10.5,43 -10.5,20 -29,36 -18.5,16 -43,25 -24.5,9 -51.5,9 -66,0 -107,-35 -20,18 -39.5,32 -19.5,14 -30.5,14 z"></path></svg>
