<?xml version="1.0" encoding="UTF-8" standalone="no"?>
<svg xmlns="http://www.w3.org/2000/svg" width="4558" height="2057"><path id="path494" d="m 382,1441 q 15,-18 34,-33 19,-15 37.5,-26 18.5,-11 36.5,-17.5 18,-6.5 32,-6.5 18,0 32,9 14,9 14,30 0,18 -7,36 -7,18 -15.5,36 -8.5,18 -15.5,37 -7,19 -7,39 0,13 5,17 5,4 10,4 7,0 15,-4.5 8,-4.5 16,-10.5 9,-6 17,-15 l 8,8 q -16,18 -33,31 -15,12 -33,21.5 -18,9.5 -36,9.5 -23,0 -41.5,-10.5 Q 432,1585 432,1558 q 0,-20 8.5,-39.5 8.5,-19.5 19,-38.5 10.5,-19 19,-36 8.5,-17 8.5,-31 0,-15 -11,-15 -11,0 -36,14 -25,14 -56,52 -10,12 -18,31.5 -8,19.5 -14,39.5 -6,20 -9,36.5 -3,16.5 -3,21.5 0,15 -14,15 -8,0 -21,-2 -13,-2 -26,-2 -14,0 -24,4 -10,4 -13,4 -4,0 -4,-4 0,-3 6,-9 6,-6 12,-18 10,-21 20.5,-54 10.5,-33 24.5,-98 -55,45 -104.5,93 -49.5,48 -86.5,99.5 -37,51.5 -58.5,107 Q 30,1784 30,1844 q 0,31 11.5,55.5 11.5,24.5 32,42 20.5,17.5 47.5,26.5 27,9 59,9 66,0 130,-17 64,-17 127.5,-42 63.5,-25 127.5,-54.5 64,-29.5 130.5,-54.5 66.5,-25 137,-42 70.5,-17 147.5,-17 46,0 80.5,12 34.5,12 57,32.5 22.5,20.5 33.5,47 11,26.5 11,55.5 0,39 -14.5,69 -14.5,30 -37.5,50 -23,20 -51.5,30.5 -28.5,10.5 -56.5,10.5 -19,0 -36,-6 -17,-6 -17,-21 0,-11 7.5,-19 7.5,-8 19.5,-8 9,0 14,4.5 5,4.5 9.5,10.5 4.5,6 10,10.5 5.5,4.5 14.5,4.5 16,0 36.5,-8.5 20.5,-8.5 39,-25.5 18.5,-17 31,-43 12.5,-26 12.5,-62 0,-25 -10.5,-47.5 -10.5,-22.5 -32,-40 -21.5,-17.5 -53.5,-27.5 -32,-10 -74,-10 -72,0 -141.5,20 -69.5,20 -137,49.5 -67.5,29.5 -133,64.5 -65.5,35 -131,64.5 Q 365,1997 300,2017 q -65,20 -130,20 -39,0 -70.5,-12.5 Q 68,2012 46,1989.5 24,1967 12,1936 0,1905 0,1867 0,1797 25,1733.5 50,1670 92.5,1612.5 135,1555 190.5,1502 246,1449 308,1399 339,1263 373,1151.5 407,1040 450.5,961.5 494,883 550,840 q 56,-43 131,-43 29,0 52.5,10 23.5,10 40,27 16.5,17 25.5,38.5 9,21.5 9,45.5 0,55 -34.5,108 -34.5,53 -91,105.5 Q 626,1184 554.5,1237 483,1290 409,1345 Z M 699,853 q -44,0 -81.5,30.5 -37.5,30.5 -71,89 Q 513,1031 482,1117 q -31,86 -64,198 68,-51 132.5,-100.5 64.5,-49.5 114,-97 49.5,-47.5 79.5,-93 30,-45.5 30,-89.5 0,-42 -20,-62 -20,-20 -55,-20 z"></path></svg>
