<?xml version="1.0" encoding="UTF-8" standalone="no"?>
<svg xmlns="http://www.w3.org/2000/svg" width="4558" height="2057"><path id="path109" d="m 953,1283 q 0,37 -12.5,67.5 -12.5,30.5 -33.5,52 -21,21.5 -48,33 -27,11.5 -57,11.5 -11,30 -28.5,61.5 -17.5,31.5 -42,61.5 -24.5,30 -56,56 -31.5,26 -70.5,45 -7,22 -14.5,42.5 -7.5,20.5 -17.5,40.5 -24,48 -50,81 -26,33 -57,53 34,16 70.5,30.5 36.5,14.5 72.5,26 36,11.5 69,18 33,6.5 60,6.5 40,0 69.5,-6.5 Q 837,1956 862,1938 l 10,11 q -6,11 -20.5,29 -14.5,18 -34,35.5 -19.5,17.5 -42.5,30.5 -23,13 -47,13 -35,0 -64.5,-12.5 -29.5,-12.5 -62,-33.5 -32.5,-21 -72.5,-48 -40,-27 -97,-56 -31,16 -65,24 -34,8 -67,8 -45,0 -73.5,-17 -28.5,-17 -28.5,-44 0,-21 20,-35 20,-14 43,-14 29,0 55.5,6 26.5,6 55.5,15 29,-25 50.5,-60 21.5,-35 40.5,-80 -8,0 -15,0.5 -7,0.5 -15,0.5 -98,0 -178,-23 -80,-23 -136.5,-65 Q 62,1581 31,1522.5 0,1464 0,1393 q 0,-75 30.5,-132.5 30.5,-57.5 78,-96.5 47.5,-39 104,-59 56.5,-20 108.5,-20 50,0 90.5,14 40.5,14 69,39.5 28.5,25.5 44,62 15.5,36.5 15.5,81.5 0,42 -14,79 -14,37 -38.5,64.5 -24.5,27.5 -57,43.5 -32.5,16 -68.5,16 -25,0 -49,-7 -24,-7 -42.5,-20 -18.5,-13 -30,-31 -11.5,-18 -11.5,-41 0,-20 8,-31 8,-11 21,-11 10,0 16,6.5 6,6.5 6,15.5 0,14 -9.5,20.5 -9.5,6.5 -9.5,17.5 0,26 28.5,45.5 28.5,19.5 73.5,19.5 32,0 61,-14 29,-14 50.5,-39 21.5,-25 34,-59.5 12.5,-34.5 12.5,-74.5 0,-40 -14,-72 -14,-32 -40,-54.5 -26,-22.5 -62,-35 -36,-12.5 -81,-12.5 -47,0 -92,18.5 -45,18.5 -80.5,54.5 -35.5,36 -57,88.5 Q 73,1322 73,1389 q 0,64 22,118.5 22,54.5 66.5,95 44.5,40.5 112,63.5 67.5,23 159.5,23 10,0 20,-0.5 10,-0.5 19,-1.5 21,-57 38,-107 17,-50 33,-95 16,-45 33.5,-86 17.5,-41 40.5,-79 40,-66 94.5,-107 54.5,-41 122.5,-41 49,0 84,29 35,29 35,82 z m -260,49 q -15,33 -25.5,71 -10.5,38 -19,78.5 -8.5,40.5 -17,81.5 -8.5,41 -18.5,81 67,-38 109.5,-93 42.5,-55 62.5,-108 -28,-8 -45.5,-28 -17.5,-20 -17.5,-49 0,-28 15,-46 15,-18 38,-18 21,0 33,16.5 12,16.5 12,40.5 0,33 -13,72 24,0 46,-11 22,-11 39,-30.5 17,-19.5 27.5,-45.5 10.5,-26 10.5,-55 0,-21 -7,-37 -7,-16 -19,-27 -12,-11 -27.5,-16.5 -15.5,-5.5 -31.5,-5.5 -54,0 -89.5,34 -35.5,34 -62.5,95 z m 46,34 q 0,23 14,39.5 14,16.5 37,22.5 12,-36 12,-65 0,-46 -27,-46 -16,0 -26,14 -10,14 -10,35 z m -470,522 q 26,0 44,-4.5 18,-4.5 38,-17.5 -22,-8 -39.5,-11.5 -17.5,-3.5 -37.5,-3.5 -24,0 -33,5 -9,5 -9,16 0,8 10,12 10,4 27,4 z m 654,-869 q 8,0 16.5,14 8.5,14 8.5,26 0,17 -23,37 -28,25 -59.5,38 -31.5,13 -56.5,13 -4,0 -7.5,-2 -3.5,-2 -3.5,-7 0,-5 9,-9 22,-10 49.5,-34 27.5,-24 51.5,-65 5,-11 15,-11 z"></path></svg>
