<?xml version="1.0" encoding="UTF-8" standalone="no"?>
<svg xmlns="http://www.w3.org/2000/svg" width="4558" height="2057"><path id="path911" d="m 391,2010 q 28,-21 56,-57 28,-36 57.5,-80.5 29.5,-44.5 61,-94.5 31.5,-50 64.5,-99 -44,-19 -87.5,-39.5 Q 499,1619 450,1602 401,1585 343.5,1574 286,1563 215,1563 q -46,0 -80,10.5 -34,10.5 -58,28.5 -24,18 -38.5,40.5 Q 24,1665 17,1689 q -2,5 -3,10 -1,5 -6,5 -5,0 -6.5,-6 -1.5,-6 -1.5,-14 0,-27 16,-62 16,-35 46.5,-66.5 30.5,-31.5 75,-53.5 44.5,-22 101.5,-22 61,0 113,17.5 52,17.5 101,44 49,26.5 96,57 47,30.5 97,57.5 30,-42 61.5,-79.5 31.5,-37.5 65.5,-65 34,-27.5 71,-44 37,-16.5 77,-16.5 63,0 98.5,34.5 35.5,34.5 35.5,90.5 0,40 -17.5,70 -17.5,30 -45,49.5 -27.5,19.5 -60.5,29 -33,9.5 -63,9.5 -57,0 -104.5,-10.5 Q 717,1713 673,1696 q -38,47 -75,98 -37,51 -74.5,98 -37.5,47 -74.5,86 -37,39 -75,63 -11,7 -27,11.5 -16,4.5 -27,4.5 -9,0 -17,-3 -8,-3 -8,-11 0,-10 7.5,-31 7.5,-21 17,-46.5 9.5,-25.5 17,-52.5 7.5,-27 7.5,-50 0,-9 -10,-9 -4,0 -10,3.5 -6,3.5 -12,8.5 -7,5 -15,12 l -7,-9 q 6,-5 17.5,-14.5 11.5,-9.5 25,-19 13.5,-9.5 28,-16.5 14.5,-7 26.5,-7 21,0 32,9 11,9 11,23 0,14 -4.5,36.5 -4.5,22.5 -10.5,47 -6,24.5 -13,47 -7,22.5 -11,35.5 z m 537,-495 q -32,0 -62.5,12.5 -30.5,12.5 -60.5,34.5 -30,22 -59,51 -29,29 -57,63 42,19 88,30.5 46,11.5 100,11.5 24,0 50,-8.5 26,-8.5 48.5,-24 22.5,-15.5 37,-39 14.5,-23.5 14.5,-53.5 0,-42 -26.5,-60 -26.5,-18 -72.5,-18 z"></path></svg>
