<?xml version="1.0" encoding="UTF-8" standalone="no"?>
<svg xmlns="http://www.w3.org/2000/svg" width="4558" height="2057"><path id="path541" d="m 601,1336 q -34,128 -84,228 -50,100 -109.5,169 -59.5,69 -126,105 -66.5,36 -132.5,36 -37,0 -65,-11.5 Q 56,1851 37.5,1832.5 19,1814 9.5,1790 0,1766 0,1740 0,1672 42.5,1608.5 85,1545 156,1492 q 71,-53 163,-94 92,-41 191,-64 12,-40 23,-84.5 11,-44.5 20.5,-85.5 9.5,-41 16.5,-75.5 7,-34.5 11,-54.5 5,-22 13.5,-34.5 Q 603,987 618,978 h -7.5 q 0,0 -10.5,-1 -9,0 -17,-2 -4,-1 -7,-2 l 8,-12 8,2 q 5,1 21,1 17,0 43,-4.5 26,-4.5 58,-18.5 l 5,9 q -8,6 -15,13 -6,6 -13.5,15.5 -7.5,9.5 -13.5,20.5 -13,23 -19,43.5 -6,20.5 -12,45.5 -8,33 -16,91.5 -8,58.5 -25,137.5 29,-4 57,-5.5 28,-1.5 56,-1.5 78,0 151,15.5 73,15.5 129.5,51.5 56.5,36 90.5,95 34,59 34,146 0,61 -18,117.5 -18,56.5 -49,105.5 -31,49 -74,89 -43,40 -93,68 -50,28 -105.5,43.5 Q 728,2057 672,2057 q -49,0 -89,-10.5 -40,-10.5 -68.5,-31.5 -28.5,-21 -44,-51 -15.5,-30 -15.5,-69 0,-47 26,-94 26,-47 67.5,-85 41.5,-38 93.5,-61.5 52,-23.5 105,-23.5 57,0 88,25.5 31,25.5 31,67.5 0,21 -8.5,36 -8.5,15 -22.5,15 -9,0 -14,-5 -5,-5 -5,-13 0,-7 4.5,-12 4.5,-5 10.5,-9 6,-4 10.5,-9.5 4.5,-5.5 4.5,-14.5 0,-29 -24.5,-46.5 Q 797,1648 747,1648 q -47,0 -90,21.5 -43,21.5 -75.5,56 -32.5,34.5 -52,78 -19.5,43.5 -19.5,87.5 0,66 40,108.5 40,42.5 123,42.5 50,0 99,-15 49,-15 93,-43 44,-28 81,-66.5 37,-38.5 64.5,-85 27.5,-46.5 43,-100 15.5,-53.5 15.5,-110.5 0,-82 -30.5,-137.5 -30.5,-55.5 -81.5,-90 -51,-34.5 -118,-49.5 -67,-15 -140,-15 -49,0 -98,6 z m -97,19 q -91,22 -176.5,60 -85.5,38 -152,87.5 Q 109,1552 69,1609 q -40,57 -40,116 0,34 23,57.5 23,23.5 65,23.5 58,0 113.5,-32.5 Q 286,1741 336,1682 386,1623 428.5,1539.5 471,1456 504,1355 Z M 650,870 q 0,-10 5,-21.5 5,-11.5 13,-20.5 8,-9 17.5,-15 9.5,-6 18.5,-6 13,0 22,8.5 9,8.5 9,22.5 0,11 -4.5,22.5 Q 726,872 719,882 q -7,10 -16.5,16 -9.5,6 -18.5,6 -13,0 -23.5,-9 Q 650,886 650,870 Z"></path></svg>
