<?xml version="1.0" encoding="UTF-8" standalone="no"?>
<svg xmlns="http://www.w3.org/2000/svg" width="4558" height="2057"><path id="path436" d="m 301,1802 q -22,11 -42.5,21 -20.5,10 -28.5,15 5,8 5,19 0,38 -28,63 -28,25 -66,25 -12,0 -19.5,-5.5 -7.5,-5.5 -7.5,-16.5 0,-17 16.5,-36 16.5,-19 53.5,-40 v -5 q 0,-14 -11,-14 -14,0 -29,13 -15,13 -27,33.5 -12,20.5 -20,45 -8,24.5 -8,47.5 0,34 13.5,47 13.5,13 31.5,13 14,0 27,-6 13,-6 23,-14 11,-9 22,-20 l 8,8 q -15,18 -33,31 -16,12 -37,21.5 -21,9.5 -46,9.5 -17,0 -34.5,-4.5 Q 46,2048 32,2038.5 18,2029 9,2014.5 0,2000 0,1979 q 0,-36 17,-66.5 17,-30.5 42,-53 25,-22.5 54.5,-35 29.5,-12.5 53.5,-12.5 34,0 53,14 l 85,-44 44,-138 q 7,-23 22.5,-40.5 15.5,-17.5 36,-29.5 20.5,-12 44,-18.5 23.5,-6.5 46.5,-6.5 31,0 53.5,17 22.5,17 22.5,44 0,21 -15.5,40 -15.5,19 -41,37 -25.5,18 -58.5,35.5 -33,17.5 -67,35.5 -8,27 -16.5,58.5 -8.5,31.5 -15.5,62.5 -7,31 -12,59 -5,28 -5,48 0,13 5,22 5,9 13,9 9,0 18,-4.5 9,-4.5 17,-10.5 9,-6 17,-15 l 8,8 q -16,18 -34,31 -15,12 -33,21.5 -18,9.5 -35,9.5 -27,0 -44.5,-17.5 Q 257,2022 257,1996 q 0,-19 5,-45.5 5,-26.5 12,-54 7,-27.5 14.5,-53 Q 296,1818 301,1802 Z m 146,-193 q -8,13 -20.5,46.5 -12.5,33.5 -26.5,75.5 55,-35 91.5,-67.5 36.5,-32.5 36.5,-70.5 0,-14 -7.5,-21.5 -7.5,-7.5 -18.5,-7.5 -17,0 -29.5,11 -12.5,11 -25.5,34 z m -300,314 q 6,0 17,-16 11,-16 19,-42 -26,17 -33.5,29.5 -7.5,12.5 -7.5,23.5 0,5 5,5 z"></path></svg>
