<?xml version="1.0" encoding="UTF-8" standalone="no"?>
<svg xmlns="http://www.w3.org/2000/svg" width="4558" height="2057"><path id="path933" d="m 630,1228 q 17,68 39.5,125 22.5,57 51.5,103 64,-29 129.5,-47 65.5,-18 135.5,-18 59,0 97,24 38,24 38,72 0,28 -14.5,55.5 -14.5,27.5 -40.5,49 -26,21.5 -61.5,35 -35.5,13.5 -78.5,13.5 -88,0 -155,-35.5 -67,-35.5 -115,-96.5 -17,9 -33,18 -16,9 -33,19 43,21 79.5,47.5 36.5,26.5 63,59 26.5,32.5 41.5,70 15,37.5 15,79.5 0,59 -18.5,106.5 -18.5,47.5 -51,80.5 -32.5,33 -77,51 -44.5,18 -97.5,18 -36,0 -70.5,-11.5 -34.5,-11.5 -61,-34 -26.5,-22.5 -42.5,-54 -16,-31.5 -16,-72.5 0,-33 14,-62 14,-29 36.5,-50.5 22.5,-21.5 51,-34 28.5,-12.5 58.5,-12.5 50,0 81.5,24 31.5,24 31.5,67 0,20 -10.5,31.5 -10.5,11.5 -23.5,11.5 -13,0 -20,-7.5 -7,-7.5 -7,-17.5 0,-7 3,-12 3,-5 7,-9 4,-4 7,-8 3,-4 3,-10 0,-23 -17.5,-38.5 Q 552,1742 514,1742 q -26,0 -50.5,11.5 -24.5,11.5 -44,30.5 -19.5,19 -31.5,44.5 -12,25.5 -12,52.5 0,35 12.5,60.5 12.5,25.5 34,42.5 21.5,17 50.5,25.5 29,8.5 63,8.5 40,0 72.5,-16 32.5,-16 55.5,-43 23,-27 35.5,-62.5 12.5,-35.5 12.5,-75.5 0,-85 -43,-150 -43,-65 -113,-107 -53,30 -104.5,59.5 -51.5,29.5 -103,52 Q 297,1698 246,1712 q -51,14 -102,14 -30,0 -56.5,-6 -26.5,-6 -46,-18 Q 22,1690 11,1671.5 0,1653 0,1629 q 0,-31 24.5,-58 24.5,-27 66,-47 41.5,-20 96.5,-31 55,-11 117,-11 69,0 136.5,13.5 Q 508,1509 568,1535 l 77,-42 Q 614,1450 592.5,1397.5 571,1345 557,1286 q -20,18 -32.5,28.5 -12.5,10.5 -22,16 -9.5,5.5 -18,7.5 -8.5,2 -18.5,2 -12,0 -24,-6.5 -12,-6.5 -12,-23.5 0,-17 12.5,-27.5 12.5,-10.5 27.5,-10.5 13,0 21,6.5 8,6.5 19,6.5 10,0 17.5,-2 7.5,-2 23.5,-14 -5,-17 -9,-37 -4,-20 -9,-43 -7,-29 -12,-40.5 -5,-11.5 -18,-11.5 -4,0 -10.5,4 -6.5,4 -12.5,9 -8,5 -16,12 l -8,-9 q 6,-5 16.5,-15 10.5,-10 23.5,-19.5 13,-9.5 27,-16.5 14,-7 25,-7 26,0 39,18 13,18 25,58 l 13,42 q 18,-17 24,-29 6,-12 6,-25 0,-9 -5,-14.5 -5,-5.5 -5,-19.5 0,-14 12,-22 12,-8 26,-8 32,0 32,29 0,11 -7.5,23.5 -7.5,12.5 -19.5,26 -12,13.5 -27.5,27.5 -15.5,14 -30.5,27 z m -464,469 q 45,0 90.5,-12 45.5,-12 91.5,-32.5 46,-20.5 93,-46.5 47,-26 95,-53 -51,-26 -109,-40 -58,-14 -121,-14 -53,0 -96.5,10 -43.5,10 -74.5,26.5 -31,16.5 -48,39.5 -17,23 -17,48 0,32 23.5,53 23.5,21 72.5,21 z m 779,-109 q 30,0 56.5,-8.5 26.5,-8.5 46.5,-22.5 20,-14 32,-32 12,-18 12,-38 0,-41 -27.5,-61 -27.5,-20 -77.5,-20 -66,0 -129.5,18 -63.5,18 -126.5,47 39,55 91.5,86 52.5,31 122.5,31 z"></path></svg>
