<?xml version="1.0" encoding="UTF-8" standalone="no"?>
<svg xmlns="http://www.w3.org/2000/svg" width="4558" height="2057"><path id="path963" d="m 534,982 q 0,-16 11.5,-32.5 Q 557,933 575,933 q 14,0 21,11 7,11 7,25 0,20 -13.5,33.5 -13.5,13.5 -27.5,13.5 -14,0 -21,-10 -7,-10 -7,-24 z m 99,0 q 0,-16 11.5,-32.5 Q 656,933 674,933 q 14,0 21,11 7,11 7,25 0,20 -13.5,33.5 -13.5,13.5 -27.5,13.5 -14,0 -21,-10 -7,-10 -7,-24 z m -9,437 q -15,101 -42,193.5 -27,92.5 -71,163 -44,70.5 -108,112.5 -64,42 -152,42 -58,0 -104.5,-18 -46.5,-18 -79,-49.5 Q 35,1831 17.5,1788.5 0,1746 0,1697 q 0,-62 23,-111.5 23,-49.5 60.5,-84 37.5,-34.5 86,-52.5 48.5,-18 99.5,-18 42,0 73,10.5 31,10.5 54,27.5 31,-19 69.5,-33.5 38.5,-14.5 83.5,-22.5 6,-25 11.5,-53 5.5,-28 11,-54.5 5.5,-26.5 10,-49 4.5,-22.5 7.5,-36.5 -29,32 -63.5,53.5 -34.5,21.5 -61.5,21.5 -23,0 -41,-13.5 -18,-13.5 -18,-40.5 0,-16 8.5,-35.5 8.5,-19.5 18.5,-38.5 10,-19 18.5,-37 8.5,-18 8.5,-33 0,-10 -7,-10 -5,0 -11,4 -6,4 -12,9 -7,6 -15,13 l -8,-9 q 6,-6 17.5,-15.5 11.5,-9.5 25,-19 13.5,-9.5 28,-16.5 14.5,-7 26.5,-7 22,0 33,9 11,9 11,24 0,15 -8,35 -8,20 -17,41 -9,21 -17,42.5 -8,21.5 -8,39.5 0,15 14,15 14,0 28.5,-10.5 14.5,-10.5 36.5,-33.5 13,-14 20,-29.5 7,-15.5 14,-44.5 5,-22 11.5,-37 6.5,-15 15.5,-24 9,-9 21.5,-14 12.5,-5 29.5,-7 22,-3 36,-10 7,-4 12,-7 l 6,12 q -6,2 -10,6 -10,6 -18,19 -14,20 -24,42.5 -10,22.5 -21,64.5 -4,16 -10,43.5 -6,27.5 -12,59 -6,31.5 -11.5,64.5 -5.5,33 -9.5,60 78,0 154.5,18.5 76.5,18.5 137,58 60.5,39.5 98,101 37.5,61.5 37.5,147.5 0,76 -25,136.5 -25,60.5 -66,102.5 -41,42 -94.5,64.5 Q 814,2057 756,2057 q -45,0 -81.5,-13.5 -36.5,-13.5 -62.5,-36 -26,-22.5 -40,-52 -14,-29.5 -14,-61.5 0,-33 11,-60.5 11,-27.5 30.5,-48 19.5,-20.5 45.5,-32 26,-11.5 56,-11.5 44,0 67,24 23,24 23,54 0,10 -5,19.5 -5,9.5 -16,9.5 -20,0 -20,-19 0,-11 6,-17 6,-6 6,-15 0,-4 -3,-11.5 -3,-7.5 -10,-14.5 -7,-7 -19,-12 -12,-5 -30,-5 -27,0 -50,11 -23,11 -39.5,29.5 -16.5,18.5 -26,43.5 -9.5,25 -9.5,52 0,63 46.5,100 46.5,37 123.5,37 47,0 89.5,-21 42.5,-21 74,-60 31.5,-39 50,-93.5 Q 977,1799 977,1732 q 0,-76 -28,-134 -28,-58 -76,-98 -48,-40 -112.5,-60.5 Q 696,1419 624,1419 Z m -399,451 q 46,0 84,-18 38,-18 69,-49.5 31,-31.5 56.5,-74 25.5,-42.5 45.5,-91.5 20,-49 36,-102.5 16,-53.5 29,-106.5 -40,8 -73,23 -33,15 -59,34 31,34 31,79 0,51 -23,79 -23,28 -56,28 -29,0 -49,-17.5 -20,-17.5 -20,-46.5 0,-33 22.5,-66.5 22.5,-33.5 62.5,-61.5 -21,-15 -49,-24 -28,-9 -63,-9 -48,0 -92.5,17.5 -44.5,17.5 -78.5,49 -34,31.5 -54.5,77 Q 23,1635 23,1690 q 0,39 15.5,72 15.5,33 43,57 27.5,24 64.5,37.5 37,13.5 79,13.5 z m 204,-306 q 0,-36 -30,-69 -30,25 -46.5,53.5 -16.5,28.5 -16.5,56.5 0,46 40,46 17,0 35,-22 18,-22 18,-65 z"></path></svg>
