<?xml version="1.0" encoding="UTF-8" standalone="no"?>
<svg xmlns="http://www.w3.org/2000/svg" width="4558" height="2057"><path id="path925" d="m 201,2057 q -9,0 -17.5,-3 -8.5,-3 -8.5,-11 0,-13 6.5,-40 6.5,-27 15.5,-86 -12,17 -29,35 -14,16 -34.5,36.5 Q 113,2009 86,2031 q -11,9 -28,17.5 -17,8.5 -28,8.5 -9,0 -17,-3 -8,-3 -8,-11 0,-10 7.5,-31 7.5,-21 17,-46.5 9.5,-25.5 17,-52.5 7.5,-27 7.5,-50 0,-9 -10,-9 -4,0 -10,3.5 -6,3.5 -12,8.5 -7,5 -15,12 l -7,-9 q 6,-5 17.5,-14.5 11.5,-9.5 25,-19 13.5,-9.5 28,-16.5 14.5,-7 26.5,-7 21,0 32,9 11,9 11,23 0,14 -4,34 -4,20 -9.5,41 -5.5,21 -12,41 -6.5,20 -10.5,33 43,-38 70,-72.5 27,-34.5 35,-56.5 6,-15 15.5,-25 9.5,-10 23.5,-10 15,0 23.5,-1.5 8.5,-1.5 13.5,-4 5,-2.5 8.5,-4 3.5,-1.5 8.5,-1.5 10,0 10,9 0,4 -3,9 -3,5 -7,15 -4,11 -8.5,33 -4.5,22 -9,47 -4.5,25 -9,48 -4.5,23 -8.5,36 13,-5 29.5,-17 16.5,-12 31.5,-28 15,-16 25,-33.5 10,-17.5 10,-33.5 0,-13 -3,-19.5 -3,-6.5 -6,-12 l -6,-11 q 0,0 -3,-16.5 0,-14 12.5,-23 12.5,-9 26.5,-9 18,0 29,11.5 11,11.5 11,31.5 0,31 -24.5,66.5 -24.5,35.5 -59.5,65.5 -35,30 -73,50 -38,20 -66,20 z"></path></svg>
