<?xml version="1.0" encoding="UTF-8" standalone="no"?>
<svg xmlns="http://www.w3.org/2000/svg" width="4558" height="2057"><path id="path76" d="m 102,1809 6,-17 h 18 l 48,-179 q 5,-18 13,-29 8,-11 21,-19 -21,4 -44.5,12 -23.5,8 -43,21.5 Q 101,1612 88,1633 q -13,21 -13,50 0,22 9.5,36.5 9.5,14.5 25.5,25.5 l -8,9 Q 89,1750 71.5,1743.5 54,1737 38,1727 22,1717 11,1703.5 0,1690 0,1672 q 0,-33 24,-57 24,-24 64,-40 40,-16 92,-23.5 52,-7.5 109,-7.5 h 157 q 14,0 22.5,3 8.5,3 8.5,9 0,6 -8,14 -8,8 -19,25 -10,16 -20,40.5 -10,24.5 -15,42.5 l -13,-7 q 3,-11 8,-29.5 5,-18.5 5,-44.5 0,-14 -20.5,-25.5 Q 374,1560 326,1560 q -16,0 -34,13.5 -18,13.5 -26,50.5 -7,26 -15,54 -7,24 -15,54 l -16,60 h 44 q 27,0 43.5,-1.5 16.5,-1.5 26,-4 9.5,-2.5 14,-4 4.5,-1.5 7.5,-1.5 7,0 7,6 0,4 -12,19.5 -12,15.5 -20,49.5 l -10,-3 q 0,-26 -15.5,-35 -15.5,-9 -42.5,-9 h -46 l -62,233 h 41 l -6,15 H 14 l 5,-15 h 39 l 63,-233 z"></path></svg>
