<?xml version="1.0" encoding="UTF-8" standalone="no"?>
<svg xmlns="http://www.w3.org/2000/svg" width="4558" height="2057"><path id="path105" d="m 925,1592 q -36,143 -76.5,233.5 -40.5,90.5 -85.5,142 -45,51.5 -96.5,70.5 -51.5,19 -109.5,19 -28,0 -51.5,-8.5 Q 482,2040 464,2027 q -26,13 -57.5,20 -31.5,7 -66.5,7 -56,0 -116,-17.5 Q 164,2019 114,1982 64,1945 32,1888 0,1831 0,1752 0,1651 41.5,1573 83,1495 150,1442.5 217,1390 300.5,1363 384,1336 468,1336 q 8,0 15,0.5 7,0.5 15,0.5 33,-27 75.5,-45.5 42.5,-18.5 89.5,-30.5 47,-12 96,-17.5 49,-5.5 94,-5.5 54,0 94.5,4 40.5,4 62.5,4 18,0 35.5,-3 17.5,-3 33.5,-11 l 5,10 q -6,6 -13,14 -6,7 -13,15.5 -7,8.5 -15,19.5 -38,55 -62.5,123 -24.5,68 -48.5,150 49,-26 85.5,-54 36.5,-28 66,-57.5 29.5,-29.5 54.5,-60.5 25,-31 50,-64 33,-43 68.5,-69.5 35.5,-26.5 71.5,-26.5 23,0 37.5,9.5 14.5,9.5 14.5,23.5 0,15 -11.5,25.5 -11.5,10.5 -24.5,10.5 -9,0 -14.5,-3.5 -5.5,-3.5 -9.5,-7.5 -4,-4 -9,-7.5 -5,-3.5 -13,-3.5 -22,0 -46,19.5 -24,19.5 -44,44.5 -27,33 -54.5,65 -27.5,32 -55.5,60.5 -28,28.5 -57.5,52.5 -29.5,24 -60.5,40 10,2 24,11.5 14,9.5 29.5,27 15.5,17.5 30,44 14.5,26.5 26.5,63.5 23,73 41,119.5 18,46.5 36,73 18,26.5 37.5,36.5 19.5,10 45.5,10 16,0 27,-3.5 11,-3.5 18,-7.5 l 6,9 q -11,8 -36.5,18.5 -25.5,10.5 -63.5,10.5 -35,0 -67,-8.5 -32,-8.5 -58,-35.5 -26,-27 -45.5,-76 -19.5,-49 -29.5,-130 -4,-32 -12,-54.5 Q 981,1646 971.5,1630 962,1614 952,1604.5 942,1595 933,1589 Z M 425,1486 q 0,-42 15.5,-75.5 Q 456,1377 483,1351 h -15 q -78,0 -149,28 -71,28 -125,80 -54,52 -86,125.5 -32,73.5 -32,164.5 0,75 22,128.5 22,53.5 59.5,88 37.5,34.5 85.5,50.5 48,16 101,16 29,0 54.5,-5 25.5,-5 48.5,-13 -14,-13 -22,-24.5 -8,-11.5 -8,-16.5 0,-8 5,-13 5,-5 11,-5 8,0 11.5,4.5 3.5,4.5 3.5,10.5 0,5 4.5,14.5 4.5,9.5 16.5,18.5 57,-29 87,-79 30,-50 30,-105 0,-32 -10.5,-58.5 Q 565,1734 547,1714.5 529,1695 504.5,1684.5 480,1674 452,1674 q -23,0 -44,8.5 -21,8.5 -36.5,22 -15.5,13.5 -24.5,31.5 -9,18 -9,36 0,17 6.5,30.5 6.5,13.5 15.5,22.5 9,9 19,14 10,5 18,5 7,0 12.5,-5 5.5,-5 10.5,-11 5,-6 10.5,-11 5.5,-5 12.5,-5 8,0 14.5,5.5 6.5,5.5 6.5,16.5 0,13 -15.5,22 -15.5,9 -35.5,9 -18,0 -34.5,-6 -16.5,-6 -29,-18 -12.5,-12 -20.5,-29 -8,-17 -8,-40 0,-22 10.5,-43 10.5,-21 28.5,-37 18,-16 41.5,-26 23.5,-10 49.5,-10 33,0 61,11.5 28,11.5 48.5,32.5 20.5,21 32,51 11.5,30 11.5,68 0,57 -30,109.5 -30,52.5 -86,86.5 19,8 46,8 50,0 86,-22.5 36,-22.5 66,-70.5 30,-48 58,-124 28,-76 62,-183 18,-55 32,-103.5 14,-48.5 32.5,-92 18.5,-43.5 47,-83 28.5,-39.5 74.5,-77.5 -23,-2 -45,-5 -19,-2 -39,-3.5 -20,-1.5 -34,-1.5 -43,0 -85.5,5 -42.5,5 -82.5,16.5 -40,11.5 -75,28.5 -35,17 -62,41 72,20 103.5,63 31.5,43 31.5,93 0,24 -8.5,46 -8.5,22 -24,39 -15.5,17 -37.5,27 -22,10 -49,10 -27,0 -55.5,-8 -28.5,-8 -52,-25 -23.5,-17 -38,-43.5 Q 425,1523 425,1486 Z m 260,13 q 0,-20 -7,-41 -7,-21 -23,-39.5 -16,-18.5 -40.5,-33.5 -24.5,-15 -58.5,-24 -28,29 -43.5,65.5 -15.5,36.5 -15.5,84.5 0,21 8,38 8,17 21.5,29.5 13.5,12.5 30.5,19 17,6.5 35,6.5 38,0 65.5,-26.5 Q 685,1551 685,1499 Z"></path></svg>
