<?xml version="1.0" encoding="UTF-8" standalone="no"?>
<svg xmlns="http://www.w3.org/2000/svg" width="4558" height="2057"><path id="path453" d="m 1258,1029 q -4,20 -10,59.5 -6,39.5 -14,89.5 -8,50 -18,105.5 -10,55.5 -22,107.5 -34,147 -83,269.5 -49,122.5 -119.5,210.5 -70.5,88 -166,137 -95.5,49 -222.5,49 -71,0 -130.5,-21.5 Q 413,2014 371,1972 q -8,1 -16.5,1 H 338 q -75,0 -137,-18 Q 139,1937 94.5,1904.5 50,1872 25,1827 0,1782 0,1728 q 0,-45 16,-80 16,-35 41,-59.5 25,-24.5 56,-37.5 31,-13 61,-13 35,0 48.5,8 13.5,8 13.5,22 0,11 -8,18.5 -8,7.5 -18,7.5 -10,0 -16,-4.5 -6,-4.5 -10.5,-10.5 -4.5,-6 -8.5,-10.5 -4,-4.5 -10,-4.5 -23,0 -48.5,10 -25.5,10 -46.5,30.5 -21,20.5 -35,51 -14,30.5 -14,72.5 0,48 23,89 23,41 63.5,70.5 40.5,29.5 95,46 54.5,16.5 118.5,16.5 8,0 15,-0.5 7,-0.5 14,-0.5 -29,-36 -45,-83.5 -16,-47.5 -16,-104.5 0,-67 21,-128.5 21,-61.5 60.5,-108.5 39.5,-47 95.5,-74.5 56,-27.5 125,-27.5 40,0 75.5,11.5 35.5,11.5 62.5,34 27,22.5 42.5,55 15.5,32.5 15.5,75.5 0,75 -32,138 -32,63 -83.5,110 -51.5,47 -118,77.5 Q 487,1954 418,1966 q 66,36 165,36 103,0 183.5,-49 80.5,-49 143,-132.5 Q 972,1737 1017,1626 q 45,-111 77,-235 13,-53 26,-108.5 13,-55.5 24,-105 11,-49.5 19.5,-89 8.5,-39.5 12.5,-59.5 h -22 l 9,-17 h 17 q 3,-13 7,-28 3,-13 7.5,-28.5 4.5,-15.5 9.5,-32.5 9,-30 25,-51 16,-21 34.5,-34 18.5,-13 37.5,-19 19,-6 35,-6 31,0 48,16 17,16 17,34 0,17 -10,31 -10,14 -31,14 -15,0 -23.5,-7.5 -8.5,-7.5 -8.5,-18.5 0,-16 9.5,-24.5 9.5,-8.5 9.5,-17.5 0,-12 -9,-12 -22,0 -34.5,26 -12.5,26 -24.5,76 -3,11 -6,25 -3,14 -5,27 l -6,30 h 68 l -10,17 z m -948,732 q 0,63 19.5,108.5 19.5,45.5 56.5,75.5 66,-10 126.5,-39.5 60.5,-29.5 106.5,-75 46,-45.5 73,-104.5 27,-59 27,-128 0,-73 -32,-113.5 -32,-40.5 -98,-40.5 -63,0 -114.5,26 -51.5,26 -88,69.5 -36.5,43.5 -56.5,101 -20,57.5 -20,120.5 z"></path></svg>
