<?xml version="1.0" encoding="UTF-8" standalone="no"?>
<svg xmlns="http://www.w3.org/2000/svg" width="4558" height="2057"><path id="path82" d="m 97,1789 h 21 l 48,-176 q 4,-15 10,-26 6,-11 22,-20 -57,8 -90.5,39.5 Q 74,1638 74,1683 q 0,22 9,36.5 9,14.5 26,25.5 l -9,9 Q 87,1750 69.5,1743.5 52,1737 36.5,1727 21,1717 10.5,1703.5 0,1690 0,1672 0,1645 15.5,1624 31,1603 59.5,1587.5 88,1572 128,1562 q 40,-10 88,-15 25,-2 51,-2.5 26,-0.5 55,-0.5 l -5,15 q -9,0 -17.5,1.5 -8.5,1.5 -15.5,8.5 -7,7 -13.5,20 -6.5,13 -12.5,35 l -45,165 h 196 l 63,-230 h -40 l 6,-15 h 174 l -5,15 h -40 l -63,230 h 27 l -7,17 h -24 l -65,237 h 42 l -6,14 H 296 l 4,-14 h 40 l 65,-237 H 209 q -12,44 -23.5,86 -11.5,42 -20.5,76 l -20,75 h 41 l -5,14 H 6 l 5,-14 h 39 l 64,-237 H 90 Z"></path></svg>
