<?xml version="1.0" encoding="UTF-8" standalone="no"?>
<svg xmlns="http://www.w3.org/2000/svg" width="4558" height="2057"><path id="path335" d="m 225,2038 q 70,0 138.5,-36 68.5,-36 123.5,-96 55,-60 89,-139 34,-79 34,-165 0,-61 -15.5,-104 -15.5,-43 -43,-70 -27.5,-27 -65,-39 -37.5,-12 -80.5,-12 -47,0 -86.5,15.5 -39.5,15.5 -67.5,40 -28,24.5 -43.5,56.5 -15.5,32 -15.5,65 0,35 10.5,59.5 10.5,24.5 28.5,40.5 18,16 41.5,23.5 23.5,7.5 50.5,7.5 25,0 42.5,-6.5 17.5,-6.5 28,-16.5 10.5,-10 15.5,-22 5,-12 5,-23 0,-6 -2,-10 -2,-4 -5,-8 -3,-4 -5,-9 -2,-5 -2,-14 0,-12 7.5,-20 7.5,-8 20.5,-8 17,0 25,13 8,13 8,28 0,23 -10.5,43 -10.5,20 -29,36 -18.5,16 -43,25 -24.5,9 -51.5,9 -33,0 -60.5,-9.5 -27.5,-9.5 -48,-27.5 -20.5,-18 -32,-45.5 Q 176,1592 176,1556 q 0,-37 17,-73 17,-36 48.5,-64.5 31.5,-28.5 76.5,-46 45,-17.5 100,-17.5 51,0 98,13.5 47,13.5 83.5,42 36.5,28.5 58.5,72 22,43.5 22,104.5 0,60 -18.5,117.5 -18.5,57.5 -51.5,110 -33,52.5 -77.5,97 -44.5,44.5 -97,76.5 -52.5,32 -110,50.5 Q 268,2057 209,2057 q -17,0 -51.5,-3 Q 123,2051 88,2037.5 53,2024 26.5,1996.5 0,1969 0,1919 q 0,-39 17,-70 17,-31 43.5,-52.5 26.5,-21.5 57.5,-33 31,-11.5 59,-11.5 29,0 49.5,14.5 20.5,14.5 20.5,35.5 0,17 -10.5,30 -10.5,13 -27.5,13 -14,0 -24,-7.5 -10,-7.5 -10,-18.5 0,-14 9,-22 9,-8 9,-18 0,-12 -10,-12 -20,0 -37,12 -17,12 -30,31 -13,19 -20,44 -7,25 -7,50 0,45 16.5,72 16.5,27 39,40.5 22.5,13.5 45,17.5 22.5,4 35.5,4 z"></path></svg>
