<?xml version="1.0" encoding="UTF-8" standalone="no"?>
<svg xmlns="http://www.w3.org/2000/svg" width="4558" height="2057"><path id="path847" d="m 35,1734 q 0,8 6.5,11.5 6.5,3.5 6.5,14.5 0,9 -6.5,16 -6.5,7 -17.5,7 -13,0 -18.5,-9 -5.5,-9 -5.5,-20 0,-16 10,-31 10,-15 30,-27 20,-12 49.5,-19 29.5,-7 68.5,-7 12,-20 29.5,-31.5 17.5,-11.5 38.5,-17.5 17,-4 27.5,-8 10.5,-4 16.5,-6 7,-3 11,-5 l 6,12 q -7,4 -14,10 -6,5 -13.5,14 -7.5,9 -13.5,20 -3,5 -6,10.5 -3,5.5 -6,12.5 31,8 61,18 30,10 63,20 33,10 71.5,16.5 38.5,6.5 87.5,6.5 60,0 107.5,-16.5 47.5,-16.5 80.5,-45.5 33,-29 51,-68.5 18,-39.5 18,-84.5 0,-73 -34,-111 -34,-38 -97,-38 -33,0 -58,9.5 -25,9.5 -41.5,24.5 -16.5,15 -25,32.5 -8.5,17.5 -8.5,32.5 0,7 4,11.5 4,4.5 9.5,8 5.5,3.5 9.5,8.5 4,5 4,13 0,12 -7,19.5 -7,7.5 -20,7.5 -14,0 -24,-13 -10,-13 -10,-35 0,-22 12.5,-46 12.5,-24 35,-43.5 22.5,-19.5 55,-32 32.5,-12.5 72.5,-12.5 34,0 68,9.5 34,9.5 60.5,29.5 26.5,20 43,51.5 16.5,31.5 16.5,75.5 0,55 -24,99 -24,44 -64.5,75.5 -40.5,31.5 -93,48.5 -52.5,17 -110.5,17 -51,0 -94,-8.5 -43,-8.5 -81,-20 -38,-11.5 -73.5,-24 Q 263,1704 228,1695 q -15,45 -29,88 -14,43 -24.5,81 -10.5,38 -17,68.5 -6.5,30.5 -6.5,50.5 0,19 6,26.5 6,7.5 18,7.5 11,0 21,-4.5 10,-4.5 18,-9.5 9,-6 16,-15 l 7,8 q -16,18 -34,31 -15,11 -33.5,20.5 -18.5,9.5 -36.5,9.5 -29,0 -49.5,-17 -20.5,-17 -20.5,-43 0,-27 8,-62.5 8,-35.5 21,-76.5 13,-41 29,-85 16,-44 31,-88 -32,0 -54,5.5 -22,5.5 -36,13 -14,7.5 -20.5,16 Q 35,1728 35,1734 Z"></path></svg>
