<?xml version="1.0" encoding="UTF-8" standalone="no"?>
<svg xmlns="http://www.w3.org/2000/svg" width="4558" height="2057"><path id="path550" d="m 270,1581 q -8,4 -16,10 -7,5 -15,13 -8,8 -14,19 -9,16 -21,51 -12,35 -24,76.5 -12,41.5 -23,83 -11,41.5 -19,70.5 19,-21 37.5,-39.5 18.5,-18.5 35.5,-32.5 17,-14 31.5,-22 14.5,-8 26.5,-8 19,0 28.5,11.5 9.5,11.5 9.5,25.5 0,15 -9,30 -9,15 -31,15 -14,0 -21.5,-8 -7.5,-8 -7.5,-20 0,-9 -5,-9 -5,0 -13,4.5 -8,4.5 -16.5,11.5 -8.5,7 -16.5,14 -8,7 -12,13 7,16 15,34 7,15 16,33.5 9,18.5 19,35.5 9,17 21.5,30.5 12.5,13.5 33.5,18.5 l 1,9 h -57 q -23,0 -43,-8 -20,-8 -28,-25 l -30,-64 q -11,33 -16,55 -5,22 -5,29 0,15 -14,15 -8,0 -21,-2 -13,-2 -26,-2 -14,0 -24,4 -10,4 -13,4 -4,0 -4,-4 0,-3 6,-9 6,-6 12,-18 12,-21 20,-50 8,-29 20,-74 10,-37 20.5,-76.5 10.5,-39.5 19.5,-74 9,-34.5 15.5,-59.5 6.5,-25 9.5,-34 7,-22 18.5,-35.5 11.5,-13.5 25.5,-22.5 -3,1 -7,1 h -7 q -7,0 -12,-1 l -10,-2 q 0,0 -9,-2 l 9,-12 8,2 q 10,2 21,2 17,0 44.5,-5 27.5,-5 55.5,-19 32,-16 69,-43 37,-27 68.5,-64.5 31.5,-37.5 52.5,-85.5 21,-48 21,-106 0,-34 -10.5,-60 -10.5,-26 -28,-43 -17.5,-17 -41.5,-26 -24,-9 -51,-9 -33,0 -62.5,11.5 -29.5,11.5 -52,31.5 -22.5,20 -35.5,46.5 -13,26.5 -13,56.5 0,46 23,69.5 23,23.5 55,23.5 22,0 33.5,-10.5 11.5,-10.5 11.5,-25.5 0,-11 6,-17.5 6,-6.5 15,-6.5 23,0 23,22 0,8 -7,17.5 -7,9.5 -18.5,17.5 -11.5,8 -27,13.5 -15.5,5.5 -33.5,5.5 -22,0 -43.5,-6 -21.5,-6 -38,-18 -16.5,-12 -26.5,-31 -10,-19 -10,-46 0,-35 17.5,-66 17.5,-31 47,-54.5 29.5,-23.5 67,-37 37.5,-13.5 77.5,-13.5 34,0 66.5,9 32.5,9 58,27 25.5,18 40.5,45.5 15,27.5 15,63.5 0,61 -27.5,112 -27.5,51 -67,92 -39.5,41 -84.5,71.5 -45,30.5 -80,50.5 z"></path></svg>
