<?xml version="1.0" encoding="UTF-8" standalone="no"?>
<svg xmlns="http://www.w3.org/2000/svg" width="4558" height="2057"><path id="path52" d="m 420,1858 q 0,41 12,71 12,30 32,49.5 20,19.5 46,29 26,9.5 54,9.5 69,0 125.5,-34 56.5,-34 87.5,-97 l 12,10 q -17,33 -41,62 -24,29 -55.5,51 -31.5,22 -71.5,35 -40,13 -89,13 -37,0 -78.5,-11.5 -41.5,-11.5 -77,-36 -35.5,-24.5 -58.5,-63 -23,-38.5 -23,-93.5 0,-24 3.5,-45.5 Q 302,1786 308,1766 239,1754 182,1726 125,1698 84.5,1656 44,1614 22,1558.5 0,1503 0,1435 q 0,-75 32,-135.5 32,-60.5 81,-103 49,-42.5 107.5,-65.5 58.5,-23 111.5,-23 78,0 125,38 47,38 47,113 0,35 -11,65.5 -11,30.5 -31.5,53 -20.5,22.5 -49.5,36 -29,13.5 -66,13.5 -29,0 -52.5,-10.5 -23.5,-10.5 -40,-27 -16.5,-16.5 -26,-36 -9.5,-19.5 -9.5,-37.5 0,-17 8.5,-31 8.5,-14 24.5,-14 14,0 22,8 8,8 8,19 0,8 -2.5,14 -2.5,6 -6,11 -3.5,5 -6,11 -2.5,6 -2.5,15 0,8 4,18.5 4,10.5 13.5,20 9.5,9.5 26,16 16.5,6.5 41.5,6.5 29,0 54,-12 25,-12 43.5,-32.5 18.5,-20.5 29,-48.5 10.5,-28 10.5,-60 0,-32 -12.5,-57 -12.5,-25 -33.5,-41.5 -21,-16.5 -49,-25 -28,-8.5 -59,-8.5 -48,0 -96,21.5 -48,21.5 -86,61 -38,39.5 -61.5,95 Q 65,1358 65,1426 q 0,124 66,208.5 66,84.5 185,112.5 26,-62 72.5,-103.5 46.5,-41.5 94.5,-67.5 55,-30 117,-48 -20,-12 -36,-29 -14,-14 -24.5,-36 -10.5,-22 -10.5,-53 0,-46 27,-85.5 27,-39.5 69.5,-69 42.5,-29.5 94.5,-46 52,-16.5 101,-16.5 72,0 110.5,35.5 38.5,35.5 38.5,89.5 0,25 -9,47 -9,22 -24,39.5 -15,17.5 -34.5,28.5 -19.5,11 -41.5,14 -15,54 -49,111.5 -34,57.5 -87.5,105.5 -53.5,48 -127,79 -73.5,31 -167.5,32 -10,37 -10,83 z m 203,-314 q -41,20 -77,51 -31,26 -63,66.5 -32,40.5 -49,97.5 88,-1 157,-31 69,-30 119.5,-75.5 50.5,-45.5 83.5,-100 33,-54.5 49,-104.5 -47,-1 -71,-24 -24,-23 -24,-57 0,-27 19,-48 19,-21 49,-21 28,0 43,17 15,17 15,49 0,32 -9,68 30,-7 52.5,-37.5 22.5,-30.5 22.5,-75.5 0,-43 -26,-66.5 -26,-23.5 -79,-23.5 -43,0 -79.5,18 -36.5,18 -63.5,47.5 -27,29.5 -42.5,68 -15.5,38.5 -15.5,79.5 0,19 2.5,31.5 2.5,12.5 6.5,20.5 4,10 9,16 15,-4 26,-4 20,0 32.5,7.5 12.5,7.5 12.5,18.5 0,15 -10.5,21.5 -10.5,6.5 -24.5,6.5 -14,0 -25.5,-2.5 -11.5,-2.5 -20.5,-5.5 -11,-4 -19,-8 z m 144,-178 q 0,27 19,47 19,20 61,21 11,-39 11,-70 0,-50 -44,-50 -20,0 -33.5,15 -13.5,15 -13.5,37 z"></path></svg>
