<?xml version="1.0" encoding="UTF-8" standalone="no"?>
<svg xmlns="http://www.w3.org/2000/svg" width="4558" height="2057"><path id="path163" d="m 215,1822 -60,220 h 41 l -6,15 H 16 l 5,-15 h 39 l 116,-428 q 5,-17 12,-27.5 7,-10.5 20,-18.5 -26,6 -50,19 -24,13 -42.5,31 -18.5,18 -29.5,41.5 -11,23.5 -11,50.5 0,21 9.5,36 9.5,15 25.5,26 l -8,9 Q 89,1777 71.5,1770.5 54,1764 38,1753.5 22,1743 11,1729.5 0,1716 0,1699 q 0,-34 24.5,-63.5 24.5,-29.5 65,-50.5 40.5,-21 93.5,-33 53,-12 110,-12 41,0 75.5,7 34.5,7 60,21.5 25.5,14.5 40,37 14.5,22.5 14.5,54.5 0,33 -17,62 -17,29 -47,51.5 -30,22.5 -71.5,35.5 -41.5,13 -90.5,13 z m 4,-15 h 20 q 36,0 64.5,-13.5 28.5,-13.5 47.5,-36 19,-22.5 29,-52 10,-29.5 10,-62.5 0,-39 -15.5,-61 -15.5,-22 -53.5,-22 -23,0 -34,15 -11,15 -19,47 z"></path></svg>
