<?xml version="1.0" encoding="UTF-8" standalone="no"?>
<svg xmlns="http://www.w3.org/2000/svg" width="4558" height="2057"><path id="path724" d="m 1290,2057 q -67,0 -129.5,-18 -62.5,-18 -122.5,-46 -29,30 -74.5,47 -45.5,17 -106.5,17 -58,0 -113,-21 -56,21 -113,21 -61,0 -107,-17 -46,-17 -74,-47 -60,28 -123,46 -63,18 -129,18 -96,0 -147,-40 -51,-40 -51,-101 0,-29 13.5,-56 13.5,-27 37.5,-47.5 24,-20.5 57.5,-33 33.5,-12.5 74.5,-12.5 24,0 47,6.5 23,6.5 40.5,17.5 17.5,11 28.5,27.5 11,16.5 11,35.5 0,22 -11.5,39 -11.5,17 -29,28 -17.5,11 -38.5,17 -21,6 -40,6 -3,0 -6.5,-0.5 -3.5,-0.5 -3.5,-4.5 0,-3 3.5,-4 3.5,-1 6.5,-1 15,0 30,-6 15,-6 26,-16.5 11,-10.5 18,-24.5 7,-14 7,-31 0,-35 -26.5,-56 -26.5,-21 -67.5,-21 -37,0 -67.5,11.5 Q 80,1802 58,1821 36,1840 23.5,1864.5 11,1889 11,1915 q 0,27 12,49.5 12,22.5 34,39 22,16.5 53,25.5 31,9 68,9 67,0 129.5,-20 62.5,-20 121.5,-52 -19,-35 -19,-74 0,-28 9.5,-54.5 9.5,-26.5 28.5,-48 19,-21.5 47,-36.5 28,-15 66,-20 9,-36 27.5,-63.5 18.5,-27.5 43.5,-47 25,-19.5 54,-29.5 29,-10 58,-10 29,0 58,10 29,10 53.5,29.5 24.5,19.5 43.5,47 19,27.5 28,63.5 37,5 65.5,20 28.5,15 47.5,36.5 19,21.5 28.5,48 9.5,26.5 9.5,54.5 0,40 -20,74 60,32 122,52 62,20 130,20 37,0 68,-9 31,-9 53,-25.5 22,-16.5 34,-39 12,-22.5 12,-49.5 0,-26 -12.5,-50.5 -12.5,-24.5 -34.5,-43.5 -22,-19 -52.5,-30.5 -30.5,-11.5 -67.5,-11.5 -41,0 -67.5,21 -26.5,21 -26.5,56 0,17 7,31 7,14 18,24.5 11,10.5 26,16.5 15,6 30,6 3,0 6.5,1 3.5,1 3.5,4 0,4 -3.5,4.5 -3.5,0.5 -6.5,0.5 -19,0 -40,-6 -21,-6 -38.5,-17 -17.5,-11 -29,-28 -11.5,-17 -11.5,-39 0,-19 11,-35.5 11,-16.5 28.5,-27.5 17.5,-11 40.5,-17.5 23,-6.5 47,-6.5 41,0 74.5,12.5 33.5,12.5 57.5,33 24,20.5 37.5,47.5 13.5,27 13.5,56 0,61 -51,101 -51,40 -147,40 z M 744,1595 q -26,0 -52,9.5 -26,9.5 -48.5,27 -22.5,17.5 -39.5,42.5 -17,25 -26,57 4,-1 8,-1 h 9 q 36,0 73.5,11.5 37.5,11.5 75.5,31.5 38,-20 75,-31.5 37,-11.5 74,-11.5 h 8.5 q 0,0 8.5,1 -9,-32 -26.5,-57 -17.5,-25 -40,-42.5 -22.5,-17.5 -48,-27 Q 770,1595 744,1595 Z m 0,429 q 42,-17 79,-46 37,-29 61,-68 -37,-21 -71.5,-41 -34.5,-20 -68.5,-37 -34,17 -69,37 -35,20 -71,41 24,39 60.5,68 36.5,29 79.5,46 z m -113,22 q 49,0 96,-16 -42,-18 -77,-46 -35,-28 -59,-66 -32,18 -63.5,35.5 -31.5,17.5 -64.5,33.5 26,26 68,42.5 42,16.5 100,16.5 z m 394,-59 q -33,-16 -65,-33.5 -32,-17.5 -63,-35.5 -24,38 -59.5,66 -35.5,28 -77.5,46 47,16 97,16 58,0 100,-16.5 42,-16.5 68,-42.5 z M 917,1879 q 32,21 63.5,41 31.5,20 65.5,39 14,-26 14,-56 0,-50 -34,-81 -34,-31 -92,-35 0,50 -17,92 z m -489,24 q 0,32 14,56 33,-19 65,-39 32,-20 64,-41 -17,-42 -17,-92 -58,6 -92,36 -34,30 -34,80 z m 476,-32 q 7,-19 10.5,-39.5 3.5,-20.5 3.5,-46.5 -35,0 -62,5.5 -27,5.5 -53,15.5 25,15 50,31.5 25,16.5 51,33.5 z m -334,-86 q 0,26 3.5,46.5 3.5,20.5 10.5,39.5 26,-17 51,-33.5 25,-16.5 49,-31.5 -26,-10 -53,-15.5 -27,-5.5 -61,-5.5 z"></path></svg>
