<?xml version="1.0" encoding="UTF-8" standalone="no"?>
<svg xmlns="http://www.w3.org/2000/svg" width="4558" height="2057"><path id="path79" d="m 348,1432 q -46,0 -88.5,26 -42.5,26 -75.5,70 -33,44 -52.5,102 -19.5,58 -19.5,121 0,46 8,77 8,31 22,49.5 14,18.5 34,26.5 20,8 43,8 14,0 31.5,-4.5 Q 268,1903 286,1892 l 35,-124 q 4,-14 14.5,-28.5 Q 346,1725 362,1716 h -47 l 7,-15 h 147 l -5,15 q -14,0 -29.5,10.5 -15.5,10.5 -25.5,33.5 -8,18 -16,43.5 -8,25.5 -16,54 -8,28.5 -16,57.5 -8,29 -15,54 -8,26 -25.5,44.5 -17.5,18.5 -43.5,29.5 -20,8 -44,11 -24,3 -45,3 l 7,-15 q 16,-2 35,-14.5 19,-12.5 28,-43.5 l 21,-67 q -19,11 -41.5,16 -22.5,5 -39.5,5 -26,0 -60,-7.5 -34,-7.5 -65,-27.5 -31,-20 -52,-55 -21,-35 -21,-91 0,-72 29.5,-134.5 29.5,-62.5 78,-109 48.5,-46.5 109.5,-73 61,-26.5 124,-26.5 16,0 38,2.5 22,2.5 42.5,7 20.5,4.5 34.5,12 14,7.5 14,17.5 0,7 -7,15.5 -7,8.5 -16.5,20.5 -9.5,12 -19.5,27 -10,15 -16,36 l -12,-6 q 5,-20 7.5,-39 2.5,-19 2.5,-36 0,-17 -17.5,-28 -17.5,-11 -43.5,-11 z"></path></svg>
