<?xml version="1.0" encoding="UTF-8" standalone="no"?>
<svg xmlns="http://www.w3.org/2000/svg" width="4558" height="2057"><path id="path722" d="m 1049,1459 q 13,0 26.5,7 13.5,7 24.5,21.5 11,14.5 18,35 7,20.5 7,47.5 0,45 -15.5,82.5 -15.5,37.5 -42.5,67.5 31,34 74,55 19,-36 52,-65.5 33,-29.5 73.5,-51 40.5,-21.5 86,-33.5 45.5,-12 89.5,-12 33,0 60,8 27,8 47,23 20,15 31,35 11,20 11,44 0,36 -20.5,65.5 -20.5,29.5 -51,50 -30.5,20.5 -66,31.5 -35.5,11 -65.5,11 -39,0 -60,-17 -21,-17 -23,-49 -8,1 -16,1 h -16 q -51,0 -96,-12 -13,37 -13,72 0,22 6.5,42.5 6.5,20.5 20,36.5 13.5,16 34,25.5 20.5,9.5 48.5,9.5 66,0 122.5,-22.5 56.5,-22.5 107,-56.5 50.5,-34 98,-74 47.5,-40 95.5,-74 48,-34 99,-56.5 51,-22.5 110,-22.5 39,0 74,11.5 35,11.5 61.5,33 26.5,21.5 42,52.5 15.5,31 15.5,70 0,47 -21.5,85 -21.5,38 -55.5,65 -34,27 -75,41.5 -41,14.5 -81,14.5 -32,0 -59.5,-8 -27.5,-8 -47.5,-22.5 -20,-14.5 -31.5,-35.5 -11.5,-21 -11.5,-48 0,-22 10,-42 10,-20 27,-35.5 17,-15.5 40,-24.5 23,-9 50,-9 43,0 73,22.5 30,22.5 30,55.5 0,8 -1.5,13.5 -1.5,5.5 -6.5,5.5 -6,0 -6,-8 0,-17 -6.5,-28.5 -6.5,-11.5 -16.5,-18.5 -10,-7 -22,-10 -12,-3 -23,-3 -46,0 -76.5,25.5 -30.5,25.5 -30.5,66.5 0,44 32.5,66.5 32.5,22.5 82.5,22.5 34,0 70,-13 36,-13 65,-36 29,-23 48,-54.5 19,-31.5 19,-69.5 0,-40 -13.5,-65 -13.5,-25 -35,-39.5 -21.5,-14.5 -48,-19.5 -26.5,-5 -51.5,-5 -51,0 -98.5,19.5 -47.5,19.5 -94.5,48.5 -47,29 -96,63.5 -49,34.5 -102.5,63.5 -53.5,29 -114,48.5 -60.5,19.5 -130.5,19.5 -44,0 -76.5,-11 -32.5,-11 -53.5,-29.5 -21,-18.5 -31.5,-44 -10.5,-25.5 -10.5,-54.5 0,-20 4,-38 4,-18 12,-36 -49,-20 -84,-52 -18,17 -39.5,29.5 -21.5,12.5 -45.5,22.5 17,37 17,74 0,29 -10.5,54.5 -10.5,25.5 -31.5,44 -21,18.5 -53.5,29.5 -32.5,11 -76.5,11 -70,0 -130.5,-19.5 Q 618,1964 564.5,1935 511,1906 462,1871.5 413,1837 366,1808 319,1779 271.5,1759.5 224,1740 173,1740 q -26,0 -52,5 -26,5 -47.5,19.5 -21.5,14.5 -35,39.5 -13.5,25 -13.5,65 0,38 19,69.5 19,31.5 48,54.5 29,23 65,36 36,13 70,13 50,0 82.5,-22.5 Q 342,1997 342,1953 342,1912 311.5,1886.5 281,1861 235,1861 q -11,0 -23,3 -12,3 -22,10 -10,7 -16.5,18.5 -6.5,11.5 -6.5,28.5 0,8 -6,8 -5,0 -6.5,-5.5 -1.5,-5.5 -1.5,-13.5 0,-33 30,-55.5 30,-22.5 73,-22.5 27,0 50,9 23,9 40,24.5 17,15.5 27,35.5 10,20 10,42 0,27 -11.5,48 -11.5,21 -31.5,35.5 -20,14.5 -47.5,22.5 -27.5,8 -59.5,8 -40,0 -81.5,-14.5 Q 110,2028 76.5,2001 43,1974 21.5,1936 0,1898 0,1851 q 0,-39 15.5,-70 15.5,-31 42,-52.5 26.5,-21.5 61.5,-33 35,-11.5 74,-11.5 58,0 109.5,22.5 51.5,22.5 99.5,56.5 48,34 95.5,74 47.5,40 98,74 50.5,34 107,56.5 56.5,22.5 122.5,22.5 28,0 48.5,-9.5 20.5,-9.5 34,-25.5 13.5,-16 20,-36.5 6.5,-20.5 6.5,-42.5 0,-36 -14,-72 -45,12 -95,12 h -16 q 0,0 -16,-1 -2,32 -23,49 -21,17 -60,17 -30,0 -65.5,-11 -35.5,-11 -66,-31.5 -30.5,-20.5 -51,-50 Q 507,1759 507,1723 q 0,-24 11,-44 11,-20 31,-35 20,-15 47,-23 27,-8 60,-8 44,0 89,12 45,12 85.5,33.5 40.5,21.5 73.5,51 33,29.5 53,65.5 42,-21 73,-55 -27,-30 -42,-67.5 -15,-37.5 -15,-82.5 0,-27 7,-47.5 7,-20.5 18,-35 11,-14.5 24.5,-21.5 13.5,-7 26.5,-7 z m 388,279 q 0,14 -10,26 -10,12 -26.5,22 -16.5,10 -38,17 -21.5,7 -45.5,10 0,26 17.5,41 17.5,15 51.5,15 26,0 54,-10.5 28,-10.5 51.5,-29.5 23.5,-19 38.5,-46.5 15,-27.5 15,-60.5 0,-18 -6.5,-35 -6.5,-17 -19,-31 -12.5,-14 -32,-22.5 -19.5,-8.5 -44.5,-8.5 -41,0 -80.5,12.5 -39.5,12.5 -74.5,35 -35,22.5 -62.5,53 -27.5,30.5 -43.5,66.5 21,7 44,10 23,3 47,3 8,0 16,-0.5 8,-0.5 16,-1.5 1,-16 9,-33 8,-17 20.5,-31.5 12.5,-14.5 29,-24 16.5,-9.5 36.5,-9.5 17,0 27,9 10,9 10,24 z m -612,67 q 50,0 90,-13 -16,-36 -43.5,-66.5 -27.5,-30.5 -62,-53 -34.5,-22.5 -74.5,-35 -40,-12.5 -80,-12.5 -26,0 -45,8.5 -19,8.5 -31.5,22.5 -12.5,14 -19,31 -6.5,17 -6.5,35 0,33 15,60.5 15,27.5 38,46.5 23,19 51.5,29.5 28.5,10.5 54.5,10.5 34,0 51.5,-15 17.5,-15 17.5,-41 -24,-3 -46,-10 -22,-7 -38.5,-17 -16.5,-10 -26,-22 -9.5,-12 -9.5,-26 0,-15 10,-24 10,-9 27,-9 20,0 36.5,9.5 16.5,9.5 29,24 12.5,14.5 19.5,31.5 7,17 9,33 8,1 16.5,1.5 8.5,0.5 16.5,0.5 z m 187,-235 q 0,71 37,126 17,-27 27,-58.5 10,-31.5 10,-67.5 0,-45 -9.5,-73.5 -9.5,-28.5 -27.5,-28.5 -18,0 -27.5,28.5 -9.5,28.5 -9.5,73.5 z m -334,172 q 0,19 29,36 29,17 72,24 -3,-13 -12,-26 -9,-13 -21.5,-23 -12.5,-10 -26,-16 -13.5,-6 -25.5,-6 -10,0 -13,3 -3,3 -3,8 z m 726,-11 q -12,0 -26,6 -14,6 -26,16 -12,10 -21.5,23 -9.5,13 -12.5,26 44,-7 73,-24 29,-17 29,-36 0,-5 -3,-8 -3,-3 -13,-3 z"></path></svg>
