<?xml version="1.0" encoding="UTF-8" standalone="no"?>
<svg xmlns="http://www.w3.org/2000/svg" width="4558" height="2057"><path id="path646" d="m 748,1396 q 0,12 1,24 1,12 3,23 57,-23 115,-37.5 58,-14.5 119,-14.5 59,0 97,24 38,24 38,72 0,28 -14.5,55.5 -14.5,27.5 -40.5,49 -26,21.5 -61.5,35 -35.5,13.5 -78.5,13.5 -38,0 -74,-11 -36,-11 -67,-30.5 -31,-19.5 -56,-47 -25,-27.5 -40,-60.5 -50,26 -99,54 43,21 79.5,47.5 36.5,26.5 63,59 26.5,32.5 41.5,70 15,37.5 15,79.5 0,59 -18.5,106.5 -18.5,47.5 -51,80.5 -32.5,33 -77,51 -44.5,18 -97.5,18 -36,0 -70.5,-11.5 -34.5,-11.5 -61,-34 -26.5,-22.5 -42.5,-54 -16,-31.5 -16,-72.5 0,-33 14,-62 14,-29 36.5,-50.5 22.5,-21.5 51,-34 28.5,-12.5 58.5,-12.5 50,0 81.5,24 31.5,24 31.5,67 0,20 -10.5,31.5 -10.5,11.5 -23.5,11.5 -13,0 -20,-7.5 -7,-7.5 -7,-17.5 0,-7 3,-12 3,-5 7,-9 4,-4 7,-8 3,-4 3,-10 0,-23 -17.5,-38.5 Q 552,1742 514,1742 q -26,0 -50.5,11.5 -24.5,11.5 -44,30.5 -19.5,19 -31.5,44.5 -12,25.5 -12,52.5 0,35 12.5,60.5 12.5,25.5 34,42.5 21.5,17 50.5,25.5 29,8.5 63,8.5 40,0 72.5,-16 32.5,-16 55.5,-43 23,-27 35.5,-62.5 12.5,-35.5 12.5,-75.5 0,-85 -43,-150 -43,-65 -113,-107 -53,30 -104.5,59.5 -51.5,29.5 -103,52 Q 297,1698 246,1712 q -51,14 -102,14 -30,0 -56.5,-6 -26.5,-6 -46,-18 Q 22,1690 11,1671.5 0,1653 0,1629 q 0,-31 24.5,-58 24.5,-27 66,-47 41.5,-20 96.5,-31 55,-11 117,-11 69,0 136.5,13.5 67.5,13.5 127.5,39.5 29,-16 57.5,-31.5 28.5,-15.5 57.5,-29.5 -12,-33 -12,-68 0,-48 8.5,-88.5 8.5,-40.5 18,-73 9.5,-32.5 18,-57 8.5,-24.5 8.5,-39.5 0,-16 -12,-16 -14,0 -38,15.5 -24,15.5 -50,44.5 -8,9 -16.5,29 -8.5,20 -15.5,41 -7,21 -11.5,39.5 -4.5,18.5 -4.5,24.5 0,14 -22,14 -7,0 -16,-1.5 -9,-1.5 -23,-1.5 -14,0 -24.5,4 -10.5,4 -13.5,4 -4,0 -4,-6 0,-4 6.5,-8.5 6.5,-4.5 11.5,-15.5 9,-19 18,-44 9,-25 17,-50 8,-25 13,-45.5 5,-20.5 5,-29.5 0,-13 -8,-13 -4,0 -10.5,4.5 -6.5,4.5 -13.5,9.5 -8,6 -16,13 l -7,-9 q 6,-6 17.5,-15.5 11.5,-9.5 24.5,-18.5 13,-9 27,-15.5 14,-6.5 26,-6.5 18,0 30.5,8.5 12.5,8.5 12.5,23.5 0,9 -1.5,17.5 -1.5,8.5 -3.5,16.5 -2,9 -4,17 15,-17 33,-32 18,-15 37,-26.5 19,-11.5 37,-18 18,-6.5 32,-6.5 19,0 33,10.5 14,10.5 14,26.5 0,18 -9,45 -9,27 -19.5,61.5 -10.5,34.5 -19,74.5 -8.5,40 -8.5,83 z m -582,301 q 45,0 90.5,-12 45.5,-12 91.5,-32.5 46,-20.5 93,-46.5 47,-26 95,-53 -51,-26 -109,-40 -58,-14 -121,-14 -53,0 -96.5,10 -43.5,10 -74.5,26.5 -31,16.5 -48,39.5 -17,23 -17,48 0,32 23.5,53 23.5,21 72.5,21 z m 821,-291 q -60,0 -117,15 -57,15 -114,39 18,60 67.5,94 49.5,34 121.5,34 30,0 56.5,-8.5 26.5,-8.5 46.5,-22.5 20,-14 32,-32 12,-18 12,-38 0,-41 -27.5,-61 -27.5,-20 -77.5,-20 z"></path></svg>
