<?xml version="1.0" encoding="UTF-8" standalone="no"?>
<svg xmlns="http://www.w3.org/2000/svg" width="4558" height="2057"><path id="path747" d="m 632,1186 q -4,13 -9,31 -5,16 -12,40.5 -7,24.5 -15,59.5 31,-5 61.5,-6.5 30.5,-1.5 60.5,-1.5 79,0 152.5,15.5 73.5,15.5 130,51.5 56.5,36 90.5,95.5 34,59.5 34,146.5 0,92 -39,172.5 -39,80.5 -103,139.5 -64,59 -145.5,93 -81.5,34 -165.5,34 -103,0 -162,-40 -59,-40 -59,-112 0,-51 25.5,-100 25.5,-49 67.5,-87.5 42,-38.5 95,-62.5 53,-24 108,-24 58,0 88.5,25.5 30.5,25.5 30.5,67.5 0,20 -8.5,35.5 -8.5,15.5 -22.5,15.5 -8,0 -13.5,-5 -5.5,-5 -5.5,-13 0,-7 4.5,-11.5 4.5,-4.5 10.5,-9 6,-4.5 10.5,-10 4.5,-5.5 4.5,-14.5 0,-29 -24.5,-47 -24.5,-18 -74.5,-18 -47,0 -90,22.5 -43,22.5 -75.5,58 -32.5,35.5 -52,78.5 -19.5,43 -19.5,85 0,66 44,107 44,41 128,41 75,0 142.5,-33 67.5,-33 118.5,-89.5 51,-56.5 81,-132.5 30,-76 30,-162 0,-83 -29.5,-139 -29.5,-56 -79,-90.5 Q 896,1358 832,1343.5 768,1329 699,1329 q -26,0 -53,2 -27,2 -55,6 -33,133 -81,233.5 -48,100.5 -106,168 -58,67.5 -123,101.5 -65,34 -132,34 -37,0 -65,-11.5 Q 56,1851 37.5,1832 19,1813 9.5,1789 0,1765 0,1740 0,1673 42.5,1609.5 85,1546 156,1492.5 227,1439 319.5,1398 412,1357 511,1334 q 15,-47 31,-98.5 16,-51.5 28.5,-96 12.5,-44.5 21,-75.5 8.5,-31 8.5,-37 0,-5 -1.5,-8.5 -1.5,-3.5 -6.5,-3.5 -4,0 -10,4.5 -6,4.5 -13,9.5 -8,6 -16,13 l -7,-9 q 6,-6 17.5,-15.5 11.5,-9.5 25,-19 13.5,-9.5 28,-16.5 14.5,-7 26.5,-7 18,0 30,8.5 12,8.5 12,22.5 0,7 -2,15 -1,4 -2,6 20,-23 50,-37.5 30,-14.5 54,-14.5 27,0 49.5,16 22.5,16 22.5,51 0,38 -14.5,71 -14.5,33 -37,57 -22.5,24 -50,38 -27.5,14 -52.5,14 -28,0 -44.5,-10 -16.5,-10 -26.5,-26 z m -128,168 q -91,22 -176.5,60 -85.5,38 -152,87.5 Q 109,1551 69,1608 q -40,57 -40,117 0,32 22,57 22,25 66,25 62,0 117.5,-33 55.5,-33 104,-92.5 48.5,-59.5 90,-143 Q 470,1455 504,1354 Z m 246,-351 q -20,0 -43.5,21 -23.5,21 -37.5,50 -3,7 -7.5,18.5 -4.5,11.5 -8.5,23.5 -4,12 -6.5,22.5 -2.5,10.5 -2.5,16.5 0,25 12.5,33.5 12.5,8.5 23.5,8.5 19,0 35.5,-12.5 16.5,-12.5 28.5,-33.5 12,-21 19,-49 7,-28 7,-60 0,-21 -6,-30 -6,-9 -14,-9 z"></path></svg>
