<?xml version="1.0" encoding="UTF-8" standalone="no"?>
<svg xmlns="http://www.w3.org/2000/svg" width="4558" height="2057"><path id="path800" d="m 540,1612 q -31,0 -59,3 11,31 18.5,63 7.5,32 7.5,67 0,65 -20,122 -20,57 -57,99 -37,42 -89.5,66.5 Q 288,2057 224,2057 170,2057 128,2039.5 86,2022 57.5,1993.5 29,1965 14.5,1928 0,1891 0,1851 q 0,-50 18.5,-88 18.5,-38 48.5,-64 30,-26 68,-39.5 38,-13.5 77,-13.5 44,0 73,17 26,-15 55.5,-26.5 Q 370,1625 402,1617 391,1588 377.5,1561 364,1534 353,1510 342,1486 334.5,1464.5 327,1443 327,1424 q 0,-24 10.5,-42.5 10.5,-18.5 26.5,-31 16,-12.5 35,-18.5 19,-6 36,-6 28,0 48.5,14 20.5,14 20.5,36 0,19 -11.5,30.5 -11.5,11.5 -25.5,11.5 -15,0 -24,-7.5 -9,-7.5 -9,-18.5 0,-13 7.5,-19.5 7.5,-6.5 7.5,-18.5 0,-8 -5,-11.5 -5,-3.5 -10,-3.5 -15,0 -25,16 -10,16 -10,48 0,18 7.5,40 7.5,22 19.5,47.5 12,25.5 25.5,53.5 13.5,28 25.5,59 16,-2 31.5,-3 15.5,-1 31.5,-1 64,0 112,14.5 48,14.5 80.5,39 32.5,24.5 49,57.5 16.5,33 16.5,69 0,34 -13.5,63 -13.5,29 -35.5,50.5 -22,21.5 -50.5,33.5 -28.5,12 -58.5,12 -45,0 -74,-25.5 -29,-25.5 -29,-63.5 0,-34 22,-56 22,-22 48,-22 17,0 26.5,6.5 9.5,6.5 9.5,17.5 0,9 -5.5,15 -5.5,6 -14.5,6 -8,0 -12.5,-3.5 -4.5,-3.5 -7.5,-7.5 -3,-4 -7,-7.5 -4,-3.5 -10,-3.5 -9,0 -22.5,13 -13.5,13 -13.5,42 0,33 26,54.5 26,21.5 64,21.5 27,0 48.5,-11.5 21.5,-11.5 35.5,-31.5 14,-20 21.5,-47.5 7.5,-27.5 7.5,-60.5 0,-30 -12,-59.5 -12,-29.5 -37.5,-52 Q 678,1640 637.5,1626 597,1612 540,1612 Z m -111,134 q 0,-31 -6,-59.5 -6,-28.5 -16,-55.5 -59,18 -102,46 34,34 34,90 0,24 -7.5,49 -7.5,25 -21,44.5 -13.5,19.5 -33,32 Q 258,1905 233,1905 202,1905 177.5,1887.5 153,1870 153,1834 q 0,-48 32.5,-89.5 32.5,-41.5 86.5,-73.5 -25,-14 -62,-14 -32,0 -64.5,12.5 -32.5,12.5 -59,37.5 -26.5,25 -43.5,61 -17,36 -17,83 0,32 12,60.5 12,28.5 35,50.5 23,22 56,34.5 33,12.5 75,12.5 57,0 99.5,-19.5 42.5,-19.5 70,-54.5 27.5,-35 41.5,-83.5 14,-48.5 14,-105.5 z m -105,21 q 0,-22 -7.5,-43.5 Q 309,1702 292,1686 q -43,30 -68.5,67 -25.5,37 -25.5,77 0,27 12.5,40 12.5,13 32.5,13 16,0 30.5,-9.5 14.5,-9.5 26,-26 11.5,-16.5 18,-37 6.5,-20.5 6.5,-43.5 z m 117,-473 q -9,0 -20.5,-12 -11.5,-12 -22,-27.5 -10.5,-15.5 -17.5,-31 -7,-15.5 -7,-21.5 0,-4 3,-6 3,-2 6,-2 3,0 10.5,9 7.5,9 16.5,19.5 9,10.5 19,19 10,8.5 20,8.5 13,0 28,-9 15,-9 28,-19.5 13,-10.5 22.5,-19.5 9.5,-9 12.5,-9 9,0 9,8 0,5 -13,20 -13,15 -31,31 -18,16 -36,29 -18,13 -28,13 z"></path></svg>
