<?xml version="1.0" encoding="UTF-8" standalone="no"?>
<svg xmlns="http://www.w3.org/2000/svg" width="4558" height="2057"><path id="path768" d="m 175,1723 q -16,20 -41.5,39 -25.5,19 -52.5,19 -35,0 -58,-20.5 Q 0,1740 0,1705 q 0,-36 16.5,-67 16.5,-31 41,-54.5 24.5,-23.5 53.5,-37 29,-13.5 54,-13.5 29,0 44,13 15,13 17,33 5,-15 18,-25 13,-10 39,-14 12,-2 21,-4.5 9,-2.5 15,-5.5 7,-4 12,-7 l 6,11 q -7,5 -14,11 -6,5 -13,13.5 -7,8.5 -13,19.5 -9,17 -19.5,49.5 -10.5,32.5 -21.5,72.5 -11,42 -23,88 -12,46 -21.5,85.5 -9.5,39.5 -15.5,69 -6,29.5 -6,39.5 23,-16 53,-28 26,-11 60.5,-20 34.5,-9 77.5,-9 39,0 89,8.5 50,8.5 104.5,19 54.5,10.5 111,19 56.5,8.5 109.5,8.5 78,0 129.5,-27 51.5,-27 62.5,-88 1,-6 2,-11.5 1,-5.5 6,-5.5 5,0 6.5,6 1.5,6 1.5,15 0,35 -11.5,66.5 -11.5,31.5 -35.5,56 -24,24.5 -62,39 -38,14.5 -90,14.5 -51,0 -107.5,-16 -56.5,-16 -114,-35.5 Q 525,1974 470,1958 q -55,-16 -101,-16 -48,0 -91.5,18 -43.5,18 -77,39.5 -33.5,21.5 -55,39.5 -21.5,18 -24.5,18 -8,0 -16,-6 -8,-6 -8,-16 0,-12 7.5,-47.5 7.5,-35.5 19,-80.5 11.5,-45 25,-94 13.5,-49 26.5,-90 z m -60,27 q 17,0 39,-22 22,-22 36,-51 3,-7 7,-19 4,-12 7,-24.5 3,-12.5 5,-23.5 2,-11 2,-17 0,-18 -8.5,-30 -8.5,-12 -27.5,-12 -18,0 -34,14 -16,14 -27.5,36 -11.5,22 -18,47.5 -6.5,25.5 -6.5,47.5 0,54 26,54 z"></path></svg>
