<?xml version="1.0" encoding="UTF-8" standalone="no"?>
<svg xmlns="http://www.w3.org/2000/svg" width="4558" height="2057"><path id="path929" d="m 873,1619 q 0,-51 -27.5,-72.5 Q 818,1525 767,1525 q -38,0 -79.5,13 -41.5,13 -85.5,32.5 -44,19.5 -91,42 -47,22.5 -96.5,42 Q 365,1674 314,1687 q -51,13 -104,13 -40,0 -78,-9 -38,-9 -67,-28.5 Q 36,1643 18,1611.5 0,1580 0,1535 0,1485 20.5,1435 41,1385 76,1338.5 111,1292 158.5,1252 206,1212 260,1182.5 314,1153 371.5,1136 429,1119 486,1119 q 45,0 85,8.5 40,8.5 69.5,25.5 29.5,17 47,44 17.5,27 17.5,64 0,62 -33.5,113.5 -33.5,51.5 -84,88.5 -50.5,37 -108,58 -57.5,21 -105.5,21 -43,0 -73,-21 -30,-21 -30,-64 0,-21 7.5,-34.5 7.5,-13.5 20.5,-13.5 10,0 16.5,5.5 6.5,5.5 6.5,15.5 0,8 -4,12.5 -4,4.5 -9.5,9 -5.5,4.5 -9.5,9.5 -4,5 -4,14 0,23 21.5,37.5 21.5,14.5 57.5,14.5 43,0 90,-22 47,-22 86,-58.5 39,-36.5 64.5,-83.5 25.5,-47 25.5,-97 0,-34 -13,-59 -13,-25 -35,-41 -22,-16 -51.5,-23.5 -29.5,-7.5 -62.5,-7.5 -49,0 -98,16.5 -49,16.5 -93.5,45 -44.5,28.5 -83.5,67 -39,38.5 -67.5,82.5 -28.5,44 -44.5,91.5 -16,47.5 -16,93.5 0,39 11.5,67 11.5,28 32,46 20.5,18 47.5,27 27,9 57,9 52,0 103,-14.5 51,-14.5 101.5,-35.5 50.5,-21 99.5,-46.5 49,-25.5 96.5,-46.5 47.5,-21 93.5,-35.5 46,-14.5 90,-14.5 25,0 48.5,5 23.5,5 42,17 18.5,12 30,32.5 11.5,20.5 11.5,51.5 0,35 -13,73 -13,38 -32.5,74.5 -19.5,36.5 -44,70 -24.5,33.5 -47,61 -22.5,27.5 -41,47 -18.5,19.5 -27.5,27.5 11,32 22,51.5 11,19.5 27,19.5 9,0 18.5,-4.5 9.5,-4.5 17.5,-10.5 10,-6 19,-15 l 7,8 q -17,18 -35,31 -15,12 -33.5,21.5 -18.5,9.5 -36.5,9.5 -29,0 -48,-10 -19,-10 -31,-44 -20,18 -32.5,28.5 -12.5,10.5 -22,16 -9.5,5.5 -18,7.5 -8.5,2 -18.5,2 -12,0 -24,-6.5 -12,-6.5 -12,-23.5 0,-17 12.5,-27.5 12.5,-10.5 27.5,-10.5 13,0 21,6.5 8,6.5 19,6.5 10,0 17.5,-2 7.5,-2 23.5,-14 -5,-17 -9,-37 -4,-20 -9,-43 -7,-29 -12,-40.5 -5,-11.5 -18,-11.5 -4,0 -10.5,4 -6.5,4 -12.5,9 -8,5 -16,12 l -8,-9 q 6,-5 16.5,-15 10.5,-10 23.5,-19.5 13,-9.5 27,-16.5 14,-7 25,-7 26,0 39,18 13,18 25,58 l 11,40 q 40,-45 73,-96 27,-44 50,-98.5 23,-54.5 23,-114.5 z"></path></svg>
