<?xml version="1.0" encoding="UTF-8" standalone="no"?>
<svg xmlns="http://www.w3.org/2000/svg" width="4558" height="2057"><path id="path170" d="m 811,1991 q -54,0 -94.5,-17.5 Q 676,1956 647,1928 602,1985 534.5,2021 467,2057 380,2057 198,2057 99,1971 0,1885 0,1721 0,1612 51.5,1520 103,1428 190.5,1361.5 278,1295 393,1258 q 115,-37 241,-37 91,0 164,18 73,18 126,50 65,-32 138.5,-50 73.5,-18 139.5,-18 33,0 59.5,2 26.5,2 53.5,8 24,-13 50.5,-19.5 26.5,-6.5 49.5,-6.5 22,0 41,6 19,6 19,13 0,9 -6,14 -6,5 -13,5 -6,0 -9.5,-3.5 -3.5,-3.5 -7.5,-8 -4,-4.5 -9.5,-8 -5.5,-3.5 -14.5,-3.5 -26,0 -57,22 67,21 110,60 43,39 43,88 0,35 -13,63.5 -13,28.5 -34,50.5 -21,22 -46.5,38.5 -25.5,16.5 -50,27.5 -24.5,11 -45.5,16.5 -21,5.5 -32,6.5 29,23 49,56 20,33 34.5,69.5 14.5,36.5 25.5,72 11,35.5 23,64 12,28.5 27,46.5 15,18 37,18 15,0 25.5,-4 10.5,-4 16.5,-7 l 6,9 q -11,8 -31,17 -20,9 -51,9 -49,0 -79,-16.5 -30,-16.5 -47.5,-44 -17.5,-27.5 -26,-62 -8.5,-34.5 -15,-71 -6.5,-36.5 -14.5,-71 -8,-34.5 -24,-61.5 -5,-8 -11.5,-13.5 -6.5,-5.5 -6.5,-10.5 0,-9 8,-9 25,-3 55,-16.5 30,-13.5 55.5,-37 25.5,-23.5 42.5,-58 17,-34.5 17,-79.5 0,-39 -16.5,-71 -16.5,-32 -55.5,-55 -35,36 -61,99 -26,63 -50.5,136.5 -24.5,73.5 -52,151 -27.5,77.5 -65.5,142.5 -23,40 -52.5,75.5 -29.5,35.5 -66,62 -36.5,26.5 -80,42 Q 863,1991 811,1991 Z m 392,-753 q -60,0 -124.5,20 -64.5,20 -119.5,55 47,37 71.5,84 24.5,47 24.5,101 0,32 -10.5,61 -10.5,29 -29,51 -18.5,22 -45,34.5 -26.5,12.5 -57.5,12.5 -33,0 -62.5,-9.5 Q 821,1638 798,1620 775,1602 761.5,1574.5 748,1547 748,1511 q 0,-66 43.5,-119 43.5,-53 111.5,-91 -51,-29 -118,-45.5 -67,-16.5 -151,-16.5 -107,0 -208,39.5 -101,39.5 -179,106 -78,66.5 -125,153.5 -47,87 -47,182 0,74 23,133 23,59 64.5,100 41.5,41 97.5,63 56,22 122,22 84,0 145,-37.5 61,-37.5 99,-97.5 -38,-53 -38,-114 0,-28 9.5,-52 9.5,-24 24,-42.5 14.5,-18.5 30.5,-30 16,-11.5 29,-15.5 -7,-39 -25.5,-69 -18.5,-30 -45,-50 -26.5,-20 -59.5,-30.5 -33,-10.5 -70,-10.5 -40,0 -77,15.5 -37,15.5 -65.5,42 -28.5,26.5 -45.5,62.5 -17,36 -17,77 0,36 12,63 12,27 31,44 19,17 43.5,25.5 24.5,8.5 48.5,8.5 23,0 40,-7 17,-7 28.5,-18 11.5,-11 17.5,-24.5 6,-13.5 6,-25.5 0,-10 -5.5,-14.5 -5.5,-4.5 -5.5,-18.5 0,-8 6.5,-15 6.5,-7 17.5,-7 13,0 19.5,10.5 6.5,10.5 6.5,22.5 0,18 -9.5,38 -9.5,20 -26.5,37 -17,17 -41,28 -24,11 -54,11 -29,0 -57,-10 -28,-10 -50,-30 -22,-20 -35.5,-50 -13.5,-30 -13.5,-71 0,-43 19,-81.5 19,-38.5 50.5,-67.5 31.5,-29 72,-45.5 40.5,-16.5 84.5,-16.5 49,0 93.5,14 44.5,14 78.5,42.5 34,28.5 54.5,72 20.5,43.5 20.5,102.5 0,50 -14.5,98.5 -14.5,48.5 -41.5,92.5 37,23 92,23 41,0 74.5,-11.5 33.5,-11.5 62,-32.5 28.5,-21 53.5,-49.5 25,-28.5 49,-62.5 44,-63 80.5,-138 36.5,-75 70,-147 33.5,-72 66.5,-132.5 33,-60.5 71,-94.5 -21,-6 -41,-8.5 -20,-2.5 -47,-2.5 z m -167,256 q 0,-47 -24,-90.5 -24,-43.5 -71,-78.5 -54,37 -87.5,84.5 Q 820,1457 820,1511 q 0,57 25.5,90 25.5,33 75.5,33 24,0 44.5,-11 20.5,-11 36.5,-30 16,-19 25,-44.5 9,-25.5 9,-54.5 z m -423,289 q 0,54 32,89 20,-40 30.5,-84.5 10.5,-44.5 10.5,-90.5 0,-8 -0.5,-16 -0.5,-8 -1.5,-16 -11,3 -23.5,12.5 -12.5,9.5 -23,25 -10.5,15.5 -17.5,36 -7,20.5 -7,44.5 z m 695,-587 q -9,0 -22,-13 -13,-13 -24,-30 -11,-17 -19,-33.5 -8,-16.5 -8,-23.5 0,-9 10,-9 4,0 11.5,9.5 7.5,9.5 17.5,21 10,11.5 21,21 11,9.5 22,9.5 15,0 31,-9.5 16,-9.5 30.5,-21.5 14.5,-12 24.5,-21.5 10,-9.5 13,-9.5 10,0 10,9 0,5 -14.5,21.5 -14.5,16.5 -34,34 -19.5,17.5 -39.5,31.5 -20,14 -30,14 z"></path></svg>
