<?xml version="1.0" encoding="UTF-8" standalone="no"?>
<svg xmlns="http://www.w3.org/2000/svg" width="4558" height="2057"><path id="path65" d="m 127,1633 h -15 l 6,-17 h 14 l 42,-159 q 5,-18 13,-29 8,-11 21,-19 -21,4 -44.5,12 -23.5,8 -43,21.5 Q 101,1456 88,1477 q -13,21 -13,50 0,22 9.5,36.5 9.5,14.5 25.5,25.5 l -8,9 Q 89,1594 71.5,1587.5 54,1581 38,1571 22,1561 11,1547.5 0,1534 0,1516 q 0,-33 24,-57 24,-24 64,-40 40,-16 92,-23.5 52,-7.5 109,-7.5 h 146 q 14,0 22.5,3 8.5,3 8.5,9 0,6 -8,14 -8,8 -19,25 -10,16 -20,40.5 -10,24.5 -15,42.5 l -13,-7 q 3,-11 8,-29.5 5,-18.5 5,-44.5 0,-7 -3.5,-13.5 -3.5,-6.5 -12,-11.5 -8.5,-5 -23.5,-8.5 -15,-3.5 -39,-3.5 -16,0 -34,13.5 -18,13.5 -26,50.5 -6,20 -12,44 -5,20 -12.5,47 -7.5,27 -15.5,57 h 45 q 27,0 42.5,-1.5 15.5,-1.5 24.5,-4 9,-2.5 12.5,-4 3.5,-1.5 6.5,-1.5 7,0 7,6 0,4 -12,19.5 -12,15.5 -20,49.5 l -10,-3 q 0,-26 -13,-35 -13,-9 -40,-9 h -48 q -11,40 -22,80.5 -11,40.5 -19.5,74 -8.5,33.5 -14,56 -5.5,22.5 -5.5,25.5 0,11 8,14 8,3 19,3 42,0 72,-8 30,-8 53,-21 23,-13 40,-30 17,-17 33,-35 l 9,7 q -16,25 -22.5,48.5 -6.5,23.5 -8.5,40.5 -1,8 -7.5,10.5 -6.5,2.5 -14.5,2.5 h -91 q -2,2 -11,10 -9,8 -19,18.5 -10,10.5 -18,23 -8,12.5 -8,22.5 0,9 5,15.5 5,6.5 12.5,10 7.5,3.5 15,5.5 7.5,2 13.5,2 8,0 8,7 0,5 -3,12 -3,7 -8,13.5 -5,6.5 -12,11.5 -7,5 -14,5 -8,0 -20,-5.5 -12,-5.5 -23,-14.5 -11,-9 -18.5,-22 -7.5,-13 -7.5,-28 0,-12 8,-23.5 8,-11.5 20.5,-22.5 12.5,-11 27,-21 14.5,-10 27.5,-19 H 14 l 5,-15 h 39 z"></path></svg>
