<?xml version="1.0" encoding="UTF-8" standalone="no"?>
<svg xmlns="http://www.w3.org/2000/svg" width="4558" height="2057"><path id="path749" d="m 603,2057 q -71,0 -130.5,-21.5 Q 413,2014 371,1972 q -8,1 -16.5,1 H 338 q -75,0 -137,-18 Q 139,1937 94.5,1904.5 50,1872 25,1827 0,1782 0,1728 q 0,-45 16,-80 16,-35 41,-59.5 25,-24.5 56,-37.5 31,-13 61,-13 35,0 48.5,8 13.5,8 13.5,22 0,11 -8,18.5 -8,7.5 -18,7.5 -10,0 -16,-4.5 -6,-4.5 -10.5,-10.5 -4.5,-6 -8.5,-10.5 -4,-4.5 -10,-4.5 -23,0 -48.5,10 -25.5,10 -46.5,30.5 -21,20.5 -35,51 -14,30.5 -14,72.5 0,48 23,89 23,41 63.5,70.5 40.5,29.5 95,46 54.5,16.5 118.5,16.5 8,0 15,-0.5 7,-0.5 14,-0.5 -29,-36 -45,-83.5 -16,-47.5 -16,-104.5 0,-67 21,-128.5 21,-61.5 60.5,-108.5 39.5,-47 95.5,-74.5 56,-27.5 125,-27.5 40,0 75.5,11.5 35.5,11.5 62.5,34 27,22.5 42.5,55 15.5,32.5 15.5,75.5 0,75 -32,138 -32,63 -83.5,110 -51.5,47 -118,77.5 Q 487,1954 418,1966 q 66,36 165,36 100,0 178,-49 78,-49 139.5,-132.5 61.5,-83.5 109,-194.5 47.5,-111 86.5,-235 13,-41 26.5,-85.5 13.5,-44.5 24.5,-83 11,-38.5 18.5,-66 7.5,-27.5 7.5,-34.5 0,-5 -1.5,-8.5 -1.5,-3.5 -6.5,-3.5 -4,0 -10,4.5 -6,4.5 -13,9.5 -8,6 -16,13 l -7,-9 q 6,-6 17.5,-15.5 11.5,-9.5 25,-19 13.5,-9.5 28,-16.5 14.5,-7 26.5,-7 18,0 30,8.5 12,8.5 12,22.5 0,7 -2,15 -1,4 -2,6 20,-23 50,-37.5 30,-14.5 54,-14.5 27,0 49.5,16 22.5,16 22.5,51 0,38 -14.5,71 -14.5,33 -37,57 -22.5,24 -50,38 -27.5,14 -52.5,14 -28,0 -44.5,-10 -16.5,-10 -26.5,-26 -4,13 -8,31 -4,15 -9.5,37 l -12.5,50 q -42,164 -92.5,287 -50.5,123 -118,205.5 -67.5,82.5 -156,124 Q 720,2057 603,2057 Z M 310,1761 q 0,63 19.5,108.5 19.5,45.5 56.5,75.5 66,-10 126.5,-39.5 60.5,-29.5 106.5,-75 46,-45.5 73,-104.5 27,-59 27,-128 0,-73 -32,-113.5 -32,-40.5 -98,-40.5 -63,0 -114.5,26 -51.5,26 -88,69.5 -36.5,43.5 -56.5,101 -20,57.5 -20,120.5 z m 1013,-663 q -20,0 -43.5,21 -23.5,21 -37.5,50 -3,7 -7.5,18.5 -4.5,11.5 -8.5,23.5 -4,12 -6.5,22.5 -2.5,10.5 -2.5,16.5 0,25 12.5,33.5 12.5,8.5 23.5,8.5 19,0 35.5,-12.5 16.5,-12.5 28.5,-33.5 12,-21 19,-49 7,-28 7,-60 0,-21 -6,-30 -6,-9 -14,-9 z"></path></svg>
