<?xml version="1.0" encoding="UTF-8" standalone="no"?>
<svg xmlns="http://www.w3.org/2000/svg" width="4558" height="2057"><path id="path642" d="m 653,1667 q 0,-50 8.5,-96.5 8.5,-46.5 19,-85 10.5,-38.5 19.5,-67 9,-28.5 9,-43.5 0,-16 -12,-16 -14,0 -38,15.5 -24,15.5 -50,44.5 -8,9 -16.5,29 -8.5,20 -15.5,41 -7,21 -11.5,39.5 -4.5,18.5 -4.5,24.5 0,14 -22,14 -7,0 -16,-1.5 -9,-1.5 -23,-1.5 -14,0 -24.5,4 -10.5,4 -13.5,4 -4,0 -4,-6 0,-4 6.5,-8.5 6.5,-4.5 11.5,-15.5 9,-19 18,-44 9,-25 17,-50 8,-25 13,-45.5 5,-20.5 5,-29.5 0,-13 -8,-13 -4,0 -10.5,4.5 -6.5,4.5 -13.5,9.5 -8,6 -16,13 l -7,-9 q 6,-6 17.5,-15.5 11.5,-9.5 24.5,-18.5 13,-9 27,-15.5 14,-6.5 26,-6.5 18,0 30.5,8.5 12.5,8.5 12.5,23.5 0,9 -1.5,17.5 -1.5,8.5 -3.5,16.5 -2,9 -4,17 15,-17 33,-32 18,-15 37,-26.5 19,-11.5 37,-18 18,-6.5 32,-6.5 19,0 33,10.5 14,10.5 14,26.5 0,18 -9.5,46 -9.5,28 -21,65.5 -11.5,37.5 -21,83.5 -9.5,46 -9.5,101 0,88 26,152 53,-22 105,-43 52,-21 105,-37 53,-16 107,-25.5 54,-9.5 111,-9.5 36,0 71,7.5 35,7.5 62.5,25.5 27.5,18 44,48 16.5,30 16.5,74 0,42 -19,80 -19,38 -55,67 -36,29 -88.5,46 -52.5,17 -119.5,17 -50,0 -105.5,-9.5 -55.5,-9.5 -109.5,-32 -54,-22.5 -101,-60 -47,-37.5 -78,-92.5 -63,30 -124.5,59 -61.5,29 -121.5,51.5 -60,22.5 -117,36.5 -57,14 -111,14 -62,0 -105,-23 Q 78,1978 51,1942.5 24,1907 12,1865.5 0,1824 0,1786 q 0,-9 1.5,-15 1.5,-6 6.5,-6 5,0 6,5.5 1,5.5 2,11.5 9,73 62.5,118 53.5,45 151.5,45 65,0 125,-9 60,-9 116,-24.5 Q 527,1896 580.5,1876 634,1856 686,1835 670,1800 661.5,1758.5 653,1717 653,1667 Z m 531,42 q -50,0 -102,10 -52,10 -104.5,27 -52.5,17 -105.5,39 -53,22 -106,47 25,50 64,84 39,34 85.5,54 46.5,20 97,28.5 50.5,8.5 99.5,8.5 54,0 98.5,-12.5 44.5,-12.5 76,-35 31.5,-22.5 48.5,-54.5 17,-32 17,-71 0,-36 -14.5,-60 -14.5,-24 -38,-38.5 -23.5,-14.5 -54,-20.5 -30.5,-6 -61.5,-6 z"></path></svg>
