<?xml version="1.0" encoding="UTF-8" standalone="no"?>
<svg xmlns="http://www.w3.org/2000/svg" width="4558" height="2057"><path id="path921" d="m 873,1619 q 0,-51 -27.5,-72.5 Q 818,1525 767,1525 q -38,0 -79.5,13 -41.5,13 -85.5,32.5 -44,19.5 -91,42 -47,22.5 -96.5,42 Q 365,1674 314,1687 q -51,13 -104,13 -40,0 -78,-9 -38,-9 -67,-28.5 Q 36,1643 18,1611.5 0,1580 0,1535 0,1485 20.5,1435 41,1385 76,1338.5 111,1292 158.5,1252 206,1212 260,1182.5 314,1153 371.5,1136 429,1119 486,1119 q 45,0 85,8.5 40,8.5 69.5,25.5 29.5,17 47,44 17.5,27 17.5,64 0,62 -33.5,113.5 -33.5,51.5 -84,88.5 -50.5,37 -108,58 -57.5,21 -105.5,21 -43,0 -73,-21 -30,-21 -30,-64 0,-21 7.5,-34.5 7.5,-13.5 20.5,-13.5 10,0 16.5,5.5 6.5,5.5 6.5,15.5 0,8 -4,12.5 -4,4.5 -9.5,9 -5.5,4.5 -9.5,9.5 -4,5 -4,14 0,23 21.5,37.5 21.5,14.5 57.5,14.5 43,0 90,-22 47,-22 86,-58.5 39,-36.5 64.5,-83.5 25.5,-47 25.5,-97 0,-34 -13,-59 -13,-25 -35,-41 -22,-16 -51.5,-23.5 -29.5,-7.5 -62.5,-7.5 -49,0 -98,16.5 -49,16.5 -93.5,45 -44.5,28.5 -83.5,67 -39,38.5 -67.5,82.5 -28.5,44 -44.5,91.5 -16,47.5 -16,93.5 0,39 11.5,67 11.5,28 32,46 20.5,18 47.5,27 27,9 57,9 52,0 103,-14.5 51,-14.5 101.5,-35.5 50.5,-21 99.5,-46.5 49,-25.5 96.5,-46.5 47.5,-21 93.5,-35.5 46,-14.5 90,-14.5 25,0 48.5,5 23.5,5 42,17 18.5,12 30,32.5 11.5,20.5 11.5,51.5 0,36 -15,77.5 -15,41.5 -39.5,84 -24.5,42.5 -56,83.5 -31.5,41 -65.5,77.5 -34,36.5 -68,66.5 -34,30 -62,49 -12,8 -27.5,17 -15.5,9 -26.5,9 -9,0 -17,-3 -8,-3 -8,-11 0,-13 11,-40 11,-27 20,-86 -15,17 -33,35 -16,16 -38,36.5 -22,20.5 -49,42.5 -11,9 -28,17.5 -17,8.5 -28,8.5 -9,0 -17,-3 -8,-3 -8,-11 0,-10 7.5,-31 7.5,-21 17,-46.5 9.5,-25.5 17,-52.5 7.5,-27 7.5,-50 0,-9 -10,-9 -4,0 -10,3.5 -6,3.5 -12,8.5 -7,5 -15,12 l -7,-9 q 6,-5 17.5,-14.5 11.5,-9.5 25,-19 13.5,-9.5 28,-16.5 14.5,-7 26.5,-7 21,0 32,9 11,9 11,23 0,14 -4.5,35 -4.5,21 -10.5,43.5 -6,22.5 -13,43 -7,20.5 -11,33.5 21,-19 40.5,-38 19.5,-19 35,-37 15.5,-18 26.5,-33.5 11,-15.5 15,-26.5 6,-15 15.5,-25 9.5,-10 23.5,-10 15,0 23.5,-1.5 8.5,-1.5 13.5,-4 5,-2.5 8.5,-4 3.5,-1.5 8.5,-1.5 10,0 10,9 0,4 -3,9 -3,5 -7,15 -4,11 -9.5,30.5 -5.5,19.5 -11,41.5 -5.5,22 -11.5,43 -6,21 -10,34 30,-27 69,-68 39,-41 73.5,-91.5 34.5,-50.5 58.5,-107 24,-56.5 24,-114.5 z"></path></svg>
