<?xml version="1.0" encoding="UTF-8" standalone="no"?>
<svg xmlns="http://www.w3.org/2000/svg" width="4558" height="2057"><path id="path815" d="m 581,1717 q 0,12 -1,23.5 -1,11.5 -3,23.5 57,21 115,42 58,21 121.5,38 63.5,17 134,28 70.5,11 151.5,11 100,0 152,-41 52,-41 62,-112 l 2,-12 q 0,0 6,-6 6,-6 6.5,6.5 0.5,12.5 1.5,15.5 0,39 -12.5,81 -12.5,42 -39.5,77 -27,35 -70,58 -43,23 -104,23 -64,0 -129.5,-17 -65.5,-17 -132,-43 -66.5,-26 -134,-57.5 Q 640,1824 572,1795 q -13,57 -44,105 -31,48 -75,83 -44,35 -100,54.5 -56,19.5 -119,19.5 -51,0 -93.5,-14 Q 98,2029 66.5,2003.5 35,1978 17.5,1943 0,1908 0,1866 q 0,-43 17,-76 17,-33 46.5,-56 29.5,-23 69.5,-35 40,-12 86,-12 72,0 136,12 64,12 126,32 1,-5 1,-8.5 v -8.5 q 0,-58 -10.5,-101.5 -10.5,-43.5 -23,-82 -12.5,-38.5 -23,-77.5 -10.5,-39 -10.5,-88 0,-24 10.5,-42.5 10.5,-18.5 26.5,-31 16,-12.5 35,-18.5 19,-6 36,-6 28,0 48.5,14 20.5,14 20.5,36 0,19 -11.5,30.5 -11.5,11.5 -25.5,11.5 -15,0 -24,-7.5 -9,-7.5 -9,-18.5 0,-13 7.5,-19.5 7.5,-6.5 7.5,-18.5 0,-8 -5,-11.5 -5,-3.5 -10,-3.5 -15,0 -25,16 -10,16 -10,48 0,47 14.5,88.5 14.5,41.5 32.5,84.5 18,43 32.5,91 14.5,48 14.5,109 z m -354,273 q 51,0 94.5,-18 43.5,-18 76,-49 32.5,-31 53.5,-73.5 21,-42.5 28,-91.5 -65,-24 -128.5,-39 -63.5,-15 -127.5,-15 -42,0 -77.5,10.5 Q 110,1725 84,1745.5 58,1766 43.5,1795 29,1824 29,1860 q 0,34 16,58.5 16,24.5 43.5,40.5 27.5,16 63.5,23.5 36,7.5 75,7.5 z m 370,-870 q 7,0 14.5,12.5 7.5,12.5 7.5,23.5 0,16 -20,34 -26,22 -54,34 -28,12 -51,12 -3,0 -6.5,-2 -3.5,-2 -3.5,-6 0,-5 9,-9 20,-8 44.5,-30 24.5,-22 45.5,-59 2,-4 6,-7 4,-3 8,-3 z"></path></svg>
