<?xml version="1.0" encoding="UTF-8" standalone="no"?>
<svg xmlns="http://www.w3.org/2000/svg" width="4558" height="2057"><path id="path994" d="m 382,1973 q -37,0 -65,13 -28,13 -53,28.5 -25,15.5 -50.5,28.5 -25.5,13 -57.5,13 -25,0 -49,-8 -24,-8 -44,-8 -23,0 -32,5 -9,5 -17,5 -5,0 -9.5,-3.5 Q 0,2043 0,2037 q 0,-15 5,-24.5 5,-9.5 19,-22.5 22,-20 46,-34 24,-14 47,-27 23,-13 45,-26.5 22,-13.5 40,-31.5 -9,6 -31,6 -14,0 -23,-2 -9,-2 -16.5,-4 -7.5,-2 -15.5,-4 -8,-2 -18,-2 -14,0 -23,3.5 -9,3.5 -16,8.5 -8,5 -13,11 l -7,-6 q 14,-21 30,-38 14,-14 31,-26.5 17,-12.5 37,-12.5 14,0 23,1.5 9,1.5 16,4 7,2.5 15,4 8,1.5 20,1.5 13,0 20.5,-1.5 7.5,-1.5 12.5,-4 l 8,-4 q 0,0 6,-1.5 2,0 6,4 4,4 4,6 0,6 -11.5,23 -11.5,17 -26.5,32 -23,23 -45,38.5 -22,15.5 -42.5,27.5 -20.5,12 -40,22.5 Q 83,1969 65,1982 q 2,-1 8.5,-3 6.5,-2 17.5,-2 13,0 26,3.5 13,3.5 27.5,8 14.5,4.5 30.5,8 16,3.5 36,3.5 35,0 63.5,-12.5 28.5,-12.5 54,-27 25.5,-14.5 51,-27 25.5,-12.5 54.5,-12.5 38,0 63.5,12.5 25.5,12.5 48,27.5 22.5,15 47.5,27.5 25,12.5 64,12.5 22,0 39,-5 17,-5 29.5,-12 12.5,-7 21,-14.5 8.5,-7.5 15.5,-12.5 l 8,9 q -9,9 -26,24.5 -17,15.5 -39,30 -22,14.5 -48.5,25.5 -26.5,11 -54.5,11 -36,0 -65.5,-13 -29.5,-13 -55,-29 -25.5,-16 -49.5,-29 -24,-13 -50,-13 z"></path></svg>
