<?xml version="1.0" encoding="UTF-8" standalone="no"?>
<svg xmlns="http://www.w3.org/2000/svg" width="4558" height="2057"><path id="path544" d="m 340,1392 q 22,0 43,3 12,-33 34,-58.5 22,-25.5 51,-43 29,-17.5 62,-26.5 33,-9 68,-9 40,0 77.5,13.5 37.5,13.5 66.5,44 29,30.5 46,80 17,49.5 17,120.5 0,16 -1,32 -1,16 -3,33 29,-30 51,-69 22,-39 38.5,-81.5 16.5,-42.5 29,-85.5 12.5,-43 22.5,-81 4,-17 11.5,-56 7.5,-39 16,-85 8.5,-46 17,-92.5 8.5,-46.5 14.5,-78.5 5,-22 13.5,-34.5 Q 1023,905 1038,896 h -7.5 q 0,0 -10.5,-1 -9,0 -17,-2 -4,-1 -7,-2 l 8,-12 8,2 q 5,1 21,1 17,0 43,-4.5 26,-4.5 58,-18.5 l 5,9 q -8,6 -15,13 -6,6 -13.5,15.5 -7.5,9.5 -13.5,20.5 -13,23 -19,43.5 -6,20.5 -12,45.5 -6,26 -13.5,62.5 -7.5,36.5 -14,73.5 -6.5,37 -11.5,69.5 -5,32.5 -8,50.5 -9,57 -26,119 -17,62 -45,118.5 -28,56.5 -68.5,102.5 -40.5,46 -96.5,73 -20,75 -59,144 -39,69 -94.5,122 -55.5,53 -127,84.5 Q 431,2057 344,2057 266,2057 202.5,2031.5 139,2006 94,1962 49,1918 24.5,1858 0,1798 0,1729 0,1654 29,1591.5 58,1529 105.5,1485 153,1441 214,1416.5 275,1392 340,1392 Z m 7,605 q 78,0 144.5,-24.5 66.5,-24.5 119,-66.5 52.5,-42 90.5,-99 38,-57 60,-122 -25,9 -52.5,14.5 -27.5,5.5 -59.5,5.5 -20,0 -40.5,-2.5 -20.5,-2.5 -39.5,-7.5 -11,35 -31,65 -20,30 -47,51.5 -27,21.5 -60,33.5 -33,12 -69,12 -33,0 -61.5,-9.5 -28.5,-9.5 -50,-27 -21.5,-17.5 -34,-41 Q 204,1756 204,1727 q 0,-33 13.5,-47.5 13.5,-14.5 26.5,-14.5 11,0 18,7.5 7,7.5 7,18.5 0,10 -5.5,16.5 -5.5,6.5 -12,12.5 -6.5,6 -12,13 -5.5,7 -5.5,19 0,16 10,32 10,16 27,28.5 17,12.5 41,20 24,7.5 52,7.5 33,0 63,-11 30,-11 54,-31 24,-20 41.5,-47.5 17.5,-27.5 26.5,-60.5 -38,-12 -71,-33 -33,-21 -57,-49.5 -24,-28.5 -37.5,-64 Q 370,1508 370,1467 q 0,-29 8,-56 -9,-2 -18,-2 h -19 q -58,0 -111.5,24 -53.5,24 -95,66.5 Q 93,1542 68.5,1600 44,1658 44,1726 q 0,60 21.5,110 21.5,50 61,86 39.5,36 95.5,55.5 56,19.5 125,19.5 z m 288,-342 q 45,0 81,-14.5 36,-14.5 65,-40.5 4,-20 5.5,-41 1.5,-21 1.5,-41 0,-69 -17,-116 -17,-47 -45,-76.5 -28,-29.5 -62.5,-42 Q 629,1271 595,1271 q -30,0 -59,8.5 -29,8.5 -53.5,25 -24.5,16.5 -43,41 -18.5,24.5 -27.5,55.5 37,9 68,28.5 31,19.5 53,47 22,27.5 34.5,63.5 12.5,36 12.5,78 v 15 q 0,0 -1,15 27,7 56,7 z M 404,1458 q 0,36 13,66 13,30 34.5,53 21.5,23 49,39.5 27.5,16.5 56.5,25.5 1,-5 1,-10.5 V 1621 q 0,-41 -11.5,-75 -11.5,-34 -32,-59.5 -20.5,-25.5 -48,-42.5 -27.5,-17 -58.5,-26 -2,9 -3,19 -1,10 -1,21 z m 666,-670 q 0,-10 5,-21.5 5,-11.5 13,-20.5 8,-9 17.5,-15 9.5,-6 18.5,-6 13,0 22,8.5 9,8.5 9,22.5 0,11 -4.5,22.5 -4.5,11.5 -11.5,21.5 -7,10 -16.5,16 -9.5,6 -18.5,6 -13,0 -23.5,-9 -10.5,-9 -10.5,-25 z"></path></svg>
