<?xml version="1.0" encoding="UTF-8" standalone="no"?>
<svg xmlns="http://www.w3.org/2000/svg" width="4558" height="2057"><path id="path719" d="m 1268,1690 q -20,0 -35,5.5 -15,5.5 -25,13.5 -10,8 -15,17.5 -5,9.5 -5,18.5 0,8 9,11 9,3 9,14 0,7 -4.5,10.5 -4.5,3.5 -9.5,3.5 -9,0 -14.5,-8 -5.5,-8 -5.5,-20 0,-32 28.5,-56 28.5,-24 86.5,-24 24,0 48,6.5 24,6.5 42.5,19.5 18.5,13 30,32 11.5,19 11.5,43 0,25 -12,45 -12,20 -32,34.5 -20,14.5 -45,22.5 -25,8 -52,8 -54,0 -126,-22.5 Q 1080,1842 997.5,1815 915,1788 827,1765.5 739,1743 655,1743 q -67,0 -117,14.5 -50,14.5 -83.5,37 -33.5,22.5 -50,50 -16.5,27.5 -16.5,54.5 49,-10 98.5,-23.5 49.5,-13.5 98.5,-24.5 49,-11 97.5,-19 48.5,-8 96.5,-8 22,0 46,5.5 24,5.5 43.5,16 19.5,10.5 32,26 12.5,15.5 12.5,36.5 0,34 -25,61.5 -25,27.5 -66,47 -41,19.5 -93.5,30 Q 676,2057 622,2057 q -51,0 -94.5,-11 -43.5,-11 -77,-29.5 Q 417,1998 395,1973 q -22,-25 -29,-54 -36,6 -73.5,9.5 -37.5,3.5 -77.5,3.5 -55,0 -95.5,-10 Q 79,1912 52.5,1895.5 26,1879 13,1857 0,1835 0,1810 q 0,-35 21.5,-64.5 21.5,-29.5 56,-50.5 34.5,-21 78.5,-32.5 44,-11.5 88,-11.5 58,0 92,20 34,20 34,55 0,18 -10,34 -10,16 -27,28 -17,12 -38.5,19 -21.5,7 -43.5,7 -35,0 -55.5,-14 -20.5,-14 -20.5,-36 0,-11 5.5,-20.5 5.5,-9.5 15.5,-9.5 5,0 9.5,3.5 4.5,3.5 4.5,9.5 0,9 -7.5,13.5 -7.5,4.5 -7.5,13.5 0,12 13.5,21.5 13.5,9.5 40.5,9.5 18,0 33.5,-7 15.5,-7 26.5,-18 11,-11 17,-25.5 6,-14.5 6,-28.5 0,-30 -23,-48 -23,-18 -64,-18 -39,0 -74,12 -35,12 -61.5,32 -26.5,20 -42,46 -15.5,26 -15.5,54 0,21 8.5,41.5 8.5,20.5 28,37 19.5,16.5 52.5,26.5 33,10 82,10 35,0 70,-4 35,-4 71,-11 -3,-36 13,-74.5 16,-38.5 52,-71 36,-32.5 92,-53 56,-20.5 133,-20.5 63,0 123.5,14 60.5,14 117,35 56.5,21 109.5,46 53,25 102,46 49,21 93,35 44,14 83,14 41,0 68.5,-27 27.5,-27 27.5,-70 0,-39 -31,-63.5 -31,-24.5 -79,-24.5 z m -532,160 q -39,0 -79.5,7 -40.5,7 -83.5,16.5 -43,9.5 -88.5,21 -45.5,11.5 -94.5,20.5 5,25 24.5,48.5 19.5,23.5 50.5,42 31,18.5 71,29.5 40,11 86,11 51,0 93.5,-13 42.5,-13 73,-32.5 30.5,-19.5 47.5,-43 17,-23.5 17,-45.5 0,-29 -31.5,-45.5 Q 790,1850 736,1850 Z"></path></svg>
