<?xml version="1.0" encoding="UTF-8" standalone="no"?>
<svg xmlns="http://www.w3.org/2000/svg" width="4558" height="2057"><path id="path309" d="m 226,1859 q 9,-10 22,-18.5 13,-8.5 27,-15.5 14,-7 27.5,-11 13.5,-4 24.5,-4 27,0 50,18.5 23,18.5 23,59.5 0,31 -12,61.5 -12,30.5 -32,54.5 -20,24 -47,38.5 -27,14.5 -57,14.5 -36,0 -56,-16 -20,-16 -27,-33 -17,18 -31.5,27.5 -14.5,9.5 -27.5,14.5 -13,5 -23,6 -10,1 -17,1 v -7 q 14,-6 23.5,-22.5 9.5,-16.5 18,-41.5 8.5,-25 16.5,-57 8,-32 18,-70 10,-36 16.5,-62 6.5,-26 12.5,-47 6,-21 11.5,-40.5 Q 192,1690 199,1667 103,1651 51.5,1597.5 0,1544 0,1473 q 0,-35 10.5,-52 10.5,-17 23.5,-17 12,0 18.5,6.5 6.5,6.5 6.5,17.5 0,10 -5.5,15.5 -5.5,5.5 -12,11 -6.5,5.5 -12,13.5 -5.5,8 -5.5,23 0,26 11,51 11,25 33.5,47 22.5,22 56.5,38 34,16 79,23 32,-106 75.5,-193 43.5,-87 96,-149.5 52.5,-62.5 112,-96.5 59.5,-34 124.5,-34 37,0 65,11.5 28,11.5 46.5,30.5 18.5,19 28,44.5 9.5,25.5 9.5,53.5 0,71 -41.5,134.5 -41.5,63.5 -109,111.5 -67.5,48 -153.5,77.5 -86,29.5 -174,33.5 -5,18 -15,49 -10,31 -19,61 -11,35 -23,75 z m 418,-615 q -61,0 -113,28.5 -52,28.5 -96,82 -44,53.5 -80,129.5 -36,76 -66,171 82,-3 161.5,-31 79.5,-28 141.5,-73 62,-45 100.5,-104 38.5,-59 38.5,-126 0,-35 -21.5,-56 -21.5,-21 -65.5,-21 z m -354,595 q -6,0 -16.5,4.5 -10.5,4.5 -22,13.5 -11.5,9 -22.5,22.5 -11,13.5 -17,31.5 -3,7 -6.5,18.5 -3.5,11.5 -7,23.5 -3.5,12 -6,23 -2.5,11 -2.5,16 0,24 14,32.5 14,8.5 27,8.5 16,0 30.5,-15.5 14.5,-15.5 26,-39 11.5,-23.5 18,-50 6.5,-26.5 6.5,-49.5 0,-40 -22,-40 z"></path></svg>
