<?xml version="1.0" encoding="UTF-8" standalone="no"?>
<svg xmlns="http://www.w3.org/2000/svg" width="4558" height="2057"><path id="path489" d="m 299,1573 q -7,5 -14,12 -6,6 -13.5,15.5 -7.5,9.5 -14.5,22.5 -5,8 -10.5,24 -5.5,16 -12.5,36 -7,20 -14,43 -7,23 -13,46 -16,54 -32,116 15,-18 34,-33.5 19,-15.5 38,-27 19,-11.5 37,-18 18,-6.5 32,-6.5 18,0 32,9 14,9 14,30 0,18 -7,36 -7,18 -15.5,36 -8.5,18 -15.5,37 -7,19 -7,39 0,13 5,17 5,4 10,4 7,0 15,-4.5 8,-4.5 16,-10.5 9,-6 17,-15 l 8,8 q -16,18 -33,31 -15,12 -33,21.5 -18,9.5 -36,9.5 -23,0 -41.5,-10.5 Q 226,2030 226,2003 q 0,-20 8.5,-39.5 8.5,-19.5 19,-38.5 10.5,-19 19,-36 8.5,-17 8.5,-31 0,-15 -11,-15 -11,0 -36,14 -25,14 -56,52 -10,12 -18,31.5 -8,19.5 -14,39.5 -6,20 -9,36.5 -3,16.5 -3,21.5 0,15 -14,15 -8,0 -21,-2 -13,-2 -26,-2 -14,0 -24,4 -10,4 -13,4 -4,0 -4,-4 0,-3 6,-9 6,-6 12,-18 11,-21 19.5,-50 8.5,-29 20.5,-74 10,-37 21.5,-75.5 11.5,-38.5 21,-75.5 9.5,-37 15.5,-69.5 6,-32.5 6,-57.5 0,-28 -5,-56 -20,14 -39.5,22.5 Q 90,1599 70,1599 35,1599 17.5,1581 0,1563 0,1536 q 0,-26 21,-41.5 21,-15.5 46,-15.5 33,0 53.5,14 20.5,14 31.5,37 24,-15 48,-35.5 24,-20.5 50.5,-42 26.5,-21.5 55,-43 28.5,-21.5 61.5,-38 33,-16.5 70.5,-27 37.5,-10.5 81.5,-10.5 37,0 72,9 35,9 62.5,28.5 27.5,19.5 44,51 16.5,31.5 16.5,76.5 0,38 -14,73 -14,35 -38,62 -24,27 -56.5,43 -32.5,16 -69.5,16 -66,0 -104.5,-34.5 Q 393,1624 393,1573 q 0,-22 8.5,-40.5 8.5,-18.5 22,-32.5 13.5,-14 31,-22 17.5,-8 35.5,-8 32,0 50.5,16.5 18.5,16.5 18.5,44.5 0,23 -9,40 -9,17 -24,17 -22,0 -22,-19 0,-8 5,-13.5 5,-5.5 11.5,-10.5 6.5,-5 11.5,-10.5 5,-5.5 5,-13.5 0,-39 -46,-39 -17,0 -32,7.5 -15,7.5 -26,20 -11,12.5 -18,28.5 -7,16 -7,32 0,45 33,71 33,26 92,26 31,0 57,-13.5 26,-13.5 44.5,-36.5 18.5,-23 28.5,-53.5 10,-30.5 10,-65.5 0,-36 -13.5,-63 -13.5,-27 -36,-45.5 -22.5,-18.5 -53,-28 -30.5,-9.5 -64.5,-9.5 -58,0 -106,22 -48,22 -90,54 -42,32 -78,67.5 -36,35.5 -70,62.5 6,20 8,42.5 2,22.5 2,43.5 5,-18 15.5,-29 10.5,-11 24.5,-17 10,-4 18.5,-7 8.5,-3 17.5,-7 9,-4 20,-8.5 11,-4.5 26,-12.5 z M 70,1558 q 18,0 35,-5.5 17,-5.5 34,-14.5 -10,-22 -27,-34.5 -17,-12.5 -45,-12.5 -22,0 -35,11 -13,11 -13,26 0,14 12.5,22 12.5,8 38.5,8 z"></path></svg>
