<?xml version="1.0" encoding="UTF-8" standalone="no"?>
<svg xmlns="http://www.w3.org/2000/svg" width="4558" height="2057"><path id="path543" d="m 583,2002 q 100,0 179.5,-48.5 Q 842,1905 905,1822 q 63,-83 110,-194.5 47,-111.5 82,-236.5 5,-19 13,-56.5 8,-37.5 16.5,-78.5 8.5,-41 16,-79.5 7.5,-38.5 11.5,-58.5 5,-22 13.5,-34.5 8.5,-12.5 23.5,-21.5 h -7.5 q 0,0 -10.5,-1 -9,0 -17,-2 -4,-1 -7,-2 l 8,-12 8,2 q 5,1 21,1 17,0 43,-4.5 26,-4.5 58,-18.5 l 5,9 q -8,6 -15,13 -6,6 -13.5,15.5 -7.5,9.5 -13.5,20.5 -13,23 -19,43.5 -6,20.5 -12,45.5 -5,17 -10,44.5 -5,27.5 -10.5,58.5 -5.5,31 -11,63 -5.5,32 -10.5,59 -28,149 -78,270.5 -50,121.5 -122,208 -72,86.5 -165.5,134 Q 718,2057 603,2057 532,2057 472.5,2035.5 413,2014 371,1972 q -8,1 -16.5,1 H 338 q -75,0 -137,-18 Q 139,1937 94.5,1904.5 50,1872 25,1827 0,1782 0,1728 q 0,-45 16,-80 16,-35 41,-59.5 25,-24.5 56,-37.5 31,-13 61,-13 35,0 48.5,8 13.5,8 13.5,22 0,11 -8,18.5 -8,7.5 -18,7.5 -10,0 -16,-4.5 -6,-4.5 -10.5,-10.5 -4.5,-6 -8.5,-10.5 -4,-4.5 -10,-4.5 -23,0 -48.5,10 -25.5,10 -46.5,30.5 -21,20.5 -35,51 -14,30.5 -14,72.5 0,48 23,89 23,41 63.5,70.5 40.5,29.5 95,46 54.5,16.5 118.5,16.5 8,0 15,-0.5 7,-0.5 14,-0.5 -29,-36 -45,-83.5 -16,-47.5 -16,-104.5 0,-67 21,-128.5 21,-61.5 60.5,-108.5 39.5,-47 95.5,-74.5 56,-27.5 125,-27.5 40,0 75.5,11.5 35.5,11.5 62.5,34 27,22.5 42.5,55 15.5,32.5 15.5,75.5 0,75 -32,138 -32,63 -83.5,110 -51.5,47 -118,77.5 Q 487,1954 418,1966 q 66,36 165,36 z M 310,1761 q 0,63 19.5,108.5 19.5,45.5 56.5,75.5 66,-10 126.5,-39.5 60.5,-29.5 106.5,-75 46,-45.5 73,-104.5 27,-59 27,-128 0,-73 -32,-113.5 -32,-40.5 -98,-40.5 -63,0 -114.5,26 -51.5,26 -88,69.5 -36.5,43.5 -56.5,101 -20,57.5 -20,120.5 z m 913,-807 q 0,-10 5,-21.5 5,-11.5 13,-20.5 8,-9 17.5,-15 9.5,-6 18.5,-6 13,0 22,8.5 9,8.5 9,22.5 0,11 -4.5,22.5 -4.5,11.5 -11.5,21.5 -7,10 -16.5,16 -9.5,6 -18.5,6 -13,0 -23.5,-9 -10.5,-9 -10.5,-25 z"></path></svg>
