<?xml version="1.0" encoding="UTF-8" standalone="no"?>
<svg xmlns="http://www.w3.org/2000/svg" width="4558" height="2057"><path id="path993" d="m 149,1727 q 0,-12 5,-27 -33,-38 -33,-99 0,-37 17,-73 17,-36 48.5,-64.5 31.5,-28.5 76.5,-46 45,-17.5 100,-17.5 50,0 97.5,13.5 47.5,13.5 84,42.5 36.5,29 58.5,75.5 22,46.5 22,113.5 0,89 -35,164.5 -35,75.5 -90,130.5 -55,55 -122,86 -67,31 -131,31 -33,0 -58.5,-4 -25.5,-4 -46.5,-8.5 -21,-4.5 -39.5,-8.5 -18.5,-4 -39.5,-4 -23,0 -32,5 -9,5 -17,5 -5,0 -9.5,-3.5 Q 0,2035 0,2029 q 0,-15 5,-24.5 5,-9.5 19,-22.5 22,-20 45.5,-34 23.5,-14 47,-27 23.5,-13 45,-26 21.5,-13 39.5,-31 -10,5 -30,5 -14,0 -23,-2 -9,-2 -16.5,-4 -7.5,-2 -15.5,-4 -8,-2 -18,-2 -14,0 -23,3.5 -9,3.5 -16,8.5 -8,5 -13,11 l -7,-6 q 14,-21 30,-38 14,-14 31,-26.5 17,-12.5 37,-12.5 14,0 23,1.5 9,1.5 16,4 7,2.5 15,4 8,1.5 20,1.5 13,0 20.5,-1.5 7.5,-1.5 12.5,-4 l 8,-4 q 0,0 6,-1.5 2,0 6,4 4,4 4,6 0,6 -11.5,23 -11.5,17 -26.5,32 -23,23 -45,38.5 -22,15.5 -42.5,27.5 -20.5,12 -39.5,22.5 -19,10.5 -37,23.5 2,-2 8,-3.5 6,-1.5 17,-1.5 19,0 40.5,8.5 21.5,8.5 45.5,18.5 24,10 51,18.5 27,8.5 56,8.5 55,0 104.5,-28 49.5,-28 86.5,-78.5 37,-50.5 58.5,-119.5 21.5,-69 21.5,-150 0,-61 -15.5,-104 -15.5,-43 -43,-70 -27.5,-27 -65,-39 -37.5,-12 -80.5,-12 -47,0 -86.5,15.5 -39.5,15.5 -67.5,40 -28,24.5 -43.5,56.5 -15.5,32 -15.5,65 0,53 25,86 13,-18 32,-18 16,0 24.5,13 8.5,13 8.5,31 0,6 -2,14 11,3 21.5,4 10.5,1 21.5,1 25,0 42.5,-6.5 17.5,-6.5 28,-16.5 10.5,-10 15.5,-22 5,-12 5,-23 0,-6 -2,-10 -2,-4 -5,-8 -3,-4 -5,-9 -2,-5 -2,-14 0,-12 7.5,-20 7.5,-8 20.5,-8 17,0 25,13 8,13 8,28 0,23 -10.5,43 -10.5,20 -29,36 -18.5,16 -43,25 -24.5,9 -51.5,9 -28,0 -52,-6 -6,13 -16.5,20 -10.5,7 -21.5,7 -15,0 -24.5,-11.5 Q 149,1745 149,1727 Z"></path></svg>
