<?xml version="1.0" encoding="UTF-8" standalone="no"?>
<svg xmlns="http://www.w3.org/2000/svg" width="4558" height="2057"><path id="path537" d="m 563,1527 q -21,121 -61.5,219 -40.5,98 -94.5,167 -54,69 -120,106.5 -66,37.5 -138,37.5 -75,0 -112,-40 -37,-40 -37,-100 0,-65 39,-130.5 39,-65.5 105,-121 66,-55.5 153,-95 87,-39.5 184,-52.5 11,-39 21,-79.5 10,-40.5 18,-77.5 8,-37 14.5,-67.5 6.5,-30.5 11.5,-50.5 5,-22 13.5,-34.5 Q 568,1196 583,1187 h -7.5 q 0,0 -10.5,-1 -9,0 -17,-2 -4,-1 -7,-2 l 8,-12 8,2 q 5,1 21,1 17,0 43,-4.5 26,-4.5 58,-18.5 l 5,9 q -8,6 -15,13 -6,6 -13.5,15.5 -7.5,9.5 -13.5,20.5 -13,23 -19,43.5 -6,20.5 -12,45.5 -8,29 -18.5,82.5 Q 582,1433 568,1512 q 58,1 107,12 49,11 85,33.5 36,22.5 56,56.5 20,34 20,82 0,29 -12.5,47 -12.5,18 -26.5,18 -11,0 -18.5,-7 -7.5,-7 -7.5,-18 0,-10 5.5,-15.5 5.5,-5.5 12,-11 6.5,-5.5 12,-13.5 5.5,-8 5.5,-23 0,-33 -18,-60 -18,-27 -50.5,-45.5 -32.5,-18.5 -77,-29 Q 616,1528 563,1527 Z m -87,7 q -90,14 -171,53 -81,39 -142.5,92 Q 101,1732 65,1793.5 29,1855 29,1914 q 0,32 22,54 22,22 66,22 58,0 108,-32 50,-32 94,-91.5 44,-59.5 83,-144 39,-84.5 74,-188.5 z m 139,-455 q 0,-10 5,-21.5 5,-11.5 13,-20.5 8,-9 17.5,-15 9.5,-6 18.5,-6 13,0 22,8.5 9,8.5 9,22.5 0,11 -4.5,22.5 -4.5,11.5 -11.5,21.5 -7,10 -16.5,16 -9.5,6 -18.5,6 -13,0 -23.5,-9 -10.5,-9 -10.5,-25 z"></path></svg>
