<?xml version="1.0" encoding="UTF-8" standalone="no"?>
<svg xmlns="http://www.w3.org/2000/svg" width="4558" height="2057"><path id="path190" d="m 1067,1529 q -7,46 -17,103.5 -10,57.5 -27.5,116 -17.5,58.5 -43.5,114 -26,55.5 -66,99 -40,43.5 -95,69.5 -55,26 -130,26 -54,0 -102.5,-16 -48.5,-16 -81.5,-48 -29,11 -63,17.5 -34,6.5 -74,6.5 -71,0 -137,-21 -66,-21 -117,-63 Q 62,1891 31,1829.5 0,1768 0,1687 0,1619 21,1559.5 42,1500 78.5,1451 q 36.5,-49 86,-87.5 49.5,-38.5 106,-65 56.5,-26.5 117,-40 Q 448,1245 508,1245 q 46,0 83.5,8.5 37.5,8.5 66.5,23.5 56,-47 135,-72.5 79,-25.5 161,-25.5 59,0 99,5 40,5 76,11.5 36,6.5 75,11.5 39,5 96,5 35,0 56.5,-6.5 21.5,-6.5 44.5,-20.5 8,-5 12,-5 8,0 8,7 0,6 -6,13 -6,8 -18.5,24.5 -12.5,16.5 -29.5,33 -17,16.5 -36.5,28.5 -19.5,12 -40.5,12 -43,0 -74.5,-12.5 -31.5,-12.5 -61.5,-26.5 -20,22 -34.5,54 -14.5,32 -24,69 -9.5,37 -16.5,75 -7,38 -12,72 z M 584,1384 q 8,-26 22,-47.5 14,-21.5 33,-41.5 -27,-11 -60.5,-17.5 -33.5,-6.5 -73.5,-6.5 -84,0 -160,29 -76,29 -133.5,83 -57.5,54 -91.5,131 -34,77 -34,173 0,72 21.5,127.5 21.5,55.5 59.5,94 38,38.5 90,58 52,19.5 112,19.5 67,0 115,-15 -14,-20 -21.5,-43 -7.5,-23 -7.5,-51 0,-25 11,-47.5 11,-22.5 28,-39 17,-16.5 38.5,-26 21.5,-9.5 42.5,-9.5 32,0 50.5,18 18.5,18 18.5,52 0,42 -28,84 -28,42 -83,71 24,18 57,27 33,9 72,9 52,0 92.5,-25 40.5,-25 71,-66.5 30.5,-41.5 53,-94.5 22.5,-53 40,-108.5 17.5,-55.5 31,-109 13.5,-53.5 25.5,-96.5 11,-40 26,-79.5 15,-39.5 34,-75.5 19,-36 40.5,-66.5 21.5,-30.5 46.5,-50.5 -19,-9 -38,-17 -19,-8 -40,-14 -21,-6 -45.5,-9.5 Q 974,1200 945,1200 877,1200 812.5,1228.5 748,1257 704,1307 q 36,32 53.5,73.5 17.5,41.5 17.5,89.5 0,31 -8.5,60 -8.5,29 -23.5,55 5,1 10,1 h 10 q 20,0 36,-7 16,-7 27.5,-18 11.5,-11 18,-24.5 6.5,-13.5 6.5,-27.5 0,-9 -3,-14.5 -3,-5.5 -6,-10 -3,-4.5 -6,-9.5 -3,-5 -3,-13 0,-14 9,-23 9,-9 23,-9 15,0 23.5,11.5 8.5,11.5 8.5,29.5 0,27 -11,51.5 -11,24.5 -30.5,43 -19.5,18.5 -45,29.5 -25.5,11 -53.5,11 h -13.5 q 0,0 -13.5,-1 -27,38 -66.5,61 -39.5,23 -85.5,23 -35,0 -64,-11 -29,-11 -49.5,-30 -20.5,-19 -32,-45.5 Q 421,1576 421,1544 q 0,-31 14,-59.5 14,-28.5 37,-50 23,-21.5 52,-35 29,-13.5 60,-15.5 z m -8,55 v -16 q 0,0 2,-16 -26,3 -50,14.5 -24,11.5 -42,29.5 -18,18 -28.5,41 -10.5,23 -10.5,50 0,57 34,92 34,35 97,35 38,0 71.5,-18.5 Q 683,1632 708,1601 681,1595 657,1581.5 633,1568 615,1548 597,1528 586.5,1500.5 576,1473 576,1439 Z m 72,12 q 0,47 20,81 20,34 55,47 16,-25 25,-54 9,-29 9,-60 0,-42 -16.5,-78 -16.5,-36 -50.5,-62 -20,27 -31,59 -11,32 -11,67 z m -163,428 q 0,48 27,81 59,-24 87,-62.5 28,-38.5 28,-75.5 0,-24 -13,-37.5 -13,-13.5 -38,-13.5 -17,0 -33.5,8.5 -16.5,8.5 -29.5,23 -13,14.5 -20.5,34 -7.5,19.5 -7.5,42.5 z m 692,-705 q -9,0 -22,-13 -13,-13 -24,-30 -11,-17 -19,-33.5 -8,-16.5 -8,-23.5 0,-9 10,-9 4,0 11.5,9.5 7.5,9.5 17.5,21 10,11.5 21,21 11,9.5 22,9.5 15,0 31,-9.5 16,-9.5 30.5,-21.5 14.5,-12 24.5,-21.5 10,-9.5 13,-9.5 10,0 10,9 0,5 -14.5,21.5 -14.5,16.5 -34,34 -19.5,17.5 -39.5,31.5 -20,14 -30,14 z"></path></svg>
