<?xml version="1.0" encoding="UTF-8" standalone="no"?>
<svg xmlns="http://www.w3.org/2000/svg" width="4558" height="2057"><path id="path399" d="m 720,1497 q -66,0 -121.5,14 -55.5,14 -105.5,35 -50,21 -96,45 -46,24 -92.5,45 -46.5,21 -96,35 -49.5,14 -105.5,14 -19,0 -37.5,-4.5 -18.5,-4.5 -33,-14 Q 18,1657 9,1642.5 0,1628 0,1607 q 0,-36 17,-66.5 17,-30.5 42,-53 25,-22.5 54.5,-35 29.5,-12.5 53.5,-12.5 30,0 50,12 20,12 20,33 0,20 -10,36 -10,16 -25.5,27 -15.5,11 -34.5,17.5 -19,6.5 -38,6.5 -8,0 -14,-2 -6,-2 -6,-7 0,-5 5,-5 14,0 27,-8 13,-8 22.5,-20.5 9.5,-12.5 15,-28.5 5.5,-16 5.5,-32 0,-13 -11,-13 -14,0 -29,13 -15,13 -27,33.5 -12,20.5 -20,45 -8,24.5 -8,47.5 0,17 6,28.5 6,11.5 15,18.5 9,7 19.5,10 10.5,3 19.5,3 45,0 87.5,-13.5 42.5,-13.5 86,-33.5 43.5,-20 90,-44 46.5,-24 99,-44 52.5,-20 113,-33.5 Q 685,1473 756,1473 q 42,0 81,9.5 39,9.5 69.5,30 30.5,20.5 49,52.5 18.5,32 18.5,77 0,75 -37,149 -37,74 -98,133 -61,59 -139.5,96 -78.5,37 -162.5,37 -47,0 -87,-8 -40,-8 -69.5,-25.5 -29.5,-17.5 -46.5,-44 -17,-26.5 -17,-63.5 0,-61 34.5,-113 34.5,-52 85.5,-89 51,-37 108.5,-58 57.5,-21 103.5,-21 43,0 73,19.5 30,19.5 30,65.5 0,21 -7,35 -7,14 -21,14 -9,0 -16.5,-5.5 -7.5,-5.5 -7.5,-16.5 0,-8 4.5,-12.5 4.5,-4.5 9.5,-9 5,-4.5 9.5,-9.5 4.5,-5 4.5,-14 0,-22 -21.5,-37 -21.5,-15 -57.5,-15 -42,0 -89,22 -47,22 -86.5,58.5 -39.5,36.5 -65.5,83.5 -26,47 -26,97 0,32 12,56.5 12,24.5 34,41 22,16.5 51.5,24.5 29.5,8 65.5,8 73,0 137.5,-35.5 Q 747,1970 795,1913 q 48,-57 76,-127.5 28,-70.5 28,-139.5 0,-78 -49,-113.5 Q 801,1497 720,1497 Z"></path></svg>
