<?xml version="1.0" encoding="UTF-8" standalone="no"?>
<svg xmlns="http://www.w3.org/2000/svg" width="4558" height="2057"><path id="path166" d="m 176,1959 q -36,0 -68,-9.5 Q 76,1940 52,1921 28,1902 14,1872.5 0,1843 0,1802 q 0,-59 20,-112 20,-53 52.5,-97 32.5,-44 73,-77.5 40.5,-33.5 82.5,-53.5 26,-13 55,-19 29,-6 58,-6 33,0 61.5,8 28.5,8 49,26 20.5,18 32.5,47 12,29 12,72 0,60 -17,111.5 -17,51.5 -44.5,94 -27.5,42.5 -63.5,75 -36,32.5 -74,53.5 14,13 26.5,25.5 12.5,12.5 25.5,22.5 13,10 26,16 13,6 28,6 20,0 34,-9 7,-4 13,-9 l 9,6 q -4,6 -13,18.5 -9,12.5 -22.5,25 -13.5,12.5 -29.5,22 -16,9.5 -33,9.5 -22,0 -38,-10.5 -16,-10.5 -29,-26.5 -13,-16 -25,-35.5 -12,-19.5 -26,-37.5 -19,7 -34,9.5 -15,2.5 -33,2.5 z m -73,-134 q 0,23 4,39.5 4,16.5 12,31.5 5,-5 24,-14.5 19,-9.5 45,-9.5 26,0 46.5,9 20.5,9 38.5,23 26,-19 49,-50 23,-31 40,-72.5 17,-41.5 27,-92.5 10,-51 10,-111 0,-60 -19.5,-91 -19.5,-31 -61.5,-31 -33,0 -70.5,26.5 -37.5,26.5 -69.5,75 -32,48.5 -53.5,116.5 -21.5,68 -21.5,151 z m 94,109 q 10,0 17.5,-1 7.5,-1 16.5,-4 -14,-16 -29,-25 -15,-9 -29,-9 -17,0 -28.5,4 -11.5,4 -17.5,8 26,27 70,27 z"></path></svg>
