<?xml version="1.0" encoding="UTF-8" standalone="no"?>
<svg xmlns="http://www.w3.org/2000/svg" width="4558" height="2057"><path id="path723" d="m 820,1944 q 42,0 80,-22 -23,-24 -36.5,-57.5 Q 850,1831 850,1789 q 0,-28 7,-49.5 7,-21.5 18,-36.5 11,-15 24.5,-22.5 13.5,-7.5 26.5,-7.5 13,0 26.5,7.5 13.5,7.5 24.5,22.5 11,15 18,36.5 7,21.5 7,49.5 0,42 -14,75.5 -14,33.5 -37,57.5 39,22 81,22 28,0 54,-10.5 26,-10.5 48,-28.5 -15,-20 -23.5,-46 -8.5,-26 -8.5,-56 0,-42 15,-60 15,-18 35,-18 20,0 35.5,18 15.5,18 15.5,48 0,30 -9.5,59 -9.5,29 -26.5,54 30,22 69,22 29,0 52.5,-11 23.5,-11 39.5,-29 -14,-14 -22.5,-32 -8.5,-18 -8.5,-41 0,-23 9.5,-35 9.5,-12 23.5,-12 13,0 24,12 11,12 11,39 0,23 -8,49 14,5 36,5 40,0 80,-13 40,-13 82.5,-28.5 42.5,-15.5 87.5,-28.5 45,-13 96,-13 48,0 80.5,24 32.5,24 32.5,72 0,35 -19,66 -19,31 -50,55 -31,24 -70.5,38 -39.5,14 -80.5,14 -48,0 -76,-24.5 -28,-24.5 -28,-57.5 0,-30 16.5,-52 16.5,-22 41,-37 24.5,-15 52,-22.5 27.5,-7.5 49.5,-7.5 11,0 23,2 12,2 21.5,6.5 9.5,4.5 15.5,11.5 6,7 6,18 0,14 -9.5,25 -9.5,11 -23,18.5 -13.5,7.5 -28.5,11 -15,3.5 -25,3.5 -3,0 -6,-1 -3,-1 -3,-3 0,-2 3,-2.5 3,-0.5 5,-0.5 7,0 17,-2.5 10,-2.5 19,-7.5 9,-5 15.5,-13.5 6.5,-8.5 6.5,-19.5 0,-17 -12.5,-27 -12.5,-10 -33.5,-10 -16,0 -37,6 -21,6 -39.5,17.5 -18.5,11.5 -31,28.5 -12.5,17 -12.5,40 0,61 84,61 33,0 68,-10 35,-10 63.5,-28 28.5,-18 47,-43.5 18.5,-25.5 18.5,-56.5 0,-38 -27.5,-59.5 -27.5,-21.5 -69.5,-21.5 -47,0 -91.5,18 -44.5,18 -87,40 -42.5,22 -83.5,40 -41,18 -80,18 -33,0 -59,-17 -17,26 -43.5,42 -26.5,16 -61.5,16 -25,0 -46.5,-8.5 -21.5,-8.5 -38.5,-23.5 -22,23 -53,37.5 -31,14.5 -69,14.5 -57,0 -103,-32 -46,32 -103,32 -38,0 -69,-14.5 -31,-14.5 -54,-37.5 -17,15 -38.5,23.5 -21.5,8.5 -45.5,8.5 -36,0 -62.5,-16 -26.5,-16 -43.5,-42 -26,17 -58,17 -39,0 -80,-18 -41,-18 -83.5,-40 -42.5,-22 -87,-40 -44.5,-18 -91.5,-18 -42,0 -69.5,21.5 Q 13,1842 13,1880 q 0,31 18.5,56.5 18.5,25.5 47,43.5 28.5,18 63.5,28 35,10 68,10 84,0 84,-61 0,-23 -12.5,-40 -12.5,-17 -31,-28.5 Q 232,1877 211,1871 q -21,-6 -37,-6 -21,0 -33.5,10 -12.5,10 -12.5,27 0,11 6.5,19.5 6.5,8.5 15.5,13.5 9,5 19,7.5 10,2.5 17,2.5 2,0 5,0.5 3,0.5 3,2.5 0,2 -3,3 -3,1 -6,1 -10,0 -25,-3.5 -15,-3.5 -28.5,-11 -13.5,-7.5 -23,-18.5 -9.5,-11 -9.5,-25 0,-11 6,-18 6,-7 15.5,-11.5 9.5,-4.5 21.5,-6.5 12,-2 23,-2 22,0 49.5,7.5 27.5,7.5 52,22.5 24.5,15 41,37 16.5,22 16.5,52 0,33 -28,57.5 -28,24.5 -76,24.5 -41,0 -80.5,-14 Q 100,2029 69,2005 38,1981 19,1950 0,1919 0,1884 q 0,-48 32.5,-72 32.5,-24 80.5,-24 51,0 96,13 45,13 87.5,28.5 42.5,15.5 82.5,28.5 40,13 80,13 9,0 18.5,-1 9.5,-1 17.5,-4 -8,-26 -8,-49 0,-27 11,-39 11,-12 24,-12 14,0 23.5,12 9.5,12 9.5,35 0,23 -8.5,41 -8.5,18 -22.5,32 16,18 39.5,29 23.5,11 52.5,11 39,0 69,-22 -17,-25 -26.5,-54 -9.5,-29 -9.5,-59 0,-30 15.5,-48 15.5,-18 35.5,-18 20,0 35,18 15,18 15,60 0,30 -8.5,56 -8.5,26 -23.5,46 21,18 47.5,28.5 26.5,10.5 54.5,10.5 z m 106,-261 q -20,0 -38,23 -18,23 -18,61 0,46 15,80 15,34 41,57 25,-23 40.5,-57 15.5,-34 15.5,-80 0,-38 -18,-61 -18,-23 -38,-23 z m -268,107 q 0,26 11.5,51.5 11.5,25.5 31.5,47.5 17,-19 26,-44.5 9,-25.5 9,-56.5 0,-25 -9.5,-40.5 Q 717,1732 700,1732 q -17,0 -29.5,16 -12.5,16 -12.5,42 z m 458,-2 q 0,62 34,101 20,-22 32,-47.5 12,-25.5 12,-51.5 0,-26 -12.5,-42 -12.5,-16 -29.5,-16 -17,0 -26.5,15.5 -9.5,15.5 -9.5,40.5 z m 194,12 q 0,23 9.5,37.5 9.5,14.5 25.5,22.5 5,-11 7.5,-21.5 2.5,-10.5 2.5,-22.5 0,-23 -8,-32.5 -8,-9.5 -17,-9.5 -20,0 -20,26 z m -813,16 q 0,24 10,44 16,-8 25.5,-22.5 9.5,-14.5 9.5,-37.5 0,-26 -20,-26 -9,0 -17,9.5 -8,9.5 -8,32.5 z"></path></svg>
