<?xml version="1.0" encoding="UTF-8" standalone="no"?>
<svg xmlns="http://www.w3.org/2000/svg" width="4558" height="2057"><path id="path140" d="m 793,1329 q 32,38 32,95 5,12 8.5,33 3.5,21 3.5,55 0,65 -15,127 -15,62 -41.5,117 -26.5,55 -62.5,101 -36,46 -78,79.5 -42,33.5 -87.5,52 Q 507,2007 462,2007 h -13 l -22,44 q -4,6 -12,6 -12,0 -23,-0.5 -11,-0.5 -11,-3.5 0,-2 1,-4 1,-2 2,-5 l 21,-43 q -38,-7 -69.5,-25 -31.5,-18 -55,-46.5 -23.5,-28.5 -36.5,-67 -13,-38.5 -13,-87.5 0,-37 8,-80 -49,-13 -92.5,-38.5 Q 103,1631 70.5,1594 38,1557 19,1508 0,1459 0,1400 q 0,-85 38,-164 38,-79 103,-139 65,-60 151,-96 86,-36 182,-36 127,0 199,57.5 72,57.5 72,157.5 0,54 -25,104 20,5 40,17 l 29,-57 q 2,-5 5.5,-6 3.5,-1 6.5,-1 11,0 22.5,0.5 11.5,0.5 11.5,3.5 0,7 -3,11 z m -735,71 q 0,53 13.5,97.5 13.5,44.5 38.5,79.5 25,35 58.5,60 33.5,25 74.5,38 19,-78 61.5,-152 42.5,-74 105.5,-131 -49,-20 -77,-58.5 -28,-38.5 -28,-94.5 0,-33 13.5,-60.5 13.5,-27.5 34.5,-46.5 21,-19 46,-29.5 25,-10.5 48,-10.5 40,0 65.5,18 25.5,18 25.5,44 0,13 -6.5,24 -6.5,11 -17.5,11 -8,0 -15.5,-5.5 -7.5,-5.5 -7.5,-15.5 0,-6 2,-9 2,-3 4,-5.5 2,-2.5 4,-5.5 2,-3 2,-8 0,-12 -12,-23.5 -12,-11.5 -44,-11.5 -21,0 -43,10 -22,10 -40,27.5 -18,17.5 -29.5,42 -11.5,24.5 -11.5,52.5 0,52 27.5,88 27.5,36 74.5,54 54,-46 118.5,-73 64.5,-27 136.5,-27 h 10.5 q 0,0 10.5,1 11,-23 17.5,-46.5 6.5,-23.5 6.5,-48.5 0,-45 -17.5,-82.5 Q 690,1065 657.5,1038 625,1011 578.5,996.5 532,982 474,982 q -90,0 -166.5,35 -76.5,35 -132,93 Q 120,1168 89,1243.5 58,1319 58,1400 Z m 760,83 q -9,45 -28.5,87.5 -19.5,42.5 -49,76.5 -29.5,34 -67,55.5 Q 636,1724 592,1726 l -121,239 q 8,1 15.5,1.5 7.5,0.5 16.5,0.5 48,0 103,-37 55,-37 102.5,-99 47.5,-62 79,-144 31.5,-82 31.5,-172 v -16 q 0,0 -1,-16 z m -333,-73 q -55,54 -90,128 -35,74 -47,150 31,-1 58,-7 27,-6 50,-15 -28,-40 -28,-93 0,-23 8,-45 8,-22 22.5,-38.5 14.5,-16.5 33.5,-26.5 19,-10 41,-10 31,0 48.5,18 17.5,18 17.5,49 0,40 -26.5,79 -26.5,39 -75.5,66 29,18 69,19 l 177,-350 q -22,-10 -46,-11 -29,40 -74,64.5 -45,24.5 -99,24.5 h -20.5 q 0,0 -18.5,-2 z m -142,348 q 0,75 21,124.5 21,49.5 66,69.5 l 116,-229 q -47,-10 -78,-43 -26,11 -56.5,18 -30.5,7 -65.5,8 -3,27 -3,52 z m 465,-328 q 0,-23 -8,-40.5 -8,-17.5 -22,-31.5 l -164,323 q 45,-7 81,-31.5 36,-24.5 61,-59.5 25,-35 38.5,-76.5 Q 808,1472 808,1430 Z m -358,143 q 0,52 32,81 47,-24 73,-59 26,-35 26,-71 0,-30 -13,-44.5 -13,-14.5 -35,-14.5 -17,0 -32.5,10 -15.5,10 -26.5,25.5 -11,15.5 -17.5,35 -6.5,19.5 -6.5,37.5 z m 223,-250 q -50,2 -93,21 -43,19 -80,51 6,1 11.5,1 H 523 q 46,0 84,-20.5 38,-20.5 66,-52.5 z"></path></svg>
