<?xml version="1.0" encoding="UTF-8" standalone="no"?>
<svg xmlns="http://www.w3.org/2000/svg" width="4558" height="2057"><path id="path827" d="m 1052,2006 q -62,0 -121,-17.5 Q 872,1971 816.5,1942 761,1913 708,1875.5 655,1838 604,1799 543,1865 456.5,1902 370,1939 260,1939 200,1939 152,1922.5 104,1906 70.5,1878 37,1850 18.5,1812.5 0,1775 0,1734 0,1694 16.5,1661.5 33,1629 60.5,1607 88,1585 123,1573 q 35,-12 73,-12 48,0 93,13.5 45,13.5 88,36 43,22.5 86,51.5 43,29 87,60 46,-53 68.5,-122.5 Q 641,1530 641,1450 q 0,-53 -11.5,-96.5 -11.5,-43.5 -25,-84 -13.5,-40.5 -25,-82 Q 568,1146 568,1098 q 0,-24 10.5,-42.5 10.5,-18.5 26.5,-31 16,-12.5 35,-18.5 19,-6 36,-6 28,0 48.5,14 20.5,14 20.5,36 0,19 -11.5,30.5 -11.5,11.5 -25.5,11.5 -15,0 -24,-7.5 -9,-7.5 -9,-18.5 0,-13 7.5,-19.5 7.5,-6.5 7.5,-18.5 0,-8 -5,-11.5 -5,-3.5 -10,-3.5 -15,0 -25,16 -10,16 -10,48 0,48 14,88.5 14,40.5 31.5,81.5 17.5,41 31.5,89 14,48 14,111 0,96 -27,179 -27,83 -78,148 43,28 88.5,54 45.5,26 96,45.5 50.5,19.5 106,31 55.5,11.5 118.5,11.5 123,0 210.5,-44.5 87.5,-44.5 131.5,-122.5 -19,5 -37,7.5 -18,2.5 -36,2.5 -57,0 -98.5,-26 -41.5,-26 -64.5,-61 -23,24 -59,41.5 -36,17.5 -83,17.5 -44,0 -81,-9.5 -37,-9.5 -64,-29.5 -27,-20 -42,-51.5 -15,-31.5 -15,-75.5 0,-49 24,-96 24,-47 66.5,-84 42.5,-37 101,-59.5 58.5,-22.5 128.5,-22.5 74,0 133.5,23 59.5,23 101.5,62 42,39 64.5,91 22.5,52 22.5,111 0,17 -1.5,34.5 -1.5,17.5 -3.5,34.5 61,-18 129.5,-42.5 68.5,-24.5 139.5,-47.5 71,-23 141.5,-39 70.5,-16 135.5,-16 58,0 106,12.5 48,12.5 81.5,37 33.5,24.5 52,62 18.5,37.5 18.5,86.5 0,57 -29.5,118.5 -29.5,61.5 -82.5,111.5 -53,50 -127,82.5 -74,32.5 -163,32.5 -61,0 -108.5,-13 -47.5,-13 -80.5,-36.5 -33,-23.5 -50,-55 -17,-31.5 -17,-67.5 0,-31 14,-56 14,-25 33.5,-42.5 19.5,-17.5 39,-27 19.5,-9.5 31.5,-9.5 3,0 7,1 4,1 4,6 0,5 -4,6.5 -4,1.5 -8,2.5 -12,2 -26,10 -14,8 -26.5,21 -12.5,13 -21,31.5 -8.5,18.5 -8.5,42.5 0,27 17,48 17,21 47.5,35.5 30.5,14.5 72.5,22.5 42,8 91,8 82,0 151,-23 69,-23 118.5,-61 49.5,-38 77,-86.5 27.5,-48.5 27.5,-100.5 0,-88 -66.5,-133 -66.5,-45 -190.5,-45 -70,0 -140.5,23.5 -70.5,23.5 -139.5,56.5 -69,33 -135.5,67 -66.5,34 -128.5,55 -18,55 -49,103.5 -31,48.5 -76.5,85 -45.5,36.5 -105,58 Q 1126,2006 1052,2006 Z m 125,-409 q 0,26 -19,54 31,34 136,34 25,0 54.5,-5.5 29.5,-5.5 61.5,-13.5 8,-38 8,-76 0,-55 -22.5,-97.5 -22.5,-42.5 -62.5,-71.5 -40,-29 -96.5,-44 -56.5,-15 -123.5,-15 -59,0 -112,19.5 -53,19.5 -92.5,49.5 -39.5,30 -62.5,67.5 -23,37.5 -23,73.5 0,70 49.5,104.5 49.5,34.5 131.5,34.5 43,0 75.5,-16 32.5,-16 52.5,-38 -12,-25 -12,-49 0,-20 10,-31.5 10,-11.5 22,-11.5 25,0 25,32 z m -931,248 q 94,0 165,-27 71,-27 120,-75 -44,-33 -86,-63 -42,-30 -84,-52.5 -42,-22.5 -83.5,-36 Q 236,1578 194,1578 q -33,0 -61.5,10 -28.5,10 -49.5,28.5 -21,18.5 -33,44 -12,25.5 -12,56.5 0,38 19,62.5 19,24.5 49,39 30,14.5 67,20.5 37,6 73,6 z m 895,-240 q 0,18 7,32 12,-19 12,-37 0,-15 -8,-15 -4,0 -7.5,4.5 -3.5,4.5 -3.5,15.5 z M 746,842 q 7,0 14.5,12.5 7.5,12.5 7.5,23.5 0,16 -20,34 -26,22 -54,34 -28,12 -51,12 -3,0 -6.5,-2 -3.5,-2 -3.5,-6 0,-5 9,-9 20,-8 44.5,-30 24.5,-22 45.5,-59 2,-4 6,-7 4,-3 8,-3 z"></path></svg>
