<?xml version="1.0" encoding="UTF-8" standalone="no"?>
<svg xmlns="http://www.w3.org/2000/svg" width="4558" height="2057"><path id="path885" d="m 648,1716 q 0,-18 8,-35 8,-17 21,-29.5 13,-12.5 29.5,-20 16.5,-7.5 34.5,-7.5 27,0 43,17 16,17 16,43 0,16 -7.5,32.5 -7.5,16.5 -20,30 -12.5,13.5 -29,22 -16.5,8.5 -35.5,8.5 -26,0 -43,-16 -17,-16 -17,-45 z m 94,-69 q -24,0 -44,20.5 -20,20.5 -20,48.5 0,21 9.5,30 9.5,9 24.5,9 23,0 42,-21.5 19,-21.5 19,-49.5 0,-37 -31,-37 z m 387,-125 q 0,-56 -39,-91.5 -39,-35.5 -108,-35.5 -66,0 -130.5,16.5 -64.5,16.5 -128,41 -63.5,24.5 -128,53 -64.5,28.5 -131,53 -66.5,24.5 -137,41 Q 257,1616 182,1616 136,1616 101.5,1603.5 67,1591 44.5,1571 22,1551 11,1524.5 0,1498 0,1469 q 0,-39 15,-69 15,-30 38,-50 23,-20 51.5,-30.5 28.5,-10.5 55.5,-10.5 21,0 37,7 16,7 16,20 0,12 -7,19.5 -7,7.5 -20,7.5 -9,0 -14,-4.5 -5,-4.5 -9.5,-10 -4.5,-5.5 -9.5,-10 -5,-4.5 -15,-4.5 -17,0 -38,8.5 -21,8.5 -39,26 -18,17.5 -30.5,43.5 -12.5,26 -12.5,60 0,26 11,49 11,23 32.5,40 21.5,17 53.5,27 32,10 74,10 72,0 141,-19.5 69,-19.5 135.5,-48.5 66.5,-29 132,-63.5 Q 663,1432 728,1403 793,1374 858.5,1354.5 924,1335 992,1335 q 40,0 71,12.5 31,12.5 52.5,34.5 21.5,22 32.5,52 11,30 11,65 0,71 -22.5,145.5 -22.5,74.5 -59,142.5 -36.5,68 -83,125.5 -46.5,57.5 -94.5,94.5 -65,50 -125,50 -17,0 -33.5,-3.5 -16.5,-3.5 -29,-11 -12.5,-7.5 -20,-19 Q 685,2012 685,1996 v -9.5 q 0,0 1,-7.5 0,-4 1,-7 -28,31 -60,52.5 -32,21.5 -61,21.5 -22,0 -39.5,-11.5 Q 509,2023 509,1995 q 0,-16 8.5,-35 8.5,-19 18.5,-38 10,-19 18.5,-37 8.5,-18 8.5,-33 0,-10 -9,-10 -4,0 -10,4 -6,4 -12,9 -7,6 -16,13 l -7,-9 q 6,-5 17.5,-15 11.5,-10 25.5,-19.5 14,-9.5 28,-16.5 14,-7 26,-7 21,0 32,9 11,9 11,24 0,15 -8,35 -8,20 -17,41 -9,21 -17,42 -8,21 -8,38 0,16 14,16 11,0 28,-11 17,-11 45,-44 6,-7 10.5,-19.5 4.5,-12.5 9,-26 4.5,-13.5 8,-27 3.5,-13.5 8.5,-22.5 9,-21 28,-33.5 19,-12.5 40,-15.5 15,-2 25,-4.5 10,-2.5 16,-5.5 7,-4 11,-7 l 7,11 q -7,5 -14,11 -6,5 -13.5,13.5 -7.5,8.5 -12.5,19.5 -7,14 -14,34 -7,20 -12.5,39.5 -5.5,19.5 -9,36.5 -3.5,17 -3.5,26 0,17 8,29 8,12 30,12 17,0 41,-9 24,-9 46,-26 42,-32 84,-82.5 42,-50.5 75,-112.5 33,-62 54,-131.5 21,-69.5 21,-138.5 z"></path></svg>
