<?xml version="1.0" encoding="UTF-8" standalone="no"?>
<svg xmlns="http://www.w3.org/2000/svg" width="4558" height="2057"><path id="path511" d="m 657,1488 q -54,0 -110,14 -56,14 -111,34.5 -55,20.5 -107.5,45 -52.5,24.5 -99.5,45 -47,20.5 -87.5,34.5 -40.5,14 -71.5,14 -30,0 -50,-9.5 Q 0,1656 0,1625 0,1609 8.5,1589.5 17,1570 27,1551 q 10,-19 18.5,-37 8.5,-18 8.5,-33 0,-9 -9,-9 -4,0 -10,3.5 -6,3.5 -12,8.5 -7,5 -15,12 l -7,-9 q 6,-5 17.5,-14.5 11.5,-9.5 25,-19 13.5,-9.5 28,-16.5 14.5,-7 26.5,-7 21,0 33.5,10 12.5,10 12.5,24 0,16 -8,36 -8,20 -18,40 -10,20 -18,39.5 -8,19.5 -8,34.5 0,11 4.5,20.5 4.5,9.5 15.5,9.5 28,0 64,-13 36,-13 78.5,-32.5 42.5,-19.5 90.5,-42.5 48,-23 100.5,-42.5 52.5,-19.5 109,-32.5 56.5,-13 115.5,-13 40,0 78,10.5 38,10.5 67.5,32 29.5,21.5 47.5,54 18,32.5 18,77.5 0,75 -37,149 -37,74 -98,133 -61,59 -139.5,96 -78.5,37 -162.5,37 -47,0 -87,-8 -40,-8 -69.5,-25.5 -29.5,-17.5 -46.5,-44 -17,-26.5 -17,-63.5 0,-61 34.5,-113 34.5,-52 85.5,-89 51,-37 108.5,-58 57.5,-21 103.5,-21 43,0 73,19.5 30,19.5 30,65.5 0,21 -7,35 -7,14 -21,14 -9,0 -16.5,-5.5 -7.5,-5.5 -7.5,-16.5 0,-8 4.5,-12.5 4.5,-4.5 9.5,-9 5,-4.5 9.5,-9.5 4.5,-5 4.5,-14 0,-22 -21.5,-37 -21.5,-15 -57.5,-15 -42,0 -89,22 -47,22 -86.5,58.5 -39.5,36.5 -65.5,83.5 -26,47 -26,97 0,32 12,56.5 12,24.5 34,41 22,16.5 51.5,24.5 29.5,8 65.5,8 73,0 137.5,-35.5 Q 654,1970 702,1913 q 48,-57 76,-127.5 28,-70.5 28,-139.5 0,-78 -40,-118 -40,-40 -109,-40 z M 43,1336 q 0,-16 11.5,-32.5 Q 66,1287 84,1287 q 14,0 21,11 7,11 7,25 0,20 -13.5,33.5 Q 85,1370 71,1370 q -14,0 -21,-10 -7,-10 -7,-24 z m 99,0 q 0,-16 11.5,-32.5 11.5,-16.5 29.5,-16.5 14,0 21,11 7,11 7,25 0,20 -13.5,33.5 -13.5,13.5 -27.5,13.5 -14,0 -21,-10 -7,-10 -7,-24 z"></path></svg>
