<?xml version="1.0" encoding="UTF-8" standalone="no"?>
<svg xmlns="http://www.w3.org/2000/svg" width="4558" height="2057"><path id="path558" d="m 450,1904 q 19,-21 37.5,-39.5 18.5,-18.5 35.5,-32.5 17,-14 31.5,-22 14.5,-8 26.5,-8 19,0 28.5,11.5 9.5,11.5 9.5,25.5 0,15 -9,30 -9,15 -31,15 -14,0 -21.5,-8 -7.5,-8 -7.5,-20 0,-9 -5,-9 -5,0 -13,4.5 -8,4.5 -16.5,11.5 -8.5,7 -16.5,14 -8,7 -12,13 7,16 15,34 7,15 16,33.5 9,18.5 19,35.5 9,17 21.5,30.5 12.5,13.5 33.5,18.5 l 1,9 h -57 q -23,0 -43,-8 -20,-8 -28,-25 l -30,-64 q -11,33 -16,55 -5,22 -5,29 0,15 -14,15 -8,0 -21,-2 -13,-2 -26,-2 -14,0 -24,4 -10,4 -13,4 -4,0 -4,-4 0,-3 6,-9 6,-6 12,-18 12,-21 23,-56 11,-35 22,-80 10,-40 21,-82 11,-42 22,-85 -49,0 -99,-8 -50,-8 -96.5,-25 -46.5,-17 -87,-43.5 Q 95,1620 65,1584 35,1548 17.5,1501.5 0,1455 0,1398 0,1322 27,1262 54,1202 97.5,1160.5 141,1119 196,1097 q 55,-22 111,-22 45,0 80,13 35,13 59,35 24,22 36.5,51 12.5,29 12.5,61 0,33 -11,60.5 -11,27.5 -30,48 -19,20.5 -45.5,32 -26.5,11.5 -56.5,11.5 -21,0 -38,-6.5 -17,-6.5 -29,-17.5 -12,-11 -18,-25 -6,-14 -6,-29 0,-10 5,-19.5 5,-9.5 17,-9.5 8,0 14,4.5 6,4.5 6,14.5 0,10 -5.5,16.5 -5.5,6.5 -5.5,15.5 0,6 3,13 3,7 10,13.5 7,6.5 18.5,11 11.5,4.5 29.5,4.5 27,0 49.5,-11 22.5,-11 39.5,-29.5 17,-18.5 26.5,-43 9.5,-24.5 9.5,-51.5 0,-63 -42.5,-98.5 Q 393,1104 318,1104 q -48,0 -91.5,21 -43.5,21 -77.5,59.5 -34,38.5 -54,92.5 -20,54 -20,120 0,76 27.5,134 27.5,58 75,97.5 47.5,39.5 110.5,59.5 63,20 134,20 27,-95 62,-185 35,-90 84.5,-160.5 49.5,-70.5 116.5,-113 67,-42.5 159,-42.5 46,0 85.5,16 39.5,16 69,45 29.5,29 46.5,68.5 17,39.5 17,87.5 0,62 -24,112.5 -24,50.5 -63.5,86.5 -39.5,36 -89.5,55.5 -50,19.5 -101,19.5 -41,0 -72,-10.5 -31,-10.5 -54,-28.5 -32,20 -71.5,34.5 -39.5,14.5 -85.5,22.5 -14,48 -27,95 -13,47 -24,93 z m 392,-633 q -62,0 -112,35.5 -50,35.5 -91,95 -41,59.5 -73.5,136.5 -32.5,77 -59.5,161 41,-8 75,-22.5 34,-14.5 60,-33.5 -32,-37 -32,-82 0,-51 23.5,-76.5 23.5,-25.5 55.5,-25.5 29,0 49,18.5 20,18.5 20,44.5 0,33 -22.5,66 -22.5,33 -62.5,62 20,15 48.5,24 28.5,9 63.5,9 46,0 90,-17 44,-17 78.5,-49 34.5,-32 55,-77 20.5,-45 20.5,-101 0,-78 -49,-123 -49,-45 -137,-45 z m -218,294 q 0,37 29,68 31,-25 47.5,-53 16.5,-28 16.5,-56 0,-46 -40,-46 -18,0 -35.5,21.5 Q 624,1521 624,1565 Z"></path></svg>
