<?xml version="1.0" encoding="UTF-8" standalone="no"?>
<svg xmlns="http://www.w3.org/2000/svg" width="4558" height="2057"><path id="path118" d="m 489,1975 q 70,0 129,-38 59,-38 109,-98 50,-60 91.5,-134 41.5,-74 77,-146.5 35.5,-72.5 66,-135 30.5,-62.5 57.5,-99.5 36,-51 68,-76 32,-25 53,-39 l 12,14 q -23,27 -35.5,75 -12.5,48 -19,106.5 -6.5,58.5 -8.5,122.5 -2,64 -5,121 20,-34 50,-77.5 30,-43.5 64.5,-89 34.5,-45.5 70.5,-89.5 36,-44 69,-80 48,-52 86,-70 38,-18 70,-18 18,0 32,5.5 14,5.5 14,12.5 0,8 -6,14.5 -6,6.5 -14,6.5 -5,0 -7,-3 -2,-3 -5,-6.5 -3,-3.5 -7.5,-6.5 -4.5,-3 -13.5,-3 -29,0 -49,28.5 -20,28.5 -45,82.5 -24,52 -42,114 -18,62 -30,120 -12,58 -18,104.5 -6,46.5 -6,67.5 0,20 5,26.5 5,6.5 15,6.5 8,0 17.5,-5 9.5,-5 17.5,-12 10,-7 19,-17 l 9,10 q -19,20 -38,36 -17,14 -36,24.5 -19,10.5 -36,10.5 -27,0 -48.5,-21.5 -21.5,-21.5 -21.5,-66.5 0,-33 6,-77 6,-44 15,-88 9,-44 19.5,-83.5 10.5,-39.5 19.5,-63.5 -7,6 -24.5,27.5 -17.5,21.5 -41,55 -23.5,33.5 -51.5,77.5 -28,44 -55,95 -8,15 -16,34.5 -8,19.5 -17,39.5 -9,20 -20,39 -11,19 -27,33 -16,14 -35,17 -19,3 -22,3 21,-50 25.5,-103 4.5,-53 4.5,-107 v -122 q 0,-26 5,-65 5,-39 19,-71 -9,16 -22.5,50.5 -13.5,34.5 -31,80 -17.5,45.5 -38.5,98.5 -21,53 -46,106 -25,53 -52.5,102.5 -27.5,49.5 -58.5,87.5 -18,22 -43,46 -25,24 -57,44.5 -32,20.5 -72,34 -40,13.5 -88,13.5 -33,0 -67.5,-10.5 Q 394,2036 363,2016.5 332,1997 307.5,1968.5 283,1940 268,1905 219,1897 171,1874 123,1851 85,1811.5 47,1772 23.5,1715 0,1658 0,1581 q 0,-80 24.5,-148 24.5,-68 66,-124 41.5,-56 96.5,-99 55,-43 117.5,-72.5 62.5,-29.5 128,-44.5 65.5,-15 127.5,-15 72,0 129.5,18.5 57.5,18.5 98,51.5 40.5,33 62.5,78 22,45 22,97 0,47 -15.5,89 -15.5,42 -43.5,73.5 -28,31.5 -68,50.5 -40,19 -88,19 -41,0 -75.5,-12 -34.5,-12 -59.5,-34 -25,-22 -39,-53 -14,-31 -14,-68 0,-28 13,-47 13,-19 33,-19 12,0 21,9 9,9 9,20 0,14 -5,22 -5,8 -11.5,15 -6.5,7 -11.5,14 -5,7 -5,18 0,23 9.5,44 9.5,21 28.5,37 19,16 47,26 28,10 65,10 41,0 75.5,-16.5 34.5,-16.5 59.5,-45.5 25,-29 39,-68 14,-39 14,-84 0,-44 -18.5,-83.5 -18.5,-39.5 -55,-69 -36.5,-29.5 -91,-47 Q 631,1106 560,1106 q -83,0 -167,34 -84,34 -152,97 -68,63 -111,151.5 -43,88.5 -43,197.5 0,60 13.5,107.5 13.5,47.5 36.5,82 23,34.5 53.5,57 30.5,22.5 65.5,34.5 -2,-12 -3.5,-24 -1.5,-12 -1.5,-25 0,-54 19,-96 19,-42 49,-71 30,-29 68.5,-44 38.5,-15 77.5,-15 49,0 81,29.5 32,29.5 32,77.5 0,44 -18,82 -18,38 -51,67 -33,29 -80,45.5 -47,16.5 -105,16.5 h -8 q 31,34 78,49.5 47,15.5 95,15.5 z M 279,1809 q 0,39 15,67 19,4 42,4 51,0 92,-13.5 41,-13.5 70.5,-37.5 29.5,-24 45.5,-57.5 16,-33.5 16,-73.5 0,-38 -25,-63.5 -25,-25.5 -71,-25.5 -35,0 -68,14 -33,14 -59,39.5 -26,25.5 -42,63 -16,37.5 -16,83.5 z"></path></svg>
