<?xml version="1.0" encoding="UTF-8" standalone="no"?>
<svg xmlns="http://www.w3.org/2000/svg" width="4558" height="2057"><path id="path30" d="m 1180,1223 q 32,0 60,1.5 28,1.5 55,6.5 21,-13 43,-19.5 22,-6.5 42,-6.5 22,0 41,6 19,6 19,13 0,8 -5.5,14 -5.5,6 -13.5,6 -5,0 -8,-3.5 -3,-3.5 -7.5,-8 -4.5,-4.5 -10.5,-8 -6,-3.5 -15,-3.5 -11,0 -21.5,5 -10.5,5 -22.5,15 66,19 104.5,55.5 38.5,36.5 38.5,86.5 0,45 -17.5,74.5 -17.5,29.5 -38.5,47.5 -25,21 -56,34 28,10 50,28 19,15 34.5,39.5 15.5,24.5 15.5,59.5 0,46 -19,81 -19,35 -48,59 -29,24 -64,36 -35,12 -68,12 -62,0 -92,-26.5 -30,-26.5 -30,-60.5 0,-14 5.5,-24.5 5.5,-10.5 12,-17.5 6.5,-7 13,-10.5 6.5,-3.5 9.5,-3.5 6,0 6,5 0,5 -5.5,19 -5.5,14 -5.5,36 0,22 18.5,42.5 18.5,20.5 50.5,20.5 53,0 83.5,-51.5 30.5,-51.5 30.5,-139.5 0,-24 -5.5,-41.5 -5.5,-17.5 -11.5,-28.5 -7,-13 -16,-21 -8,3 -16,5 -17,5 -33,5 -11,0 -23,-5 -12,-5 -12,-17 0,-11 10,-17.5 10,-6.5 28,-6.5 12,0 28,4.5 16,4.5 21,7.5 12,-14 23,-34 8,-17 15.5,-43.5 7.5,-26.5 7.5,-64.5 0,-39 -15.5,-68.5 -15.5,-29.5 -53.5,-50.5 -35,36 -61,99 -26,63 -50,136.5 -24,73.5 -51.5,151 -27.5,77.5 -65.5,142.5 -23,40 -51.5,75.5 -28.5,35.5 -64.5,62 -36,26.5 -80,42 -44,15.5 -98,15.5 -54,0 -95,-17 -41,-17 -69,-45 -46,57 -113,92.5 -67,35.5 -154,35.5 -73,0 -138,-21.5 -65,-21.5 -114,-64 Q 57,1929 28.5,1866.5 0,1804 0,1721 0,1650 23.5,1585.5 47,1521 89,1465.5 q 42,-55.5 99.5,-101 57.5,-45.5 125.5,-77 68,-31.5 143.5,-49 Q 533,1221 612,1221 q 92,0 164.5,18.5 72.5,18.5 126.5,50.5 65,-32 138,-49.5 73,-17.5 139,-17.5 z m -454,288 q 0,-33 11.5,-63 11.5,-30 32.5,-56.5 21,-26.5 49.5,-49 Q 848,1320 882,1301 831,1272 764,1255.5 697,1239 612,1239 q -72,0 -141,17.5 -69,17.5 -131.5,49 -62.5,31.5 -115.5,76 -53,44.5 -91.5,98 Q 94,1533 72,1594 q -22,61 -22,126 0,74 22.5,133 22.5,59 63.5,100 41,41 98,63 57,22 126,22 83,0 144,-37 61,-37 99,-96 -37,-52 -37,-116 0,-28 9.5,-52 9.5,-24 23.5,-42.5 14,-18.5 30,-30 16,-11.5 30,-15.5 -7,-39 -25.5,-69 -18.5,-30 -45,-50 -26.5,-20 -59.5,-30.5 -33,-10.5 -70,-10.5 -40,0 -77,15.5 -37,15.5 -65.5,42 -28.5,26.5 -45.5,62.5 -17,36 -17,77 0,36 12,63 12,27 31,44 19,17 43.5,25.5 24.5,8.5 48.5,8.5 23,0 40,-7 17,-7 28.5,-18 11.5,-11 17.5,-24.5 6,-13.5 6,-25.5 0,-10 -5.5,-14.5 -5.5,-4.5 -5.5,-18.5 0,-8 6.5,-15 6.5,-7 17.5,-7 13,0 19.5,10.5 6.5,10.5 6.5,22.5 0,18 -9.5,38 -9.5,20 -26.5,37 -17,17 -41,28 -24,11 -54,11 -29,0 -57,-10 -28,-10 -50,-30 -22,-20 -35.5,-50 -13.5,-30 -13.5,-71 0,-43 19,-81.5 19,-38.5 50.5,-67.5 31.5,-29 72,-45.5 40.5,-16.5 84.5,-16.5 49,0 93.5,14 44.5,14 78.5,42.5 34,28.5 54.5,72 20.5,43.5 20.5,102.5 0,50 -14.5,98 -14.5,48 -41.5,92 19,11 42,17.5 23,6.5 50,6.5 39,0 72,-11.5 33,-11.5 62,-32.5 29,-21 55,-49.5 26,-28.5 50,-62.5 29,-42 55,-89.5 26,-47.5 50,-97 24,-49.5 46,-97.5 22,-48 44.5,-91 22.5,-43 45.5,-77.5 23,-34.5 48,-57.5 -21,-7 -41.5,-9 -20.5,-2 -47.5,-2 -60,0 -124,19.5 -64,19.5 -120,53.5 48,37 72,84.5 24,47.5 24,100.5 0,32 -10,60.5 -10,28.5 -29,50.5 -19,22 -45,35 -26,13 -58,13 -33,0 -62.5,-9.5 Q 799,1638 776,1620 753,1602 739.5,1574.5 726,1547 726,1511 Z m 288,-17 q 0,-47 -24,-90.5 -24,-43.5 -71,-78.5 -54,37 -87.5,84.5 Q 798,1457 798,1511 q 0,57 25.5,90 25.5,33 75.5,33 24,0 44.5,-11 20.5,-11 36.5,-30 16,-19 25,-44.5 9,-25.5 9,-54.5 z m -350,203 q 0,-8 -0.5,-16.5 -0.5,-8.5 -1.5,-16.5 -11,3 -24,13 -13,10 -23.5,25.5 -10.5,15.5 -17.5,36 -7,20.5 -7,44.5 0,52 33,88 20,-40 30.5,-84.5 Q 664,1742 664,1697 Z"></path></svg>
