<?xml version="1.0" encoding="UTF-8" standalone="no"?>
<svg xmlns="http://www.w3.org/2000/svg" width="4558" height="2057"><path id="path451" d="m 675,965 q -3,16 -9,51.5 -6,35.5 -14.5,83 -8.5,47.5 -19.5,104 -11,56.5 -25,113.5 28,-4 55.5,-5.5 27.5,-1.5 55.5,-1.5 78,0 151,15.5 73,15.5 129.5,51.5 56.5,36 90.5,95 34,59 34,146 0,62 -18,118 -18,56 -49,105 -31,49 -74,89 -43,40 -93,68 -50,28 -105.5,43.5 Q 728,2057 672,2057 q -49,0 -89,-10.5 -40,-10.5 -68.5,-31.5 -28.5,-21 -44,-51 -15.5,-30 -15.5,-69 0,-47 26,-94 26,-47 67.5,-85 41.5,-38 93.5,-61.5 52,-23.5 105,-23.5 57,0 88,25.5 31,25.5 31,67.5 0,21 -8.5,36 -8.5,15 -22.5,15 -9,0 -14,-5 -5,-5 -5,-13 0,-7 4.5,-12 4.5,-5 10.5,-9 6,-4 10.5,-9.5 4.5,-5.5 4.5,-14.5 0,-29 -24.5,-46.5 Q 797,1648 747,1648 q -47,0 -90,21.5 -43,21.5 -75.5,56 -32.5,34.5 -52,78 -19.5,43.5 -19.5,87.5 0,66 40,108.5 40,42.5 123,42.5 50,0 99,-15 49,-15 93,-43 44,-28 81,-66.5 37,-38.5 64.5,-85 27.5,-46.5 43,-100 15.5,-53.5 15.5,-110.5 0,-82 -30.5,-137.5 -30.5,-55.5 -81.5,-90 -51,-34.5 -118,-49.5 -67,-15 -140,-15 -48,0 -97,6 -35,128 -85,228 -50,100 -109.5,169 -59.5,69 -126,105.5 Q 215,1875 149,1875 112,1875 84,1863.5 56,1852 37.5,1833 19,1814 9.5,1790 0,1766 0,1740 q 0,-68 42.5,-131 42.5,-63 113,-116.5 70.5,-53.5 162,-94 Q 409,1358 507,1335 q 16,-56 30,-113 14,-57 25,-107 11,-50 19,-89.5 8,-39.5 12,-60.5 h -22 l 9,-17 h 17 q 3,-13 7,-28 3,-13 7.5,-28.5 4.5,-15.5 9.5,-32.5 9,-30 25,-51 16,-21 34.5,-34 18.5,-13 37.5,-19 19,-6 35,-6 31,0 48,16 17,16 17,34 0,17 -10,31 -10,14 -31,14 -15,0 -23.5,-7.5 Q 745,829 745,818 q 0,-16 9.5,-24.5 9.5,-8.5 9.5,-17.5 0,-12 -9,-12 -22,0 -34.5,26 -12.5,26 -24.5,76 -3,11 -6,25 -3,14 -5,27 l -6,30 h 68 l -10,17 z m -558,842 q 58,0 113.5,-32.5 55.5,-32.5 105,-92 Q 385,1623 427,1540 q 42,-83 74,-184 -90,22 -175,60.5 -85,38.5 -151,87 -66,48.5 -106,105.5 -40,57 -40,116 0,34 23,58 23,24 65,24 z"></path></svg>
