<?xml version="1.0" encoding="UTF-8" standalone="no"?>
<svg xmlns="http://www.w3.org/2000/svg" width="4558" height="2057"><path id="path622" d="m 490,1589 q 0,18 -7.5,39 -7.5,21 -16.5,46 -9,25 -16.5,53 -7.5,28 -7.5,61 0,87 60,133 60,46 163,46 57,0 120,-16 63,-16 125.5,-35.5 62.5,-19.5 120.5,-35.5 58,-16 104,-16 52,0 89.5,14.5 37.5,14.5 62,38.5 24.5,24 36,56 11.5,32 11.5,66 0,18 -8,18 -7,0 -9,-14 -9,-59 -58,-86.5 -49,-27.5 -133,-27.5 -55,0 -112.5,8.5 -57.5,8.5 -116,19 -58.5,10.5 -118.5,19 -60,8.5 -121,8.5 -62,0 -116.5,-11 -54.5,-11 -95,-33.5 -40.5,-22.5 -63.5,-57 -23,-34.5 -23,-81.5 0,-34 8,-63 8,-29 17,-53.5 9,-24.5 17,-44.5 8,-20 8,-35 0,-16 -12,-16 -10,0 -32,12 -22,12 -52,49 -8,9 -15.5,29 -7.5,20 -14.5,41 -7,21 -11,39 -4,18 -4,24 0,8 -7,11 -7,3 -14,3 -8,0 -17,-1.5 -9,-1.5 -21,-1.5 -10,0 -19.5,3 -9.5,3 -12.5,3 -5,0 -5,-6 0,-4 5,-7 5,-3 10,-14 8,-20 16,-45 8,-25 14,-48.5 6,-23.5 10,-43.5 4,-20 4,-31 0,-19 -12,-19 -7,0 -24,11.5 -17,11.5 -46,48.5 -8,9 -16,29.5 -8,20.5 -15,42.5 -7,22 -11.5,40.5 -4.5,18.5 -4.5,24.5 0,14 -22,14 -7,0 -16,-1.5 -9,-1.5 -23,-1.5 -14,0 -24.5,4 -10.5,4 -13.5,4 -4,0 -4,-6 0,-4 6.5,-8.5 6.5,-4.5 11.5,-15.5 9,-19 18,-44 9,-25 17,-50 8,-25 13,-45.5 5,-20.5 5,-29.5 0,-13 -8,-13 -4,0 -10.5,4.5 -6.5,4.5 -13.5,9.5 -8,6 -16,13 l -8,-9 q 6,-6 17.5,-15.5 11.5,-9.5 25,-18.5 13.5,-9 27.5,-15.5 14,-6.5 26,-6.5 18,0 30.5,8.5 12.5,8.5 12.5,23.5 0,15 -3.5,28.5 -3.5,13.5 -5.5,17.5 26,-33 56.5,-55.5 30.5,-22.5 59.5,-22.5 21,0 36,10.5 15,10.5 15,27.5 0,18 -4,32.5 -4,14.5 -6,18.5 15,-20 33.5,-36.5 18.5,-16.5 37,-28 18.5,-11.5 37,-18 18.5,-6.5 33.5,-6.5 17,0 32,10.5 15,10.5 15,26.5 z"></path></svg>
