<?xml version="1.0" encoding="UTF-8" standalone="no"?>
<svg xmlns="http://www.w3.org/2000/svg" width="4558" height="2057"><path id="path949" d="m 637,1393 q 5,-22 11.5,-37 6.5,-15 16,-24 9.5,-9 22,-14 12.5,-5 29.5,-7 22,-3 36,-10 7,-4 12,-7 l 6,12 q -5,2 -9,6 -4,3 -9,8 -5,5 -10,11 -14,19 -24.5,42 -10.5,23 -20.5,65 -25,106 -51.5,193 -26.5,87 -58.5,157 63,25 127,50.5 64,25.5 133,46.5 69,21 143,34 74,13 156,13 100,0 152.5,-41 52.5,-41 61.5,-112 1,-6 2,-11.5 1,-5.5 6,-5.5 5,0 6.5,6 1.5,6 1.5,15 0,38 -12.5,80.5 -12.5,42.5 -39.5,77.5 -27,35 -70,58 -43,23 -104,23 -65,0 -135,-19 -70,-19 -143.5,-49 -73.5,-30 -149,-66.5 Q 647,1851 572,1817 509,1938 426.5,1997.5 344,2057 231,2057 186,2057 144.5,2044.5 103,2032 70.5,2008 38,1984 19,1948 0,1912 0,1865 q 0,-44 16,-77 16,-33 43,-54.5 27,-21.5 62,-32.5 35,-11 73,-11 85,0 162.5,19.5 77.5,19.5 155.5,48.5 32,-57 58,-127 26,-70 46,-152 -29,32 -63.5,53.5 -34.5,21.5 -61.5,21.5 -23,0 -41,-13.5 -18,-13.5 -18,-40.5 0,-16 8.5,-35.5 8.5,-19.5 18.5,-38.5 10,-19 18.5,-37 8.5,-18 8.5,-33 0,-10 -7,-10 -5,0 -11,4 -6,4 -12,9 -7,6 -15,13 l -8,-9 q 6,-6 17.5,-15.5 11.5,-9.5 25,-19 13.5,-9.5 28,-16.5 14.5,-7 26.5,-7 22,0 33,9 11,9 11,24 0,15 -8,35 -8,20 -17,41 -9,21 -17,42.5 -8,21.5 -8,39.5 0,15 16,15 14,0 27.5,-10.5 13.5,-10.5 35.5,-33.5 13,-14 20,-29.5 7,-15.5 14,-44.5 z m -423,597 q 78,0 150.5,-53 72.5,-53 132.5,-153 -80,-33 -156.5,-55 -76.5,-22 -148.5,-22 -32,0 -62,9.5 -30,9.5 -53.5,28.5 -23.5,19 -38,48 -14.5,29 -14.5,69 0,36 16.5,60.5 16.5,24.5 43,39.5 26.5,15 60.5,21.5 34,6.5 70,6.5 z"></path></svg>
