<?xml version="1.0" encoding="UTF-8" standalone="no"?>
<svg xmlns="http://www.w3.org/2000/svg" width="4558" height="2057"><path id="path498" d="m 58,1903 q 26,-108 60,-205 34,-97 76,-176.5 42,-79.5 93,-139 51,-59.5 112,-92.5 19,-75 57.5,-145.5 Q 495,1074 550.5,1020 606,966 678.5,933.5 751,901 840,901 q 78,0 141.5,25.5 63.5,25.5 108.5,69 45,43.5 69.5,102.5 24.5,59 24.5,126 0,75 -29,138 -29,63 -77,108.5 -48,45.5 -109,70.5 -61,25 -125,25 -25,0 -53,-5 -22,64 -74,101.5 -52,37.5 -121,37.5 -40,0 -79,-13.5 -39,-13.5 -69.5,-44 Q 417,1612 398,1563 q -19,-49 -19,-121 0,-17 1,-34 1,-17 3,-34 -39,36 -73.5,88.5 Q 275,1515 245,1581 215,1647 189.5,1724.5 164,1802 143,1888 q 15,-18 34,-33.5 19,-15.5 38,-27 19,-11.5 37,-18 18,-6.5 32,-6.5 18,0 32,9 14,9 14,30 0,18 -7,36 -7,18 -15.5,36 -8.5,18 -15.5,37 -7,19 -7,39 0,13 5,17 5,4 10,4 7,0 15,-4.5 8,-4.5 16,-10.5 9,-6 17,-15 l 8,8 q -16,18 -33,31 -15,12 -33,21.5 -18,9.5 -36,9.5 -23,0 -41.5,-10.5 Q 194,2030 194,2003 q 0,-20 8.5,-39.5 8.5,-19.5 19,-38.5 10.5,-19 19,-36 8.5,-17 8.5,-31 0,-15 -11,-15 -11,0 -36,14 -25,14 -56,52 -10,12 -18,31.5 -8,19.5 -14,39.5 -6,20 -9,36.5 -3,16.5 -3,21.5 0,15 -14,15 -8,0 -21,-2 -13,-2 -26,-2 -14,0 -24,4 -10,4 -13,4 -4,0 -4,-4 0,-3 6,-9 6,-6 12,-18 12,-21 20.5,-49.5 Q 47,1948 58,1903 Z M 837,961 q -79,0 -145.5,25 -66.5,25 -119.5,68 -53,43 -91.5,101 -38.5,58 -59.5,124 58,-27 126,-27 34,0 69,8 11,-35 31.5,-64 20.5,-29 47.5,-50 27,-21 59,-33 32,-12 68,-12 32,0 60.5,9.5 28.5,9.5 50.5,27 22,17.5 34.5,41.5 12.5,24 12.5,52 0,32 -13,47 -13,15 -27,15 -11,0 -18,-7.5 -7,-7.5 -7,-18.5 0,-10 5.5,-16.5 5.5,-6.5 12,-12.5 6.5,-6 12,-13 5.5,-7 5.5,-19 0,-15 -9.5,-31 -9.5,-16 -26.5,-28.5 -17,-12.5 -41,-20.5 -24,-8 -53,-8 -33,0 -62,10.5 -29,10.5 -53,30 -24,19.5 -41.5,46.5 -17.5,27 -27.5,59 76,22 122,77.5 46,55.5 46,139.5 0,32 -8,64 11,2 23,3 12,1 24,1 58,0 111.5,-24 53.5,-24 94.5,-66.5 41,-42.5 66,-100.5 25,-58 25,-126 0,-63 -21.5,-113 -21.5,-50 -61,-85 Q 1018,999 962,980 906,961 837,961 Z m -288,342 q -41,0 -77,14 -36,14 -69,40 -4,21 -5.5,41.5 -1.5,20.5 -1.5,41.5 0,69 19,116 19,47 48,76.5 29,29.5 65,42 36,12.5 71,12.5 58,0 102,-35.5 44,-35.5 61,-97.5 -70,-21 -114,-77 -44,-56 -44,-137 v -16 q 0,0 2,-16 -14,-2 -28.5,-3.5 Q 563,1303 549,1303 Z m 221,187 q 0,-37 -11,-66.5 -11,-29.5 -30.5,-51 Q 709,1351 683,1336 q -26,-15 -56,-23 -1,6 -1,12 v 12 q 0,40 10.5,72.5 10.5,32.5 29.5,57.5 19,25 44,42.5 25,17.5 55,27.5 2,-11 3.5,-22.5 1.5,-11.5 1.5,-24.5 z"></path></svg>
