<?xml version="1.0" encoding="UTF-8" standalone="no"?>
<svg xmlns="http://www.w3.org/2000/svg" width="4558" height="2057"><path id="path18" d="m 245,1825 h 70 q 36,-38 70.5,-76 34.5,-38 63.5,-73 23,-29 43.5,-53 20.5,-24 35.5,-43 18,-21 32,-40 h 25 l -75,285 h 13 l -6,17 h -11 l -54,200 h 41 l -6,15 H 313 l 5,-15 h 39 l 54,-200 h -73 q -29,34 -58.5,65.5 -29.5,31.5 -57.5,60.5 -38,40 -69,64.5 -31,24.5 -64,24.5 -19,0 -33.5,-9 -14.5,-9 -25,-21.5 Q 20,2014 12.5,1999.5 5,1985 0,1973 l 7,-9 q 7,7 16,12 8,5 18,8 10,3 23,3 29,0 63,-13 34,-13 71,-42 49,-37 102,-90 h -66 z m 107,0 h 63 l 33,-114 z m 178,-379 q 0,-18 8,-35 8,-17 21,-29.5 13,-12.5 29.5,-20 16.5,-7.5 34.5,-7.5 27,0 43,17 16,17 16,43 0,16 -7.5,32.5 -7.5,16.5 -20,30 -12.5,13.5 -29,22 -16.5,8.5 -35.5,8.5 -26,0 -43,-16 -17,-16 -17,-45 z m 94,-69 q -24,0 -44,20.5 -20,20.5 -20,48.5 0,21 9.5,30 9.5,9 24.5,9 23,0 42,-21.5 19,-21.5 19,-49.5 0,-37 -31,-37 z"></path></svg>
