<?xml version="1.0" encoding="UTF-8" standalone="no"?>
<svg xmlns="http://www.w3.org/2000/svg" width="4558" height="2057"><path id="path914" d="m 439,2010 q 25,-21 51,-49 26,-28 50,-61 24,-33 44.5,-71.5 20.5,-38.5 33.5,-81.5 -69,-6 -119,-25.5 -50,-19.5 -84,-48.5 -33,22 -74,34 -41,12 -85,12 -45,0 -91,-11.5 Q 119,1696 82.5,1670 46,1644 23,1603 0,1562 0,1503 q 0,-50 23,-96.5 23,-46.5 63.5,-82 40.5,-35.5 96,-57 Q 238,1246 303,1246 q 80,0 145,26 65,26 111.5,75 46.5,49 72,119 25.5,70 25.5,158 0,52 -14,106 h 28 q 74,0 141.5,-24.5 67.5,-24.5 119.5,-71 52,-46.5 82.5,-113.5 30.5,-67 30.5,-153 0,-67 -18.5,-114.5 Q 1008,1206 978,1176 948,1146 909.5,1132.5 871,1119 831,1119 q -42,0 -77,13.5 -35,13.5 -60,35.5 -25,22 -39,51 -14,29 -14,60 0,54 30.5,87 30.5,33 84.5,33 18,0 31.5,-5.5 13.5,-5.5 22.5,-13 9,-7.5 13,-15.5 4,-8 4,-13 0,-10 -5.5,-15.5 -5.5,-5.5 -5.5,-16.5 0,-8 6,-13.5 6,-5.5 14,-5.5 11,0 17,9 6,9 6,20 0,15 -8,30 -8,15 -21.5,26.5 -13.5,11.5 -32,19 -18.5,7.5 -40.5,7.5 -61,0 -97,-35.5 -36,-35.5 -36,-101.5 0,-33 15,-66 15,-33 42,-60 27,-27 66,-43.5 39,-16.5 87,-16.5 51,0 102,15 51,15 92,48.5 41,33.5 66.5,86.5 25.5,53 25.5,129 0,92 -38.5,162.5 Q 1043,1602 980,1650.5 917,1699 836.5,1724 756,1749 672,1749 h -18 q 0,0 -17,-1 -14,47 -36.5,90 -22.5,43 -50,80 -27.5,37 -58.5,67 -31,30 -61,51 -11,8 -30,14.5 -19,6.5 -33,6.5 -9,0 -17,-3 -8,-3 -8,-11 0,-10 7.5,-31 7.5,-21 17,-46.5 9.5,-25.5 17,-52.5 7.5,-27 7.5,-50 0,-9 -10,-9 -4,0 -10,3.5 -6,3.5 -12,8.5 -7,5 -15,12 l -7,-9 q 6,-5 17.5,-14.5 11.5,-9.5 25,-19 13.5,-9.5 28,-16.5 14.5,-7 26.5,-7 21,0 32,9 11,9 11,23 0,14 -4.5,36.5 -4.5,22.5 -10.5,47 -6,24.5 -13,47 -7,22.5 -11,35.5 z m 57,-463 q 0,33 -18,62 -18,29 -47,52 32,26 79,44 47,18 113,23 6,-25 10,-51.5 4,-26.5 4,-54.5 0,-77 -25,-140.5 Q 587,1418 543.5,1372 500,1326 441,1301 q -59,-25 -127,-25 -57,0 -102,19.5 -45,19.5 -75.5,51.5 -30.5,32 -46.5,72 -16,40 -16,82 0,52 13.5,90 13.5,38 38,63 24.5,25 58,37 33.5,12 72.5,12 40,0 76.5,-12.5 36.5,-12.5 64.5,-35.5 -24,-26 -36,-54 -12,-28 -12,-57 0,-15 6,-28.5 6,-13.5 16,-23 10,-9.5 22.5,-15 12.5,-5.5 25.5,-5.5 13,0 26.5,4 13.5,4 25,12.5 11.5,8.5 18.5,23 7,14.5 7,35.5 z m -128,1 q 0,23 10.5,47.5 10.5,24.5 32.5,47.5 20,-20 31.5,-44 11.5,-24 11.5,-50 0,-60 -40,-60 -17,0 -31.5,15.5 Q 368,1520 368,1548 Z"></path></svg>
