<?xml version="1.0" encoding="UTF-8" standalone="no"?>
<svg xmlns="http://www.w3.org/2000/svg" width="4558" height="2057"><path id="path734" d="m 28,1875 q 0,37 13.5,67.5 13.5,30.5 34.5,52 21,21.5 46,33 25,11.5 49,11.5 7,0 11.5,-4 4.5,-4 8.5,-9.5 4,-5.5 8.5,-9.5 4.5,-4 11.5,-4 8,0 13,5.5 5,5.5 5,13.5 0,14 -14,20 -14,6 -31,6 -34,0 -67,-13 -33,-13 -59,-39 -26,-26 -42,-64 -16,-38 -16,-89 0,-54 22,-98 22,-44 60,-75.5 38,-31.5 89,-49 51,-17.5 109,-17.5 74,0 149.5,30 75.5,30 151,75.5 75.5,45.5 150.5,98.5 75,53 148,98.5 73,45.5 143,75.5 70,30 135,30 35,0 63,-11.5 28,-11.5 47.5,-29.5 19.5,-18 29.5,-40 10,-22 10,-44 0,-9 -4,-14 -4,-5 -8.5,-9 -4.5,-4 -8.5,-7.5 -4,-3.5 -4,-10.5 0,-8 5,-13 5,-5 13,-5 13,0 20.5,13.5 7.5,13.5 7.5,30.5 0,32 -12.5,60 -12.5,28 -36,48.5 -23.5,20.5 -55.5,32.5 -32,12 -71,12 -64,0 -134.5,-26.5 Q 948,1980 874.5,1941 801,1902 725,1855.5 649,1809 574.5,1770 500,1731 427,1704.5 354,1678 286,1678 q -56,0 -103,12.5 -47,12.5 -81.5,37 Q 67,1752 47.5,1789 28,1826 28,1875 Z"></path></svg>
