<?xml version="1.0" encoding="UTF-8" standalone="no"?>
<svg xmlns="http://www.w3.org/2000/svg" width="4558" height="2057"><path id="path493" d="m 620,1888 q 15,-18 34,-33.5 19,-15.5 38,-27 19,-11.5 37,-18 18,-6.5 32,-6.5 18,0 32,9 14,9 14,30 0,18 -7,36 -7,18 -15.5,36 -8.5,18 -15.5,37 -7,19 -7,39 0,13 5,17 5,4 10,4 7,0 15,-4.5 8,-4.5 16,-10.5 9,-6 17,-15 l 8,8 q -16,18 -33,31 -15,12 -33,21.5 -18,9.5 -36,9.5 -23,0 -41.5,-10.5 Q 671,2030 671,2003 q 0,-20 8.5,-39.5 8.5,-19.5 19,-38.5 10.5,-19 19,-36 8.5,-17 8.5,-31 0,-15 -11,-15 -11,0 -36,14 -25,14 -56,52 -10,12 -18,31.5 -8,19.5 -14,39.5 -6,20 -9,36.5 -3,16.5 -3,21.5 0,15 -14,15 -8,0 -21,-2 -13,-2 -26,-2 -14,0 -24,4 -10,4 -13,4 -4,0 -4,-4 0,-3 6,-9 6,-6 12,-18 11,-21 19.5,-50 8.5,-29 20.5,-74 13,-46 28.5,-100.5 15.5,-54.5 35,-114.5 19.5,-60 43,-122.5 Q 665,1502 693,1441 592,1412 492.5,1388.5 393,1365 293,1365 q -62,0 -111,11.5 -49,11.5 -83.5,34 -34.5,22.5 -53,55 Q 27,1498 27,1540 q 0,26 7,43.5 7,17.5 17,27.5 10,10 22,14 12,4 22,4 10,0 16.5,-4 6.5,-4 12,-9.5 5.5,-5.5 11,-9.5 5.5,-4 14.5,-4 26,0 26,25 0,14 -16,23 -16,9 -39,9 -18,0 -39,-7 -21,-7 -39,-23 -18,-16 -30,-41 -12,-25 -12,-60 0,-48 22,-91 22,-43 61.5,-75.5 39.5,-32.5 96,-52 Q 236,1290 305,1290 q 53,0 105,9 52,9 103,23.5 51,14.5 101,33 50,18.5 101,38.5 41,-80 92.5,-152 51.5,-72 116,-126.5 64.5,-54.5 142.5,-86.5 78,-32 173,-32 75,0 131,19 56,19 93.5,52 37.5,33 56.5,77.5 19,44.5 19,94.5 0,68 -27,122 -27,54 -74,92.5 -47,38.5 -110.5,59 -63.5,20.5 -137.5,20.5 -114,0 -217,-21 -103,-21 -203,-50 -25,56 -46,113.5 -21,57.5 -39.5,112.5 -18.5,55 -34,105.5 Q 635,1845 620,1888 Z m 631,-821 q -86,0 -156,28.5 -70,28.5 -126,77 -56,48.5 -100.5,113.5 -44.5,65 -80.5,137 96,37 194.5,64.5 98.5,27.5 206.5,27.5 69,0 127,-19 58,-19 100.5,-53.5 42.5,-34.5 66.5,-82.5 24,-48 24,-106 0,-42 -16,-76 -16,-34 -47.5,-59 -31.5,-25 -80,-38.5 Q 1315,1067 1251,1067 Z"></path></svg>
