<?xml version="1.0" encoding="UTF-8" standalone="no"?>
<svg xmlns="http://www.w3.org/2000/svg" width="4558" height="2057"><path id="path989" d="m 75,1821 q 40,0 80.5,25 40.5,25 82,55.5 41.5,30.5 85.5,55.5 44,25 91,25 32,0 49.5,-12 17.5,-12 27.5,-29 5,-8 10,-8 5,0 5,6 0,7 -5,19 -6,14 -17.5,31 -11.5,17 -28.5,32 -17,15 -38,25.5 -21,10.5 -46,10.5 -37,0 -66,-13.5 -29,-13.5 -52.5,-34 -23.5,-20.5 -44,-44 -20.5,-23.5 -41,-44 -20.5,-20.5 -43,-34 Q 102,1874 74,1874 q -15,0 -24,2 -9,2 -15,4.5 -6,2.5 -10.5,4.5 -4.5,2 -10.5,2 -5,0 -9.5,-3.5 Q 0,1880 0,1874 q 0,-15 5,-24.5 5,-9.5 19,-22.5 22,-20 46,-34 24,-14 47,-27 23,-13 45,-26.5 22,-13.5 40,-31.5 -9,6 -31,6 -14,0 -23,-2 -9,-2 -16.5,-4 -7.5,-2 -15.5,-4 -8,-2 -18,-2 -14,0 -23,3.5 -9,3.5 -16,8.5 -8,5 -13,11 l -7,-6 q 14,-21 30,-38 14,-14 31,-26.5 17,-12.5 37,-12.5 14,0 23,1.5 9,1.5 16,4 7,2.5 15,4 8,1.5 20,1.5 13,0 20.5,-1.5 7.5,-1.5 12.5,-4 l 8,-4 q 0,0 6,-1.5 2,0 6,4 4,4 4,6 0,6 -11.5,23 -11.5,17 -26.5,32 -23,23 -46,39.5 -23,16.5 -45,29 -22,12.5 -42,24 -20,11.5 -38,24.5 2,0 5,-1 6,-2 11,-2 z m 66,-249 q 0,-9 3,-19.5 3,-10.5 9,-19.5 6,-9 14.5,-15 8.5,-6 19.5,-6 16,0 24.5,13 8.5,13 8.5,31 0,25 -14.5,41 -14.5,16 -30.5,16 -15,0 -24.5,-11.5 Q 141,1590 141,1572 Z"></path></svg>
