<?xml version="1.0" encoding="UTF-8" standalone="no"?>
<svg xmlns="http://www.w3.org/2000/svg" width="4558" height="2057"><path id="path364" d="m 431,1833 q 6,-18 12,-37 5,-17 11,-38 6,-21 11,-44 -31,-19 -48,-47.5 -17,-28.5 -17,-63.5 0,-27 12,-54.5 12,-27.5 34,-52.5 -14,-28 -32,-52 -37,31 -72,62 -35,31 -70,55.5 -35,24.5 -70,40 -35,15.5 -72,15.5 -26,0 -49.5,-7 Q 57,1603 39,1589.5 21,1576 10.5,1557 0,1538 0,1513 q 0,-36 21,-67 21,-31 55,-54.5 34,-23.5 76,-37 42,-13.5 84,-13.5 59,0 104,22.5 45,22.5 77,56.5 28,-22 59,-42.5 31,-20.5 65,-36.5 34,-16 71.5,-25 37.5,-9 78.5,-9 40,0 77,8.5 37,8.5 65.5,28 28.5,19.5 46,50 17.5,30.5 17.5,75.5 0,53 -27.5,102.5 -27.5,49.5 -72.5,87.5 -45,38 -102,61 -57,23 -116,23 -23,0 -44,-3 l -36,131 q -3,12 -8.5,31.5 l -11,39 q 0,0 -9,36.5 -9,36.5 -3.5,25 0,13 10,13 7,0 15,-4.5 8,-4.5 16,-9.5 9,-6 17,-15 l 8,8 q -17,18 -33,31 -14,12 -29.5,21.5 -15.5,9.5 -27.5,9.5 -27,0 -40.5,-11.5 Q 389,2034 389,2015 q 0,-6 0.5,-11 0.5,-5 2.5,-14 -8,11 -19,22.5 -11,11.5 -24,21.5 -13,10 -28,16.5 -15,6.5 -32,6.5 -35,0 -58,-18 -23,-18 -23,-56 0,-36 16.5,-67 16.5,-31 41,-54.5 24.5,-23.5 53.5,-37 29,-13.5 54,-13.5 21,0 34,5.5 13,5.5 24,16.5 z m 154,-241 q -10,17 -22,53 -12,36 -24,80 23,5 45,5 52,0 100.5,-22.5 48.5,-22.5 85.5,-59.5 37,-37 59.5,-84 22.5,-47 22.5,-95 0,-40 -12,-68.5 -12,-28.5 -33.5,-46.5 -21.5,-18 -51,-26 -29.5,-8 -64.5,-8 -39,0 -74.5,9 -35.5,9 -68,24.5 -32.5,15.5 -62.5,36 -30,20.5 -58,42.5 19,23 33,48 38,-38 90.5,-62.5 Q 604,1393 657,1393 q 63,0 92.5,26.5 29.5,26.5 29.5,71.5 0,20 -7,37 -7,17 -19,30 -12,13 -27,20 -15,7 -31,7 -19,0 -28.5,-8.5 -9.5,-8.5 -9.5,-19.5 0,-11 6.5,-19.5 6.5,-8.5 18.5,-8.5 9,0 14,3.5 5,3.5 8.5,7 3.5,3.5 7.5,7 4,3.5 11,3.5 15,0 28.5,-16 13.5,-16 13.5,-46 0,-35 -26.5,-59 -26.5,-24 -80.5,-24 -53,0 -102,29.5 -49,29.5 -81,71.5 13,29 19.5,56 6.5,27 6.5,48 10,-31 41,-44 10,-4 18,-7 8,-3 17,-6.5 9,-3.5 19.5,-8 Q 607,1540 623,1532 l 5,10 q -7,5 -14,12 -6,6 -14,15.5 -8,9.5 -15,22.5 z m -439,4 q 31,0 62,-14.5 31,-14.5 62.5,-38 31.5,-23.5 64,-53 32.5,-29.5 68.5,-58.5 -30,-35 -71.5,-57 -41.5,-22 -95.5,-22 -37,0 -71.5,10.5 -34.5,10.5 -61,30.5 -26.5,20 -42.5,48 -16,28 -16,64 0,42 26.5,66 26.5,24 74.5,24 z m 177,430 q 9,0 19.5,-7 10.5,-7 21,-18 10.5,-11 20.5,-24.5 10,-13.5 16,-27.5 3,-7 6.5,-18 3.5,-11 6.5,-22 3,-11 4.5,-21.5 1.5,-10.5 1.5,-16.5 0,-18 -7.5,-30 -7.5,-12 -28.5,-12 -18,0 -34,14 -16,14 -27.5,36 -11.5,22 -18,47.5 -6.5,25.5 -6.5,47.5 0,28 6,40 6,12 20,12 z m 157,-399 q 0,-46 -20,-100 -25,39 -25,76 0,51 36,87 4,-19 6.5,-35 2.5,-16 2.5,-28 z"></path></svg>
