<?xml version="1.0" encoding="UTF-8" standalone="no"?>
<svg xmlns="http://www.w3.org/2000/svg" width="4558" height="2057"><path id="path746" d="m 882,1211 q 17,-54 27.5,-91.5 10.5,-37.5 10.5,-44.5 0,-5 -1.5,-8.5 -1.5,-3.5 -6.5,-3.5 -4,0 -10,4.5 -6,4.5 -13,9.5 -8,6 -16,13 l -7,-9 q 6,-6 17.5,-15.5 11.5,-9.5 25,-19 13.5,-9.5 28,-16.5 14.5,-7 26.5,-7 18,0 30,8.5 12,8.5 12,22.5 0,7 -2,15 -1,4 -2,6 20,-23 50,-37.5 30,-14.5 54,-14.5 27,0 49.5,16 22.5,16 22.5,51 0,38 -14.5,71 -14.5,33 -37,57 -22.5,24 -50,38 -27.5,14 -52.5,14 -28,0 -44.5,-10 -16.5,-10 -26.5,-26 -21,74 -46.5,161.5 Q 880,1483 846,1574 q 99,34 197,61 98,27 199,27 61,0 110.5,-12 49.5,-12 83.5,-34.5 34,-22.5 52.5,-54 18.5,-31.5 18.5,-71.5 0,-22 -7.5,-38 -7.5,-16 -18,-26.5 -10.5,-10.5 -22.5,-15.5 -12,-5 -22,-5 -10,0 -16.5,4.5 -6.5,4.5 -12.5,10.5 -6,6 -11.5,10.5 -5.5,4.5 -14.5,4.5 -11,0 -18,-7 -7,-7 -7,-18 0,-14 15.5,-21.5 15.5,-7.5 38.5,-7.5 18,0 39.5,7 21.5,7 40,22.5 18.5,15.5 30.5,40 12,24.5 12,58.5 0,43 -17.5,85 -17.5,42 -52,75.5 -34.5,33.5 -84.5,54 -50,20.5 -114,20.5 -58,0 -113.5,-10.5 -55.5,-10.5 -110,-28 Q 987,1688 933.5,1666 880,1644 827,1620 q -36,86 -83,165 -47,79 -108,139.5 -61,60.5 -138.5,96.5 -77.5,36 -174.5,36 -80,0 -140.5,-23.5 Q 122,2010 81.5,1971 41,1932 20.5,1881 0,1830 0,1774 q 0,-67 27.5,-124 27.5,-57 75.5,-98 48,-41 112.5,-64 64.5,-23 138.5,-23 112,0 214,25 102,25 200,57 38,-91 65.5,-178 27.5,-87 48.5,-158 z m -580,778 q 82,0 149,-33.5 67,-33.5 122.5,-89 55.5,-55.5 99.5,-128 44,-72.5 79,-151.5 -95,-41 -193,-71.5 -98,-30.5 -204,-30.5 -69,0 -127,21 -58,21 -100,57.5 -42,36.5 -66,87 -24,50.5 -24,108.5 0,49 17.5,91 17.5,42 51,73 33.5,31 82.5,48.5 49,17.5 113,17.5 z m 768,-938 q -20,0 -43.5,21 -23.5,21 -37.5,50 -3,7 -7.5,18.5 -4.5,11.5 -8.5,23.5 -4,12 -6.5,22.5 -2.5,10.5 -2.5,16.5 0,25 12.5,33.5 12.5,8.5 23.5,8.5 19,0 35.5,-12.5 16.5,-12.5 28.5,-33.5 12,-21 19,-49 7,-28 7,-60 0,-21 -6,-30 -6,-9 -14,-9 z"></path></svg>
