<?xml version="1.0" encoding="UTF-8" standalone="no"?>
<svg xmlns="http://www.w3.org/2000/svg" width="4558" height="2057"><path id="path471" d="M 600,1336 Q 577,1449 530.5,1547.5 484,1646 422.5,1719 361,1792 290,1833.5 219,1875 149,1875 112,1875 84,1863.5 56,1852 37.5,1833 19,1814 9.5,1790 0,1766 0,1740 q 0,-68 42.5,-131 42.5,-63 113,-116.5 70.5,-53.5 162,-94 Q 409,1358 507,1335 q 21,-67 33,-114 12,-47 20,-86 -7,10 -18,22 -11,12 -24.5,22 -13.5,10 -28.5,17 -15,7 -29,7 -37,0 -59.5,-21.5 Q 378,1160 378,1126 q 0,-36 16.5,-67 16.5,-31 41,-54.5 24.5,-23.5 53.5,-37 29,-13.5 54,-13.5 29,0 44,13 15,13 17,33 5,-15 18,-25 13,-10 39,-14 12,-2 21,-4.5 9,-2.5 15,-5.5 7,-4 12,-7 l 6,12 q -6,5 -12,11 -5,5 -12.5,13 -7.5,8 -14.5,19 -14,23 -21,43.5 -7,20.5 -13,45.5 -8,29 -15.5,89.5 -7.5,60.5 -22.5,140.5 29,-4 57,-6 28,-2 57,-2 78,0 151,15.5 73,15.5 129.5,51.5 56.5,36 90.5,95 34,59 34,146 0,61 -18,117.5 -18,56.5 -49,105.5 -31,49 -74,89 -43,40 -93,68 -50,28 -105.5,43.5 Q 728,2057 672,2057 q -49,0 -89,-10.5 -40,-10.5 -68.5,-31.5 -28.5,-21 -44,-51 -15.5,-30 -15.5,-69 0,-47 26,-94 26,-47 67.5,-85 41.5,-38 93.5,-61.5 52,-23.5 105,-23.5 57,0 88,25.5 31,25.5 31,67.5 0,21 -8.5,36 -8.5,15 -22.5,15 -9,0 -14,-5 -5,-5 -5,-13 0,-7 4.5,-12 4.5,-5 10.5,-9 6,-4 10.5,-9.5 4.5,-5.5 4.5,-14.5 0,-29 -24.5,-46.5 Q 797,1648 747,1648 q -47,0 -90,21.5 -43,21.5 -75.5,56 -32.5,34.5 -52,78 -19.5,43.5 -19.5,87.5 0,66 40,108.5 40,42.5 123,42.5 50,0 99,-15 49,-15 93,-43 44,-28 81,-66.5 37,-38.5 64.5,-85 27.5,-46.5 43,-100 15.5,-53.5 15.5,-110.5 0,-82 -30.5,-137.5 -30.5,-55.5 -81.5,-90 -51,-34.5 -118,-49.5 -67,-15 -140,-15 -48,0 -99,6 z m -483,471 q 50,0 95,-22 45,-22 84,-58.5 39,-36.5 72,-84 33,-47.5 58.5,-97.5 25.5,-50 44.5,-99.5 19,-49.5 30,-90.5 -90,22 -175,60.5 -85,38.5 -151,87.5 -66,49 -106,106 -40,57 -40,116 0,34 23,58 23,24 65,24 z m 376,-636 q 17,0 39,-22 22,-22 36,-51 3,-7 7,-19 4,-12 7,-24.5 3,-12.5 5,-23.5 2,-11 2,-17 0,-18 -8,-30 -8,-12 -28,-12 -18,0 -34,14 -16,14 -27.5,36 -11.5,22 -18,47.5 -6.5,25.5 -6.5,47.5 0,54 26,54 z"></path></svg>
