<?xml version="1.0" encoding="UTF-8" standalone="no"?>
<svg xmlns="http://www.w3.org/2000/svg" width="4558" height="2057"><path id="path852" d="m 404,1624 q -38,0 -69.5,-9.5 -31.5,-9.5 -60,-22.5 -28.5,-13 -56,-25.5 Q 191,1554 161,1548 q -15,45 -28,86 -13,41 -23,77 -10,36 -16,65 -6,29 -6,48 0,19 6,26.5 6,7.5 18,7.5 11,0 21,-4.5 10,-4.5 18,-9.5 9,-6 16,-15 l 7,8 q -16,18 -34,31 -15,11 -33.5,20.5 Q 88,1898 70,1898 41,1898 20.5,1881 0,1864 0,1838 0,1813 7.5,1781 15,1749 27,1712.5 39,1676 53,1635 q 14,-41 26,-84 -17,5 -29,13.5 -12,8.5 -19,13.5 -7,5 -10,5 -6,0 -6,-6 0,-4 7,-11 8,-8 23.5,-17.5 Q 61,1539 85,1531 96,1500 116.5,1484.5 137,1469 163,1462 q 17,-4 27.5,-8 10.5,-4 16.5,-6 7,-3 11,-5 l 6,12 q -7,4 -14,10 -6,5 -13.5,14 -7.5,9 -13.5,20 l -12,24 q 30,3 56.5,9.5 26.5,6.5 55,14 28.5,7.5 62,13 33.5,5.5 76.5,5.5 50,0 74,-18.5 24,-18.5 30,-37.5 2,-7 6,-7 6,0 6,6 0,17 -10.5,37 -10.5,20 -28.5,37.5 -18,17.5 -42,29.5 -24,12 -52,12 z M 32,1974 q 0,-6 1.5,-13 1.5,-7 5,-13.5 3.5,-6.5 9.5,-11 6,-4.5 16,-4.5 15,0 24,11 9,11 9,25 0,12 -7,27 -7,15 -18,29 -11,14 -24,23.5 -13,9.5 -24,9.5 -9,0 -9,-7 0,-2 2.5,-4 2.5,-2 4.5,-4 7,-5 17,-15 10,-10 12,-28 -10,0 -14.5,-8 -4.5,-8 -4.5,-17 z"></path></svg>
