<?xml version="1.0" encoding="UTF-8" standalone="no"?>
<svg xmlns="http://www.w3.org/2000/svg" width="4558" height="2057"><path id="path382" d="m 944,1755 q -2,8 -8.5,28 -6.5,20 -14,46 -7.5,26 -16,54.5 -8.5,28.5 -16,53.5 -7.5,25 -12,43 -4.5,18 -4.5,23 0,13 10,13 7,0 15,-4.5 8,-4.5 16,-9.5 9,-6 17,-15 l 8,8 q -17,18 -33,31 -14,12 -29.5,21.5 -15.5,9.5 -27.5,9.5 -27,0 -40.5,-11.5 Q 795,2034 795,2015 q 0,-6 0.5,-11 0.5,-5 2.5,-14 -8,11 -19,22.5 -11,11.5 -24,21.5 -13,10 -28,16.5 -15,6.5 -32,6.5 -35,0 -58,-18 -23,-18 -23,-56 0,-36 16.5,-67 16.5,-31 41,-54.5 24.5,-23.5 53.5,-37 29,-13.5 54,-13.5 21,0 34,5.5 13,5.5 24,16.5 5,-11 9,-25 4,-12 9,-27.5 5,-15.5 11,-33.5 19,-59 40.5,-113.5 Q 928,1579 951,1528 851,1528 761.5,1510.5 672,1493 596,1457 q -63,21 -126,32.5 -63,11.5 -127,11.5 -69,0 -131,-14.5 Q 150,1472 103,1443 56,1414 28,1370 0,1326 0,1267 q 0,-43 17.5,-88 17.5,-45 55,-83 37.5,-38 97,-65.5 Q 229,1003 312,995 316,917 341,844 366,771 410,711 454,651 516.5,607.5 579,564 657,545 661,471 697,398.5 733,326 800.5,269 868,212 968,177 q 100,-35 232,-35 112,0 219,35 107,35 191,108 84,73 135,186 51,113 51,269 0,110 -29,208 97,26 151.5,89 54.5,63 54.5,154 0,56 -22.5,102 -22.5,46 -63,78.5 -40.5,32.5 -96,50.5 -55.5,18 -121.5,18 -60,0 -121.5,-13 -61.5,-13 -126.5,-36 -89,54 -187.5,87.5 -98.5,33.5 -200.5,44.5 -26,54 -49,112 -23,58 -41,120 z m 61,-580 q 32,15 62.5,30.5 30.5,15.5 61.5,30.5 118,-149 249.5,-226.5 Q 1510,932 1638,932 q 27,0 54,3 12,-46 18.5,-94.5 Q 1717,792 1717,741 1717,594 1675,485.5 1633,377 1562.5,306 1492,235 1399,200 1306,165 1203,165 1080,165 984.5,197.5 889,230 823,283 757,336 721,403.5 685,471 680,540 q 21,-4 43.5,-6 22.5,-2 45.5,-2 62,0 123,15.5 61,15.5 110.5,48 49.5,32.5 83.5,84 34,51.5 43,123.5 72,-39 112.5,-110.5 Q 1282,621 1282,537 1282,442 1234.5,391.5 1187,341 1110,341 q -24,0 -45,6 -21,6 -36.5,15.5 -15.5,9.5 -24.5,21.5 -9,12 -9,23 0,9 4,14.5 4,5.5 8.5,11 4.5,5.5 8.5,11.5 4,6 4,16 0,17 -11.5,26.5 Q 997,496 983,496 967,496 956,482.5 945,469 945,445 q 0,-23 13.5,-45 13.5,-22 36,-39 22.5,-17 53,-27.5 30.5,-10.5 64.5,-10.5 39,0 79,13 40,13 73,40.5 33,27.5 54,69.5 21,42 21,100 0,49 -15.5,93 -15.5,44 -43,81 -27.5,37 -65.5,66 -38,29 -84,47 0,94 -32.5,177.5 Q 1066,1094 1005,1175 Z M 374,991 q 78,0 155,14 77,14 153,38 76,24 150.5,55.5 74.5,31.5 148.5,65.5 57,-72 90.5,-152.5 Q 1105,931 1105,843 1046,861 982,861 914,861 854.5,841 795,821 751,783.5 707,746 681.5,691.5 656,637 656,568 592,589 541.5,630.5 491,672 455,728.5 419,785 398.5,852 378,919 374,991 Z m -1,25 q 0,76 17.5,139 17.5,63 49,113.5 31.5,50.5 74.5,90 43,39.5 94,67.5 103,-38 195.5,-100.5 Q 896,1263 965,1183 894,1150 823,1119.5 752,1089 680.5,1065.5 609,1042 538.5,1028.5 468,1015 398,1015 h -12.5 q 0,0 -12.5,1 z m 190,425 Q 507,1411 460.5,1370 414,1329 381,1276.5 348,1224 329.5,1160.5 311,1097 311,1021 q -71,10 -117,34.5 -46,24.5 -73,58.5 -27,34 -38,73 -11,39 -11,77 0,51 21,90 21,39 59.5,64.5 38.5,25.5 93,38.5 54.5,13 120.5,13 98,0 197,-29 z m 1375,-236 q 0,-38 -15.5,-68.5 -15.5,-30.5 -42.5,-53.5 -27,-23 -62.5,-38.5 -35.5,-15.5 -75.5,-24.5 -45,112 -122,201.5 -77,89.5 -175,154.5 58,20 112,31.5 54,11.5 105,11.5 61,0 112,-16 51,-16 87.5,-44.5 36.5,-28.5 56.5,-68 20,-39.5 20,-85.5 z M 982,839 q 66,0 121,-23 -6,-71 -38,-121.5 Q 1033,644 986.5,612 940,580 884,565 828,550 772,550 q -50,0 -93,12 0,65 24.5,116.5 24.5,51.5 66,87 41.5,35.5 96.5,54.5 55,19 116,19 z m 652,169 q -109,0 -222,69 -113,69 -215,192 53,25 103,47.5 50,22.5 99,41.5 89,-65 158,-152.5 69,-87.5 111,-196.5 -9,0 -17.5,-0.5 -8.5,-0.5 -16.5,-0.5 z m -645,187 q -68,79 -158,142.5 -90,63.5 -193,104.5 73,35 154,51.5 81,16.5 168,16.5 35,-72 73,-135.5 38,-63.5 80,-119.5 z m 192,93 q -76,98 -137,216 88,-12 172,-45.5 84,-33.5 160,-84.5 -48,-19 -96.5,-40.5 Q 1231,1312 1181,1288 Z m -452,738 q 9,0 19.5,-7 10.5,-7 21,-18 10.5,-11 20.5,-24.5 10,-13.5 16,-27.5 3,-7 6.5,-18 3.5,-11 6.5,-22 3,-11 4.5,-21.5 1.5,-10.5 1.5,-16.5 0,-18 -7.5,-30 -7.5,-12 -28.5,-12 -18,0 -34,14 -16,14 -27.5,36 -11.5,22 -18,47.5 -6.5,25.5 -6.5,47.5 0,28 6,40 6,12 20,12 z"></path></svg>
