<?xml version="1.0" encoding="UTF-8" standalone="no"?>
<svg xmlns="http://www.w3.org/2000/svg" width="4558" height="2057"><path id="perthousand" unicode="&#x2030;" d="m 61,1992 q -2,2 -6,3.5 -4,1.5 -6,1.5 -5,0 -13,-3 -8,-3 -16,-7 -8,-4 -14,-8.5 -6,-4.5 -6,-7.5 0,-4 5,-7 l 591,-400 5,-2.5 q 0,0 7,-1.5 7,-1.5 12.5,3 5.5,4.5 17,7 11.5,2.5 14.5,8.5 3,6 6,7.5 0,4 -5,9 z M 11,1732 q 0,-22 10.5,-40.5 Q 32,1673 49,1659 q 17,-14 39.5,-22 22.5,-8 46.5,-8 19,0 38.5,7 19.5,7 34.5,20 15,13 24.5,30 9.5,17 9.5,38 0,27 -10.5,47 -10.5,20 -27.5,32.5 -17,12.5 -38.5,18.5 -21.5,6 -43.5,6 -18,0 -37.5,-5.5 -19.5,-5.5 -36,-17 Q 32,1794 21.5,1776 11,1758 11,1732 Z m 60,0 q 0,35 17,56 17,21 43,21 24,0 38,-24 14,-24 14,-61 0,-35 -17,-56 -17,-21 -40,-21 -26,0 -40.5,25 -14.5,25 -14.5,60 z m 151,229 q 0,-22 10.5,-40.5 10.5,-18.5 27.5,-32.5 17,-14 39.5,-22 22.5,-8 46.5,-8 19,0 38.5,7 19.5,7 34.5,20 15,13 24.5,30 9.5,17 9.5,38 0,27 -10.5,47 -10.5,20 -27.5,32.5 -17,12.5 -38.5,18.5 -21.5,6 -43.5,6 -18,0 -37.5,-5.5 -19.5,-5.5 -36,-17 Q 243,2023 232.5,2005 222,1987 222,1961 Z m 60,0 q 0,35 17,56 17,21 43,21 24,0 38,-24 14,-24 14,-61 0,-35 -17,-56 -17,-21 -40,-21 -26,0 -40.5,25 -14.5,25 -14.5,60 z m 189,0 q 0,-22 10.5,-40.5 10.5,-18.5 27.5,-32.5 17,-14 39.5,-22 22.5,-8 46.5,-8 19,0 38.5,7 19.5,7 34.5,20 15,13 24.5,30 9.5,17 9.5,38 0,27 -10.5,47 -10.5,20 -27.5,32.5 -17,12.5 -38.5,18.5 -21.5,6 -43.5,6 -18,0 -37.5,-5.5 -19.5,-5.5 -36,-17 Q 492,2023 481.5,2005 471,1987 471,1961 Z m 60,0 q 0,35 17,56 17,21 43,21 24,0 38,-24 14,-24 14,-61 0,-35 -17,-56 -17,-21 -40,-21 -26,0 -40.5,25 -14.5,25 -14.5,60 z"></path></svg>
