<?xml version="1.0" encoding="UTF-8" standalone="no"?>
<svg xmlns="http://www.w3.org/2000/svg" width="4558" height="2057"><path id="q" unicode="q" d="m 297,1634 q -9,17 -19.5,49.5 -10.5,32.5 -21.5,72.5 -11,42 -21,80 -10,38 -17.5,69 -7.5,31 -12,52.5 -4.5,21.5 -4.5,31.5 11,-3 19,-4.5 8,-1.5 13,-3.5 6,-1 10,-2 v 10 q -26,5 -45,16.5 -19,11.5 -32,23 -13,11.5 -21.5,20 -8.5,8.5 -12.5,8.5 -22,0 -22,-22 0,-12 5.5,-38.5 5.5,-26.5 14.5,-61.5 9,-35 20.5,-75 11.5,-40 24.5,-81 -16,20 -41.5,39 -25.5,19 -52.5,19 -35,0 -58,-20.5 Q 0,1796 0,1761 q 0,-36 16.5,-67 16.5,-31 41,-54.5 24.5,-23.5 53.5,-37 29,-13.5 54,-13.5 29,0 44,13 15,13 17,33 5,-15 18,-25 13,-10 39,-14 12,-2 21,-4.5 9,-2.5 15,-5.5 7,-4 12,-7 l 6,11 q -7,5 -14,11 -6,5 -13,13.5 -7,8.5 -13,19.5 z m -182,172 q 17,0 39,-22 22,-22 36,-51 3,-7 7,-19 4,-12 7,-24.5 3,-12.5 5,-23.5 2,-11 2,-17 0,-18 -8.5,-30 -8.5,-12 -27.5,-12 -18,0 -34,14 -16,14 -27.5,36 -11.5,22 -18,47.5 -6.5,25.5 -6.5,47.5 0,54 26,54 z"></path></svg>
