<?xml version="1.0" encoding="UTF-8" standalone="no"?>
<svg xmlns="http://www.w3.org/2000/svg" width="4558" height="2057"><path id="question" unicode="?" d="m 139,1531 q -20,0 -36.5,7 -16.5,7 -28.5,17.5 -12,10.5 -18.5,22.5 -6.5,12 -6.5,22 0,10 5.5,14.5 5.5,4.5 11.5,9 6,4.5 11.5,10.5 5.5,6 5.5,18 0,14 -9,23 -9,9 -23,9 -19,0 -30.5,-14.5 Q 9,1655 9,1634 q 0,-26 13,-49.5 13,-23.5 35,-41 22,-17.5 51.5,-28 29.5,-10.5 61.5,-10.5 22,0 46.5,6 24.5,6 44.5,19 20,13 33,34.5 13,21.5 13,51.5 0,38 -18.5,66 -18.5,28 -46.5,50 -28,22 -60.5,39.5 -32.5,17.5 -60.5,34 -28,16.5 -46.5,33.5 -18.5,17 -18.5,38 0,7 3,12.5 3,5.5 7,10 4,4.5 7,9.5 3,5 3,11 0,11 -13.5,22 -13.5,11 -25.5,11 -11,0 -16,-10 -5,-10 -5,-24 0,-30 14.5,-57 14.5,-27 37,-52 22.5,-25 48,-49 25.5,-24 48,-49.5 22.5,-25.5 37,-52.5 14.5,-27 14.5,-58 0,-70 -76,-70 z M 0,2030 q 0,-8 3.5,-18 3.5,-10 10,-19 6.5,-9 15,-15 8.5,-6 19.5,-6 11,0 17,7 6,7 6,18 0,9 -3,19.5 -3,10.5 -8.5,19.5 -5.5,9 -14,15 -8.5,6 -20.5,6 -11,0 -18,-8 -7,-8 -7,-19 z"></path></svg>
