<?xml version="1.0" encoding="UTF-8" standalone="no"?>
<svg xmlns="http://www.w3.org/2000/svg" width="4558" height="2057"><path id="S" unicode="S" d="m 173,2015 q 36,0 65.5,-13.5 29.5,-13.5 50.5,-37.5 21,-24 32.5,-56 11.5,-32 11.5,-68 0,-58 -16.5,-99.5 -16.5,-41.5 -36,-78 -19.5,-36.5 -35.5,-74 -16,-37.5 -16,-88.5 0,-39 19,-72 19,-33 47.5,-57 28.5,-24 62.5,-37 34,-13 64,-13 56,0 89.5,26.5 33.5,26.5 33.5,74.5 0,15 -3,30 -3,15 -9.5,27 -6.5,12 -16,19 -9.5,7 -22.5,7 -13,0 -22,-8.5 -9,-8.5 -9,-22.5 0,-15 7.5,-23 7.5,-8 17,-14.5 9.5,-6.5 17,-15 7.5,-8.5 7.5,-23.5 0,-10 -6,-20 -6,-10 -16.5,-17.5 -10.5,-7.5 -24,-12.5 -13.5,-5 -28.5,-5 -49,0 -76.5,32 -27.5,32 -27.5,85 0,50 17.5,88.5 17.5,38.5 39,77.5 21.5,39 39,85 17.5,46 17.5,110 0,56 -23,100 -23,44 -59,74 -36,30 -80.5,46 -44.5,16 -88.5,16 -45,0 -81,-13.5 Q 78,2030 52.5,2006.5 27,1983 13.5,1952.5 0,1922 0,1888 0,1855 12.5,1826.5 25,1798 46,1777 q 21,-21 49,-33 28,-12 58,-12 38,0 63,17.5 25,17.5 25,39.5 0,13 -7.5,21.5 -7.5,8.5 -21.5,8.5 -17,0 -23,-12 -6,-12 -6,-27 0,-11 -6,-21.5 -6,-10.5 -33,-10.5 -22,0 -43,11 -21,11 -37.5,29 -16.5,18 -26.5,42 -10,24 -10,49 0,32 11.5,57 11.5,25 31.5,42.5 20,17.5 46.5,27 26.5,9.5 56.5,9.5 z"></path></svg>
