<?xml version="1.0" encoding="UTF-8" standalone="no"?>
<svg xmlns="http://www.w3.org/2000/svg" width="4558" height="2057"><path id="section" unicode="&#xA7;" d="m 123,1640 q -7,11 -13,26.5 -6,15.5 -6,40.5 0,29 14,57.5 14,28.5 31,57 17,28.5 31,56 14,27.5 14,54.5 0,11 -0.5,18 -0.5,7 -0.5,11 -1,5 -1,7 6,-8 10,-19 4,-10 7,-24 3,-14 3,-34 0,-30 -14.5,-57.5 Q 183,1806 165,1780.5 147,1755 132.5,1729.5 118,1704 118,1677 q 0,-14 2,-23 2,-9 3,-14 z m -26,392 q 17,0 28.5,-11.5 11.5,-11.5 11.5,-35.5 0,-28 -9,-49.5 -9,-21.5 -23,-40 -14,-18.5 -30,-36 -16,-17.5 -30,-37 -14,-19.5 -23,-43 -9,-23.5 -9,-54.5 0,-39 18.5,-71 18.5,-32 47.5,-54.5 29,-22.5 63.5,-35 34.5,-12.5 67.5,-12.5 14,0 30,3.5 16,3.5 29.5,12 13.5,8.5 22.5,22 9,13.5 9,34.5 0,19 -14.5,31 -14.5,12 -24.5,12 -8,0 -13,-5 -5,-5 -5,-11 0,-5 3.5,-15.5 3.5,-10.5 3.5,-26.5 0,-14 -10,-23 -10,-9 -27,-9 -8,0 -16.5,5 -8.5,5 -16,12.5 -7.5,7.5 -12,18 -4.5,10.5 -4.5,20.5 0,29 20,53.5 20,24.5 44.5,50.5 24.5,26 44.5,56 20,30 20,70 0,32 -14.5,66 -14.5,34 -40.5,62.5 -26,28.5 -61.5,47 Q 142,2057 100,2057 81,2057 63,2052 45,2047 31,2037 17,2027 8.5,2011 0,1995 0,1974 0,1953 14.5,1942.5 29,1932 39,1932 q 18,0 18,16 0,7 -3.5,16.5 -3.5,9.5 -3.5,27.5 0,17 12,28.5 12,11.5 35,11.5 z"></path></svg>
