<?xml version="1.0" encoding="UTF-8" standalone="no"?>
<svg xmlns="http://www.w3.org/2000/svg" width="4558" height="2057"><path id="six" unicode="6" d="m 265,1542 q 19,0 36.5,4.5 17.5,4.5 31,14 13.5,9.5 21.5,23.5 8,14 8,32 0,32 -11,48.5 -11,16.5 -31,16.5 -13,0 -22.5,-9 -9.5,-9 -9.5,-23 0,-11 5.5,-18 5.5,-7 12,-12.5 6.5,-5.5 12,-11 5.5,-5.5 5.5,-14.5 0,-17 -15.5,-26 -15.5,-9 -34.5,-9 -35,0 -65,22.5 -30,22.5 -53,61.5 -23,39 -37.5,91 -14.5,52 -18.5,110 9,-16 23.5,-32.5 14.5,-16.5 33,-29.5 18.5,-13 40,-21.5 21.5,-8.5 45.5,-8.5 19,0 39.5,6 20.5,6 38,19 17.5,13 28.5,33 11,20 11,47 0,38 -16,74 -16,36 -44,64 -28,28 -65,45.5 -37,17.5 -79,17.5 -24,0 -51,-8 -27,-8 -50,-27.5 Q 30,2002 15,1968.5 0,1935 0,1884 0,1811 24,1748.5 48,1686 86,1640 q 38,-46 85,-72 47,-26 94,-26 z m -108,500 q 30,0 50.5,-20.5 20.5,-20.5 33.5,-49.5 13,-29 19,-62 6,-33 6,-58 0,-32 -9.5,-53 -9.5,-21 -40.5,-21 -16,0 -36.5,10 -20.5,10 -38.5,30.5 -18,20.5 -30.5,51.5 -12.5,31 -12.5,73 0,39 14,69 14,30 45,30 z"></path></svg>
