<?xml version="1.0" encoding="UTF-8" standalone="no"?>
<svg xmlns="http://www.w3.org/2000/svg" width="4558" height="2057"><path id="sterling" unicode="&#xA3;" d="m 155,1840 q -2,34 -3,57 -1,23 -4,39 -3,16 -8,26.5 -5,10.5 -14,19.5 16,0 27,3.5 11,3.5 21.5,7 10.5,3.5 21.5,7 11,3.5 28,3.5 16,0 33.5,-2.5 17.5,-2.5 33.5,-14.5 7,-6 11,-6 7,0 7,8 0,4 -6,12 -6,8 -14,16 l -12,12 q 0,0 -17,13.5 -17,13.5 -22.5,11 -5.5,-2.5 -26.5,4.5 -20,0 -37,-3.5 -17,-3.5 -32,-7 -15,-3.5 -29.5,-7 Q 98,2036 83,2036 q -14,0 -31,8 -17,8 -26,8 -9,0 -17.5,-11.5 Q 0,2029 0,2022 q 0,-3 3,-5.5 3,-2.5 8.5,-6.5 5.5,-4 13.5,-10.5 8,-6.5 19,-18.5 8,-9 11.5,-19.5 3.5,-10.5 5,-26.5 1.5,-16 2,-39 0.5,-23 1.5,-56 H 21 q -7,0 -7,-9 0,-4 1,-10.5 1,-6.5 3.5,-13.5 2.5,-7 5,-12 2.5,-5 5.5,-5 h 37 q 1,-14 1,-27 v -30 q 0,-48 12.5,-81.5 Q 92,1618 113,1598 q 21,-20 47.5,-29 26.5,-9 54.5,-9 36,0 61,18.5 25,18.5 25,50.5 0,15 -15.5,24 -15.5,9 -24.5,9 -12,0 -12,-9 0,-5 5,-12.5 5,-7.5 5,-21.5 0,-17 -7.5,-29.5 Q 244,1577 225,1577 q -17,0 -30,8.5 -13,8.5 -21.5,32 -8.5,23.5 -12.5,65 -4,41.5 -4,107.5 h 60 q 12,0 12,10 0,4 -2,11 -2,7 -5,13.5 -3,6.5 -6,11 -3,4.5 -6,4.5 z"></path></svg>
