<?xml version="1.0" encoding="UTF-8" standalone="no"?>
<svg xmlns="http://www.w3.org/2000/svg" width="4558" height="2057"><path id="summation" unicode="&#x2211;" d="m 333,2014 q 5,0 7.5,6.5 2.5,6.5 2.5,14.5 0,7 -2.5,14.5 -2.5,7.5 -7.5,7.5 H 12 q -5,0 -8.5,-6.5 Q 0,2044 0,2037 q 0,-4 1,-6 1,-2 2,-3 L 189,1812 9,1605 q -3,-5 -6,-9.5 -3,-4.5 -3,-9.5 0,-7 4,-13.5 4,-6.5 11,-6.5 h 318 q 5,0 7.5,7.5 2.5,7.5 2.5,14.5 0,8 -2.5,16 -2.5,8 -7.5,8 H 84 l 159,184 q 8,6 8,16 0,5 -3,9 -3,4 -5,6 L 83,2014 Z"></path></svg>
