<?xml version="1.0" encoding="UTF-8" standalone="no"?>
<svg xmlns="http://www.w3.org/2000/svg" width="4558" height="2057"><path id="Thorn" unicode="&#xDE;" d="m 148,1870 q -5,17 -12.5,43 l -15,52 q 0,0 -13,47 -13,47 -5.5,26 0,15 -14,15 -8,0 -21,-2 -13,-2 -26,-2 -14,0 -24,4 -10,4 -13,4 -4,0 -4,-4 0,-3 6,-9 6,-6 12,-18 12,-21 20,-50 8,-29 20,-74 10,-37 20.5,-76.5 10.5,-39.5 19.5,-74 9,-34.5 15.5,-59.5 6.5,-25 9.5,-34 7,-22 18.5,-35.5 11.5,-13.5 25.5,-22.5 -3,1 -7,1 h -7 q -7,0 -12,-1 l -10,-2 q 0,0 -9,-2 l 9,-12 8,2 q 10,2 21,2 17,0 43,-4.5 26,-4.5 58,-18.5 l 5,9 q -7,4 -14,11 -6,6 -13,15.5 -7,9.5 -14,22.5 -13,22 -31,80 23,-23 51.5,-36.5 28.5,-13.5 52.5,-13.5 28,0 50,16 22,16 22,51 0,38 -14.5,71 -14.5,33 -37,57 -22.5,24 -50,38 -27.5,14 -52.5,14 -27,0 -42.5,-8.5 Q 158,1883 148,1870 Z m 114,-188 q -20,0 -43,20 -23,20 -37,50 -3,7 -7.5,18.5 -4.5,11.5 -8.5,23.5 -4,12 -6.5,22.5 -2.5,10.5 -2.5,16.5 0,25 12.5,33.5 12.5,8.5 23.5,8.5 16,0 32,-12.5 16,-12.5 29,-33.5 13,-21 21,-49 8,-28 8,-60 0,-21 -5.5,-29.5 Q 272,1682 262,1682 Z"></path></svg>
