<?xml version="1.0" encoding="UTF-8" standalone="no"?>
<svg xmlns="http://www.w3.org/2000/svg" width="4558" height="2057"><path id="threequarters" unicode="&#xBE;" d="m 118,1594 q -4,3 -8,5 -8,5 -20,5 -12,0 -17.5,-5 -5.5,-5 -5.5,-12 0,-7 5.5,-12.5 5.5,-5.5 16.5,-5.5 5,0 9.5,1 4.5,1 9.5,3 l 10,4 q 31,-5 53,-33 22,-28 22,-66 0,-26 -12.5,-39 -12.5,-13 -32.5,-13 -26,0 -43,13 -17,13 -17,27 0,8 4,11.5 4,3.5 9,6.5 5,3 9,7.5 4,4.5 4,13.5 0,10 -6.5,16.5 -6.5,6.5 -17.5,6.5 -13,0 -22,-10 -9,-10 -9,-27 0,-17 8.5,-31.5 8.5,-14.5 23,-25.5 14.5,-11 34,-17.5 19.5,-6.5 40.5,-6.5 18,0 35.5,4 17.5,4 31.5,12.5 14,8.5 23,21.5 9,13 9,31 0,22 -13,40.5 -13,18.5 -32,32 -19,13.5 -40.5,21.5 -21.5,8 -37.5,11 12,2 29,8.5 17,6.5 32.5,18.5 15.5,12 27,30 11.5,18 11.5,42 0,28 -12,49 -12,21 -31,35.5 -19,14.5 -41.5,21.5 -22.5,7 -43.5,7 -50,0 -76,-22.5 Q 11,1751 0,1722 l 10,-6 q 6,11 24.5,26.5 18.5,15.5 48.5,15.5 39,0 61.5,-25.5 22.5,-25.5 22.5,-60.5 0,-32 -11,-51.5 -11,-19.5 -38,-26.5 z m 32,457 q -4,6 -12,6 -12,0 -23,-0.5 -11,-0.5 -11,-3.5 0,-2 1,-4 1,-2 2,-5 l 245,-510 q 2,-5 5.5,-6 3.5,-1 6.5,-1 11,0 22.5,0.5 11.5,0.5 11.5,3.5 0,7 -3,11 z m 344,-158 q -8,33 -14,61 -5,24 -9.5,46 -4.5,22 -4.5,29 0,5 -1.5,7.5 -1.5,2.5 -9.5,2.5 -5,0 -14,-2 -9,-2 -17.5,-5.5 -8.5,-3.5 -15,-7.5 -6.5,-4 -6.5,-8 0,-6 1,-13.5 1,-7.5 4,-18.5 2,-9 5.5,-22 3.5,-13 6.5,-25 4,-14 8,-30 -20,-1 -37,-4 -17,-3 -32.5,-7 -15.5,-4 -30.5,-7 -15,-3 -31,-3 -14,0 -19.5,3.5 -5.5,3.5 -8.5,3.5 -4,0 -12.5,-10 -8.5,-10 -8.5,-15 0,-6 13,-16 13,-10 33,-27 38,-32 58,-73 20,-41 20,-85 0,-11 11,-11 4,0 10.5,4 6.5,4 12.5,9 6,5 10.5,11 4.5,6 4.5,10 0,17 -11,35 -11,18 -27.5,36.5 -16.5,18.5 -36.5,36.5 -20,18 -39,34 22,0 38,3 16,3 31,7 15,4 29.5,7 14.5,3 33.5,3 10,-42 17.5,-72 7.5,-30 12.5,-51 5,-21 8.5,-34.5 3.5,-13.5 5.5,-22.5 2,-9 4.5,-12 2.5,-3 11.5,-3 5,0 12.5,3 7.5,3 14.5,6.5 7,3.5 12,8 5,4.5 5,7.5 0,3 -1,6.5 -1,3.5 -2,8.5 -6,23 -12.5,49.5 Q 520,1773 515,1797 l -12,56 q 1,0 3,-1 2,-1 8,-5 5,-4 8,-6.5 3,-2.5 5,-2.5 4,0 4,3 0,7 -7,18 -5,8 -13.5,18.5 Q 502,1888 494,1893 Z"></path></svg>
