<?xml version="1.0" encoding="UTF-8" standalone="no"?>
<svg xmlns="http://www.w3.org/2000/svg" width="4558" height="2057"><path id="three" unicode="3" d="m 160,1783 q -4,4 -10,7 -12,7 -28,7 -17,0 -24.5,-7 -7.5,-7 -7.5,-16 0,-10 7.5,-17.5 7.5,-7.5 22.5,-7.5 7,0 14,2 7,2 13,4 7,3 13,5 21,-4 39,-15.5 18,-11.5 32,-29.5 14,-18 22,-40.5 8,-22.5 8,-48.5 0,-35 -17.5,-52.5 Q 226,1556 200,1556 q -35,0 -58,17 -23,17 -23,37 0,10 5.5,15 5.5,5 12,9 6.5,4 12,10 5.5,6 5.5,18 0,14 -9,23 -9,9 -23,9 -18,0 -30,-13.5 -12,-13.5 -12,-36.5 0,-23 11.5,-43 11.5,-20 31,-35 19.5,-15 45.5,-23.5 26,-8.5 55,-8.5 24,0 48,5.5 24,5.5 43.5,17 19.5,11.5 31.5,29 12,17.5 12,41.5 0,30 -18,54.5 -18,24.5 -43.5,43 -25.5,18.5 -54.5,30 -29,11.5 -51,15.5 15,3 38,11.5 23,8.5 44.5,25 21.5,16.5 37,40.5 15.5,24 15.5,57 0,38 -16.5,66.5 -16.5,28.5 -42,47.5 -25.5,19 -56.5,29 -31,10 -59,10 -34,0 -59,-8 -25,-8 -43,-22 Q 32,2013 19.5,1994.5 7,1976 0,1956 l 13,-8 q 4,8 12.5,18 8.5,10 20.5,19 12,9 28.5,15 16.5,6 37.5,6 26,0 47,-9.5 21,-9.5 36,-25.5 15,-16 23,-37 8,-21 8,-45 0,-45 -15,-71 -15,-26 -51,-35 z"></path></svg>
