<?xml version="1.0" encoding="UTF-8" standalone="no"?>
<svg xmlns="http://www.w3.org/2000/svg" width="4558" height="2057"><path id="two" unicode="2" d="m 332,1966 q -12,18 -24.5,34 -12.5,16 -27,29 -14.5,13 -31,20.5 -16.5,7.5 -35.5,7.5 -42,0 -83,-7.5 -41,-7.5 -72,-7.5 -8,0 -17,5 -9,5 -19,5 -9,0 -16,-9.5 Q 0,2033 0,2026 0,2018 13.5,2007.5 27,1997 55,1976 q 38,-29 80,-65.5 42,-36.5 77.5,-78.5 35.5,-42 58.5,-87 23,-45 23,-92 0,-47 -20,-68 -20,-21 -56,-21 -20,0 -36.5,7 -16.5,7 -28.5,17.5 -12,10.5 -19,22.5 -7,12 -7,22 0,9 5.5,14.5 5.5,5.5 12.5,10 7,4.5 12.5,11 5.5,6.5 5.5,16.5 0,14 -9,23.5 -9,9.5 -24,9.5 -20,0 -31.5,-14.5 Q 87,1689 87,1667 q 0,-26 13,-49.5 13,-23.5 35.5,-41 22.5,-17.5 52,-28 29.5,-10.5 61.5,-10.5 28,0 52.5,7.5 24.5,7.5 43,22.5 18.5,15 29,37.5 10.5,22.5 10.5,51.5 0,53 -31,98.5 -31,45.5 -76,85 -45,39.5 -95,72.5 -50,33 -87,61 38,0 75.5,7 37.5,7 70.5,7 27,0 48.5,-9 21.5,-9 34.5,-21 z"></path></svg>
