<?xml version="1.0" encoding="UTF-8" standalone="no"?>
<svg xmlns="http://www.w3.org/2000/svg" width="4558" height="2057"><path id="ugrave" unicode="&#xF9;" d="m 114,1658 q 8,0 15,11 8,12 19.5,27.5 11.5,15.5 25.5,30.5 14,15 28.5,27 14.5,12 28.5,16 6,1 6,8 0,9 -10,9 -10,0 -24.5,-3.5 -14.5,-3.5 -30,-10 -15.5,-6.5 -31.5,-16 -16,-9.5 -30,-21.5 -23,-20 -23,-38 0,-12 9,-26 9,-14 17,-14 z m 110,399 q -20,0 -35.5,-11 -15.5,-11 -15.5,-31 0,-14 2,-24 1,-4 3,-8 -28,31 -60,52.5 Q 86,2057 57,2057 35,2057 17.5,2045.5 0,2034 0,2006 q 0,-16 8.5,-35 8.5,-19 18.5,-38 10,-19 18.5,-37 8.5,-18 8.5,-33 0,-10 -9,-10 -4,0 -10,4 -6,4 -12,9 -7,6 -16,13 l -7,-9 q 6,-5 17.5,-15 11.5,-10 25.5,-19.5 14,-9.5 28,-16.5 14,-7 26,-7 21,0 32,9 11,9 11,24 0,15 -8,35 -8,20 -17,41 -9,21 -17,42 -8,21 -8,38 0,16 15,16 11,0 27.5,-11 16.5,-11 44.5,-44 6,-7 10.5,-19.5 4.5,-12.5 9,-26 4.5,-13.5 8,-27 3.5,-13.5 8.5,-22.5 9,-21 28,-33.5 19,-12.5 40,-15.5 15,-2 25,-4.5 10,-2.5 16,-5.5 7,-4 11,-7 l 7,11 q -7,5 -14,11 -6,5 -13.5,13.5 -7.5,8.5 -12.5,19.5 -7,14 -14.5,34.5 -7.5,20.5 -13.5,41.5 -6,21 -9.5,41 -3.5,20 -3.5,33 0,11 7,11 7,0 15,-4.5 8,-4.5 16,-10.5 9,-6 17,-15 l 7,8 q -15,18 -32,31 -14,12 -31,21.5 -17,9.5 -34,9.5 z"></path></svg>
