<?xml version="1.0" encoding="UTF-8" standalone="no"?>
<svg xmlns="http://www.w3.org/2000/svg" width="4558" height="2057"><path id="uni0219" unicode="&#x219;" d="m 47,1974 q 0,-6 1.5,-13 1.5,-7 5,-13.5 3.5,-6.5 9.5,-11 6,-4.5 16,-4.5 15,0 24,11 9,11 9,25 0,12 -7,27 -7,15 -18,29 -11,14 -24,23.5 -13,9.5 -24,9.5 -9,0 -9,-6 0,-5 6,-9 7,-5 17.5,-14.5 Q 64,2018 66,1998 56,1998 51.5,1990.5 47,1983 47,1974 Z m 44,-64 Q 53,1910 26.5,1892.5 0,1875 0,1845 0,1825 13.5,1813.5 27,1802 44,1802 q 12,0 20.5,8 8.5,8 8.5,21 0,8 -2.5,13 -2.5,5 -6,9 -3.5,4 -6,8.5 -2.5,4.5 -2.5,10.5 0,9 6.5,16 6.5,7 20.5,7 21,0 30,-14 9,-14 9,-32 0,-19 -12.5,-32 Q 97,1804 82,1792.5 67,1781 54.5,1767.5 42,1754 42,1733 q 0,-19 11,-33 11,-14 28,-23 17,-9 37,-13.5 20,-4.5 37,-4.5 31,0 50,14 19,14 19,36 0,20 -11,30.5 -11,10.5 -26,10.5 -14,0 -22.5,-7 -8.5,-7 -8.5,-18 0,-14 6.5,-20.5 6.5,-6.5 6.5,-17.5 0,-15 -15,-15 -14,0 -25,10 -11,10 -11,25 0,22 13.5,36.5 13.5,14.5 30,27 16.5,12.5 30,26 13.5,13.5 13.5,33.5 0,18 -10,33 -10,15 -26,25.5 -16,10.5 -36.5,16 Q 112,1910 91,1910 Z"></path></svg>
