<?xml version="1.0" encoding="UTF-8" standalone="no"?>
<svg xmlns="http://www.w3.org/2000/svg" width="4558" height="2057"><path id="w" unicode="w" d="m 296,1856 q -14,29 -26,65.5 -12,36.5 -12,67.5 0,27 21,27 18,0 33.5,-11.5 15.5,-11.5 26.5,-28.5 11,-17 17.5,-36.5 6.5,-19.5 6.5,-36.5 0,-12 -3,-18.5 -3,-6.5 -6,-11.5 -3,-5 -6,-11.5 -3,-6.5 -3,-17.5 0,-12 10.5,-22 10.5,-10 28.5,-10 20,0 29.5,12 9.5,12 9.5,32 0,31 -18,66.5 -18,35.5 -45.5,65.5 -27.5,30 -59,49.5 -31.5,19.5 -58.5,19.5 -34,0 -54,-11.5 -20,-11.5 -23,-38.5 -28,26 -55,38 -27,12 -53,12 -22,0 -39.5,-11.5 Q 0,2034 0,2007 0,1991 8.5,1971.5 17,1952 27,1933 q 10,-19 18.5,-37 8.5,-18 8.5,-33 0,-3 -1,-6.5 -1,-3.5 -8,-3.5 -4,0 -10.5,4 -6.5,4 -12.5,9 -7,6 -15,13 l -7,-9 q 6,-6 17.5,-15.5 11.5,-9.5 25,-19 13.5,-9.5 28,-16.5 14.5,-7 26.5,-7 20,0 31,9 11,9 11,24 0,15 -8,34.5 -8,19.5 -17,40.5 -9,21 -17,41 -8,20 -8,35 0,13 6.5,18.5 6.5,5.5 15.5,5.5 8,0 19,-4.5 11,-4.5 28,-23.5 5,-6 10,-18.5 5,-12.5 10,-27.5 5,-15 9,-31 4,-16 8,-29 6,-23 14.5,-38.5 8.5,-15.5 19.5,-15.5 29,0 47.5,-6.5 18.5,-6.5 28.5,-6.5 8,0 8,8 0,4 -7,14 -7,10 -10,15 z"></path></svg>
