<?xml version="1.0" encoding="UTF-8" standalone="no"?>
<svg xmlns="http://www.w3.org/2000/svg" width="4558" height="2057"><path id="X" unicode="X" d="m 87,1565 q 0,26 6.5,49 6.5,23 19,40 12.5,17 32.5,27 20,10 47,10 40,0 64.5,-23 24.5,-23 24.5,-54 0,-9 -3,-14.5 -3,-5.5 -6.5,-10 -3.5,-4.5 -6.5,-9.5 -3,-5 -3,-13 0,-12 8,-22.5 8,-10.5 24,-10.5 17,0 25.5,11.5 8.5,11.5 8.5,29.5 0,28 -11.5,52.5 -11.5,24.5 -31,42.5 -19.5,18 -45.5,28.5 -26,10.5 -54,10.5 -33,0 -64,-10 Q 91,1689 67,1669.5 43,1650 28.5,1622.5 14,1595 14,1559 q 0,-60 27.5,-104.5 27.5,-44.5 71,-74 43.5,-29.5 97,-44 Q 263,1322 315,1322 q 53,0 93.5,18 40.5,18 68,50 27.5,32 41.5,76 14,44 15,97 46,-64 88,-114 42,-50 82,-84 55,-46 111,-46 21,0 37.5,9 16.5,9 16.5,26 0,14 -9,26 -9,12 -28,12 -10,0 -16,-3.5 -6,-3.5 -11.5,-7.5 -5.5,-4 -11,-7.5 -5.5,-3.5 -14.5,-3.5 -17,0 -32.5,4.5 -15.5,4.5 -35.5,19.5 -42,32 -84.5,85.5 Q 583,1533 534,1602 q 0,87 4,145 4,58 11.5,93 7.5,35 18,49.5 10.5,14.5 24.5,14.5 15,0 30,-7 15,-7 27,-16 14,-11 27,-24 l 7,12 q -19,22 -40,39 -18,15 -41.5,27 -23.5,12 -48.5,12 -42,0 -67,-11.5 -25,-11.5 -38,-31 -13,-19.5 -17,-45.5 -4,-26 -4,-56 0,-18 1,-30.5 1,-12.5 3,-30.5 -23,31 -50.5,66.5 -27.5,35.5 -58,70.5 -30.5,35 -63,67 -32.5,32 -65.5,57 -33,25 -66,39.5 -33,14.5 -64,14.5 -27,0 -45.5,-9 Q 0,2039 0,2020 0,2002 11.5,1989.5 23,1977 42,1977 q 9,0 15,2.5 6,2.5 12.5,5.5 6.5,3 14.5,5.5 8,2.5 20,2.5 38,0 79.5,-25.5 41.5,-25.5 83.5,-66.5 42,-41 84,-93 42,-52 81,-105 1,-29 1,-59 v -53 q 0,-47 -4,-91 -4,-44 -20,-78 -16,-34 -48,-54.5 -32,-20.5 -88,-20.5 -30,0 -63,14.5 -33,14.5 -60,42.5 -27,28 -45,68.5 -18,40.5 -18,92.5 z"></path></svg>
