<?xml version="1.0" encoding="UTF-8" standalone="no"?>
<svg xmlns="http://www.w3.org/2000/svg" width="4558" height="2057"><path id="Ydieresis" unicode="&#x178;" d="m 437,1537 q 0,46 14.5,65 14.5,19 46.5,19 17,0 40,-13.5 23,-13.5 47,-36 24,-22.5 45.5,-52.5 21.5,-30 35.5,-62 14,-31 25.5,-61 11.5,-30 22.5,-61 11,-31 22.5,-65 11.5,-34 25.5,-74 4,-11 11,-27 7,-16 17,-30.5 10,-14.5 22.5,-25.5 12.5,-11 28.5,-13 17,-2 30,-5.5 13,-3.5 23,-8.5 11,-5 20,-11 l 5,9 q -7,6 -15,16 -7,8 -15,20 -8,12 -17,29 -9,18 -23.5,56 -14.5,38 -31.5,90 -17,52 -35.5,115 -18.5,63 -36.5,130 -12,46 -25.5,102 -13.5,56 -32.5,113.5 -19,57.5 -44,112 -25,54.5 -60,96.5 -35,42 -82.5,67.5 Q 453,2057 391,2057 q -51,0 -91.5,-15 -40.5,-15 -69,-41 -28.5,-26 -43.5,-60.5 -15,-34.5 -15,-72.5 0,-46 18,-80.5 18,-34.5 45,-57.5 27,-23 59,-34.5 32,-11.5 61,-11.5 42,0 70,16.5 28,16.5 28,42.5 0,14 -8,23.5 -8,9.5 -23,9.5 -20,0 -26.5,-14 -6.5,-14 -6.5,-30 0,-11 -8,-20 -8,-9 -34,-9 -21,0 -46.5,9.5 -25.5,9.5 -47,28.5 -21.5,19 -36.5,48 -15,29 -15,68 0,68 44,103.5 44,35.5 111,35.5 42,0 78,-24 36,-24 65.5,-63 29.5,-39 53.5,-89.5 24,-50.5 43.5,-104 19.5,-53.5 34,-105 14.5,-51.5 25.5,-93.5 -17,24 -38,49 -21,25 -46,45 -25,20 -52.5,32.5 -27.5,12.5 -57.5,12.5 -21,0 -43.5,-6 -22.5,-6 -41,-19.5 -18.5,-13.5 -30.5,-36 -12,-22.5 -12,-55.5 0,-56 20,-133.5 20,-77.5 46,-160.5 12,-38 36,-71 24,-33 68,-60 -15,-2 -30,-5 -13,-2 -28,-4 -15,-2 -29,-2 -69,0 -131.5,17.5 -62.5,17.5 -110.5,53 -48,35.5 -76.5,88.5 -28.5,53 -28.5,124 0,52 22.5,84 22.5,32 75.5,32 40,0 63,-22 23,-22 23,-52 0,-9 -3,-14.5 -3,-5.5 -6.5,-10 -3.5,-4.5 -6.5,-10 -3,-5.5 -3,-13.5 0,-12 7.5,-22 7.5,-10 24.5,-10 17,0 25,12 8,12 8,29 0,28 -11,52 -11,24 -30,42 -19,18 -44,28 -25,10 -53,10 -32,0 -61.5,-8.5 -29.5,-8.5 -52,-26 Q 28,1469 14,1442.5 0,1416 0,1380 q 0,-75 36.5,-130.5 36.5,-55.5 94,-92 57.5,-36.5 128.5,-55 71,-18.5 139,-18.5 27,0 46,1 19,1 33.5,2.5 14.5,1.5 25.5,2.5 11,1 22,1 18,0 37,-3 19,-3 35,-11 l 5,10 q -21,11 -38,31.5 -17,20.5 -30,45.5 -13,25 -22.5,52 -9.5,27 -16.5,50 -23,82 -40.5,151 -17.5,69 -17.5,120 z m 211,-495 q 0,-16 11.5,-32.5 Q 671,993 689,993 q 14,0 21,11 7,11 7,25 0,20 -13.5,33.5 -13.5,13.5 -27.5,13.5 -14,0 -21,-10 -7,-10 -7,-24 z m 99,0 q 0,-16 11.5,-32.5 Q 770,993 788,993 q 14,0 21,11 7,11 7,25 0,20 -13.5,33.5 -13.5,13.5 -27.5,13.5 -14,0 -21,-10 -7,-10 -7,-24 z"></path></svg>
