<?xml version="1.0" encoding="UTF-8" standalone="no"?>
<svg xmlns="http://www.w3.org/2000/svg" width="4558" height="2057"><path id="yen" unicode="&#xA5;" d="m 119,2057 q -11,0 -18,-3 -7,-3 -11,-7 -4,-4 -7,-11 l 25,-115 H 11 q -3,-1 -6,-4 -5,-5 -5,-17 0,-11 8,-17 4,-3 9,-5 h 96 l 6,-40 H 26 q -3,-2 -5,-6 -4,-8 -4,-17 0,-10 8,-16 4,-3 8,-4 h 78 L 43,1588 q 0,-6 4,-10 3,-4 9.5,-7 6.5,-3 17.5,-3 11,0 19,3 8,3 13,7 6,4 10,9 l 56,176 124,-176 q 6,-6 13,-10 6,-4 14.5,-7 8.5,-3 18.5,-3 11,0 17.5,3.5 6.5,3.5 9.5,7.5 4,4 3,10 l -153,207 h 76 q 3,1 7,4 8,6 8,16 0,7 -3.5,11.5 -3.5,4.5 -8.5,6.5 -5,3 -11,4 h -95 l -8,41 h 95 q 3,1 7,4 8,6 8,14 0,8 -3.5,12.5 -3.5,4.5 -7.5,7.5 -5,4 -11,5 h -97 l -24,115 q -3,7 -7,11 -4,4 -10,7 -6,3 -15,3 z"></path></svg>
