<?xml version="1.0" encoding="UTF-8" standalone="no"?>
<!-- Created with Inkscape (http://www.inkscape.org/) -->

<svg
   xmlns:dc="http://purl.org/dc/elements/1.1/"
   xmlns:cc="http://creativecommons.org/ns#"
   xmlns:rdf="http://www.w3.org/1999/02/22-rdf-syntax-ns#"
   xmlns:svg="http://www.w3.org/2000/svg"
   xmlns="http://www.w3.org/2000/svg"
   xmlns:sodipodi="http://sodipodi.sourceforge.net/DTD/sodipodi-0.dtd"
   xmlns:inkscape="http://www.inkscape.org/namespaces/inkscape"
   width="178.48599mm"
   height="26.45833mm"
   viewBox="0 0 178.48599 26.45833"
   version="1.1"
   id="svg841"
   inkscape:version="0.92.3 (2405546, 2018-03-11)"
   sodipodi:docname="charis.svg">
  <defs
     id="defs835" />
  <sodipodi:namedview
     id="base"
     pagecolor="#ffffff"
     bordercolor="#666666"
     borderopacity="1.0"
     inkscape:pageopacity="0.0"
     inkscape:pageshadow="2"
     inkscape:zoom="1.4"
     inkscape:cx="188.14966"
     inkscape:cy="257.85653"
     inkscape:document-units="mm"
     inkscape:current-layer="text1388"
     showgrid="false"
     units="mm"
     inkscape:window-width="1920"
     inkscape:window-height="1152"
     inkscape:window-x="1920"
     inkscape:window-y="0"
     inkscape:window-maximized="1" />
  <metadata
     id="metadata838">
    <rdf:RDF>
      <cc:Work
         rdf:about="">
        <dc:format>image/svg+xml</dc:format>
        <dc:type
           rdf:resource="http://purl.org/dc/dcmitype/StillImage" />
        <dc:title />
      </cc:Work>
    </rdf:RDF>
  </metadata>
  <g
     inkscape:label="Layer 1"
     inkscape:groupmode="layer"
     id="layer1"
     transform="translate(0,-270.54165)">
    <g
       aria-label="Charis Dankert"
       style="font-style:normal;font-variant:normal;font-weight:normal;font-stretch:normal;font-size:38.9093132px;line-height:1.25;font-family:'Gioviale Bold';-inkscape-font-specification:'Gioviale Bold, ';letter-spacing:0px;word-spacing:0px;fill:#000000;fill-opacity:1;stroke:none;stroke-width:0.97273284"
       id="text1388">
      <path
         d="m 16.388603,289.9185 q -0.560294,0.93383 -1.470773,2.17892 -0.910477,1.20619 -2.136121,2.29565 -1.190624,1.05055 -2.661396,1.78983 -1.4357543,0.73928 -3.0816182,0.73928 -1.4357537,0 -2.6964155,-0.428 Q 3.0816176,296.06617 2.1011029,295.17126 1.1205882,294.27635 0.56029411,292.87561 0,291.43597 0,289.4905 q 0,-2.76256 0.73538602,-5.25276 0.73538608,-2.49019 1.92601098,-4.5913 1.2256434,-2.1011 2.7664521,-3.7742 1.5758272,-1.6731 3.2216913,-2.84038 1.6808816,-1.20619 3.2917276,-1.82874 1.645865,-0.62255 2.976562,-0.62255 1.785938,0 2.801471,0.89492 1.050552,0.89491 1.050552,2.72365 0,1.43964 -0.525276,2.41238 -0.490257,0.97273 -1.29568,0.97273 -0.420221,0 -0.770404,-0.31127 -0.350184,-0.35019 -0.350184,-0.89492 0,-0.58364 0.245129,-0.93382 0.280146,-0.35019 0.595312,-0.62255 0.315165,-0.27237 0.560294,-0.62255 0.280147,-0.35018 0.280147,-0.93382 0,-0.85601 -0.595313,-1.32292 -0.595312,-0.46691 -1.645863,-0.46691 -1.680882,0 -3.571875,1.40073 -1.8909928,1.40074 -3.536857,3.85202 -1.6108456,2.45129 -2.6964154,5.71967 -1.0505514,3.26839 -1.0505514,7.00368 0,3.03493 1.0855698,4.39675 1.1205882,1.36183 3.0465992,1.36183 1.1906249,0 2.3112128,-0.58364 1.155607,-0.58364 2.136122,-1.43965 0.980514,-0.856 1.750919,-1.82873 0.770404,-0.97274 1.29568,-1.75092 z"
         style="stroke-width:0.92281538"
         id="path895"
         inkscape:connector-curvature="0" />
      <path
         d="m 20.989143,279.52972 q 0.245128,-0.85601 0.63033,-1.36183 0.420221,-0.54473 0.910479,-0.89491 -0.105055,0.0389 -0.245129,0.0389 -0.140074,0 -0.245129,0 -0.245128,0 -0.420221,-0.0389 -0.175091,-0.0389 -0.350183,-0.0778 -0.175092,-0.0389 -0.315166,-0.0778 l 0.315166,-0.46691 q 0.140074,0.0389 0.280147,0.0778 0.350184,0.0778 0.735386,0.0778 0.595313,0 1.50579,-0.15563 0.910478,-0.19455 2.031066,-0.73928 l 0.175093,0.35018 q -0.210111,0.19455 -0.45524,0.46691 -0.21011,0.23346 -0.490257,0.58364 -0.245129,0.35019 -0.490257,0.85601 -0.175092,0.31127 -0.385203,0.93382 -0.175091,0.62255 -0.42022,1.40074 -0.245129,0.77818 -0.490258,1.6731 -0.245128,0.89491 -0.455238,1.78983 -0.560295,2.1011 -1.120589,4.51348 0.525276,-0.70037 1.190626,-1.28401 0.665349,-0.62255 1.330698,-1.05055 0.66535,-0.46691 1.29568,-0.70037 0.630331,-0.27236 1.120588,-0.27236 0.630331,0 1.120588,0.35018 0.490258,0.35018 0.490258,1.16728 0,0.70037 -0.245129,1.40073 -0.245129,0.70037 -0.560294,1.40074 -0.280147,0.70037 -0.525275,1.43964 -0.245129,0.73928 -0.245129,1.51747 0,0.50582 0.175091,0.66146 0.175093,0.15563 0.350184,0.15563 0.245129,0 0.525276,-0.15563 0.280147,-0.19455 0.560294,-0.42801 0.315166,-0.23345 0.595312,-0.58364 l 0.280148,0.31128 q -0.560294,0.70037 -1.155607,1.20619 -0.525275,0.46691 -1.155607,0.856 -0.630331,0.35019 -1.260661,0.35019 -0.805423,0 -1.470772,-0.3891 -0.630331,-0.428 -0.630331,-1.47855 0,-0.77819 0.280147,-1.51746 0.315165,-0.77819 0.665349,-1.51747 0.385202,-0.73927 0.665349,-1.40073 0.315166,-0.66146 0.315166,-1.20619 0,-0.58364 -0.385202,-0.58364 -0.385203,0 -1.260662,0.54473 -0.875459,0.54473 -1.961029,2.02328 -0.350184,0.46691 -0.630332,1.2451 -0.280146,0.73928 -0.490257,1.51746 -0.21011,0.77819 -0.315165,1.43965 -0.105055,0.62255 -0.105055,0.81709 0,0.58364 -0.490257,0.58364 -0.280148,0 -0.735387,-0.0778 -0.455239,-0.0778 -0.910478,-0.0778 -0.490257,0 -0.84044,0.15563 -0.350185,0.15564 -0.455239,0.15564 -0.140074,0 -0.140074,-0.15564 0,-0.11672 0.21011,-0.35018 0.21011,-0.23346 0.420221,-0.70037 0.420221,-0.81709 0.700367,-1.94546 0.280148,-1.12837 0.700368,-2.87929 0.350184,-1.43965 0.700368,-2.95711 0.385202,-1.55637 0.700367,-2.87929 0.315166,-1.36183 0.525276,-2.33456 0.245129,-0.97273 0.350184,-1.32291 z"
         style="stroke-width:0.92281538"
         id="path897"
         inkscape:connector-curvature="0" />
      <path
         d="m 38.763159,292.71997 q 0,0.58364 0.455239,0.58364 0.245129,0 0.525276,-0.15564 0.280147,-0.19454 0.560294,-0.428 0.315165,-0.27236 0.595313,-0.62255 l 0.245128,0.31128 q -0.560294,0.70037 -1.120588,1.20619 -0.490257,0.46691 -1.050551,0.856 -0.525276,0.35019 -0.980515,0.35019 -0.805423,0 -1.260662,-0.50583 -0.42022,-0.50582 -0.42022,-1.20618 0,-0.3891 0.03502,-0.62255 0.03502,-0.23346 0.105055,-0.58364 -0.210111,0.428 -0.630331,0.93382 -0.385202,0.50582 -0.910478,0.93382 -0.490257,0.42801 -1.085569,0.73928 -0.560295,0.31128 -1.155608,0.31128 -1.400734,0 -2.136121,-0.77819 -0.700367,-0.77819 -0.700367,-2.1011 0,-1.40074 0.560294,-2.60693 0.560294,-1.20619 1.400736,-2.1011 0.84044,-0.89491 1.855973,-1.40074 1.015533,-0.54473 1.96103,-0.54473 1.015533,0 1.540808,0.50582 0.525276,0.46692 0.595313,1.20619 0.175092,-0.58364 0.630331,-0.93382 0.455239,-0.38909 1.365717,-0.54473 0.42022,-0.0778 0.735386,-0.15564 0.315165,-0.11673 0.525276,-0.23345 0.245128,-0.15564 0.42022,-0.27237 l 0.210111,0.46691 q -0.24513,0.15564 -0.490258,0.3891 -0.21011,0.19454 -0.455239,0.50582 -0.245128,0.31127 -0.455239,0.77818 -0.21011,0.46692 -0.490257,1.2451 -0.245129,0.73928 -0.455239,1.59528 -0.21011,0.8171 -0.385202,1.59529 -0.140074,0.77818 -0.140074,1.284 z m -4.902573,0.89492 q 0.315165,0 0.665349,-0.23346 0.350184,-0.27236 0.700367,-0.70037 0.385203,-0.428 0.700369,-0.93382 0.350183,-0.54473 0.595312,-1.08946 0.105055,-0.27237 0.21011,-0.66146 0.140074,-0.428 0.245129,-0.81709 0.105055,-0.42801 0.175091,-0.8171 0.07004,-0.38909 0.07004,-0.62255 0,-0.70037 -0.280146,-1.20619 -0.24513,-0.54473 -0.980515,-0.54473 -0.630331,0 -1.190626,0.54473 -0.560294,0.54473 -0.980514,1.40074 -0.385202,0.81709 -0.630331,1.82873 -0.21011,0.97274 -0.21011,1.82874 0,1.08946 0.21011,1.55637 0.210111,0.46692 0.700368,0.46692 z"
         style="stroke-width:0.92281538"
         id="path899"
         inkscape:connector-curvature="0" />
      <path
         d="m 48.831492,286.92248 q -0.280148,0 -0.595313,0.35019 -0.315165,0.35018 -0.980514,1.40073 -0.245129,0.3891 -0.560295,1.2451 -0.315165,0.8171 -0.595313,1.71201 -0.280146,0.89492 -0.490257,1.6731 -0.175091,0.73928 -0.175091,0.97274 0,0.54473 -0.490258,0.54473 -0.245128,0 -0.700367,-0.0389 -0.455239,-0.0778 -0.945497,-0.0778 -0.490257,0 -0.875459,0.15563 -0.385203,0.15564 -0.490258,0.15564 -0.140073,0 -0.140073,-0.15564 0,-0.11672 0.21011,-0.31127 0.245129,-0.23346 0.420221,-0.66146 0.315165,-0.66146 0.63033,-1.6731 0.350184,-1.01164 0.630332,-2.02328 0.280146,-1.01164 0.455238,-1.82874 0.175092,-0.8171 0.175092,-1.08946 0,-0.11673 -0.07004,-0.23346 -0.03502,-0.15563 -0.210111,-0.15563 -0.175092,0 -0.42022,0.15563 -0.210111,0.15564 -0.420221,0.35019 -0.245129,0.23345 -0.525275,0.50582 l -0.245129,-0.35019 q 0.21011,-0.19454 0.595312,-0.58364 0.385202,-0.38909 0.840441,-0.73927 0.490258,-0.3891 0.980515,-0.66146 0.525276,-0.27237 0.945497,-0.27237 0.735385,0 1.120588,0.3891 0.42022,0.35018 0.42022,0.89491 0,0.428 -0.03502,0.73928 -0.03502,0.31127 -0.07004,0.38909 0.280147,-0.428 0.630331,-0.856 0.385203,-0.42801 0.770405,-0.77819 0.385201,-0.35018 0.770404,-0.54473 0.385202,-0.23346 0.700368,-0.23346 0.630331,0 0.980514,0.3891 0.385202,0.35018 0.385202,0.89491 0,0.66146 -0.385202,1.20619 -0.350183,0.54473 -1.050551,0.54473 -0.490258,0 -0.735386,-0.31127 -0.245129,-0.35019 -0.245129,-0.73928 0,-0.35019 -0.21011,-0.35019 z"
         style="stroke-width:0.92281538"
         id="path901"
         inkscape:connector-curvature="0" />
      <path
         d="m 57.176262,286.61121 q 0,0.62255 -0.280148,1.40074 -0.280146,0.77818 -0.630331,1.55637 -0.350183,0.77818 -0.63033,1.55637 -0.280148,0.73928 -0.280148,1.32292 0,0.428 0.140075,0.62255 0.140073,0.19454 0.315164,0.19454 0.24513,0 0.525276,-0.15563 0.280148,-0.19455 0.560295,-0.42801 0.315165,-0.23345 0.595312,-0.58364 l 0.280147,0.31128 q -0.560294,0.70037 -1.190625,1.20619 -0.525275,0.46691 -1.190624,0.856 -0.630332,0.35019 -1.225644,0.35019 -0.770404,0 -1.400736,-0.35019 -0.630331,-0.38909 -0.630331,-1.59528 0,-0.62255 0.280148,-1.36183 0.315165,-0.77818 0.665349,-1.51746 0.350184,-0.73928 0.630331,-1.43964 0.315165,-0.70037 0.315165,-1.28401 0,-0.35019 -0.315165,-0.35019 -0.140074,0 -0.350184,0.15564 -0.21011,0.11673 -0.42022,0.31128 -0.24513,0.19454 -0.525276,0.46691 l -0.245129,-0.35019 q 0.210111,-0.19454 0.595312,-0.54473 0.420221,-0.38909 0.87546,-0.73927 0.490257,-0.3891 0.980515,-0.66146 0.525275,-0.27237 0.945496,-0.27237 0.735386,0 1.155607,0.3891 0.455239,0.38909 0.455239,0.93382 z M 55.600434,281.981 q 0,-0.38909 0.175092,-0.81709 0.175093,-0.42801 0.420221,-0.77819 0.280147,-0.35018 0.595312,-0.58364 0.350184,-0.23346 0.66535,-0.23346 0.455239,0 0.735386,0.31128 0.315165,0.31127 0.315165,0.856 0,0.42801 -0.175092,0.89492 -0.140073,0.428 -0.385202,0.81709 -0.245129,0.35019 -0.560294,0.58364 -0.315165,0.23346 -0.630331,0.23346 -0.455239,0 -0.805422,-0.31128 -0.350185,-0.31127 -0.350185,-0.97273 z"
         style="stroke-width:0.92281538"
         id="path903"
         inkscape:connector-curvature="0" />
      <path
         d="m 61.531124,294.9378 q -1.330697,0 -2.276194,-0.66145 -0.910478,-0.70037 -0.910478,-1.86765 0,-0.77819 0.455239,-1.20619 0.490257,-0.46691 1.08557,-0.46691 0.42022,0 0.700367,0.31127 0.315166,0.31128 0.315166,0.8171 0,0.31127 -0.105055,0.50582 -0.07004,0.19455 -0.210111,0.35018 -0.105055,0.15564 -0.21011,0.35019 -0.07004,0.15563 -0.07004,0.38909 0,0.35018 0.21011,0.62255 0.24513,0.27236 0.735387,0.27236 0.735386,0 1.050551,-0.54473 0.315166,-0.54473 0.315166,-1.24509 0,-0.73928 -0.455239,-1.2451 -0.420221,-0.50582 -0.945496,-0.93383 -0.525276,-0.46691 -0.980515,-0.97273 -0.420221,-0.54473 -0.420221,-1.36183 0,-0.73927 0.385203,-1.284 0.385202,-0.54473 0.980514,-0.89492 0.595313,-0.35018 1.29568,-0.50582 0.700368,-0.19454 1.29568,-0.19454 1.08557,0 1.750919,0.54473 0.66535,0.54473 0.66535,1.40073 0,0.77819 -0.385202,1.20619 -0.385203,0.38909 -0.910479,0.38909 -0.490257,0 -0.805423,-0.27236 -0.280146,-0.27237 -0.280146,-0.70037 0,-0.54473 0.21011,-0.77819 0.245129,-0.27236 0.245129,-0.70036 0,-0.58364 -0.525276,-0.58364 -0.490257,0 -0.87546,0.38909 -0.385202,0.38909 -0.385202,0.97273 0,0.85601 0.455239,1.43965 0.490257,0.54473 1.050551,1.05055 0.595313,0.46691 1.050552,1.01164 0.490257,0.50582 0.490257,1.28401 0,0.70037 -0.350183,1.28401 -0.350184,0.58364 -0.910478,1.01164 -0.560294,0.38909 -1.295681,0.62255 -0.700367,0.19454 -1.435754,0.19454 z"
         style="stroke-width:0.92281538"
         id="path905"
         inkscape:connector-curvature="0" />
      <path
         d="m 86.047275,296.33854 q -1.961029,0 -3.151655,-0.15564 -1.190624,-0.15564 -2.416267,-0.54473 -0.980515,0.73928 -2.381251,1.05055 Q 76.732385,297 75.436706,297 q -1.505791,0 -2.521324,-0.62255 -0.980515,-0.58364 -0.980515,-1.71201 0,-0.73928 0.595313,-1.12837 0.63033,-0.428 1.365717,-0.428 0.875459,0 1.7159,0.19454 0.87546,0.15564 1.785938,0.46691 1.785937,-1.78982 3.221691,-5.13603 1.470772,-3.38511 2.696415,-7.58731 0.910478,-3.15166 1.890993,-5.25276 0.980515,-2.14001 1.996048,-3.38511 -0.420221,-0.0778 -0.770405,-0.0778 -0.315165,-0.0389 -0.805422,-0.0389 -2.17114,0 -4.307262,0.8171 -2.136121,0.81709 -3.852021,2.25674 -1.715902,1.43964 -2.766453,3.3462 -1.050551,1.90656 -1.050551,4.08548 0,1.94546 0.700368,3.19056 0.700367,1.20619 2.626378,1.20619 0.665349,0 1.190625,-0.23346 0.560294,-0.27236 0.945496,-0.66145 0.385203,-0.3891 0.560294,-0.89492 0.210111,-0.50582 0.210111,-1.01164 0,-0.35018 -0.105056,-0.54473 -0.105055,-0.19455 -0.245128,-0.35018 -0.105055,-0.19455 -0.21011,-0.3891 -0.105056,-0.19454 -0.105056,-0.50582 0,-0.428 0.280148,-0.81709 0.280146,-0.3891 0.805422,-0.3891 0.525276,0 0.840442,0.428 0.315165,0.42801 0.315165,1.08947 0,1.05055 -0.385202,1.98437 -0.385202,0.89491 -1.050551,1.55637 -0.630331,0.66146 -1.505791,1.05055 -0.840441,0.3891 -1.785938,0.3891 -1.120588,0 -2.136121,-0.31128 -0.980515,-0.35018 -1.750919,-0.97273 -0.735386,-0.66146 -1.190625,-1.63419 -0.455238,-1.01164 -0.455238,-2.37347 0,-2.49019 1.365716,-4.47457 1.365717,-2.02328 3.46682,-3.46293 2.136121,-1.43964 4.657445,-2.21783 2.556341,-0.77819 4.902573,-0.77819 0.595313,0 1.050552,0.0389 0.490257,0.0389 1.050551,0.11673 0.700367,-0.66146 1.470772,-0.97273 0.770404,-0.31128 1.540807,-0.31128 0.805428,0 1.400733,0.19455 0.630333,0.19455 0.630333,0.50582 0,0.31128 -0.245124,0.54473 -0.210114,0.23346 -0.420219,0.23346 -0.175095,0 -0.280152,-0.11673 -0.105057,-0.15564 -0.245124,-0.31127 -0.140076,-0.19455 -0.35019,-0.35019 -0.175086,-0.15564 -0.490257,-0.15564 -0.875458,0 -1.540807,0.97274 1.926007,0.38909 3.501835,1.284 1.610847,0.89492 2.731437,2.25674 1.155609,1.32292 1.785942,3.15166 0.630324,1.82874 0.630324,4.08548 0,2.9571 -1.050552,5.4473 -1.015533,2.4902 -2.696409,4.28003 -1.680885,1.78982 -3.781989,2.76256 -2.101102,1.01164 -4.237224,1.01164 z m 7.879137,-14.59099 q 0,-1.63419 -0.245133,-3.11275 -0.210105,-1.47855 -0.805419,-2.64583 -0.560295,-1.16728 -1.540809,-1.98438 -0.980514,-0.856 -2.486305,-1.284 -0.665349,1.36182 -1.08557,3.65747 -0.420221,2.25674 -1.155607,5.29167 -0.525275,2.17892 -1.050551,4.2022 -0.525276,1.98438 -1.155607,3.7353 -0.630331,1.71201 -1.435753,3.11274 -0.805423,1.40074 -1.890993,2.37347 1.08557,0.31128 1.926011,0.38909 0.875459,0.0778 1.785937,0.0778 2.101103,0 3.781986,-1.05055 1.7159,-1.05055 2.871509,-2.87929 1.190619,-1.86765 1.820952,-4.39675 0.665352,-2.52911 0.665352,-5.48621 z m -20.940993,12.84007 q 0,0.31127 0.315165,0.428 0.350184,0.15564 0.875459,0.15564 0.805423,0 1.400736,-0.19455 0.595312,-0.15563 1.225643,-0.62255 -0.770404,-0.23345 -1.330698,-0.35018 -0.560294,-0.11673 -1.155606,-0.11673 -0.735387,0 -1.050552,0.19455 -0.280147,0.19455 -0.280147,0.50582 z"
         style="stroke-width:0.92281538"
         id="path907"
         inkscape:connector-curvature="0" />
      <path
         d="m 107.29523,292.71997 q 0,0.58364 0.45524,0.58364 0.24512,0 0.52527,-0.15564 0.28015,-0.19454 0.5603,-0.428 0.31516,-0.27236 0.5953,-0.62255 l 0.24514,0.31128 q -0.5603,0.70037 -1.12059,1.20619 -0.49026,0.46691 -1.05056,0.856 -0.52527,0.35019 -0.98051,0.35019 -0.80542,0 -1.26066,-0.50583 -0.42023,-0.50582 -0.42023,-1.20618 0,-0.3891 0.035,-0.62255 0.035,-0.23346 0.10506,-0.58364 -0.2101,0.428 -0.63033,0.93382 -0.3852,0.50582 -0.91048,0.93382 -0.49026,0.42801 -1.08557,0.73928 -0.56029,0.31128 -1.1556,0.31128 -1.400741,0 -2.136122,-0.77819 -0.700371,-0.77819 -0.700371,-2.1011 0,-1.40074 0.560295,-2.60693 0.560295,-1.20619 1.400738,-2.1011 0.84044,-0.89491 1.85598,-1.40074 1.01553,-0.54473 1.96102,-0.54473 1.01554,0 1.54081,0.50582 0.52528,0.46692 0.59532,1.20619 0.17508,-0.58364 0.63032,-0.93382 0.45525,-0.38909 1.36572,-0.54473 0.42022,-0.0778 0.73538,-0.15564 0.31518,-0.11673 0.52528,-0.23345 0.24513,-0.15564 0.42022,-0.27237 l 0.21011,0.46691 q -0.24512,0.15564 -0.49025,0.3891 -0.21012,0.19454 -0.45524,0.50582 -0.24513,0.31127 -0.45524,0.77818 -0.21011,0.46692 -0.49026,1.2451 -0.24513,0.73928 -0.45523,1.59528 -0.21012,0.8171 -0.38521,1.59529 -0.14007,0.77818 -0.14007,1.284 z m -4.90258,0.89492 q 0.31517,0 0.66535,-0.23346 0.35018,-0.27236 0.70037,-0.70037 0.3852,-0.428 0.70036,-0.93382 0.35019,-0.54473 0.59532,-1.08946 0.10506,-0.27237 0.21011,-0.66146 0.14007,-0.428 0.24513,-0.81709 0.10505,-0.42801 0.17509,-0.8171 0.07,-0.38909 0.07,-0.62255 0,-0.70037 -0.28015,-1.20619 -0.24513,-0.54473 -0.98051,-0.54473 -0.63034,0 -1.19062,0.54473 -0.5603,0.54473 -0.98053,1.40074 -0.3852,0.81709 -0.63032,1.82873 -0.21011,0.97274 -0.21011,1.82874 0,1.08946 0.21011,1.55637 0.2101,0.46692 0.70036,0.46692 z"
         style="stroke-width:0.92281538"
         id="path909"
         inkscape:connector-curvature="0" />
      <path
         d="m 115.40253,288.51777 q 0.52527,-0.66146 1.15561,-1.2451 0.63033,-0.58364 1.29567,-1.01164 0.66535,-0.46692 1.29569,-0.70037 0.63033,-0.27237 1.12059,-0.27237 0.66534,0 1.1556,0.42801 0.49025,0.38909 0.49025,1.01164 0,0.70037 -0.24512,1.36182 -0.24513,0.66146 -0.56029,1.36183 -0.31517,0.70037 -0.5603,1.43964 -0.24512,0.73928 -0.24512,1.55638 0,0.50582 0.17508,0.66146 0.1751,0.15563 0.31517,0.15563 0.28015,0 0.59531,-0.15563 0.31517,-0.19455 0.56029,-0.3891 0.28016,-0.23345 0.5603,-0.58364 l 0.28015,0.31128 q -0.52528,0.70036 -1.12059,1.20619 -0.49026,0.428 -1.12059,0.81709 -0.63033,0.35019 -1.3307,0.35019 -0.84044,0 -1.47077,-0.46692 -0.59531,-0.46691 -0.59531,-1.40073 0,-0.77819 0.28014,-1.51746 0.31517,-0.77819 0.66536,-1.51747 0.38519,-0.73927 0.70036,-1.36182 0.31517,-0.66146 0.31517,-1.20619 0,-0.62255 -0.42022,-0.62255 -0.49026,0 -1.33071,0.62255 -0.84043,0.58364 -1.75091,1.71201 -0.28015,0.35018 -0.59531,1.12837 -0.28016,0.77818 -0.52528,1.59528 -0.24513,0.81709 -0.42022,1.55637 -0.14007,0.70037 -0.14007,0.93383 0,0.54473 -0.7704,0.54473 -0.24514,0 -0.5603,-0.0389 -0.31517,-0.0778 -0.80543,-0.0778 -0.49025,0 -0.87545,0.15563 -0.35019,0.15564 -0.45524,0.15564 -0.14008,0 -0.14008,-0.23345 0,-0.15564 0.21012,-0.31128 0.24512,-0.19454 0.42021,-0.62255 0.31517,-0.73927 0.63034,-1.71201 0.31516,-0.97273 0.5953,-1.94546 0.28015,-0.97274 0.45525,-1.75092 0.17509,-0.8171 0.17509,-1.16728 0,-0.50582 -0.28015,-0.50582 -0.14007,0 -0.3852,0.19454 -0.21011,0.15564 -0.45524,0.35019 -0.28015,0.23345 -0.56029,0.50582 l -0.24513,-0.35018 q 0.21011,-0.23346 0.59531,-0.58364 0.42022,-0.3891 0.87546,-0.73928 0.45524,-0.35019 0.94549,-0.58364 0.49026,-0.27237 0.91048,-0.27237 0.63033,0 1.05055,0.35019 0.45525,0.31127 0.45525,0.89491 0,0.35019 -0.07,0.70037 -0.035,0.31127 -0.10506,0.62255 -0.07,0.35018 -0.14007,0.66146 z"
         style="stroke-width:0.92281538"
         id="path911"
         inkscape:connector-curvature="0" />
      <path
         d="m 130.64208,278.16789 q -0.31516,0.62255 -0.73538,1.98437 -0.3852,1.36183 -0.80542,2.99602 -0.42022,1.59528 -0.84044,3.22947 -0.3852,1.59529 -0.66536,2.72366 0.66536,-0.8171 1.29569,-1.51747 0.66535,-0.73927 1.26066,-1.284 0.59531,-0.54473 1.08557,-0.85601 0.52527,-0.31127 0.94549,-0.31127 0.66535,0 0.98052,0.46691 0.35019,0.428 0.35019,0.97273 0,0.58364 -0.31518,1.16728 -0.31516,0.58364 -1.08556,0.58364 -0.49025,0 -0.77041,-0.31127 -0.24512,-0.31128 -0.24512,-0.77819 0,-0.35018 -0.17509,-0.35018 -0.1751,0 -0.45524,0.19454 -0.28016,0.15564 -0.59532,0.428 -0.28014,0.27237 -0.56029,0.54473 -0.28014,0.27237 -0.42022,0.50583 0.24512,0.62255 0.52527,1.32291 0.24513,0.58364 0.5603,1.32292 0.31516,0.70037 0.66534,1.36183 0.31517,0.66145 0.73539,1.20618 0.45524,0.50583 1.19063,0.70037 l 0.035,0.35019 h -1.99605 q -0.80542,0 -1.50579,-0.31128 -0.70037,-0.31127 -0.98052,-0.97273 l -1.08556,-2.64584 q -0.31517,1.20619 -0.52528,2.17893 -0.17509,0.97273 -0.17509,1.24509 0,0.58364 -0.49026,0.58364 -0.28015,0 -0.73539,-0.0778 -0.45524,-0.0778 -0.91047,-0.0778 -0.49026,0 -0.84044,0.15563 -0.35019,0.15564 -0.45524,0.15564 -0.14008,0 -0.14008,-0.15564 0,-0.11672 0.21012,-0.35018 0.2101,-0.23346 0.42022,-0.70037 0.42022,-0.81709 0.70036,-1.94546 0.28015,-1.12837 0.70037,-2.87929 0.35018,-1.43965 0.70037,-2.95711 0.3852,-1.55637 0.70036,-2.87929 0.31517,-1.36183 0.52528,-2.33456 0.24513,-0.97273 0.35018,-1.32291 0.24513,-0.85601 0.63033,-1.36183 0.42022,-0.54473 0.91048,-0.89491 -0.10505,0.0389 -0.24513,0.0389 -0.14007,0 -0.24513,0 -0.24512,0 -0.42022,-0.0389 -0.17508,-0.0389 -0.35018,-0.0778 -0.17509,-0.0389 -0.31516,-0.0778 l 0.31516,-0.46691 q 0.14008,0.0389 0.28014,0.0778 0.35019,0.0778 0.73539,0.0778 0.59532,0 1.50579,-0.15563 0.91048,-0.19455 2.03107,-0.73928 l 0.1751,0.35018 q -0.21012,0.15564 -0.45524,0.42801 -0.21012,0.23345 -0.49026,0.62254 -0.24513,0.35019 -0.49027,0.85601 z"
         style="stroke-width:0.92281538"
         id="path913"
         inkscape:connector-curvature="0" />
      <path
         d="m 134.06787,291.78615 q 0,-1.40074 0.59531,-2.56802 0.59532,-1.20618 1.47078,-2.06219 0.87545,-0.89491 1.89098,-1.36183 1.05056,-0.50582 1.891,-0.50582 1.05055,0 1.75092,0.46692 0.70037,0.46691 0.70037,1.284 0,0.77819 -0.35019,1.40074 -0.35018,0.62255 -0.91048,1.05055 -0.52527,0.428 -1.19062,0.70037 -0.66535,0.23345 -1.3307,0.23345 -0.28014,0 -0.49026,-0.0778 -0.2101,-0.0778 -0.2101,-0.27236 0,-0.19455 0.17508,-0.19455 0.49026,0 0.9455,-0.31127 0.45524,-0.31128 0.77041,-0.77819 0.35018,-0.50582 0.52527,-1.12837 0.21011,-0.62255 0.21011,-1.2451 0,-0.50582 -0.3852,-0.50582 -0.49026,0 -1.01553,0.50582 -0.52528,0.50582 -0.9455,1.32292 -0.42022,0.77819 -0.70037,1.75092 -0.28014,0.93382 -0.28014,1.82874 0,1.32291 0.45523,1.82873 0.49026,0.50583 1.1206,0.50583 0.49025,0 0.94549,-0.23346 0.45524,-0.23346 0.80542,-0.54473 0.38521,-0.35018 0.77041,-0.77819 l 0.28014,0.31128 q -0.52528,0.70037 -1.19062,1.20619 -0.59531,0.46691 -1.40074,0.856 -0.7704,0.35019 -1.75091,0.35019 -0.5603,0 -1.12059,-0.15564 -0.5603,-0.19455 -1.01554,-0.54473 -0.45523,-0.3891 -0.73539,-0.93383 -0.28014,-0.58364 -0.28014,-1.40073 z"
         style="stroke-width:0.92281538"
         id="path915"
         inkscape:connector-curvature="0" />
      <path
         d="m 150.26169,286.92248 q -0.28016,0 -0.59532,0.35019 -0.31516,0.35018 -0.98051,1.40073 -0.24513,0.3891 -0.5603,1.2451 -0.31516,0.8171 -0.59531,1.71201 -0.28014,0.89492 -0.49026,1.6731 -0.17509,0.73928 -0.17509,0.97274 0,0.54473 -0.49026,0.54473 -0.24512,0 -0.70036,-0.0389 -0.45524,-0.0778 -0.9455,-0.0778 -0.49025,0 -0.87546,0.15563 -0.3852,0.15564 -0.49026,0.15564 -0.14007,0 -0.14007,-0.15564 0,-0.11672 0.21011,-0.31127 0.24513,-0.23346 0.42022,-0.66146 0.31517,-0.66146 0.63033,-1.6731 0.35018,-1.01164 0.63033,-2.02328 0.28015,-1.01164 0.45524,-1.82874 0.1751,-0.8171 0.1751,-1.08946 0,-0.11673 -0.07,-0.23346 -0.035,-0.15563 -0.21012,-0.15563 -0.17509,0 -0.42022,0.15563 -0.21011,0.15564 -0.42021,0.35019 -0.24514,0.23345 -0.52528,0.50582 l -0.24513,-0.35019 q 0.21011,-0.19454 0.59531,-0.58364 0.3852,-0.38909 0.84044,-0.73927 0.49026,-0.3891 0.98052,-0.66146 0.52528,-0.27237 0.9455,-0.27237 0.73538,0 1.12059,0.3891 0.42022,0.35018 0.42022,0.89491 0,0.428 -0.035,0.73928 -0.035,0.31127 -0.07,0.38909 0.28014,-0.428 0.63033,-0.856 0.3852,-0.42801 0.7704,-0.77819 0.3852,-0.35018 0.77041,-0.54473 0.3852,-0.23346 0.70036,-0.23346 0.63033,0 0.98051,0.3891 0.38521,0.35018 0.38521,0.89491 0,0.66146 -0.38521,1.20619 -0.35018,0.54473 -1.05055,0.54473 -0.49026,0 -0.73538,-0.31127 -0.24513,-0.35019 -0.24513,-0.73928 0,-0.35019 -0.21011,-0.35019 z"
         style="stroke-width:0.92281538"
         id="path917"
         inkscape:connector-curvature="0" />
      <path
         d="m 154.71941,284.23774 h 0.66536 q 0.3852,-1.43964 1.08557,-2.1011 0.73538,-0.66146 1.71589,-0.97273 0.59532,-0.15564 0.9455,-0.31128 0.38521,-0.15564 0.59531,-0.23345 0.24513,-0.11673 0.3852,-0.19455 l 0.21012,0.46691 q -0.28015,0.19455 -0.52528,0.428 -0.21012,0.19455 -0.45524,0.54473 -0.24513,0.31128 -0.45524,0.73928 -0.42022,0.70037 -0.70037,1.63419 h 2.45129 l -0.31516,0.66146 h -2.31121 q -0.24514,0.93382 -0.52528,1.98438 -0.28015,1.01164 -0.52528,1.98437 -0.21011,0.93382 -0.35019,1.75092 -0.14006,0.8171 -0.14006,1.32292 0,0.73927 0.2101,1.05055 0.21012,0.27236 0.66535,0.27236 0.35019,0 0.70037,-0.15563 0.35019,-0.19455 0.63033,-0.42801 0.31517,-0.23345 0.59531,-0.58364 l 0.24514,0.31128 q -0.5603,0.70037 -1.19063,1.20619 -0.52528,0.46691 -1.19063,0.856 -0.66534,0.35019 -1.29568,0.35019 -1.01553,0 -1.7159,-0.66146 -0.70036,-0.66146 -0.70036,-1.59528 0,-1.20619 0.56028,-3.15166 0.5603,-1.94546 1.26067,-4.51348 h -0.84044 z"
         style="stroke-width:0.92281538"
         id="path919"
         inkscape:connector-curvature="0" />
    </g>
  </g>
</svg>
