<svg xmlns="http://www.w3.org/2000/svg" width="691.3" height="100" viewBox="0 0 182.9 26.46"><path style="fill:#fff" d="M4.84 21.7q1 0 1.82-.44.84-.4 1.43-1.15.59-.75.9-1.74.33-1 .33-2.12 0-1.8-.47-3.08-.45-1.31-1.01-2.43-.54-1.15-.98-2.3-.45-1.19-.45-2.77 0-1.22.53-2.25.53-1.02 1.32-1.77Q9.06.9 10.02.5q.95-.4 1.8-.4 1.56 0 2.49.83.95.81.95 2.3 0 .47-.08.94-.09.47-.28.84-.17.38-.45.6-.25.21-.62.21-.36 0-.61-.25-.26-.28-.26-.71 0-.47.2-.72.22-.25.48-.44.28-.21.47-.46.23-.28.23-.75 0-.31-.17-.62t-.48-.53q-.28-.25-.67-.4-.36-.16-.78-.16-1.38 0-2.16 1-.76 1-.76 2.64 0 1.56.48 2.77.5 1.18 1.09 2.4.62 1.21 1.1 2.64.5 1.44.5 3.43 0 1.74-.65 3.11-.64 1.37-1.65 2.3-1 .94-2.27 1.44-1.23.5-2.47.5-1.26 0-2.26-.44-1.01-.4-1.74-1.15-.7-.72-1.1-1.68-.36-.94-.36-2 0-1.02.34-1.9.36-.9.95-1.55.59-.66 1.37-1.03.79-.37 1.63-.37 1.06 0 1.76.56.7.53.7 1.21 0 .4-.22.69-.2.25-.59.25-.48 0-.64-.38-.17-.37-.17-.84 0-.34-.17-.65-.17-.34-.92-.34-.62 0-1.2.34-.6.34-1.07.9-.45.56-.73 1.3-.28.76-.28 1.53 0 1 .3 1.78.34.78.9 1.3.56.57 1.3.85.75.3 1.59.3zM13.52 17.09q0-1.12.47-2.05.48-.97 1.18-1.65.7-.72 1.51-1.1.84-.4 1.52-.4.84 0 1.4.37.56.38.56 1.03 0 .62-.28 1.12-.28.5-.73.84-.42.35-.95.56-.54.2-1.07.2-.22 0-.39-.07-.17-.06-.17-.22t.14-.16q.4 0 .76-.24.36-.25.61-.63.29-.4.43-.9.16-.5.16-1 0-.4-.3-.4-.4 0-.82.4-.42.4-.75 1.06-.34.63-.56 1.4Q16 16 16 16.72q0 1.05.37 1.46.39.4.9.4.38 0 .75-.18.36-.19.64-.44.31-.28.62-.62l.22.25q-.42.56-.95.96-.48.38-1.12.69-.62.28-1.4.28-.45 0-.9-.13-.45-.15-.8-.43-.37-.31-.6-.75-.22-.47-.22-1.12zM28.32 17.84q0 .46.37.46.2 0 .42-.12l.45-.34q.25-.22.47-.5l.2.25q-.45.56-.9.96-.39.38-.84.69-.42.28-.78.28-.65 0-1.01-.4-.34-.41-.34-.97 0-.31.03-.5l.08-.47q-.16.35-.5.75-.3.4-.73.75-.4.34-.87.59-.45.25-.92.25-1.12 0-1.71-.62-.56-.63-.56-1.69 0-1.12.45-2.08.45-.97 1.12-1.68.67-.72 1.48-1.12.82-.44 1.57-.44.81 0 1.23.4.42.38.48.97.14-.47.5-.75.37-.3 1.1-.43.33-.06.59-.13.25-.09.42-.18l.33-.22.17.37q-.2.13-.4.31-.16.16-.36.4-.2.26-.36.63-.17.37-.4 1-.19.59-.36 1.27l-.3 1.28q-.12.62-.12 1.03zm-3.92.71q.25 0 .53-.18.28-.22.56-.56.31-.35.56-.75.28-.44.48-.87l.17-.53.2-.66q.08-.34.13-.65.06-.31.06-.5 0-.56-.22-.96-.2-.44-.79-.44-.5 0-.95.44-.45.43-.78 1.12-.31.65-.5 1.46-.18.78-.18 1.46 0 .88.17 1.25t.56.37zM33.3 19.61q-1.07 0-1.82-.53-.73-.56-.73-1.5 0-.61.36-.96.4-.37.87-.37.34 0 .56.25.25.25.25.65 0 .25-.08.4-.06.16-.17.29l-.17.28q-.05.12-.05.3 0 .29.16.5.2.22.6.22.58 0 .83-.43.26-.44.26-1 0-.59-.37-1-.33-.4-.76-.74-.42-.37-.78-.78-.34-.43-.34-1.09 0-.59.31-1.03.31-.43.79-.71.47-.28 1.03-.4.56-.16 1.04-.16.87 0 1.4.43.53.44.53 1.12 0 .63-.3.97-.31.31-.73.31-.4 0-.65-.22-.22-.21-.22-.56 0-.43.17-.62.2-.22.2-.56 0-.47-.43-.47-.39 0-.7.31-.3.32-.3.78 0 .69.36 1.15.39.44.84.84.47.38.84.81.4.4.4 1.03 0 .56-.29 1.03-.28.47-.73.8-.45.32-1.03.5-.56.16-1.15.16zM42.77 11.9q.82 0 1.38.46.58.43.58 1.09 0 .53-.3.93-.28.4-.76.4-.4 0-.67-.21-.28-.25-.28-.6 0-.43.25-.68.25-.25.25-.56 0-.37-.28-.37-.56 0-1.04.37-.47.38-.84.97-.36.59-.56 1.37-.2.77-.2 1.55 0 1.06.37 1.53.4.43.95.43.37 0 .7-.15.37-.19.65-.44.3-.28.62-.62l.2.25q-.46.56-.96.96-.45.35-1.1.66-.61.28-1.37.28-.39 0-.84-.1-.44-.12-.84-.4-.36-.28-.61-.75-.26-.46-.26-1.18 0-1.21.48-2.18.48-.96 1.2-1.62.76-.68 1.63-1.03.87-.37 1.65-.37zM52.56 17.84q0 .46.37.46.2 0 .42-.12l.45-.34q.25-.22.47-.5l.2.25q-.45.56-.9.96-.39.38-.84.69-.42.28-.78.28-.65 0-1.01-.4-.34-.41-.34-.97 0-.31.03-.5l.09-.47q-.17.35-.5.75-.32.4-.74.75-.39.34-.87.59-.44.25-.92.25-1.12 0-1.7-.62-.57-.63-.57-1.69 0-1.12.45-2.08.45-.97 1.12-1.68.67-.72 1.48-1.12.82-.44 1.57-.44.82 0 1.24.4.42.38.47.97.14-.47.5-.75.37-.3 1.1-.43.34-.06.59-.13.25-.09.42-.18l.33-.22.17.37q-.2.13-.39.31-.17.16-.36.4-.2.26-.37.63-.17.37-.4 1-.19.59-.35 1.27l-.31 1.28q-.12.62-.12 1.03zm-3.92.71q.25 0 .53-.18.28-.22.57-.56.3-.35.56-.75.28-.44.47-.87.09-.22.17-.53l.2-.66.14-.65q.05-.31.05-.5 0-.56-.22-.96-.2-.44-.79-.44-.5 0-.95.44-.45.43-.78 1.12-.31.65-.5 1.46-.18.78-.18 1.46 0 .88.17 1.25t.56.37z"/><path style="fill:#fff" d="M57.54 18.46q-.23.65-.53 1.77l-.62 2.28-.5 2.08q-.2.97-.2 1.28 0 .43-.37.43-.22 0-.67-.06-.47-.03-.84-.03-.42 0-.61.13-.2.12-.28.12-.12 0-.12-.12 0-.1.2-.28.2-.16.34-.5.08-.19.25-.69.17-.5.36-1.18l.42-1.43.42-1.56.65-2.4.59-2.24q.28-1.02.44-1.7.17-.7.17-.85 0-.1-.03-.22-.02-.15-.2-.15-.1 0-.27.15l-.37.28-.45.4-.2-.27q.18-.19.49-.47.33-.31.7-.6.39-.3.78-.52.42-.22.76-.22.5 0 .84.28.33.25.33.69 0 .21-.05.46-.03.13-.06.19.56-.72 1.4-1.15.84-.47 1.51-.47.76 0 1.38.5.64.5.64 1.59 0 1.18-.42 2.2-.39 1.03-1.03 1.78-.62.75-1.4 1.18-.76.44-1.46.44-.79 0-1.26-.31-.45-.31-.73-.81zm3.3-5.7q-.56 0-1.23.66-.64.65-1.04 1.55l-.22.6-.22.71q-.12.37-.2.72-.06.3-.06.5 0 .77.34 1.05.36.25.67.25.54 0 .98-.37.48-.4.82-1.06.33-.65.53-1.53.2-.87.2-1.86 0-.66-.17-.94-.17-.28-.4-.28zM64.63 17.09q0-1.12.47-2.05.48-.97 1.18-1.65.7-.72 1.51-1.1.84-.4 1.52-.4.84 0 1.4.37.56.38.56 1.03 0 .62-.28 1.12-.28.5-.73.84-.42.35-.95.56-.54.2-1.07.2-.22 0-.4-.07-.16-.06-.16-.22t.14-.16q.4 0 .76-.24.36-.25.61-.63.28-.4.42-.9.17-.5.17-1 0-.4-.3-.4-.4 0-.82.4-.42.4-.75 1.06-.34.63-.56 1.4-.23.75-.23 1.47 0 1.05.37 1.46.39.4.9.4.38 0 .75-.18.36-.19.64-.44.31-.28.62-.62l.22.25q-.42.56-.95.96-.48.38-1.12.69-.62.28-1.4.28-.45 0-.9-.13-.45-.15-.81-.43-.36-.31-.59-.75-.22-.47-.22-1.12zM80.35 21.7q1.01 0 1.82-.44.84-.4 1.43-1.15.6-.75.9-1.74.34-1 .34-2.12 0-1.8-.48-3.08-.45-1.31-1-2.43-.54-1.15-.99-2.3-.45-1.19-.45-2.77 0-1.22.53-2.25.54-1.02 1.32-1.77Q84.58.9 85.54.5q.95-.4 1.79-.4 1.57 0 2.5.83.95.81.95 2.3 0 .47-.09.94-.08.47-.28.84-.17.38-.45.6-.25.21-.61.21-.37 0-.62-.25-.25-.28-.25-.71 0-.47.2-.72.22-.25.47-.44.28-.21.48-.46.22-.28.22-.75 0-.31-.17-.62t-.47-.53q-.28-.25-.68-.4-.36-.16-.78-.16-1.37 0-2.16 1-.75 1-.75 2.64 0 1.56.47 2.77.5 1.18 1.1 2.4.61 1.21 1.09 2.64.5 1.44.5 3.43 0 1.74-.64 3.11-.65 1.37-1.66 2.3-1 .94-2.26 1.44-1.24.5-2.47.5-1.26 0-2.27-.44-1-.4-1.74-1.15-.7-.72-1.09-1.68-.36-.94-.36-2 0-1.02.33-1.9.37-.9.96-1.55.58-.66 1.37-1.03.78-.37 1.62-.37 1.07 0 1.77.56.7.53.7 1.21 0 .4-.23.69-.2.25-.58.25-.48 0-.65-.38-.17-.37-.17-.84 0-.34-.16-.65-.17-.34-.93-.34-.62 0-1.2.34-.6.34-1.07.9-.45.56-.73 1.3-.28.76-.28 1.53 0 1 .31 1.78.34.78.9 1.3.56.57 1.29.85.75.3 1.6.3zM91.25 18.46q-.23.65-.54 1.77l-.61 2.28-.5 2.08q-.2.97-.2 1.28 0 .43-.37.43-.22 0-.67-.06-.48-.03-.84-.03-.42 0-.62.13-.2.12-.28.12-.1 0-.1-.12 0-.1.19-.28.2-.16.33-.5.09-.19.26-.69l.36-1.18.42-1.43.42-1.56q.3-1.18.65-2.4l.58-2.24.45-1.7q.17-.7.17-.85 0-.1-.03-.22-.03-.15-.2-.15-.1 0-.27.15l-.37.28-.45.4-.2-.27q.17-.19.48-.47.34-.31.7-.6.4-.3.79-.52.42-.22.75-.22.5 0 .84.28.34.25.34.69 0 .21-.05.46-.03.13-.06.19.56-.72 1.4-1.15.84-.47 1.51-.47.76 0 1.38.5.64.5.64 1.59 0 1.18-.42 2.2-.4 1.03-1.04 1.78-.61.75-1.4 1.18-.75.44-1.45.44-.79 0-1.27-.31-.44-.31-.72-.81zm3.3-5.7q-.56 0-1.23.66-.64.65-1.04 1.55l-.22.6-.23.71-.2.72q-.05.3-.05.5 0 .77.34 1.05.36.25.67.25.53 0 .98-.37.48-.4.81-1.06.34-.65.54-1.53.2-.87.2-1.86 0-.66-.18-.94-.16-.28-.39-.28zM102.76 12.33q-.42 0-.81.43-.4.4-.73 1.12-.3.72-.5 1.65-.17.94-.17 1.96 0 .72.2 1.13.22.4.64.4.42 0 .81-.47.42-.46.73-1.21.3-.78.5-1.71.2-.97.2-1.93 0-1.37-.87-1.37zm-.05-.5q1.37 0 2.24.75.87.71.87 2.02 0 1.06-.4 1.96-.39.9-1.03 1.59-.62.65-1.4 1.06-.79.37-1.6.37-1.29 0-2.19-.65-.86-.69-.86-2.09 0-1 .33-1.9.37-.9.95-1.59.6-.71 1.38-1.12.81-.4 1.7-.4zM111.9 13.2q-.23 0-.48.28-.25.28-.79 1.12-.2.31-.45 1-.25.65-.47 1.37-.23.71-.4 1.33-.13.6-.13.78 0 .44-.4.44-.2 0-.56-.03-.36-.07-.75-.07-.4 0-.7.13-.31.12-.4.12-.1 0-.1-.12 0-.1.16-.25.2-.19.34-.53.25-.53.5-1.34.28-.8.5-1.62.23-.8.37-1.46.14-.65.14-.87 0-.1-.06-.19-.02-.12-.16-.12t-.34.12l-.34.28-.42.4-.2-.27.48-.47q.31-.31.68-.6.39-.3.78-.52.42-.22.76-.22.58 0 .9.31.33.28.33.72 0 .34-.03.59-.03.25-.06.31.23-.34.5-.68.32-.35.63-.63.3-.28.61-.43.31-.19.56-.19.5 0 .79.31.3.28.3.72 0 .53-.3.96-.28.44-.84.44-.4 0-.6-.25-.19-.28-.19-.6 0-.27-.17-.27zM115.46 11.05h.53q.31-1.15.87-1.68.59-.53 1.37-.78.48-.12.76-.25l.48-.18.3-.16.17.37q-.22.16-.42.35-.17.15-.36.43-.2.25-.37.6-.33.55-.56 1.3h1.96l-.25.53h-1.85l-.42 1.59-.42 1.59q-.16.74-.28 1.4-.1.65-.1 1.05 0 .6.16.85.17.21.53.21.28 0 .56-.12.28-.16.5-.34.26-.2.48-.47l.2.25q-.45.56-.95.96-.42.38-.96.69-.53.28-1.03.28-.82 0-1.38-.53-.56-.53-.56-1.28 0-.96.45-2.52t1.01-3.61h-.67zM128.6 21.57q-.84 0-1.43-.22-.56-.21-.93-.5-.33-.27-.47-.58-.14-.32-.14-.5 0-.56.44-.56.23 0 .31.15.11.13.11.31 0 .13.06.32.08.21.25.4.17.19.45.31.3.16.73.16.95 0 1.68-.81.76-.78 1.4-2.12.67-1.37 1.26-3.17.59-1.84 1.2-3.86h-1.67q-.34 1.3-1.4 2.14-1.04.84-2.36.84-.87 0-1.7-.25-.82-.28-1.46-.8-.65-.57-1.04-1.37-.4-.84-.4-1.97 0-1.55.51-2.83.53-1.27 1.43-2.3.9-1.03 2.07-1.78 1.18-.77 2.5-1.27 1.31-.53 2.66-.78 1.37-.25 2.66-.25.76 0 1.29.03t.92.1l.73.06q.34.03.65.03.5 0 1-.1.54-.09.99-.34l.14.28q-.26.25-.5.53-.23.25-.46.56-.22.28-.36.6l-.45.87q-.25.46-.62 1.33-.33.88-.78 2.34-.45 1.43-1.04 3.76h5.44q.56-1.86 1.12-3.57.56-1.75 1.04-3 .1-.34.3-.8.23-.5.5-.94.29-.46.65-.8.37-.35.79-.41.47-.06.84-.19.39-.15.7-.3.33-.16.61-.32l.14.28q-.16.19-.33.47l-.4.62q-.2.37-.44.9-.23.4-.53 1.25-.29.8-.65 1.9l-.76 2.36-.72 2.55h.92l-.25.57h-.81q-.31 1.12-.56 2.17l-.48 1.93q-.2.9-.3 1.62-.12.72-.12 1.15 0 .35.08.44.09.1.2.1.2 0 .42-.13.25-.16.48-.34.25-.22.47-.5l.23.28q-.42.56-.9.96-.4.35-.87.66-.48.28-.9.28-.98 0-1.5-.5-.54-.5-.54-1.43 0-1.12.4-2.9.41-1.8 1.03-3.8h-5.4q-1.24 5.33-3.18 8-1.93 2.68-4.95 2.68zm3.36-11.8v.28q0 .13-.03.28h1.74q.73-2.2 1.31-3.7.62-1.5 1.15-2.49.53-1.03 1.04-1.71.53-.69 1.1-1.25-.4-.06-.8-.15-.33-.06-.75-.1-.42-.06-.81-.06-1.94 0-3.81.56-1.85.53-3.34 1.65-1.45 1.1-2.35 2.74-.9 1.65-.9 3.86 0 1.62.6 2.62.58 1 2.15 1 .53 0 .98-.2.45-.21.76-.52.3-.35.47-.75.2-.4.2-.84-.2-.13-.34-.28-.3-.34-.3-.84 0-.44.27-.84.31-.4.73-.4.4 0 .65.3.28.32.28.84zM150.92 12.33q-.42 0-.82.43-.39.4-.72 1.12-.31.72-.5 1.65-.18.94-.18 1.96 0 .72.2 1.13.22.4.64.4.42 0 .82-.47.42-.46.72-1.21.31-.78.5-1.71.2-.97.2-1.93 0-1.37-.86-1.37zm-.06-.5q1.37 0 2.24.75.87.71.87 2.02 0 1.06-.4 1.96-.38.9-1.03 1.59-.61.65-1.4 1.06-.78.37-1.6.37-1.29 0-2.18-.65-.87-.69-.87-2.09 0-1 .34-1.9.36-.9.95-1.59.59-.71 1.37-1.12.81-.4 1.71-.4zM160.05 13.2q-.23 0-.48.28-.25.28-.78 1.12-.2.31-.45 1-.25.65-.48 1.37-.22.71-.39 1.33-.14.6-.14.78 0 .44-.4.44-.19 0-.55-.03-.37-.07-.76-.07-.4 0-.7.13-.3.12-.4.12-.1 0-.1-.12 0-.1.16-.25.2-.19.34-.53.25-.53.5-1.34.29-.8.5-1.62.23-.8.37-1.46.14-.65.14-.87 0-.1-.05-.19-.03-.12-.17-.12t-.34.12l-.33.28-.42.4-.2-.27.48-.47q.3-.31.67-.6.4-.3.78-.52.42-.22.76-.22.59 0 .9.31.33.28.33.72 0 .34-.02.59-.03.25-.06.31.22-.34.5-.68.31-.35.62-.63.3-.28.62-.43.3-.19.56-.19.5 0 .78.31.3.28.3.72 0 .53-.3.96-.28.44-.84.44-.4 0-.59-.25-.2-.28-.2-.6 0-.27-.16-.27zM164.8 19.61q-1.07 0-1.83-.53-.73-.56-.73-1.5 0-.61.37-.96.39-.37.86-.37.34 0 .56.25.26.25.26.65 0 .25-.09.4-.05.16-.17.29l-.16.28q-.06.12-.06.3 0 .29.17.5.2.22.59.22.59 0 .84-.43.25-.44.25-1 0-.59-.36-1-.34-.4-.76-.74-.42-.37-.79-.78-.33-.43-.33-1.09 0-.59.3-1.03.31-.43.8-.71.47-.28 1.03-.4.56-.16 1.03-.16.87 0 1.4.43.54.44.54 1.12 0 .63-.31.97-.3.31-.73.31-.4 0-.64-.22-.23-.21-.23-.56 0-.43.17-.62.2-.22.2-.56 0-.47-.42-.47-.4 0-.7.31-.31.32-.31.78 0 .69.36 1.15.4.44.84.84.48.38.84.81.4.4.4 1.03 0 .56-.29 1.03-.28.47-.72.8-.45.32-1.04.5-.56.16-1.15.16zM169.3 17.09q0-1.12.48-2.05.48-.97 1.18-1.65.7-.72 1.51-1.1.84-.4 1.52-.4.84 0 1.4.37.56.38.56 1.03 0 .62-.28 1.12-.28.5-.73.84-.42.35-.95.56-.54.2-1.07.2-.22 0-.39-.07-.17-.06-.17-.22t.14-.16q.4 0 .76-.24.36-.25.62-.63.28-.4.42-.9.16-.5.16-1 0-.4-.3-.4-.4 0-.82.4-.42.4-.75 1.06-.34.63-.56 1.4-.23.75-.23 1.47 0 1.05.37 1.46.39.4.9.4.38 0 .75-.18.36-.19.64-.44.31-.28.62-.62l.22.25q-.42.56-.95.96-.47.38-1.12.69-.62.28-1.4.28-.45 0-.9-.13-.44-.15-.8-.43-.37-.31-.6-.75-.22-.47-.22-1.12zM179.18 19.61q-1.06 0-1.82-.53-.73-.56-.73-1.5 0-.61.37-.96.39-.37.87-.37.33 0 .56.25.25.25.25.65 0 .25-.09.4-.05.16-.16.29-.09.12-.17.28-.06.12-.06.3 0 .29.17.5.2.22.59.22.59 0 .84-.43.25-.44.25-1 0-.59-.36-1-.34-.4-.76-.74-.42-.37-.78-.78-.34-.43-.34-1.09 0-.59.3-1.03.32-.43.8-.71.47-.28 1.03-.4.56-.16 1.04-.16.86 0 1.4.43.53.44.53 1.12 0 .63-.3.97-.32.31-.74.31-.39 0-.64-.22-.23-.21-.23-.56 0-.43.17-.62.2-.22.2-.56 0-.47-.42-.47-.4 0-.7.31-.31.32-.31.78 0 .69.36 1.15.4.44.84.84.48.38.84.81.4.4.4 1.03 0 .56-.28 1.03t-.73.8q-.45.32-1.04.5-.56.16-1.15.16z"/></svg>
