<?xml version="1.0" encoding="UTF-8" standalone="no"?>
<!-- Created with Inkscape (http://www.inkscape.org/) -->

<svg
   xmlns:dc="http://purl.org/dc/elements/1.1/"
   xmlns:cc="http://creativecommons.org/ns#"
   xmlns:rdf="http://www.w3.org/1999/02/22-rdf-syntax-ns#"
   xmlns:svg="http://www.w3.org/2000/svg"
   xmlns="http://www.w3.org/2000/svg"
   xmlns:sodipodi="http://sodipodi.sourceforge.net/DTD/sodipodi-0.dtd"
   xmlns:inkscape="http://www.inkscape.org/namespaces/inkscape"
   width="650"
   height="150"
   viewBox="0 0 171.97916 39.687499"
   version="1.1"
   id="svg8"
   inkscape:version="0.92.3 (2405546, 2018-03-11)"
   sodipodi:docname="shannon2.svg">
  <defs
     id="defs2" />
  <sodipodi:namedview
     id="base"
     pagecolor="#ffffff"
     bordercolor="#666666"
     borderopacity="1.0"
     inkscape:pageopacity="0.0"
     inkscape:pageshadow="2"
     inkscape:zoom="1.4142136"
     inkscape:cx="188.87123"
     inkscape:cy="13.027172"
     inkscape:document-units="mm"
     inkscape:current-layer="layer1"
     showgrid="false"
     units="px"
     inkscape:window-width="1920"
     inkscape:window-height="1152"
     inkscape:window-x="1920"
     inkscape:window-y="0"
     inkscape:window-maximized="1" />
  <metadata
     id="metadata5">
    <rdf:RDF>
      <cc:Work
         rdf:about="">
        <dc:format>image/svg+xml</dc:format>
        <dc:type
           rdf:resource="http://purl.org/dc/dcmitype/StillImage" />
        <dc:title></dc:title>
      </cc:Work>
    </rdf:RDF>
  </metadata>
  <g
     inkscape:label="Layer 1"
     inkscape:groupmode="layer"
     id="layer1"
     transform="translate(0,-257.31248)">
    <g
       aria-label="Shannon Wilson"
       transform="matrix(0.85381493,0,0,1.0540926,0,-9.2226587e-6)"
       style="font-style:normal;font-variant:normal;font-weight:normal;font-stretch:normal;font-size:34.10404587px;line-height:1.25;font-family:'Gioviale Bold';-inkscape-font-specification:'Gioviale Bold, ';letter-spacing:0px;word-spacing:0px;fill:#000000;fill-opacity:1;stroke:none;stroke-width:0.85260111"
       id="text817" />
    <g
       transform="scale(0.9486833,1.0540926)"
       style="font-style:normal;font-variant:normal;font-weight:normal;font-stretch:normal;font-size:10.0402317px;line-height:1.25;font-family:'Gioviale Bold';-inkscape-font-specification:'Gioviale Bold, ';letter-spacing:0px;word-spacing:0px;fill:#000000;fill-opacity:1;stroke:none;stroke-width:0.25100577"
       id="text840" />
    <path
       id="path886-9"
       style="font-style:normal;font-variant:normal;font-weight:normal;font-stretch:normal;font-size:34.10404587px;line-height:1.25;font-family:'Gioviale Bold';-inkscape-font-specification:'Gioviale Bold, ';letter-spacing:0px;word-spacing:0px;fill:#000000;fill-opacity:1;stroke:none;stroke-width:0.03402115"
       d="m 152.50555,283.9636 q 2.22699,0 4.43784,-1.1117 2.21087,-1.11171 3.96987,-3.03029 1.75901,-1.91862 2.84023,-4.50063 1.08124,-2.58203 1.08124,-5.52266 0,-2.18755 -0.50029,-3.72959 -0.50025,-1.54203 -1.38783,-2.5103 -0.88756,-0.96825 -2.0979,-1.39859 -1.21032,-0.43033 -2.59815,-0.43033 -1.51694,0 -2.79182,0.55585 -1.27487,0.55584 -2.17858,1.43445 -0.9037,0.87861 -1.404,2.02616 -0.50025,1.14758 -0.50025,2.331 0,1.25515 0.33889,2.13375 0.33889,0.87862 0.91984,1.45239 0.58099,0.57378 1.33944,0.84276 0.75846,0.26895 1.6299,0.26895 0.80687,0 1.37171,-0.23311 0.56482,-0.2331 0.90369,-0.59171 0.33889,-0.35861 0.50028,-0.78895 0.16146,-0.43033 0.16146,-0.82482 0,-0.21521 -0.0644,-0.3586 -0.0646,-0.14341 -0.16146,-0.2869 -0.0968,-0.14339 -0.16145,-0.32276 -0.0645,-0.17929 -0.0645,-0.50204 0,-0.43035 0.24208,-0.71724 0.24205,-0.28689 0.66164,-0.28689 0.54868,0 0.80689,0.46621 0.25821,0.46618 0.25821,1.00411 0,0.82482 -0.33891,1.54204 -0.33888,0.71723 -0.93597,1.291 -0.59711,0.57379 -1.38785,0.89654 -0.79075,0.32277 -1.66219,0.32277 -1.06507,0 -1.95264,-0.34069 -0.88759,-0.34068 -1.54921,-0.98618 -0.66165,-0.64551 -1.03283,-1.63171 -0.37116,-0.98618 -0.37116,-2.2772 0,-1.32688 0.54868,-2.61788 0.54868,-1.29101 1.56536,-2.31306 1.01667,-1.02205 2.46906,-1.64963 1.45239,-0.62759 3.22753,-0.62759 1.61378,0 3.14684,0.48416 1.53308,0.48411 2.71112,1.5241 1.17807,1.03997 1.88811,2.70754 0.71005,1.66756 0.71005,4.07027 0,2.11583 -0.72619,4.0882 -0.72619,1.97236 -1.93651,3.65786 -1.21032,1.68552 -2.77569,3.06618 -1.56534,1.38066 -3.2275,2.34891 -1.6622,0.96826 -3.32437,1.50619 -1.66219,0.53791 -3.05004,0.53791 -0.61321,0 -1.29099,-0.0896 -0.67777,-0.0896 -1.24261,-0.39449 -0.56483,-0.30482 -0.93598,-0.84273 -0.37116,-0.53793 -0.37116,-1.43447 0,-0.89653 0.20978,-1.61375 0.20981,-0.71724 0.45186,-1.32689 0.24206,-0.60963 0.45187,-1.12965 0.20978,-0.51998 0.20978,-1.02204 0,-0.57378 -0.38731,-0.57378 -0.45185,0 -1.22646,0.55587 -0.77461,0.55585 -1.61377,1.59583 -0.2582,0.32275 -0.53254,1.03999 -0.27433,0.71722 -0.50027,1.4703 -0.22592,0.75311 -0.37117,1.41653 -0.14522,0.66344 -0.14522,0.87861 0,0.50206 -0.71007,0.50206 -0.22593,0 -0.51641,-0.0539 -0.29046,-0.0537 -0.74232,-0.0537 -0.45187,0 -0.79074,0.14341 -0.33889,0.1434 -0.43572,0.1434 -0.1292,0 -0.1292,-0.21522 0,-0.14339 0.20978,-0.30482 0.20981,-0.16146 0.37117,-0.55585 0.29049,-0.68136 0.58095,-1.5779 0.29049,-0.89653 0.54869,-1.79307 0.25821,-0.89654 0.4196,-1.6317 0.16144,-0.73516 0.16144,-1.05791 0,-0.4662 -0.25819,-0.4662 -0.12902,0 -0.33888,0.16147 -0.2098,0.16146 -0.43573,0.34068 -0.2582,0.21521 -0.5164,0.4662 l -0.22593,-0.32275 q 0.19365,-0.21522 0.56483,-0.55585 0.37115,-0.34069 0.79074,-0.66345 0.41956,-0.32274 0.87142,-0.55585 0.45185,-0.23309 0.83917,-0.23309 0.58095,0 0.98439,0.30481 0.40346,0.30483 0.40346,0.84275 0,0.32275 -0.0485,0.62758 -0.0484,0.30482 -0.11298,0.59171 -0.0645,0.32275 -0.1292,0.60965 0.48413,-0.60965 1.06508,-1.14758 0.58097,-0.53791 1.19419,-0.95031 0.61325,-0.41241 1.19419,-0.64552 0.58096,-0.23309 1.03281,-0.23309 0.61322,0 1.0651,0.37653 0.45186,0.37655 0.45186,0.95035 0,0.6455 -0.20982,1.25513 -0.20977,0.60966 -0.46797,1.25516 -0.25822,0.6455 -0.468,1.38066 -0.20978,0.73516 -0.20978,1.59584 0,1.14756 0.43571,1.55997 0.43572,0.41241 1.30714,0.41241 z m -87.009861,6.77577 q -1.97977,0 -3.73235,-0.39667 -1.75258,-0.39669 -3.06702,-1.20805 -1.31443,-0.81138 -2.07713,-2.05551 -0.76269,-1.2441 -0.76269,-2.939 0,-1.22608 0.25964,-2.27186 0.25964,-1.0458 0.55173,-1.92929 0.2921,-0.88349 0.55174,-1.60474 0.25964,-0.72122 0.25964,-1.26212 0,-0.57699 -0.38946,-0.57699 -0.45437,0 -1.23329,0.55894 -0.77893,0.55895 -1.62277,1.60474 -0.25964,0.32455 -0.5355,1.04578 -0.27587,0.72122 -0.50307,1.47851 -0.22718,0.7573 -0.37323,1.42443 -0.14605,0.66714 -0.14605,0.8835 0,0.50486 -0.71402,0.50486 -0.22717,0 -0.51928,-0.054 -0.29209,-0.0541 -0.74647,-0.0541 -0.45437,0 -0.79515,0.14425 -0.34078,0.14424 -0.43814,0.14424 -0.12983,0 -0.12983,-0.21639 0,-0.14422 0.21097,-0.30651 0.21095,-0.16228 0.37323,-0.55894 0.2921,-0.68517 0.58419,-1.5867 0.2921,-0.90153 0.55175,-1.80307 0.25964,-0.90151 0.42192,-1.64078 0.16227,-0.73927 0.16227,-1.06382 0,-0.4688 -0.25964,-0.4688 -0.12982,0 -0.34079,0.16227 -0.21095,0.16228 -0.43814,0.34259 -0.25964,0.21638 -0.51929,0.46879 l -0.22719,-0.32455 q 0.19475,-0.21636 0.56798,-0.55894 0.37324,-0.34258 0.79515,-0.66714 0.42192,-0.32455 0.87629,-0.55895 0.45437,-0.2344 0.84383,-0.2344 0.5842,0 0.98989,0.30653 0.40569,0.30651 0.40569,0.84743 0,0.32457 -0.0487,0.63107 -0.0487,0.30654 -0.1136,0.595 -0.0649,0.32457 -0.12983,0.61305 0.48683,-0.61305 1.07103,-1.15395 0.58419,-0.54092 1.20084,-0.95562 0.61665,-0.41471 1.20085,-0.64911 0.58419,-0.2344 1.03856,-0.2344 0.61665,0 1.07103,0.37865 0.45437,0.37865 0.45437,0.95561 0,0.64911 -0.24342,1.40641 -0.24341,0.75729 -0.55174,1.65882 -0.30832,0.90154 -0.55173,1.91124 -0.24342,1.00973 -0.24342,2.19976 0,3.13731 1.83372,4.79616 1.83372,1.65881 5.4038,1.65881 1.81749,0 3.86217,-0.57698 2.04467,-0.57698 4.07312,-1.28019 2.02845,-0.70319 3.92709,-1.28017 1.89862,-0.57698 3.39157,-0.57698 1.68766,0 2.90474,0.52288 1.21707,0.52289 2.01222,1.38837 0.79515,0.86547 1.16839,2.01943 0.37323,1.15397 0.37323,2.38006 0,0.6491 -0.25964,0.6491 -0.22719,0 -0.29209,-0.50486 -0.29211,-2.12762 -1.88241,-3.1193 -1.59031,-0.9917 -4.31654,-0.9917 -1.81749,0 -3.66744,0.30654 -1.84995,0.3065 -3.74858,0.68516 -1.89863,0.37864 -3.84594,0.68517 -1.94732,0.30651 -3.92708,0.30651 z m 72.759561,-15.0658 q -0.43677,0 -0.84443,0.50328 -0.40766,0.46733 -0.75708,1.29416 -0.3203,0.82682 -0.52414,1.90529 -0.17471,1.07846 -0.17471,2.26478 0,0.82682 0.20383,1.29415 0.23295,0.46734 0.66973,0.46734 0.43678,0 0.84443,-0.53924 0.43678,-0.53923 0.75709,-1.402 0.3203,-0.89872 0.52413,-1.97719 0.20383,-1.11441 0.20383,-2.22883 0,-1.58174 -0.90268,-1.58174 z m -0.0582,-0.57518 q 1.42681,0 2.32948,0.86277 0.90268,0.82682 0.90268,2.33667 0,1.22227 -0.40766,2.26478 -0.40766,1.04251 -1.07739,1.83339 -0.6406,0.75493 -1.45592,1.22226 -0.81533,0.43139 -1.65976,0.43139 -1.33945,0 -2.27125,-0.75493 -0.90267,-0.79088 -0.90267,-2.40857 0,-1.15037 0.34942,-2.19287 0.37854,-1.04252 0.99003,-1.8334 0.61149,-0.82682 1.42681,-1.29416 0.84444,-0.46733 1.77623,-0.46733 z m -9.2374,8.9872 q -1.1065,0 -1.89271,-0.61113 -0.75708,-0.64708 -0.75708,-1.72554 0,-0.71897 0.37855,-1.11442 0.40765,-0.43137 0.90267,-0.43137 0.34942,0 0.58237,0.28758 0.26207,0.28759 0.26207,0.75492 0,0.28759 -0.0874,0.46735 -0.0582,0.17974 -0.17471,0.32353 -0.0874,0.1438 -0.17471,0.32354 -0.0582,0.14379 -0.0582,0.35949 0,0.32353 0.17471,0.57518 0.20383,0.25164 0.61149,0.25164 0.61148,0 0.87355,-0.50329 0.26207,-0.50327 0.26207,-1.15035 0,-0.68303 -0.37854,-1.15036 -0.34942,-0.46734 -0.7862,-0.86278 -0.43678,-0.43138 -0.81532,-0.89872 -0.34942,-0.50328 -0.34942,-1.2582 0,-0.68303 0.3203,-1.18632 0.3203,-0.50328 0.81532,-0.82682 0.49502,-0.32354 1.07739,-0.46733 0.58237,-0.17975 1.07738,-0.17975 0.90268,0 1.45593,0.50328 0.55325,0.50329 0.55325,1.29416 0,0.71898 -0.3203,1.11441 -0.32031,0.35949 -0.75708,0.35949 -0.40767,0 -0.66973,-0.25164 -0.23294,-0.25164 -0.23294,-0.64708 0,-0.50328 0.1747,-0.71898 0.20384,-0.25164 0.20384,-0.64707 0,-0.53923 -0.43678,-0.53923 -0.40766,0 -0.72796,0.35948 -0.32031,0.35949 -0.32031,0.89872 0,0.79088 0.37854,1.33011 0.40766,0.50329 0.87356,0.97062 0.49501,0.43139 0.87355,0.93466 0.40766,0.46734 0.40766,1.18632 0,0.64708 -0.29119,1.18631 -0.29118,0.53923 -0.75707,0.93467 -0.46591,0.35949 -1.07739,0.57518 -0.58237,0.17974 -1.19386,0.17974 z m -5.63989,-14.23573 q 0.14559,-0.79087 0.49501,-1.25821 0.37854,-0.50328 0.7862,-0.82682 -0.0874,0.036 -0.20383,0.036 -0.11648,0 -0.20383,0 -0.20383,0 -0.34942,-0.036 -0.1456,-0.0359 -0.29119,-0.0719 -0.14559,-0.0359 -0.26207,-0.0719 l 0.26207,-0.43139 q 0.11648,0.0359 0.23295,0.0719 0.29118,0.0719 0.61149,0.0719 0.49502,0 1.2521,-0.1438 0.75708,-0.17975 1.68888,-0.68303 l 0.14559,0.32354 q -0.17472,0.1438 -0.37855,0.39543 -0.17471,0.2157 -0.40765,0.57519 -0.20383,0.32354 -0.40767,0.79087 -0.20383,0.43139 -0.49501,1.40201 -0.29119,0.93466 -0.61149,2.15693 -0.29118,1.1863 -0.61149,2.55237 -0.3203,1.36605 -0.58237,2.66021 -0.23295,1.25821 -0.40766,2.33667 -0.1456,1.07846 -0.1456,1.72554 0,0.68303 0.1456,0.89872 0.17471,0.2157 0.40766,0.2157 0.26207,0 0.52413,-0.1438 0.26207,-0.17975 0.49502,-0.39543 0.26207,-0.2157 0.49501,-0.53924 l 0.23295,0.28759 q -0.46589,0.64708 -0.99002,1.11441 -0.43678,0.43139 -0.96092,0.79087 -0.52413,0.32355 -1.01915,0.32355 -0.7862,0 -1.31033,-0.61113 -0.49502,-0.64708 -0.49502,-1.58175 0,-0.64708 0.20383,-1.79744 0.20383,-1.15037 0.52413,-2.66022 0.32031,-1.54579 0.75709,-3.41513 0.43678,-1.90529 0.87356,-4.06222 z m -3.21352,6.54269 q 0,0.57518 -0.23294,1.29415 -0.23296,0.71898 -0.52414,1.43795 -0.29119,0.71898 -0.52413,1.43796 -0.23295,0.68302 -0.23295,1.22226 0,0.39544 0.11647,0.57518 0.11648,0.17975 0.26207,0.17975 0.20383,0 0.43678,-0.1438 0.23294,-0.17975 0.4659,-0.39543 0.26206,-0.2157 0.49501,-0.53924 l 0.23295,0.28759 q -0.4659,0.64708 -0.99003,1.11441 -0.43678,0.43139 -0.99004,0.79087 -0.52413,0.32355 -1.01914,0.32355 -0.64061,0 -1.16474,-0.32355 -0.52413,-0.35948 -0.52413,-1.47389 0,-0.57519 0.23294,-1.25821 0.26207,-0.71897 0.55326,-1.402 0.29118,-0.68304 0.52413,-1.33011 0.26206,-0.64708 0.26206,-1.18631 0,-0.32354 -0.26206,-0.32354 -0.11648,0 -0.29119,0.14379 -0.17471,0.10785 -0.34942,0.2876 -0.20383,0.17974 -0.43678,0.43138 l -0.20383,-0.32354 q 0.17471,-0.17974 0.49502,-0.50329 0.34942,-0.35948 0.72796,-0.68302 0.40766,-0.35949 0.81532,-0.61113 0.43677,-0.25164 0.7862,-0.25164 0.61149,0 0.96091,0.35949 0.37854,0.35948 0.37854,0.86277 z m -1.31033,-4.27792 q 0,-0.35949 0.14559,-0.75492 0.1456,-0.39543 0.34943,-0.71897 0.23294,-0.32355 0.495,-0.53924 0.2912,-0.21569 0.55326,-0.21569 0.37854,0 0.61149,0.28759 0.26207,0.28759 0.26207,0.79088 0,0.39543 -0.1456,0.82682 -0.11647,0.39543 -0.3203,0.75492 -0.20383,0.32354 -0.4659,0.53923 -0.26206,0.2157 -0.52413,0.2157 -0.37854,0 -0.66972,-0.28759 -0.29119,-0.2876 -0.29119,-0.89873 z m -33.216976,-1.07846 q 0,0.93467 0.174712,1.76149 0.203829,0.82682 0.582371,1.43795 0.37854,0.61113 0.960911,0.97062 0.582371,0.35949 1.368572,0.35949 1.455928,0 2.15477,-0.86276 0.727963,-0.86278 0.727963,-1.9053 0,-0.32353 -0.08735,-0.50327 -0.08735,-0.2157 -0.203831,-0.3595 -0.08735,-0.17975 -0.174708,-0.35949 -0.08735,-0.17974 -0.08735,-0.46733 0,-0.50329 0.262062,-0.82682 0.291185,-0.35949 0.669732,-0.35949 0.495016,0 0.727963,0.43139 0.262061,0.39543 0.262061,1.04251 0,1.04251 -0.3203,1.94123 -0.320309,0.86278 -0.902679,1.50985 -0.553246,0.64709 -1.397686,1.00658 -0.815319,0.35949 -1.80535,0.35949 -0.960912,0 -1.863587,-0.35949 -0.902675,-0.35949 -1.60152,-1.04252 -0.698845,-0.71898 -1.135623,-1.68959 -0.40766,-1.00658 -0.40766,-2.30073 0,-2.08504 0.786201,-3.77463 0.815319,-1.72554 2.125654,-2.9478 1.339453,-1.22226 3.057447,-1.86934 1.717993,-0.64708 3.552465,-0.64708 1.106502,0 1.950942,0.17975 0.873555,0.17974 1.572403,0.43138 0.727962,0.21569 1.368571,0.39544 0.6406,0.17974 1.339448,0.17974 1.019152,0 1.601522,-0.21569 0.61149,-0.2157 1.28121,-0.71897 0.1456,-0.0719 0.23295,-0.1438 0.0874,-0.0719 0.1456,-0.0719 0.23295,0 0.23295,0.2157 0,0.17974 -0.17472,0.43138 -0.17471,0.28759 -0.49502,0.71898 -0.3203,0.39543 -0.6406,0.93466 -0.75708,1.29417 -1.19386,2.51643 -0.407662,1.22225 -0.640609,2.51641 -0.203831,1.25821 -0.262069,2.58832 -0.02912,1.3301 -0.02912,2.80401 0,2.19287 -0.203831,3.77462 -0.174707,1.58175 -0.407654,2.62427 -0.203831,1.04251 -0.436786,1.58174 -0.203823,0.50329 -0.232946,0.61113 0.902679,-1.07846 1.834472,-2.37262 0.931793,-1.3301 1.921823,-2.91185 0.99003,-1.6177 2.00918,-3.55894 1.01914,-1.97719 2.06741,-4.38576 0.49502,-1.11441 1.1065,-2.12097 0.6115,-1.00657 1.16475,-1.79745 0.6406,-0.93466 1.28121,-1.68959 l 0.55326,0.2157 q -0.61149,1.3301 -1.04827,3.37918 -0.40766,2.04909 -0.69884,4.52956 -0.29119,2.48047 -0.43678,5.28447 -0.11648,2.76806 -0.11648,5.60801 0.40766,-0.61113 1.16474,-1.65364 0.7862,-1.04251 1.68888,-2.37262 0.9318,-1.36605 1.8927,-2.9478 0.96091,-1.58175 1.718,-3.2354 0.7862,-1.65364 1.28122,-3.30729 0.49501,-1.6896 0.49501,-3.19945 0,-0.53923 -0.14559,-0.86277 -0.14559,-0.32353 -0.32031,-0.61112 -0.14559,-0.2876 -0.29118,-0.57519 -0.1456,-0.32354 -0.1456,-0.79087 0,-0.50328 0.29119,-0.89872 0.32031,-0.43139 0.87355,-0.43139 0.58238,0 0.99004,0.50329 0.40766,0.46733 0.40766,1.29415 0,1.04252 -0.20383,2.04909 -0.17472,1.00656 -0.49502,2.04908 -0.72796,2.44452 -2.00918,4.96093 -1.25209,2.51643 -2.82449,4.96094 -1.57241,2.44453 -3.31952,4.74525 -1.71799,2.30073 -3.34863,4.27791 l -0.52413,-0.0719 q -0.0582,-2.69616 -0.0582,-4.6374 0,-1.97718 0,-3.55893 0,-1.76149 0.0874,-3.12754 0.0874,-1.36607 0.37855,-2.69617 -0.9318,1.79744 -1.77624,3.34324 -0.84444,1.5458 -1.74711,2.91186 -0.87356,1.36605 -1.863587,2.66021 -0.990033,1.25821 -2.154773,2.55236 -1.048271,1.15036 -1.747119,1.83339 -0.698839,0.68304 -1.135616,1.07847 -0.52414,0.43139 -0.786201,0.61113 l -0.320309,-0.39544 q 0.902679,-1.50985 1.42681,-3.23539 0.553255,-1.72554 0.815316,-3.59488 0.291194,-1.90529 0.349424,-3.91843 0.08736,-2.01313 0.08736,-4.13411 0,-1.43795 0.262061,-2.55237 0.291185,-1.15036 0.698847,-1.97718 0.407663,-0.86278 0.873556,-1.43795 0.465901,-0.61114 0.873555,-1.00658 -0.05823,0.0359 -0.116469,0.0359 -0.08736,0.0359 -0.26207,0.0359 -0.786201,0 -1.572403,-0.53923 -0.757077,-0.53923 -1.572402,-1.18631 -0.786202,-0.68303 -1.659757,-1.22226 -0.873555,-0.53923 -1.863588,-0.53923 -1.222978,0 -2.387718,0.68303 -1.164742,0.68302 -2.067416,1.86934 -0.902676,1.1863 -1.455928,2.76806 -0.553252,1.58175 -0.553252,3.41513 z m -12.260277,7.11786 q 0.436778,-0.61112 0.960912,-1.15035 0.524134,-0.53924 1.077386,-0.93467 0.553252,-0.43139 1.077386,-0.64708 0.524133,-0.25164 0.931793,-0.25164 0.553253,0 0.960913,0.39543 0.407659,0.35949 0.407659,0.93467 0,0.64708 -0.20383,1.25821 -0.203829,0.61113 -0.465897,1.25821 -0.262066,0.64707 -0.465897,1.33011 -0.203829,0.68303 -0.203829,1.43795 0,0.46734 0.145592,0.61113 0.145594,0.1438 0.262068,0.1438 0.232948,0 0.495015,-0.1438 0.262067,-0.17975 0.465896,-0.35949 0.232949,-0.21569 0.465897,-0.53923 l 0.232948,0.28759 q -0.436777,0.64708 -0.931793,1.11441 -0.40766,0.39544 -0.931794,0.75492 -0.524133,0.32355 -1.106504,0.32355 -0.698845,0 -1.222979,-0.43139 -0.495015,-0.43139 -0.495015,-1.29415 0,-0.71899 0.232948,-1.40201 0.262067,-0.71897 0.553253,-1.402 0.320304,-0.68304 0.58237,-1.25821 0.262068,-0.61113 0.262068,-1.11442 0,-0.57518 -0.349423,-0.57518 -0.40766,0 -1.106505,0.57518 -0.698845,0.53923 -1.455927,1.58175 -0.232948,0.32354 -0.495015,1.04252 -0.232948,0.71897 -0.436778,1.47389 -0.20383,0.75494 -0.349423,1.43797 -0.116474,0.64707 -0.116474,0.86276 0,0.50329 -0.640608,0.50329 -0.20383,0 -0.465897,-0.036 -0.262066,-0.0719 -0.669726,-0.0719 -0.40766,0 -0.727964,0.14379 -0.291185,0.1438 -0.378541,0.1438 -0.116474,0 -0.116474,-0.21569 0,-0.1438 0.174711,-0.28759 0.20383,-0.17975 0.349423,-0.57518 0.262066,-0.68303 0.524134,-1.58175 0.262066,-0.89872 0.495015,-1.79744 0.232948,-0.89872 0.378541,-1.61769 0.145592,-0.75494 0.145592,-1.07847 0,-0.46734 -0.232948,-0.46734 -0.116474,0 -0.320304,0.17974 -0.174711,0.1438 -0.378541,0.32355 -0.232948,0.21568 -0.465897,0.46733 l -0.203829,-0.32353 q 0.174711,-0.2157 0.495015,-0.53925 0.349422,-0.35948 0.727964,-0.68302 0.37854,-0.32354 0.7862,-0.53923 0.40766,-0.25164 0.757082,-0.25164 0.524134,0 0.873557,0.32354 0.378541,0.28759 0.378541,0.82682 0,0.32353 -0.05824,0.64708 -0.02911,0.28758 -0.08736,0.57518 -0.05824,0.32354 -0.116474,0.61112 z m -7.859732,-2.48046 q -0.436778,0 -0.844438,0.50328 -0.407659,0.46733 -0.757082,1.29416 -0.320304,0.82682 -0.524134,1.90529 -0.174711,1.07846 -0.174711,2.26478 0,0.82682 0.20383,1.29415 0.232948,0.46734 0.669726,0.46734 0.436778,0 0.844438,-0.53924 0.436778,-0.53923 0.757082,-1.402 0.320305,-0.89872 0.524134,-1.97719 0.20383,-1.11441 0.20383,-2.22883 0,-1.58174 -0.902675,-1.58174 z m -0.05824,-0.57518 q 1.426808,0 2.329482,0.86277 0.902676,0.82682 0.902676,2.33667 0,1.22227 -0.40766,2.26478 -0.40766,1.04251 -1.077386,1.83339 -0.640608,0.75493 -1.455927,1.22226 -0.815319,0.43139 -1.659758,0.43139 -1.339453,0 -2.271246,-0.75493 -0.902675,-0.79088 -0.902675,-2.40857 0,-1.15037 0.349423,-2.19287 0.378541,-1.04252 0.990031,-1.8334 0.611489,-0.82682 1.426808,-1.29416 0.844438,-0.46733 1.776232,-0.46733 z m -22.053652,3.05564 q 0.436778,-0.61112 0.960912,-1.15035 0.524133,-0.53924 1.077385,-0.93467 0.553253,-0.43139 1.077387,-0.64708 0.524134,-0.25164 0.931793,-0.25164 0.553252,0 0.960912,0.39543 0.40766,0.35949 0.40766,0.93467 0,0.64708 -0.20383,1.25821 -0.20383,0.61113 -0.465897,1.25821 -0.262067,0.64707 -0.465896,1.33011 -0.203831,0.68303 -0.203831,1.43795 0,0.46734 0.145594,0.61113 0.145592,0.1438 0.262066,0.1438 0.232948,0 0.495016,-0.1438 0.262066,-0.17975 0.465897,-0.35949 0.232948,-0.21569 0.465896,-0.53923 l 0.232949,0.28759 q -0.436779,0.64708 -0.931794,1.11441 -0.407659,0.39544 -0.931793,0.75492 -0.524134,0.32355 -1.106505,0.32355 -0.698845,0 -1.222979,-0.43139 -0.495016,-0.43139 -0.495016,-1.29415 0,-0.71899 0.232949,-1.40201 0.262067,-0.71897 0.553253,-1.402 0.320303,-0.68304 0.58237,-1.25821 0.262067,-0.61113 0.262067,-1.11442 0,-0.57518 -0.349423,-0.57518 -0.407659,0 -1.106504,0.57518 -0.698845,0.53923 -1.455927,1.58175 -0.232948,0.32354 -0.495016,1.04252 -0.232948,0.71897 -0.436777,1.47389 -0.203831,0.75494 -0.349423,1.43797 -0.116474,0.64707 -0.116474,0.86276 0,0.50329 -0.640608,0.50329 -0.20383,0 -0.465897,-0.036 -0.262067,-0.0719 -0.669727,-0.0719 -0.407659,0 -0.727963,0.14379 -0.291185,0.1438 -0.378541,0.1438 -0.116475,0 -0.116475,-0.21569 0,-0.1438 0.174712,-0.28759 0.20383,-0.17975 0.349422,-0.57518 0.262068,-0.68303 0.524134,-1.58175 0.262067,-0.89872 0.495016,-1.79744 0.232948,-0.89872 0.37854,-1.61769 0.145594,-0.75494 0.145594,-1.07847 0,-0.46734 -0.232949,-0.46734 -0.116474,0 -0.320304,0.17974 -0.174712,0.1438 -0.378541,0.32355 -0.232948,0.21568 -0.465897,0.46733 l -0.20383,-0.32353 q 0.174711,-0.2157 0.495016,-0.53925 0.349422,-0.35948 0.727963,-0.68302 0.378542,-0.32354 0.786201,-0.53923 0.40766,-0.25164 0.757082,-0.25164 0.524134,0 0.873557,0.32354 0.37854,0.28759 0.37854,0.82682 0,0.32353 -0.05824,0.64708 -0.02912,0.28758 -0.08736,0.57518 -0.05824,0.32354 -0.116474,0.61112 z m -6.741398,3.88248 q 0,0.53923 0.378542,0.53923 0.203829,0 0.436777,-0.14379 0.232949,-0.17974 0.465897,-0.39544 0.262067,-0.25164 0.495015,-0.57518 l 0.20383,0.28759 q -0.465897,0.64708 -0.931793,1.11441 -0.40766,0.43139 -0.873557,0.79087 -0.436777,0.32355 -0.815319,0.32355 -0.669726,0 -1.048268,-0.46733 -0.349422,-0.46735 -0.349422,-1.11442 0,-0.35949 0.02912,-0.57518 0.02911,-0.2157 0.08736,-0.53923 -0.174711,0.39543 -0.524134,0.86276 -0.320304,0.46735 -0.757082,0.86278 -0.40766,0.39544 -0.902674,0.68303 -0.465897,0.28759 -0.960913,0.28759 -1.164742,0 -1.776231,-0.71898 -0.582371,-0.71897 -0.582371,-1.94124 0,-1.29416 0.465897,-2.40857 0.465897,-1.11441 1.164742,-1.94123 0.698845,-0.82682 1.543282,-1.29416 0.844438,-0.50328 1.630639,-0.50328 0.844437,0 1.281216,0.46733 0.436778,0.43139 0.495015,1.11442 0.145593,-0.53923 0.524134,-0.86278 0.378541,-0.35948 1.135623,-0.50328 0.349423,-0.0719 0.611489,-0.14379 0.262068,-0.10786 0.436779,-0.2157 0.203829,-0.14379 0.349422,-0.25165 l 0.174712,0.43139 q -0.203831,0.1438 -0.40766,0.35949 -0.174711,0.17974 -0.378541,0.46734 -0.20383,0.28759 -0.378541,0.71898 -0.174711,0.43139 -0.40766,1.15036 -0.20383,0.68302 -0.378541,1.4739 -0.174712,0.75493 -0.320304,1.4739 -0.116474,0.71898 -0.116474,1.18631 z m -4.076596,0.82682 q 0.262067,0 0.553252,-0.21569 0.291186,-0.25164 0.582371,-0.64707 0.320304,-0.39545 0.582371,-0.86278 0.291186,-0.50329 0.495015,-1.00656 0.08736,-0.25165 0.174711,-0.61113 0.116475,-0.39545 0.203831,-0.75494 0.08736,-0.39543 0.145592,-0.75492 0.05824,-0.35948 0.05824,-0.57518 0,-0.64708 -0.232948,-1.11441 -0.20383,-0.50329 -0.81532,-0.50329 -0.524133,0 -0.99003,0.50329 -0.465897,0.50328 -0.815319,1.29415 -0.320304,0.75493 -0.524134,1.6896 -0.174712,0.89873 -0.174712,1.68959 0,1.00658 0.174712,1.43796 0.174711,0.43138 0.582371,0.43138 z M 21.826126,269.84986 q 0.20383,-0.79087 0.524134,-1.25821 0.349422,-0.50328 0.757082,-0.82682 -0.08736,0.036 -0.20383,0.036 -0.116474,0 -0.20383,0 -0.203829,0 -0.349422,-0.036 -0.145593,-0.0359 -0.291186,-0.0719 -0.145592,-0.0359 -0.262066,-0.0719 l 0.262066,-0.43139 q 0.116474,0.0359 0.232948,0.0719 0.291186,0.0719 0.61149,0.0719 0.495015,0 1.252097,-0.1438 0.757083,-0.17975 1.688876,-0.68303 l 0.145592,0.32354 q -0.174711,0.17974 -0.37854,0.43139 -0.174712,0.21569 -0.40766,0.53923 -0.20383,0.32354 -0.40766,0.79087 -0.145592,0.28759 -0.320303,0.86278 -0.145593,0.57517 -0.349423,1.29415 -0.20383,0.71898 -0.407659,1.54581 -0.203831,0.82682 -0.378542,1.65364 -0.465897,1.94123 -0.931793,4.17006 0.436778,-0.64708 0.99003,-1.18631 0.553253,-0.57518 1.106505,-0.97062 0.553252,-0.43138 1.077386,-0.64708 0.524133,-0.25164 0.931793,-0.25164 0.524134,0 0.931794,0.32354 0.407659,0.32354 0.407659,1.07846 0,0.64709 -0.203829,1.29416 -0.20383,0.64708 -0.465897,1.29416 -0.232948,0.64708 -0.436778,1.33011 -0.20383,0.68302 -0.20383,1.402 0,0.46734 0.145592,0.61113 0.145594,0.1438 0.291186,0.1438 0.20383,0 0.436779,-0.1438 0.232948,-0.17975 0.465896,-0.39543 0.262067,-0.2157 0.495015,-0.53924 l 0.232948,0.28759 q -0.465896,0.64708 -0.960911,1.11441 -0.436779,0.43139 -0.960913,0.79087 -0.524133,0.32355 -1.048267,0.32355 -0.669726,0 -1.222978,-0.35949 -0.524134,-0.39543 -0.524134,-1.36605 0,-0.71899 0.232948,-1.40201 0.262067,-0.71897 0.553252,-1.402 0.320304,-0.68304 0.553253,-1.29417 0.262067,-0.61112 0.262067,-1.1144 0,-0.53924 -0.320305,-0.53924 -0.320303,0 -1.048267,0.50329 -0.727964,0.50328 -1.630638,1.86934 -0.291186,0.43138 -0.524134,1.15035 -0.232948,0.68303 -0.40766,1.40201 -0.174711,0.71897 -0.262067,1.33011 -0.08736,0.57518 -0.08736,0.75493 0,0.53923 -0.40766,0.53923 -0.232948,0 -0.61149,-0.0719 -0.37854,-0.0719 -0.757082,-0.0719 -0.407659,0 -0.698845,0.1438 -0.291185,0.14379 -0.378541,0.14379 -0.116474,0 -0.116474,-0.14379 0,-0.10785 0.174711,-0.32354 0.174712,-0.21569 0.349423,-0.64708 0.349422,-0.75493 0.582371,-1.79744 0.232948,-1.04252 0.582371,-2.66021 0.291185,-1.33011 0.582371,-2.73212 0.320303,-1.43795 0.582371,-2.66021 0.262066,-1.25821 0.436777,-2.15693 0.203831,-0.89872 0.291186,-1.22226 z m -11.9035697,16.6443 q 1.0482677,0 1.8927057,-0.50327 0.873556,-0.46735 1.485045,-1.33011 0.61149,-0.86278 0.931794,-2.01314 0.349422,-1.15036 0.349422,-2.44451 0,-2.08504 -0.495015,-3.55895 -0.465896,-1.50985 -1.048267,-2.804 -0.553253,-1.33011 -1.01915,-2.66021 -0.465896,-1.36605 -0.465896,-3.19945 0,-1.402 0.553252,-2.58831 0.553252,-1.18632 1.368572,-2.04908 0.844438,-0.86278 1.834467,-1.33011 0.990031,-0.46733 1.863587,-0.46733 1.630639,0 2.59155,0.97061 0.990031,0.93467 0.990031,2.66021 0,0.53923 -0.08735,1.07847 -0.08736,0.53923 -0.291186,0.97061 -0.174711,0.43139 -0.465896,0.68303 -0.262068,0.25165 -0.640608,0.25165 -0.378542,0 -0.640608,-0.28759 -0.262068,-0.32355 -0.262068,-0.82683 0,-0.53923 0.203831,-0.82682 0.232948,-0.28759 0.495014,-0.50329 0.291186,-0.25163 0.495016,-0.53923 0.232948,-0.32353 0.232948,-0.86276 0,-0.35949 -0.174711,-0.71898 -0.174711,-0.35949 -0.495016,-0.61113 -0.291185,-0.2876 -0.698845,-0.46734 -0.37854,-0.17975 -0.815319,-0.17975 -1.426808,0 -2.242127,1.15036 -0.786201,1.15037 -0.786201,3.05566 0,1.79744 0.495015,3.19945 0.524134,1.36605 1.135624,2.76805 0.640608,1.40201 1.135623,3.05565 0.524133,1.65365 0.524133,3.95438 0,2.01312 -0.669726,3.59487 -0.669727,1.58175 -1.717994,2.66022 -1.048267,1.07846 -2.358602,1.65365 -1.281216,0.57517 -2.562432,0.57517 -1.3103342,0 -2.3586018,-0.50327 -1.0482725,-0.46735 -1.8053546,-1.33011 -0.7279636,-0.82683 -1.1356232,-1.94124 -0.3785411,-1.07846 -0.3785411,-2.30072 0,-1.18631 0.3494226,-2.19289 0.378541,-1.0425 0.9900304,-1.79743 0.6114894,-0.75492 1.4268087,-1.18631 0.8153191,-0.43139 1.6888754,-0.43139 1.1065046,0 1.8344686,0.64708 0.727963,0.61113 0.727963,1.402 0,0.46733 -0.232948,0.79088 -0.20383,0.28759 -0.611489,0.28759 -0.495016,0 -0.669727,-0.43139 -0.174711,-0.43139 -0.174711,-0.97062 0,-0.39543 -0.174711,-0.75492 -0.1747118,-0.39544 -0.9609124,-0.39544 -0.640608,0 -1.2520974,0.39544 -0.6114894,0.39543 -1.1065046,1.04251 -0.4658967,0.64708 -0.7570822,1.50985 -0.2911854,0.86277 -0.2911854,1.76149 0,1.15037 0.3203039,2.04908 0.3494226,0.89872 0.9317934,1.50986 0.5823709,0.64708 1.339453,0.97061 0.7862008,0.35949 1.659757,0.35949 z"
       inkscape:connector-curvature="0" />
  </g>
</svg>
